<?xml version="1.0" standalone="no"?><!DOCTYPE svg PUBLIC "-//W3C//DTD SVG 1.1//EN" "http://www.w3.org/Graphics/SVG/1.1/DTD/svg11.dtd"><svg class="icon" width="200px" height="200.00px" viewBox="0 0 1024 1024" version="1.1" xmlns="http://www.w3.org/2000/svg"><path d="M810.177208 143.939623v736.120754c0 52.74566-42.698868 95.637736-95.637736 95.637736H157.135698c-52.74566 0-95.637736-42.892075-95.637736-95.637736V143.939623c0-52.74566 42.892075-95.637736 95.637736-95.637736h557.403774c52.938868 0 95.637736 42.892075 95.637736 95.637736z" fill="#E4E3FF" /><path d="M810.177208 143.939623v736.120754c0 52.74566-42.698868 95.637736-95.637736 95.637736h-42.892076c52.74566 0 95.637736-42.892075 95.637736-95.637736V143.939623c0-52.74566-42.892075-95.637736-95.637736-95.637736h42.892076c52.938868 0 95.637736 42.892075 95.637736 95.637736z" fill="#D0D0F7" /><path d="M369.277585 157.502792v177.287246c0 17.620528-14.297358 31.917887-31.917887 31.917887H170.698868c-17.639849 0-31.917887-14.297358-31.917887-31.917887V157.502792c0-17.620528 14.297358-31.917887 31.917887-31.917886h166.66083c17.620528 0 31.917887 14.297358 31.917887 31.917886z" fill="#A2A2F9" /><path d="M173.500377 243.866566a9.660377 9.660377 0 0 1-9.660377-9.660377v-28.92317a9.660377 9.660377 0 1 1 19.320755 0v28.92317a9.660377 9.660377 0 0 1-9.660378 9.660377zM173.500377 179.992151a9.660377 9.660377 0 0 1-9.660377-9.660377v-7.940831a9.660377 9.660377 0 1 1 19.320755 0v7.92151a9.660377 9.660377 0 0 1-9.660378 9.660377z" fill="#FFFFFF" opacity=".3" /><path d="M369.277585 157.464151v177.364528c0 17.581887-14.297358 31.879245-31.879245 31.879246h-166.738114c-14.876981 0-27.435472-10.24-30.913207-24.150944 2.125283 0.579623 4.636981 0.77283 6.955472 0.77283h166.738113c17.581887 0 31.879245-14.297358 31.879245-32.072453V134.086038c0-2.704906-0.386415-5.216604-0.966038-7.728302 14.297358 3.284528 24.923774 15.843019 24.923774 31.106415z" fill="#7979F7" /><path d="M202.095094 618.012981h467.562264a13.910943 13.910943 0 0 0 0-27.821887h-467.562264a13.910943 13.910943 0 0 0 0 27.821887zM202.095094 532.827774h467.562264a13.910943 13.910943 0 0 0 0-27.821887h-467.562264a13.910943 13.910943 0 0 0 0 27.821887zM313.749736 873.549283h244.272302a13.910943 13.910943 0 0 0 0-27.821887H313.749736a13.910943 13.910943 0 0 0 0 27.821887zM202.095094 788.364075h467.562264a13.910943 13.910943 0 0 0 0-27.821886h-467.562264a13.910943 13.910943 0 0 0 0 27.821886zM202.095094 447.642566h467.562264a13.910943 13.910943 0 0 0 0-27.821887h-467.562264a13.910943 13.910943 0 0 0 0 27.821887zM443.604528 297.385057h226.05283a13.910943 13.910943 0 0 0 0-27.821887h-226.05283a13.910943 13.910943 0 0 0 0 27.821887zM443.604528 212.199849h226.05283a13.910943 13.910943 0 0 0 0-27.821887h-226.05283a13.910943 13.910943 0 0 0 0 27.821887zM202.095094 703.178868h467.562264a13.910943 13.910943 0 0 0 0-27.821887h-467.562264a13.910943 13.910943 0 0 0 0 27.821887z" fill="#FFFFFF" /><path d="M810.177208 447.468679v306.233963c-71.873208 45.983396-168.476981 36.129811-229.337359-28.015095-69.168302-72.646038-66.270189-187.604528 6.569057-256.77283 61.826415-58.735094 153.986415-65.304151 222.768302-21.446038z" fill="#D0D0F7" /><path d="M944.978113 723.233811a63.874415 63.874415 0 0 1-92.623698 87.986717c-11.321962-11.920906-35.743396-46.563019-56.184755-82.750792a144.867019 144.867019 0 0 0 69.013736-65.574642c35.086491 22.257509 68.453434 48.398491 79.794717 60.338717z" fill="#F9B938" /><path d="M922.430792 718.442264c2.511698 2.666264 4.86883 5.506415 6.878189 8.404528a5.834868 5.834868 0 0 1-0.77283 7.496453l-0.637585 0.618264a5.931472 5.931472 0 0 1-8.192-1.468377 59.314717 59.314717 0 0 0-5.64166-6.974792 5.854189 5.854189 0 0 1 0.212528-8.211321 5.796226 5.796226 0 0 1 8.153358 0.135245zM934.023245 750.360151a5.970113 5.970113 0 0 1 6.704302 4.830189 70.462792 70.462792 0 0 1-3.632302 35.782037 5.545057 5.545057 0 0 1-1.449056 2.241208 5.834868 5.834868 0 0 1-9.46717-6.317887c3.612981-9.46717 4.636981-19.803774 2.994717-29.831245a5.950792 5.950792 0 0 1 4.830189-6.704302z" fill="#FFFFFF" opacity=".3" /><path d="M887.981887 678.081208a145.350038 145.350038 0 0 1-23.648604 28.903849c-21.040302 19.842415-25.580679 51.644377-9.273962 75.544151 10.510491 15.398642 19.881057 27.667321 25.754566 33.849962 6.086038 6.414491 13.118792 11.206038 20.75049 14.567849-17.794415 0.869434-35.975245-5.796226-49.209962-19.70717-11.321962-11.940226-35.743396-46.563019-56.184755-82.770113a144.867019 144.867019 0 0 0 69.013736-65.574642c7.766943 4.926792 15.495245 10.046792 22.798491 15.186114z" fill="#ECB021" /><path d="M844.162415 446.135547c69.11034 72.742642 66.192906 187.797736-6.491773 256.850113-72.742642 69.12966-187.797736 66.192906-256.908076-6.549735-69.052377-72.665358-66.134943-187.720453 6.607698-256.850114 72.684679-69.052377 187.720453-66.115623 256.792151 6.569057z" fill="#474646" /><path d="M844.123774 446.154868c69.12966 72.742642 66.192906 187.739774-6.472453 256.77283a180.880906 180.880906 0 0 1-142.741736 49.074717 180.958189 180.958189 0 0 0 115.847245-49.750943c72.665358-69.052377 75.602113-184.030189 6.472453-256.77283a181.808302 181.808302 0 0 0-113.567396-55.682416 181.402566 181.402566 0 0 1 140.461887 56.358642z" fill="#2D2C2C" /><path d="M601.938113 680.090566l-0.135245 0.135245a5.603019 5.603019 0 0 1-7.92151-0.463698 162.893283 162.893283 0 0 1-38.93132-135.43849 5.603019 5.603019 0 0 1 11.032151 1.835471 151.725887 151.725887 0 0 0 36.284377 126.164529 5.603019 5.603019 0 0 1-0.328453 7.766943zM578.502038 505.237736a5.603019 5.603019 0 0 1-8.868227-6.530415c6.39517-12.906264 14.490566-24.923774 24.092981-35.762717a5.583698 5.583698 0 1 1 8.365887 7.41917 151.783849 151.783849 0 0 0-22.412075 33.308981 5.603019 5.603019 0 0 1-1.159246 1.584302z" fill="#FFFFFF" opacity=".3" /><path d="M806.912 481.550491a130.337811 130.337811 0 0 1-4.636981 184.204075 130.337811 130.337811 0 0 1-184.262038-4.714264 130.337811 130.337811 0 0 1 4.752906-184.184755 130.318491 130.318491 0 0 1 184.146113 4.694944z" fill="#A2A2F9" /><path d="M646.781585 656.306717a129.970717 129.970717 0 0 0 101.105509 40.399698 130.318491 130.318491 0 0 1-125.101886-219.870189 129.352453 129.352453 0 0 1 83.079245-35.646792 130.221887 130.221887 0 0 0-59.082868 215.117283z" fill="#7979F7" /><path d="M299.954717 319.797132c10.819623 0 18.470642-10.916226 14.548528-21.00166a64.859774 64.859774 0 0 0-120.947924 0 15.533887 15.533887 0 0 0 14.548528 21.00166zM285.039094 203.408906c0 17.195472-13.910943 30.913208-31.106415 30.913207-17.002264 0-30.913208-13.717736-30.913207-30.913207 0-17.195472 13.910943-30.913208 30.913207-30.913208 17.195472 0 31.106415 13.717736 31.106415 30.913208z" fill="#FFFFFF" /></svg>