<?xml version="1.0" standalone="no"?><!DOCTYPE svg PUBLIC "-//W3C//DTD SVG 1.1//EN" "http://www.w3.org/Graphics/SVG/1.1/DTD/svg11.dtd"><svg class="icon" width="200px" height="200.00px" viewBox="0 0 1024 1024" version="1.1" xmlns="http://www.w3.org/2000/svg"><path d="M870.786415 512.096604c0 184.996226-119.151094 342.53766-283.512755 399.398641-45.017358 15.379321-89.493736 23.667925-139.747018 23.667925-98.767698 0-191.681208-34.835321-261.854189-90.826868a444.319396 444.319396 0 0 1-71.390189-71.776604c-0.193208-0.405736-0.579623-0.811472-0.792151-1.217207l-0.193207-0.193208a420.09117 420.09117 0 0 1-88.836831-259.245887c0-23.455396 2.009358-46.524377 5.603019-68.975094 1.217208-7.41917 2.627623-14.83834 4.424453-22.25751 4.810868-22.257509 11.437887-43.703547 19.649208-64.569962 61.96166-156.594717 214.730868-267.264 393.370566-267.264 19.668528 0 38.718792 1.410415 57.575849 4.018717 14.432604 1.79683 28.652679 4.405132 42.698868 7.805585 6.201962 1.603623 12.423245 3.207245 18.644528 5.216604 37.095849 10.626415 71.969811 26.469434 104.061585 46.524377 6.221283 3.806189 12.230038 7.805585 18.238792 12.01751 53.576453 36.670792 105.336755 94.208 135.747623 154.991094v0.193208c1.79683 3.226566 3.400453 6.433811 4.61766 9.641056 5.796226 11.418566 10.626415 23.04966 15.224755 34.893283a425.558943 425.558943 0 0 1 26.469434 147.95834z" fill="#E4E3FF" /><path d="M115.093736 701.923019a381.565585 381.565585 0 0 1-48.997434-161.135094 18.296755 18.296755 0 0 1 16.88634-19.610567c10.143396-0.347774 18.857057 6.820226 19.591245 16.88634 3.864151 51.818264 18.799094 100.87366 44.321811 145.794415a18.296755 18.296755 0 0 1-31.801962 18.045585zM166.255094 279.223547a18.277434 18.277434 0 0 1-1.120603-25.831849 383.652226 383.652226 0 0 1 100.467924-78.442264 18.258113 18.258113 0 1 1 17.408 32.130415 347.580377 347.580377 0 0 0-90.942792 71.023094 18.277434 18.277434 0 0 1-25.812529 1.120604zM327.448151 167.008604a18.316075 18.316075 0 0 1 12.403924-22.682566c13.737057-4.038038 27.879849-7.341887 42.080604-9.795623a18.451321 18.451321 0 0 1 21.136906 14.915623 18.296755 18.296755 0 0 1-14.915623 21.136905c-12.80966 2.202566-25.580679 5.177962-38.003924 8.829585a18.296755 18.296755 0 0 1-22.701887-12.403924z" fill="#FFFFFF" opacity=".6" /><path d="M790.02566 448.531321c-0.734189 7.303245-4.61766 14.432604-10.742339 18.277434-6.298566 3.960755-14.490566-4.59834-20.711849-0.483019-10.974189 7.206642 18.393358 27.280906 10.723019 38.023245-5.680302 7.94083-22.566642-6.124679-29.251623 0.966038-5.023396 5.332528 7.979472 19.823094 0.966038 21.948377-7.960151 2.415094-15.10883-7.071396-22.663246-3.168604-7.322566 3.902792-12.925585 10.723019-19.996981 15.108831-9.003472 5.37117-20.48 6.569057-29.734641 2.202566-9.505811-4.385811-16.074868-14.625811-14.876981-24.865812 1.236528-11.457208 10.974189-20.22883 21.948377-23.899773 10.723019-3.651623 22.663245-2.917434 33.888604-2.183246-10.24-10.24-10.49117-28.517434-0.483019-39.008603 0.231849-1.700226 0.231849-3.670943 0.483019-5.37117a118.378264 118.378264 0 0 1-59.720453-59.952302c-25.34883-6.569057-47.297208-23.899774-61.18883-46.08a112.755925 112.755925 0 0 1-15.61117-41.191849c-3.168604-19.262792-1.217208-39.240453-3.651623-58.735094-2.434415-19.513962-10.24-39.742792-27.300226-49.750944-9.98883-5.834868-22.663245-7.303245-33.154415-2.666264-10.723019 4.636981-18.528604 15.591849-18.277434 27.049057 0 11.708377 10.046792 19.436679 20.48 24.382792 5.757585 2.724226 3.342491 12.848302-1.468378 16.809057-4.926792 4.076679-11.940226 4.405132-18.045584 2.202566-6.086038-2.202566-10.046792-13.176755-15.843019-10.49117-4.636981 2.163925 3.226566 31.048453-0.483019 33.656755-2.163925 1.507019-12.925585-1.951396-15.843019-2.202566a50.716981 50.716981 0 0 0-16.094189 0.966037c-10.723019 2.704906-20.711849 11.457208-20.711849 22.431397-0.25117 10.723019 8.520453 19.262792 16.326038 27.049056 7.805585 7.573736 15.843019 17.330717 13.408604 28.053736-3.419774 15.10883-26.566038 22.914415-23.648604 38.255094 2.202566 11.206038 19.011623 19.030943 15.128151 29.753963-3.902792 10.24-21.214189 6.569057-28.285585 15.10883-6.569057 8.037434 0 20.48-3.670943 30.21766-2.898113 7.573736-11.206038 11.457208-19.243472 13.176755-7.805585 1.932075-16.326038 2.434415-23.165585 6.820226-10.954868 6.820226-14.876981 20.963019-15.340679 33.637434-0.50234 12.925585 1.062642 26.044377-2.453736 38.274415-3.555019 12.384604-24.653283 8.926189-27.783245 21.446038-1.603623 6.433811 5.158642 12.288-0.734189 14.876981-5.796226 2.531019-12.674415-0.734189-17.311396-5.12s-8.037434-9.98883-12.906264-14.142792c-16.577208-13.157434-41.230491-3.072-61.923019-8.037434a42.853434 42.853434 0 0 1-29.000453-24.865811c-5.12-12.191396 10.76166-27.686642 2.666264-38.023246-9.583094-12.288-31.840604 23.126943-44.843472 14.123472-12.655094-8.752302-17.736453-24.266868-32.169056-29.483472-14.58717-5.274566-31.917887-11.959547-35.105812-27.049056-3.149283-14.876981 13.234717-44.032-1.951396-43.896755-8.114717 0.077283-10.954868 12.481208-18.547924 15.36-7.766943 2.975396-13.408604-6.569057-21.677887-6.086038-10.703698 0.618264-1.642264 26.005736-11.457208 29.734642-3.57434 1.352453-6.337208-4.153962-8.771622-6.820227a417.424906 417.424906 0 0 1 23.880452-87.020679c0.966038 0.231849 1.719547 0.483019 2.704906 0.714868 7.052075 2.704906 12.172075 8.307925 18.258113 12.674415s14.142792 7.805585 20.73117 4.636981c8.771623-4.134642 12.423245-17.543245 22.180227-17.311396 8.520453 0 14.625811 11.708377 23.165584 10.008151 4.385811-0.966038 7.052075-5.603019 10.47185-9.022793 8.037434-8.056755 20.711849-8.771623 31.937207-7.071396 11.206038 1.468377 22.412075 5.12 33.869283 3.902793 16.577208-1.468377 31.859925-13.852981 36.323019-29.985812 2.028679-7.303245 3.187925-16.577208 10.008151-19.745811 3.670943-1.700226 7.786264-1.217208 11.689056-0.734189 3.902792 0.483019 8.307925 0.483019 11.457208-1.932075 3.168604-2.453736 2.395774-7.67034 2.202566-11.476528-0.656906-12.152755 20.518642-13.041509 31.686038-18.026265 12.249358-5.487094 27.261585-8.732981 38.757434-1.236528 10.935547 7.148679 15.843019 22.682566 28.517434 26.585359 9.273962 2.917434 19.513962-2.434415 25.34883-10.008151 6.105358-7.786264 8.790943-17.292075 11.206038-26.797887l29.270943-60.705811c3.902792-8.288604 7.805585-16.326038 11.689057-24.382793 6.588377-13.640453 13.408604-27.783245 24.865811-37.772075 13.176755-11.708377 31.203019-16.345358 45.345811-26.817208 4.385811-3.168604 8.288604-7.071396 11.940227-10.723019 123.710792 29.753962 224.082113 114.803925 276.924377 218.652981-11.457208 9.273962-26.817208 13.910943-41.443019 16.577208-0.483019 0-0.734189 0.25117-1.217207 0.25117-19.262792 3.651623-39.008604 5.351849-58.503246 5.100679 5.37117 9.756981-11.978868 12.500528-14.625811 23.416755-4.656302 19.282113 31.937208 24.865811 37.057208 43.858113a30.275623 30.275623 0 0 1 30.46883 0.50234c9.273962 5.854189 14.625811 16.809057 13.640453 27.551396z" fill="#D0D0F7" /><path d="M870.786415 512.096604c0 183.605132-118.01117 342.344453-283.512755 399.61117a428.225208 428.225208 0 0 1-139.747018 23.262188c-99.559849 0-192.26083-35.105811-261.854189-90.63366a444.319396 444.319396 0 0 1-71.390189-71.776604c-0.193208-0.405736-0.579623-0.811472-0.792151-1.217207a427.954717 427.954717 0 0 0 111.673962 61.96166h0.193208a251.169811 251.169811 0 0 0 17.253434 6.028075c5.796226 1.990038 11.631094 3.806189 17.639849 5.216604 21.175547 6.781585 65.883774 15.224755 111.886491 15.224755 83.388377 0 161.579472-23.378113 236.795169-72.375547 3.999396-2.608302 7.612377-5.216604 11.418566-8.230642a421.656151 421.656151 0 0 0 175.046038-342.653585 410.952453 410.952453 0 0 0-9.621736-89.223245c-0.598943-3.806189-1.603623-7.631698-2.415094-11.225358-0.579623-2.415094-1.197887-4.61766-1.79683-6.820227a396.288 396.288 0 0 0-12.828981-40.496302c-15.417962-41.848755-38.718792-81.92-62.348076-111.287547 45.229887 34.603472 88.527698 84.180528 118.281661 141.949585 1.603623 3.207245 3.207245 6.414491 4.61766 9.834264 0.908075 1.835472 1.54566 3.767547 2.434415 5.62234 4.59834 9.621736 8.732981 19.359396 12.597132 29.270943a425.558943 425.558943 0 0 1 26.469434 147.95834z" fill="#D0D0F7" /><path d="M618.882415 805.327698c-2.434415 6.086038-6.337208 11.206038-10.24 16.094189-12.906264 16.577208-44.109283 29.251623-38.757434 49.229283 1.951396 7.071396 19.030943 0.966038 20.48 8.056755 2.202566 11.206038-4.134642 20.711849-3.168604 32.903245a426.254491 426.254491 0 0 1-139.689056 23.397434c-98.709736 0-189.884377-33.888604-261.796227-90.672302 11.206038 1.700226 22.682566 0 32.671397-6.105359 2.434415-1.468377 4.636981-3.168604 7.071396-4.86883 4.86883-3.419774 9.505811-6.820226 15.10883-8.037434 18.277434-4.888151 35.356981 13.138113 54.117434 13.389283 21.948377 0 37.791396-22.914415 59.237434-26.566037 14.142792-2.434415 30.21766 3.419774 42.177207-4.134642 7.303245-4.636981 11.206038-13.408604 12.172076-21.948377 0.734189-8.771623-0.966038-17.311396-2.666264-25.831849-1.468377-7.071396-2.936755-13.910943-4.385812-20.963019-3.168604-15.843019-6.588377-32.420226-2.453735-48.263246 4.636981-18.779774 19.745811-34.139774 37.540226-41.694188 14.393962-6.086038 29.985811-7.805585 45.596981-9.505812 8.037434-0.734189 16.074868-1.700226 24.131623-2.434415 9.505811-1.217208 20.22883-1.700226 27.551396 4.134642 13.891623 11.206038 9.003472 39.491623 26.083019 44.630943 10.471849 3.149283 22.412075-5.873509 32.169056-1.236528 7.554415 3.168604 9.98883 12.191396 11.940227 19.996981 4.636981 20.963019 9.273962 41.674868 14.142792 62.637887 0.966038 3.902792 1.700226 7.805585 2.434415 11.708377 1.217208 8.771623 1.700226 17.775094-1.468377 26.083019z" fill="#7979F7" /><path d="M824.667774 319.410717h-0.193208v0.193208c-1.410415 1.217208-3.014038 2.221887-4.405132 3.226566a62.21283 62.21283 0 0 1-12.635774 6.41449c-7.631698 3.207245-16.036226 5.409811-24.07366 6.820227h-0.193208c-0.386415 0-0.792151 0.193208-1.197886 0.193207-19.243472 3.806189-39.105208 5.409811-58.541887 5.216604 5.409811 9.621736-12.03683 12.423245-14.645132 23.455396a12.461887 12.461887 0 0 0 1.004679 9.022793v0.193207c6.607698 12.635774 31.879245 19.050264 36.09117 34.487547 9.216-5.216604 21.446038-5.023396 30.46883 0.618264 9.235321 5.796226 14.645132 16.828377 13.640453 27.454793-0.193208 1.004679-0.193208 2.009358-0.598944 2.801509-1.197887 6.433811-4.830189 12.03683-10.027471 15.456604-6.414491 3.999396-14.645132-4.636981-20.866415-0.405736-3.806189 2.608302-2.588981 6.820226 0.212528 11.631095 5.023396 8.617057 15.649811 19.436679 10.626415 26.469434-0.193208 0.193208-0.386415 0.579623-0.792151 0.79215-6.028075 6.008755-22.064302-6.820226-28.478792 0-2.415094 2.608302-0.811472 7.013434 1.004679 11.225359 1.79683 5.023396 3.806189 9.621736 0 10.819623h-0.405736c-7.824906 2.009358-15.031547-7.013434-22.257509-3.187925-7.41917 3.999396-13.022189 10.819623-20.054944 15.031547-9.022792 5.409811-20.441358 6.607698-29.676679 2.202566a25.252226 25.252226 0 0 1-14.220075-16.422641 20.035623 20.035623 0 0 1-0.598944-8.44317c1.197887-11.418566 10.819623-20.248151 21.832453-23.861132 8.636377-2.801509 18.064906-2.994717 27.087698-2.608302 2.395774 0.193208 4.59834 0.405736 6.820226 0.405736a26.643321 26.643321 0 0 1-7.225962-13.640453 28.517434 28.517434 0 0 1 3.400453-20.634566 18.354717 18.354717 0 0 1 3.419774-4.636981c0.193208-1.777509 0.193208-3.59366 0.386415-5.409811a117.276981 117.276981 0 0 1-58.928302-58.541887c-0.405736-0.386415-0.618264-1.004679-0.811472-1.391095-25.271547-6.627019-47.335849-23.861132-61.150189-46.118641a111.403472 111.403472 0 0 1-15.649811-41.095245c-3.207245-19.262792-1.197887-39.317736-3.59366-58.754415-2.415094-19.649208-10.24-39.704151-27.280906-49.731623-10.027472-5.796226-22.643925-7.41917-33.28966-2.80151a23.068981 23.068981 0 0 0-3.806189 2.009359c-8.617057 5.409811-14.625811 15.031547-14.432604 25.059019 0 2.009358 0.193208 3.806189 0.811472 5.409811 1.990038 6.820226 7.206642 11.824302 13.621132 15.843019 2.009358 1.197887 4.018717 2.202566 6.028076 3.207245 4.405132 2.009358 3.999396 8.211321 1.603622 12.828981a12.365283 12.365283 0 0 1-7.631698 6.627019 20.634566 20.634566 0 0 1-13.427924-0.405736c-6.008755-2.202566-10.027472-13.234717-15.843019-10.626415-2.009358 1.004679-1.603623 6.414491-0.792151 12.828981 0.579623 7.612377 1.990038 16.63517 0.792151 19.842416v0.193207c0 0.405736-0.193208 0.618264-0.386415 0.811472-2.221887 1.603623-13.041509-1.990038-15.843019-2.202566-5.409811-0.386415-11.032151-0.193208-16.248755 1.004679-10.626415 2.608302-20.653887 11.418566-20.653887 22.450717 0 2.202566 0.193208 4.211925 1.004679 6.221283 2.415094 7.824906 9.022792 14.645132 15.244076 20.866415 7.805585 7.612377 15.843019 17.234113 13.427924 28.053736-0.193208 0.598943-0.386415 1.410415-0.598943 2.009358-4.830189 13.83366-25.657962 21.446038-23.068981 36.284378 0.193208 1.217208 0.618264 2.202566 1.004679 3.207245 4.424453 9.621736 17.65917 16.654491 14.239396 26.469434a9.46717 9.46717 0 0 1-1.410415 2.415094c-5.603019 7.206642-20.441358 5.023396-26.855849 12.635774-4.018717 5.004075-3.207245 11.611774-2.801509 18.238792 0.386415 2.801509 0.386415 5.796226-0.193208 8.423849 0 1.197887-0.405736 2.395774-0.811471 3.612982-2.82083 7.612377-11.032151 11.418566-19.262793 13.234717-7.612377 1.79683-16.229434 2.395774-23.04966 6.800905-11.01283 6.820226-14.83834 20.866415-15.437283 33.695396-0.193208 3.806189 0 7.805585 0 11.631095v5.023396c0 7.206642-0.386415 14.413283-2.415095 21.446038-3.59366 12.423245-24.653283 9.003472-27.66732 21.446038-0.792151 3.207245 0.405736 6.414491 1.217207 9.022792 0.579623 2.395774 0.792151 4.405132-1.410415 5.603019-0.193208 0.193208-0.386415 0.405736-0.598943 0.405736-5.815547 2.415094-12.635774-0.792151-17.253434-5.216604-4.59834-4.405132-8.018113-10.008151-13.022189-14.026868-16.441962-13.234717-41.114566-3.207245-61.96166-8.230642a42.273811 42.273811 0 0 1-28.865208-24.84649v-0.193208c-3.014038-7.225962 1.391094-15.843019 3.806189-23.880452 1.410415-5.023396 2.009358-9.814943-1.197887-13.833661-9.641057-12.423245-31.879245 23.068981-44.920755 14.046189-12.635774-8.617057-17.639849-24.266868-32.072453-29.483472-14.451925-5.216604-31.49283-11.631094-34.893283-26.469434-0.193208-0.193208-0.193208-0.386415-0.193207-0.579622-1.622943-7.824906 1.990038-19.262792 3.806189-28.691321 1.603623-8.617057 1.391094-15.244075-5.815548-15.244076-8.018113 0.193208-11.032151 12.635774-18.45132 15.456604-7.824906 2.994717-13.427925-6.627019-21.639246-6.028075-10.838943 0.598943-1.816151 25.870491-11.650415 29.676679-2.608302 1.004679-4.810868-1.79683-6.820226-4.405132a12.481208 12.481208 0 0 0-1.79683-2.415095 414.449509 414.449509 0 0 1 23.861132-87.020679c1.004679 0.193208 1.603623 0.405736 2.608302 0.618264 7.013434 2.801509 12.230038 8.404528 18.238792 12.828981 6.221283 4.405132 14.239396 7.824906 20.866415 4.59834 8.617057-4.211925 12.423245-17.639849 22.044981-17.427321 8.617057 0 14.645132 11.824302 23.262189 10.008151 4.405132-0.985358 7.013434-5.603019 10.433208-9.003471 8.018113-8.037434 20.634566-8.636377 31.879245-7.032755 11.206038 1.410415 22.450717 5.216604 33.869283 3.806189 16.654491-1.391094 31.879245-13.83366 36.303698-29.869887 2.202566-7.206642 3.207245-16.63517 10.027472-19.842415 3.806189-1.603623 7.805585-1.217208 11.824302-0.598944 3.806189 0.386415 8.211321 0.386415 11.418566-2.009358 3.207245-2.415094 2.415094-7.631698 2.221886-11.437887-0.811472-12.230038 20.441358-13.022189 31.686038-18.045585 12.210717-5.409811 27.242264-8.617057 38.680151-1.197887 11.01283 7.013434 15.843019 22.663245 28.478792 26.469434 9.428528 3.014038 19.649208-2.415094 25.464755-9.834264 6.008755-7.805585 8.810264-17.427321 11.206038-26.855849a8385.01434 8385.01434 0 0 1 29.290264-60.763774c3.806189-8.211321 7.612377-16.229434 11.631094-24.247547 6.607698-13.83366 13.427925-27.879849 24.865812-37.90732 4.405132-3.999396 9.428528-7.013434 14.625811-9.814944 10.24-5.603019 21.446038-10.046792 30.681359-17.040906 4.405132-3.014038 8.230642-7.032755 12.03683-10.626415 6.201962 1.391094 12.423245 3.207245 18.644528 5.023397 37.095849 10.626415 71.969811 26.450113 104.061585 46.505056 6.221283 3.806189 12.230038 7.805585 18.238792 12.01751 6.028075 4.211925 11.843623 8.636377 17.65917 13.041509 45.326491 34.661434 89.319849 85.745509 118.281661 141.949585z" fill="#5BC658" /><path d="M618.882415 805.327698c-2.434415 6.086038-6.337208 11.206038-10.24 16.094189-12.906264 16.577208-44.109283 29.251623-38.757434 49.229283 1.951396 7.071396 19.030943 0.966038 20.48 8.056755 2.202566 11.206038-4.134642 20.711849-3.168604 32.903245a426.254491 426.254491 0 0 1-139.689056 23.397434c-98.709736 0-189.884377-33.888604-261.796227-90.672302 11.206038 1.700226 22.682566 0 32.671397-6.105359 2.434415-1.468377 4.636981-3.168604 7.071396-4.86883 45.596981 17.060226 95.058113 26.314868 146.741132 26.314868 89.203925 0 175.60634-27.763925 248.155773-80.432302 1.217208 8.771623 1.700226 17.775094-1.468377 26.083019z" fill="#5E5EEF" /><path d="M824.667774 319.410717h-0.193208v0.193208c-1.410415 1.217208-3.014038 2.221887-4.405132 3.226566a62.21283 62.21283 0 0 1-12.635774 6.41449c-7.631698 3.207245-16.036226 5.409811-24.07366 6.820227h-0.193208l-1.79683-6.820227a411.532075 411.532075 0 0 0-12.635773-40.496302c-15.417962-41.848755-38.718792-81.92-62.348076-111.287547 45.326491 34.661434 89.319849 85.745509 118.281661 141.949585z" fill="#49A247" /><path d="M866.593811 594.828075c-107.346113 61.420679-244.137057 24.189585-305.42249-83.117886-61.44-107.230189-24.228226-244.021132 83.117887-305.422491 107.346113-61.44 244.137057-24.208906 305.42249 83.117887 61.459321 107.230189 24.228226 244.021132-83.117887 305.42249z" fill="#474646" /><path d="M579.873811 334.751396a8.636377 8.636377 0 0 1-5.699622-11.766339 195.719245 195.719245 0 0 1 83.272453-93.744302 197.148981 197.148981 0 0 1 132.926792-22.817812 8.636377 8.636377 0 1 1-3.091321 17.021585 179.740981 179.740981 0 0 0-121.257056 20.827774 178.523774 178.523774 0 0 0-75.930566 85.51366 8.636377 8.636377 0 0 1-10.22068 4.965434zM861.937509 254.879396a8.501132 8.501132 0 0 1-2.704905-1.29449c-5.815547-4.096-11.998189-7.921509-18.354717-11.360604a8.655698 8.655698 0 1 1 8.230641-15.205434c6.955472 3.748226 13.717736 7.921509 20.093585 12.442566a8.636377 8.636377 0 0 1-7.264604 15.417962z" fill="#FFFFFF" opacity=".2" /><path d="M866.593811 594.828075c-107.346113 61.420679-244.137057 24.189585-305.42249-83.117886a227.868981 227.868981 0 0 1-22.470038-54.812981c2.975396 6.317887 6.105358 12.558491 9.660377 18.760452 61.285434 107.326792 198.076377 144.538566 305.422491 83.117887 89.706264-51.315925 130.415094-155.280906 105.587924-250.590189 47.316528 103.907019 8.365887 228.777057-92.778264 286.642717z" fill="#2D2C2C" /><path d="M989.184 651.457208a78.229736 78.229736 0 0 1-29.077736 106.805132 78.229736 78.229736 0 0 1-106.805132-29.058415c-10.896906-19.069585-28.053736-67.526038-37.289057-113.161661a222.691019 222.691019 0 0 0 50.562416-21.25283 222.691019 222.691019 0 0 0 43.954717-32.825962c34.642113 31.106415 67.738566 70.443472 78.635471 89.493736z" fill="#F9B938" /><path d="M959.178868 729.59034a6.66566 6.66566 0 0 1-3.400453-10.645736c8.69434-10.568453 12.133434-24.846491 9.177359-38.255095a6.66566 6.66566 0 0 1 13.002868-2.840151 58.657811 58.657811 0 0 1-11.882265 49.538416 6.66566 6.66566 0 0 1-6.897509 2.202566z" fill="#FFFFFF" opacity=".3" /><path d="M904.269283 766.628226a77.476226 77.476226 0 0 1-50.910189-37.443622c-10.974189-18.992302-28.111698-67.526038-37.38566-113.084378a231.752453 231.752453 0 0 0 50.620377-21.25283 231.655849 231.655849 0 0 0 43.993359-32.883924c9.641057 8.69434 19.224151 18.064906 28.227622 27.551396a222.072755 222.072755 0 0 1-35.685434 25.174943c-29.328906 16.519245-43.993358 50.67834-33.54083 82.692831 7.283925 22.296151 14.954264 41.095245 20.789132 51.393207 3.825509 6.684981 8.539774 12.674415 13.910944 17.852377z" fill="#E5A320" /><path d="M832.859774 535.841811c-74.713358 42.853434-170.138566 16.88634-212.876076-57.788377a156.015094 156.015094 0 0 1 57.962264-212.953359 156.015094 156.015094 0 0 1 212.953359 57.962265c42.718189 74.655396 16.751094 170.099925-58.039547 212.779471z" fill="#E4E3FF" /><path d="M891.884679 324.975094a155.976453 155.976453 0 0 0-200.97449-40.071245 155.957132 155.957132 0 0 0-59.12151 210.69283 141.601811 141.601811 0 0 1-11.78566-17.543245 156.015094 156.015094 0 0 1 57.962264-212.953359 156.015094 156.015094 0 0 1 212.934038 57.962265c0.386415 0.637585 0.753509 1.294491 0.985358 1.932075z" fill="#D0D0F7" /></svg>