<?xml version="1.0" standalone="no"?><!DOCTYPE svg PUBLIC "-//W3C//DTD SVG 1.1//EN" "http://www.w3.org/Graphics/SVG/1.1/DTD/svg11.dtd"><svg class="icon" width="200px" height="200.00px" viewBox="0 0 1024 1024" version="1.1" xmlns="http://www.w3.org/2000/svg"><path d="M512 512m-103.655849 0a103.655849 103.655849 0 1 0 207.311698 0 103.655849 103.655849 0 1 0-207.311698 0Z" fill="#ECB021" /><path d="M512 726.866113c-118.474868 0-214.866113-96.391245-214.866113-214.866113s96.410566-214.885434 214.866113-214.885434 214.866113 96.410566 214.866113 214.885434-96.410566 214.866113-214.866113 214.866113z m0-391.110038c-97.183396 0-176.224604 79.060528-176.224604 176.243925s79.060528 176.224604 176.224604 176.224604 176.224604-79.060528 176.224604-176.224604c0-97.183396-79.060528-176.243925-176.224604-176.243925z" fill="#D0D0F7" /><path d="M512 832.357434c-176.668981 0-320.376755-143.707774-320.376755-320.357434S335.331019 191.623245 512 191.623245c176.64966 0 320.357434 143.727094 320.357434 320.376755S688.64966 832.357434 512 832.357434z m0-602.092679c-155.358189 0-281.735245 126.377057-281.735245 281.735245 0 155.338868 126.377057 281.715925 281.735245 281.715925 155.338868 0 281.715925-126.377057 281.715925-281.715925S667.338868 230.264755 512 230.264755z" fill="#D0D0F7" /><path d="M512 945.287245c-238.901132 0-433.287245-194.366792-433.287245-433.287245S273.079547 78.712755 512 78.712755 945.287245 273.079547 945.287245 512 750.920453 945.287245 512 945.287245z m0-827.932981c-217.60966 0-394.645736 177.036075-394.645736 394.645736S294.39034 906.645736 512 906.645736 906.645736 729.60966 906.645736 512 729.60966 117.354264 512 117.354264z" fill="#D0D0F7" /><path d="M449.593962 512.656906h-0.52166a12.558491 12.558491 0 0 1-12.01751-13.080151 65.690566 65.690566 0 0 1 63.043623-62.618566l0.425057-0.019321a12.558491 12.558491 0 0 1 0.444377 25.116981 40.45766 40.45766 0 0 0-38.834717 38.564226 12.558491 12.558491 0 0 1-12.53917 12.036831z" fill="#FFFFFF" opacity=".3" /><path d="M615.752453 512c0 57.189434-46.563019 103.752453-103.752453 103.752453-33.038491 0-62.599245-15.649811-81.726792-39.800755 16.229434 10.626415 35.356981 16.615849 56.030188 16.615849 57.189434 0 103.752453-46.369811 103.752453-103.559245 0-24.537358-8.501132-46.949434-22.798491-64.724528 29.17434 18.354717 48.495094 50.813585 48.495095 87.716226z" fill="#E5A320" /><path d="M847.466264 192.00966a57.150792 57.150792 0 0 1-114.320906 0 57.073509 57.073509 0 0 1 57.247397-57.073509 57.034868 57.034868 0 0 1 57.073509 57.073509z" fill="#FC6559" /><path d="M847.408302 192.048302c0 31.49283-25.503396 56.996226-56.996227 56.996226-22.02566 0-40.96-12.365283-50.427169-30.333585 9.273962 6.182642 20.093585 9.853585 32.072452 9.853585 31.49283 0 57.189434-25.696604 57.189434-57.189434 0-9.660377-2.318491-18.741132-6.762264-26.662641 15.070189 10.24 24.923774 27.628679 24.923774 47.335849z" fill="#F05543" /><path d="M636.812075 805.810717a46.640302 46.640302 0 0 1-93.261283 0 46.563019 46.563019 0 0 1 46.717585-46.563019 46.543698 46.543698 0 0 1 46.563019 46.563019z" fill="#7979F7" /><path d="M636.850717 805.907321c0 25.503396-20.866415 46.563019-46.563019 46.563019-19.513962 0-36.323019-11.978868-43.27849-28.981132a46.58234 46.58234 0 0 0 74.964528-36.902642c0-6.375849-1.159245-12.365283-3.477736-17.775094 11.206038 8.501132 18.354717 21.832453 18.354717 37.095849z" fill="#5E5EEF" /><path d="M422.39034 393.699019a46.640302 46.640302 0 0 1-93.280604 0 46.563019 46.563019 0 0 1 46.698264-46.563019 46.543698 46.543698 0 0 1 46.563019 46.563019z" fill="#5BC658" /><path d="M422.351698 393.756981a46.58234 46.58234 0 0 1-79.408302 33.038491c4.443774 1.352453 9.080755 2.125283 13.717736 2.125283a46.58234 46.58234 0 0 0 32.845283-79.60151c18.93434 5.603019 32.845283 23.378113 32.845283 44.437736z" fill="#49A247" /></svg>