<?xml version="1.0" standalone="no"?><!DOCTYPE svg PUBLIC "-//W3C//DTD SVG 1.1//EN" "http://www.w3.org/Graphics/SVG/1.1/DTD/svg11.dtd"><svg class="icon" width="200px" height="200.00px" viewBox="0 0 1024 1024" version="1.1" xmlns="http://www.w3.org/2000/svg"><path d="M680.380377 390.704302v492.930415A92.063396 92.063396 0 0 1 588.316981 975.698113H337.726792a92.063396 92.063396 0 0 1-92.063396-92.063396V390.704302a66.56 66.56 0 0 1 66.56-66.540679h301.596981a66.56 66.56 0 0 1 66.56 66.540679z" fill="#FC6559" /><path d="M680.380377 390.66566v493.027019a92.005434 92.005434 0 0 1-91.986113 92.005434H337.66883a92.005434 92.005434 0 0 1-92.005434-92.005434v-64.975698H580.395472a56.32 56.32 0 0 0 56.32-56.339321V370.958491a65.883774 65.883774 0 0 0-19.108227-46.601661 66.30883 66.30883 0 0 1 62.792453 66.328151z" fill="#F05543" /><path d="M245.663396 864.062792v19.571925A92.063396 92.063396 0 0 0 337.726792 975.698113h250.590189a92.063396 92.063396 0 0 0 92.063396-92.063396v-19.571925z" fill="#ECB021" /><path d="M680.303094 864.00483v19.629887a91.850868 91.850868 0 0 1-91.966792 91.966792h-56.32a91.966792 91.966792 0 0 0 91.966792-91.966792V864.024151z" fill="#E5A320" /><path d="M615.192151 324.35683c-9.776302-75.389585-74.075774-133.64166-152.112302-133.64166a153.503396 153.503396 0 0 0-152.208906 133.64166z" fill="#A2A2F9" /><path d="M364.331472 275.359396a7.496453 7.496453 0 0 1-2.105963-10.394566 120.754717 120.754717 0 0 1 88.218566-53.904905c4.482415-0.173887 7.844226 2.56966 8.269283 6.684981a7.535094 7.535094 0 0 1-6.66566 8.269283 105.819774 105.819774 0 0 0-77.283019 47.239245 7.496453 7.496453 0 0 1-10.433207 2.125283z" fill="#FFFFFF" opacity=".3" /><path d="M615.17283 324.35683H310.890264c0.714868-5.487094 1.700226-10.819623 3.033359-16.074868h182.503849c53.170717 0 78.017208-67.584 36.265056-100.525887a151.609962 151.609962 0 0 0-0.927396-0.714867 153.406792 153.406792 0 0 1 83.369057 117.315622z" fill="#7979F7" /><path d="M506.261736 158.681358c0 14.104151 11.457208 25.696604 25.561358 25.696604v22.528a153.967094 153.967094 0 0 0-137.583094 0V118.474868a26.469434 26.469434 0 0 1 26.353509-26.469434h84.876076c14.490566 0 26.353509 11.843623 26.353509 26.469434v14.625811c-14.104151 0-25.561358 11.476528-25.561358 25.580679z" fill="#A2A2F9" /><path d="M531.823094 118.474868v14.625811c-14.104151 0-25.561358 11.476528-25.561358 25.580679 0 3.419774 0.656906 6.723623 1.835472 9.737661a25.6 25.6 0 0 1 12.133434-48.108679v-14.606491a27.049057 27.049057 0 0 0-2.125284-10.278641c8.172679 4.34717 13.717736 13.041509 13.717736 23.04966zM520.230642 181.479849c3.419774 1.835472 7.380528 2.898113 11.592452 2.898113v22.528a153.967094 153.967094 0 0 0-137.583094 0v-17.92966c38.313057-15.727094 85.320453-15.321358 125.971321 5.139321z" fill="#7979F7" /><path d="M597.938717 485.414642v264.018113a37.211774 37.211774 0 0 1-37.211774 37.211773h-191.140226a37.211774 37.211774 0 0 1-37.211774-37.211773V485.414642c0-20.557283 16.673811-37.211774 37.211774-37.211774h191.140226c20.557283 0 37.211774 16.654491 37.211774 37.211774z" fill="#FFFFFF" /><path d="M597.996679 485.356679v264.114717a37.231094 37.231094 0 0 1-37.231094 37.231095h-191.198189a37.095849 37.095849 0 0 1-36.516226-30.19834c2.917434 0.869434 6.086038 1.236528 9.254641 1.236528h191.082264a37.250415 37.250415 0 0 0 37.231095-37.250415V456.510792c0-2.415094-0.25117-4.733585-0.734189-7.052075a36.941283 36.941283 0 0 1 28.111698 35.897962z" fill="#E4E3FF" /><path d="M481.048151 154.12166a21.774491 21.774491 0 0 1-43.471698 0 21.774491 21.774491 0 0 1 43.471698 0z" fill="#474646" /><path d="M476.063396 140.230038a21.677887 21.677887 0 0 0-10.008151-2.511698c-11.978868 0-21.735849 9.756981-21.735849 21.755169 0 5.255245 1.970717 10.278642 5.274566 13.968906a21.388075 21.388075 0 0 1-11.998188-19.378717c0-11.978868 9.756981-21.75517 21.735849-21.75517 6.723623 0 12.79034 3.033358 16.751094 7.92151z" fill="#2D2C2C" /><path d="M285.328906 762.512906a11.882264 11.882264 0 0 1-11.862944-11.862944V624.253585a11.882264 11.882264 0 0 1 23.745208 0v126.396377c0 6.549736-5.313208 11.862943-11.882264 11.862944zM285.328906 592.37434a11.882264 11.882264 0 0 1-11.862944-11.882265v-15.688452a11.882264 11.882264 0 0 1 23.745208 0v15.688452c0 6.569057-5.313208 11.882264-11.882264 11.882265z" fill="#FFFFFF" opacity=".4" /><path d="M486.032906 366.611321c0 6.549736-5.313208 11.862943-11.862944 11.862943H384.289811a11.882264 11.882264 0 0 1 0-23.745207h89.880151c6.549736 0 11.862943 5.332528 11.862944 11.882264zM352.410566 366.611321c0 6.549736-5.332528 11.862943-11.882264 11.862943h-15.688453a11.882264 11.882264 0 0 1 0-23.745207h15.688453c6.569057 0 11.862943 5.332528 11.862943 11.882264z" fill="#FFFFFF" opacity=".4" /><path d="M558.85283 519.245283c0 5.699623-4.61766 10.317283-10.317283 10.317283h-166.738113a10.336604 10.336604 0 0 1 0-20.653887h166.738113c5.699623 0 10.317283 4.636981 10.317283 10.336604zM558.85283 568.339321c0 5.699623-4.61766 10.317283-10.317283 10.317283h-166.738113a10.336604 10.336604 0 1 1 0-20.673208h166.738113c5.699623 0.019321 10.317283 4.636981 10.317283 10.355925zM558.85283 617.414038c0 5.718943-4.61766 10.336604-10.317283 10.336604h-166.738113a10.336604 10.336604 0 0 1 0-20.673208h166.738113c5.699623 0 10.317283 4.636981 10.317283 10.336604zM558.85283 666.508075c0 5.699623-4.61766 10.336604-10.317283 10.336604h-166.738113a10.336604 10.336604 0 1 1 0-20.673207h166.738113c5.699623 0 10.317283 4.636981 10.317283 10.336603zM558.85283 715.602113c0 5.699623-4.61766 10.336604-10.317283 10.336604h-166.738113a10.336604 10.336604 0 0 1 0-20.673208h166.738113c5.699623 0 10.317283 4.636981 10.317283 10.336604z" fill="#E4E3FF" /><path d="M580.588679 117.083774a10.046792 10.046792 0 0 1 6.569057-12.558491l178.079396-55.779019a10.046792 10.046792 0 0 1 5.989434 19.127547L593.14717 123.65283a10.046792 10.046792 0 0 1-12.558491-6.569056zM765.237132 257.738868l-178.079396-55.759698a10.046792 10.046792 0 0 1 5.989434-19.127547l178.079396 55.759698a10.046792 10.046792 0 0 1-5.989434 19.127547zM768.231849 162.410264h-178.079396a10.008151 10.008151 0 1 1 0-20.035622h178.079396a10.008151 10.008151 0 1 1 0 20.035622z" fill="#F9B938" /><path d="M771.284528 67.893132L593.14717 123.594868c-4.752906 1.893434-10.819623-0.908075-12.635774-6.607698a8.346566 8.346566 0 0 1 0-5.409812c1.854792 4.61766 6.163321 7.708981 12.616453 6.39517l178.137359-55.894943a10.066113 10.066113 0 0 0 6.627018-7.013434v0.193207a10.143396 10.143396 0 0 1-6.607698 12.635774zM777.892226 245.624755c2.028679 6.105358-3.129962 14.123472-12.635773 12.230037l-178.137359-55.914264a10.008151 10.008151 0 0 1-6.607698-12.423245l0.193208-0.193208a9.46717 9.46717 0 0 0 6.41449 7.013434l178.137359 55.701736c3.748226 1.487698 10.317283-0.328453 12.635773-6.41449zM778.297962 152.440755c0 5.409811-4.61766 10.027472-10.027471 10.027471h-178.137359a10.046792 10.046792 0 0 1-9.621736-12.828981c1.197887 4.018717 5.023396 7.013434 9.621736 7.013434h178.137359a10.375245 10.375245 0 0 0 9.621735-7.013434 11.78566 11.78566 0 0 1 0.386416 2.80151z" fill="#E5A320" /></svg>