<?xml version="1.0" standalone="no"?><!DOCTYPE svg PUBLIC "-//W3C//DTD SVG 1.1//EN" "http://www.w3.org/Graphics/SVG/1.1/DTD/svg11.dtd"><svg class="icon" width="200px" height="200.00px" viewBox="0 0 1024 1024" version="1.1" xmlns="http://www.w3.org/2000/svg"><path d="M851.832755 176.668981v717.804679a84.566943 84.566943 0 0 1-84.566944 84.547623H132.86883A84.566943 84.566943 0 0 1 48.301887 894.47366V176.668981a84.566943 84.566943 0 0 1 84.566943-84.566943h634.396981a84.566943 84.566943 0 0 1 84.566944 84.566943z" fill="#E4E3FF" /><path d="M436.552453 753.567396c-1.139925-78.249057 56.860981-118.127094 129.449056-88.778868v0.231849c1.043321 78.055849-56.84166 117.895245-129.449056 88.547019zM425.926038 753.567396c1.139925-78.249057-56.860981-118.127094-129.449057-88.778868v0.231849c-1.043321 78.055849 56.84166 117.895245 129.449057 88.547019z" fill="#5BC658" /><path d="M473.938113 687.200604a3.477736 3.477736 0 0 1 0.444378-4.907472 82.403019 82.403019 0 0 1 36.516226-17.15683 3.555019 3.555019 0 0 1 4.096 2.704906 3.497057 3.497057 0 0 1-2.724226 4.134641 75.640755 75.640755 0 0 0-33.424906 15.688453 3.477736 3.477736 0 0 1-4.907472-0.463698zM364.176906 677.714113a90.324528 90.324528 0 0 0-37.888-1.622943 3.400453 3.400453 0 0 1-3.999397-2.898113 3.477736 3.477736 0 0 1 2.898114-3.999397 97.763019 97.763019 0 0 1 40.805434 1.796831 3.477736 3.477736 0 1 1-1.816151 6.723622z" fill="#FFFFFF" opacity=".4" /><path d="M565.982189 664.82717v0.135245c1.004679 78.171774-56.803019 117.875925-129.449057 88.604981a126.860075 126.860075 0 0 1 1.004679-18.605887c66.231547 26.276226 119.904604-5.139321 127.439698-70.501434 0.386415 0.115925 0.637585 0.25117 1.00468 0.386416zM425.984 753.567396c-72.646038 29.270943-130.56966-10.433208-129.564981-88.604981v-0.115924c0.386415-0.135245 0.618264-0.270491 1.004679-0.386416 7.535094 65.362113 61.324075 96.77766 127.555623 70.520755 0.753509 5.89283 1.120604 12.172075 1.004679 18.586566z" fill="#49A247" /><path d="M430.930113 837.12966a9.660377 9.660377 0 0 1-9.660377-9.660377V596.431698a9.660377 9.660377 0 1 1 19.320755 0v231.037585a9.660377 9.660377 0 0 1-9.660378 9.660377z" fill="#49A247" /><path d="M851.774792 176.688302v717.804679a84.547623 84.547623 0 0 1-84.48966 84.489661H132.888151a84.895396 84.895396 0 0 1-80.760755-58.773736 81.340377 81.340377 0 0 0 21.523321 2.801509h634.416302c46.756226 0 84.624906-37.868679 84.624906-84.47034V120.735396c0-9.042113-1.391094-17.620528-3.883472-25.889811a84.682868 84.682868 0 0 1 62.966339 81.842717z" fill="#D0D0F7" /><path d="M215.155925 165.752755c0 17.098868-13.775698 30.758642-30.758642 30.758641a30.777962 30.777962 0 1 1 30.758642-30.758641z" fill="#474646" /><path d="M184.416604 168.051925a9.660377 9.660377 0 0 1-9.660378-9.660378v-103.752453a9.660377 9.660377 0 1 1 19.320755 0v103.752453a9.660377 9.660377 0 0 1-9.660377 9.660378zM349.415849 165.752755c0 17.098868-13.795019 30.758642-30.758641 30.758641a30.777962 30.777962 0 1 1 30.758641-30.758641z" fill="#474646" /><path d="M318.657208 168.051925a9.660377 9.660377 0 0 1-9.660378-9.660378v-103.752453a9.660377 9.660377 0 1 1 19.320755 0v103.752453a9.660377 9.660377 0 0 1-9.660377 9.660378zM483.656453 165.752755c0 17.098868-13.775698 30.758642-30.758642 30.758641a30.777962 30.777962 0 1 1 30.758642-30.758641z" fill="#474646" /><path d="M452.897811 168.051925a9.660377 9.660377 0 0 1-9.660377-9.660378v-103.752453a9.660377 9.660377 0 1 1 19.320755 0v103.752453a9.660377 9.660377 0 0 1-9.660378 9.660378zM617.897057 165.752755c0 17.098868-13.775698 30.758642-30.739321 30.758641a30.777962 30.777962 0 1 1 30.758641-30.758641z" fill="#474646" /><path d="M587.157736 168.051925a9.660377 9.660377 0 0 1-9.660378-9.660378v-103.752453a9.660377 9.660377 0 1 1 19.320755 0v103.752453a9.660377 9.660377 0 0 1-9.660377 9.660378zM752.156981 165.752755c0 17.098868-13.795019 30.758642-30.758641 30.758641a30.777962 30.777962 0 1 1 30.758641-30.758641z" fill="#474646" /><path d="M721.39834 168.051925a9.660377 9.660377 0 0 1-9.660378-9.660378v-103.752453a9.660377 9.660377 0 1 1 19.320755 0v103.752453a9.660377 9.660377 0 0 1-9.660377 9.660378z" fill="#474646" /><path d="M569.86566 517.757585a58.155472 58.155472 0 0 1-6.704302 74.481509 58.155472 58.155472 0 0 1-74.50083 6.704302 58.425962 58.425962 0 0 1-57.459924 48.031396 58.213434 58.213434 0 0 1-57.324679-48.14732 58.174792 58.174792 0 0 1-74.616755-6.569057 58.425962 58.425962 0 0 1-6.704302-74.50083 58.329358 58.329358 0 0 1 0.115924-114.803925 58.155472 58.155472 0 0 1 6.588378-74.616754 58.445283 58.445283 0 0 1 74.50083-6.684981 58.329358 58.329358 0 0 1 114.784604 0.115924 58.174792 58.174792 0 0 1 74.616754 6.569057 58.445283 58.445283 0 0 1 6.704302 74.50083 58.329358 58.329358 0 0 1 47.915472 57.459924 58.329358 58.329358 0 0 1-47.915472 57.459925z" fill="#F9B938" /><path d="M305.364528 392.71366a42.138566 42.138566 0 0 1 5.332529-52.938868 5.390491 5.390491 0 1 1 7.631698 7.631699 31.338264 31.338264 0 0 0-3.980076 39.356377 5.409811 5.409811 0 0 1-8.984151 5.950792zM394.027472 330.771321a5.390491 5.390491 0 0 1-4.34717-6.279246 41.810113 41.810113 0 0 1 39.820075-34.468226c2.840151 0.115925 5.467774 2.202566 5.603019 5.177962a5.409811 5.409811 0 0 1-5.158641 5.603019c-14.876981 0.598943-27.049057 11.128755-29.657359 25.6a5.390491 5.390491 0 0 1-6.259924 4.34717zM310.252679 580.279547a42.119245 42.119245 0 0 1-9.776302-42.119245 5.409811 5.409811 0 0 1 10.278642 3.284528 31.299623 31.299623 0 0 0 7.245283 31.338264 5.390491 5.390491 0 1 1-7.747623 7.496453z" fill="#FFFFFF" opacity=".3" /><path d="M569.86566 517.757585a58.155472 58.155472 0 0 1-6.704302 74.481509 58.155472 58.155472 0 0 1-74.50083 6.704302 58.425962 58.425962 0 0 1-57.459924 48.031396 58.406642 58.406642 0 0 1-44.630944-20.789132c7.168 3.187925 15.012226 4.888151 23.184906 4.888151a58.425962 58.425962 0 0 0 57.459925-48.031396 58.155472 58.155472 0 0 0 74.481509-6.704302 58.155472 58.155472 0 0 0 6.704302-74.481509 58.329358 58.329358 0 0 0 34.178415-95.058113 57.942943 57.942943 0 0 1 35.202415 53.499169 58.329358 58.329358 0 0 1-47.915472 57.459925z" fill="#E5A320" /><path d="M508.522264 460.355623a77.340981 77.340981 0 0 1-77.263698 77.340981 77.360302 77.360302 0 0 1 0-154.701283 77.283019 77.283019 0 0 1 77.263698 77.360302z" fill="#474646" /><path d="M399.128151 408.711245a3.110642 3.110642 0 0 1-1.564981-5.796226c2.202566-1.27517 4.482415-2.453736 6.839547-3.477736a3.091321 3.091321 0 1 1 2.511698 5.680302c-2.144604 0.927396-4.211925 1.990038-6.221283 3.168604a3.149283 3.149283 0 0 1-1.564981 0.425056zM455.834566 405.156226a60.531925 60.531925 0 0 0-34.004528-4.482415 3.033358 3.033358 0 0 1-3.555019-2.56966 3.091321 3.091321 0 0 1 2.588981-3.555019 66.56 66.56 0 0 1 37.482264 4.926793 3.091321 3.091321 0 0 1-2.511698 5.680301zM383.188528 506.396981a66.617962 66.617962 0 0 1-18.354717-41.810113 3.091321 3.091321 0 0 1 2.898114-3.284528c1.603623-0.270491 3.187925 1.178566 3.284528 2.898113 0.908075 14.181434 6.820226 27.628679 16.65449 37.907321a3.091321 3.091321 0 1 1-4.482415 4.308528z" fill="#FFFFFF" opacity=".3" /><path d="M508.522264 460.394264a77.340981 77.340981 0 0 1-77.225056 77.321661c-29.116377 0-54.484528-16.036226-67.622642-39.839397a76.761358 76.761358 0 0 0 56.648453 24.749887 77.360302 77.360302 0 0 0 67.622641-114.707321 76.471547 76.471547 0 0 1 20.576604 52.47517z" fill="#2D2C2C" /><path d="M96.410566 509.44966a12.635774 12.635774 0 0 1-12.616453-12.616452V303.413132a12.635774 12.635774 0 0 1 25.252227 0v193.400755c0 6.994113-5.660981 12.635774-12.616453 12.635773zM96.410566 269.485887a12.635774 12.635774 0 0 1-12.616453-12.635774v-16.673811a12.635774 12.635774 0 0 1 25.252227 0v16.673811c0 6.974792-5.660981 12.635774-12.616453 12.635774z" fill="#FFFFFF" opacity=".4" /><path d="M679.201811 563.315925l173.712906-281.58068 90.61434 55.894944-173.732227 281.580679z" fill="#5E5EEF" /><path d="M943.683623 337.784755l-11.727698 19.050264-162.101133 262.511094-90.498415-55.933585 14.625812-23.764528 22.895094 14.104151c24.749887 15.263396 57.150792 7.535094 72.394868-17.195472l119.634113-193.903094 11.824302-19.20483z" fill="#4242E5" /><path d="M841.071094 300.920755l11.843623-19.18551 90.595019 55.894944-11.843623 19.185509z" fill="#E4E3FF" /><path d="M908.345962 342.904755l11.727698-19.030944 23.03034 14.181434-11.708377 19.030944z" fill="#D0D0F7" /><path d="M943.741585 337.630189l24.015698-38.931321a53.228679 53.228679 0 1 0-90.61434-55.894943l-24.015698 38.93132z" fill="#2D2C2C" /><path d="M967.776604 298.679547l-24.035019 38.950642-90.61434-55.894944 12.326642-19.958339 55.643773 34.332981a24.943094 24.943094 0 0 0 34.332982-8.114717l10.935547-17.755774a51.779623 51.779623 0 0 0 6.569056-16.306717c4.830189 14.432604 3.439094 30.797283-5.158641 44.746868z" fill="#1B1B1B" /><path d="M769.932075 619.288151l-67.429433 50.195321-24.923774 18.644528a11.592453 11.592453 0 0 1-18.412679-11.360604l5.409811-30.565434 14.741736-82.808754z" fill="#F4B37D" /><path d="M702.502642 669.464151l-24.923774 18.663849a11.592453 11.592453 0 0 1-18.412679-11.360604l5.409811-30.565434a39.858717 39.858717 0 0 1 37.907321 23.28151z" fill="#2D2C2C" /><path d="M767.285132 472.199245a6.549736 6.549736 0 0 1-2.125283-9.003471l38.680151-62.637887a6.549736 6.549736 0 0 1 11.148075 6.858868l-38.699471 62.637887a6.549736 6.549736 0 0 1-9.003472 2.125283z" fill="#FFFFFF" opacity=".4" /><path d="M825.073509 378.609509a6.549736 6.549736 0 0 1-2.125283-9.003471l5.409812-8.771623a6.549736 6.549736 0 0 1 11.128754 6.858868l-5.409811 8.790943a6.549736 6.549736 0 0 1-9.003472 2.125283z" fill="#FFFFFF" opacity=".4" /></svg>