<?xml version="1.0" standalone="no"?><!DOCTYPE svg PUBLIC "-//W3C//DTD SVG 1.1//EN" "http://www.w3.org/Graphics/SVG/1.1/DTD/svg11.dtd"><svg class="icon" width="200px" height="200.00px" viewBox="0 0 1024 1024" version="1.1" xmlns="http://www.w3.org/2000/svg"><path d="M803.608151 618.090264a9.660377 9.660377 0 0 1-9.583094-8.559094l-17.639849-153.85117a86.78883 86.78883 0 0 0-82.132529-77.031849l-28.94249-1.468377a9.641057 9.641057 0 0 1-9.158038-10.124076c0.25117-5.293887 4.521057-10.104755 10.124075-9.158038l28.942491 1.468378a106.051623 106.051623 0 0 1 100.371321 94.130717l17.639849 153.831849a9.679698 9.679698 0 0 1-9.621736 10.76166z" fill="#C2C2EF" /><path d="M694.194717 367.480755c0 14.606491-25.020377 26.585358-39.607547 26.585358a26.469434 26.469434 0 0 1-26.35351-26.585358 26.276226 26.276226 0 0 1 26.334189-26.334189c14.606491 0 39.607547 11.727698 39.607547 26.334189z" fill="#FC6559" /><path d="M694.194717 367.519396c0 14.490566-24.923774 26.469434-39.607547 26.469434-10.24 0-18.93434-5.796226-22.991698-14.104151 4.636981 4.443774 11.01283 7.148679 17.968302 7.148679 14.490566 0 39.607547-11.978868 39.607547-26.662641 0-1.932075-0.386415-3.670943-1.159246-5.409811 3.670943 3.670943 6.182642 7.921509 6.182642 12.55849z" fill="#F05543" /><path d="M206.461585 618.090264a9.679698 9.679698 0 0 1-9.621736-10.76166l17.639849-153.831849a106.012981 106.012981 0 0 1 100.332679-94.130717l28.942491-1.468378c5.64166-0.966038 9.853585 3.864151 10.124075 9.158038a9.641057 9.641057 0 0 1-9.138717 10.124076l-28.94249 1.468377a86.750189 86.750189 0 0 0-82.113208 77.031849l-17.639849 153.85117a9.660377 9.660377 0 0 1-9.583094 8.559094z" fill="#C2C2EF" /><path d="M315.855698 367.480755c0 14.606491 25.001057 26.585358 39.607547 26.585358a26.469434 26.469434 0 0 0 26.35351-26.585358 26.276226 26.276226 0 0 0-26.35351-26.334189c-14.606491 0-39.607547 11.727698-39.607547 26.334189z" fill="#FC6559" /><path d="M315.855698 367.519396c0 14.490566 24.923774 26.469434 39.607547 26.469434 10.24 0 18.93434-5.796226 22.991698-14.104151-4.636981 4.443774-11.01283 7.148679-17.968301 7.148679-14.490566 0-39.607547-11.978868-39.607548-26.662641 0-1.932075 0.386415-3.670943 1.159246-5.409811-3.670943 3.670943-6.182642 7.921509-6.182642 12.55849z" fill="#F05543" /><path d="M663.880453 156.517434v77.57283H364.737208V156.517434a71.293585 71.293585 0 0 1 71.293584-71.293585h156.575397a71.293585 71.293585 0 0 1 71.293585 71.293585zM763.150491 642.492377V571.701132c0-40.322415-16.654491-83.755472-50.079397-113.644679a105.259472 105.259472 0 0 0-11.090113-9.235321 151.648604 151.648604 0 0 0-71.699321-30.333585c-2.415094-0.347774-32.342943-0.540981-70.057056-0.540981-25.870491-0.193208-55.431245-0.193208-82.596227 0-43.993358 0-81.321057 0.193208-84.083924 0.560302-0.193208 0-0.560302 0.193208-0.927396 0.193207-41.385057 5.89283-77.437585 28.826566-101.260076 60.609208v0.193208A152.962415 152.962415 0 0 0 260.830189 571.701132v70.771925z" fill="#474646" /><path d="M763.169811 571.720453v70.713962h-502.339622v-62.406038h414.391547A47.374491 47.374491 0 0 0 722.596226 532.673208v-23.339472c0-17.581887-2.898113-34.584151-8.501132-50.233962 27.358189 23.938415 49.074717 66.869132 49.074717 112.64z" fill="#2D2C2C" /><path d="M305.152 579.931774h-0.270491a11.051472 11.051472 0 0 1-10.76166-11.302642 119.827321 119.827321 0 0 1 23.764528-69.284226 11.01283 11.01283 0 1 1 17.65917 13.215396 97.878943 97.878943 0 0 0-19.359396 56.609811 11.01283 11.01283 0 0 1-11.01283 10.761661zM355.637132 489.839094a11.01283 11.01283 0 0 1-5.989434-20.286792 122.339019 122.339019 0 0 1 24.479396-12.172076 11.01283 11.01283 0 1 1 7.535095 20.73117 99.965585 99.965585 0 0 0-20.054944 9.96951 11.01283 11.01283 0 0 1-5.989434 1.758188z" fill="#FFFFFF" opacity=".2" /><path d="M641.622943 420.554868l-54.851622 93.802264a6.453132 6.453132 0 0 1-10.278642 1.178566l-57.498566-53.808302-7.341887-6.91683 7.341887-5.583698L560.301887 417.927245c37.656151 0 67.487396 0.289811 69.999094 0.579623 3.825509 0.579623 7.631698 1.159245 11.321962 2.048z" fill="#2D2C2C" /><path d="M526.355321 454.810566l-7.341887 6.91683-57.363321 53.808302a6.453132 6.453132 0 0 1-10.278641-1.159245l-58.677132-95.73434c0.309132 0 0.579623-0.135245 0.888754-0.135245 2.801509-0.289811 39.993962-0.579623 84.103246-0.579623l41.307773 31.299623z" fill="#2D2C2C" /><path d="M574.058264 381.488302v48.533736a56.300679 56.300679 0 1 1-112.582038 0v-48.533736c17.369358 12.172075 33.888604 19.456 56.281359 19.456 22.392755 0 38.912-7.264604 56.300679-19.456z" fill="#F7C9A9" /><path d="M517.89283 43.181887a129.024 129.024 0 0 0-129.004679 129.024v104.138868c0 35.550189 14.393962 67.912453 37.772075 91.290566a128.579623 128.579623 0 0 0 100.545208 37.443622c68.35683-4.830189 119.711396-65.01434 119.711396-133.545056V172.205887a129.024 129.024 0 0 0-129.024-129.024z" fill="#F7C9A9" /><path d="M646.91683 261.274566v15.089509a129.101283 129.101283 0 0 1-129.062641 129.062642 128.52166 128.52166 0 0 1-91.155321-37.772075 128.985358 128.985358 0 0 1-37.752755-91.290567v-15.089509c0 35.608151 14.432604 67.83517 37.752755 91.290566a128.52166 128.52166 0 0 0 91.174641 37.752755 129.101283 129.101283 0 0 0 129.043321-129.062642z" fill="#F0B68E" /><path d="M646.897509 180.320604v96.178717a48.166642 48.166642 0 0 0 47.161963-48.089359c0-26.256906-21.059623-47.529057-47.161963-48.108679zM388.888151 180.320604v96.178717a48.166642 48.166642 0 0 1-47.161962-48.089359c0-26.256906 21.059623-47.529057 47.161962-48.108679z" fill="#F7C9A9" /><path d="M694.001509 228.371321a48.108679 48.108679 0 0 1-47.084679 48.108679v-8.887547a48.166642 48.166642 0 0 0 46.872151-43.278491c0.115925 1.352453 0.231849 2.704906 0.231849 4.057359zM388.926792 267.592453v8.887547a48.205283 48.205283 0 0 1-47.200603-48.108679c0-1.352453 0.115925-2.704906 0.212528-4.057359a48.282566 48.282566 0 0 0 47.007396 43.278491z" fill="#F0B68E" /><path d="M536.150943 281.677283c2.048 4.849509 0.850113 10.954868-2.704905 15.553208-3.458415 4.752906-9.544453 7.496453-15.553208 7.573735-6.028075-0.038642-12.114113-2.801509-15.553207-7.573735-3.57434-4.579019-4.772226-10.703698-2.704906-15.553208 3.999396 9.486491 11.206038 13.485887 18.238792 13.466566 7.071396 0 14.297358-3.960755 18.277434-13.466566z" fill="#E8AA80" /><path d="M590.963925 240.562717a17.504604 17.504604 0 0 1-17.465963 17.504604c-9.621736 0-17.504604-7.863547-17.504604-17.504604s7.882868-17.504604 17.504604-17.504604c9.660377 0 17.465962 7.863547 17.465963 17.504604zM592.683472 208.239094h-38.409661a7.245283 7.245283 0 0 1 0-14.490566h38.409661a7.245283 7.245283 0 0 1 0 14.490566zM479.792302 240.562717a17.504604 17.504604 0 0 1-17.446642 17.504604c-9.641057 0-17.523925-7.863547-17.523924-17.504604s7.882868-17.504604 17.523924-17.504604c9.641057 0 17.446642 7.863547 17.446642 17.504604zM481.511849 208.239094h-38.40966a7.245283 7.245283 0 0 1 0-14.490566h38.40966a7.245283 7.245283 0 0 1 0 14.490566z" fill="#2D2C2C" /><path d="M483.675774 327.042415c-4.405132 0-7.129358 5.12-4.385812 8.578415a48.997434 48.997434 0 0 0 77.205736 0c2.743547-3.439094 0.019321-8.578415-4.385811-8.578415h-68.434113z" fill="#E8AA80" /><path d="M658.992302 245.566792a6.762264 6.762264 0 0 1-0.444377-9.544452c5.313208-5.873509 1.313811-14.220075 1.159245-14.548529a6.781585 6.781585 0 0 1 3.014038-9.061434 6.704302 6.704302 0 0 1 9.042113 2.936755c3.187925 6.240604 6.086038 19.513962-3.207246 29.753962a6.762264 6.762264 0 0 1-9.563773 0.463698zM368.659321 245.103094c-9.312604-10.24-6.39517-23.532679-3.207246-29.753962a6.762264 6.762264 0 0 1 12.056151 6.124679c-0.193208 0.386415-4.173283 8.675019 1.159246 14.548529a6.762264 6.762264 0 1 1-10.008151 9.080754z" fill="#F0B68E" /><path d="M500.330264 503.634113l-16.615849 108.79517a12.365283 12.365283 0 0 0 2.646943 9.699019l8.230642 9.853585h48.90083l8.307925-9.853585a12.210717 12.210717 0 0 0 2.627622-9.699019l-16.615849-108.79517 12.655095-12.655094 6.897509-6.89751-38.216453-38.235773-1.777509 1.777509-36.59351 36.458264 6.762265 6.762265z" fill="#FC6559" /><path d="M500.832604 589.514868a3.670943 3.670943 0 0 1-3.632302-4.250566l5.699623-37.404981a3.670943 3.670943 0 1 1 7.264603 1.120604l-5.699622 37.424301a3.670943 3.670943 0 0 1-3.632302 3.110642zM508.870038 536.981736a3.670943 3.670943 0 0 1-3.651623-4.250566l0.830793-5.390491a3.670943 3.670943 0 1 1 7.264603 1.120604l-0.830792 5.409811a3.670943 3.670943 0 0 1-3.612981 3.091321z" fill="#FFFFFF" opacity=".4" /><path d="M520.906868 447.623245l-1.912755 1.313812-1.622943-1.313812 1.777509-1.777509z" fill="#F05543" /><path d="M514.241208 465.881358a6.955472 6.955472 0 0 1 9.505811 0l12.500528 11.727699a11.650415 11.650415 0 0 1 0.25117 16.751094l-6.91683 6.91683a6.569057 6.569057 0 0 0-1.854793 5.641661l16.11351 105.510641a12.210717 12.210717 0 0 1-2.646944 9.699019l-8.288603 9.853585h10.587773l8.307925-9.853585a12.210717 12.210717 0 0 0 2.627622-9.699019l-16.615849-108.79517 12.655095-12.655094 6.897509-6.89751-36.458264-36.458264-1.912755 1.313812-1.622943-1.313812-3.516378 3.516378-33.077132 32.941886 6.762265 6.762265z" fill="#F05543" /><path d="M578.772528 398.722415l58.522566 20.98234-50.485132 85.397736a6.530415 6.530415 0 0 1-10.336604 1.139924l-64.763169-60.744453 60.261434-45.693585a6.530415 6.530415 0 0 1 6.800905-1.081962z" fill="#C2C2EF" /><path d="M459.331623 398.722415l-60.358038 19.610566 52.339924 86.78883c2.221887 3.690264 7.361208 4.250566 10.336604 1.120604l64.743849-60.744453-60.261434-45.693585a6.530415 6.530415 0 0 0-6.800905-1.081962z" fill="#C2C2EF" /><path d="M637.353057 419.685434l-50.581736 85.397736a6.530415 6.530415 0 0 1-10.278642 1.197887l-57.498566-53.808302-7.341887-6.91683 7.341887-5.603019 4.115321-3.072 53.383245 49.982792c2.936755 3.091321 8.076075 2.646943 10.278642-1.024l41.153207-69.554717z" fill="#A2A2F9" /><path d="M526.355321 445.555925l-7.341887 6.91683-57.363321 53.808302a6.530415 6.530415 0 0 1-10.278641-1.178566l-52.359246-86.750189 9.71834-3.226566 42.640906 70.713962c2.202566 3.670943 7.341887 4.115321 10.278641 1.024l53.228679-49.982792 4.115321 3.09132z" fill="#A2A2F9" /><path d="M860.894189 635.768755v76.81932c0 15.089509-12.249358 27.338868-27.338868 27.338868H190.444679a27.338868 27.338868 0 0 1-27.338868-27.338868v-76.81932c0-15.089509 12.249358-27.338868 27.338868-27.338868h643.110642c15.089509 0 27.338868 12.249358 27.338868 27.338868zM803.608151 739.984906v202.983849a37.849358 37.849358 0 0 1-37.849359 37.849358H258.241208a37.849358 37.849358 0 0 1-37.86868-37.868679V739.984906z" fill="#F9B938" /><path d="M803.550189 740.023547v202.867925c0 17.775094-11.978868 32.652075-28.40151 36.709434 2.318491-4.636981 3.477736-10.046792 3.477736-15.649812v-158.391547a44.688906 44.688906 0 0 0-44.688906-44.688905H220.449811v-20.866416h583.100378z" fill="#E5A320" /><path d="M700.184151 810.48634v99.830339c0 15.804377-12.80966 28.633358-28.614038 28.633359H352.410566a28.614038 28.614038 0 0 1-28.614038-28.633359V810.50566c0-15.804377 12.80966-28.614038 28.614038-28.614037H671.589434c15.804377 0 28.614038 12.80966 28.614038 28.594717z" fill="#FFFFFF" /><path d="M699.797736 806.873358c-1.738868-0.386415-3.670943-0.579623-5.409811-0.579622H375.209057c-15.843019 0-28.594717 12.751698-28.594717 28.594717v99.888302c0 1.159245 0 2.511698 0.386415 3.670943-13.331321-2.511698-23.184906-14.297358-23.184906-28.208302v-99.695094c0-15.843019 12.751698-28.594717 28.594717-28.594717h319.178868c14.683774 0 26.469434 10.819623 28.208302 24.923773z" fill="#E4E3FF" /><path d="M392.404528 643.999396a11.01283 11.01283 0 0 1-11.01283 11.01283h-117.219019a11.01283 11.01283 0 0 1 0-22.02566h117.23834a11.01283 11.01283 0 0 1 11.01283 11.01283zM234.592604 643.999396a11.01283 11.01283 0 0 1-11.01283 11.01283h-14.567849a11.01283 11.01283 0 0 1 0-22.02566h14.567849a11.01283 11.01283 0 0 1 11.01283 11.01283z" fill="#FFFFFF" opacity=".4" /><path d="M260.888151 928.033811a11.01283 11.01283 0 0 1-11.01283-11.01283v-59.276075a11.01283 11.01283 0 0 1 22.02566 0v59.276075a11.01283 11.01283 0 0 1-11.01283 11.01283zM260.888151 828.16483a11.01283 11.01283 0 0 1-11.01283-11.01283v-14.567849a11.01283 11.01283 0 0 1 22.02566 0v14.567849a11.01283 11.01283 0 0 1-11.01283 11.01283z" fill="#FFFFFF" opacity=".4" /><path d="M647.206642 904.655698a9.293283 9.293283 0 0 1-9.293284 9.293283H386.086642a9.293283 9.293283 0 1 1 0-18.586566h251.826716c5.139321 0 9.293283 4.153962 9.293284 9.273962zM647.206642 866.82566a9.293283 9.293283 0 0 1-9.293284 9.293283H386.086642a9.293283 9.293283 0 1 1 0-18.605886h251.826716c5.139321 0 9.293283 4.173283 9.293284 9.312603zM647.206642 828.995623a9.293283 9.293283 0 0 1-9.293284 9.293283H386.086642a9.293283 9.293283 0 1 1 0-18.605887h251.826716c5.139321 0 9.293283 4.173283 9.293284 9.312604z" fill="#E4E3FF" /><path d="M647.245283 904.636377c0 5.216604-4.250566 9.273962-9.273962 9.273963H386.028679c-5.023396 0-9.080755-3.864151-9.273962-9.080755 1.738868 1.738868 4.057358 2.704906 6.569057 2.704906h251.942641c5.023396 0 9.273962-4.057358 9.273962-9.273963 1.738868 1.738868 2.704906 3.864151 2.704906 6.375849zM647.245283 866.748377c0 5.216604-4.250566 9.273962-9.273962 9.273963H386.028679c-5.023396 0-9.080755-3.864151-9.273962-9.080755 1.738868 1.738868 4.057358 2.704906 6.569057 2.704906h251.942641c5.023396 0 9.273962-4.057358 9.273962-9.273963 1.738868 1.738868 2.704906 3.864151 2.704906 6.375849zM647.245283 829.072906c0 5.023396-4.250566 9.273962-9.273962 9.273962H386.028679c-5.023396 0-9.273962-4.250566-9.273962-9.273962 1.738868 1.738868 4.057358 2.704906 6.569057 2.704905h251.942641c5.023396 0 9.273962-4.057358 9.273962-9.273962 1.738868 1.738868 2.704906 4.057358 2.704906 6.569057z" fill="#D0D0F7" /></svg>