<?xml version="1.0" standalone="no"?><!DOCTYPE svg PUBLIC "-//W3C//DTD SVG 1.1//EN" "http://www.w3.org/Graphics/SVG/1.1/DTD/svg11.dtd"><svg class="icon" width="200px" height="200.00px" viewBox="0 0 1024 1024" version="1.1" xmlns="http://www.w3.org/2000/svg"><path d="M900.540377 650.993509c0 72.839245-23.764528 140.075472-64.53132 194.366793-4.057358 5.796226-8.501132 11.399245-13.331321 16.809056-1.54566 2.125283-3.477736 4.057358-5.216604 6.182642H206.538868c-1.738868-1.932075-3.477736-4.057358-5.216604-5.989434a284.015094 284.015094 0 0 1-13.331321-16.809057c-40.573585-54.291321-64.531321-121.527547-64.53132-194.56a324.163623 324.163623 0 0 1 77.862641-211.369056c1.738868-2.125283 3.477736-4.057358 5.216604-5.989434h610.922264c1.738868 1.932075 3.670943 4.057358 5.216604 6.182641 4.830189 5.409811 9.273962 11.01283 13.331321 16.615849 40.766792 54.291321 64.531321 121.720755 64.53132 194.56z" fill="#E4E3FF" /><path d="M411.918491 433.635019v0.193207l-8.69434 17.775095-97.956226 199.390188-2.125283 4.250566a9.660377 9.660377 0 1 1-17.38868 0l-2.125283-4.250566-95.637736-194.753207c4.250566-5.603019 8.69434-11.206038 13.331321-16.615849l93.126038 189.343396 96.024151-195.33283 4.057358-8.307925c0.966038-1.932075 2.511698-3.477736 4.443774-4.443773 0.579623-0.193208 0.966038-0.386415 1.54566-0.579623 0.966038-0.193208 1.738868-0.386415 2.704906-0.386415 0.966038 0 1.738868 0.193208 2.511698 0.386415 2.511698 0.77283 4.830189 2.511698 6.182642 5.023396 1.159245 2.511698 1.352453 5.603019 0 8.307925z" fill="#C2C2EF" /><path d="M411.918491 876.659925c-1.738868 3.477736-5.023396 5.409811-8.69434 5.409811-0.966038 0-1.738868-0.193208-2.511698-0.386415a6.105358 6.105358 0 0 1-2.511698-1.159246 10.046792 10.046792 0 0 1-3.670944-3.86415l-4.057358-8.307925-96.024151-195.526038-93.126038 189.536604a284.015094 284.015094 0 0 1-13.331321-16.809057l95.637736-194.56 2.125283-4.250566c3.284528-6.569057 14.104151-6.569057 17.38868 0l2.125283 4.250566 97.956226 199.390189 8.69434 17.775094v0.193208c1.352453 2.704906 1.159245 5.796226 0 8.307925zM512.019321 660.615245a9.660377 9.660377 0 0 1-8.655698-5.409811L394.529811 433.847547a9.679698 9.679698 0 0 1 17.369359-8.539773L512 629.045132l100.139472-203.756679a9.776302 9.776302 0 0 1 12.944905-4.405132c4.791547 2.357132 6.762264 8.153358 4.424453 12.944905L520.69434 655.224755a9.660377 9.660377 0 0 1-8.675019 5.409811z" fill="#C2C2EF" /><path d="M620.833811 882.011774a9.679698 9.679698 0 0 1-8.675019-5.409812l-100.139471-203.737358-100.120151 203.756679a9.679698 9.679698 0 0 1-17.369359-8.539774l108.833812-221.396528c3.245887-6.588377 14.08483-6.588377 17.330717 0l108.833811 221.415849a9.679698 9.679698 0 0 1-8.69434 13.910944zM836.009057 456.433509l-95.637736 194.56-2.125283 4.250566a9.660377 9.660377 0 0 1-17.38868 0l-2.125283-4.250566-97.956226-199.390188-8.69434-17.775095v-0.193207a9.621736 9.621736 0 0 1 4.443774-12.751698l1.738868-0.579623c0.77283-0.193208 1.54566-0.386415 2.511698-0.386415s1.738868 0.193208 2.704906 0.386415a9.660377 9.660377 0 0 1 5.989434 5.023396l4.057358 8.307925 96.024151 195.33283 93.126038-189.150189c4.830189 5.409811 9.273962 11.01283 13.331321 16.615849z" fill="#C2C2EF" /><path d="M836.009057 845.360302c-4.057358 5.796226-8.501132 11.399245-13.331321 16.809056l-93.126038-189.343396-96.024151 195.526038-4.057358 8.307925c-1.738868 3.477736-5.023396 5.409811-8.69434 5.409811-0.966038 0-1.738868-0.193208-2.511698-0.386415l-1.738868-0.579623c-0.193208-0.193208-0.579623-0.386415-0.77283-0.579623a10.046792 10.046792 0 0 1-3.670944-3.86415 9.621736 9.621736 0 0 1 0-8.307925v-0.193208l8.69434-17.775094 97.956226-199.390189 2.125283-4.250566c3.284528-6.569057 14.104151-6.569057 17.38868 0l2.125283 4.250566z" fill="#C2C2EF" /><path d="M844.819321 469.107925a326.791245 326.791245 0 0 0-27.261585-35.550189H206.480906a326.791245 326.791245 0 0 0-27.261585 35.550189zM179.219321 832.801811c8.365887 12.442566 17.311396 24.440755 27.261585 35.56951h611.07683c9.950189-11.128755 18.895698-23.126943 27.261585-35.550189z" fill="#D0D0F7" /><path d="M872.390038 379.884679a53.653736 53.653736 0 0 1-53.673057 53.673057H205.32166a53.653736 53.653736 0 0 1 0-107.326793h613.395321a53.653736 53.653736 0 0 1 53.673057 53.653736z" fill="#A2A2F9" /><path d="M872.293434 379.884679a53.615094 53.615094 0 0 1-53.576453 53.576453H205.398943a53.325283 53.325283 0 0 1-52.649056-43.413736 52.397887 52.397887 0 0 0 40.650868 19.088906h613.62717a53.615094 53.615094 0 0 0 53.557132-53.576453c0-3.381132-0.309132-6.762264-1.236529-10.162717 8.307925 9.254642 12.944906 21.25283 12.944906 34.487547z" fill="#7979F7" /><path d="M872.390038 922.044377a53.653736 53.653736 0 0 1-53.673057 53.653736H205.32166a53.653736 53.653736 0 1 1 0-107.326792h613.395321a53.653736 53.653736 0 0 1 53.673057 53.673056z" fill="#A2A2F9" /><path d="M855.754868 883.344906c2.163925 5.216604 3.091321 11.070792 3.091321 17.234113a53.673057 53.673057 0 0 1-53.576453 53.885585H191.971019a53.788981 53.788981 0 0 1-36.960604-14.780378c6.762264 20.924377 26.797887 36.013887 50.504453 36.013887H818.813585a53.615094 53.615094 0 0 0 53.576453-53.576453c0-15.070189-6.472453-28.942491-16.615849-38.796075z" fill="#7979F7" /><path d="M665.136302 289.038491c-24.788528 24.788528-64.975698 24.962415-89.764227 0.173886s-24.788528-65.149585 0-89.938113c24.788528-24.807849 64.975698-24.633962 89.764227 0.154566s24.807849 64.801811 0 89.609661z" fill="#B75F25" /><path d="M665.155623 289.038491a63.372075 63.372075 0 1 1-107.674566-53.904906 62.599245 62.599245 0 0 0 17.040905 31.24166 63.449358 63.449358 0 0 0 89.764227-0.173887 62.599245 62.599245 0 0 0 17.910339-35.646792 63.140226 63.140226 0 0 1-17.040905 58.483925z" fill="#994F1D" /><path d="M794.585358 112.38883l-113.548075 113.548076a62.657208 62.657208 0 0 0-15.900981-26.508076 60.454642 60.454642 0 0 0-26.855849-15.900981l113.721962-113.702641c11.804981-11.78566 30.951849-11.78566 42.75683 0a30.19834 30.19834 0 0 1-0.173887 42.563622z" fill="#F9B938" /><path d="M699.179472 207.814038l-18.142189 18.122868a62.657208 62.657208 0 0 0-15.900981-26.508076 60.454642 60.454642 0 0 0-26.855849-15.900981l113.721962-113.702641a30.101736 30.101736 0 0 1 36.245736-4.791548c-3.072 1.352453-5.989434 3.245887-8.539774 5.815548l-87.948075 87.948075c-11.534491 11.534491-10.76166 29.94717 0.850113 41.423698a64.685887 64.685887 0 0 1 6.569057 7.593057z" fill="#E5A320" /><path d="M373.933887 276.364075c24.788528 24.788528 64.975698 24.962415 89.764226 0.173887s24.807849-65.149585 0-89.938113c-24.788528-24.807849-64.975698-24.633962-89.764226 0.173887s-24.807849 64.801811 0 89.590339z" fill="#5BC658" /><path d="M373.933887 276.364075a63.372075 63.372075 0 1 0 107.674566-53.904905 62.599245 62.599245 0 0 1-17.040906 31.24166 63.449358 63.449358 0 0 1-89.783547-0.173887 62.599245 62.599245 0 0 1-17.91034-35.627471 63.140226 63.140226 0 0 0 17.060227 58.464603z" fill="#49A247" /><path d="M244.48483 99.733736l113.548076 113.528755c2.898113-9.73766 8.211321-18.799094 15.900981-26.488755a60.454642 60.454642 0 0 1 26.855849-15.920302l-113.721962-113.702642a30.236981 30.236981 0 0 0-42.756831 0 30.19834 30.19834 0 0 0 0.193208 42.582944z" fill="#F9B938" /><path d="M339.910038 195.139623l18.122868 18.122868c2.898113-9.73766 8.211321-18.799094 15.900981-26.488755a60.454642 60.454642 0 0 1 26.855849-15.920302l-113.721962-113.702642a30.101736 30.101736 0 0 0-36.245736-4.791547c3.091321 1.371774 5.989434 3.245887 8.539773 5.815547l87.948076 87.948076c11.553811 11.534491 10.76166 29.94717-0.830793 41.443019a66.250868 66.250868 0 0 0-6.569056 7.573736z" fill="#E5A320" /><path d="M476.604377 361.99366a16.615849 16.615849 0 0 1-16.596528 16.615849h-144.90566a16.615849 16.615849 0 0 1 0-33.212377h144.90566a16.615849 16.615849 0 0 1 16.615849 16.615849zM262.472453 361.99366a16.615849 16.615849 0 0 1-16.596528 16.615849h-17.833057a16.615849 16.615849 0 0 1 0-33.212377h17.833057a16.615849 16.615849 0 0 1 16.615849 16.615849z" fill="#FFFFFF" opacity=".3" /><path d="M476.604377 908.655094a16.615849 16.615849 0 0 1-16.596528 16.615849h-144.90566a16.615849 16.615849 0 0 1 0-33.212377h144.90566a16.615849 16.615849 0 0 1 16.615849 16.615849zM262.472453 908.655094a16.615849 16.615849 0 0 1-16.596528 16.615849h-17.833057a16.615849 16.615849 0 0 1 0-33.212377h17.833057a16.615849 16.615849 0 0 1 16.615849 16.615849z" fill="#FFFFFF" opacity=".3" /><path d="M330.346264 647.071396c0 19.823094-16.113509 36.09117-36.09117 36.09117s-36.09117-16.268075-36.091169-36.09117c0-19.95834 16.113509-36.09117 36.091169-36.09117s36.09117 16.13283 36.09117 36.09117z" fill="#B75F25" /><path d="M549.791396 647.071396a36.129811 36.129811 0 0 1-36.09117 36.09117 36.129811 36.129811 0 0 1-36.091169-36.09117c0-19.95834 16.13283-36.09117 36.091169-36.09117 19.97766 0 36.09117 16.13283 36.09117 36.09117z" fill="#FC6559" /><path d="M764.618868 647.071396c0 19.823094-16.13283 36.09117-36.09117 36.09117s-36.09117-16.268075-36.09117-36.09117c0-19.95834 16.113509-36.09117 36.09117-36.09117s36.09117 16.13283 36.09117 36.09117z" fill="#F7E839" /><path d="M330.384906 647.129358c0 19.70717-16.229434 36.129811-36.129812 36.129812-16.809057 0-30.913208-11.78566-34.777358-27.242264 6.182642 5.409811 14.297358 8.501132 22.991698 8.501132 19.900377 0 35.936604-16.229434 35.936604-36.129812 0-3.091321-0.386415-6.182642-1.352453-9.080754 8.114717 6.375849 13.331321 16.422642 13.331321 27.821886z" fill="#994F1D" /><path d="M549.868679 647.129358c0 19.70717-16.229434 36.129811-36.129811 36.129812-17.002264 0-31.106415-11.78566-34.777359-27.242264 6.182642 5.409811 14.104151 8.501132 22.798491 8.501132 20.093585 0 36.129811-16.229434 36.129811-36.129812 0-3.091321-0.386415-6.182642-1.352453-9.080754 8.114717 6.375849 13.331321 16.422642 13.331321 27.821886z" fill="#F05543" /><path d="M764.522264 647.129358c0 19.70717-16.036226 36.129811-35.936604 36.129812-17.002264 0-31.106415-11.78566-34.777358-27.242264 6.182642 5.409811 14.104151 8.501132 22.79849 8.501132 20.093585 0 36.129811-16.229434 36.129812-36.129812 0-3.091321-0.386415-6.182642-1.352453-9.080754 8.114717 6.569057 13.138113 16.422642 13.138113 27.821886z" fill="#EDD318" /></svg>