<?xml version="1.0" standalone="no"?><!DOCTYPE svg PUBLIC "-//W3C//DTD SVG 1.1//EN" "http://www.w3.org/Graphics/SVG/1.1/DTD/svg11.dtd"><svg class="icon" width="200px" height="200.00px" viewBox="0 0 1024 1024" version="1.1" xmlns="http://www.w3.org/2000/svg"><path d="M975.698113 515.439094v65.555321c0 23.107623-18.741132 41.848755-41.829434 41.848755H90.131321A41.829434 41.829434 0 0 1 48.301887 580.975094v-65.55532c0-23.088302 18.741132-41.829434 41.829434-41.829434h843.737358c23.107623 0 41.829434 18.741132 41.829434 41.829434z" fill="#B75F25" /><path d="M975.698113 515.400453v65.690566c0 22.991698-18.741132 41.73283-41.926038 41.73283H90.227925c-20.286792 0-37.095849-14.297358-41.153208-33.231698 3.477736 0.966038 7.148679 1.54566 11.01283 1.54566h843.737359c22.991698 0 41.73283-18.741132 41.73283-41.73283v-65.690566c0-2.898113-0.386415-5.796226-0.77283-8.501132 17.775094 4.830189 30.913208 21.059623 30.913207 40.18717z" fill="#AA5821" /><path d="M908.751698 622.823849v231.404679a100.332679 100.332679 0 0 1-100.332679 100.33268H215.580981a100.332679 100.332679 0 0 1-100.332679-100.33268V622.823849z" fill="#F9B938" /><path d="M190.947019 858.073358a14.490566 14.490566 0 0 1-14.490566-14.490566v-65.110943a14.490566 14.490566 0 0 1 28.981132 0v65.110943a14.490566 14.490566 0 0 1-14.490566 14.490566zM190.947019 742.457962a14.490566 14.490566 0 0 1-14.490566-14.490566v-12.80966a14.490566 14.490566 0 0 1 28.981132 0v12.80966a14.490566 14.490566 0 0 1-14.490566 14.490566z" fill="#FFFFFF" opacity=".4" /><path d="M908.655094 622.823849v231.462642c0 41.346415-24.923774 76.703396-60.473962 91.966792 10.819623-15.843019 17.002264-35.163774 17.002264-55.836981v-160.439547a70.810566 70.810566 0 0 0-70.810566-70.829887H115.151698v-36.323019z" fill="#E5A320" /><path d="M340.180528 521.003472a14.490566 14.490566 0 0 1-14.490566 14.490566h-132.733585a14.490566 14.490566 0 0 1 0-28.981132h132.733585a14.490566 14.490566 0 0 1 14.490566 14.490566zM156.942491 521.003472a14.490566 14.490566 0 0 1-14.490566 14.490566H129.642264a14.490566 14.490566 0 0 1 0-28.981132h12.809661a14.490566 14.490566 0 0 1 14.490566 14.490566z" fill="#FFFFFF" opacity=".4" /><path d="M721.050566 728.102642v121.179773c0 18.779774-15.205434 34.004528-33.985208 34.004528H336.953962a33.985208 33.985208 0 0 1-33.985207-34.004528v-121.179773c0-18.760453 15.205434-33.985208 33.985207-33.985208H687.046038c18.779774 0 33.985208 15.224755 33.985207 33.985208z" fill="#E4E3FF" /><path d="M721.050566 728.121962v121.141132c0 18.741132-15.263396 34.004528-34.004528 34.004529H336.953962c-15.649811 0-28.981132-10.819623-32.652075-25.310189 1.54566 0.386415 3.091321 0.579623 4.636981 0.579623h350.092075c18.741132 0 34.004528-15.263396 34.004529-34.004529v-121.141132c0-3.091321-0.386415-5.989434-1.352453-8.694339 16.615849 1.932075 29.367547 16.229434 29.367547 33.424905z" fill="#D0D0F7" /><path d="M652.461887 753.354868a12.461887 12.461887 0 0 1-12.481208 12.461887H384.019321a12.461887 12.461887 0 0 1 0-24.923774h255.961358c6.878189 0 12.461887 5.583698 12.461887 12.461887zM652.461887 815.722264a12.461887 12.461887 0 0 1-12.481208 12.461887H384.019321a12.461887 12.461887 0 0 1 0-24.923774h255.961358c6.878189 0 12.461887 5.583698 12.461887 12.461887z" fill="#FFFFFF" /><path d="M836.917132 473.551698l76.316981-237.490717a91.522415 91.522415 0 1 0-174.273207-55.991547l-94.323925 293.482264z" fill="#7979F7" /><path d="M913.292075 236.02234l-68.009056 211.369056-8.307925 26.083019h-192.241509l8.307924-26.083019h119.518189a47.277887 47.277887 0 0 0 45.017359-32.825962l60.93766-189.749132a91.000755 91.000755 0 0 0-42.312453-107.616604c5.989434 0.579623 11.978868 1.932075 17.775094 3.670944h0.193208c48.108679 15.456604 74.578113 67.043019 59.121509 115.151698z" fill="#5E5EEF" /><path d="M712.240302 263.380528l17.292075-53.808302 174.273208 56.030189-17.292076 53.788981z" fill="#E4E3FF" /><path d="M851.852075 308.243321l17.292076-53.75034 34.642113 11.128755-17.272755 53.750339z" fill="#D0D0F7" /><path d="M896.966038 286.700679l16.268075-50.620377a91.541736 91.541736 0 1 0-174.273207-56.010868l-16.287397 50.620377z" fill="#FC6559" /><path d="M774.762264 184.648453a11.399245 11.399245 0 0 1-2.704906-15.881661A74.674717 74.674717 0 0 1 828.280755 137.177358a11.418566 11.418566 0 0 1 1.487698 22.75985 51.97283 51.97283 0 0 0-39.124528 22.02566 11.399245 11.399245 0 0 1-15.900982 2.704906z" fill="#FFFFFF" opacity=".3" /><path d="M913.253434 236.02234l-16.306717 50.716981-174.273208-56.010868 9.892227-30.835925 111.751245 35.917283a42.892075 42.892075 0 0 0 53.943547-27.725283 91.116679 91.116679 0 0 0-0.193207-56.474566 91.309887 91.309887 0 0 1 15.186113 84.431698z" fill="#F05543" /><path d="M721.784755 373.23834a11.399245 11.399245 0 0 1-7.361208-14.336l6.163321-19.166189a11.399245 11.399245 0 0 1 21.716528 6.955472l-6.182641 19.185509a11.399245 11.399245 0 0 1-14.336 7.361208z" fill="#FFFFFF" opacity=".3" /><path d="M206.654792 473.996075h189.478642L343.909434 278.412075a215.600302 215.600302 0 0 0-61.304755-102.071547L218.710943 116.755321a14.548528 14.548528 0 0 0-23.82249 6.375849l-25.657962 83.523622c-11.862943 38.641509-12.635774 79.872-2.202566 118.919246z" fill="#5BC658" /><path d="M396.230038 473.976755h-189.536604l-7.535094-28.208302-32.072453-120.175095c-2.704906-10.046792-4.636981-20.093585-5.796227-30.140377-3.516377-24.576-1.622943-57.054189 7.92151-88.875472l9.46717-30.333584 16.229434-53.132076a14.490566 14.490566 0 0 1 23.764528-6.375849l8.114717 7.535094-22.412076 73.032453a215.407094 215.407094 0 0 0-2.125283 118.822642l21.716529 81.398339a64.995019 64.995019 0 0 0 62.792453 48.243925h101.936301z" fill="#49A247" /><path d="M161.212377 295.43366c-3.477736-29.753962-0.908075-59.971623 8.037434-88.798188l9.331925-30.46883 16.287396-53.112755a14.606491 14.606491 0 0 1 23.80317-6.356529l40.689509 37.888 23.28151 21.774491a217.126642 217.126642 0 0 1 51.238641 72.95517z" fill="#F7C9A9" /><path d="M161.212377 295.43366c-2.009358-24.865811-3.57434-51.103396 8.037434-88.798188l9.331925-30.46883 16.287396-53.112755a14.606491 14.606491 0 0 1 23.80317-6.356529l8.134038 7.515774-18.16151 58.928302-4.250566 14.104151a215.097962 215.097962 0 0 0-7.921509 88.778868z" fill="#F0B68E" /><path d="M178.581736 176.166642l16.287396-53.112755a14.606491 14.606491 0 0 1 23.80317-6.356529l40.689509 37.888a61.517283 61.517283 0 0 1-36.226415 26.566038 61.034264 61.034264 0 0 1-44.55366-4.984754z" fill="#474646" /><path d="M178.581736 176.166642l16.287396-53.112755a14.606491 14.606491 0 0 1 23.80317-6.356529l8.134038 7.515774-18.16151 58.928302a59.121509 59.121509 0 0 1-30.063094-6.974792z" fill="#2D2C2C" /><path d="M328.336906 436.146717l-18.316076-58.078189a14.220075 14.220075 0 0 1 27.107019-8.597736l18.316076 58.058868a14.220075 14.220075 0 0 1-27.107019 8.617057zM297.674868 330.346264l-3.767547-11.824302a14.220075 14.220075 0 0 1 27.126339-8.597736l3.748227 11.804982a14.220075 14.220075 0 0 1-27.107019 8.617056z" fill="#FFFFFF" opacity=".2" /><path d="M540.787925 622.823849c-0.966038 0.386415-2.125283 0.386415-3.284529 0.193208-0.193208 0-0.193208 0-0.386415-0.193208zM584.259623 449.323472c0.193208 7.921509 0.193208 16.036226 0 24.344151H442.445283l-0.579623-22.025661c-0.966038-61.826415 5.216604-103.94566 16.036227-131.381132 2.125283-5.023396 4.250566-9.660377 6.569056-13.717736 3.477736-6.182642 7.341887-11.399245 11.399246-15.456603 0.966038-1.159245 1.738868-1.932075 2.704905-2.511699 0.386415-0.579623 0.966038-0.966038 1.352453-1.352452l22.218868-0.386415 38.448302-0.772831c0.579623 0.386415 1.159245 0.966038 1.738868 1.352453 23.571321 19.900377 40.380377 68.009057 41.926038 161.907925z" fill="#A2A2F9" /><path d="M541.560755 473.667623a634.300377 634.300377 0 0 0-0.77283-40.766793c0-2.511698 0.77283-4.636981 2.511698-6.375849 1.352453-1.54566 3.284528-2.511698 5.603019-2.511698 4.636981-0.193208 8.69434 3.284528 8.887547 8.114717 0.386415 7.148679 0.77283 14.683774 0.77283 22.605283 0.193208 6.182642 0.193208 12.558491 0.193207 18.93434zM540.787925 622.823849c-0.966038 0.386415-2.125283 0.386415-3.284529 0.193208-0.193208 0-0.193208 0-0.386415-0.193208z" fill="#FFFFFF" opacity=".3" /><path d="M464.470943 473.667623H442.445283l-0.579623-22.025661c-0.966038-61.826415 5.216604-103.94566 16.036227-131.381132 2.125283-5.023396 4.250566-9.660377 6.569056-13.717736 3.477736-6.375849 7.341887-11.592453 11.399246-15.456603 0.966038-1.159245 1.738868-1.932075 2.704905-2.511699 0.386415-0.579623 0.966038-0.966038 1.352453-1.352452l22.218868-0.386415a18.741132 18.741132 0 0 0-2.125283 1.932075c-22.605283 20.673208-37.675472 69.168302-36.129811 162.487547l0.579622 22.412076z" fill="#7979F7" /><path d="M593.533585 215.349132c-2.704906 26.662642-27.049057 55.064151-50.620377 72.066415h-0.579623l-42.312453 1.352453-20.48 0.579623a3.381132 3.381132 0 0 1-0.966038-0.772831c-21.832453-16.229434-47.915472-46.176604-48.688302-89.455094-0.193208-8.501132 1.159245-17.775094 3.670944-27.242264 9.46717-37.095849 34.777358-77.476226 50.233962-96.024151 8.887547-10.819623 26.083019-7.341887 30.526793 5.796226 8.69434 26.662642 26.855849 65.690566 62.599245 94.864906 13.717736 11.206038 18.161509 24.730566 16.615849 38.834717z" fill="#ECB021" /><path d="M593.533585 215.349132c-9.46717-2.511698-17.581887-9.080755-25.889811-14.876981-9.660377-6.762264-21.639245-12.944906-33.038491-9.46717-7.535094 2.318491-13.331321 8.501132-19.70717 13.138113-6.375849 4.830189-15.070189 8.114717-22.02566 4.443774-7.341887-4.250566-8.69434-13.910943-9.273962-22.412076-0.579623-8.307925-1.932075-18.161509-9.273963-22.218867-6.569057-3.670943-14.876981-0.966038-21.639245 2.31849-5.989434 2.898113-12.558491 6.182642-19.127547 5.603019 9.46717-37.095849 34.777358-77.476226 50.233962-96.024151 8.887547-10.819623 26.083019-7.341887 30.526793 5.796226 8.69434 26.662642 26.855849 65.690566 62.599245 94.864906 13.717736 11.206038 18.161509 24.730566 16.615849 38.834717z" fill="#FC6559" /></svg>