<?xml version="1.0" standalone="no"?><!DOCTYPE svg PUBLIC "-//W3C//DTD SVG 1.1//EN" "http://www.w3.org/Graphics/SVG/1.1/DTD/svg11.dtd"><svg class="icon" width="200px" height="200.00px" viewBox="0 0 1024 1024" version="1.1" xmlns="http://www.w3.org/2000/svg"><path d="M975.698113 244.291623v501.373585h-927.396226v-501.373585c0-46.563019 37.868679-84.431698 84.431698-84.431698h758.53283c46.563019 0 84.431698 37.868679 84.431698 84.431698z" fill="#A2A2F9" /><path d="M86.035321 610.110792a14.490566 14.490566 0 0 1-14.490566-14.490566V451.526038a14.490566 14.490566 0 0 1 28.981132 0v144.094188a14.490566 14.490566 0 0 1-14.490566 14.490566zM86.035321 404.595925a14.490566 14.490566 0 0 1-14.490566-14.490567v-9.73766a14.490566 14.490566 0 0 1 28.981132 0v9.73766a14.490566 14.490566 0 0 1-14.490566 14.490567zM738.284679 212.083925h-8.018113a14.490566 14.490566 0 0 1 0-28.981133h8.018113a14.490566 14.490566 0 0 1 0 28.981133zM861.570415 212.083925h-60.763773a14.490566 14.490566 0 0 1 0-28.981133h60.763773a14.490566 14.490566 0 0 1 0 28.981133z" fill="#FFFFFF" opacity=".3" /><path d="M975.698113 244.291623v501.373585h-927.396226v-35.936604h832.280151a52.030792 52.030792 0 0 0 52.030792-52.030793V208.355019c0-15.649811-4.250566-30.526792-11.978868-43.085283 32.072453 11.78566 55.064151 42.698868 55.064151 79.021887z" fill="#7979F7" /><path d="M48.301887 745.684528v51.335246a84.48966 84.48966 0 0 0 84.48966 84.48966h758.397585a84.48966 84.48966 0 0 0 84.48966-84.48966v-51.335246z" fill="#E4E3FF" /><path d="M975.698113 745.665208v51.393207c0 46.563019-37.868679 84.431698-84.431698 84.431698H132.733585c-31.49283 0-59.121509-17.388679-73.612076-42.892075 12.751698 7.728302 27.821887 12.365283 44.051321 12.365283H861.70566c46.563019 0 84.431698-37.868679 84.431698-84.431698v-20.866415z" fill="#D0D0F7" /><path d="M898.395774 631.962566V275.996981c0-21.446038-17.388679-38.834717-38.834717-38.834717H164.400302c-21.446038 0-38.834717 17.388679-38.834717 38.834717v355.965585c0 21.446038 17.388679 38.834717 38.834717 38.834717h695.160755c21.446038 0 38.834717-17.388679 38.834717-38.834717z" fill="#FFFFFF" /><path d="M898.357132 537.831849v94.092076c0 21.446038-17.388679 38.834717-38.834717 38.834717H164.36166c-21.446038 0-38.834717-17.388679-38.834717-38.834717v-37.09585c125.778113 34.197736 293.675472 42.50566 473.938114 17.38868 109.548679-15.263396 210.982642-41.346415 298.892075-74.384906zM363.809811 881.490113h296.380378v93.261283H363.809811z" fill="#E4E3FF" /><path d="M363.809811 881.490113h296.380378v20.595925H363.809811z" fill="#C2C2EF" /><path d="M542.391547 804.013887c0 16.809057-13.582491 30.410868-30.410868 30.410868s-30.391547-13.582491-30.391547-30.410868c0-16.809057 13.582491-30.584755 30.391547-30.584755s30.410868 13.775698 30.410868 30.584755z" fill="#A2A2F9" /><path d="M542.333585 804.013887c0 16.809057-13.524528 30.333585-30.333585 30.333585-11.78566 0-21.832453-6.569057-26.855849-16.422642 5.023396 3.864151 11.206038 5.989434 17.968302 5.989434a30.256302 30.256302 0 0 0 26.662641-44.630943c7.728302 5.603019 12.558491 14.683774 12.558491 24.730566z" fill="#7979F7" /><path d="M705.709887 978.325736H317.826415a9.660377 9.660377 0 1 1 0-19.320755h387.883472a9.660377 9.660377 0 1 1 0 19.320755z" fill="#E4E3FF" /><path d="M491.075623 86.924075v583.873208h-214.846793V86.924075c0-21.832453 17.581887-39.607547 39.41434-39.607547h135.824905c21.832453 0 39.607547 17.775094 39.607548 39.607547z" fill="#F9B938" /><path d="M491.075623 651.090113v19.70717h-214.846793V86.924075a39.607547 39.607547 0 0 1 39.607547-39.607547h15.263397v570.406642c0 18.412679 14.934943 33.366943 33.366943 33.366943h126.608906z" fill="#E5A320" /><path d="M276.132226 117.856604V95.251321h62.154868a11.302642 11.302642 0 1 1 0 22.605283zM328.20166 629.23834c0 6.375849-5.023396 11.399245-11.399245 11.399245h-40.573585v-22.605283h40.573585c4.830189 0 8.887547 2.898113 10.433208 6.762264 0.579623 1.352453 0.966038 2.898113 0.966037 4.443774zM276.132226 582.520755v-22.643925h62.154868a11.302642 11.302642 0 1 1 0 22.643925zM276.132226 524.442566v-22.643924H316.860377a11.302642 11.302642 0 1 1 0 22.643924zM276.132226 466.345057v-22.605283h62.154868a11.302642 11.302642 0 1 1 0 22.605283zM276.132226 408.266868V385.642264H316.860377a11.302642 11.302642 0 1 1 0 22.624604zM276.132226 350.130717v-22.508679h62.154868a11.283321 11.283321 0 1 1 0 22.508679zM276.132226 292.110491v-22.624604H316.860377a11.302642 11.302642 0 1 1 0 22.624604h-40.728151zM276.132226 234.032302v-22.624604h62.154868a11.302642 11.302642 0 1 1 0 22.605283h-62.154868zM276.132226 175.954113V153.310189H316.860377a11.302642 11.302642 0 1 1 0 22.624603h-40.728151z" fill="#474646" /><path d="M426.969358 416.825962a16.982943 16.982943 0 0 1-17.002264-17.002264v-121.913962a16.982943 16.982943 0 1 1 33.985208 0v121.913962c0 9.409208-7.593057 17.002264-17.002264 17.002264zM426.969358 219.367849a16.982943 16.982943 0 0 1-17.002264-16.982943v-13.002868a16.982943 16.982943 0 1 1 33.985208 0v13.002868c0 9.389887-7.593057 17.002264-17.002264 17.002264z" fill="#FFFFFF" opacity=".3" /><path d="M700.319396 228.912302l-0.193207 365.741887v76.123773h-149.735849v-442.058868c0-11.78566 0.77283-23.571321 2.125283-35.356981h145.485283c1.54566 11.78566 2.318491 23.571321 2.31849 35.550189z" fill="#FC6559" /><path d="M697.170113 186.368h0.193208c0.212528 2.260528 0.637585 4.521057 0.637585 6.974792-0.212528-2.241208-0.425057-4.714264-0.830793-6.974792z" fill="#C2C2EF" /><path d="M697.170113 186.368h0.193208c0.212528 2.260528 0.637585 4.521057 0.637585 6.974792-0.212528-2.241208-0.425057-4.714264-0.830793-6.974792z" fill="#A2A2F9" /><path d="M698.097509 193.362113h-145.639849c3.187925-27.821887 33.792-89.551698 33.792-89.551698l27.532076-50.233962c4.018717-10.529811 18.972981-10.529811 23.126943 0l27.551396 50.233962s30.584755 61.729811 33.618114 89.551698z" fill="#F0B68E" /><path d="M636.889358 53.615094l27.551397 50.253283s30.604075 61.749132 33.637434 89.571019h-145.620529c0.405736-3.612981 1.236528-7.766943 2.492378-12.326641h83.46566c16.751094 0 28.652679-16.615849 22.991698-32.400906a627.712 627.712 0 0 0-14.683773-35.704755c-12.094792-26.855849-11.206038-22.875774-31.840604-61.18883a11.495849 11.495849 0 0 1 1.79683-2.492377c0.135245-0.270491 0.289811-0.405736 0.425057-0.405736a12.403925 12.403925 0 0 1 19.803773 4.714264z" fill="#E8AA80" /><path d="M664.440755 103.810415a66.463396 66.463396 0 0 1-39.16317 12.597132 66.03834 66.03834 0 0 1-39.027925-12.597132l27.532076-50.233962c4.018717-10.529811 18.972981-10.529811 23.126943 0z" fill="#474646" /><path d="M636.889358 53.615094l27.551397 50.253283c-5.409811 3.864151-11.341283 6.91683-17.717132 9.138717-12.094792-26.855849-11.206038-22.875774-31.840604-61.18883a11.495849 11.495849 0 0 1 1.79683-2.492377c0.135245-0.270491 0.289811-0.405736 0.425057-0.405736a12.403925 12.403925 0 0 1 19.803773 4.714264z" fill="#2D2C2C" /><path d="M606.478491 310.272v143.939623a13.83366 13.83366 0 1 1-27.686642 0v-143.939623a13.83366 13.83366 0 1 1 27.686642 0zM606.478491 504.889962v12.249359a13.83366 13.83366 0 1 1-27.686642 0v-12.249359a13.83366 13.83366 0 1 1 27.686642 0z" fill="#FFFFFF" opacity=".3" /><path d="M700.319396 228.912302v441.86566h-149.929056v-44.824151h89.976754c17.968302 0 32.51683-14.548528 32.516831-32.51683V206.538868c0-4.443774 0-8.887547-0.193208-13.138113h25.310189c1.54566 11.78566 2.318491 23.571321 2.31849 35.550188z" fill="#F05543" /></svg>