<?xml version="1.0" standalone="no"?><!DOCTYPE svg PUBLIC "-//W3C//DTD SVG 1.1//EN" "http://www.w3.org/Graphics/SVG/1.1/DTD/svg11.dtd"><svg class="icon" width="200px" height="200.00px" viewBox="0 0 1024 1024" version="1.1" xmlns="http://www.w3.org/2000/svg"><path d="M422.158491 1003.597283h-5.467774a119.711396 119.711396 0 0 1-119.595472-119.595472v-173.171924h57.962264v173.171924c0 33.985208 27.667321 61.633208 61.633208 61.633208h5.487094a61.69117 61.69117 0 0 0 61.594566-61.633208v-104.911698a119.711396 119.711396 0 0 1 119.595472-119.595471h5.37117a119.711396 119.711396 0 0 1 119.595472 119.595471v88.450415c0 33.965887 27.628679 61.613887 61.613886 61.613887s61.633208-27.628679 61.633208-61.633207V525.988226h57.962264v341.571623c0 65.941736-53.653736 119.576151-119.595472 119.576151s-119.595472-53.634415-119.595471-119.595472v-88.431094c0-33.965887-27.628679-61.633208-61.633208-61.633208h-5.37117a61.69117 61.69117 0 0 0-61.613886 61.633208v104.911698a119.711396 119.711396 0 0 1-119.556831 119.595472z" fill="#E4E3FF" /><path d="M541.831245 864.101434v19.900377c0 65.883774-53.711698 119.595472-119.595471 119.595472h-5.603019c-65.883774 0-119.595472-53.711698-119.595472-119.595472v-19.900377c0 66.076981 53.711698 119.595472 119.595472 119.595472h5.603019c65.883774 0 119.595472-53.518491 119.595471-119.595472zM909.505208 847.678792v19.900378c0 65.883774-53.518491 119.595472-119.595472 119.595472-65.883774 0-119.595472-53.711698-119.595472-119.595472v-19.900378c0 65.883774 53.711698 119.595472 119.595472 119.595472 66.076981 0 119.595472-53.711698 119.595472-119.595472zM297.037283 690.987472h57.962264v19.900377h-57.962264zM728.276528 759.189736v19.900377c0-65.883774-53.518491-119.595472-119.595471-119.595471h-5.409812c-65.883774 0-119.402264 53.711698-119.402264 119.595471v-19.900377c0-65.883774 53.518491-119.595472 119.402264-119.595472h5.409812c66.076981 0 119.595472 53.711698 119.595471 119.595472zM851.542943 506.087849h57.962265v19.900377h-57.962265z" fill="#D0D0F7" /><path d="M326.192302 650.394566c-161.907925 0-293.482264-131.651623-293.482264-293.482264V160.053132a113.007094 113.007094 0 0 1 112.871849-112.852528h71.641358v57.962264H145.581887a54.948226 54.948226 0 0 0-54.909585 54.890264v196.85917c0 129.874113 105.568604 235.52 235.326792 235.52 129.970717 0 235.52-105.645887 235.52-235.52V160.053132a54.948226 54.948226 0 0 0-54.890264-54.890264h-71.68v-57.962264h71.68a113.007094 113.007094 0 0 1 112.852528 112.852528v196.85917c0 161.830642-131.57434 293.482264-293.289056 293.482264z" fill="#E4E3FF" /><path d="M192.705208 47.219925h24.537358v57.962264h-24.537358zM619.500679 160.053132v196.878491c0 161.714717-131.57434 293.482264-293.289056 293.482264-4.057358 0-8.114717 0-12.172076-0.386415 155.918491-6.375849 280.923774-135.438491 280.923774-293.095849V160.053132c0-62.21283-50.620377-112.833208-112.833208-112.833207h24.537359c62.21283 0 112.833208 50.620377 112.833207 112.833207z" fill="#D0D0F7" /><path d="M600.759547 525.022189c-48.688302 79.794717-127.323774 132.926792-216.58566 148.963019v81.533584c0 32.072453-25.889811 57.962264-57.962264 57.962265s-57.962264-25.889811-57.962265-57.962265v-81.340377c-89.455094-16.036226-167.897358-69.361509-216.778867-149.156226-16.809057-27.242264-8.307925-62.98566 19.127547-79.60151 27.242264-16.809057 62.98566-8.114717 79.601509 19.127547 38.061887 61.826415 103.752453 98.922264 175.818868 98.922265h0.193208c72.259623 0 137.756981-37.095849 175.818868-98.922265a57.633811 57.633811 0 0 1 79.601509-19.127547c27.435472 16.615849 35.936604 52.359245 19.127547 79.60151z" fill="#A2A2F9" /><path d="M220.256604 616.563925a296.380377 296.380377 0 0 1-62.232151-32.690717 14.529208 14.529208 0 0 1 16.441962-23.880453 266.587774 266.587774 0 0 0 56.126793 29.522113 14.471245 14.471245 0 1 1-10.355925 27.049057zM119.885283 552.670189a284.536755 284.536755 0 0 1-9.776302-9.911547 14.471245 14.471245 0 1 1 21.098264-19.842416c2.859472 3.033358 5.796226 5.989434 8.790944 8.887548a14.490566 14.490566 0 0 1-20.112906 20.866415z" fill="#FFFFFF" opacity=".3" /><path d="M600.759547 525.022189C555.065962 599.909434 483.018868 651.302642 400.557887 670.623396a20.808453 20.808453 0 0 0-16.384 20.132227v61.633207c0 31.164377-23.184906 59.082868-54.291321 60.995623a57.730415 57.730415 0 0 1-54.098113-29.251623 58.310038 58.310038 0 0 0 50.968151 1.004679c21.059623-9.583094 33.463547-31.879245 33.463547-55.025509v-62.348075c0-9.756981 6.897509-17.91034 16.384-20.132227 82.460981-19.320755 154.508075-70.713962 200.20166-145.581887 11.399245-18.354717 11.206038-40.766792 1.352453-58.348679 1.159245 0.386415 2.318491 0.966038 3.477736 1.738868 27.435472 16.615849 35.936604 52.359245 19.127547 79.601509z" fill="#7979F7" /><path d="M880.543396 510.686189m-110.746566 0a110.746566 110.746566 0 1 0 221.493132 0 110.746566 110.746566 0 1 0-221.493132 0Z" fill="#474646" /><path d="M799.647396 511.304453h-0.579622a7.245283 7.245283 0 0 1-6.64634-7.824906 89.397132 89.397132 0 0 1 48.746264-72.356226 7.225962 7.225962 0 1 1 6.491774 12.944905 74.829283 74.829283 0 0 0-40.786114 60.570566 7.264604 7.264604 0 0 1-7.225962 6.665661zM902.974792 440.204075a83.910038 83.910038 0 0 0-13.176754-3.149283 7.264604 7.264604 0 0 1 2.144604-14.336c5.023396 0.77283 10.085434 1.970717 15.456603 3.670944a7.264604 7.264604 0 0 1-4.424453 13.814339z" fill="#FFFFFF" opacity=".2" /><path d="M991.232 510.72483a110.707925 110.707925 0 0 1-110.707925 110.707925c-51.006792 0-93.70566-34.197736-106.457358-80.953963 19.320755 32.072453 54.484528 53.325283 94.671698 53.325283 60.860377 0 110.707925-49.65434 110.707925-110.707924 0-10.24-1.352453-20.093585-4.250566-29.560755 10.24 16.615849 16.036226 36.129811 16.036226 57.189434z" fill="#2D2C2C" /><path d="M880.543396 510.686189m-62.927698 0a62.927698 62.927698 0 1 0 125.855396 0 62.927698 62.927698 0 1 0-125.855396 0Z" fill="#1B1B1B" /><path d="M880.543396 510.686189m-27.686641 0a27.686642 27.686642 0 1 0 55.373283 0 27.686642 27.686642 0 1 0-55.373283 0Z" fill="#FFFFFF" /><path d="M410.450113 47.219925h24.537359v57.962264h-24.537359z" fill="#D0D0F7" /><path d="M361.162868 76.201057a55.836981 55.836981 0 0 0 55.79834 55.81766h30.352905a43.819472 43.819472 0 0 0 43.76151-43.761509V64.144906a43.819472 43.819472 0 0 0-43.76151-43.742189h-30.333585a55.836981 55.836981 0 0 0-55.836981 55.79834z" fill="#474646" /><path d="M491.01766 64.222189v23.957736c0 24.150943-19.513962 43.858113-43.664905 43.858113h-30.333585c-21.446038 0-39.993962-11.978868-49.267925-29.560755 9.273962 6.955472 20.866415 11.206038 33.618113 11.206038h30.333585c24.150943 0 43.664906-19.513962 43.664906-43.664906v-24.150943c0-6.569057-1.352453-12.751698-4.057358-18.16151 11.978868 7.728302 19.70717 21.25283 19.707169 36.516227z" fill="#2D2C2C" /><path d="M429.384453 65.536h-21.446038a12.558491 12.558491 0 1 1 0-25.136302h21.446038a12.558491 12.558491 0 1 1 0 25.116981z" fill="#FFFFFF" opacity=".2" /><path d="M217.223245 47.219925h24.537359v57.962264h-24.537359z" fill="#D0D0F7" /><path d="M291.047849 76.201057a55.836981 55.836981 0 0 1-55.79834 55.81766h-30.372226A43.819472 43.819472 0 0 1 161.135094 88.257208V64.144906a43.819472 43.819472 0 0 1 43.742189-43.742189h30.372226a55.836981 55.836981 0 0 1 55.79834 55.79834z" fill="#474646" /><path d="M161.193057 64.222189v23.957736c0 24.150943 19.513962 43.858113 43.664905 43.858113h30.333585c21.446038 0 39.993962-11.978868 49.267925-29.560755-9.273962 6.955472-20.866415 11.206038-33.618114 11.206038h-30.333584c-24.150943 0-43.664906-19.513962-43.664906-43.664906v-24.150943c0-6.569057 1.352453-12.751698 4.057358-18.16151-11.978868 7.728302-19.70717 21.25283-19.707169 36.516227z" fill="#2D2C2C" /><path d="M222.826264 65.536h21.446038a12.558491 12.558491 0 1 0 0-25.136302h-21.446038a12.558491 12.558491 0 1 0 0 25.116981z" fill="#FFFFFF" opacity=".2" /></svg>