<?xml version="1.0" standalone="no"?><!DOCTYPE svg PUBLIC "-//W3C//DTD SVG 1.1//EN" "http://www.w3.org/Graphics/SVG/1.1/DTD/svg11.dtd"><svg class="icon" width="200px" height="200.00px" viewBox="0 0 1024 1024" version="1.1" xmlns="http://www.w3.org/2000/svg"><path d="M586.674717 280.402113c-5.989434 9.660377-16.422642 15.263396-27.821887 15.263396h-83.658868c-12.944906 0-24.923774-7.728302-30.333585-19.707169l-16.422641-36.709434-58.348679-130.221887c-4.636981-10.24-3.670943-22.218868 2.31849-31.686038 6.182642-9.46717 16.615849-15.263396 28.015095-15.263396h83.658867c7.728302 0 15.070189 2.704906 20.866416 7.535094 4.057358 3.091321 7.341887 7.341887 9.467169 12.172076l22.025661 49.267924 52.74566 117.663396c4.636981 10.433208 3.670943 22.218868-2.511698 31.686038z" fill="#FC6559" /><path d="M586.674717 280.402113c-5.989434 9.660377-16.422642 15.263396-27.821887 15.263396h-83.658868c-12.944906 0-24.923774-7.728302-30.333585-19.707169l-16.422641-36.709434 74.191698-165.385661a18.161509 18.161509 0 0 1 2.318491-4.250566c4.057358 3.091321 7.341887 7.341887 9.467169 12.172076l22.025661 49.267924 52.74566 117.663396c4.636981 10.433208 3.670943 22.218868-2.511698 31.686038z" fill="#F05543" /><path d="M674.371623 408.691925H349.647698v-116.890567a55.199396 55.199396 0 0 1 55.141434-55.160754h214.421736a55.199396 55.199396 0 0 1 55.160755 55.160754v116.890567z m-295.742793-28.981133h266.761661v-87.909434c0-14.451925-11.747019-26.179623-26.179623-26.179622H404.789132c-14.432604 0-26.160302 11.727698-26.160302 26.179622v87.909434z" fill="#E4E3FF" /><path d="M837.11034 636.908679c0 179.470491-145.543245 325.013736-325.013736 325.013736-179.663698 0-325.206943-145.543245-325.206944-325.013736s145.543245-325.013736 325.206944-325.013736c179.470491 0 325.013736 145.543245 325.013736 325.013736z" fill="#F9B938" /><path d="M241.393509 716.568151a14.490566 14.490566 0 0 1-14.08483-11.090113 292.400302 292.400302 0 0 1-8.114717-68.569359c0-138.626415 98.477887-259.245887 234.167547-286.835924 7.805585-1.507019 15.495245 3.477736 17.079548 11.302641s-3.477736 15.495245-11.302642 17.098868c-122.242415 24.846491-210.982642 133.545057-210.982641 258.434415 0 20.905057 2.473057 41.694189 7.322566 61.768453a14.490566 14.490566 0 0 1-14.104151 17.891019zM609.78234 391.863547a262.936151 262.936151 0 0 0-49.306566-14.278038 14.490566 14.490566 0 0 1-11.592453-16.886339 14.393962 14.393962 0 0 1 16.886339-11.592453c18.702491 3.477736 37.134491 8.790943 54.77434 15.843019a14.490566 14.490566 0 1 1-10.76166 26.913811z" fill="#FFFFFF" opacity=".3" /><path d="M837.071698 636.870038c0 179.489811-145.485283 324.975094-324.975094 324.975094-96.217358 0-182.77434-41.73283-242.282264-108.196226 57.382642 50.813585 132.926792 81.726792 215.619622 81.726792 179.489811 0 325.168302-145.678491 325.168302-324.975094 0-82.886038-31.106415-158.623396-82.306415-216.199246 66.849811 59.507925 108.775849 146.258113 108.775849 242.66868z" fill="#E5A320" /><path d="M743.984302 636.908679c0 128.057962-103.849057 231.92634-231.907019 231.92634-128.212528 0-232.061585-103.868377-232.061585-231.92634s103.849057-231.907019 232.042264-231.907019c128.077283 0 231.92634 103.849057 231.92634 231.907019z" fill="#F7F363" /><path d="M690.42717 488.679849a231.655849 231.655849 0 0 0-147.610566-52.938868c-128.096604 0-232.042264 103.94566-232.042264 231.849057 0 56.416604 20.286792 108.196226 53.711698 148.383396a231.849057 231.849057 0 0 1-84.431698-179.103396c0-128.096604 103.752453-231.849057 232.042264-231.849057 71.68 0 135.824906 32.652075 178.330566 83.658868z" fill="#EDD318" /><path d="M540.227623 510.319094l27.377509 55.469887 61.227472 8.887547c25.831849 3.767547 36.129811 35.511547 17.446641 53.711698l-44.30249 43.181887 10.471849 60.976302c4.405132 25.735245-22.605283 45.345811-45.693585 33.193057l-54.755019-28.787925-54.755019 28.787925c-23.107623 12.152755-50.098717-7.457811-45.693585-33.193057l10.471849-60.976302-44.30249-43.162566c-18.702491-18.219472-8.385208-49.963472 17.446641-53.711698l61.227472-8.887547 27.377509-55.489208c11.534491-23.397434 44.920755-23.397434 56.455246 0z" fill="#F9B938" /><path d="M518.91683 545.811321a8.114717 8.114717 0 0 1-7.457811 8.597736 7.67034 7.67034 0 0 0-4.385811 1.79683 7.902189 7.902189 0 0 0-1.796831 2.260528l-16.40332 33.308981a23.629283 23.629283 0 0 1-17.852378 12.983547l-36.709434 5.351849a6.955472 6.955472 0 0 0-6.008754 5.023397 7.399849 7.399849 0 0 0 1.777509 7.651019l0.173887 0.154566 26.140981 25.503396c3.245887 3.091321 3.245887 8.288604 0.173887 11.53449a8.249962 8.249962 0 0 1-11.534491 0.154566l-25.020377-24.672603a3.052679 3.052679 0 0 1-1.139925-0.966038 23.146264 23.146264 0 0 1-5.989434-24.382793 23.571321 23.571321 0 0 1 19.146868-16.229434l36.554868-5.216603a7.573736 7.573736 0 0 0 5.680302-4.211925l16.403321-33.115773c1.139925-2.453736 2.762868-4.385811 4.540377-6.182642 0.328453-0.483019 0.656906-0.811472 1.139925-1.29449 3.902792-3.245887 8.597736-5.216604 13.968905-5.525736a7.998792 7.998792 0 0 1 8.597736 7.477132z" fill="#FFFFFF" opacity=".4" /><path d="M646.240604 628.465509l-44.341132 43.046642 9.100075 52.436528 1.468378 8.617057c4.366491 25.696604-22.605283 45.249208-45.674265 33.115773l-21.890415-11.515169-32.961207-17.214793-54.735698 28.749283c-23.04966 12.172075-50.021434-7.477132-45.635623-33.135094l1.468377-8.926189a31.531472 31.531472 0 0 0 44.167246 16.88634l46.09932-24.344151a15.823698 15.823698 0 0 1 16.577208 1.101283l26.469434 18.895698c14.336 10.24 35.550189 1.294491 36.226415-16.287396a14.200755 14.200755 0 0 0-0.154566-2.898113l-9.003472-52.745661a15.823698 15.823698 0 0 1 4.540378-13.968905l38.255094-37.404982c11.51517-11.206038 11.998189-27.609358 4.694943-39.298415l7.960151 1.139925c25.812528 3.728906 36.052528 35.395623 17.38868 53.750339z" fill="#E5A320" /><path d="M664.672604 109.104302l-74.771321 166.931321c-5.409811 11.978868-17.388679 19.70717-30.526792 19.707169h-83.465661c-11.399245 0-21.832453-5.603019-28.015094-15.263396a33.038491 33.038491 0 0 1-2.511698-31.686038l74.964528-166.93132c5.216604-11.978868 17.195472-19.70717 30.333585-19.70717h83.658868c11.206038 0 21.639245 5.796226 27.821887 15.263396s7.148679 21.446038 2.511698 31.686038z" fill="#FC6559" /></svg>