<?xml version="1.0" standalone="no"?><!DOCTYPE svg PUBLIC "-//W3C//DTD SVG 1.1//EN" "http://www.w3.org/Graphics/SVG/1.1/DTD/svg11.dtd"><svg class="icon" width="200px" height="200.00px" viewBox="0 0 1024 1024" version="1.1" xmlns="http://www.w3.org/2000/svg"><path d="M863.309283 452.665962l-155.532075 438.581132a104.757132 104.757132 0 0 1-45.017359 55.064151 104.660528 104.660528 0 0 1-90.034717 9.080755l-25.696604-9.080755-290.390943-102.979622-148.769811-52.745661a106.070943 106.070943 0 0 1-64.338114-135.245283l155.725283-438.387924a105.781132 105.781132 0 0 1 135.052076-64.338113l165.965283 58.928301 298.892075 106.070944a105.529962 105.529962 0 0 1 64.144906 135.052075z" fill="#5BC658" /><path d="M126.937358 639.47834a14.490566 14.490566 0 0 1-13.659773-19.340076L162.873962 480.700377a14.490566 14.490566 0 1 1 27.300227 9.699019l-49.557736 139.457208a14.490566 14.490566 0 0 1-13.640453 9.660377zM196.144302 444.705811a14.490566 14.490566 0 0 1-13.659774-19.340075l5.023397-14.046189a14.490566 14.490566 0 0 1 27.280905 9.699019l-5.004075 14.046189a14.490566 14.490566 0 0 1-13.640453 9.660377z" fill="#FFFFFF" opacity=".3" /><path d="M707.738566 523.978868a24.846491 24.846491 0 0 1-31.724679 15.128151l-385.835472-136.94551a24.846491 24.846491 0 1 1 16.615849-46.85283l385.835472 136.94551c12.944906 4.59834 19.70717 18.799094 15.10883 31.744zM669.811925 630.841962a24.846491 24.846491 0 0 1-31.72468 15.10883l-385.835471-136.926188a24.846491 24.846491 0 1 1 16.615849-46.85283l385.835471 136.945509c12.944906 4.579019 19.70717 18.799094 15.108831 31.724679zM631.904604 737.705057a24.846491 24.846491 0 0 1-31.744 15.10883l-385.835472-136.94551a24.846491 24.846491 0 1 1 16.615849-46.85283l385.835472 136.94551c12.944906 4.59834 19.70717 18.799094 15.128151 31.744z" fill="#FFFFFF" /><path d="M863.309283 452.665962l-155.532075 438.581132a104.757132 104.757132 0 0 1-45.017359 55.064151h-115.731321l-290.390943-102.979622c-2.511698-10.24-3.864151-20.866415-3.864151-31.879246v-465.243773c0-74.191698 60.473962-134.66566 134.858868-134.665661h112.64l298.892075 106.070944a105.529962 105.529962 0 0 1 64.144906 135.052075z" fill="#49A247" /><path d="M720.528906 289.792a92.836226 92.836226 0 0 1-92.16 83.46566c-19.70717 0-38.448302-6.182642-54.484529-17.775094-8.501132-6.375849-10.433208-18.354717-4.057358-27.049057 6.182642-8.69434 18.354717-10.433208 26.855849-4.250566 9.273962 6.762264 20.286792 10.433208 31.686038 10.433208 29.753962 0 53.904906-24.150943 53.904905-53.904906v-4.636981z" fill="#49A247" /><path d="M986.575698 346.285887v465.263094a105.781132 105.781132 0 0 1-105.781132 105.781132H387.57434a105.781132 105.781132 0 0 1-105.781132-105.781132v-465.243773a105.781132 105.781132 0 0 1 105.781132-105.781133h493.258868a105.781132 105.781132 0 0 1 105.761811 105.761812z" fill="#F9B938" /><path d="M339.736151 531.784453a14.490566 14.490566 0 0 1-14.490566-14.490566v-22.064302a14.490566 14.490566 0 0 1 28.981132 0v22.064302a14.490566 14.490566 0 0 1-14.490566 14.490566zM339.736151 437.421887a14.490566 14.490566 0 0 1-14.490566-14.490566v-76.626113a62.367396 62.367396 0 0 1 62.309434-62.309434h20.132226a14.490566 14.490566 0 0 1 0 28.981132h-20.132226c-18.374038 0-33.328302 14.934943-33.328302 33.328302v76.626113a14.490566 14.490566 0 0 1-14.490566 14.490566zM873.104906 312.976906h-81.533585a14.490566 14.490566 0 0 1 0-28.981132h81.533585a14.490566 14.490566 0 0 1 0 28.981132z" fill="#FFFFFF" opacity=".3" /><path d="M986.575698 346.208604v465.436981c0 58.348679-47.335849 105.684528-105.684528 105.684528h-493.258868c-36.902642 0-69.168302-18.741132-88.295849-47.142641 12.944906 5.603019 27.242264 8.69434 42.119245 8.694339h493.258868c58.348679 0 105.877736-47.335849 105.877736-105.684528v-465.243774c0-21.639245-6.569057-41.926038-17.775094-58.735094a105.684528 105.684528 0 0 1 63.75849 96.990189zM672.111094 349.70566a54.948226 54.948226 0 1 1-109.877132 0.038642 54.948226 54.948226 0 0 1 109.877132-0.038642z" fill="#ECB021" /><path d="M863.73434 494.514717c0 13.717736-11.128755 24.865811-24.846491 24.865811h-409.406792a24.846491 24.846491 0 1 1 0-49.712302h409.406792c13.717736 0 24.846491 11.128755 24.846491 24.846491zM863.73434 607.908226c0 13.717736-11.128755 24.846491-24.846491 24.846491h-409.406792a24.846491 24.846491 0 0 1 0-49.712302h409.406792c13.717736 0 24.846491 11.128755 24.846491 24.865811zM863.73434 721.282415c0 13.717736-11.128755 24.865811-24.846491 24.865811h-409.406792a24.846491 24.846491 0 1 1 0-49.712301h409.406792c13.717736 0 24.846491 11.128755 24.846491 24.84649z" fill="#FFFFFF" /><path d="M863.695698 494.592c0 13.717736-11.01283 24.730566-24.730566 24.730566h-409.406792c-10.626415 0-19.70717-6.569057-23.184906-15.843019 3.670943 2.318491 8.114717 3.670943 12.944906 3.670944h409.406792c13.717736 0 24.923774-11.206038 24.923774-24.923774 0-3.091321-0.579623-6.182642-1.738868-8.887547 7.148679 4.443774 11.78566 12.365283 11.78566 21.25283zM863.695698 608.00483c0 13.717736-11.01283 24.730566-24.730566 24.730566h-409.406792c-10.626415 0-19.70717-6.569057-23.184906-15.843019 3.670943 2.318491 8.114717 3.670943 12.944906 3.670944h409.406792c13.717736 0 24.923774-11.206038 24.923774-24.923774 0-3.091321-0.579623-6.182642-1.738868-8.887547 7.148679 4.250566 11.78566 12.172075 11.78566 21.25283zM863.695698 721.224453c0 13.717736-11.01283 24.923774-24.730566 24.923773h-409.406792c-10.626415 0-19.70717-6.569057-23.184906-16.036226 3.670943 2.318491 8.114717 3.670943 12.944906 3.670943h409.406792c13.717736 0 24.923774-11.01283 24.923774-24.730566 0-3.091321-0.579623-6.182642-1.738868-8.887547 7.148679 4.250566 11.78566 12.172075 11.78566 21.059623z" fill="#E4E3FF" /><path d="M720.915321 154.933132v125.778113c0 3.091321-0.193208 5.989434-0.386415 9.080755a92.836226 92.836226 0 0 1-92.16 83.46566c-19.70717 0-38.448302-6.182642-54.484529-17.775094-8.501132-6.375849-10.433208-18.354717-4.057358-27.049057 6.182642-8.69434 18.354717-10.433208 26.855849-4.250566 9.273962 6.762264 20.286792 10.433208 31.686038 10.433208 29.753962 0 53.904906-24.150943 53.904905-53.904906v-125.778113c0-29.753962-24.150943-53.904906-53.904905-53.904906-29.560755 0-53.711698 24.150943-53.711698 53.904906v83.079245l-38.64151-13.717735v-69.36151c0-51.006792 41.539623-92.546415 92.353208-92.546415 51.006792 0 92.546415 41.539623 92.546415 92.546415z" fill="#E4E3FF" /><path d="M660.054943 315.488604a55.064151 55.064151 0 0 0-79.987924 48.881509c0 12.944906 4.443774 24.923774 11.978868 34.197736a54.928906 54.928906 0 0 1-29.94717-48.881509c0-30.140377 24.730566-54.870943 55.064151-54.870944 17.581887 0 33.038491 8.114717 42.892075 20.673208z" fill="#E5A320" /></svg>