<?xml version="1.0" standalone="no"?><!DOCTYPE svg PUBLIC "-//W3C//DTD SVG 1.1//EN" "http://www.w3.org/Graphics/SVG/1.1/DTD/svg11.dtd"><svg class="icon" width="200px" height="200.00px" viewBox="0 0 1024 1024" version="1.1" xmlns="http://www.w3.org/2000/svg"><path d="M992.256 684.244528v69.168302c0 32.458868-26.083019 58.541887-58.541887 58.541887H123.40166c-32.458868 0-58.541887-26.083019-58.541886-58.541887v-69.168302c0-0.386415 0-0.77283 0.193207-1.159245 0.386415-12.944906 11.01283-23.184906 24.150944-23.184906h878.707924c13.524528 0 24.344151 10.819623 24.344151 24.344151z" fill="#F9B938" /><path d="M992.256 684.244528v69.168302c0 32.458868-26.083019 58.541887-58.541887 58.541887H123.40166c-24.344151 0-45.017358-14.490566-53.711698-35.550189 9.46717 7.148679 21.25283 11.206038 34.197736 11.206038h810.50566c32.26566 0 58.541887-26.083019 58.541887-58.348679v-68.781887c11.01283 2.125283 19.320755 11.978868 19.320755 23.764528z" fill="#ECB021" /><path d="M597.532981 659.900377H175.954113v-143.166792c0-16.229434 13.138113-29.367547 29.367547-29.367547h177.171321c6.762264 0 13.524528 2.511698 18.741132 6.955471l13.524529 11.399246z" fill="#C2C2EF" /><path d="M426.293132 515.458415l-11.53449-9.73766-13.524529-11.399246c-5.216604-4.443774-11.978868-6.955472-18.741132-6.955471h-177.171321c-16.229434 0-29.367547 13.138113-29.367547 29.367547l12.53917 52.320604zM175.954113 643.052679v16.847698h421.578868l-19.97766-16.847698z" fill="#A2A2F9" /><path d="M260.385811 582.230943c0 29.367547-10.24 56.416604-27.628679 77.669434h-56.803019v-143.166792c0-16.229434 13.138113-29.367547 29.367547-29.367547h10.433208c17.775094 14.683774 31.49283 34.584151 38.641509 57.189434 3.864151 11.978868 5.989434 24.537358 5.989434 37.675471z" fill="#A2A2F9" /><path d="M591.079849 712.085736a14.490566 14.490566 0 0 1-14.490566 14.490566h-160.961208a14.490566 14.490566 0 0 1 0-28.981132h160.941887a14.490566 14.490566 0 0 1 14.490566 14.490566zM376.696755 712.085736a14.490566 14.490566 0 0 1-14.490566 14.490566h-19.146868a14.490566 14.490566 0 0 1 0-28.981132h19.146868a14.490566 14.490566 0 0 1 14.490566 14.490566z" fill="#FFFFFF" opacity=".3" /><path d="M930.487547 381.468981l5.89283 24.479396a69.284226 69.284226 0 0 1-51.103396 83.600906l-237.336151 57.208755a52.552453 52.552453 0 0 1-63.372075-38.757434l-9.834264-40.766793z" fill="#C2C2EF" /><path d="M653.968906 473.59034a41.926038 41.926038 0 0 0-30.913208 50.581735c2.29917 9.583094 7.052075 17.775094 13.369962 24.208906a52.99683 52.99683 0 0 1-51.856905-40.380377l-9.834264-40.766793 355.753056-85.745509 5.796227 24.035019z" fill="#A2A2F9" /><path d="M411.609358 257.352453l12.094793 50.137358L185.942943 364.775849l-12.094792-50.137358a30.623396 30.623396 0 0 1 22.605283-36.941283l178.214641-42.969359a30.623396 30.623396 0 0 1 36.941283 22.605283z" fill="#FC6559" /><path d="M411.648 257.352453l12.094792 50.137358-237.799849 57.344-3.34249-13.910943 170.737509-41.153208a51.586415 51.586415 0 0 0 38.061887-62.251471 28.208302 28.208302 0 0 0-7.438491-13.505208 30.372226 30.372226 0 0 1 27.686642 23.339472z" fill="#F05543" /><path d="M964.047698 373.373585l-549.289056 132.34717-160.362265 38.834717-78.442264 18.934339-66.076981 15.843019c-13.138113 3.091321-26.276226-4.830189-29.367547-17.968302l-18.741132-77.669434-6.569057-27.242264a58.541887 58.541887 0 0 1 43.085283-70.520755l704.048302-169.829433c77.669434-18.741132 155.918491 29.17434 174.659623 106.843773l5.023396 21.059623c3.284528 13.138113-4.830189 26.276226-17.968302 29.367547z" fill="#F9B938" /><path d="M976.992604 322.965736l5.081358 21.059622c3.110642 12.944906-4.830189 26.179623-17.968302 29.367548L109.877132 579.313509a24.344151 24.344151 0 0 1-29.367547-17.968301l-2.048-8.44317 851.040604-205.186415a24.344151 24.344151 0 0 0 17.968302-29.367548l-5.081359-21.040301a142.703094 142.703094 0 0 0-38.313057-68.260227 144.13283 144.13283 0 0 1 72.916529 93.898868z" fill="#ECB021" /><path d="M738.246038 279.938415a14.490566 14.490566 0 0 1-10.665057 17.485283l-156.498113 37.714113a14.490566 14.490566 0 0 1-6.781585-28.16966l156.478792-37.733434a14.490566 14.490566 0 0 1 17.485283 10.703698zM529.852377 330.191698a14.490566 14.490566 0 0 1-10.684377 17.465962l-18.625208 4.482415a14.490566 14.490566 0 0 1-6.781584-28.16966l18.605886-4.482415a14.490566 14.490566 0 0 1 17.485283 10.684377z" fill="#FFFFFF" opacity=".3" /><path d="M285.058415 282.701283a7.399849 7.399849 0 0 1-5.467773 8.926189l-42.254491 10.182037a7.399849 7.399849 0 0 1-3.477736-14.374641l42.273811-10.182038a7.399849 7.399849 0 0 1 8.926189 5.448453zM216.295849 299.278491a7.399849 7.399849 0 0 1-5.448453 8.926188l-9.505811 2.279849a7.399849 7.399849 0 0 1-3.458415-14.374641l9.505811-2.279849a7.399849 7.399849 0 0 1 8.906868 5.448453z" fill="#FFFFFF" opacity=".4" /><path d="M254.396377 544.555472l-78.442264 18.934339-66.076981 15.843019c-13.138113 3.091321-26.276226-4.830189-29.367547-17.968302l-18.741132-77.669434a121.08317 121.08317 0 0 1 74.578113-25.310188c30.140377 0 57.962264 10.819623 79.408302 28.981132 17.775094 14.683774 31.49283 34.584151 38.641509 57.189434zM232.757132 659.900377a123.150491 123.150491 0 0 1-96.410566 46.176604 120.368302 120.368302 0 0 1-71.293585-22.991698c0.386415-12.944906 11.01283-23.184906 24.150944-23.184906z" fill="#ECB021" /><path d="M241.007094 582.211623a104.621887 104.621887 0 0 1-209.263094 0 104.621887 104.621887 0 0 1 209.263094 0z" fill="#474646" /><path d="M55.006189 585.728h-0.077283a4.830189 4.830189 0 0 1-4.752906-4.907472 85.745509 85.745509 0 0 1 42.892075-73.148377 4.772226 4.772226 0 0 1 6.588378 1.738868 4.830189 4.830189 0 0 1-1.738868 6.588377 76.162415 76.162415 0 0 0-38.061887 64.975698 4.830189 4.830189 0 0 1-4.830189 4.752906zM121.508226 507.034566a4.830189 4.830189 0 0 1-0.869434-9.583094c5.042717-0.927396 10.201358-1.429736 15.302038-1.449057a4.830189 4.830189 0 0 1 0.038642 9.660377c-4.521057 0.019321-9.080755 0.463698-13.582491 1.294491a4.694943 4.694943 0 0 1-0.888755 0.077283z" fill="#FFFFFF" opacity=".4" /><path d="M241.065057 582.230943c0 57.769057-46.949434 104.525283-104.718491 104.525283-38.641509 0-72.646038-21.059623-90.61434-52.552452a104.641208 104.641208 0 0 0 182.581132-69.747925c0-18.93434-5.023396-36.709434-13.910943-51.97283a104.332075 104.332075 0 0 1 26.662642 69.747924z" fill="#2D2C2C" /><path d="M188.493283 582.211623a52.127396 52.127396 0 0 1-104.235472 0 52.108075 52.108075 0 0 1 104.235472 0z" fill="#FFFFFF" /><path d="M178.079396 550.931321a52.359245 52.359245 0 0 0-30.526792-9.853585 52.166038 52.166038 0 0 0-51.97283 52.166038c0 11.592453 3.864151 22.605283 10.433207 31.106415a51.586415 51.586415 0 0 1-21.832453-42.119246c0-28.787925 23.571321-52.166038 52.166038-52.166037 17.002264 0 32.26566 8.114717 41.73283 20.866415z" fill="#E4E3FF" /></svg>