<?xml version="1.0" standalone="no"?><!DOCTYPE svg PUBLIC "-//W3C//DTD SVG 1.1//EN" "http://www.w3.org/Graphics/SVG/1.1/DTD/svg11.dtd"><svg class="icon" width="200px" height="200.00px" viewBox="0 0 1024 1024" version="1.1" xmlns="http://www.w3.org/2000/svg"><path d="M800.51683 194.985057V719.311698a61.44 61.44 0 0 1-27.648 51.315925l-234.553962 154.546717a61.44 61.44 0 0 1-69.013736-0.966038l-219.561057-153.445434a61.44 61.44 0 0 1-26.256905-50.369208V194.985057z" fill="#FC6559" /><path d="M800.420226 194.985057v524.365283a61.633208 61.633208 0 0 1-27.802566 51.489811l-38.641509 25.387472c6.182642-9.46717 9.46717-20.866415 9.46717-32.458868V288.188377a48.572377 48.572377 0 0 0-48.591698-48.572377H223.502491v-44.630943h576.917735z" fill="#F05543" /><path d="M688.301887 515.381132c0 97.376604-78.828679 176.205283-176.205283 176.205283s-176.398491-78.828679-176.398491-176.205283 79.021887-176.398491 176.398491-176.39849 176.205283 79.021887 176.205283 176.39849z" fill="#E4E3FF" /><path d="M688.359849 515.303849c0 97.376604-78.828679 176.205283-176.205283 176.205283-60.280755 0-113.41283-30.140377-145.292075-76.316981a176.321208 176.321208 0 0 0 112.253584 40.18717c97.376604 0 176.205283-78.828679 176.205283-176.205283 0-37.095849-11.399245-71.486792-31.106415-99.888302a175.818868 175.818868 0 0 1 64.144906 136.018113z" fill="#D0D0F7" /><path d="M260.115321 642.511698V440.474566a12.906264 12.906264 0 0 1 25.793207 0v202.037132a12.906264 12.906264 0 0 1-25.793207 0zM260.115321 394.201358v-15.746415a12.906264 12.906264 0 0 1 25.793207 0v15.746415a12.906264 12.906264 0 0 1-25.793207 0z" fill="#FFFFFF" opacity=".2" /><path d="M180.050113 106.708528h663.919095v88.257208H180.050113z" fill="#474646" /><path d="M832.454038 106.708528h11.51517v88.257208h-11.51517zM180.050113 106.708528h11.51517v88.257208h-11.51517z" fill="#2D2C2C" /><path d="M180.050113 102.805736v96.082113a14.142792 14.142792 0 0 1-14.142792 14.123472H62.444679a14.142792 14.142792 0 0 1-14.142792-14.123472V102.786415c0-7.805585 6.337208-14.123472 14.142792-14.123472h103.462642c7.805585 0 14.142792 6.317887 14.142792 14.123472zM975.698113 102.805736v96.082113a14.142792 14.142792 0 0 1-14.142792 14.123472h-103.462642a14.142792 14.142792 0 0 1-14.142792-14.123472V102.786415c0-7.805585 6.337208-14.123472 14.142792-14.123472h103.462642c7.805585 0 14.142792 6.317887 14.142792 14.123472z" fill="#474646" /><path d="M48.301887 102.844377v95.966189c0 7.921509 6.279245 14.200755 14.200755 14.200755h103.327396a14.104151 14.104151 0 0 0 14.220075-14.200755c-0.77283 0.154566-1.352453 0.154566-2.105962 0.154566H74.462189a14.297358 14.297358 0 0 1-14.200755-14.220075V88.952755a14.007547 14.007547 0 0 0-11.959547 13.910943z" fill="#2D2C2C" /><path d="M975.698113 102.844377v95.966189a14.104151 14.104151 0 0 1-14.200755 14.200755h-103.327396a14.104151 14.104151 0 0 1-14.220075-14.200755c0.77283 0.154566 1.352453 0.154566 2.105962 0.154566h103.481962a14.297358 14.297358 0 0 0 14.200755-14.220075V88.952755c6.878189 1.043321 11.959547 6.878189 11.959547 13.910943z" fill="#2D2C2C" /><path d="M442.986264 148.634566h-134.144a10.008151 10.008151 0 0 1 0-19.996981h134.144a10.008151 10.008151 0 0 1 0 19.996981zM272.982943 148.634566h-12.210717a10.008151 10.008151 0 0 1 0-19.996981h12.210717a10.008151 10.008151 0 0 1 0 19.996981z" fill="#FFFFFF" opacity=".2" /><path d="M150.953057 126.72483H142.393962a10.008151 10.008151 0 0 1 0-20.016302h8.559095a10.008151 10.008151 0 0 1 0 20.016302zM106.534642 126.72483H103.94566a10.008151 10.008151 0 0 1 0-20.016302h2.569661a10.008151 10.008151 0 0 1 0 20.016302z" fill="#FFFFFF" opacity=".2" /><path d="M873.568604 126.72483h8.559094a10.008151 10.008151 0 0 0 0-20.016302h-8.559094a10.008151 10.008151 0 0 0 0 20.016302zM917.987019 126.72483h2.550339a10.008151 10.008151 0 0 0 0-20.016302h-2.550339a10.008151 10.008151 0 0 0 0 20.016302z" fill="#FFFFFF" opacity=".2" /><path d="M530.857057 418.835321l18.277434 37.018566 40.863396 5.950792a21.020981 21.020981 0 0 1 11.650415 35.84l-29.560755 28.826566 6.955472 40.70883a21.020981 21.020981 0 0 1-30.488151 22.160906l-36.554868-19.224151-36.554868 19.224151a21.020981 21.020981 0 0 1-30.488151-22.160906l6.955472-40.70883-29.560755-28.826566a21.020981 21.020981 0 0 1 11.650415-35.84l40.863396-5.950792 18.277434-37.018566a21.020981 21.020981 0 0 1 37.714114 0z" fill="#F9B938" /><path d="M516.636981 442.522566a5.409811 5.409811 0 0 1-5.004075 5.738264 5.12 5.12 0 0 0-2.917434 1.197887 5.274566 5.274566 0 0 0-1.197887 1.507019l-10.954868 22.218868a15.765736 15.765736 0 0 1-11.920906 8.694339l-24.498717 3.57434a4.636981 4.636981 0 0 0-4.018717 3.361811 4.946113 4.946113 0 0 0 1.197887 5.081359l0.115925 0.115924 17.446641 17.002265a5.467774 5.467774 0 0 1 0.115925 7.728301 5.506415 5.506415 0 0 1-7.708981 0.096604L450.598642 502.339623a15.456604 15.456604 0 0 1-4.772227-16.905661 15.727094 15.727094 0 0 1 12.79034-10.838943l24.402113-3.477736a5.062038 5.062038 0 0 0 3.786868-2.82083l10.954868-22.122264a14.509887 14.509887 0 0 1 3.033358-4.115321c0.212528-0.328453 0.425057-0.540981 0.77283-0.869434a15.823698 15.823698 0 0 1 9.312604-3.670943 5.332528 5.332528 0 0 1 5.738264 4.984754z" fill="#FFFFFF" opacity=".4" /><path d="M601.60966 497.702642l-29.599396 28.729962 6.086038 35.009207 0.966038 5.738264c2.898113 17.15683-15.070189 30.21766-30.488151 22.122265l-14.606491-7.689661-22.02566-11.495849-36.516227 19.18551c-15.398642 8.114717-33.386264-4.984755-30.46883-22.122265l0.966038-5.950792a21.059623 21.059623 0 0 0 29.502792 11.264l30.777963-16.248755a10.549132 10.549132 0 0 1 11.051471 0.734189l17.678491 12.616453c9.563774 6.820226 23.725887 0.869434 24.170264-10.877585a9.46717 9.46717 0 0 0-0.096604-1.932076l-5.989434-35.202415a10.549132 10.549132 0 0 1 3.014038-9.331924l25.522717-24.962415c7.708981-7.477132 8.018113-18.432 3.149283-26.237585l5.313208 0.77283c17.234113 2.473057 24.05434 23.629283 11.592452 35.878642z" fill="#E5A320" /></svg>