<?xml version="1.0" standalone="no"?><!DOCTYPE svg PUBLIC "-//W3C//DTD SVG 1.1//EN" "http://www.w3.org/Graphics/SVG/1.1/DTD/svg11.dtd"><svg class="icon" width="200px" height="200.00px" viewBox="0 0 1024 1024" version="1.1" xmlns="http://www.w3.org/2000/svg"><path d="M746.959698 78.693434l-123.227773 63.719849-20.228831 78.944604h-33.231698l24.092981-93.879547a16.403321 16.403321 0 0 1 8.17268-10.259321l129.661585-67.081661a15.958943 15.958943 0 0 1 21.658566 6.89751 16.190792 16.190792 0 0 1-6.89751 21.658566z" fill="#E4E3FF" /><path d="M746.959698 78.693434l-123.227773 63.719849-20.228831 78.944604h-33.231698l3.072-11.727698h2.840151c12.481208 0 23.378113-8.44317 26.488755-20.537963l13.331321-52.127396a14.451925 14.451925 0 0 1 7.380528-9.254641l117.470189-60.725132a15.843019 15.843019 0 0 0 8.501132-15.070189 14.065509 14.065509 0 0 1 4.501736 5.12 16.190792 16.190792 0 0 1-6.89751 21.658566z" fill="#C2C2EF" /><path d="M760.522868 377.798038l-50.620377 536.382792a67.893132 67.893132 0 0 1-67.584 61.517283H381.584906a67.893132 67.893132 0 0 1-67.584-61.517283l-50.620378-536.382792z" fill="#F05543" /><path d="M347.155321 856.276528l-9.177359-97.337962a12.056151 12.056151 0 0 1 10.858264-13.118792c6.530415-0.579623 12.500528 4.250566 13.138114 10.877584l9.158037 97.318642a12.056151 12.056151 0 0 1-23.957735 2.260528zM332.143094 697.131472l-1.333132-14.104151a12.056151 12.056151 0 0 1 10.877585-13.138113 12.152755 12.152755 0 0 1 13.099472 10.877584l1.352453 14.104151a12.056151 12.056151 0 0 1-23.996378 2.260529z" fill="#FFFFFF" opacity=".3" /><path d="M760.600151 377.798038L709.902491 914.258113c0 0.173887 0 0.483019-0.173887 0.637585a58.735094 58.735094 0 0 1-4.482415 18.451321c-0.811472 1.932075-1.777509 3.690264-2.569661 5.622339-0.966038 1.758189-2.086642 3.535698-3.207245 5.293887-0.966038 1.758189-2.260528 3.381132-3.535698 4.984755a35.163774 35.163774 0 0 1-3.864151 4.636981c-4.153962 4.656302-9.138717 8.69434-14.58717 12.03683-1.294491 0.656906-2.56966 1.449057-3.864151 2.086642a14.220075 14.220075 0 0 1-2.704905 1.29449 50.388528 50.388528 0 0 1-5.139321 2.241208c-1.932075 0.811472-4.018717 1.449057-6.259925 1.932075a60.66717 60.66717 0 0 1-10.76166 1.932076h-0.637585a50.42717 50.42717 0 0 0 2.086641-10.916227l4.636982-49.596377 30.816603-326.057056c8.192-86.170566-59.507925-160.632755-146.006943-160.632755H268.133434l-4.830189-50.388529h497.296906z" fill="#E24B40" /><path d="M807.375698 312.880302v43.916075c0 11.592453-9.409208 21.00166-21.00166 21.001661H237.548679c-11.592453 0-21.00166-9.389887-21.00166-21.001661v-43.916075c0-11.592453 9.409208-21.00166 21.00166-21.00166h548.825359c11.592453 0 21.00166 9.389887 21.00166 21.00166z" fill="#C2C2EF" /><path d="M807.452981 312.803019v43.993358c0 11.534491-9.46717 21.00166-21.020981 21.001661H237.490717c-10.587774 0-19.262792-7.863547-20.537962-18.122868 0.792151 0.309132 1.758189 0.309132 2.704905 0.309132h548.806038c11.553811 0 21.020981-9.46717 21.020981-21.00166v-43.974038c0-0.966038 0-1.932075-0.328453-2.898113 10.278642 1.294491 18.296755 10.124075 18.296755 20.711849z" fill="#A2A2F9" /><path d="M687.529057 235.326792l37.965283 56.55185H298.428377l37.965283-56.55185c5.834868-8.69434 15.61117-13.910943 26.083019-13.910943h298.969359c10.471849 0 20.248151 5.216604 26.083019 13.910943z" fill="#C2C2EF" /><path d="M725.455698 291.801358h-426.988679l10.587773-15.88166h315.64317c28.015094 0 44.688906-31.299623 29.039095-54.561811h7.68966c10.433208 0 20.22883 5.293887 26.160302 13.949585z" fill="#A2A2F9" /><path d="M624.13766 644.791547a112.176302 112.176302 0 1 1-224.352603 0c0-61.884377 50.233962-112.253585 112.253585-112.253585 61.884377 0 112.099019 50.369208 112.099018 112.253585z" fill="#FFFFFF" /><path d="M624.13766 644.810868a112.176302 112.176302 0 0 1-214.267169 46.678943 112.311547 112.311547 0 0 0 82.383698 35.84c61.884377 0 112.099019-50.233962 112.099019-112.253585a111.287547 111.287547 0 0 0-10.104755-46.659622 112.485434 112.485434 0 0 1 29.889207 76.394264z" fill="#E4E3FF" /><path d="M314.11683 914.799094A67.854491 67.854491 0 0 0 381.584906 975.698113h260.733585a67.854491 67.854491 0 0 0 67.487396-60.899019z" fill="#C2C2EF" /><path d="M709.728604 914.876377a70.617358 70.617358 0 0 1-4.482415 18.451321c-0.811472 1.932075-1.777509 3.690264-2.569661 5.62234-0.966038 1.758189-2.086642 3.535698-3.207245 5.293887-0.966038 1.758189-2.260528 3.381132-3.535698 4.984754a35.163774 35.163774 0 0 1-3.864151 4.636981c-4.153962 4.656302-9.138717 8.69434-14.58717 12.036831-1.294491 0.656906-2.56966 1.449057-3.864151 2.086641a14.220075 14.220075 0 0 1-2.704905 1.294491 50.388528 50.388528 0 0 1-5.139321 2.241207c-1.932075 0.811472-4.018717 1.449057-6.259925 1.932076a58.155472 58.155472 0 0 1-10.76166 1.932075h-0.637585a50.42717 50.42717 0 0 0 2.086641-10.916226l4.636982-49.596378h54.890264z" fill="#A2A2F9" /><path d="M453.187623 317.826415a9.177358 9.177358 0 0 1-9.158038 9.177359h-132.289208a9.177358 9.177358 0 0 1 0-18.335397h132.289208c5.062038 0 9.158038 4.115321 9.158038 9.177359zM282.662642 317.826415a9.177358 9.177358 0 0 1-9.158038 9.177359h-9.853585a9.177358 9.177358 0 0 1 0-18.335397h9.853585c5.062038 0 9.177358 4.115321 9.177358 9.177359z" fill="#FFFFFF" opacity=".5" /><path d="M531.668528 244.678038a7.863547 7.863547 0 0 1-7.863547 7.863547h-104.293434a7.863547 7.863547 0 0 1 0-15.727094h104.293434c4.327849 0 7.863547 3.535698 7.863547 7.863547zM394.568453 244.678038a7.863547 7.863547 0 0 1-7.863547 7.863547h-8.44317a7.863547 7.863547 0 0 1 0-15.727094h8.44317c4.34717 0 7.863547 3.535698 7.863547 7.863547z" fill="#FFFFFF" opacity=".5" /></svg>