<?xml version="1.0" standalone="no"?><!DOCTYPE svg PUBLIC "-//W3C//DTD SVG 1.1//EN" "http://www.w3.org/Graphics/SVG/1.1/DTD/svg11.dtd"><svg class="icon" width="200px" height="200.00px" viewBox="0 0 1024 1024" version="1.1" xmlns="http://www.w3.org/2000/svg"><path d="M474.208604 805.424302h91.193962v84.721509h-91.193962z" fill="#2D2C2C" /><path d="M565.441208 805.424302v84.818113h-91.193963v-10.626415h53.402566c14.683774 0 26.585358-11.901585 26.585359-26.585358v-47.60634z" fill="#1B1B1B" /><path d="M799.99517 130.163925c-6.182642-7.341887-12.751698-14.297358-19.70717-21.252831a19.243472 19.243472 0 0 0-27.242264 0l-46.176604 46.176604c9.660377 8.69434 18.93434 17.775094 27.242264 27.435472l32.265661-32.265661c2.125283 2.511698 4.250566 4.830189 6.182641 7.341887 128.483019 149.349434 122.10717 375.402264-19.513962 517.023396-141.427925 141.621132-367.673962 148.190189-517.023396 19.513963-2.511698-1.932075-4.830189-4.057358-7.341887-6.182642l32.072453-32.072453c-9.660377-8.501132-18.741132-17.581887-27.435472-27.242264l-45.983396 45.983396a19.243472 19.243472 0 0 0 0 27.242265c6.955472 6.955472 13.910943 13.524528 21.25283 19.707169 78.635472 68.781887 176.978113 102.979623 275.320755 102.979623 111.538717 0 218.459774-44.205887 296.573585-122.686792 156.498113-156.498113 163.06717-407.281509 19.513962-571.701132z" fill="#5E5EEF" /><path d="M799.99517 130.163925c-5.989434-6.955472-12.172075-13.717736-18.93434-20.286793 3.091321 3.477736 6.375849 7.148679 9.46717 10.819623 143.553208 164.419623 136.984151 415.203019-19.513962 571.701132-40.766792 40.96-88.102642 71.486792-138.723019 91.966792a419.724075 419.724075 0 0 1-157.850566 30.72c-98.342642 0-196.685283-34.197736-275.320755-102.979622-3.670943-3.091321-7.341887-6.375849-10.819623-9.46717 6.569057 6.762264 13.331321 12.944906 20.286793 18.934339 78.635472 68.781887 176.978113 102.979623 275.320755 102.979623 111.519396 0 218.440453-44.205887 296.573585-122.686792 156.498113-156.498113 163.06717-407.281509 19.513962-571.701132z" fill="#4242E5" /><path d="M260.752906 655.88166c2.511698 2.125283 4.830189 4.250566 7.341886 6.182642l-97.569811 97.569811a28.961811 28.961811 0 0 1-40.96 0 28.787925 28.787925 0 0 1 0-40.96l97.569811-97.569811c1.932075 2.511698 4.057358 5.023396 6.182642 7.535094 8.69434 9.660377 17.775094 18.741132 27.435472 27.242264zM838.057057 92.102038l-97.569812 97.569811c-1.932075-2.318491-4.057358-4.830189-6.375849-7.148679-8.307925-9.660377-17.581887-18.741132-27.242264-27.435472-2.511698-2.125283-4.830189-4.250566-7.535094-6.182641l97.763019-97.763019c11.206038-11.206038 29.560755-11.206038 40.96 0 11.206038 11.399245 11.206038 29.753962 0 40.96z" fill="#5E5EEF" /><path d="M819.161358 405.407396c0 146.451321-93.860226 270.973585-224.719698 316.66717-34.642113 12.114113-71.873208 18.702491-110.649962 18.702491a333.901283 333.901283 0 0 1-207.582189-71.969812c-77.843321-61.401358-127.787472-156.575396-127.787471-263.399849 0-18.625208 1.507019-36.883321 4.443773-54.677736 3.902792-23.880453 10.336604-46.930113 19.030944-68.839849C221.087396 157.792604 342.189887 70.018415 483.791698 70.018415c27.358189 0 53.943547 3.284528 79.408302 9.46717a336.045887 336.045887 0 0 1 219.329208 173.32649 333.939925 333.939925 0 0 1 36.63215 152.595321z" fill="#E4E3FF" /><path d="M220.237283 555.954717a302.427774 302.427774 0 0 1-38.834717-127.710189 14.490566 14.490566 0 0 1 13.389283-15.533886c8.037434-0.289811 14.934943 5.390491 15.514566 13.369962 3.091321 41.075925 14.915623 79.968604 35.144453 115.557434a14.490566 14.490566 0 0 1-25.213585 14.297358zM260.791547 220.93283a14.490566 14.490566 0 0 1-0.888755-20.48 304.070038 304.070038 0 0 1 79.60151-62.193509 14.490566 14.490566 0 1 1 13.83366 25.484075 275.494642 275.494642 0 0 0-72.066415 56.300679 14.490566 14.490566 0 0 1-20.48 0.888755zM388.540377 131.980075a14.509887 14.509887 0 0 1 9.853585-17.968301c10.877585-3.187925 22.083623-5.815547 33.328302-7.766944a14.625811 14.625811 0 0 1 16.751094 11.824302 14.490566 14.490566 0 0 1-11.78566 16.751094c-10.162717 1.738868-20.286792 4.115321-30.140377 6.994114a14.490566 14.490566 0 0 1-17.987623-9.834265z" fill="#FFFFFF" opacity=".6" /><path d="M755.171019 355.115472c-0.579623 5.796226-3.632302 11.437887-8.501132 14.490566-4.984755 3.129962-11.476528-3.632302-16.422642-0.386415-8.69434 5.718943 14.58717 21.639245 8.501132 30.140377-4.482415 6.298566-17.871698-4.849509-23.184905 0.77283-3.980075 4.211925 6.337208 15.707774 0.77283 17.388679-6.298566 1.912755-11.978868-5.603019-17.968302-2.511698-5.796226 3.091321-10.24 8.501132-15.843019 11.978868-7.148679 4.250566-16.229434 5.216604-23.571321 1.738868-7.535094-3.477736-12.751698-11.592453-11.78566-19.70717 0.966038-9.080755 8.69434-16.036226 17.388679-18.934339 8.501132-2.898113 17.968302-2.318491 26.855849-1.738868-8.114717-8.114717-8.307925-22.605283-0.386415-30.913208 0.193208-1.352453 0.193208-2.898113 0.386415-4.250566a93.821585 93.821585 0 0 1-47.335849-47.529056c-20.093585-5.216604-37.482264-18.93434-48.495094-36.516227-6.182642-9.853585-10.433208-21.059623-12.365283-32.652075-2.511698-15.263396-0.966038-31.106415-2.898113-46.563019-1.932075-15.456604-8.114717-31.49283-21.639246-39.41434-7.921509-4.636981-17.968302-5.796226-26.276226-2.125283-8.501132 3.670943-14.683774 12.365283-14.490566 21.446038 0 9.273962 7.960151 15.398642 16.229434 19.320755 4.579019 2.163925 2.666264 10.182038-1.159245 13.33132-3.902792 3.226566-9.46717 3.477736-14.297359 1.738868s-7.94083-10.433208-12.55849-8.307924c-3.670943 1.700226 2.56966 24.595321-0.386416 26.662641-1.700226 1.197887-10.24-1.54566-12.55849-1.738868a40.18717 40.18717 0 0 0-12.751698 0.772831c-8.501132 2.125283-16.422642 9.080755-16.422642 17.775094-0.193208 8.501132 6.762264 15.263396 12.944906 21.446038 6.182642 5.989434 12.558491 13.717736 10.626415 22.218868-2.704906 11.978868-21.059623 18.161509-18.741132 30.333585 1.738868 8.887547 15.070189 15.070189 11.978868 23.57132-3.091321 8.114717-16.809057 5.216604-22.412076 11.978868-5.216604 6.375849 0 16.229434-2.898113 23.957736-2.318491 5.989434-8.887547 9.080755-15.263396 10.433208-6.182642 1.54566-12.944906 1.932075-18.354717 5.409811-8.69434 5.409811-11.78566 16.615849-12.172075 26.662641-0.386415 10.24 0.850113 20.634566-1.932076 30.333585-2.82083 9.814943-19.552604 7.071396-22.02566 17.002264-1.255849 5.100679 4.096 9.73766-0.579623 11.785661-4.59834 2.009358-10.046792-0.579623-13.717736-4.057359s-6.375849-7.921509-10.24-11.206037c-13.138113-10.433208-32.652075-2.434415-49.074717-6.375849-10.24-2.473057-18.93434-10.046792-22.991698-19.70717-4.057358-9.660377 8.539774-21.948377 2.125283-30.140378-7.593057-9.73766-25.232906 18.335396-35.550189 11.206038-10.027472-6.955472-14.046189-19.243472-25.503396-23.378113-11.534491-4.173283-25.290868-9.46717-27.821887-21.446038-2.492377-11.78566 10.49117-34.893283-1.54566-34.777358-6.433811 0.057962-8.675019 9.892226-14.683774 12.172075-6.163321 2.357132-10.626415-5.216604-17.195471-4.830189-8.481811 0.50234-1.294491 20.615245-9.080755 23.571321-2.82083 1.081962-5.023396-3.284528-6.955472-5.409811 3.864151-23.957736 10.24-46.949434 18.93434-68.975094l2.125283 0.579622c5.603019 2.125283 9.660377 6.569057 14.490566 10.046793s11.206038 6.182642 16.422642 3.670943c6.955472-3.284528 9.853585-13.910943 17.581886-13.717736 6.762264 0 11.592453 9.273962 18.354717 7.92151 3.477736-0.77283 5.603019-4.443774 8.307925-7.14868 6.375849-6.375849 16.422642-6.955472 25.310189-5.603018 8.887547 1.159245 17.775094 4.057358 26.855849 3.09132 13.138113-1.159245 25.252226-10.974189 28.787924-23.764528 1.603623-5.796226 2.511698-13.138113 7.92151-15.649811 2.898113-1.352453 6.182642-0.966038 9.273962-0.579623 3.091321 0.386415 6.569057 0.386415 9.080755-1.54566 2.511698-1.932075 1.912755-6.066717 1.738867-9.080755-0.52166-9.641057 16.268075-10.336604 25.116982-14.297359 9.71834-4.34717 21.619925-6.91683 30.72-0.966037 8.675019 5.64166 12.558491 17.968302 22.605283 21.059622 7.341887 2.318491 15.456604-1.932075 20.093584-7.921509 4.830189-6.182642 6.955472-13.717736 8.887548-21.25283l23.184905-48.10868c3.091321-6.569057 6.182642-12.944906 9.273963-19.320754 5.216604-10.819623 10.626415-22.02566 19.707169-29.94717 10.433208-9.273962 24.730566-12.944906 35.936604-21.25283 3.477736-2.511698 6.569057-5.603019 9.46717-8.501132 46.563019 11.206038 89.261887 32.26566 125.778113 60.66717 2.704906 2.125283 5.216604 4.057358 7.728302 6.182641 3.284528 2.511698 6.182642 5.216604 9.273962 7.921509 8.307925 7.341887 16.229434 15.070189 23.764529 23.184906 4.250566 4.443774 8.307925 9.080755 12.172075 13.910944 15.843019 18.741132 29.560755 39.41434 40.766793 61.44-9.080755 7.341887-21.25283 11.01283-32.845283 13.138113-0.386415 0-0.579623 0.193208-0.966038 0.193207-15.263396 2.898113-30.913208 4.250566-46.369812 4.057359 4.250566 7.728302-9.486491 9.892226-11.592452 18.547924-3.670943 15.302038 25.310189 19.70717 29.367547 34.777359 7.341887-4.250566 17.002264-4.057358 24.150943 0.386415 7.341887 4.636981 11.592453 13.331321 10.819623 21.832453z" fill="#D0D0F7" /><path d="M819.122717 405.484679c0 146.451321-93.898868 270.876981-224.700377 316.66717-34.584151 11.978868-71.873208 18.547925-110.707925 18.547925-78.249057 0-150.508679-26.855849-207.504906-71.873208-21.446038-17.002264-40.766792-36.323019-57.382641-57.962264 56.803019 44.051321 127.903396 70.13434 205.186415 70.13434 38.834717 0 75.930566-6.569057 110.707925-18.741133 130.801509-45.596981 224.700377-170.215849 224.700377-316.667169 0-54.870943-13.331321-106.843774-36.709434-152.633963-9.660377-18.741132-20.866415-36.323019-33.811321-52.74566 39.027925 30.140377 71.100377 68.588679 93.705661 112.64 23.378113 45.790189 36.516226 97.569811 36.516226 152.633962z" fill="#D0D0F7" /><path d="M619.539321 637.913358c-1.932075 4.830189-5.023396 8.887547-8.114717 12.751699-10.24 13.138113-34.970566 23.184906-30.72 39.027924 1.54566 5.603019 15.070189 0.77283 16.229434 6.375849 1.738868 8.887547-3.284528 16.422642-2.511698 26.083019-34.584151 11.978868-71.873208 18.547925-110.707925 18.547925-78.249057 0-150.508679-26.855849-207.504906-71.873208 8.887547 1.352453 17.968302 0 25.889812-4.830189 1.932075-1.159245 3.670943-2.511698 5.603019-3.864151 3.864151-2.704906 7.535094-5.409811 11.978868-6.375849 14.490566-3.864151 28.015094 10.433208 42.892075 10.626415 17.388679 0 29.94717-18.161509 46.949434-21.059622 11.206038-1.932075 23.957736 2.704906 33.424906-3.284528 5.796226-3.670943 8.887547-10.626415 9.660377-17.38868 0.579623-6.955472-0.77283-13.717736-2.125283-20.48l-3.477736-16.615849c-2.511698-12.558491-5.216604-25.696604-1.932075-38.255094 3.670943-14.876981 15.649811-27.049057 29.753962-33.038491 11.399245-4.830189 23.764528-6.182642 36.129811-7.535094 6.375849-0.579623 12.751698-1.352453 19.127547-1.932076 7.535094-0.966038 16.036226-1.352453 21.832453 3.284529 11.01283 8.887547 7.148679 31.299623 20.673208 35.356981 8.307925 2.511698 17.775094-4.636981 25.503396-0.966038 5.989434 2.511698 7.921509 9.660377 9.46717 15.843019 3.670943 16.615849 7.341887 33.038491 11.206038 49.65434 0.77283 3.091321 1.352453 6.182642 1.932075 9.273962 0.966038 6.955472 1.352453 14.104151-1.159245 20.673207z" fill="#F9B938" /><path d="M755.171019 345.783547c-0.579623 5.796226-3.632302 11.437887-8.501132 14.490566-4.984755 3.129962-11.476528-3.632302-16.422642-0.386415-8.69434 5.718943 14.58717 21.639245 8.501132 30.140377-4.482415 6.298566-17.871698-4.849509-23.184905 0.772831-3.980075 4.211925 6.337208 15.707774 0.77283 17.388679-6.298566 1.912755-11.978868-5.603019-17.968302-2.511698-5.796226 3.091321-10.24 8.501132-15.843019 11.978868-7.148679 4.250566-16.229434 5.216604-23.571321 1.738868-7.535094-3.477736-12.751698-11.592453-11.78566-19.70717 0.966038-9.080755 8.69434-16.036226 17.388679-18.93434 8.501132-2.898113 17.968302-2.318491 26.855849-1.738868-8.114717-8.114717-8.307925-22.605283-0.386415-30.913207 0.193208-1.352453 0.193208-2.898113 0.386415-4.250566a93.821585 93.821585 0 0 1-47.335849-47.529057c-20.093585-5.216604-37.482264-18.93434-48.495094-36.516226-6.182642-9.853585-10.433208-21.059623-12.365283-32.652076-2.511698-15.263396-0.966038-31.106415-2.898113-46.563019-1.932075-15.456604-8.114717-31.49283-21.639246-39.414339-7.921509-4.636981-17.968302-5.796226-26.276226-2.125283-8.501132 3.670943-14.683774 12.365283-14.490566 21.446037 0 9.273962 7.960151 15.398642 16.229434 19.320755 4.579019 2.163925 2.666264 10.182038-1.159245 13.331321-3.902792 3.226566-9.46717 3.477736-14.297359 1.738868s-7.94083-10.433208-12.55849-8.307925c-3.670943 1.700226 2.56966 24.595321-0.386416 26.662642-1.700226 1.197887-10.24-1.54566-12.55849-1.738868a40.18717 40.18717 0 0 0-12.751698 0.77283c-8.501132 2.125283-16.422642 9.080755-16.422642 17.775094-0.193208 8.501132 6.762264 15.263396 12.944906 21.446038 6.182642 5.989434 12.558491 13.717736 10.626415 22.218868-2.704906 11.978868-21.059623 18.161509-18.741132 30.333585 1.738868 8.887547 15.070189 15.070189 11.978868 23.571321-3.091321 8.114717-16.809057 5.216604-22.412076 11.978868-5.216604 6.375849 0 16.229434-2.898113 23.957736-2.318491 5.989434-8.887547 9.080755-15.263396 10.433207-6.182642 1.54566-12.944906 1.932075-18.354717 5.409811-8.69434 5.409811-11.78566 16.615849-12.172075 26.662642-0.386415 10.24 0.850113 20.634566-1.932076 30.333585-2.82083 9.814943-19.552604 7.071396-22.02566 17.002264-1.255849 5.100679 4.096 9.73766-0.579623 11.78566-4.59834 2.009358-10.046792-0.579623-13.717736-4.057358s-6.375849-7.921509-10.24-11.206038c-13.138113-10.433208-32.652075-2.434415-49.074717-6.375849-10.24-2.453736-18.93434-10.046792-22.991698-19.70717-4.057358-9.660377 8.539774-21.948377 2.125283-30.140377-7.593057-9.73766-25.232906 18.335396-35.550189 11.206038-10.027472-6.936151-14.046189-19.243472-25.503396-23.378114-11.534491-4.173283-25.290868-9.46717-27.821887-21.446037-2.492377-11.78566 10.49117-34.893283-1.54566-34.777359-6.433811 0.057962-8.675019 9.892226-14.683774 12.172076-6.163321 2.357132-10.626415-5.216604-17.195471-4.830189-8.481811 0.50234-1.294491 20.615245-9.080755 23.571321-2.82083 1.081962-5.023396-3.284528-6.955472-5.409812 3.864151-23.957736 10.24-46.949434 18.93434-68.975094l2.125283 0.579623c5.603019 2.125283 9.660377 6.569057 14.490566 10.046792s11.206038 6.182642 16.422642 3.670944c6.955472-3.284528 9.853585-13.910943 17.581886-13.717736 6.762264 0 11.592453 9.273962 18.354717 7.921509 3.477736-0.77283 5.603019-4.443774 8.307925-7.148679 6.375849-6.375849 16.422642-6.955472 25.310189-5.603019 8.887547 1.159245 17.775094 4.057358 26.855849 3.091321 13.138113-1.159245 25.252226-10.974189 28.787924-23.764529 1.603623-5.796226 2.511698-13.138113 7.92151-15.649811 2.898113-1.352453 6.182642-0.966038 9.273962-0.579622 3.091321 0.386415 6.569057 0.386415 9.080755-1.545661 2.511698-1.932075 1.912755-6.066717 1.738867-9.080755-0.52166-9.641057 16.268075-10.336604 25.116982-14.297358 9.71834-4.34717 21.619925-6.91683 30.72-0.966038 8.675019 5.64166 12.558491 17.968302 22.605283 21.059623 7.341887 2.318491 15.456604-1.932075 20.093584-7.92151 4.830189-6.182642 6.955472-13.717736 8.887548-21.25283l23.184905-48.108679c3.091321-6.569057 6.182642-12.944906 9.273963-19.320755 5.216604-10.819623 10.626415-22.02566 19.707169-29.94717 10.433208-9.273962 24.730566-12.944906 35.936604-21.25283 3.477736-2.511698 6.569057-5.603019 9.46717-8.501132 46.563019 11.206038 89.261887 32.26566 125.778113 60.66717 2.704906 2.125283 5.216604 4.057358 7.728302 6.182641 3.284528 2.511698 6.182642 5.216604 9.273962 7.92151 8.307925 7.341887 16.229434 15.070189 23.764529 23.184906 4.250566 4.443774 8.307925 9.080755 12.172075 13.910943 15.843019 18.741132 29.560755 39.41434 40.766793 61.44-9.080755 7.341887-21.25283 11.01283-32.845283 13.138113-0.386415 0-0.579623 0.193208-0.966038 0.193208-15.263396 2.898113-30.913208 4.250566-46.369812 4.057358 4.250566 7.728302-9.486491 9.892226-11.592452 18.547925-3.670943 15.302038 25.310189 19.70717 29.367547 34.777358 7.341887-4.250566 17.002264-4.057358 24.150943 0.386415 7.341887 4.636981 11.592453 13.331321 10.819623 21.832453z" fill="#5BC658" /><path d="M619.539321 637.913358c-1.932075 4.830189-5.023396 8.887547-8.114717 12.751699-10.24 13.138113-34.970566 23.184906-30.72 39.027924 1.54566 5.603019 15.070189 0.77283 16.229434 6.375849 1.738868 8.887547-3.284528 16.422642-2.511698 26.083019-34.584151 11.978868-71.873208 18.547925-110.707925 18.547925-78.249057 0-150.508679-26.855849-207.504906-71.873208 8.887547 1.352453 17.968302 0 25.889812-4.830189 1.932075-1.159245 3.670943-2.511698 5.603019-3.864151 36.129811 13.524528 75.350943 20.866415 116.310943 20.866416a333.785358 333.785358 0 0 0 196.685283-63.758491c0.966038 6.955472 1.352453 14.104151-1.159245 20.673207z" fill="#E5A320" /><path d="M782.606491 252.850717c-9.080755 7.341887-21.25283 11.01283-32.845283 13.138113a326.540075 326.540075 0 0 0-60.860378-125.778113c2.704906 2.125283 5.216604 4.057358 7.728302 6.182641 3.284528 2.511698 6.182642 5.216604 9.273962 7.92151 8.307925 7.341887 16.229434 15.070189 23.764529 23.184906 4.250566 4.443774 8.307925 9.080755 12.172075 13.910943 15.843019 18.741132 29.560755 39.41434 40.766793 61.44z" fill="#49A247" /><path d="M684.437736 947.547774v21.658566c0 6.66566-5.409811 12.056151-12.056151 12.056151H367.229585a12.056151 12.056151 0 0 1-12.03683-12.056151v-21.658566a57.382642 57.382642 0 0 1 57.382641-57.401963h214.460378a57.382642 57.382642 0 0 1 57.382641 57.382642z" fill="#2D2C2C" /><path d="M684.457057 947.625057v21.639245c0 6.569057-5.409811 11.978868-12.172076 11.978868h-305.074717c-6.569057 0-11.978868-5.409811-11.978868-11.978868v-4.443774h304.301887c6.762264 0 12.172075-5.409811 12.172075-12.172075v-21.639245c0-9.46717-2.318491-18.354717-6.375849-26.083019 11.78566 10.433208 19.127547 25.696604 19.127548 42.698868z" fill="#1B1B1B" /><path d="M521.621736 935.607547H468.528302a9.660377 9.660377 0 1 1 0-19.320755h53.093434a9.660377 9.660377 0 1 1 0 19.320755z" fill="#FFFFFF" opacity=".4" /><path d="M420.303698 935.607547h-5.525736a9.660377 9.660377 0 1 1 0-19.320755h5.525736a9.660377 9.660377 0 1 1 0 19.320755z" fill="#FFFFFF" opacity=".4" /></svg>