<?xml version="1.0" standalone="no"?><!DOCTYPE svg PUBLIC "-//W3C//DTD SVG 1.1//EN" "http://www.w3.org/Graphics/SVG/1.1/DTD/svg11.dtd"><svg class="icon" width="200px" height="200.00px" viewBox="0 0 1024 1024" version="1.1" xmlns="http://www.w3.org/2000/svg"><path d="M512 948.030792a14.490566 14.490566 0 0 1-14.490566-14.490566V418.332981a14.490566 14.490566 0 0 1 28.981132 0v515.207245a14.490566 14.490566 0 0 1-14.490566 14.490566zM848.528906 670.005132H739.018868a14.490566 14.490566 0 0 1 0-28.981132h109.490717a46.08 46.08 0 0 0 46.002717-46.041358v-93.724982a14.490566 14.490566 0 0 1 28.981132 0v93.724982a75.099774 75.099774 0 0 1-74.983849 75.02249zM284.981132 670.005132H175.490415A75.099774 75.099774 0 0 1 100.467925 594.982642v-93.724982a14.490566 14.490566 0 0 1 28.981132 0v93.724982a46.099321 46.099321 0 0 0 46.041358 46.041358h109.490717a14.490566 14.490566 0 0 1 0 28.981132z" fill="#474646" /><path d="M173.30717 492.254189c0 14.683774-11.901585 26.566038-26.566038 26.566037h-63.565283a26.566038 26.566038 0 1 1 0-53.132075h63.565283c14.683774 0 26.566038 11.901585 26.566038 26.566038zM967.390189 492.254189c0 14.683774-11.901585 26.566038-26.566038 26.566037h-63.565283a26.566038 26.566038 0 0 1 0-53.132075h63.565283c14.683774 0 26.566038 11.901585 26.566038 26.566038z" fill="#A2A2F9" /><path d="M173.403774 492.350792c0 14.490566-11.978868 26.469434-26.662642 26.469434h-63.565283c-11.592453 0-21.446038-7.535094-24.923774-17.968301 4.443774 3.091321 9.853585 5.023396 15.649812 5.023396h63.565283c14.683774 0 26.469434-11.78566 26.469434-26.469434 0-2.898113-0.386415-5.603019-1.545661-8.307925 6.762264 4.636981 11.01283 12.365283 11.012831 21.25283zM967.293585 492.350792c0 14.490566-11.78566 26.469434-26.469434 26.469434h-63.565283c-11.78566 0-21.639245-7.535094-25.116981-18.161509 4.443774 3.284528 9.853585 5.216604 15.843019 5.216604h63.565283c14.683774 0 26.469434-11.78566 26.469434-26.469434 0-2.898113-0.386415-5.603019-1.545661-8.307925 6.569057 4.636981 10.819623 12.365283 10.819623 21.25283z" fill="#5E5EEF" /><path d="M698.387321 81.610868L748.679245 443.411321a66.270189 66.270189 0 0 1-65.632603 75.389585H340.934038a66.270189 66.270189 0 0 1-65.632604-75.389585l50.311245-361.819774a66.270189 66.270189 0 0 1 65.632604-57.131472h241.509434a66.270189 66.270189 0 0 1 65.632604 57.131472z" fill="#A2A2F9" /><path d="M339.233811 306.176a9.660377 9.660377 0 0 1-8.230641-10.896906l15.263396-109.935094a9.98883 9.98883 0 0 1 10.896906-8.249962 9.660377 9.660377 0 0 1 8.249962 10.877585l-15.282717 109.935094a9.641057 9.641057 0 0 1-10.896906 8.269283zM362.766491 146.586566a9.660377 9.660377 0 0 1-9.583095-11.01283l2.221887-15.958944a9.814943 9.814943 0 0 1 10.916226-8.21132 9.660377 9.660377 0 0 1 8.211321 10.896905l-2.221887 15.958944a9.660377 9.660377 0 0 1-9.544452 8.307924z" fill="#FFFFFF" opacity=".4" /><path d="M683.085283 518.820226h-342.170566c-23.764528 0-44.437736-12.558491-56.030189-31.106415 7.341887 2.898113 15.649811 4.636981 24.344151 4.636981h342.170566c40.18717 0 71.100377-35.550189 65.690566-75.54415l-50.427169-361.684529c-1.352453-9.46717-4.636981-18.161509-9.46717-25.889811 21.639245 8.501132 37.868679 28.208302 41.153207 52.359245l50.42717 361.877736c5.409811 39.800755-25.503396 75.350943-65.690566 75.350943z" fill="#5E5EEF" /><path d="M648.211321 436.687698h-272.422642a14.490566 14.490566 0 0 1 0-28.981132h272.422642a14.490566 14.490566 0 0 1 0 28.981132zM598.943396 135.554415h-173.886792a14.490566 14.490566 0 0 1 0-28.981132h173.886792a14.490566 14.490566 0 0 1 0 28.981132zM631.30566 361.414038h-238.61132a14.490566 14.490566 0 0 1 0-28.981132h238.61132a14.490566 14.490566 0 0 1 0 28.981132zM607.599094 210.847396h-191.198188a14.490566 14.490566 0 0 1 0-28.981132h191.198188a14.490566 14.490566 0 0 1 0 28.981132zM618.148226 286.140377H405.871094a14.490566 14.490566 0 0 1 0-28.981132h212.277132a14.490566 14.490566 0 0 1 0 28.981132z" fill="#7979F7" /><path d="M662.605283 422.216453c0 7.921509-6.375849 14.490566-14.490566 14.490566h-272.229434c-6.762264 0-12.365283-4.443774-13.717736-10.626415 2.318491 1.54566 5.216604 2.511698 8.114717 2.511698h272.422642a14.355321 14.355321 0 0 0 14.104151-17.775094c3.477736 2.511698 5.796226 6.762264 5.796226 11.399245zM613.530566 121.005887c0 8.114717-6.569057 14.490566-14.490566 14.490566h-174.08a14.490566 14.490566 0 0 1-13.910943-10.626415c2.318491 1.738868 5.409811 2.704906 8.501132 2.704905h173.886792c8.114717 0 14.490566-6.569057 14.490566-14.490566 0-1.352453-0.193208-2.704906-0.77283-4.057358 3.864151 2.511698 6.375849 6.955472 6.375849 11.978868zM645.796226 346.865509c0 8.114717-6.569057 14.490566-14.490566 14.490566h-238.61132a14.490566 14.490566 0 0 1-13.910944-10.626415c2.318491 1.738868 5.216604 2.704906 8.501132 2.704906h238.611321c7.921509 0 14.490566-6.569057 14.490566-14.490566 0-1.352453-0.193208-2.704906-0.579623-3.864151 3.670943 2.704906 5.989434 6.955472 5.989434 11.78566zM622.031698 196.35683c0 7.921509-6.375849 14.490566-14.490566 14.490566h-191.082264c-6.762264 0-12.172075-4.443774-13.717736-10.433207 2.318491 1.54566 5.216604 2.511698 8.114717 2.511698h191.275472c7.921509 0 14.490566-6.569057 14.490566-14.490566 0-1.352453-0.193208-2.704906-0.579623-3.864151 3.670943 2.704906 5.989434 6.955472 5.989434 11.78566zM632.658113 271.707774c0 7.921509-6.569057 14.490566-14.490566 14.490566h-212.335094a14.104151 14.104151 0 0 1-13.910944-11.012831c2.318491 1.932075 5.216604 2.898113 8.501133 2.898114h212.335094c7.921509 0 14.490566-6.375849 14.490566-14.490566 0-1.159245-0.193208-2.318491-0.579623-3.477736 3.670943 2.511698 5.989434 6.762264 5.989434 11.592453z" fill="#5E5EEF" /><path d="M713.22566 977.108528a14.490566 14.490566 0 0 1-14.490566-14.490566v-30.121056a58.638491 58.638491 0 0 0-58.580528-58.561208H383.845434a58.638491 58.638491 0 0 0-58.580528 58.561208v30.140377a14.490566 14.490566 0 0 1-28.981132 0v-30.140377a87.658264 87.658264 0 0 1 87.56166-87.54234h256.309132a87.638943 87.638943 0 0 1 87.56166 87.54234v30.140377a14.490566 14.490566 0 0 1-14.490566 14.490566z" fill="#474646" /><path d="M276.789132 939.25917c-3.612981 5.989434-5.796226 12.944906-5.796226 20.460679 0 21.929057 17.755774 39.800755 39.588226 39.800755 22.044981 0 39.993962-17.871698 39.993962-39.800755a39.221132 39.221132 0 0 0-5.854188-20.460679zM679.395019 939.25917a39.646189 39.646189 0 0 0 33.618113 60.280755c22.083623 0 40.013283-17.891019 40.013283-39.820076a39.221132 39.221132 0 0 0-5.854189-20.460679zM478.072755 939.25917a39.646189 39.646189 0 0 0 33.618113 60.280755c22.064302 0 40.013283-17.891019 40.013283-39.820076a39.221132 39.221132 0 0 0-5.854189-20.460679z" fill="#7979F7" /><path d="M350.014792 965.226264c0.25117-1.816151 0.579623-3.632302 0.579623-5.506415a39.221132 39.221132 0 0 0-5.873509-20.460679h-67.931774c-3.612981 5.989434-5.796226 12.944906-5.796226 20.460679 0 1.874113 0.289811 3.670943 0.540981 5.506415zM752.466113 965.226264c0.270491-1.816151 0.579623-3.632302 0.579623-5.506415a39.221132 39.221132 0 0 0-5.87351-20.460679h-67.777207c-3.59366 5.989434-5.796226 12.944906-5.796227 20.460679 0 1.874113 0.309132 3.670943 0.579623 5.506415zM551.143849 965.226264c0.270491-1.816151 0.579623-3.632302 0.579623-5.506415a39.221132 39.221132 0 0 0-5.87351-20.460679h-67.777207c-3.59366 5.989434-5.796226 12.944906-5.796227 20.460679 0 1.874113 0.309132 3.670943 0.579623 5.506415z" fill="#5E5EEF" /><path d="M354.729057 957.536604c8.771623 0 14.645132-8.69434 11.78566-17.002264a59.179472 59.179472 0 0 0-55.933585-39.936 58.812377 58.812377 0 0 0-55.585811 39.993962c-2.82083 8.269283 3.052679 16.963623 11.78566 16.963623z" fill="#474646" /><path d="M757.180377 957.536604c8.771623 0 14.645132-8.69434 11.785661-17.002264a59.179472 59.179472 0 0 0-55.933585-39.936 58.541887 58.541887 0 0 0-55.431245 39.993962c-2.782189 8.288604 3.072 16.963623 11.804981 16.963623h87.774188z" fill="#474646" /><path d="M555.896755 957.536604c8.752302 0 14.625811-8.69434 11.78566-17.002264a59.179472 59.179472 0 0 0-55.952906-39.936 58.541887 58.541887 0 0 0-55.431245 39.993962c-2.782189 8.288604 3.072 16.963623 11.804981 16.963623h87.79351z" fill="#474646" /><path d="M809.597585 612.274717v86.499019a42.621585 42.621585 0 0 1-42.621585 42.621585H257.024a42.621585 42.621585 0 0 1-42.621585-42.621585v-86.51834c0-23.532679 19.088906-42.621585 42.621585-42.621585h509.952c23.532679 0 42.621585 19.088906 42.621585 42.621585z" fill="#A2A2F9" /><path d="M299.336453 627.113057h-12.848302a14.490566 14.490566 0 0 1 0-28.981132h12.848302a14.490566 14.490566 0 0 1 0 28.981132z" fill="#FFFFFF" opacity=".4" /><path d="M476.952151 627.113057h-124.580226a14.490566 14.490566 0 0 1 0-28.981132h124.580226a14.490566 14.490566 0 0 1 0 28.981132z" fill="#FFFFFF" opacity=".4" /><path d="M809.636226 612.332679v86.363774c0 23.571321-19.127547 42.698868-42.698868 42.698868h-509.874716c-18.354717 0-33.811321-11.399245-39.993963-27.628679 4.057358 1.159245 8.501132 1.932075 12.944906 1.932075h509.874717c23.571321 0 42.698868-19.127547 42.698868-42.698868v-86.363774c0-5.216604-0.966038-10.433208-2.898113-15.070188 17.388679 5.409811 29.94717 21.639245 29.947169 40.766792z" fill="#5E5EEF" /></svg>