<?xml version="1.0" standalone="no"?><!DOCTYPE svg PUBLIC "-//W3C//DTD SVG 1.1//EN" "http://www.w3.org/Graphics/SVG/1.1/DTD/svg11.dtd"><svg class="icon" width="200px" height="200.00px" viewBox="0 0 1024 1024" version="1.1" xmlns="http://www.w3.org/2000/svg"><path d="M568.551849 421.11517m-372.716679 0a372.716679 372.716679 0 1 0 745.433358 0 372.716679 372.716679 0 1 0-745.433358 0Z" fill="#D0D0F7" /><path d="M335.176453 255.690868a20.866415 20.866415 0 0 1-2.859472-29.367547 306.890868 306.890868 0 0 1 183.064151-106.940378 20.847094 20.847094 0 1 1 7.341887 41.075925 265.080755 265.080755 0 0 0-158.19834 92.353207 20.866415 20.866415 0 0 1-29.367547 2.878793zM604.044075 136.945509a20.827774 20.827774 0 0 1 24.537359-16.384c17.697811 3.535698 35.241057 8.69434 52.166038 15.398642a20.866415 20.866415 0 1 1-15.302038 38.796075c-14.625811-5.776906-29.753962-10.24-45.017359-13.273358a20.866415 20.866415 0 0 1-16.384-24.537359z" fill="#FFFFFF" opacity=".3" /><path d="M902.086038 587.447547c-91.870189 184.242717-315.662491 259.091321-499.885887 167.221132-14.741736-7.361208-29.019774-15.649811-42.177208-24.769207 174.118642 60.261434 370.108377-16.809057 454.540076-186.09751S842.616755 171.568302 689.731623 68.762566c15.205434 5.023396 30.410868 11.457208 45.152603 18.799094 184.223396 91.889509 259.091321 315.662491 167.201812 499.885887z" fill="#C2C2EF" /><path d="M772.443774 733.029434L196.762566 445.884377c6.858868 101.62717 55.160755 198.230943 136.481811 264.327246l-93.319245 126.396377a58.947623 58.947623 0 0 0 21.25283 87.754868l90.343849 45.056a58.947623 58.947623 0 0 0 82.886038-35.801359l44.80483-150.605283c101.723774 25.174943 207.949283 5.64166 293.269736-50.021434z" fill="#B75F25" /><path d="M479.193358 783.031547l-44.82415 150.605283a58.947623 58.947623 0 0 1-82.886038 35.801359L265.660377 926.623396a58.947623 58.947623 0 0 0 82.886038-35.820679l25.928453-87.175245c10.297962-34.603472 43.52966-56.435925 79.524226-53.711698a374.706717 374.706717 0 0 0 232.563925-59.720453l85.861434 42.814792c-85.301132 55.585811-191.526642 75.099774-293.211774 50.021434z" fill="#AA5821" /><path d="M203.055229 401.95654a143.398642 143.398642 0 1 0 45.85349-283.107999 143.398642 143.398642 0 1 0-45.85349 283.107999Z" fill="#F9B938" /><path d="M131.245887 266.780981a15.630491 15.630491 0 0 1-15.572529-17.176151A110.881811 110.881811 0 0 1 151.474717 178.137358a15.649811 15.649811 0 0 1 21.020981 23.184906 79.756075 79.756075 0 0 0-25.715924 51.315925 15.630491 15.630491 0 0 1-15.553208 14.104151z" fill="#FFFFFF" opacity=".4" /><path d="M191.120906 170.254491a15.649811 15.649811 0 0 1 12.133434-18.509283 112.060377 112.060377 0 0 1 16.847698-2.202566c8.501132-0.753509 15.978264 6.163321 16.461283 14.799698a15.649811 15.649811 0 0 1-14.799698 16.461283c-4.153962 0.212528-8.211321 0.77283-12.172076 1.584302a15.649811 15.649811 0 0 1-18.470641-12.133434z" fill="#FFFFFF" opacity=".4" /><path d="M369.374189 260.521057A143.128151 143.128151 0 0 1 226.05283 403.803774a142.316679 142.316679 0 0 1-116.175698-59.64317 140.268679 140.268679 0 0 0 70.288906 18.547924 143.128151 143.128151 0 0 0 143.302037-143.282717c0-31.49283-10.24-60.705811-27.532075-84.257811a143.688453 143.688453 0 0 1 73.418868 125.353057z" fill="#E5A320" /></svg>