<?xml version="1.0" standalone="no"?><!DOCTYPE svg PUBLIC "-//W3C//DTD SVG 1.1//EN" "http://www.w3.org/Graphics/SVG/1.1/DTD/svg11.dtd"><svg class="icon" width="200px" height="200.00px" viewBox="0 0 1024 1024" version="1.1" xmlns="http://www.w3.org/2000/svg"><path d="M842.674717 767.74883c0 42.621585-24.05434 77.031849-53.75034 77.031849-29.715321 0-53.76966-34.410264-53.76966-77.031849 0-42.602264 24.05434-77.205736 53.76966-77.205736 29.696 0 53.75034 34.584151 53.75034 77.205736zM181.325283 767.74883c0 42.621585 24.05434 77.031849 53.75034 77.031849 29.715321 0 53.76966-34.410264 53.76966-77.031849 0-42.602264-24.05434-77.205736-53.76966-77.205736-29.696 0-53.75034 34.584151-53.75034 77.205736zM763.633509 650.723019v37.289056H260.984755v-37.289056c0-14.471245 1.970717-28.343547 5.738264-41.636227a147.745811 147.745811 0 0 1 24.788528-50.755622 160.26566 160.26566 0 0 1 44.437736-40.43834 148.634566 148.634566 0 0 1 57.884981-20.441358c1.178566-0.193208 9.505811-0.386415 22.412076-0.386415 5.738264-0.193208 12.481208-0.193208 19.823094-0.193208 43.027321-0.405736 109.258868-0.405736 152.286189 0 7.341887 0 14.065509 0 19.823094 0.193208 12.886943 0 21.407396 0.193208 22.605283 0.386415 23.184906 3.187925 44.630943 11.708377 63.256151 24.189585 3.555019 2.183245 6.936151 4.772226 10.104755 7.148679 1.004679 0.792151 1.79683 1.391094 2.588981 2.183245 2.975396 2.183245 5.545057 4.559698 8.307924 7.148679a153.793208 153.793208 0 0 1 48.572378 112.64z" fill="#B75F25" /><path d="M331.27366 583.467472a9.950189 9.950189 0 0 1-7.245283-16.693132 168.090566 168.090566 0 0 1 41.481661-32.381585 9.950189 9.950189 0 0 1 9.48649 17.42732 148.847094 148.847094 0 0 0-36.477585 28.498114 9.853585 9.853585 0 0 1-7.245283 3.149283z" fill="#FFFFFF" opacity=".3" /><path d="M608.178717 497.065057v4.36649a96.043472 96.043472 0 0 1-95.966189 95.966189 96.043472 96.043472 0 0 1-95.966188-95.966189v-4.36649c5.738264-0.193208 12.481208-0.193208 19.823094-0.193208 43.027321-0.405736 109.258868-0.405736 152.286189 0 7.341887 0 14.065509 0 19.823094 0.193208z" fill="#E4E3FF" /><path d="M763.633509 650.723019v37.289056H260.984755v-37.289056c0-14.471245 1.970717-28.343547 5.738264-41.636227h422.15849c18.644528 0.386415 23.590642-15.649811 22.605283-35.878641-5.158642-24.788528-6.144-30.140377-17.446641-51.567094 3.555019 2.183245 6.936151 4.772226 10.104755 7.148679 1.004679 0.792151 1.79683 1.391094 2.588981 2.183245 2.975396 2.183245 5.545057 4.559698 8.307924 7.148679a153.793208 153.793208 0 0 1 48.572378 112.64z" fill="#AA5821" /><path d="M568.609811 452.762566v48.572377a56.339321 56.339321 0 0 1-112.697962 0v-48.572377c17.388679 12.172075 33.946566 19.475321 56.358642 19.475321s38.950642-7.283925 56.33932-19.475321z" fill="#F7C9A9" /><path d="M568.513208 452.839849v48.591698c0 17.446642-7.921509 33.115774-20.422038 43.413736a51.586415 51.586415 0 0 0 1.197887-11.090113c0-19.70717-17.91034-35.376302-37.153812-31.164378a88.682264 88.682264 0 0 1-19.166188 2.009359 85.629585 85.629585 0 0 1-37.076529-8.134038v-43.626264c17.446642 12.094792 33.907925 19.436679 56.32 19.436679 22.412075 0 39.066566-7.341887 56.30068-19.436679z" fill="#E8AA80" /><path d="M639.613585 210.789434v144.306717a129.120604 129.120604 0 0 1-258.241208 0v-144.326038c79.717434-61.787774 166.351698-56.397283 258.241208 0z" fill="#F7C9A9" /><path d="M639.632906 339.948679v15.128151a129.217208 129.217208 0 0 1-129.178566 129.159245 128.656906 128.656906 0 0 1-91.251925-37.791396 129.120604 129.120604 0 0 1-37.791396-91.38717v-15.10883c0 35.666113 14.432604 67.931774 37.791396 91.38717a128.656906 128.656906 0 0 0 91.251925 37.791396 129.217208 129.217208 0 0 0 129.178566-129.178566z" fill="#F0B68E" /><path d="M639.613585 258.917434v96.294641a48.205283 48.205283 0 0 0 47.219924-48.14732c0-26.276226-21.078943-47.587019-47.219924-48.147321zM381.353057 258.917434v96.294641a48.205283 48.205283 0 0 1-47.219925-48.14732c0-26.276226 21.059623-47.587019 47.219925-48.147321z" fill="#F7C9A9" /><path d="M686.775547 307.006792a48.147321 48.147321 0 0 1-47.142641 48.185963v-8.926189a48.224604 48.224604 0 0 0 46.930113-43.317132c0.115925 1.352453 0.212528 2.704906 0.212528 4.057358zM381.391698 346.266566v8.926189a48.263245 48.263245 0 0 1-47.258566-48.185963c0-1.352453 0.115925-2.704906 0.231849-4.057358a48.321208 48.321208 0 0 0 47.046038 43.317132z" fill="#F0B68E" /><path d="M390.91683 328.336906l3.612981-61.459321a9.795623 9.795623 0 0 1 7.902189-9.100076c14.83834-2.840151 48.553057-12.210717 69.419472-40.515622 3.806189-5.158642 11.264-5.815547 15.456603-0.966038 15.224755 17.717132 54.098113 49.770264 132.714265 43.664906 5.796226-0.444377 10.838943 3.999396 10.838943 9.814943v58.541887c10.355925-21.059623 10.104755-79.756075 38.39034-58.406642 87.387774-154.933132-115.673358-306.639698-259.419774-165.675471a7.882868 7.882868 0 0 1-6.839547 2.241207c-14.645132-2.492377-66.598642-4.791547-62.657208 89.33917 2.125283 51.006792 11.01283 74.384906 11.012831 74.384906 23.880453-9.312604 28.92317 14.761057 39.568905 58.136151z" fill="#2D2C2C" /><path d="M690.060075 203.679396c-8.269283-116.175698-163.724075-194.115623-280.150943-79.929962a8.114717 8.114717 0 0 1-7.052075 2.260528c-13.717736-2.318491-58.88966-4.192604-62.521963 69.767246-3.960755-93.976151 47.915472-91.773585 62.618566-89.261887a7.998792 7.998792 0 0 0 6.955472-2.279849c122.783396-120.426264 289.096453-27.068377 280.150943 99.443924z" fill="#1B1B1B" /><path d="M528.770415 367.809208c2.028679 4.849509 0.830792 10.974189-2.743547 15.553207-3.439094 4.772226-9.525132 7.535094-15.533887 7.593057-6.047396-0.038642-12.133434-2.801509-15.591849-7.573736-3.555019-4.59834-4.752906-10.723019-2.704906-15.572528 4.018717 9.505811 11.225358 13.485887 18.277434 13.485886 7.071396 0 14.297358-3.980075 18.296755-13.485886z" fill="#E8AA80" /><path d="M583.622038 330.326943c0 9.660377-7.824906 17.543245-17.465963 17.543246-9.660377 0-17.523925-7.882868-17.523924-17.543246s7.863547-17.523925 17.523924-17.523924c9.641057 0 17.465962 7.882868 17.465963 17.523924zM585.341585 305.364528h-38.448302a7.245283 7.245283 0 0 1 0-14.490566h38.448302a7.245283 7.245283 0 0 1 0 14.490566zM472.334491 330.326943c0 9.660377-7.805585 17.543245-17.465963 17.543246-9.641057 0-17.523925-7.882868-17.523924-17.543246s7.882868-17.523925 17.523924-17.523924c9.660377 0 17.465962 7.882868 17.465963 17.523924zM474.073358 305.364528h-38.448301a7.245283 7.245283 0 0 1 0-14.490566h38.448301a7.245283 7.245283 0 0 1 0 14.490566z" fill="#2D2C2C" /><path d="M476.237283 417.869283c-4.424453 0-7.148679 5.139321-4.405132 8.597736a49.055396 49.055396 0 0 0 77.283019 0c2.743547-3.458415 0.038642-8.597736-4.385812-8.597736H476.256604z" fill="#E8AA80" /><path d="M656.287396 324.067019a4.830189 4.830189 0 0 1-3.59366-8.076076c6.259925-6.897509 1.661585-16.345358 1.468377-16.731773a4.830189 4.830189 0 0 1 8.617057-4.385812c0.309132 0.637585 7.863547 15.727094-2.898113 27.609359a4.849509 4.849509 0 0 1-3.593661 1.584302zM366.08966 324.067019a4.849509 4.849509 0 0 1-3.574339-1.584302c-10.780981-11.882264-3.226566-26.971774-2.898113-27.628679a4.830189 4.830189 0 0 1 8.597735 4.385811c-0.193208 0.405736-4.791547 9.853585 1.468378 16.751094a4.830189 4.830189 0 0 1-3.593661 8.076076z" fill="#F0B68E" /><path d="M702.927698 567.779019c-35.936604 6.878189-129.352453 30.063094-190.618566 93.087396h205.379623v-80.760755a12.481208 12.481208 0 0 0-14.761057-12.326641zM321.690566 567.779019c35.917283 6.878189 129.352453 30.063094 190.618566 93.087396h-205.379623v-80.760755c0-7.824906 7.071396-13.795019 14.761057-12.326641z" fill="#C2C2EF" /><path d="M765.217811 633.315019v-21.735849c0-7.110038-5.776906-12.771019-12.886943-12.519849-31.22234 1.081962-117.50883 9.235321-240.021736 61.826415z" fill="#D0D0F7" /><path d="M259.381132 633.315019v-21.735849c0-7.110038 5.796226-12.771019 12.906264-12.519849 31.22234 1.081962 117.489509 9.235321 240.021736 61.826415z" fill="#D0D0F7" /><path d="M512.309132 660.866415V975.698113l241.39351-30.179019a34.680755 34.680755 0 0 0 30.333584-32.729358l12.210717-251.111849a34.680755 34.680755 0 0 0-39.588226-36.013887z" fill="#5E5EEF" /><path d="M512.309132 660.866415V975.698113l-241.393509-30.179019a34.680755 34.680755 0 0 1-30.333585-32.729358l-12.210717-251.111849a34.680755 34.680755 0 0 1 39.588226-36.013887z" fill="#7979F7" /><path d="M793.928453 739.868981v81.765434h-35.279698a10.317283 10.317283 0 0 1-10.355925-10.143396c0-5.699623 4.636981-10.355925 10.355925-10.355925h-6.569057c-5.699623 0-10.124075-4.443774-10.124075-10.124075s4.443774-10.355925 10.143396-10.355925h-7.399849a10.182038 10.182038 0 0 1-10.355925-10.143396c0-5.699623 4.636981-10.143396 10.355925-10.143396h7.399849a10.201358 10.201358 0 0 1-10.143396-10.355925c0-5.487094 4.443774-10.143396 10.143396-10.143396z" fill="#F2A764" /><path d="M837.651321 774.317887c0 17.311396-4.443774 33.579472-11.824302 40.96a34.29434 34.29434 0 0 1-20.093585 6.356528h-47.084679a10.317283 10.317283 0 0 1-10.355925-10.143396c0-5.699623 4.636981-10.355925 10.355925-10.355925h-6.569057c-5.699623 0-10.124075-4.443774-10.124075-10.124075s4.443774-10.355925 10.143396-10.355925h-7.399849a10.182038 10.182038 0 0 1-10.355925-10.143396c0-5.699623 4.636981-10.143396 10.355925-10.143396h7.399849a10.201358 10.201358 0 0 1-10.143396-10.355925c0-5.487094 4.443774-10.143396 10.143396-10.143396h40.341736l1.062641-21.967698h11.824302c22.817811 2.956075 32.323623 30.642717 32.323623 56.416604z" fill="#F2A764" /><path d="M186.348679 774.317887c0 17.311396 4.443774 33.579472 11.824302 40.96 5.931472 4.250566 12.886943 6.356528 20.093585 6.356528h47.084679c5.718943 0 10.355925-4.636981 10.355925-10.143396a10.375245 10.375245 0 0 0-10.355925-10.355925h6.569057c5.699623 0 10.124075-4.443774 10.124075-10.124075s-4.443774-10.355925-10.143396-10.355925h7.399849c5.699623 0 10.355925-4.443774 10.355925-10.143396a10.182038 10.182038 0 0 0-10.355925-10.143396h-7.399849c5.718943 0 10.143396-4.636981 10.143396-10.355925a10.143396 10.143396 0 0 0-10.143396-10.143396h-40.341736l-1.062641-21.967698h-11.824302c-22.817811 2.956075-32.323623 30.642717-32.323623 56.416604z" fill="#F2A764" /></svg>