<?xml version="1.0" standalone="no"?><!DOCTYPE svg PUBLIC "-//W3C//DTD SVG 1.1//EN" "http://www.w3.org/Graphics/SVG/1.1/DTD/svg11.dtd"><svg class="icon" width="200px" height="200.00px" viewBox="0 0 1024 1024" version="1.1" xmlns="http://www.w3.org/2000/svg"><path d="M975.698113 743.501283v60.068226a78.055849 78.055849 0 0 1-78.055849 78.055849H126.357736a78.055849 78.055849 0 0 1-78.055849-78.055849v-60.068226c0-7.052075 5.718943-12.771019 12.771019-12.771019H962.946415c7.052075 0 12.771019 5.718943 12.771019 12.771019z" fill="#474646" /><path d="M975.698113 743.481962v60.087547c0 43.085283-34.970566 78.055849-78.055849 78.055849H126.357736a77.283019 77.283019 0 0 1-67.236227-38.641509c12.558491 8.887547 28.208302 14.104151 44.630944 14.104151h771.284528c43.085283 0 78.055849-34.970566 78.055849-78.055849v-48.301887h9.853585c6.955472 0 12.751698 5.796226 12.751698 12.751698z" fill="#2D2C2C" /><path d="M933.482264 230.883019V730.710943H90.517736V230.883019a88.489057 88.489057 0 0 1 88.489056-88.508377h665.986416a88.489057 88.489057 0 0 1 88.489056 88.489056z" fill="#7979F7" /><path d="M134.279245 622.901132a14.490566 14.490566 0 0 1-14.490566-14.490566v-151.532679a14.490566 14.490566 0 0 1 28.981132 0v151.532679a14.490566 14.490566 0 0 1-14.490566 14.490566zM134.279245 408.382792a14.490566 14.490566 0 0 1-14.490566-14.490566v-13.910943a14.490566 14.490566 0 0 1 28.981132 0v13.910943a14.490566 14.490566 0 0 1-14.490566 14.490566zM494.707925 203.52483h-11.341283a14.490566 14.490566 0 0 1 0-28.981132h11.341283a14.490566 14.490566 0 0 1 0 28.981132zM762.976604 203.52483H555.394415a14.490566 14.490566 0 0 1 0-28.981132H762.976604a14.490566 14.490566 0 0 1 0 28.981132z" fill="#FFFFFF" opacity=".3" /><path d="M933.578868 230.90234v499.827924H90.421132v-33.03849h744.679849a56.165434 56.165434 0 0 0 56.165434-56.165434V178.543094c0-8.69434-1.352453-17.195472-3.670943-25.116981 27.435472 15.070189 45.983396 44.051321 45.983396 77.476227z" fill="#5E5EEF" /><path d="M177.461132 625.528755V266.896906c0-20.750491 16.809057-37.578868 37.578868-37.578868h593.92c20.750491 0 37.578868 16.809057 37.578868 37.578868v358.631849c0 20.750491-16.828377 37.578868-37.578868 37.578868H215.04a37.578868 37.578868 0 0 1-37.578868-37.578868zM546.29434 806.177811a34.29434 34.29434 0 0 1-68.58868 0 34.29434 34.29434 0 0 1 68.58868 0z" fill="#FFFFFF" /><path d="M546.390943 806.274415c0 18.93434-15.649811 34.004528-34.197735 34.004528-12.751698 0-24.150943-6.955472-29.94717-17.195471a34.255698 34.255698 0 0 0 54.098113-27.821887c0-6.182642-1.738868-11.978868-4.636981-17.002264 8.887547 6.182642 14.683774 16.422642 14.683773 28.015094z" fill="#E4E3FF" /><path d="M341.900075 784.016906a14.490566 14.490566 0 0 1-14.490566 14.490566h-112.891169a14.490566 14.490566 0 0 1 0-28.981132h112.891169a14.490566 14.490566 0 0 1 14.490566 14.490566zM166.003925 784.016906a14.490566 14.490566 0 0 1-14.490567 14.490566h-13.872301a14.490566 14.490566 0 0 1 0-28.981132h13.872301a14.490566 14.490566 0 0 1 14.490567 14.490566z" fill="#FFFFFF" opacity=".3" /><path d="M448.724528 314.425962v173.017359c0 14.374642-11.650415 26.025057-26.025056 26.025056H256.77283a26.025057 26.025057 0 0 1-26.025056-26.025056v-173.017359c0-14.374642 11.650415-26.025057 26.025056-26.025056h165.926642c14.374642 0 26.025057 11.650415 26.025056 26.025056z" fill="#5BC658" /><path d="M448.801811 314.503245v172.920755c0 14.490566-11.78566 26.083019-26.083019 26.083019h-165.965283c-11.592453 0-21.639245-7.728302-24.730566-18.547925 1.738868 0.579623 3.670943 0.77283 5.603019 0.772831h165.965283c14.297358 0 26.083019-11.78566 26.083019-26.083019v-173.113963c0-2.511698-0.386415-5.023396-1.352453-7.341886 11.592453 2.318491 20.48 12.751698 20.48 25.310188z" fill="#49A247" /><path d="M759.595472 314.677132v58.580528a13.698415 13.698415 0 0 1-13.698415 13.698415H529.253434a13.698415 13.698415 0 0 1-13.679094-13.698415v-58.580528c0-7.573736 6.124679-13.698415 13.679094-13.698415h216.643623c7.573736 0 13.698415 6.124679 13.698415 13.698415z" fill="#F9B938" /><path d="M759.672755 314.696453v58.541887c0 7.535094-6.182642 13.717736-13.717736 13.717735h-216.778868c-7.535094 0-13.524528-6.182642-13.524528-13.717735v-1.932076h216.392452c7.535094 0 13.717736-5.989434 13.717736-13.717736v-56.609811h0.193208c7.535094 0 13.717736 6.182642 13.717736 13.717736z" fill="#E5A320" /><path d="M789.504 456.278943a10.935547 10.935547 0 0 1-10.935547 10.954868H496.601358a10.935547 10.935547 0 0 1 0-21.890415h281.967095c6.047396 0 10.935547 4.907472 10.935547 10.935547zM789.504 521.273962a10.935547 10.935547 0 0 1-10.935547 10.935547H496.601358a10.935547 10.935547 0 0 1 0-21.890415h281.967095c6.047396 0 10.935547 4.907472 10.935547 10.954868zM789.504 586.24966a10.935547 10.935547 0 0 1-10.935547 10.935548H245.431547a10.935547 10.935547 0 0 1 0-21.871095h533.136906c6.047396 0 10.935547 4.888151 10.935547 10.935547z" fill="#E4E3FF" /><path d="M379.846038 463.736755c9.273962 0 15.785057-9.273962 12.55849-17.968302a56.165434 56.165434 0 0 0-52.74566-36.806038 56.049509 56.049509 0 0 0-52.610415 36.806038c-3.207245 8.69434 3.32317 17.968302 12.577811 17.968302zM367.789887 366.108981c0 15.340679-12.616453 27.937811-27.976453 27.937811a28.111698 28.111698 0 0 1-28.111698-27.937811 28.015094 28.015094 0 0 1 28.111698-27.957132c15.36 0 27.976453 12.442566 27.976453 27.957132z" fill="#FFFFFF" /><path d="M262.878189 401.195472a7.052075 7.052075 0 0 1-7.052076-7.052076v-35.163773a7.052075 7.052075 0 0 1 14.104151 0v35.163773a7.052075 7.052075 0 0 1-7.052075 7.052076zM262.878189 335.331019a7.052075 7.052075 0 0 1-7.052076-7.052076v-6.762264a7.052075 7.052075 0 0 1 14.104151 0v6.762264a7.052075 7.052075 0 0 1-7.052075 7.052076zM621.683925 321.574642a7.052075 7.052075 0 0 1-7.071397 7.052075h-35.163773a7.052075 7.052075 0 0 1 0-14.104151h35.163773c3.902792 0 7.071396 3.149283 7.071397 7.052076zM555.819472 321.574642a7.052075 7.052075 0 0 1-7.052076 7.052075h-6.762264a7.052075 7.052075 0 0 1 0-14.104151h6.762264c3.883472 0 7.052075 3.149283 7.052076 7.052076z" fill="#FFFFFF" opacity=".3" /></svg>