<?xml version="1.0" standalone="no"?><!DOCTYPE svg PUBLIC "-//W3C//DTD SVG 1.1//EN" "http://www.w3.org/Graphics/SVG/1.1/DTD/svg11.dtd"><svg class="icon" width="200px" height="200.00px" viewBox="0 0 1024 1024" version="1.1" xmlns="http://www.w3.org/2000/svg"><path d="M659.398038 277.368755h-294.834717V164.110491a53.190038 53.190038 0 0 1 53.132075-53.132076h188.570566a53.190038 53.190038 0 0 1 53.132076 53.132076z m-240.736604-48.301887h186.638491V169.906717a4.830189 4.830189 0 0 0-4.830189-4.830189h-176.978113a4.830189 4.830189 0 0 0-4.830189 4.830189z" fill="#474646" /><path d="M605.299925 203.52483v25.542038h-186.638491v-25.542038h-54.098113v73.843925h294.834717v-73.843925z" fill="#2D2C2C" /><path d="M934.351698 572.396679v225.666415c0 63.372075-51.586415 114.958491-114.95849 114.958491H204.606792c-63.372075 0-114.958491-51.586415-114.95849-114.958491v-225.666415c25.696604 18.547925 57.189434 29.367547 91.193962 29.367547h662.315472c34.004528 0 65.497358-10.819623 91.193962-29.367547z" fill="#A2A2F9" /><path d="M147.610566 775.148679a14.490566 14.490566 0 0 1-14.490566-14.490566v-63.797132a14.490566 14.490566 0 0 1 28.981132 0v63.816453a14.490566 14.490566 0 0 1-14.490566 14.490566z" fill="#FFFFFF" opacity=".3" /><path d="M934.351698 572.396679v28.787925c-27.242264 14.490566-58.348679 22.798491-91.193962 22.79849H180.842264c-32.845283 0-63.951698-8.307925-91.193962-22.79849v-28.787925c25.696604 18.547925 57.189434 29.367547 91.193962 29.367547h662.315472c34.004528 0 65.497358-10.819623 91.193962-29.367547zM934.351698 752.659321v45.403773c0 63.372075-51.586415 114.958491-114.95849 114.958491H204.606792c-63.372075 0-114.958491-51.586415-114.95849-114.958491v-45.403773c0 63.372075 51.586415 114.958491 114.95849 114.95849h614.786416c63.372075 0 114.958491-51.586415 114.95849-114.95849z" fill="#7979F7" /><path d="M999.076226 327.795925v118.049811c0 86.170566-69.747925 155.918491-155.91849 155.91849H180.842264c-86.170566 0-155.918491-69.747925-155.91849-155.91849v-118.049811a107.230189 107.230189 0 0 1 107.230188-107.230189h759.692076a107.230189 107.230189 0 0 1 107.230188 107.230189z" fill="#FC6559" /><path d="M82.866717 387.439094a14.490566 14.490566 0 0 1-14.490566-14.490566v-45.133283a63.874415 63.874415 0 0 1 63.797132-63.797132h70.40483a14.490566 14.490566 0 0 1 0 28.981132H132.153962c-19.185509 0-34.816 15.630491-34.816 34.816v45.133283a14.490566 14.490566 0 0 1-14.490566 14.490566zM707.178264 292.380981h-19.784453a14.490566 14.490566 0 0 1 0-28.981132h19.784453a14.490566 14.490566 0 0 1 0 28.981132zM879.287547 292.380981h-106.302792a14.490566 14.490566 0 0 1 0-28.981132h106.302792a14.490566 14.490566 0 0 1 0 28.981132z" fill="#FFFFFF" opacity=".3" /><path d="M999.076226 327.795925v118.049811c0 86.170566-69.747925 155.918491-155.91849 155.91849H180.842264c-56.416604 0-105.684528-29.94717-132.926792-74.578113 23.764528 14.683774 51.586415 22.991698 81.340377 22.991698h684.727547c73.612075 0 133.506415-59.701132 133.506415-133.506415v-140.461887c0-16.229434-3.670943-31.686038-10.24-45.403773 36.516226 17.002264 61.826415 54.098113 61.826415 96.990189z" fill="#F05543" /><path d="M575.565283 601.764226v3.477736c0 6.569057-0.966038 12.944906-2.898113 18.741132a63.855094 63.855094 0 0 1-60.66717 44.824151c-28.401509 0-52.552453-18.93434-60.66717-44.824151-1.932075-5.796226-2.898113-12.172075-2.898113-18.741132v-3.477736z" fill="#7979F7" /><path d="M575.565283 559.838189v41.926037h-127.130566v-41.926037c0-34.970566 28.594717-63.565283 63.565283-63.565283s63.565283 28.594717 63.565283 63.565283z" fill="#F05543" /><path d="M556.205887 559.87683v45.30717a44.205887 44.205887 0 1 1-88.411774 0v-45.30717a44.205887 44.205887 0 1 1 88.411774 0z" fill="#474646" /><path d="M556.244528 559.838189v45.403773c0 24.344151-19.900377 44.244528-44.244528 44.244529-12.172075 0-23.184906-5.023396-31.299623-12.944906-1.932075-1.932075-3.864151-4.250566-5.409811-6.569057a44.244528 44.244528 0 0 0 62.406038-40.380377v-45.403774c0-9.080755-2.898113-17.581887-7.535095-24.537358 4.830189 2.125283 9.273962 5.216604 13.138114 8.887547 7.921509 8.114717 12.944906 19.127547 12.944905 31.299623z" fill="#2D2C2C" /></svg>