<?xml version="1.0" standalone="no"?><!DOCTYPE svg PUBLIC "-//W3C//DTD SVG 1.1//EN" "http://www.w3.org/Graphics/SVG/1.1/DTD/svg11.dtd"><svg class="icon" width="200px" height="200.00px" viewBox="0 0 1024 1024" version="1.1" xmlns="http://www.w3.org/2000/svg"><path d="M560.611019 782.973585v38.40966H499.248302v-38.40966a30.681358 30.681358 0 0 1 61.362717 0z" fill="#FC6559" /><path d="M499.248302 784.287396h61.362717v37.11517H499.248302z" fill="#F05543" /><path d="M399.746415 848.760755L205.57283 530.509283l326.172981-291.163774 38.602868 43.239849L280.208906 541.560755l168.998641 277.00166z" fill="#E4E3FF" /><path d="M252.367698 535.977057m-79.079849 0a79.079849 79.079849 0 1 0 158.159698 0 79.079849 79.079849 0 1 0-158.159698 0Z" fill="#474646" /><path d="M331.466868 536.035019c0 43.664906-35.356981 79.021887-79.021887 79.021887-26.083019 0-49.074717-12.365283-63.178868-31.686038 13.138113 10.046792 29.560755 16.036226 47.335849 16.036226a79.021887 79.021887 0 0 0 63.178868-126.744151c19.320755 14.490566 31.686038 37.482264 31.686038 63.372076z" fill="#2D2C2C" /><path d="M252.367698 535.977057m-31.164377 0a31.164377 31.164377 0 1 0 62.328754 0 31.164377 31.164377 0 1 0-62.328754 0Z" fill="#FFFFFF" /><path d="M652.152755 884.310943v17.369359H196.781887v-17.369359a89.938113 89.938113 0 0 1 89.938113-89.938113H562.233962a89.938113 89.938113 0 0 1 89.918793 89.938113z" fill="#E4E3FF" /><path d="M652.075472 884.272302v17.369358H196.743245v-19.417358h364.234868c37.675472 0 62.077585-40.979321 42.930717-73.418868a32.26566 32.26566 0 0 0-4.521056-6.144 89.165283 89.165283 0 0 1 52.649056 81.610868z" fill="#D0D0F7" /><path d="M696.957585 917.136906v43.02732a15.456604 15.456604 0 0 1-15.456604 15.456604H167.43366a15.456604 15.456604 0 0 1-15.456603-15.456604v-43.02732a15.456604 15.456604 0 0 1 15.456603-15.456604h514.067321a15.456604 15.456604 0 0 1 15.456604 15.456604z" fill="#7979F7" /><path d="M697.015547 943.123321v17.002264c0 8.501132-6.955472 15.456604-15.456604 15.456604H167.43366c-8.501132 0-15.456604-6.955472-15.456603-15.456604v-17.002264c0 8.501132 6.955472 15.456604 15.456603 15.456604h514.125283c8.501132 0 15.456604-6.955472 15.456604-15.456604z" fill="#5E5EEF" /><path d="M572.686491 110.205585l-102.148831 102.129509c-14.761057 14.780377-22.180226 35.820679-18.335396 56.339321 12.655094 67.622642 51.103396 145.91034 110.901132 220.739623 22.122264 27.705962 63.603925 29.850566 88.682264 4.791547L854.556981 291.434264c25.059019-25.07834 22.914415-66.56-4.791547-88.682264-74.829283-59.797736-153.116981-98.246038-220.739623-110.901132-20.518642-3.84483-41.558943 3.57434-56.33932 18.354717z" fill="#A2A2F9" /><path d="M854.479698 291.434264l-202.674717 202.674717c-25.116981 25.116981-66.656604 22.991698-88.682264-4.636981-59.89434-74.964528-98.342642-153.213585-110.901132-220.836226-2.898113-15.649811 0.579623-31.49283 9.273962-44.630944 12.751698 67.429434 51.006792 145.485283 110.707925 220.063396 22.02566 27.628679 63.565283 29.753962 88.682264 4.830189l202.674717-202.867924c2.704906-2.704906 5.216604-5.796226 7.341887-8.887548 3.670943 18.93434-1.54566 39.41434-16.422642 54.291321z" fill="#7979F7" /><path d="M643.110642 149.871094a272.152151 272.152151 0 0 0-7.67034-2.028679 14.490566 14.490566 0 0 1-10.510491-17.581887 14.606491 14.606491 0 0 1 17.601208-10.529811c2.782189 0.714868 5.564377 1.449057 8.365887 2.221887a14.490566 14.490566 0 0 1-7.786264 27.91849zM739.656453 191.603925a474.575698 474.575698 0 0 0-59.89434-29.270944 14.490566 14.490566 0 1 1 10.74234-26.913811c20.866415 8.327245 42.254491 18.799094 63.603924 31.067773a14.490566 14.490566 0 1 1-14.451924 25.116982z" fill="#FFFFFF" opacity=".3" /><path d="M583.795925 101.511245c-4.057358 2.318491-7.728302 5.409811-11.012831 8.69434l-102.206792 102.206792c-3.284528 3.284528-6.375849 6.955472-8.69434 11.012831l-28.015094-28.015095a86.286491 86.286491 0 0 1 0-121.913962c16.809057-16.809057 38.834717-25.116981 60.860377-25.116981 22.218868 0 44.244528 8.307925 61.053585 25.116981z" fill="#A2A2F9" /><path d="M450.154264 101.994264a9.660377 9.660377 0 0 1 0.270491-13.659773 64.183547 64.183547 0 0 1 66.019019-13.601812 9.660377 9.660377 0 1 1-6.800906 18.084227 44.592302 44.592302 0 0 0-45.82883 9.428528 9.660377 9.660377 0 0 1-13.659774-0.25117z" fill="#FFFFFF" opacity=".3" /><path d="M583.795925 101.511245c-4.057358 2.318491-7.728302 5.409811-11.012831 8.69434l-102.206792 102.206792c-3.284528 3.284528-6.375849 6.955472-8.69434 11.012831l-28.015094-28.015095a86.769509 86.769509 0 0 1-23.378113-79.215094c2.511698 18.161509 10.433208 35.356981 24.344151 49.267924a38.602868 38.602868 0 0 0 54.928905-0.231849 16692.74566 16692.74566 0 0 1 78.384302-79.36966z" fill="#7979F7" /><path d="M810.950038 345.513057a81.263094 81.263094 0 0 1 0.135245 114.765283 81.301736 81.301736 0 0 1-114.881208 0 110.746566 110.746566 0 0 1-5.023396-5.545057l114.224302-114.224302c1.990038 1.719547 3.960755 3.419774 5.545057 5.023396z" fill="#F9B938" /><path d="M776.810264 480.700377a82.035925 82.035925 0 0 1-80.664151-20.344754 701.150189 701.150189 0 0 0-5.042717-5.603019l114.282264-114.301585c2.048 1.680906 3.922113 3.555019 5.603019 5.042717 2.241208 2.241208 4.289208 4.675623 6.163321 7.110038l-63.314113 63.430037c-21.388075 21.407396-10.626415 58.773736 19.127547 64.202868 1.352453 0.25117 2.627623 0.405736 3.864151 0.463698z" fill="#E5A320" /><path d="M395.051472 850.731472H320.917736a9.660377 9.660377 0 1 1 0-19.320755h74.133736a9.660377 9.660377 0 1 1 0 19.320755zM281.406792 850.731472h-15.340679a9.660377 9.660377 0 1 1 0-19.320755h15.340679a9.660377 9.660377 0 1 1 0 19.320755z" fill="#FFFFFF" opacity=".5" /></svg>