<?xml version="1.0" standalone="no"?><!DOCTYPE svg PUBLIC "-//W3C//DTD SVG 1.1//EN" "http://www.w3.org/Graphics/SVG/1.1/DTD/svg11.dtd"><svg class="icon" width="200px" height="200.00px" viewBox="0 0 1024 1024" version="1.1" xmlns="http://www.w3.org/2000/svg"><path d="M512 240.582038c-53.016151 0-96.140075-43.123925-96.140075-96.140076S458.983849 48.301887 512 48.301887s96.140075 43.123925 96.140075 96.140075-43.123925 96.140075-96.140075 96.140076z m0-173.596981c-42.698868 0-77.476226 34.738717-77.476226 77.456905s34.777358 77.456906 77.476226 77.456906 77.456906-34.758038 77.456906-77.476226-34.758038-77.437585-77.476227-77.437585z" fill="#474646" /><path d="M575.835774 72.704a95.058113 95.058113 0 0 1 24.479396 63.893736c0 52.861585-43.162566 96.024151-96.217359 96.024151a94.594415 94.594415 0 0 1-63.700528-24.479396 94.111396 94.111396 0 0 0 71.544755 32.497509 96.313962 96.313962 0 0 0 96.217358-96.217358c0-28.556075-12.519849-54.156075-32.323622-71.718642z" fill="#2D2C2C" /><path d="M544.594113 213.938717v35.105811a369.451472 369.451472 0 0 0-32.497509-1.487698c-11.01283 0-22.044981 0.560302-32.690717 1.487698v-35.105811c0-17.92966 14.567849-32.51683 32.497509-32.51683 18.122868 0 32.690717 14.58717 32.690717 32.51683z" fill="#F9B938" /><path d="M544.594113 213.938717v35.105811a369.451472 369.451472 0 0 0-32.497509-1.487698c-11.01283 0-22.044981 0.560302-32.690717 1.487698v-14.761056a338.538264 338.538264 0 0 1 19.939019-0.540981c17.65917 0 32.169057-13.756377 32.169056-31.415548v-2.221886c0-5.042717-1.120604-9.892226-3.361811-14.200755 9.911547 5.409811 16.441962 15.88166 16.441962 28.015094z" fill="#E5A320" /><path d="M876.060981 611.675774c0 200.877887-162.873962 363.964377-363.964377 363.964377-201.090415 0-364.157585-163.06717-364.157585-363.964377 0-201.090415 163.06717-364.176906 364.157585-364.176906s363.964377 163.086491 363.964377 364.176906z" fill="#A2A2F9" /><path d="M188.300075 609.956226H187.990943a9.370566 9.370566 0 0 1-9.022792-9.660377 332.162415 332.162415 0 0 1 190.927698-290.217057 9.370566 9.370566 0 0 1 7.979472 16.88634 313.498566 313.498566 0 0 0-180.224 273.968302 9.351245 9.351245 0 0 1-9.351246 9.022792zM437.595774 305.596377a9.331925 9.331925 0 0 1-2.125283-18.432c17.060226-4.018717 34.545509-6.684981 51.953509-7.979471 4.636981-0.289811 9.621736 3.477736 9.98883 8.655698a9.370566 9.370566 0 0 1-8.636377 9.98883c-16.422642 1.197887-32.922566 3.728906-49.055396 7.496453a8.636377 8.636377 0 0 1-2.125283 0.27049z" fill="#FFFFFF" opacity=".3" /><path d="M876.02234 611.637132c0 200.993811-162.873962 364.060981-363.887095 364.060981-105.356075 0-200.240302-44.824151-266.935547-116.368905a362.921057 362.921057 0 0 0 239.287547 89.648301c200.993811 0 363.887094-163.06717 363.887095-364.060981 0-96.217358-37.347019-183.624453-98.439246-248.812679a363.481358 363.481358 0 0 1 126.087246 275.513962z" fill="#7979F7" /><path d="M801.424906 611.656453c0 159.686038-129.487698 289.328302-289.347623 289.328302-159.840604 0-289.482868-129.642264-289.482868-289.328302 0-159.859925 129.642264-289.502189 289.482868-289.502189 159.859925 0 289.328302 129.642264 289.328302 289.502189z" fill="#E4E3FF" /><path d="M248.368302 629.740679c0 92.102038 43.162566 174.08 110.224906 226.960906-81.630189-51.006792-135.998792-141.775698-135.998793-245.064453 0-159.917887 129.642264-289.54083 289.54083-289.54083a286.140377 286.140377 0 0 1 180.455849 63.314113 286.410868 286.410868 0 0 0-154.855849-45.017358c-159.724679 0-289.366943 129.642264-289.366943 289.347622z" fill="#D0D0F7" /><path d="M554.022642 611.57917a41.984 41.984 0 0 1-83.94868 0c0-19.513962 29.715321-114.533434 39.105208-144.094189a2.956075 2.956075 0 0 1 5.64166 0c9.428528 29.560755 39.201811 124.580226 39.201812 144.094189z" fill="#FC6559" /><path d="M553.984 611.637132a41.926038 41.926038 0 0 1-42.041962 41.829434c-12.886943 0-24.460075-5.796226-32.130415-14.934943a41.810113 41.810113 0 0 0 57.730415-38.680151c0-15.688453-19.610566-81.436981-31.937208-121.411623 1.487698-4.308528 2.608302-8.037434 3.535698-11.01283 0.946717-2.801509 4.86883-2.801509 5.603019 0 9.544453 29.696 39.221132 124.580226 39.221132 144.210113z" fill="#F05543" /><path d="M512 404.769811a9.331925 9.331925 0 0 1-9.351245-9.351245V371.538113a9.331925 9.331925 0 1 1 18.68317 0v23.861132a9.331925 9.331925 0 0 1-9.331925 9.331925zM429.287849 411.628679l-8.153358-22.412075a9.312604 9.312604 0 1 1 17.543245-6.375849l8.153358 22.412075a9.312604 9.312604 0 1 1-17.543245 6.375849zM365.896453 451.989736l-15.340679-18.277434a9.331925 9.331925 0 1 1 14.297358-12.01751l15.340679 18.277434a9.331925 9.331925 0 1 1-14.297358 12.01751zM320.125585 511.574943l-20.673208-11.920905a9.312604 9.312604 0 1 1 9.351246-16.171472l20.673207 11.940226a9.312604 9.312604 0 1 1-9.351245 16.152151zM299.123925 583.390189a8.327245 8.327245 0 0 1-1.642265-0.154566l-23.494037-4.134642a9.331925 9.331925 0 1 1 3.245886-18.393358l23.494038 4.134641a9.331925 9.331925 0 0 1-1.603622 18.547925zM275.591245 662.585962a9.351245 9.351245 0 0 1-1.603622-18.547924l23.494037-4.115321a9.331925 9.331925 0 1 1 3.245887 18.374038l-23.494038 4.153962a8.327245 8.327245 0 0 1-1.642264 0.135245zM296.051925 736.275321a9.312604 9.312604 0 0 1 3.400452-12.751698l20.673208-11.959548a9.331925 9.331925 0 1 1 9.331924 16.171472l-20.673207 11.940227a9.331925 9.331925 0 0 1-12.751698-3.400453zM351.695698 802.584151a9.331925 9.331925 0 0 1-1.159245-13.138113l15.36-18.277434a9.331925 9.331925 0 1 1 14.297358 11.998188l-15.340679 18.277434a9.331925 9.331925 0 0 1-13.138113 1.159246zM426.718189 845.901283a9.312604 9.312604 0 0 1-5.603019-11.978868l8.172679-22.412075a9.312604 9.312604 0 1 1 17.543245 6.375849l-8.153358 22.431396a9.331925 9.331925 0 0 1-11.978868 5.603019zM512 860.952151a9.331925 9.331925 0 0 1-9.351245-9.331925v-23.880452a9.331925 9.331925 0 1 1 18.68317 0v23.880452a9.331925 9.331925 0 0 1-9.331925 9.331925zM585.322264 840.317585l-8.172679-22.412076a9.331925 9.331925 0 1 1 17.562566-6.375849l8.172679 22.412076a9.331925 9.331925 0 1 1-17.562566 6.375849zM659.146868 801.444226l-15.36-18.277434a9.331925 9.331925 0 1 1 14.297358-11.998188l15.36 18.277434a9.331925 9.331925 0 1 1-14.297358 11.998188zM715.196377 739.675774l-20.673207-11.940227a9.312604 9.312604 0 1 1 9.351245-16.171472l20.673208 11.959548a9.312604 9.312604 0 1 1-9.351246 16.152151zM748.389434 662.585962c-1.410415 0 0.367094 0.154566-25.116981-4.289207a9.331925 9.331925 0 1 1 3.226566-18.374038l23.494038 4.134641a9.331925 9.331925 0 0 1-1.603623 18.547925zM724.856755 583.390189a9.351245 9.351245 0 0 1-1.603623-18.547925l23.494038-4.134641a9.331925 9.331925 0 1 1 3.245887 18.393358l-23.494038 4.134642a8.327245 8.327245 0 0 1-1.642264 0.154566zM691.103396 508.174491a9.312604 9.312604 0 0 1 3.419774-12.751699l20.673207-11.940226a9.312604 9.312604 0 1 1 9.331925 16.171472l-20.673208 11.920905a9.312604 9.312604 0 0 1-12.751698-3.400452zM644.946113 453.12966a9.331925 9.331925 0 0 1-1.159245-13.138113l15.36-18.296755a9.331925 9.331925 0 0 1 14.297358 12.01751l-15.340679 18.277434a9.331925 9.331925 0 0 1-13.157434 1.159245zM582.733283 417.212377a9.331925 9.331925 0 0 1-5.583698-11.978868l8.172679-22.412075a9.331925 9.331925 0 1 1 17.543245 6.375849l-8.153358 22.431396a9.331925 9.331925 0 0 1-11.978868 5.603019z" fill="#474646" /><path d="M592.64483 709.361509v32.536151a13.254038 13.254038 0 0 1-13.234717 13.254038h-134.723622a13.254038 13.254038 0 0 1-13.254038-13.254038v-32.536151c0-7.322566 5.931472-13.254038 13.254038-13.254037h134.723622c7.303245 0 13.234717 5.931472 13.234717 13.254037z" fill="#F9B938" /><path d="M592.470943 707.448755a16.074868 16.074868 0 0 0-5.235924-0.927397h-134.684981a13.138113 13.138113 0 0 0-13.273359 13.080151v32.690717c0 0.560302 0 1.294491 0.193208 1.854793a13.427925 13.427925 0 0 1-8.037434-12.326642v-32.497509c0-7.283925 5.989434-13.254038 13.273358-13.254038h134.665661c6.742943 0 12.172075 5.023396 13.099471 11.399245z" fill="#E5A320" /></svg>