<?xml version="1.0" standalone="no"?><!DOCTYPE svg PUBLIC "-//W3C//DTD SVG 1.1//EN" "http://www.w3.org/Graphics/SVG/1.1/DTD/svg11.dtd"><svg class="icon" width="200px" height="200.00px" viewBox="0 0 1024 1024" version="1.1" xmlns="http://www.w3.org/2000/svg"><path d="M512.850113 57.904302c-101.356679 0-185.807698 78.171774-192.995019 179.257962-3.999396 56.435925-6.144 163.878642-5.796226 187.469283 0 0.618264 0 1.391094 0.154566 2.028679 1.159245 46.814189 28.749283 87.638943 75.466868 87.638944h245.450868c47.065358 0 75.486189-41.21117 75.486188-88.102642v-1.564981c-0.309132-28.594717-1.738868-132.424453-4.521056-183.276679-5.62234-102.786415-90.285887-183.450566-193.246189-183.450566z" fill="#FC6559" /><path d="M710.617358 424.70883v1.545661c0 46.678943-28.16966 88.102642-75.54415 88.102641h-245.373585c-46.620981 0-74.365585-40.96-75.544151-87.716226v-1.932076c-0.193208-7.728302 0-24.537358 0.386415-45.596981 3.864151 43.51034 31.087094 80.181132 75.157736 80.181132h245.373585c43.181887 0 70.559396-34.390943 74.964528-76.123773 0.193208 18.161509 0.386415 33.038491 0.579622 41.539622z" fill="#F05543" /><path d="M497.123019 96.835623c1.54566 7.921509-3.477736 15.649811-11.399245 17.195471-4.250566 0.77283-8.307925 1.932075-12.558491 3.091321a14.606491 14.606491 0 0 1-17.968302-9.853585c-2.125283-7.728302 2.125283-15.649811 9.853585-17.968302 4.830189-1.54566 9.853585-2.704906 14.876981-3.670943 7.921509-1.54566 15.456604 3.477736 17.195472 11.206038zM440.899623 114.031094c4.250566 6.762264 2.511698 15.649811-4.250566 20.093585-21.059623 13.524528-38.061887 32.652075-49.074717 54.870944-2.704906 5.023396-7.728302 7.921509-13.138114 7.921509-2.125283 0-4.250566-0.386415-6.375849-1.352453a14.741736 14.741736 0 0 1-6.569056-19.513962c13.524528-26.855849 34.004528-49.847547 59.314717-66.270189 6.762264-4.443774 15.649811-2.511698 20.093585 4.250566z" fill="#FFFFFF" opacity=".3" /><path d="M842.674717 758.146415c0 42.621585-24.05434 77.012528-53.75034 77.012528-29.715321 0-53.76966-34.390943-53.76966-77.012528 0-42.621585 24.05434-77.205736 53.76966-77.205736 29.696 0 53.75034 34.584151 53.75034 77.205736zM181.325283 758.146415c0 42.621585 24.05434 77.012528 53.75034 77.012528 29.715321 0 53.76966-34.390943 53.76966-77.012528 0-42.621585-24.05434-77.205736-53.76966-77.205736-29.696 0-53.75034 34.584151-53.75034 77.205736z" fill="#B75F25" /><path d="M763.556226 641.101283v37.289057H261.023396v-37.289057c0-14.490566 1.932075-28.401509 5.796227-41.539623 4.830189-18.741132 13.331321-35.743396 24.730566-50.813585 12.172075-16.036226 27.242264-29.94717 44.437736-40.380377a145.678491 145.678491 0 0 1 57.769056-20.48c1.352453-0.193208 9.660377-0.386415 22.412076-0.386415h1.352452c5.409811-0.193208 11.78566-0.193208 18.547925-0.193208 43.085283-0.386415 109.355472-0.386415 152.247547 0 6.955472 0 13.331321 0 18.93434 0.193208h0.966037c12.944906 0 21.446038 0.193208 22.605284 0.386415 23.184906 3.091321 44.630943 11.592453 63.178867 24.150944 35.743396 20.673208 69.554717 70.713962 69.554717 129.062641z" fill="#5BC658" /><path d="M607.251321 487.501283l-0.193208 1.352453c-17.388679 87.909434-86.170566 137.370566-89.068679 139.495849l-5.603019 3.864151-5.603019-3.864151c-2.898113-2.125283-71.873208-51.586415-89.068679-139.495849l-0.193208-1.352453c5.409811-0.193208 11.78566-0.193208 18.547925-0.193208 43.085283-0.386415 109.355472-0.386415 152.247547 0 6.955472 0 13.331321 0 18.93434 0.193208z" fill="#E4E3FF" /><path d="M597.590943 486.92166c-16.809057 85.204528-85.204528 133.506415-85.204528 133.506415s-68.588679-48.301887-85.204528-133.506415h28.787924v-43.858113c17.388679 12.365283 33.811321 19.513962 56.223397 19.513962 22.412075 0 39.027925-7.148679 56.416603-19.513962v43.858113z" fill="#F7C9A9" /><path d="M537.116981 598.402415c15.649811-21.446038 37.289057-83.658868 37.289057-83.658868h-12.809661a16.190792 16.190792 0 0 1-16.190792-16.190792c0-11.631094-43.645585-8.153358-56.416604-8.153359-12.558491 0-23.184906-2.125283-33.03849-6.375849v-40.96c17.388679 12.365283 33.811321 19.513962 56.223396 19.513962 22.412075 0 39.027925-7.148679 56.416604-19.513962v43.858113h28.981132c-10.24 51.393208-39.221132 89.455094-60.473963 111.480755z" fill="#E8AA80" /><path d="M324.492075 571.179472a9.930868 9.930868 0 0 1-0.463698-14.026868 167.027925 167.027925 0 0 1 41.481661-32.362264 9.950189 9.950189 0 0 1 9.48649 17.42732c-11.437887 6.066717-24.904453 16.113509-36.477585 28.498114a9.930868 9.930868 0 0 1-14.026868 0.463698z" fill="#FFFFFF" opacity=".3" /><path d="M763.633509 641.120604v37.289056H260.984755v-37.289056c0-14.471245 1.970717-28.343547 5.738264-41.636227h422.15849c18.644528 0.386415 23.590642-15.649811 22.605283-35.878641-5.158642-24.788528-6.144-30.140377-17.446641-51.567094 37.926642 23.223547 69.593358 72.240302 69.593358 129.081962z" fill="#49A247" /><path d="M702.927698 558.176604c-35.936604 6.878189-129.352453 30.063094-190.618566 93.087396h205.379623v-80.760755a12.481208 12.481208 0 0 0-14.761057-12.326641zM321.690566 558.176604c35.917283 6.878189 129.352453 30.063094 190.618566 93.087396h-205.379623v-80.760755c0-7.844226 7.071396-13.795019 14.761057-12.326641z" fill="#C2C2EF" /><path d="M765.217811 623.712604v-21.75517c0-7.090717-5.776906-12.751698-12.886943-12.519849-31.22234 1.081962-117.50883 9.235321-240.021736 61.826415zM259.381132 623.712604v-21.75517c0-7.090717 5.796226-12.751698 12.906264-12.519849 31.22234 1.081962 117.489509 9.235321 240.021736 61.826415z" fill="#D0D0F7" /><path d="M512.309132 651.264v314.831698L753.702642 935.897358a34.680755 34.680755 0 0 0 30.333584-32.729358l12.210717-251.13117a34.680755 34.680755 0 0 0-39.588226-35.994566z" fill="#5E5EEF" /><path d="M512.309132 651.264v314.831698L270.915623 935.897358a34.680755 34.680755 0 0 1-30.333585-32.729358l-12.210717-251.13117a34.680755 34.680755 0 0 1 39.588226-35.994566z" fill="#7979F7" /><path d="M793.928453 730.266566v81.765434h-35.279698a10.317283 10.317283 0 0 1-10.355925-10.143396c0-5.699623 4.636981-10.355925 10.355925-10.355925h-6.569057a10.008151 10.008151 0 0 1-10.124075-10.143396c0-5.699623 4.443774-10.336604 10.143396-10.336604h-7.399849c-5.699623 0-10.355925-4.443774-10.355925-10.143396s4.636981-10.143396 10.355925-10.143396h7.399849a10.201358 10.201358 0 0 1-10.143396-10.355925c0-5.487094 4.443774-10.143396 10.143396-10.143396z" fill="#F2A764" /><path d="M837.651321 764.715472c0 17.311396-4.443774 33.579472-11.824302 40.96a34.29434 34.29434 0 0 1-20.093585 6.356528h-47.084679a10.317283 10.317283 0 0 1-10.355925-10.143396c0-5.699623 4.636981-10.355925 10.355925-10.355925h-6.569057a10.008151 10.008151 0 0 1-10.124075-10.143396c0-5.699623 4.443774-10.336604 10.143396-10.336604h-7.399849c-5.699623 0-10.355925-4.443774-10.355925-10.143396s4.636981-10.143396 10.355925-10.143396h7.399849a10.201358 10.201358 0 0 1-10.143396-10.355925c0-5.487094 4.443774-10.143396 10.143396-10.143396h40.341736l1.062641-21.967698h11.824302c22.817811 2.956075 32.323623 30.623396 32.323623 56.416604zM186.348679 764.715472c0 17.311396 4.443774 33.579472 11.824302 40.96 5.931472 4.250566 12.886943 6.356528 20.093585 6.356528h47.084679c5.718943 0 10.355925-4.636981 10.355925-10.143396a10.375245 10.375245 0 0 0-10.355925-10.355925h6.569057c5.699623 0 10.124075-4.443774 10.124075-10.143396a10.182038 10.182038 0 0 0-10.143396-10.336604h7.399849c5.699623 0 10.355925-4.443774 10.355925-10.143396s-4.636981-10.143396-10.355925-10.143396h-7.399849c5.718943 0 10.143396-4.636981 10.143396-10.355925a10.143396 10.143396 0 0 0-10.143396-10.143396h-40.341736l-1.062641-21.967698h-11.824302c-22.817811 2.956075-32.323623 30.623396-32.323623 56.416604z" fill="#F2A764" /><path d="M649.177358 239.673962v103.907019c0 76.27834-62.406038 142.664453-138.645735 141.717736a136.211321 136.211321 0 0 1-94.96151-40.071245 136.597736 136.597736 0 0 1-40.071245-96.835623v-102.187472c0-7.206642 6.762264-12.558491 13.756377-10.819622 42.041962 10.607094 84.895396-0.637585 112.156981-28.246944a11.244679 11.244679 0 0 1 12.886944-2.627622c17.465962 8.307925 64.26083 27.280906 122.764075 24.015698a11.283321 11.283321 0 0 1 12.114113 11.148075z" fill="#F7C9A9" /><path d="M649.216 332.432906v16.016905a136.926189 136.926189 0 0 1-136.868226 136.848906 136.327245 136.327245 0 0 1-96.700378-40.032604 136.810264 136.810264 0 0 1-40.051924-96.816302v-16.036226c0 37.791396 15.302038 71.969811 40.051924 96.835623a136.327245 136.327245 0 0 0 96.700378 40.032603 136.926189 136.926189 0 0 0 136.868226-136.848905z" fill="#F0B68E" /><path d="M649.177358 254.357736v102.013585a51.084075 51.084075 0 0 0 50.040755-51.006793 51.084075 51.084075 0 0 0-50.040755-51.006792zM375.55683 254.357736v102.013585a51.084075 51.084075 0 0 1-50.040755-51.006793 51.084075 51.084075 0 0 1 50.040755-51.006792z" fill="#F7C9A9" /><path d="M699.179472 305.325887c0 27.841208-22.218868 50.42717-49.963472 51.026113v-9.428528a51.084075 51.084075 0 0 0 49.712302-45.906114c0.135245 1.429736 0.25117 2.859472 0.25117 4.308529zM375.595472 346.923472v9.428528a51.122717 51.122717 0 0 1-50.079397-51.026113c0-1.449057 0.115925-2.878792 0.23185-4.308529a51.2 51.2 0 0 0 49.847547 45.906114z" fill="#F0B68E" /><path d="M531.745811 361.935698c4.096 5.12 3.670943 13.118792-0.367094 19.030944-3.864151 6.163321-11.437887 9.911547-18.992302 10.046792-7.612377-0.096604-15.205434-3.864151-19.069585-10.046792-4.057358-5.89283-4.443774-13.910943-0.328453-19.030944 4.096 5.042717 7.844226 7.148679 11.012831 8.404528 3.284528 1.062642 5.796226 1.487698 8.346566 1.352453 2.608302 0.135245 5.12-0.270491 8.404528-1.352453 3.168604-1.255849 6.91683-3.361811 10.993509-8.404528z" fill="#E8AA80" /><path d="M589.862642 322.231547a18.547925 18.547925 0 0 1-18.509284 18.567245c-10.220679 0-18.567245-8.346566-18.567245-18.567245s8.346566-18.567245 18.567245-18.567245a18.547925 18.547925 0 0 1 18.509284 18.547924zM591.698113 295.337057h-40.766792a7.245283 7.245283 0 0 1 0-14.490566h40.766792a7.245283 7.245283 0 0 1 0 14.490566zM471.948075 322.231547a18.547925 18.547925 0 0 1-18.509283 18.567245c-10.220679 0-18.547925-8.346566-18.547924-18.567245s8.327245-18.567245 18.547924-18.567245a18.547925 18.547925 0 0 1 18.509283 18.547924zM473.783547 295.337057h-40.747472a7.245283 7.245283 0 0 1 0-14.490566h40.766793a7.245283 7.245283 0 0 1 0 14.490566z" fill="#2D2C2C" /><path d="M476.063396 414.990491c-4.656302 0-7.535094 5.429132-4.636981 9.080754a51.97283 51.97283 0 0 0 81.881359 0.019321c2.898113-3.670943 0.038642-9.100075-4.636982-9.100075z" fill="#E8AA80" /><path d="M666.855849 325.013736a6.762264 6.762264 0 0 1-5.023396-11.302642c5.989434-6.569057 1.371774-15.746415 1.313811-15.823698a6.762264 6.762264 0 0 1 12.03683-6.182641c0.367094 0.714868 8.887547 17.678491-3.34249 31.106415a6.762264 6.762264 0 0 1-4.984755 2.202566z" fill="#F0B68E" /><path d="M359.366038 325.013736a6.723623 6.723623 0 0 1-4.984755-2.202566c-12.191396-13.427925-3.709585-30.391547-3.342491-31.106415a6.762264 6.762264 0 0 1 12.056151 6.144c-0.231849 0.463698-4.521057 9.46717 1.27517 15.843019a6.762264 6.762264 0 0 1-4.984755 11.321962z" fill="#F0B68E" /></svg>