<?xml version="1.0" standalone="no"?><!DOCTYPE svg PUBLIC "-//W3C//DTD SVG 1.1//EN" "http://www.w3.org/Graphics/SVG/1.1/DTD/svg11.dtd"><svg class="icon" width="200px" height="200.00px" viewBox="0 0 1024 1024" version="1.1" xmlns="http://www.w3.org/2000/svg"><path d="M595.427019 306.098717l185.054189-64.492679 66.289509 190.251471-185.034868 64.49268z" fill="#7979F7" /><path d="M768.270491 205.881962l91.193962 261.603019a45.693585 45.693585 0 1 0 86.28649-30.082415L854.556981 175.818868a45.693585 45.693585 0 1 0-86.28649 30.082415z" fill="#F9B938" /><path d="M854.441057 175.780226l91.251924 261.718944a45.693585 45.693585 0 0 1-27.957132 58.155472 45.152604 45.152604 0 0 1-38.564226-4.038038c4.211925-0.25117 8.44317-1.043321 12.597132-2.492378a45.57766 45.57766 0 0 0 28.16966-58.039547L828.705811 169.365736a45.191245 45.191245 0 0 0-19.629886-24.092981 45.481057 45.481057 0 0 1 45.365132 30.507471z" fill="#E5A320" /><path d="M583.602717 505.121811l-19.20483 6.723623-180.436529 62.792453-22.991698 7.921509-54.639094-157.077736 222.420528-77.418264z" fill="#7979F7" /><path d="M520.520453 324.298868l71.293585 204.452226a38.448302 38.448302 0 0 0 72.646037-25.310188L593.14717 298.969358a38.448302 38.448302 0 1 0-72.646038 25.310189z" fill="#F9B938" /><path d="M593.185811 299.008l71.235623 204.374943a38.448302 38.448302 0 0 1-23.687245 49.074717c-12.79034 4.443774-26.353509 1.738868-36.168453-6.066717 5.12 0.289811 10.104755-0.25117 15.205434-2.028679a38.602868 38.602868 0 0 0 23.687245-49.055396l-71.293585-204.52951a37.134491 37.134491 0 0 0-12.886943-17.620528c14.876981 1.024 28.633358 10.76166 33.907924 25.85117z" fill="#E5A320" /><path d="M236.679245 430.698264l66.656604 191.159547a33.676075 33.676075 0 1 0 63.603925-22.180226l-66.656604-191.140227a33.676075 33.676075 0 0 0-63.603925 22.180227z" fill="#F9B938" /><path d="M300.321811 408.537358l66.637283 191.120906c6.182642 17.775094-3.400453 36.786717-20.827773 42.872755a32.613434 32.613434 0 0 1-26.044378-1.816151 33.502189 33.502189 0 0 0 31.299623-44.630943l-66.656604-191.101585a33.811321 33.811321 0 0 0-16.461283-18.972982 33.714717 33.714717 0 0 1 32.072453 22.528z" fill="#E5A320" /><path d="M101.820377 518.144l147.301434-51.335245 41.385057 118.745358-147.301434 51.335245z" fill="#7979F7" /><path d="M780.751698 241.528755l66.328151 190.290113-185.09283 64.531321-7.728302-22.160906 57.537208-20.054943a112.562717 112.562717 0 0 0 69.226264-143.36l-21.542642-61.826415zM528.847698 348.044075l54.716377 156.92317-222.575094 77.592151-7.902189-22.682566 112.234265-39.124528a90.227925 90.227925 0 0 0 55.489207-114.919849l-17.079547-49.036076zM249.257057 466.828075l41.462339 118.919246-147.340075 51.373887-6.723623-19.282114 45.790189-15.958943a85.842113 85.842113 0 0 0 52.784302-109.31683l-6.472453-18.586566z" fill="#5E5EEF" /><path d="M49.808906 532.074264l44.128603 126.550944a26.855849 26.855849 0 0 0 50.697661-17.678491l-44.128604-126.550943a26.855849 26.855849 0 1 0-50.69766 17.67849z" fill="#F9B938" /><path d="M100.564528 514.318491l44.167246 126.686188a26.933132 26.933132 0 0 1-16.615849 34.139774 26.295547 26.295547 0 0 1-26.198944-5.216604c4.076679 0.830792 8.269283 0.386415 12.423245-1.043321a26.662642 26.662642 0 0 0 16.461283-34.101132l-44.167245-126.686188a24.923774 24.923774 0 0 0-7.902189-11.24468c9.73766 1.101283 18.393358 7.593057 21.832453 17.465963z" fill="#E5A320" /><path d="M841.187019 333.437585a8.153358 8.153358 0 0 1-10.394566-5.023396l-27.435472-78.635472a8.153358 8.153358 0 1 1 15.437283-5.390491l27.416151 78.674114a8.153358 8.153358 0 0 1-5.023396 10.375245zM802.738717 223.154717a8.153358 8.153358 0 0 1-10.394566-5.023396l-2.241208-6.433812a8.153358 8.153358 0 1 1 15.417963-5.371169l2.241207 6.433811a8.153358 8.153358 0 0 1-5.023396 10.394566z" fill="#FFFFFF" opacity=".4" /><path d="M581.554717 426.351094a8.153358 8.153358 0 0 1-10.413887-5.023396l-19.881056-57.034868a8.153358 8.153358 0 1 1 15.417962-5.37117l19.881056 57.034868a8.153358 8.153358 0 0 1-5.023396 10.394566zM550.13917 336.277736a8.153358 8.153358 0 0 1-10.394566-5.023396l-2.337812-6.704302a8.153358 8.153358 0 1 1 15.417963-5.37117l2.31849 6.723623a8.153358 8.153358 0 0 1-5.004075 10.375245zM718.848 295.452981a8.153358 8.153358 0 0 1-5.023396 10.394566l-38.544906 13.447245a8.153358 8.153358 0 1 1-5.37117-15.417962l38.544906-13.447245c4.250566-1.487698 8.887547 0.77283 10.394566 5.023396zM647.264604 320.415396a8.153358 8.153358 0 0 1-5.023396 10.375246l-6.704302 2.357132a8.153358 8.153358 0 1 1-5.37117-15.417963l6.704302-2.337811c4.250566-1.487698 8.926189 0.77283 10.394566 5.023396zM448.937057 407.532679a8.153358 8.153358 0 0 1-5.023397 10.394566l-24.672603 8.617057a8.153358 8.153358 0 1 1-5.37117-15.417962l24.672604-8.597736c4.250566-1.487698 8.887547 0.753509 10.394566 5.023396zM400.480604 424.43834a8.153358 8.153358 0 0 1-5.023396 10.394566l-2.086642 0.714868a8.153358 8.153358 0 1 1-5.390491-15.398642l2.105963-0.734189c4.250566-1.487698 8.906868 0.77283 10.394566 5.023397zM194.05766 516.250566a8.153358 8.153358 0 0 1-5.023396 10.375245l-29.290264 10.22068a8.153358 8.153358 0 1 1-5.37117-15.417963l29.290264-10.220679c4.250566-1.468377 8.906868 0.77283 10.394566 5.023396zM140.983547 534.740528a8.153358 8.153358 0 0 1-5.023396 10.394566l-2.086642 0.734189a8.153358 8.153358 0 1 1-5.371169-15.417962l2.086641-0.734189c4.250566-1.487698 8.906868 0.77283 10.394566 5.023396zM292.960604 526.954264a8.153358 8.153358 0 0 1-10.394566-5.023396l-18.064906-51.818264a8.153358 8.153358 0 1 1 15.417962-5.37117l18.064906 51.818264a8.153358 8.153358 0 0 1-5.023396 10.394566zM264.945509 446.579925a8.153358 8.153358 0 0 1-10.394566-5.023397l-2.028679-5.796226a8.153358 8.153358 0 1 1 15.417962-5.390491l2.02868 5.815547a8.153358 8.153358 0 0 1-5.023397 10.394567zM99.115472 620.466717a8.153358 8.153358 0 0 1-10.375246-5.023396l-18.084226-51.837585a8.153358 8.153358 0 1 1 15.417962-5.37117l18.064906 51.837585a8.153358 8.153358 0 0 1-5.023396 10.394566zM71.100377 540.092377a8.153358 8.153358 0 0 1-10.394566-5.023396l-2.028679-5.815547a8.153358 8.153358 0 1 1 15.417962-5.37117l2.02868 5.796227a8.153358 8.153358 0 0 1-5.023397 10.413886z" fill="#FFFFFF" opacity=".4" /><path d="M969.592755 282.430792a109.355472 109.355472 0 0 1-35.492227 121.798038l-68.028377-195.139622a109.355472 109.355472 0 0 1 103.520604 73.341584z" fill="#E4E3FF" /><path d="M975.659472 318.174189a109.355472 109.355472 0 0 1-41.558944 86.054641l-68.028377-195.139622c5.37117 0.038642 10.684377 0.425057 15.958943 1.178566L919.861132 318.792453c9.158038 26.295547 47.374491 26.662642 55.605132 0.038641l0.193208-0.637585z" fill="#D0D0F7" /><path d="M499.441509 554.640906v304.417811c0 10.896906-8.926189 19.803774-19.823094 19.803774a19.861736 19.861736 0 0 1-19.803773-19.803774V554.640906c0-4.559698 1.584302-8.71366 4.173283-12.094793 3.555019-4.752906 9.293283-7.728302 15.649811-7.728302 6.317887 0 12.075472 2.975396 15.649811 7.728302 2.56966 3.381132 4.134642 7.535094 4.134642 12.094793z" fill="#474646" /><path d="M633.720755 863.618415a19.127547 19.127547 0 0 1-8.501132 1.970717c-7.341887 0-14.490566-4.153962-17.852378-11.283321l-98.226717-202.829283-9.718339-20.190188-19.591246-40.805434-10.51049-21.388076a19.649208 19.649208 0 0 1 9.119396-26.334188c0.386415-0.193208 0.77283-0.405736 1.178566-0.405736a18.045585 18.045585 0 0 1 15.649811 0.193207c4.153962 1.584302 7.728302 4.965434 9.71834 9.312604l38.602868 79.814038 99.443924 205.379622A19.900377 19.900377 0 0 1 633.720755 863.637736z" fill="#474646" /><path d="M490.128906 569.09283l-10.297963 21.388076-20.016301 41.191849-9.505812 19.803773-98.226717 202.829283a20.035623 20.035623 0 0 1-18.026264 11.283321 19.803774 19.803774 0 0 1-17.639849-28.517434l99.231396-205.379623 38.64151-79.833358a19.262792 19.262792 0 0 1 9.699019-9.312604 18.026264 18.026264 0 0 1 15.649811-0.193207c0.386415 0 0.77283 0.193208 1.159245 0.386415 9.911547 4.772226 14.08483 16.654491 9.331925 26.353509z" fill="#474646" /><path d="M543.589434 631.672755a95.058113 95.058113 0 0 1-34.448906 19.803773l-9.718339-20.190188v22.779169a110.07034 110.07034 0 0 1-19.803774 1.970717 110.128302 110.128302 0 0 1-19.803773-1.970717v-22.392754l-9.505812 19.803773a95.908226 95.908226 0 0 1-34.661434-19.803773l38.64151-79.794717a19.262792 19.262792 0 0 1 9.699019-9.331925c3.555019-4.752906 9.293283-7.728302 15.649811-7.728302 6.317887 0 12.075472 2.975396 15.649811 7.728302 4.134642 1.584302 7.728302 4.965434 9.699019 9.312604z" fill="#2D2C2C" /><path d="M564.397887 511.845434l-180.436529 62.792453a84.315774 84.315774 0 0 1-1.391094-15.843019c0-53.479849 43.587623-96.854943 97.048151-96.854943a96.912906 96.912906 0 0 1 84.779472 49.905509z" fill="#5E5EEF" /><path d="M556.959396 558.891472a77.283019 77.283019 0 1 1-154.624 0 77.225057 77.225057 0 0 1 77.225057-77.225057 77.283019 77.283019 0 0 1 77.398943 77.225057z" fill="#474646" /><path d="M517.89283 558.949434a38.255094 38.255094 0 1 1-76.490868 0.077283 38.255094 38.255094 0 0 1 76.490868-0.096604z" fill="#E4E3FF" /></svg>