<?xml version="1.0" standalone="no"?><!DOCTYPE svg PUBLIC "-//W3C//DTD SVG 1.1//EN" "http://www.w3.org/Graphics/SVG/1.1/DTD/svg11.dtd"><svg class="icon" width="200px" height="200.00px" viewBox="0 0 1024 1024" version="1.1" xmlns="http://www.w3.org/2000/svg"><path d="M898.434415 626.688h33.618113v79.814038h-33.618113z" fill="#7979F7" /><path d="M932.052528 611.695094v109.741887c0 6.491774 5.255245 11.727698 11.727698 11.727698h20.20951a11.708377 11.708377 0 0 0 11.708377-11.708377v-109.741887a11.708377 11.708377 0 0 0-11.708377-11.727698h-20.20951a11.708377 11.708377 0 0 0-11.727698 11.727698z" fill="#7979F7" /><path d="M898.685585 624.64v104.544604a62.541283 62.541283 0 0 1-62.541283 62.541283H194.405434a62.541283 62.541283 0 0 1-62.541283-62.541283V233.066264h413.135698v207.698113h169.829434a183.875623 183.875623 0 0 1 183.856302 183.856302z" fill="#F9B938" /><path d="M898.801509 624.64v104.525283a62.599245 62.599245 0 0 1-62.599245 62.599245H194.366792a62.406038 62.406038 0 0 1-62.406037-62.599245v-33.038491c9.834264 6.762264 22.02566 10.819623 34.970566 10.819623h641.835471a62.599245 62.599245 0 0 0 62.599246-62.599245v-104.525283c0-4.250566-0.212528-8.501132-0.386415-12.558491a183.701736 183.701736 0 0 1 27.821886 97.376604zM544.999849 440.745057v-207.698114H131.864151v31.338265h315.836377a61.826415 61.826415 0 0 1 61.826415 61.826415v79.079849c0 19.571925 15.88166 35.453585 35.472906 35.453585z" fill="#E5A320" /><path d="M922.12166 761.237736v29.94717a22.798491 22.798491 0 0 1-22.79849 22.79849H114.127698a22.798491 22.798491 0 0 1-22.79849-22.79849V761.237736c0-12.597132 10.220679-22.798491 22.79849-22.798491h785.195472c12.597132 0 22.798491 10.201358 22.79849 22.798491z" fill="#7979F7" /><path d="M590.364981 152.305509v56.416604a24.344151 24.344151 0 0 1-24.344151 24.344151H114.011774a24.344151 24.344151 0 0 1-24.344151-24.344151v-56.416604c0-13.466566 10.896906-24.344151 24.344151-24.344151h451.970415c13.447245 0 24.344151 10.877585 24.344151 24.344151z" fill="#FC6559" /><path d="M590.364981 152.228226v56.551849c0 13.427925-10.858264 24.286189-24.286189 24.286189h-452.10566a24.150943 24.150943 0 0 1-23.957736-20.924377c3.014038 1.584302 6.530415 2.395774 10.220679 2.395773H552.18717c13.408604 0 24.440755-10.877585 24.440755-24.440754v-56.416604c0-1.101283 0-2.221887-0.328453-3.342491 8.307925 3.670943 14.065509 12.152755 14.065509 21.890415z" fill="#F05543" /><path d="M469.436377 753.335547c0 78.635472-63.758491 142.664453-142.393962 142.664453a142.664453 142.664453 0 0 1 0-285.309585c78.635472 0 142.393962 64.00966 142.393962 142.645132z" fill="#474646" /><path d="M225.666415 761.295698h-0.193207a9.660377 9.660377 0 0 1-9.46717-9.834264 110.360151 110.360151 0 0 1 45.519698-87.870792 9.641057 9.641057 0 1 1 11.399245 15.591849 91.232604 91.232604 0 0 0-37.598189 72.626717 9.660377 9.660377 0 0 1-9.660377 9.467169zM309.035472 663.088302a9.660377 9.660377 0 0 1-1.661585-19.146868c6.298566-1.120604 12.713057-1.700226 19.127547-1.738868h0.038641a9.660377 9.660377 0 0 1 0.057963 19.320755 95.251321 95.251321 0 0 0-15.86234 1.429736 8.617057 8.617057 0 0 1-1.700226 0.154566z" fill="#FFFFFF" opacity=".2" /><path d="M469.417057 753.393509c0 78.59683-63.73917 142.664453-142.336 142.664453a142.046189 142.046189 0 0 1-113.91517-56.880302 142.239396 142.239396 0 0 0 95.541132 36.748076c78.59683 0 142.355321-64.067623 142.355321-142.664453a143.244075 143.244075 0 0 0-28.285585-85.475019 142.548528 142.548528 0 0 1 46.640302 105.607245z" fill="#2D2C2C" /><path d="M376.870642 753.335547a49.982792 49.982792 0 0 1-49.90551 50.002113 50.002113 50.002113 0 0 1 0-99.984905 49.982792 49.982792 0 0 1 49.90551 49.982792z" fill="#E4E3FF" /><path d="M367.345509 724.335094c-8.636377-7.052075-19.320755-11.032151-30.99049-11.032151a49.982792 49.982792 0 0 0-50.002113 50.002114c0 10.858264 3.497057 20.769811 9.583094 29.077735a48.978113 48.978113 0 0 1-19.011623-38.989283 49.982792 49.982792 0 0 1 50.002114-50.002113c16.770415 0 31.628075 8.307925 40.419018 20.924378z" fill="#D0D0F7" /><path d="M452.337509 404.808453v114.765283c0 15.804377-12.828981 28.614038-28.633358 28.614038H241.509434a28.633358 28.633358 0 0 1-28.652679-28.633359v-114.745962a119.730717 119.730717 0 1 1 239.480754 0z" fill="#A2A2F9" /><path d="M405.349434 309.904906a119.402264 119.402264 0 0 0-47.760906-9.911548 119.730717 119.730717 0 0 0-119.808 119.672755v114.707321c0 4.946113 1.27517 9.73766 3.670944 13.891623-15.823698 0-28.594717-12.944906-28.594717-28.749283v-114.707321a119.730717 119.730717 0 0 1 119.808-119.653434c27.319547 0 52.552453 9.254642 72.704 24.749887z" fill="#7979F7" /><path d="M131.864151 356.274717v204.413585a41.771472 41.771472 0 1 1-83.562264 0V356.274717a41.771472 41.771472 0 0 1 83.562264 0z" fill="#D0D0F7" /><path d="M131.864151 356.236075v204.490868a41.771472 41.771472 0 0 1-71.409509 29.386868 36.323019 36.323019 0 0 1-3.999397-4.636981c4.308528 1.777509 9.100075 2.56966 14.06551 2.569661a41.790792 41.790792 0 0 0 41.848754-41.848755V341.861434c0-9.273962-3.033358-17.891019-8.153358-24.769208 5.912151 2.086642 11.01283 5.429132 15.340679 9.756982 7.67034 7.496453 12.307321 17.891019 12.307321 29.386867z" fill="#C2C2EF" /><path d="M723.755472 378.454943v62.290114h-81.958642v-62.290114c0-16.944302 10.394566-31.49283 24.923774-37.714113v-45.693585a16.036226 16.036226 0 0 1 15.978264-15.978264c8.945509 0 15.978264 7.187321 15.978264 15.978264v45.693585a40.863396 40.863396 0 0 1 25.07834 37.714113z" fill="#FC6559" /><path d="M723.755472 378.454943v62.290114h-81.958642v-9.273963h49.596378c12.230038 0 22.141585-9.892226 22.141584-22.122264v-27.068377c0-16.770415-10.162717-31.454189-25.078339-37.714113V298.892075a15.920302 15.920302 0 0 0-15.978264-15.978264 15.553208 15.553208 0 0 1 10.24-3.84483c8.926189 0 15.958943 7.187321 15.958943 15.978264v45.693585a40.863396 40.863396 0 0 1 25.07834 37.714113z" fill="#F05543" /><path d="M676.61283 815.664302a80.297057 80.297057 0 0 1-80.181132 80.316377 80.335698 80.335698 0 0 1 0-160.652075 80.297057 80.297057 0 0 1 80.181132 80.335698z" fill="#474646" /><path d="M537.406792 818.659019h-0.154566a4.849509 4.849509 0 0 1-4.675622-4.984755 63.584604 63.584604 0 0 1 26.701283-50.040755 4.830189 4.830189 0 0 1 5.622339 7.844227 53.962868 53.962868 0 0 0-22.663245 42.50566 4.830189 4.830189 0 0 1-4.830189 4.675623zM582.636679 762.976604a4.830189 4.830189 0 0 1-1.120604-9.505812c4.521057-1.081962 9.177358-1.661585 13.852982-1.738867h0.077283a4.830189 4.830189 0 0 1 0.077283 9.660377c-3.980075 0.077283-7.94083 0.560302-11.785661 1.468377a4.59834 4.59834 0 0 1-1.101283 0.135246z" fill="#FFFFFF" opacity=".2" /><path d="M676.690113 815.62566c0 44.28317-35.936604 80.432302-80.219773 80.432302-19.340075 0-36.941283-6.762264-50.852227-17.968302 10.819623 5.409811 23.184906 8.501132 36.149132 8.501132a80.277736 80.277736 0 0 0 80.239095-80.239094 80.760755 80.760755 0 0 0-29.193661-62.058264 79.794717 79.794717 0 0 1 43.877434 71.332226z" fill="#2D2C2C" /><path d="M628.156377 815.664302a31.801962 31.801962 0 1 1-63.603924 0 31.801962 31.801962 0 0 1 63.603924 0z" fill="#E4E3FF" /><path d="M621.394113 796.285585c-5.023396-3.477736-11.206038-5.409811-17.775094-5.409811-17.581887 0-31.705358 14.104151-31.705359 31.705358 0 7.341887 2.511698 14.104151 6.762265 19.533283a31.763321 31.763321 0 0 1 17.775094-58.194113c10.066113 0 19.340075 4.830189 24.943094 12.365283z" fill="#D0D0F7" /><path d="M879.673962 815.664302a80.297057 80.297057 0 0 1-80.181132 80.316377 80.335698 80.335698 0 0 1 0-160.652075 80.297057 80.297057 0 0 1 80.181132 80.335698z" fill="#474646" /><path d="M740.448604 818.659019h-0.154566a4.849509 4.849509 0 0 1-4.675623-4.984755 63.584604 63.584604 0 0 1 26.701283-50.040755 4.830189 4.830189 0 0 1 5.62234 7.844227 53.962868 53.962868 0 0 0-22.663246 42.50566 4.830189 4.830189 0 0 1-4.830188 4.675623zM785.678491 762.976604a4.830189 4.830189 0 0 1-1.120604-9.505812c4.501736-1.081962 9.177358-1.661585 13.852981-1.738867h0.077283a4.830189 4.830189 0 0 1 0.077283 9.660377c-3.980075 0.077283-7.94083 0.560302-11.78566 1.468377a4.59834 4.59834 0 0 1-1.101283 0.135246z" fill="#FFFFFF" opacity=".2" /><path d="M879.731925 815.62566c0 44.28317-35.955925 80.432302-80.239095 80.432302-19.320755 0-36.921962-6.762264-50.852226-17.968302 10.819623 5.409811 23.204226 8.501132 36.168453 8.501132a80.277736 80.277736 0 0 0 80.219773-80.239094 80.760755 80.760755 0 0 0-29.174339-62.058264 79.794717 79.794717 0 0 1 43.877434 71.332226z" fill="#2D2C2C" /><path d="M831.178868 815.664302a31.801962 31.801962 0 1 1-63.584604 0 31.801962 31.801962 0 0 1 63.584604 0z" fill="#E4E3FF" /><path d="M824.435925 796.285585c-5.023396-3.477736-11.206038-5.409811-17.775095-5.409811-17.601208 0-31.724679 14.104151-31.724679 31.705358 0 7.341887 2.511698 14.104151 6.762264 19.533283a31.763321 31.763321 0 0 1 17.775094-58.194113c10.085434 0 19.359396 4.830189 24.962416 12.365283z" fill="#D0D0F7" /><path d="M321.420075 160.51683a10.085434 10.085434 0 0 1-10.085433 10.085434h-107.423397a10.085434 10.085434 0 0 1 0-20.170868h107.423397c5.564377 0 10.085434 4.521057 10.085433 10.085434zM176.823547 160.51683a10.085434 10.085434 0 0 1-10.085434 10.085434h-13.331321a10.085434 10.085434 0 0 1 0-20.170868h13.331321c5.564377 0 10.085434 4.521057 10.085434 10.085434z" fill="#FFFFFF" opacity=".4" /><path d="M175.393811 502.146415a10.085434 10.085434 0 0 1-10.085434-10.104755v-107.404075a10.085434 10.085434 0 0 1 20.190189 0v107.423396a10.085434 10.085434 0 0 1-10.104755 10.066113zM175.393811 357.530566a10.085434 10.085434 0 0 1-10.085434-10.085434v-13.331321a10.085434 10.085434 0 0 1 20.190189 0v13.331321a10.085434 10.085434 0 0 1-10.104755 10.085434z" fill="#FFFFFF" opacity=".4" /><path d="M697.884981 488.544604a10.085434 10.085434 0 0 1-10.085434 10.085434h-68.781887a10.085434 10.085434 0 0 1 0-20.170868h68.781887c5.564377 0 10.085434 4.521057 10.085434 10.085434zM591.929962 488.544604a10.085434 10.085434 0 0 1-10.085434 10.085434h-13.33132a10.085434 10.085434 0 0 1 0-20.170868h13.33132c5.564377 0 10.085434 4.521057 10.085434 10.085434z" fill="#FFFFFF" opacity=".4" /><path d="M75.331623 494.495396a10.085434 10.085434 0 0 1-10.104755-10.104754v-68.762567a10.085434 10.085434 0 0 1 20.190189 0v68.781887a10.085434 10.085434 0 0 1-10.085434 10.085434zM75.331623 388.540377a10.085434 10.085434 0 0 1-10.104755-10.104754v-13.331321a10.085434 10.085434 0 0 1 20.190189 0v13.331321a10.085434 10.085434 0 0 1-10.085434 10.085434z" fill="#FFFFFF" opacity=".4" /></svg>