<?xml version="1.0" standalone="no"?><!DOCTYPE svg PUBLIC "-//W3C//DTD SVG 1.1//EN" "http://www.w3.org/Graphics/SVG/1.1/DTD/svg11.dtd"><svg class="icon" width="200px" height="200.00px" viewBox="0 0 1024 1024" version="1.1" xmlns="http://www.w3.org/2000/svg"><path d="M830.386717 466.731472l29.792604 29.792603 6.41449-7.245283-29.367547-29.367547 32.922566-32.922566 24.035019 24.035019c1.932075-2.724226 3.555019-5.467774 5.332528-8.327245l-22.54732-22.547321 32.941886-32.922566 11.476529 11.476528c1.487698-3.149283 2.859472-6.414491 3.960754-9.699019l-8.617056-8.617056 16.944302-16.924981a318.792453 318.792453 0 0 0 4.636981-18.316076l-28.40151 28.40151-37.443622-37.424302 32.922566-32.922566 34.294339 34.294339c0.811472-3.825509 1.507019-7.786264 1.912755-11.747018l-29.367547-29.367548 31.280302-31.299622c0-1.081962-0.135245-2.318491-0.270491-3.535698-0.425057-2.878792-0.676226-5.873509-1.101283-8.752302-0.405736-2.588981-0.676226-5.062038-1.352453-7.380529l-33.077132-33.057811 17.639849-17.620528a138.510491 138.510491 0 0 0-4.521056-9.158038l-19.939019 19.939019L863.444528 168.090566l26.237585-26.237585c-0.966038-1.236528-2.183245-2.453736-3.284528-3.555019a39.41434 39.41434 0 0 0-3.555019-3.284528l-26.218264 26.237585-37.443623-37.424302 19.95834-19.939019a139.360604 139.360604 0 0 0-9.158038-4.521056l-17.620528 17.620528-33.057811-33.038491c-2.318491-0.695547-4.791547-0.966038-7.380529-1.371773a90.730264 90.730264 0 0 0-8.617056-0.966038c-1.081962-0.270491-2.453736-0.270491-3.670944-0.405736l-31.299622 31.299623-29.367548-29.386868c-3.960755 0.386415-7.921509 1.081962-11.747018 1.912755l34.275018 34.294339L688.591698 152.247547l-37.424302-37.443622 28.40151-28.40151c-5.989434 1.352453-12.152755 2.859472-18.296755 4.636981l-16.944302 16.924981-8.597736-8.597735c-3.284528 1.101283-6.569057 2.453736-9.699019 3.960754l11.476529 11.476529-32.922566 32.922566-22.547321-22.528c-2.859472 1.758189-5.603019 3.400453-8.327245 5.313207L597.726189 154.566038l-32.922566 32.922566-29.367548-29.367547-7.245283 6.41449 29.773283 29.792604-32.78732 32.787321-29.773283-29.792604-6.414491 7.245283 29.367547 29.367547-32.922566 32.922566-24.054339-24.035019c-1.912755 2.724226-3.555019 5.467774-5.332529 8.327246l22.547321 22.54732-32.922566 32.922566-11.476528-11.476528a83.813434 83.813434 0 0 0-3.960755 9.699019l8.617057 8.597736-16.944302 16.944302c-1.777509 6.163321-3.284528 12.307321-4.636981 18.316075l28.401509-28.42083 37.443623 37.424302L450.173585 390.66566l-34.275019-34.294339a111.480755 111.480755 0 0 0-1.932075 11.747019l29.367547 29.367547-31.280302 31.299622c0.154566 1.217208 0.154566 2.588981 0.425056 3.670944 0.135245 2.898113 0.540981 5.738264 0.966038 8.617056 0.386415 2.588981 0.656906 5.062038 1.352453 7.380529l33.057811 33.057811-17.620528 17.620528c1.352453 3.014038 2.878792 6.144 4.501736 9.158038l19.95834-19.939019 37.424301 37.424302-26.237585 26.237585c0.966038 1.217208 2.202566 2.453736 3.284529 3.535698 1.101283 1.101283 2.318491 2.318491 3.555019 3.284528l26.237585-26.218264 37.424301 37.424302-19.939018 19.939019c3.014038 1.642264 6.144 3.149283 9.138717 4.521057l17.639849-17.620529 33.03849 33.038491c2.337811 0.695547 4.791547 0.966038 7.399849 1.371773 2.859472 0.425057 5.873509 0.695547 8.732981 1.101284 1.236528 0.135245 2.473057 0.270491 3.555019 0.27049l31.299623-31.299623 29.367547 29.386868c3.960755-0.405736 7.921509-1.081962 11.747019-1.912754l-34.29434-34.29434 32.922566-32.922566 37.443623 37.443623-28.42083 28.401509c6.008755-1.352453 12.172075-2.859472 18.296755-4.636981l16.944301-16.944302 8.617057 8.617057c3.284528-1.101283 6.549736-2.453736 9.699019-3.960755l-11.476528-11.476528 32.922566-32.922566 22.54732 22.528c2.859472-1.758189 5.603019-3.400453 8.307925-5.313208l-24.035019-24.05434 32.922566-32.922566 29.367547 29.367548 7.264604-6.414491-29.792604-29.792604z m-39.607547 25.967094l-37.443623-37.443623 32.787321-32.78732 37.424302 37.443622z m-100.023547-165.578868l-32.787321 32.787321-37.424302-37.443623 32.787321-32.787321z m-30.604076-44.263849l32.941887-32.941887 37.424302 37.443623-32.922566 32.922566z m-9.003472 83.871396l-32.922566 32.922566-37.443622-37.424302 32.922566-32.922566z m6.820227 6.839547l37.443623 37.424302-32.922567 32.922566-37.443622-37.424302z m6.839547-6.839547l32.787321-32.78732 37.424302 37.443622-32.787321 32.787321z m39.607547-39.607547l32.941887-32.941887 37.424302 37.443623-32.922566 32.922566z m77.205736 11.321962l37.424302 37.443623-32.922566 32.922566-37.424302-37.424302z m6.820226-6.820226l32.941887-32.922566 37.424302 37.424302-32.922566 32.922566z m-6.820226-6.839547l-37.443623-37.424302 32.941887-32.922566 37.424302 37.424302z m2.318491-77.186415l32.922566-32.922566 37.424302 37.443622-32.903246 32.922566z m-6.820227-6.820227l-37.443622-37.443622 32.922566-32.922566 37.424302 37.443622z m-6.839547 6.820227l-32.922566 32.922566-37.443623-37.424302 32.941887-32.922566z m-77.186415-11.341283l-37.443623-37.424302 32.922566-32.922566 37.443623 37.424302z m-6.839547 6.839547l-32.922566 32.922566-37.443623-37.424302 32.941887-32.941887z m-39.762113 39.762113l-32.787321 32.787321-37.424302-37.443623 32.787321-32.787321z m-39.607548 39.607547l-32.922566 32.922566-37.443622-37.424302 32.922566-32.922566z m-39.762113 39.762113l-32.922566 32.922566-37.424302-37.443622 32.922566-32.903245z m6.839547 6.839548l37.424302 37.424301-32.922566 32.922567-37.424302-37.443623z m-2.31849 77.167094l-32.941887 32.941887-37.424302-37.443623 32.922566-32.922566z m6.820226 6.839547l37.443623 37.424302-32.941887 32.941887-37.424302-37.443623z m6.839547-6.839547l32.922566-32.903245 37.424302 37.424302-32.922566 32.922566z m77.186415 11.360604l37.424302 37.424302-32.922566 32.922566-37.424302-37.443623z m6.820227-6.839547l32.922566-32.922566 37.443623 37.424301-32.922566 32.941887z m39.762113-39.762114l32.787321-32.78732 37.424302 37.443622-32.787321 32.787321z m121.315019 42.080604l-37.424302-37.424302 32.922566-32.941887 37.424302 37.443623z m72.684679-72.684679l-32.922566 32.922566-37.443622-37.424302 32.941886-32.922566z m-37.424302-51.084076l-37.443622-37.443622 32.922566-32.922566 37.424302 37.443622z m72.665359-72.684679l-32.922566 32.922566-37.424302-37.424302 32.922566-32.941886z m-44.244528-44.263849l-32.941887 32.922566-37.424302-37.424302 32.922566-32.941887zM849.765434 168.090566l-32.922566 32.922566-37.424302-37.424302 32.922566-32.941887zM768.096604 86.363774l37.424302 37.443622-32.922566 32.922566-37.443623-37.424302zM728.334491 126.164528l37.424301 37.443623-32.903245 32.922566-37.443622-37.443623z m-84.025963-4.501736l37.443623 37.424302-32.922566 32.922566L611.385962 154.566038z m-39.742792 39.742793l37.424302 37.443623-32.922566 32.922566-37.443623-37.424302z m-39.762113 39.762113l37.424302 37.443623-32.787321 32.787321-37.424302-37.443623z m-39.607548 39.607547L562.620377 278.218868l-32.922566 32.922566-37.443622-37.424302z m-72.684679 72.68468l32.922566-32.903246 37.424302 37.424302-32.922566 32.922566z m37.424302 51.103396l37.443623 37.424302-32.941887 32.941886-37.424302-37.443622z m-72.684679 72.684679l32.922566-32.922566 37.443623 37.424302-32.922566 32.922566z m44.263849 44.263849l32.922566-32.922566 37.443623 37.424302-32.922566 32.922566z m44.263849 44.263849l32.922566-32.922566 37.443623 37.424302-32.922566 32.941887z m81.707472 81.707472l-37.443623-37.443623 32.922566-32.922566 37.443623 37.424302z m39.742792-39.762113l-37.424302-37.443623 32.922566-32.922566 37.443623 37.443623z m84.045283 4.501735l-37.443622-37.424301 32.922566-32.922566 37.424301 37.424301z m39.742793-39.742792l-37.443623-37.443623 32.922566-32.922566 37.443623 37.424302z" fill="#474646" /><path d="M913.736453 110.997736c-107.114264-107.114264-299.471698-88.257208-429.80951 42.080604S334.751396 475.773585 441.86566 582.90717c107.114264 107.094943 299.471698 88.257208 429.80951-42.080604s149.175547-322.695245 42.080604-429.809509zM820.146717 535.764528a329.496151 329.496151 0 0 1-38.255094 27.590038c-2.724226 1.932075-5.467774 3.555019-8.327246 5.332528-14.220075 8.481811-28.981132 15.843019-43.993358 21.871095a85.687547 85.687547 0 0 1-9.699019 3.960754c-8.481811 3.284528-16.944302 5.989434-25.561358 8.327246-6.144 1.777509-12.288 3.284528-18.296755 4.636981-2.453736 0.560302-5.042717 0.966038-7.651019 1.371773a111.442113 111.442113 0 0 1-11.747019 1.932076c-20.48 3.284528-40.979321 3.806189-60.66717 1.893434a33.618113 33.618113 0 0 1-3.555019-0.270491c-2.859472-0.405736-5.873509-0.676226-8.732981-1.081962-2.588981-0.425057-5.062038-0.695547-7.380528-1.371774a205.843321 205.843321 0 0 1-50.67834-15.456603 144.113509 144.113509 0 0 1-9.158037-4.482415 187.778415 187.778415 0 0 1-43.722868-31.164378c-1.217208-0.966038-2.453736-2.183245-3.535698-3.284528s-2.318491-2.318491-3.284529-3.535698a187.778415 187.778415 0 0 1-31.164377-43.722868 143.649811 143.649811 0 0 1-4.501736-9.158038 205.804679 205.804679 0 0 1-15.437283-50.67834c-0.676226-2.318491-0.966038-4.791547-1.352453-7.380528a93.261283 93.261283 0 0 1-0.966038-8.597736c-0.270491-1.101283-0.270491-2.473057-0.405735-3.690264a238.862491 238.862491 0 0 1 1.912754-60.66717c0.405736-3.960755 1.081962-7.921509 1.912755-11.747018 0.405736-2.608302 0.811472-5.197283 1.352453-7.651019 1.371774-6.008755 2.878792-12.172075 4.636981-18.296755 2.337811-8.617057 5.062038-17.079547 8.346566-25.561359 1.101283-3.284528 2.473057-6.569057 3.960755-9.699018 6.008755-15.031547 13.389283-29.792604 21.871094-43.993359 1.777509-2.859472 3.400453-5.603019 5.332528-8.327245 8.056755-13.254038 17.330717-25.812528 27.590038-38.255095l6.414491-7.245283c4.926792-5.738264 10.394566-11.476528 15.843019-16.944301 5.467774-5.448453 11.206038-10.916226 16.944301-15.843019l7.245283-6.414491a329.612075 329.612075 0 0 1 38.255095-27.609358c2.724226-1.893434 5.467774-3.535698 8.327245-5.313208 14.220075-8.481811 28.981132-15.843019 43.993359-21.871094 3.149283-1.507019 6.414491-2.859472 9.699018-3.960755 8.462491-3.284528 16.944302-5.989434 25.542038-8.327245 6.144-1.777509 12.307321-3.284528 18.316076-4.636981 2.453736-0.560302 5.042717-0.966038 7.651019-1.371774 3.825509-0.830792 7.786264-1.507019 11.747018-1.932075a238.804528 238.804528 0 0 1 60.66717-1.893434c1.217208 0.135245 2.588981 0.135245 3.670944 0.405735 2.878792 0.135245 5.738264 0.540981 8.617056 0.966038 2.588981 0.386415 5.042717 0.676226 7.380529 1.352453 17.755774 3.014038 34.700075 8.192 50.678339 15.456604 3.014038 1.352453 6.144 2.859472 9.158038 4.501736 15.843019 8.192 30.604075 18.567245 43.722868 31.145056 1.217208 0.966038 2.453736 2.183245 3.555019 3.284529 1.081962 1.081962 2.318491 2.318491 3.284528 3.535698a187.449962 187.449962 0 0 1 31.125736 43.722868c1.642264 3.014038 3.149283 6.144 4.521056 9.158037 7.245283 15.978264 12.423245 32.922566 15.437283 50.67834 0.676226 2.318491 0.966038 4.791547 1.352453 7.380528 0.425057 2.878792 0.695547 5.873509 1.101283 8.752302 0.135245 1.217208 0.270491 2.453736 0.270491 3.555019 1.932075 19.668528 1.352453 40.148528-1.912755 60.647849-0.386415 3.960755-1.081962 7.921509-1.912755 11.747019-0.405736 2.608302-0.811472 5.197283-1.352452 7.651019-1.371774 6.008755-2.878792 12.172075-4.656302 18.316075-2.318491 8.597736-5.062038 17.079547-8.327246 25.542038-1.101283 3.284528-2.453736 6.569057-3.960754 9.699019a314.078189 314.078189 0 0 1-21.871095 43.993358c-1.777509 2.859472-3.419774 5.603019-5.313207 8.327246a329.612075 329.612075 0 0 1-27.609359 38.255094l-6.41449 7.245283c-4.926792 5.738264-10.394566 11.476528-15.843019 16.944302-5.467774 5.448453-11.206038 10.916226-16.944302 15.843019l-7.245283 6.41449z" fill="#F9B938" /><path d="M547.955925 643.342491l-168.863397 34.970566-114.378868 114.378868-34.390943-34.390944 113.219623-113.219623 36.323018-174.85283c2.898113 12.558491 6.569057 24.730566 11.785661 36.516227l-26.855849 150.701887 148.576604-26.276227c11.206038 5.216604 22.798491 9.080755 34.584151 12.172076z" fill="#F9B938" /><path d="M913.697811 111.055698c-1.932075-1.932075-3.864151-3.864151-5.796226-5.409811 101.047547 108.003019 80.567547 295.993962-47.529057 423.897358-93.898868 94.092075-220.449811 130.221887-323.622641 102.593208-2.898113-0.77283-5.796226-1.54566-8.887547-2.511698-5.796226-1.738868-11.592453-3.670943-17.195472-5.989434-2.898113-1.159245-5.796226-2.318491-8.501132-3.670944h-0.386415a224.700377 224.700377 0 0 1-65.304151-42.892075c1.54566 1.932075 3.477736 3.864151 5.409811 5.796226 15.649811 15.649811 32.845283 28.401509 51.586415 38.64151 6.375849 3.670943 12.944906 6.762264 19.513962 9.660377 1.932075 0.77283 3.670943 1.54566 5.603019 2.318491 1.159245 0.579623 2.511698 1.159245 3.864151 1.54566h0.193208c3.670943 1.54566 7.535094 2.898113 11.206038 4.057359 3.864151 1.352453 7.728302 2.511698 11.592452 3.477735 103.752453 28.787925 231.462642-6.955472 326.13434-101.820377 130.415094-130.221887 149.349434-322.656604 42.119245-429.693585z" fill="#ECB021" /><path d="M518.588377 633.488906c-1.932075-0.77283-3.670943-1.54566-5.603019-2.318491h0.386416l5.216603 2.318491zM547.955925 643.342491l-168.863397 34.970566-114.378868 114.378868-11.206037-11.206038 114.378868-114.378868 154.566037-32.072453h0.193208c3.670943 1.54566 7.535094 2.898113 11.206038 4.057359 3.864151 1.352453 7.728302 2.511698 11.592452 3.477735 0.77283 0.386415 1.738868 0.579623 2.511699 0.772831zM502.165736 619.945057h-0.386415c2.898113 1.352453 5.796226 2.511698 8.887547 3.670943-2.898113-1.159245-5.796226-2.318491-8.501132-3.670943z" fill="#ECB021" /><path d="M536.749887 632.136453l-14.104151 2.898113h-0.193208c-1.352453-0.386415-2.704906-0.966038-3.864151-1.54566-1.932075-0.77283-3.670943-1.54566-5.603019-2.318491-6.569057-2.898113-13.138113-5.989434-19.513962-9.660377l8.307925-1.545661h0.386415c2.704906 1.352453 5.603019 2.511698 8.501132 3.670944 5.603019 2.318491 11.399245 4.250566 17.195472 5.989434 3.091321 0.966038 5.989434 1.738868 8.887547 2.511698z" fill="#ECB021" /><path d="M230.264755 758.26234l64.589283-64.608604 34.429585 34.429585-64.589283 64.589283z" fill="#474646" /><path d="M329.438189 728.160604l-64.724529 64.531321-34.390943-34.390944 12.558491-12.55849 12.519849 12.519849a13.196075 13.196075 0 0 0 18.644528 0l42.834113-42.660227z" fill="#2D2C2C" /><path d="M115.576755 976.239094l151.474717-151.474717a21.098264 21.098264 0 0 0 0-29.831245l-38.776755-38.776755a21.098264 21.098264 0 0 0-29.831245 0l-151.474717 151.474717a21.098264 21.098264 0 0 0 0 29.831246l38.776754 38.776754a21.098264 21.098264 0 0 0 29.831246 0z" fill="#474646" /><path d="M267.032151 824.764377l-151.474717 151.474717c-8.307925 8.307925-21.639245 8.307925-29.753962 0l-38.834717-38.834717a20.48 20.48 0 0 1-1.738868-27.435471c0.386415 0.77283 0.966038 1.54566 1.738868 2.31849l38.834717 38.834717c8.114717 8.114717 21.446038 8.114717 29.753962 0l151.474717-151.474717c0.77283-0.77283 1.352453-1.54566 1.932075-2.31849 6.375849 8.114717 5.603019 19.900377-1.932075 27.435471z" fill="#2D2C2C" /><path d="M195.738566 805.520906a6.781585 6.781585 0 0 1-4.694943-11.631095l9.853585-9.467169a6.762264 6.762264 0 1 1 9.389886 9.718339l-9.853585 9.486491a6.762264 6.762264 0 0 1-4.694943 1.893434z" fill="#FFFFFF" opacity=".3" /><path d="M120.32966 878.128302a6.781585 6.781585 0 0 1-4.694943-11.631094l52.977509-51.006793a6.762264 6.762264 0 1 1 9.389887 9.71834l-52.977509 51.045434a6.762264 6.762264 0 0 1-4.694944 1.893434z" fill="#FFFFFF" opacity=".3" /><path d="M853.455698 768.618264c0 26.933132-10.723019 51.586415-28.16966 69.496755a72.394868 72.394868 0 0 1-11.631095 10.104755 97.647094 97.647094 0 0 1-60.319396 20.518641 97.647094 97.647094 0 0 1-60.319396-20.518641 72.394868 72.394868 0 0 1-11.631094-10.104755 99.463245 99.463245 0 0 1-28.169661-69.496755c0-27.107019 10.703698-51.45117 28.169661-69.516075 3.361811-3.670943 7.341887-7.187321 11.476528-10.24a99.888302 99.888302 0 0 1 120.947924 0c4.134642 3.052679 8.114717 6.569057 11.476529 10.24a99.463245 99.463245 0 0 1 28.16966 69.516075z" fill="#5BC658" /><path d="M853.455698 768.618264c0 26.933132-10.723019 51.586415-28.16966 69.496755a72.394868 72.394868 0 0 1-11.631095 10.104755 97.647094 97.647094 0 0 1-60.319396 20.518641 97.647094 97.647094 0 0 1-60.319396-20.518641 72.394868 72.394868 0 0 1-11.631094-10.104755 90.904151 90.904151 0 0 1-15.765736-21.581283c2.125283 2.125283 4.443774 3.825509 6.723622 5.506415 4.752906 3.825509 9.950189 7.032755 15.456604 9.795623 4.752906 2.453736 9.814943 4.59834 15.012227 6.124679a96.545811 96.545811 0 0 0 29.850566 4.598339 96.990189 96.990189 0 0 0 59.875018-20.209509 72.375547 72.375547 0 0 0 12.094793-10.413887 99.443925 99.443925 0 0 0 28.16966-69.496754 96.487849 96.487849 0 0 0-12.55849-48.224604c1.835472 1.52634 3.516377 3.207245 5.042717 4.888151a99.463245 99.463245 0 0 1 28.16966 69.516075z" fill="#49A247" /><path d="M793.6 768.618264c0-27.725283 12.249358-52.668377 31.686038-69.516075a81.842717 81.842717 0 0 0-11.476529-10.24 107.114264 107.114264 0 0 0-35.511547 79.756075c0 31.531472 13.621132 60.010264 35.356981 79.60151 4.134642-2.898113 8.114717-6.279245 11.631095-10.104755a91.754264 91.754264 0 0 1-31.686038-69.496755zM692.861585 688.842868c-4.134642 3.072-8.114717 6.588377-11.476528 10.259321a91.773585 91.773585 0 0 1 31.686037 69.516075 91.773585 91.773585 0 0 1-31.686037 69.496755c3.516377 3.825509 7.496453 7.187321 11.631094 10.104755a106.921057 106.921057 0 0 0 35.356981-79.60151 107.114264 107.114264 0 0 0-35.511547-79.775396z" fill="#E4E3FF" /><path d="M792.981736 822.040151c-0.154566 0.154566-0.309132 0.309132-0.444378 0.309132 5.660981 9.660377 12.848302 18.354717 21.117585 25.870491 4.134642-2.898113 8.114717-6.279245 11.631095-10.104755a87.948075 87.948075 0 0 1-20.673208-26.179623 72.375547 72.375547 0 0 1-11.631094 10.104755zM687.818868 831.835774a62.406038 62.406038 0 0 1-6.433811 6.279245c3.516377 3.825509 7.496453 7.187321 11.631094 10.104755 3.516377-3.226566 6.897509-6.569057 9.795623-10.259321-5.216604-1.52634-10.24-3.670943-14.992906-6.124679z" fill="#D0D0F7" /></svg>