<?xml version="1.0" standalone="no"?><!DOCTYPE svg PUBLIC "-//W3C//DTD SVG 1.1//EN" "http://www.w3.org/Graphics/SVG/1.1/DTD/svg11.dtd"><svg class="icon" width="200px" height="200.00px" viewBox="0 0 1024 1024" version="1.1" xmlns="http://www.w3.org/2000/svg"><path d="M759.962566 198.230943v529.485283c0 136.945509-111.017057 247.981887-247.962566 247.981887-136.945509 0-247.962566-111.036377-247.962566-247.981887V198.250264z" fill="#E4E3FF" /><path d="M759.962566 198.230943v529.504604c0 136.848906-110.939774 247.962566-247.962566 247.962566-5.603019 0-11.01283-0.173887-16.422642-0.676226 129.236528-8.462491 231.366038-116.021132 231.366038-247.305661V347.329208a111.635321 111.635321 0 0 0-111.635321-111.635321H264.037434v-37.424302z" fill="#D0D0F7" /><path d="M331.776 436.320604v286.140377c0 93.782943 69.477434 175.87683 162.873962 184.667774 107.133585 10.066113 197.554717-74.307623 197.554717-179.412529V405.00166c0-10.974189-6.414491-21.020981-16.364679-25.657962-113.606038-52.72634-226.149434 53.035472-307.876226 30.19834-18.142189-5.081358-36.187774 7.921509-36.187774 26.778566z" fill="#5BC658" /><path d="M692.224 405.059623v316.416c0 102.438642-83.871396 189.729811-186.252075 186.368a179.992151 179.992151 0 0 1-143.186114-79.157132A179.605736 179.605736 0 0 0 463.698113 859.676981c99.270038 0 180.069434-80.953962 180.069434-180.397887V368.466113a155.725283 155.725283 0 0 1 31.898566 10.877585c10.027472 4.636981 16.538566 14.683774 16.538566 25.715925z" fill="#49A247" /><path d="M827.353358 123.266415a74.964528 74.964528 0 0 1-74.964528 74.964528H271.61117a74.964528 74.964528 0 0 1 0-149.929056H752.350189a74.964528 74.964528 0 0 1 74.964528 74.964528z" fill="#C2C2EF" /><path d="M827.334038 123.266415c0 41.346415-33.618113 74.964528-74.964529 74.964528h-480.700377c-30.72 0-56.996226-18.354717-68.781887-44.824151 13.524528 13.331321 31.879245 21.446038 52.359246 21.446038h480.700377c41.539623 0 74.964528-33.618113 74.964528-74.964528 0-10.626415-2.318491-20.866415-6.182641-30.140377 13.910943 13.524528 22.605283 32.652075 22.605283 53.51849z" fill="#A2A2F9" /><path d="M300.032 116.793962h-19.030943a16.924981 16.924981 0 1 1 0-33.869283h19.030943a16.924981 16.924981 0 1 1 0 33.869283zM488.467321 116.793962h-107.152906a16.924981 16.924981 0 1 1 0-33.869283h107.152906a16.924981 16.924981 0 1 1 0 33.869283zM390.897509 671.338264a12.713057 12.713057 0 0 1-12.693735-12.693736v-95.328603a12.713057 12.713057 0 0 1 25.406792 0v95.328603a12.713057 12.713057 0 0 1-12.713057 12.693736z" fill="#FFFFFF" opacity=".3" /><path d="M390.897509 518.704302a12.713057 12.713057 0 0 1-12.693735-12.693736v-5.796226a12.713057 12.713057 0 0 1 25.406792 0v5.796226a12.713057 12.713057 0 0 1-12.713057 12.693736z" fill="#FFFFFF" opacity=".3" /></svg>