<?xml version="1.0" standalone="no"?><!DOCTYPE svg PUBLIC "-//W3C//DTD SVG 1.1//EN" "http://www.w3.org/Graphics/SVG/1.1/DTD/svg11.dtd"><svg class="icon" width="200px" height="200.00px" viewBox="0 0 1024 1024" version="1.1" xmlns="http://www.w3.org/2000/svg"><path d="M722.016604 760.464906c0 121.33434-98.535849 219.870189-219.870189 219.870188-121.33434 0-219.870189-98.535849-219.870189-219.870188 0-76.896604 39.221132-144.326038 98.729057-183.740378V164.806038c0-66.849811 54.291321-121.141132 121.141132-121.141132 33.424906 0 63.758491 13.524528 85.590943 35.550188a120.136453 120.136453 0 0 1 35.550189 85.590944v411.91849c59.507925 39.41434 98.729057 106.843774 98.729057 183.740378z" fill="#E4E3FF" /><path d="M421.134491 458.732679a14.490566 14.490566 0 0 1-14.490566-14.490566v-124.348377a14.490566 14.490566 0 0 1 28.981132 0v124.348377a14.490566 14.490566 0 0 1-14.490566 14.490566zM421.134491 281.213585a14.490566 14.490566 0 0 1-14.490566-14.490566v-16.171472a14.490566 14.490566 0 0 1 28.981132 0v16.171472a14.490566 14.490566 0 0 1-14.490566 14.490566z" fill="#FFFFFF" opacity=".3" /><path d="M722.016604 760.464906c0 121.33434-98.535849 219.870189-219.870189 219.870188-7.148679 0-14.297358-0.386415-21.25283-1.159245 111.287547-10.626415 198.424151-104.718491 198.424151-218.710943 0-68.009057-30.681358-128.618264-78.944604-168.979321a54.368604 54.368604 0 0 1-19.784453-41.655547V164.806038c0-33.424906-13.524528-63.758491-35.550188-85.590944a118.01117 118.01117 0 0 0-64.144906-33.424905c6.762264-1.54566 13.910943-2.125283 21.25283-2.125283 33.424906 0 63.758491 13.524528 85.590943 35.550188a120.136453 120.136453 0 0 1 35.550189 85.590944v411.91849c59.507925 39.41434 98.729057 106.843774 98.729057 183.740378z" fill="#D0D0F7" /><path d="M502.146415 903.052075c-78.635472 0-142.58717-63.951698-142.58717-142.587169a142.85766 142.85766 0 0 1 64.144906-119.344302l34.584151-22.914415V164.806038a43.916075 43.916075 0 0 1 43.858113-43.858113c11.689057 0 22.605283 4.501736 30.72 12.674415 8.636377 8.559094 13.138113 19.494642 13.138113 31.183698v453.400151l34.584151 22.914415a142.83834 142.83834 0 0 1 64.144906 119.344302c0 78.635472-63.971019 142.58717-142.58717 142.587169z" fill="#D0D0F7" /><path d="M580.588679 641.120604l-34.584151-22.914415V383.304453l-87.716226-79.717434v314.61917l-34.584151 22.914415a142.85766 142.85766 0 0 0-64.144906 119.344302c0 78.635472 63.951698 142.58717 142.58717 142.587169s142.58717-63.951698 142.58717-142.587169c0-48.108679-23.957736-92.720302-64.144906-119.344302z" fill="#FC6559" /><path d="M495.210264 858.88483a98.535849 98.535849 0 0 1-69.284226-35.511547 14.490566 14.490566 0 0 1 22.315471-18.528604 69.670642 69.670642 0 0 0 48.166642 25.116981 14.490566 14.490566 0 0 1-1.197887 28.92317zM418.603472 787.243472a14.490566 14.490566 0 0 1-14.297359-12.365283 103.385358 103.385358 0 0 1-1.043321-11.437887 14.509887 14.509887 0 0 1 14.007548-14.992906c8.539774 0.347774 14.683774 6.028075 14.973585 14.007547 0.096604 2.762868 0.328453 5.506415 0.734188 8.192a14.490566 14.490566 0 0 1-14.374641 16.596529z" fill="#FFFFFF" opacity=".3" /><path d="M644.579019 767.072604c-1.564981 34.642113-17.775094 67.236226-41.964679 92.082717-44.244528 45.365132-98.767698 50.910189-142.780378 37.520905 78.712755-0.579623 142.374642-65.110943 141.621132-143.978264-0.483019-49.209962-28.092377-94.246642-69.168302-121.334339l-7.013434-4.617661a50.137358 50.137358 0 0 1-22.54732-41.868075v-187.12151c0-13.254038-5.603019-25.889811-15.398642-34.796679L458.288302 336.567547v-33.03849l87.716226 79.794717V618.264151l34.584151 22.798491a142.992906 142.992906 0 0 1 63.99034 126.009962z" fill="#F05543" /><path d="M727.136604 147.513962h-56.82234a14.490566 14.490566 0 0 1 0-28.981132h56.82234a14.490566 14.490566 0 0 1 0 28.981132zM700.570566 219.870189h-30.256302a14.490566 14.490566 0 0 1 0-28.981132h30.256302a14.490566 14.490566 0 0 1 0 28.981132zM727.136604 292.226415h-56.82234a14.490566 14.490566 0 0 1 0-28.981132h56.82234a14.490566 14.490566 0 0 1 0 28.981132zM700.570566 364.601962h-30.256302a14.490566 14.490566 0 0 1 0-28.981132h30.256302a14.490566 14.490566 0 0 1 0 28.981132zM727.136604 436.958189h-56.82234a14.490566 14.490566 0 0 1 0-28.981132h56.82234a14.490566 14.490566 0 0 1 0 28.981132zM700.570566 509.314415h-30.256302a14.490566 14.490566 0 0 1 0-28.981132h30.256302a14.490566 14.490566 0 0 1 0 28.981132zM727.136604 581.670642h-56.82234a14.490566 14.490566 0 0 1 0-28.981133h56.82234a14.490566 14.490566 0 0 1 0 28.981133z" fill="#474646" /><path d="M741.723774 132.926792c0 8.114717-6.569057 14.490566-14.490566 14.490566h-56.996227c-7.341887 0-13.524528-5.603019-14.297358-12.944905 2.125283 1.352453 4.443774 1.932075 6.955471 1.932075h56.803019c8.114717 0 14.490566-6.375849 14.490566-14.490566 0-0.579623 0-1.159245-0.193207-1.738868 4.636981 2.511698 7.728302 7.341887 7.728302 12.751698zM715.061132 205.379623c0 7.921509-6.569057 14.490566-14.490566 14.490566h-30.333585c-7.341887 0-13.524528-5.796226-14.297358-12.944906 2.125283 1.352453 4.443774 1.932075 6.955471 1.932075h30.333585c7.921509 0 14.490566-6.569057 14.490566-14.490566 0-0.579623 0-1.159245-0.193207-1.54566 4.443774 2.318491 7.535094 7.148679 7.535094 12.558491zM741.723774 277.639245c0 8.114717-6.569057 14.490566-14.490566 14.490566h-56.996227c-7.341887 0-13.524528-5.603019-14.297358-12.944905 2.125283 1.352453 4.443774 1.932075 6.955471 1.932075h56.803019c8.114717 0 14.490566-6.375849 14.490566-14.490566 0-0.579623 0-1.159245-0.193207-1.738868 4.636981 2.511698 7.728302 7.341887 7.728302 12.751698zM715.061132 350.092075c0 8.114717-6.569057 14.490566-14.490566 14.490567h-30.333585c-7.341887 0-13.524528-5.603019-14.297358-12.944906 2.125283 1.352453 4.443774 1.932075 6.955471 1.932075h30.333585c7.921509 0 14.490566-6.569057 14.490566-14.490566 0-0.579623 0-0.966038-0.193207-1.54566 4.443774 2.318491 7.535094 7.148679 7.535094 12.55849zM741.723774 422.544906c0 7.921509-6.569057 14.490566-14.490566 14.490566h-56.996227c-7.535094 0-13.717736-5.796226-14.297358-13.138114 2.125283 1.352453 4.443774 1.932075 6.955471 1.932076h56.803019c8.114717 0 14.490566-6.375849 14.490566-14.490566 0-0.579623 0-0.966038-0.193207-1.54566 4.636981 2.318491 7.728302 7.148679 7.728302 12.751698zM715.061132 494.804528c0 8.114717-6.569057 14.490566-14.490566 14.490566h-30.333585c-7.341887 0-13.524528-5.603019-14.297358-12.944905 2.125283 1.352453 4.443774 1.932075 6.955471 1.932075h30.333585c7.921509 0 14.490566-6.569057 14.490566-14.490566 0-0.579623 0-0.966038-0.193207-1.54566 4.443774 2.318491 7.535094 7.148679 7.535094 12.55849zM741.723774 567.257358c0 7.921509-6.569057 14.490566-14.490566 14.490567h-56.996227c-7.535094 0-13.717736-5.796226-14.297358-13.138114 2.125283 1.352453 4.443774 1.932075 6.955471 1.932076h56.803019c8.114717 0 14.490566-6.375849 14.490566-14.490566 0-0.579623 0-0.966038-0.193207-1.545661 4.636981 2.318491 7.728302 7.148679 7.728302 12.751698z" fill="#2D2C2C" /></svg>