<?xml version="1.0" standalone="no"?><!DOCTYPE svg PUBLIC "-//W3C//DTD SVG 1.1//EN" "http://www.w3.org/Graphics/SVG/1.1/DTD/svg11.dtd"><svg class="icon" width="200px" height="200.00px" viewBox="0 0 1024 1024" version="1.1" xmlns="http://www.w3.org/2000/svg"><path d="M131.168604 850.886038h142.85766v49.770264a22.412075 22.412075 0 0 1-22.315472 22.315472H153.484075a22.412075 22.412075 0 0 1-22.315471-22.315472V850.886038zM893.005283 850.886038v49.770264a22.412075 22.412075 0 0 1-22.296151 22.315472h-98.419924a22.412075 22.412075 0 0 1-22.315472-22.315472V850.886038z" fill="#474646" /><path d="M131.168604 850.905358h142.85766v29.309585H131.168604zM749.973736 850.905358h143.031547v29.309585h-143.031547z" fill="#2D2C2C" /><path d="M426.544302 429.635623V363.616604h180.74566v66.019019z" fill="#474646" /><path d="M426.544302 462.635472v-132.018717h13.717736c7.457811 0 13.485887 6.028075 13.485887 13.485887v105.046943a13.505208 13.505208 0 0 1-13.485887 13.485887zM178.543094 462.635472v-132.018717h-13.717736a13.505208 13.505208 0 0 0-13.485886 13.485887v105.046943c0 7.438491 6.047396 13.485887 13.505207 13.485887zM597.475019 462.635472v-132.018717h-13.717736a13.505208 13.505208 0 0 0-13.485887 13.485887v105.046943c0 7.438491 6.047396 13.485887 13.485887 13.485887zM845.514868 462.635472v-132.018717h13.717736c7.457811 0 13.485887 6.028075 13.485887 13.485887v105.046943a13.505208 13.505208 0 0 1-13.485887 13.485887z" fill="#474646" /><path d="M975.698113 422.332377v385.951397a58.310038 58.310038 0 0 1-58.155471 58.155471H106.457358a58.310038 58.310038 0 0 1-58.155471-58.155471V422.332377a58.310038 58.310038 0 0 1 58.155471-58.174792h115.074416c3.477736 0 6.39517 2.917434 6.395169 6.39517v52.320603c0 3.477736-2.917434 6.39517-6.395169 6.39517H119.460226v358.342038h785.079548V429.268528H845.669434a6.472453 6.472453 0 0 1-6.414491-6.39517v-52.320603c0-3.477736 2.936755-6.39517 6.414491-6.39517h71.873208a58.310038 58.310038 0 0 1 58.174792 58.155472z" fill="#474646" /><path d="M975.698113 422.332377v385.951397a58.310038 58.310038 0 0 1-58.155471 58.155471H106.457358a57.730415 57.730415 0 0 1-52.49449-33.656754c7.515774 3.477736 15.553208 5.487094 24.344151 5.487094H889.33434a58.310038 58.310038 0 0 0 58.174792-58.155472V394.143396c0-8.790943-2.009358-17.021585-5.660981-24.537358A57.962264 57.962264 0 0 1 975.698113 422.351698z" fill="#2D2C2C" /><path d="M426.50566 176.842868v427.52966a123.981283 123.981283 0 0 1-247.962566 0V176.842868z" fill="#E4E3FF" /><path d="M211.871396 373.392906v226.922264c0 47.335849 34.506868 89.648302 81.591547 94.265962a90.768906 90.768906 0 0 0 99.733736-90.227924V373.412226a17.350038 17.350038 0 0 0-17.350037-17.350037h-146.644529a17.350038 17.350038 0 0 0-17.330717 17.350037z" fill="#FC6559" /><path d="M375.885283 356.081509c9.583094 0 17.330717 7.747623 17.330717 17.330717v230.979623a90.672302 90.672302 0 0 1-99.791698 90.131321l-3.477736-0.50234a90.537057 90.537057 0 0 0 77.611472-89.648302V356.081509z" fill="#F05543" /><path d="M178.465811 176.823547v22.663245H385.835472c10.896906 0 19.70717 8.829585 19.70717 19.726491v407.822491c0 26.991094-8.655698 51.97283-23.474717 72.317584a123.169811 123.169811 0 0 0 44.476377-94.961509V176.823547z" fill="#D0D0F7" /><path d="M471.426415 138.935547a37.907321 37.907321 0 0 1-37.926641 37.907321H171.568302a37.907321 37.907321 0 0 1 0-75.814642h261.950792c20.943698 0 37.907321 16.982943 37.907321 37.907321z" fill="#A2A2F9" /><path d="M471.368453 139.01283c0 20.827774-17.002264 37.810717-37.830038 37.810717H171.471698c-16.654491 0-30.816604-10.819623-35.820679-25.986415a36.709434 36.709434 0 0 0 25.657962 10.336604h262.066717c20.827774 0 37.830038-17.002264 37.830038-37.830038 0-4.153962-0.676226-8.153358-2.009359-11.978868 7.496453 6.820226 12.172075 16.654491 12.172076 27.628679z" fill="#7979F7" /><path d="M248.851321 601.551698a8.307925 8.307925 0 0 1-8.346566-8.307924v-75.292982a8.307925 8.307925 0 1 1 16.673811 0v75.273661a8.307925 8.307925 0 0 1-8.346566 8.327245zM248.851321 490.496a8.307925 8.307925 0 0 1-8.346566-8.307925v-8.172679a8.307925 8.307925 0 1 1 16.673811 0v8.153359a8.307925 8.307925 0 0 1-8.346566 8.327245z" fill="#FFFFFF" opacity=".3" /><path d="M277.523321 126.666868a8.307925 8.307925 0 0 1-8.346566 8.307924H218.904151a8.307925 8.307925 0 1 1 0-16.65449h50.272604a8.307925 8.307925 0 0 1 8.346566 8.346566zM191.449358 126.666868a8.307925 8.307925 0 0 1-8.327245 8.307924h-8.153358a8.307925 8.307925 0 1 1 0-16.65449h8.153358a8.307925 8.307925 0 0 1 8.307925 8.346566z" fill="#FFFFFF" opacity=".3" /><path d="M845.514868 176.842868v427.52966a123.981283 123.981283 0 1 1-247.962566 0V176.842868z" fill="#E4E3FF" /><path d="M630.880604 373.392906v226.922264c0 47.335849 34.506868 89.648302 81.591547 94.265962a90.768906 90.768906 0 0 0 99.733736-90.227924V373.412226a17.350038 17.350038 0 0 0-17.350038-17.350037h-146.644528a17.350038 17.350038 0 0 0-17.330717 17.350037z" fill="#F9B938" /><path d="M794.894491 356.081509c9.583094 0 17.330717 7.747623 17.330717 17.330717v230.979623a90.672302 90.672302 0 0 1-99.791699 90.131321l-3.477735-0.50234a90.537057 90.537057 0 0 0 77.611471-89.648302V356.081509z" fill="#ECB021" /><path d="M597.475019 176.823547v22.663245h207.36966c10.896906 0 19.70717 8.829585 19.70717 19.726491v407.822491c0 26.991094-8.655698 51.97283-23.474717 72.317584a123.169811 123.169811 0 0 0 44.476377-94.961509V176.823547z" fill="#D0D0F7" /><path d="M890.416302 138.935547a37.907321 37.907321 0 0 1-37.907321 37.907321H590.558189a37.907321 37.907321 0 0 1 0-75.814642h261.950792c20.943698 0 37.907321 16.982943 37.907321 37.907321z" fill="#A2A2F9" /><path d="M890.37766 139.01283c0 20.827774-17.002264 37.810717-37.830037 37.810717H590.480906c-16.654491 0-30.816604-10.819623-35.82068-25.986415a36.709434 36.709434 0 0 0 25.657963 10.336604H842.384906c20.827774 0 37.830038-17.002264 37.830037-37.830038 0-4.153962-0.676226-8.153358-2.009358-11.978868 7.496453 6.820226 12.172075 16.654491 12.172075 27.628679z" fill="#7979F7" /><path d="M667.841208 601.551698a8.307925 8.307925 0 0 1-8.307925-8.307924v-75.292982a8.307925 8.307925 0 1 1 16.654491 0v75.273661a8.307925 8.307925 0 0 1-8.346566 8.327245zM667.841208 490.496a8.307925 8.307925 0 0 1-8.307925-8.307925v-8.172679a8.307925 8.307925 0 1 1 16.654491 0v8.153359a8.307925 8.307925 0 0 1-8.346566 8.327245z" fill="#FFFFFF" opacity=".3" /><path d="M696.513208 126.666868a8.307925 8.307925 0 0 1-8.307925 8.307924h-50.291925a8.307925 8.307925 0 1 1 0-16.65449h50.272604a8.307925 8.307925 0 0 1 8.346566 8.346566zM610.458566 126.666868a8.307925 8.307925 0 0 1-8.327245 8.307924h-8.153359a8.307925 8.307925 0 1 1 0-16.65449h8.153359a8.307925 8.307925 0 0 1 8.307924 8.346566z" fill="#FFFFFF" opacity=".3" /><path d="M632.368302 327.68a8.307925 8.307925 0 0 1-8.307925-8.307925v-38.699471a8.307925 8.307925 0 1 1 16.654491 0v38.680151a8.307925 8.307925 0 0 1-8.327245 8.346566zM632.368302 253.217811a8.307925 8.307925 0 0 1-8.307925-8.327245v-8.153358a8.307925 8.307925 0 1 1 16.654491 0v8.153358a8.307925 8.307925 0 0 1-8.327245 8.307925z" fill="#FFFFFF" opacity=".3" /><path d="M210.557585 327.68a8.307925 8.307925 0 0 1-8.307925-8.307925v-38.699471a8.307925 8.307925 0 1 1 16.654491 0v38.680151a8.307925 8.307925 0 0 1-8.346566 8.346566zM210.557585 253.217811a8.307925 8.307925 0 0 1-8.307925-8.327245v-8.153358a8.307925 8.307925 0 1 1 16.654491 0v8.153358a8.307925 8.307925 0 0 1-8.346566 8.307925z" fill="#FFFFFF" opacity=".3" /><path d="M85.726189 677.520906a9.930868 9.930868 0 0 1-9.950189-9.950189v-135.612377a9.930868 9.930868 0 1 1 19.900377 0v135.612377c0 5.506415-4.443774 9.950189-9.950188 9.950189zM85.726189 499.19034a9.930868 9.930868 0 0 1-9.950189-9.930868v-9.737661a9.930868 9.930868 0 1 1 19.900377 0v9.737661c0 5.487094-4.443774 9.930868-9.950188 9.930868z" fill="#FFFFFF" opacity=".3" /></svg>