<?xml version="1.0" standalone="no"?><!DOCTYPE svg PUBLIC "-//W3C//DTD SVG 1.1//EN" "http://www.w3.org/Graphics/SVG/1.1/DTD/svg11.dtd"><svg class="icon" width="200px" height="200.00px" viewBox="0 0 1024 1024" version="1.1" xmlns="http://www.w3.org/2000/svg"><path d="M932.748075 385.217208h19.320755v179.277283h-19.320755z" fill="#2D2C2C" /><path d="M975.698113 360.988981c0 18.489962-14.934943 33.424906-33.270339 33.424906a33.347623 33.347623 0 0 1 0-66.695245c18.354717 0 33.27034 14.934943 33.270339 33.270339z" fill="#FC6559" /><path d="M975.659472 360.988981c0 18.547925-14.876981 33.424906-33.231698 33.424906-13.022189 0-24.228226-7.535094-29.753963-18.547925 5.525736 4.211925 12.500528 6.800906 20.035623 6.800906 18.354717 0 33.424906-14.876981 33.424906-33.424906 0-5.139321-1.120604-9.911547-3.497057-14.316679 7.882868 5.699623 13.022189 15.244075 13.022189 26.083019z" fill="#F05543" /><path d="M865.511849 455.737962V733.029434c0 54.79366-44.437736 99.231396-99.231396 99.231396H257.719547a99.231396 99.231396 0 0 1-99.231396-99.231396V455.737962c0-54.812981 44.437736-99.250717 99.231396-99.250717h508.560906c54.79366 0 99.231396 44.437736 99.231396 99.250717z" fill="#7979F7" /><path d="M680.380377 573.575245m-114.881207 0a114.881208 114.881208 0 1 0 229.762415 0 114.881208 114.881208 0 1 0-229.762415 0Z" fill="#FFFFFF" /><path d="M865.511849 455.737962v277.214189c0 54.890264-44.437736 99.308679-99.328 99.308679H257.816151a98.787019 98.787019 0 0 1-83.175849-44.959396c13.968906 7.535094 30.121057 11.920906 47.37449 11.920906h508.560906c54.697057 0 99.115472-44.437736 99.115472-99.115472V422.66083a98.477887 98.477887 0 0 0-16.13283-54.349283 99.192755 99.192755 0 0 1 51.953509 87.407095z" fill="#5E5EEF" /><path d="M691.779623 832.241509v63.951699c0 14.104151-10.433208 25.696604-24.150944 27.242264-1.159245 0.386415-2.318491 0.386415-3.477736 0.386415h-304.301886c-15.263396 0-27.628679-12.365283-27.62868-27.628679v-63.951699z" fill="#D0D0F7" /><path d="M691.779623 832.241509v63.951699c0 14.104151-10.433208 25.696604-24.150944 27.242264v-17.002264c0-28.787925-23.378113-52.166038-52.166037-52.166038h-283.242265v-22.025661z" fill="#A2A2F9" /><path d="M314.580528 573.575245m-114.881207 0a114.881208 114.881208 0 1 0 229.762415 0 114.881208 114.881208 0 1 0-229.762415 0Z" fill="#FFFFFF" /><path d="M429.481057 573.594566a114.861887 114.861887 0 0 1-114.93917 114.919849 114.958491 114.958491 0 0 1-90.691623-44.244528 114.861887 114.861887 0 0 0 185.247396-90.88483 113.219623 113.219623 0 0 0-24.788528-71.042415 114.16634 114.16634 0 0 1 45.171925 91.251924zM565.518491 573.536604a114.861887 114.861887 0 0 0 114.919849 114.919849 114.958491 114.958491 0 0 0 90.691622-44.244528 114.861887 114.861887 0 0 1-185.247396-90.884831 113.219623 113.219623 0 0 1 24.788528-71.042415 114.16634 114.16634 0 0 0-45.171924 91.251925z" fill="#E4E3FF" /><path d="M314.580528 573.575245m-69.728603 0a69.728604 69.728604 0 1 0 139.457207 0 69.728604 69.728604 0 1 0-139.457207 0Z" fill="#474646" /><path d="M384.25117 573.633208a69.747925 69.747925 0 0 1-126.319095 40.824754c10.433208 6.414491 22.895094 10.066113 36.245736 10.066113a69.554717 69.554717 0 1 0 56.397283-110.572679 69.052377 69.052377 0 0 1 33.676076 59.681812z" fill="#2D2C2C" /><path d="M294.158491 554.872755m-23.513359 0a23.513358 23.513358 0 1 0 47.026717 0 23.513358 23.513358 0 1 0-47.026717 0Z" fill="#FFFFFF" /><path d="M680.380377 573.575245m-69.728603 0a69.728604 69.728604 0 1 0 139.457207 0 69.728604 69.728604 0 1 0-139.457207 0Z" fill="#474646" /><path d="M610.709736 573.633208a69.747925 69.747925 0 0 0 126.319094 40.824754 69.071698 69.071698 0 0 1-36.245736 10.066113 69.554717 69.554717 0 1 1-56.397283-110.572679 69.052377 69.052377 0 0 0-33.676075 59.681812z" fill="#2D2C2C" /><path d="M700.802415 554.872755m-23.513358 0a23.513358 23.513358 0 1 0 47.026717 0 23.513358 23.513358 0 1 0-47.026717 0Z" fill="#FFFFFF" /><path d="M865.511849 460.664755v207.698113a103.887698 103.887698 0 0 0 102.477283-103.771774 103.907019 103.907019 0 0 0-102.477283-103.926339z" fill="#FC6559" /><path d="M918.624604 627.383547a6.858868 6.858868 0 0 1-3.767547-12.635773 46.176604 46.176604 0 0 0 20.924377-34.835321c0.347774-3.786868 3.728906-6.762264 7.457811-6.279245 3.786868 0.328453 6.607698 3.670943 6.279246 7.457811a59.89434 59.89434 0 0 1-27.12634 45.152604 6.800906 6.800906 0 0 1-3.767547 1.139924z" fill="#FFFFFF" opacity=".3" /><path d="M960.975698 527.321358l-0.560302-0.618264c-26.353509-29.000453-75.080453-8.307925-75.080453 30.893887v108.524679a88.604981 88.604981 0 0 1-19.823094 2.202566V460.684075a103.520604 103.520604 0 0 1 95.463849 66.656604z" fill="#F05543" /><path d="M603.000755 297.73283l114.572075-138.046792 14.876981 12.345962-114.572075 138.046792z" fill="#2D2C2C" /><path d="M765.778113 168.863396c-11.824302 14.200755-32.845283 16.13283-46.949434 4.405132a33.347623 33.347623 0 0 1 42.640906-51.257962c14.104151 11.708377 16.036226 32.748679 4.308528 46.833509z" fill="#F9B938" /><path d="M765.739472 168.824755a33.27034 33.27034 0 0 1-46.910793 4.443773 33.212377 33.212377 0 0 1-11.01283-33.270339c1.54566 6.762264 5.255245 13.215396 11.051472 18.026264a33.424906 33.424906 0 0 0 47.046037-4.327849c3.284528-3.960755 5.487094-8.327245 6.472453-13.254038a31.99517 31.99517 0 0 1-6.646339 28.401509z" fill="#E5A320" /><path d="M354.149434 158.391547l14.876981-12.345962 114.572076 137.872906-14.876982 12.345962z" fill="#2D2C2C" /><path d="M320.531321 154.701283c11.824302 14.200755 32.845283 16.13283 46.949434 4.424453a33.347623 33.347623 0 0 0-42.640906-51.277283 33.308981 33.308981 0 0 0-4.308528 46.85283z" fill="#F9B938" /><path d="M320.550642 154.681962a33.27034 33.27034 0 0 0 46.930113 4.443774 33.212377 33.212377 0 0 0 11.01283-33.27034c-1.54566 6.762264-5.255245 13.196075-11.051472 18.006944a33.424906 33.424906 0 0 1-47.065358-4.327849 29.522113 29.522113 0 0 1-6.472453-13.234717 31.99517 31.99517 0 0 0 6.64634 28.382188z" fill="#E5A320" /><path d="M71.93117 385.217208h19.320755v179.277283h-19.320755z" fill="#2D2C2C" /><path d="M158.488151 460.664755v207.698113A103.887698 103.887698 0 0 1 56.030189 564.571774a103.907019 103.907019 0 0 1 102.477283-103.92634z" fill="#FC6559" /><path d="M105.375396 627.383547a6.858868 6.858868 0 0 0 3.767547-12.635773 46.176604 46.176604 0 0 1-20.924377-34.835321c-0.347774-3.786868-3.728906-6.762264-7.457811-6.279245a6.91683 6.91683 0 0 0-6.279246 7.457811 59.89434 59.89434 0 0 0 27.12634 45.152604c1.159245 0.77283 2.473057 1.139925 3.767547 1.139924z" fill="#FFFFFF" opacity=".3" /><path d="M63.024302 527.321358l0.560302-0.618264c26.353509-29.000453 75.080453-8.307925 75.080453 30.893887v108.524679c6.433811 1.468377 13.041509 2.202566 19.823094 2.202566V460.684075a103.520604 103.520604 0 0 0-95.463849 66.656604z" fill="#F05543" /><path d="M48.301887 360.988981c0 18.489962 14.934943 33.424906 33.270339 33.424906a33.347623 33.347623 0 0 0 0-66.695245c-18.354717 0-33.27034 14.934943-33.270339 33.270339z" fill="#FC6559" /><path d="M48.340528 360.988981c0 18.547925 14.876981 33.424906 33.231698 33.424906 13.022189 0 24.228226-7.535094 29.753963-18.547925a32.903245 32.903245 0 0 1-20.035623 6.800906c-18.354717 0-33.424906-14.876981-33.424906-33.424906 0-5.139321 1.120604-9.911547 3.497057-14.316679a31.99517 31.99517 0 0 0-13.022189 26.083019z" fill="#F05543" /><path d="M685.82883 356.487245a173.82883 173.82883 0 0 0-173.925434-171.220528c-95.116075 0-172.302491 76.432906-173.732226 171.220528z" fill="#F9B938" /><path d="M388.115321 288.748679a9.196679 9.196679 0 0 1-2.82083-12.674415 154.063698 154.063698 0 0 1 50.253283-48.997434 9.158038 9.158038 0 1 1 9.467169 15.707774 135.824906 135.824906 0 0 0-44.244528 43.162566 9.196679 9.196679 0 0 1-12.655094 2.801509z" fill="#FFFFFF" opacity=".3" /><path d="M462.384302 223.73434a9.177358 9.177358 0 0 1 5.989434-11.51517 156.304906 156.304906 0 0 1 14.567849-3.84483 9.331925 9.331925 0 0 1 10.877585 7.090717 9.177358 9.177358 0 0 1-7.090717 10.877585 136.404528 136.404528 0 0 0-12.828981 3.381132 9.158038 9.158038 0 0 1-11.51517-5.989434z" fill="#FFFFFF" opacity=".3" /><path d="M685.770868 356.409962H338.229132c0-7.341887 0.560302-14.509887 1.661585-21.484679H542.913208c67.680604 0 101.704453-84.760151 50.504452-129.043321a175.702943 175.702943 0 0 0-1.101283-0.946717 173.442415 173.442415 0 0 1 93.454491 151.474717z" fill="#E5A320" /><path d="M619.423396 744.254792c0 15.765736-12.771019 28.536755-28.536754 28.536755h-177.789585a28.536755 28.536755 0 0 1 0-57.054189h177.789585c15.765736 0 28.536755 12.751698 28.536754 28.517434z" fill="#FFFFFF" /><path d="M493.162264 403.687849a11.940226 11.940226 0 0 1-11.940226 11.940226h-160.555472a11.940226 11.940226 0 0 1 0-23.880452h160.555472c6.588377 0 11.940226 5.351849 11.940226 11.940226zM288.594113 403.687849a11.940226 11.940226 0 0 1-11.940226 11.940226H260.830189a11.940226 11.940226 0 0 1 0-23.880452h15.804377c6.569057 0 11.940226 5.351849 11.940226 11.940226z" fill="#FFFFFF" opacity=".4" /><path d="M510.357736 899.381132a7.573736 7.573736 0 0 1-7.554415 7.573736h-101.743095a7.573736 7.573736 0 0 1 0-15.147472h101.743095c4.173283 0 7.554415 3.400453 7.554415 7.573736zM380.734792 899.381132a7.573736 7.573736 0 0 1-7.573735 7.573736h-10.008151a7.573736 7.573736 0 0 1 0-15.147472h10.008151c4.173283 0 7.573736 3.400453 7.573735 7.573736z" fill="#FFFFFF" opacity=".4" /><path d="M419.453585 715.737358h9.660377v57.054189h-9.660377zM458.307623 715.737358h9.660377v57.054189h-9.660377zM497.16166 715.737358h9.660378v57.054189h-9.660378zM536.015698 715.737358h9.660377v57.054189h-9.660377zM574.869736 715.737358h9.660377v57.054189h-9.660377z" fill="#474646" /></svg>