<?xml version="1.0" standalone="no"?><!DOCTYPE svg PUBLIC "-//W3C//DTD SVG 1.1//EN" "http://www.w3.org/Graphics/SVG/1.1/DTD/svg11.dtd"><svg class="icon" width="200px" height="200.00px" viewBox="0 0 1024 1024" version="1.1" xmlns="http://www.w3.org/2000/svg"><path d="M207.891321 774.144a24.150943 24.150943 0 0 1-23.184906-30.951849l161.173736-549.482264c2.453736-8.365887 9.235321-14.780377 17.755774-16.731774L576.048302 128.096604a24.05434 24.05434 0 0 1 28.94249 18.122868 24.131623 24.131623 0 0 1-18.122867 28.94249l-198.617359 45.732227-157.212981 535.899773a24.150943 24.150943 0 0 1-23.146264 17.369359z" fill="#474646" /><path d="M369.026415 224.661736c-3.052679 0-6.144-0.579623-9.177358-1.816151l-189.401359-77.862642a24.150943 24.150943 0 1 1 18.354717-44.688905l189.420679 77.862641a24.150943 24.150943 0 0 1-9.177358 46.505057z" fill="#474646" /><path d="M434.485132 200.607396c0 37.578868-30.662038 68.047698-68.240906 68.047698s-68.240906-30.46883-68.240905-68.047698c0-37.559547 30.681358-68.240906 68.240905-68.240905s68.240906 30.681358 68.240906 68.240905z" fill="#FC6559" /><path d="M434.523774 200.588075c0 37.675472-30.72 68.009057-68.202265 68.009057-26.662642 0-49.65434-15.070189-60.860377-37.289057 11.978868 10.433208 27.628679 16.809057 44.630943 16.809057 37.675472 0 68.395472-30.526792 68.395472-68.009057 0-11.01283-2.704906-21.446038-7.341887-30.72 14.297358 12.558491 23.378113 30.913208 23.378114 51.2z" fill="#F05543" /><path d="M864.796981 701.575245v23.184906l-483.791698-101.240755v-31.879245c0-23.571321 22.412075-40.766792 45.403774-34.777359l411.725283 109.935095c15.843019 4.250566 26.662642 18.354717 26.662641 34.777358z" fill="#FC6559" /><path d="M864.796981 706.985057v17.775094l-483.791698-101.240755v-17.775094z" fill="#F05543" /><path d="M980.528302 828.087547a97.434566 97.434566 0 0 1-97.434566 97.415245H210.460981A166.989283 166.989283 0 0 1 43.471698 758.53283c0-105.97434 97.434566-185.150792 201.167698-163.453585l658.393359 137.641057a97.434566 97.434566 0 0 1 77.495547 95.367245z" fill="#A2A2F9" /><path d="M77.244377 739.096151a14.490566 14.490566 0 0 1-7.457811-19.088906 182.967547 182.967547 0 0 1 80.64483-87.523019 14.490566 14.490566 0 1 1 13.698415 25.542038 153.773887 153.773887 0 0 0-67.815849 73.612076 14.490566 14.490566 0 0 1-19.069585 7.457811zM486.4 716.703396l-21.25283-4.443773a14.490566 14.490566 0 0 1 5.931472-28.40151l21.25283 4.463095a14.490566 14.490566 0 0 1-5.931472 28.382188zM747.500679 771.284528l-197.670641-41.307773a14.490566 14.490566 0 0 1 5.912151-28.40151l197.670641 41.346415a14.490566 14.490566 0 0 1-5.912151 28.362868z" fill="#FFFFFF" opacity=".2" /><path d="M980.528302 828.126189c0 53.711698-43.664906 97.376604-97.376604 97.376603H210.403019c-62.599245 0-117.276981-34.584151-145.871698-85.78415a167.221132 167.221132 0 0 0 125.778113 57.189433h672.555472c53.904906 0 97.569811-43.664906 97.569811-97.569811 0-14.297358-3.091321-28.015094-8.887547-40.380377 18.161509 17.775094 28.981132 42.312453 28.981132 69.168302z" fill="#7979F7" /><path d="M304.746264 761.991245c0 53.615094-43.413736 96.854943-96.874264 96.854944s-96.854943-43.239849-96.854943-96.854944c0-53.460528 43.413736-96.874264 96.854943-96.874264s96.874264 43.413736 96.874264 96.874264z" fill="#474646" /><path d="M304.688302 762.049208c0 53.518491-43.278491 96.796981-96.796981 96.796981-28.787925 0-54.677736-12.558491-72.259623-32.652076 15.843019 11.399245 35.163774 17.968302 56.030189 17.968302 53.325283 0 96.796981-43.278491 96.796981-96.796981 0-24.730566-9.273962-47.335849-24.730566-64.338113 24.730566 17.388679 40.96 46.369811 40.96 79.021887z" fill="#2D2C2C" /><path d="M250.783396 761.991245a42.892075 42.892075 0 1 1-85.842113 0.019321 42.892075 42.892075 0 0 1 85.842113-0.019321z" fill="#E4E3FF" /><path d="M242.475472 736.739019a42.911396 42.911396 0 0 0-64.724529 36.902641c0 9.660377 3.091321 18.354717 8.307925 25.310189a42.621585 42.621585 0 0 1-21.059623-36.902641c0-23.764528 19.127547-42.892075 42.892076-42.892076 14.297358 0 26.855849 6.955472 34.584151 17.581887z" fill="#D0D0F7" /></svg>