<?xml version="1.0" standalone="no"?><!DOCTYPE svg PUBLIC "-//W3C//DTD SVG 1.1//EN" "http://www.w3.org/Graphics/SVG/1.1/DTD/svg11.dtd"><svg class="icon" width="200px" height="200.00px" viewBox="0 0 1024 1024" version="1.1" xmlns="http://www.w3.org/2000/svg"><path d="M814.524377 596.296453v1.54566c0 209.436981-169.636226 379.266415-379.073207 379.266415-209.436981 0-379.266415-169.829434-379.266415-379.266415s169.829434-379.073208 379.266415-379.073207c67.815849 0 131.57434 17.775094 186.63849 49.267924 87.136604 49.074717 152.82717 132.153962 179.296604 231.076227 3.477736 12.558491 6.375849 25.503396 8.307925 38.641509 3.091321 19.127547 4.830189 38.641509 4.830188 58.541887z" fill="#7979F7" /><path d="M809.694189 537.754566h-166.351698c-24.150943 0-45.983396-12.365283-58.541887-32.845283a68.009057 68.009057 0 0 1-2.511698-67.043019c24.537358-48.495094 37.675472-103.94566 39.800754-169.829434 87.136604 49.074717 152.82717 132.153962 179.296604 231.076227 3.477736 12.558491 6.375849 25.503396 8.307925 38.641509z" fill="#5E5EEF" /><path d="M814.524377 596.296453c-10.046792 5.216604-21.639245 8.114717-33.618113 8.114717-38.448302 0-70.327547-29.367547-74.384906-66.656604-0.193208-2.704906-0.386415-5.409811-0.386415-8.114717 0-3.864151 0.386415-8.501132 0.966038-13.717736l2.318491-16.809056h91.966792c3.477736 12.558491 6.375849 25.503396 8.307925 38.641509 3.091321 19.127547 4.830189 38.641509 4.830188 58.541887z" fill="#5E5EEF" /><path d="M120.947925 739.115472a342.016 342.016 0 0 1-30.44951-141.196076 344.237887 344.237887 0 0 1 183.643774-304.862188 14.490566 14.490566 0 1 1 13.563169 25.6A315.353358 315.353358 0 0 0 147.359396 727.233208a14.490566 14.490566 0 1 1-26.411471 11.882264zM374.01117 273.002264a14.490566 14.490566 0 0 1 12.307321-16.403321 332.838642 332.838642 0 0 1 71.081056-2.627622 14.490566 14.490566 0 0 1 13.369962 15.514566 14.336 14.336 0 0 1-15.533886 13.389283c-21.25283-1.54566-43.471698-0.637585-64.840453 2.415094a14.490566 14.490566 0 0 1-16.384-12.307321z" fill="#FFFFFF" opacity=".3" /><path d="M814.524377 597.938717c0 209.436981-169.636226 379.266415-379.073207 379.266415-114.18566 0-216.58566-50.42717-286.140378-130.415094 66.463396 57.962264 153.6 93.126038 248.851321 93.126037 209.436981 0 379.073208-169.829434 379.073208-379.266415 0-95.637736-35.163774-182.967547-93.705661-249.430943 80.181132 69.554717 130.994717 172.147925 130.994717 286.72z" fill="#5E5EEF" /><path d="M717.534189 597.861434c0 155.918491-126.357736 282.276226-282.083019 282.276226-155.918491 0-282.276226-126.357736-282.276227-282.276226 0-155.725283 126.357736-281.889811 282.276227-281.889811 64.531321 0 124.039245 21.639245 171.375094 58.155471 47.529057 36.323019 83.079245 87.329811 99.888302 146.258114 1.54566 5.796226 3.091321 11.592453 4.250566 17.388679 2.125283 9.080755 3.670943 18.547925 4.636981 28.015094 1.352453 10.433208 1.932075 21.25283 1.932076 32.072453z" fill="#FFFFFF" /><path d="M717.534189 597.938717c0 155.725283-126.357736 282.083019-282.083019 282.083019-89.261887 0-168.863396-41.346415-220.449812-106.070944 48.301887 38.834717 109.355472 61.826415 176.012076 61.826416 155.918491 0 282.083019-126.357736 282.083019-282.276227 0-66.656604-22.991698-127.710189-61.633208-176.012075a281.116981 281.116981 0 0 1 106.070944 220.449811z" fill="#E4E3FF" /><path d="M710.965132 537.754566h-67.622641c-24.150943 0-45.983396-12.365283-58.541887-32.845283a68.009057 68.009057 0 0 1-2.511698-67.043019c10.046792-19.900377 18.354717-41.153208 24.537358-63.75849 47.529057 36.323019 83.079245 87.329811 99.888302 146.258113 1.54566 5.796226 3.091321 11.592453 4.250566 17.388679z" fill="#E4E3FF" /><path d="M715.602113 565.76966c-4.830189-8.501132-7.921509-17.968302-9.080755-28.015094-0.193208-2.704906-0.386415-5.409811-0.386415-8.114717s0.193208-5.796226 0.579623-9.273962c1.54566 5.796226 3.091321 11.592453 4.250566 17.388679 2.125283 9.080755 3.670943 18.547925 4.636981 28.015094z" fill="#E4E3FF" /><path d="M435.354566 387.535698a9.660377 9.660377 0 0 1-9.660377-9.660377v-11.109434a9.660377 9.660377 0 1 1 19.320754 0v11.109434a9.660377 9.660377 0 0 1-9.660377 9.660377zM316.93766 412.188981l-5.564377-9.621736a9.641057 9.641057 0 1 1 16.712453-9.660377l5.564377 9.621736a9.641057 9.641057 0 1 1-16.712453 9.660377zM239.886491 496.311547l-9.621736-5.545056a9.679698 9.679698 0 0 1 9.660377-16.751095l9.621736 5.545057a9.679698 9.679698 0 0 1-9.660377 16.751094zM215.233208 607.676377h-11.128755a9.660377 9.660377 0 1 1 0-19.320754h11.109434a9.660377 9.660377 0 1 1 0 19.320754zM226.729057 718.461585a9.641057 9.641057 0 0 1 3.535698-13.196076l9.621736-5.564377a9.641057 9.641057 0 1 1 9.660377 16.712453l-9.621736 5.583698a9.660377 9.660377 0 0 1-13.196075-3.535698zM314.908981 806.641509a9.641057 9.641057 0 0 1-3.535698-13.196075l5.564377-9.660377a9.660377 9.660377 0 0 1 16.712453 9.660377l-5.564377 9.660377a9.641057 9.641057 0 0 1-13.176755 3.516378zM435.354566 839.293585a9.660377 9.660377 0 0 1-9.660377-9.660377v-12.036831a9.660377 9.660377 0 1 1 19.320754 0v12.056151a9.660377 9.660377 0 0 1-9.660377 9.660378zM542.623396 803.105811l-5.564377-9.660377a9.641057 9.641057 0 1 1 16.712453-9.660377l5.564377 9.660377a9.641057 9.641057 0 1 1-16.712453 9.660377zM630.784 721.997283l-9.641057-5.583698a9.641057 9.641057 0 1 1 9.660378-16.712453l9.660377 5.564377a9.641057 9.641057 0 1 1-9.660377 16.731774zM666.604679 607.676377h-11.148075a9.660377 9.660377 0 1 1 0-19.320754h11.148075a9.660377 9.660377 0 1 1 0 19.320754zM617.587925 492.737208a9.660377 9.660377 0 0 1 3.574339-13.176755l9.660378-5.545057a9.660377 9.660377 0 0 1 9.602415 16.751095l-9.641057 5.545056a9.660377 9.660377 0 0 1-13.196075-3.574339zM540.594717 415.724679a9.641057 9.641057 0 0 1-3.535698-13.196075l5.564377-9.621736a9.660377 9.660377 0 0 1 16.712453 9.660377l-5.564377 9.621736a9.660377 9.660377 0 0 1-13.196076 3.535698zM511.49766 614.4h-75.215698a14.490566 14.490566 0 0 1-14.490566-14.490566v-141.737057a14.490566 14.490566 0 0 1 28.981132 0V585.418868h60.725132a14.490566 14.490566 0 0 1 0 28.981132z" fill="#231F20" /><path d="M317.497962 670.488151a9.660377 9.660377 0 0 1 2.898113-13.331321l98.052831-63.120905a9.660377 9.660377 0 1 1 10.433207 16.268075l-98.014188 63.101585a9.679698 9.679698 0 0 1-13.369963-2.898113z" fill="#E24B40" /><path d="M468.624906 597.919396l0 0z" fill="#231F20" /><path d="M784.461283 128.830792h-3.670943c-76.046491 0-137.138717 61.053585-139.24468 137.080755-1.738868 62.98566-12.925585 123.633509-42.157886 180.784302-16.770415 32.806642 7.110038 71.718642 43.935396 71.718642h275.088905c36.651472 0 60.570566-38.583547 44.128604-71.332227-28.652679-57.034868-38.796075-117.50883-39.762113-180.359245-1.197887-76.220377-62.096906-137.892226-138.317283-137.892227z" fill="#F9B938" /><path d="M683.375094 250.339019a8.056755 8.056755 0 0 1-5.64166-9.892227 108.389434 108.389434 0 0 1 52.417208-66.598641 8.056755 8.056755 0 0 1 7.68966 14.142792 92.198642 92.198642 0 0 0-44.572981 56.687095 8.056755 8.056755 0 0 1-9.892227 5.660981zM767.710189 178.021434a8.056755 8.056755 0 0 1-1.024-16.036226 109.355472 109.355472 0 0 1 13.099471-0.908076h0.077283a8.056755 8.056755 0 0 1 0.077283 16.094189 93.744302 93.744302 0 0 0-11.186717 0.77283 7.786264 7.786264 0 0 1-1.04332 0.077283z" fill="#FFFFFF" opacity=".4" /><path d="M918.431396 518.375849H643.32317a49.074717 49.074717 0 0 1-46.756227-33.656755c3.207245 0.734189 6.588377 1.043321 10.124076 1.043321H881.799245c36.632151 0 60.531925-38.564226 44.109283-71.312906-28.652679-56.996226-38.796075-117.470189-39.762113-180.339924a140.713057 140.713057 0 0 0-30.121057-85.185208 140.345962 140.345962 0 0 1 66.753208 117.779321c0.966038 62.889057 11.109434 123.343698 39.762113 180.339925 16.422642 32.768-7.477132 71.332226-44.109283 71.332226z" fill="#E5A320" /><path d="M836.221585 529.639849a55.373283 55.373283 0 0 1-110.707925 0 88.875472 88.875472 0 0 1 0.811472-11.264h109.104302c0.560302 4.34717 0.792151 8.114717 0.792151 11.264z" fill="#FC6559" /><path d="M794.237585 570.194113a4.038038 4.038038 0 0 1-1.990038-7.535094c8.655698-4.86883 15.475925-12.635774 19.243472-21.832453a4.038038 4.038038 0 0 1 7.457811 3.052679 52.629736 52.629736 0 0 1-22.740528 25.793208 4.018717 4.018717 0 0 1-1.970717 0.52166z" fill="#FFFFFF" opacity=".3" /><path d="M739.656453 539.39683c0 15.765736 6.607698 30.024453 17.234113 40.090566a55.199396 55.199396 0 0 1-31.318943-49.847547 88.875472 88.875472 0 0 1 0.792151-11.264h109.104301c0.483019 3.709585 0.714868 6.91683 0.714868 9.73766h-85.069283a11.360604 11.360604 0 0 0-11.457207 11.186717v0.096604z" fill="#F05543" /><path d="M780.867623 145.620528c-27.242264 0-49.40317-22.160906-49.40317-49.42249s22.160906-49.422491 49.40317-49.422491 49.422491 22.180226 49.42249 49.422491-22.160906 49.422491-49.42249 49.42249z m0-74.674717c-13.910943 0-25.252226 11.321962-25.252227 25.252227s11.321962 25.271547 25.252227 25.271547 25.271547-11.321962 25.271547-25.271547-11.321962-25.252226-25.271547-25.252227z" fill="#F9B938" /></svg>