<?xml version="1.0" standalone="no"?><!DOCTYPE svg PUBLIC "-//W3C//DTD SVG 1.1//EN" "http://www.w3.org/Graphics/SVG/1.1/DTD/svg11.dtd"><svg class="icon" width="200px" height="200.00px" viewBox="0 0 1024 1024" version="1.1" xmlns="http://www.w3.org/2000/svg"><path d="M724.682868 248.136453c-55.141434 114.823245-154.005736 202.636075-272.770415 248.464905L254.956679 572.66717c-76.973887 29.715321-119.537509 110.495396-103.810415 188.763773l-45.693585 17.65917 20.595925 53.325283 45.693585-17.639849c40.96 68.550038 126.744151 99.772377 203.718037 70.057057l223.98551-86.460378c47.644981-18.393358 77.089811-69.612679 63.410717-118.861283a82.924679 82.924679 0 0 0-7.013434-18.122868c-22.02566-44.399094-75.389585-65.671245-122.686793-47.413132l-327.42883 126.396378a95.405887 95.405887 0 0 1-0.077283-20.808453c0.908075-35.086491 27.879849-77.340981 69.88317-93.570415l194.482717-75.061132c159.628075-61.633208 329.843925-32.24634 413.270943 22.856453l3.864151 2.588981-144.596528-374.53283c-3.477736 13.775698-9.853585 29.522113-17.871698 46.311849z m-170.930717 419.144453a40.824755 40.824755 0 0 1 52.74566 23.358792 40.824755 40.824755 0 0 1-23.378113 52.72634l-228.255396 88.102641a110.263547 110.263547 0 0 1-128.560302-37.772075z" fill="#F9B938" /><path d="M655.843019 661.349434c13.717736 49.267925-15.746415 100.467925-63.391396 118.861283L368.446792 866.671094c-72.704 28.073057-153.329509 1.79683-196.569358-58.928302-4.59834-6.588377-13.389283-8.71366-20.866415-5.834867l-31.975849 12.365283 6.994113 18.122867 45.693585-17.639849c40.96 68.550038 126.744151 99.772377 203.718038 70.057057l223.985509-86.460377c47.644981-18.393358 77.089811-69.612679 63.410717-118.861283a82.924679 82.924679 0 0 0-7.013434-18.122868zM742.554566 201.824604l144.577208 374.53283-3.864151-2.588981c-81.726792-57.633811-258.241208-82.69283-413.251623-22.856453l-194.482717 75.061132c-36.767396 14.200755-65.613283 48.64966-69.88317 93.570415l-0.540981 9.196679c-5.139321-48.263245 15.978264-102.573887 63.430038-120.889962l194.482717-75.080453a1343.855094 1343.855094 0 0 1 87.580981-30.082415c128.52166-39.221132 222.903547-135.960151 177.750943-262.511094 6.279245-13.872302 11.283321-26.836528 14.200755-38.351698z" fill="#E5A320" /><path d="M305.016755 702.116226l26.662641-10.297962 20.576604 53.325283-26.662642 10.297962zM361.742491 680.225811l26.662641-10.297962 20.576604 53.344604-26.662642 10.297962zM418.448906 658.335396l26.662641-10.278641 20.576604 53.325283-26.662642 10.297962zM475.174642 636.444981l26.662641-10.278641 20.576604 53.325283-26.662642 10.297962z" fill="#E5A320" /><path d="M815.799547 155.203623l156.981132 406.605283a42.563623 42.563623 0 1 1-79.408302 30.662037L736.391245 185.84634a42.563623 42.563623 0 1 1 79.408302-30.662038z" fill="#FC6559" /><path d="M975.698113 577.729208a42.75683 42.75683 0 0 1-27.358188 39.163169 42.467019 42.467019 0 0 1-54.948227-24.344151L736.371925 185.807698c-6.182642-15.997585-1.932075-33.560151 9.351245-45.075321-0.173887 5.390491 0.77283 10.954868 2.82083 16.287397l156.942491 406.54732a42.447698 42.447698 0 0 0 70.211622 14.162114z" fill="#F05543" /><path d="M100.467925 766.261132l30.526792 79.021887a26.991094 26.991094 0 0 1-50.349887 19.436679l-30.526792-79.021887A26.991094 26.991094 0 0 1 100.467925 766.261132z" fill="#FC6559" /><path d="M100.525887 766.261132l30.46883 78.925283a27.049057 27.049057 0 0 1-15.514566 34.989887 26.855849 26.855849 0 0 1-27.435472-4.926793 27.049057 27.049057 0 0 0 28.15034-36.61283l-30.46883-78.925283a24.479396 24.479396 0 0 0-7.477132-10.375245c9.756981 0.927396 18.547925 7.341887 22.27683 16.924981z" fill="#F05543" /><path d="M343.155925 776.752302a14.297358 14.297358 0 0 1-18.470642-8.192l-29.386868-76.123774a14.297358 14.297358 0 0 1 26.662642-10.297962l29.386868 76.123774a14.297358 14.297358 0 0 1-8.192 18.489962zM399.900981 754.861887a14.297358 14.297358 0 0 1-18.489962-8.192l-29.367547-76.123774a14.297358 14.297358 0 0 1 26.662641-10.297962l29.367547 76.123774a14.297358 14.297358 0 0 1-8.172679 18.470641zM456.626717 732.952151a14.297358 14.297358 0 0 1-18.470642-8.192l-29.386867-76.123774a14.297358 14.297358 0 0 1 26.662641-10.297962l29.367547 76.123774a14.297358 14.297358 0 0 1-8.172679 18.489962zM513.352453 711.042415a14.297358 14.297358 0 0 1-18.470642-8.172679l-29.386868-76.123774a14.297358 14.297358 0 0 1 26.662642-10.297962l29.386868 76.123774a14.297358 14.297358 0 0 1-8.192 18.470641z" fill="#474646" /><path d="M894.782792 436.977509a8.732981 8.732981 0 0 1-11.28332-5.004075l-63.140227-163.530868a8.732981 8.732981 0 0 1 16.287397-6.298566l63.140226 163.550189a8.732981 8.732981 0 0 1-5.004076 11.28332zM820.069434 243.422189a8.732981 8.732981 0 0 1-11.302642-5.023397l-4.153962-10.742339a8.732981 8.732981 0 0 1 16.306717-6.298566l4.153962 10.76166a8.732981 8.732981 0 0 1-5.023396 11.302642z" fill="#FFFFFF" opacity=".4" /></svg>