<?xml version="1.0" standalone="no"?><!DOCTYPE svg PUBLIC "-//W3C//DTD SVG 1.1//EN" "http://www.w3.org/Graphics/SVG/1.1/DTD/svg11.dtd"><svg class="icon" width="200px" height="200.00px" viewBox="0 0 1024 1024" version="1.1" xmlns="http://www.w3.org/2000/svg"><path d="M871.771774 95.154717l-779.978868 772.636981c-27.242264 27.049057-8.114717 73.612075 30.333585 73.612076h779.78566c22.412075 0 40.96-17.195472 42.892075-39.221132 0.193208-1.352453 0.193208-2.511698 0.193208-3.864151V125.681509c0-38.255094-46.176604-57.382642-73.22566-30.526792z m-73.805283 673.328302c0 14.297358-11.592453 25.696604-25.889812 25.696604h-324.975094c-23.184906 0-34.584151-27.821887-18.16151-44.051321l324.975095-322.076981c16.229434-16.229434 44.051321-4.636981 44.051321 18.354717z" fill="#F7E839" /><path d="M340.818113 711.622038a19.320755 19.320755 0 0 1 0.115925-27.319547l201.380226-199.486793a19.320755 19.320755 0 0 1 27.203623 27.435472L368.13766 711.776604a19.320755 19.320755 0 0 1-27.319547-0.135246zM615.733132 439.296a19.320755 19.320755 0 0 1 0.096604-27.319547l15.10883-14.954264a19.320755 19.320755 0 0 1 27.203623 27.454792l-15.08951 14.954264a19.320755 19.320755 0 0 1-27.319547-0.135245z" fill="#FFFFFF" opacity=".3" /><path d="M900.946113 82.596226v771.670944c0 1.352453 0 2.511698-0.193207 3.864151a43.085283 43.085283 0 0 1-42.892076 39.221132H79.041208c-0.386415 22.412075 16.809057 44.051321 43.085283 44.051321h779.78566c22.412075 0 40.96-17.195472 42.892075-39.221132 0.193208-1.352453 0.193208-2.511698 0.193208-3.864151V125.681509c0-26.276226-21.639245-43.471698-44.051321-43.085283z" fill="#EDD318" /><path d="M944.997434 182.948226v28.459472H884.310943a14.181434 14.181434 0 0 1-14.239396-14.220075c0-7.921509 6.317887-14.239396 14.239396-14.239397zM944.997434 251.942642v28.672h-33.618113a14.336 14.336 0 0 1-14.220076-14.432604c0-7.921509 6.317887-14.239396 14.239397-14.239396zM944.997434 320.937057v28.672H884.310943a14.181434 14.181434 0 0 1-14.239396-14.239397c0-7.921509 6.317887-14.432604 14.239396-14.432603h60.686491zM944.997434 390.144v28.459472h-33.618113c-7.902189 0-14.220075-6.317887-14.220076-14.239397s6.317887-14.220075 14.239397-14.220075zM944.997434 459.138415v28.672H884.310943a14.336 14.336 0 0 1-14.239396-14.432604c0-7.921509 6.317887-14.239396 14.239396-14.239396zM944.997434 528.13283v28.672h-33.618113a14.181434 14.181434 0 0 1-14.220076-14.239396c0-7.921509 6.317887-14.432604 14.239397-14.432604zM944.997434 597.320453v28.478792H884.310943a14.181434 14.181434 0 0 1-14.239396-14.239396c0-7.921509 6.317887-14.239396 14.239396-14.239396zM944.997434 666.334189v28.652679h-33.618113a14.336 14.336 0 0 1-14.220076-14.432604c0-7.902189 6.317887-14.220075 14.239397-14.220075h33.618113zM944.997434 735.521811v28.478793H884.310943a14.297358 14.297358 0 0 1-14.239396-14.239396c0-7.921509 6.317887-14.239396 14.239396-14.239397zM944.997434 804.516226v28.478793h-33.618113a14.181434 14.181434 0 0 1-14.220076-14.239396c0-7.921509 6.317887-14.239396 14.239397-14.239397zM944.997434 873.510642v24.730566c0 1.371774 0 2.56966-0.193208 3.941434h-74.732679a14.336 14.336 0 0 1-14.239396-14.432604c0-7.921509 6.337208-14.239396 14.239396-14.239396h74.925887z" fill="#474646" /></svg>