<?xml version="1.0" standalone="no"?><!DOCTYPE svg PUBLIC "-//W3C//DTD SVG 1.1//EN" "http://www.w3.org/Graphics/SVG/1.1/DTD/svg11.dtd"><svg class="icon" width="200px" height="200.00px" viewBox="0 0 1024 1024" version="1.1" xmlns="http://www.w3.org/2000/svg"><path d="M512 763.189132a14.490566 14.490566 0 0 1-14.490566-14.490566V43.471698a14.490566 14.490566 0 0 1 28.981132 0v705.226868a14.490566 14.490566 0 0 1-14.490566 14.490566z" fill="#2D2C2C" /><path d="M417.482868 995.018868a118.822642 118.822642 0 0 1-118.687396-118.668076v-33.251018a24.150943 24.150943 0 1 1 48.301886 0v33.251018A70.443472 70.443472 0 0 0 417.482868 946.716981a70.443472 70.443472 0 0 0 70.346868-70.366189v-127.652226a24.150943 24.150943 0 1 1 48.301887 0v127.652226a118.784 118.784 0 0 1-118.648755 118.668076z" fill="#2D2C2C" /><path d="M967.351547 522.549132a13.775698 13.775698 0 0 1-8.559094 12.713057 14.046189 14.046189 0 0 1-15.205434-2.762868c-42.834113-42.563623-112.176302-43.394415-155.280906-1.661585-4.694943 6.066717-15.475925 7.187321-21.272151 1.661585-43.394415-43.394415-113.857208-43.394415-156.961811-0.289812a13.930264 13.930264 0 0 1-19.610566 0.289812c-43.375094-43.394415-113.837887-43.394415-156.942491-0.289812a13.930264 13.930264 0 0 1-19.629886 0.289812c-43.375094-43.394415-113.837887-43.394415-156.942491-0.289812-5.796226 6.086038-16.577208 4.694943-21.272151-1.642264-43.664906-41.172528-113.026415-40.631547-155.280906 1.932076a14.973585 14.973585 0 0 1-9.950188 3.864151 11.959547 11.959547 0 0 1-5.255246-1.101283 13.775698 13.775698 0 0 1-8.559094-12.713057C60.222792 274.972981 264.404528 73.805283 511.980679 73.805283c247.576151 0 451.777208 201.129057 455.390189 448.724528z" fill="#F9B938" /><path d="M967.351547 522.549132a13.775698 13.775698 0 0 1-8.559094 12.713057 14.046189 14.046189 0 0 1-15.205434-2.762868c-42.834113-42.563623-112.176302-43.394415-155.280906-1.661585-4.694943 6.066717-15.475925 7.187321-21.272151 1.661585-43.394415-43.394415-113.857208-43.394415-156.961811-0.289812a13.930264 13.930264 0 0 1-19.610566 0.289812c-43.375094-43.394415-113.837887-43.394415-156.942491-0.289812a13.930264 13.930264 0 0 1-19.629886 0.289812c-43.375094-43.394415-113.837887-43.394415-156.942491-0.289812-5.796226 6.086038-16.577208 4.694943-21.272151-1.642264-43.664906-41.172528-113.026415-40.631547-155.280906 1.932076a14.973585 14.973585 0 0 1-9.950188 3.864151 11.959547 11.959547 0 0 1-5.255246-1.101283 13.775698 13.775698 0 0 1-8.559094-12.713057C60.222792 274.972981 264.404528 73.805283 511.980679 73.805283c247.576151 0 451.777208 201.129057 455.390189 448.724528z" fill="#7979F7" /><path d="M791.068981 521.98883v0.560302c0 7.728302-6.086038 13.81434-13.814339 13.81434a14.645132 14.645132 0 0 1-10.24-4.153963c-42.814792-42.273811-112.176302-42.814792-155.551397-1.371773-4.424453 6.066717-15.205434 7.187321-21.00166 1.371773-43.375094-43.085283-113.837887-43.085283-156.942491 0-5.796226 5.796226-16.577208 4.694943-21.272151-1.642264-43.664906-41.172528-112.736604-40.631547-155.300226 1.642264-8.018113 8.018113-24.035019 1.661585-24.035019-9.660377 2.202566-251.730113 124.889358-448.724528 279.068981-448.724528s276.866415 196.994415 279.088302 448.164226z" fill="#F9B938" /><path d="M126.183849 393.196679a11.592453 11.592453 0 0 1-6.704302-14.954264A464.509585 464.509585 0 0 1 193.207547 250.435623a11.611774 11.611774 0 0 1 18.006944 14.625811 440.590491 440.590491 0 0 0-70.076378 121.430943 11.592453 11.592453 0 0 1-14.973585 6.704302zM221.415849 233.259472a11.592453 11.592453 0 0 1 0.77283-16.36468c7.071396-6.472453 14.355321-12.713057 21.832453-18.721811a11.592453 11.592453 0 1 1 14.548528 18.045585c-7.110038 5.738264-14.046189 11.669736-20.769811 17.794415a11.592453 11.592453 0 0 1-16.384-0.753509z" fill="#FFFFFF" opacity=".4" /><path d="M290.004528 395.824302a11.592453 11.592453 0 0 1-9.621736-13.273359 464.509585 464.509585 0 0 1 46.234566-140.133434 11.611774 11.611774 0 0 1 20.595925 10.665057 440.590491 440.590491 0 0 0-43.935396 133.12 11.592453 11.592453 0 0 1-13.292679 9.621736zM350.72966 219.870189a11.592453 11.592453 0 0 1-2.56966-16.171472c5.603019-7.786264 11.476528-15.379321 17.581887-22.77917a11.592453 11.592453 0 1 1 17.910339 14.703095c-5.796226 7.071396-11.379925 14.297358-16.731773 21.658566a11.592453 11.592453 0 0 1-16.190793 2.588981z" fill="#FFFFFF" opacity=".4" /><path d="M614.496604 521.98883v0.560302c0 7.728302-6.066717 13.81434-13.81434 13.81434a14.645132 14.645132 0 0 1-10.220679-4.153963c-43.375094-43.085283-113.837887-43.085283-156.942491 0-8.018113 8.018113-24.035019 1.661585-24.035019-9.660377 0.270491-155.570717 22.102943-448.724528 102.496604-448.724528 80.412981 0 102.245434 293.153811 102.515925 448.164226z" fill="#5BC658" /><path d="M967.390189 522.587774c0 5.409811-3.284528 10.433208-8.501132 12.751698-5.409811 2.125283-11.206038 0.966038-15.263397-2.898114-6.182642-6.182642-13.138113-11.592453-20.286792-15.649811-6.375849-237.258868-196.878491-430.466415-432.012076-442.445283 6.762264-0.386415 13.717736-0.579623 20.673208-0.579622 247.498868 0 451.719245 201.129057 455.390189 448.821132z" fill="#E5A320" /><path d="M790.991698 522.008151v0.579623a13.524528 13.524528 0 0 1-13.717736 13.717735c-3.670943 0-7.535094-1.352453-10.24-4.057358-3.091321-2.898113-6.182642-5.796226-9.46717-8.307925v-1.932075c-2.318491-241.895849-116.117736-433.750943-262.375849-447.275472 5.603019-0.77283 11.206038-0.966038 16.809057-0.966037 154.179623 0 276.866415 197.071698 278.991698 448.241509z" fill="#D0D0F7" /><path d="M614.593208 522.008151v0.579623c0 7.728302-6.182642 13.717736-13.910944 13.717735-3.670943 0-7.535094-1.352453-10.24-4.057358-2.511698-2.511698-5.023396-4.636981-7.535094-6.762264 0.193208-0.966038 0.193208-1.932075 0.193207-2.898113v-0.579623c-0.193208-144.326038-19.127547-408.633962-86.750188-444.184151 4.830189-2.704906 10.046792-4.057358 15.649811-4.057358 80.37434 0 102.206792 293.289057 102.593208 448.241509z" fill="#ECB021" /><path d="M967.390189 522.587774c0 5.409811-3.284528 10.433208-8.501132 12.751698-5.409811 2.125283-11.206038 0.966038-15.263397-2.898114-6.182642-6.182642-13.138113-11.592453-20.286792-15.649811-6.375849-237.258868-196.878491-430.466415-432.012076-442.445283 6.762264-0.386415 13.717736-0.579623 20.673208-0.579622 247.498868 0 451.719245 201.129057 455.390189 448.821132z" fill="#5E5EEF" /><path d="M790.991698 522.008151v0.579623a13.524528 13.524528 0 0 1-13.717736 13.717735c-3.670943 0-7.535094-1.352453-10.24-4.057358-3.091321-2.898113-6.182642-5.796226-9.46717-8.307925v-1.932075c-2.318491-241.895849-116.117736-433.750943-262.375849-447.275472 5.603019-0.77283 11.206038-0.966038 16.809057-0.966037 154.179623 0 276.866415 197.071698 278.991698 448.241509z" fill="#E5A320" /><path d="M614.593208 522.008151v0.579623c0 7.728302-6.182642 13.717736-13.910944 13.717735-3.670943 0-7.535094-1.352453-10.24-4.057358-2.511698-2.511698-5.023396-4.636981-7.535094-6.762264 0.193208-0.966038 0.193208-1.932075 0.193207-2.898113v-0.579623c-0.193208-144.326038-19.127547-408.633962-86.750188-444.184151 4.830189-2.704906 10.046792-4.057358 15.649811-4.057358 80.37434 0 102.206792 293.289057 102.593208 448.241509z" fill="#49A247" /></svg>