<?xml version="1.0" standalone="no"?><!DOCTYPE svg PUBLIC "-//W3C//DTD SVG 1.1//EN" "http://www.w3.org/Graphics/SVG/1.1/DTD/svg11.dtd"><svg class="icon" width="200px" height="200.00px" viewBox="0 0 1024 1024" version="1.1" xmlns="http://www.w3.org/2000/svg"><path d="M794.237585 361.143547l39.68483 70.269585a22.392755 22.392755 0 0 1-8.307924 30.584755L606.768302 585.612075a22.392755 22.392755 0 0 1-30.46883-8.675018l-39.704151-70.288906-36.34234 20.537962 39.68483 70.288906c17.388679 30.777962 56.590491 41.887396 87.368453 24.498717l218.846189-123.594868c30.777962-17.388679 41.500981-56.687094 24.131622-87.465057l-39.70415-70.288905z" fill="#ECB021" /><path d="M840.394868 488.177509L621.548679 611.772377a64.028981 64.028981 0 0 1-87.213887-24.266868l5.603019 9.950189c17.388679 30.777962 56.590491 41.887396 87.368453 24.498717l218.846189-123.594868c30.777962-17.388679 41.500981-56.687094 24.131622-87.465056l-5.603018-9.950189a64.028981 64.028981 0 0 1-24.286189 87.233207z" fill="#E5A320" /><path d="M372.407547 496.871849l495.287547-279.764528 43.954717 77.804679-495.287547 279.764528z" fill="#F9B938" /><path d="M500.504151 527.186113l36.36166-20.537962 7.805585 13.81434-36.36166 20.537962zM794.527396 361.046943l36.361661-20.557283 7.805585 13.81434-36.361661 20.557283z" fill="#E5A320" /><path d="M867.347321 217.223245l43.935396 77.80468L416.169057 574.657208l-15.591849-27.62868L819.586415 310.368604a57.614491 57.614491 0 0 0 21.832453-78.500227z" fill="#ECB021" /><path d="M515.187925 416.227019l24.266867-13.698415 43.954717 77.824-24.266867 13.698415zM603.425811 366.360151l24.247547-13.698415 43.954717 77.824-24.247547 13.698415zM691.914868 316.377358l24.247547-13.698415 43.954717 77.824-24.247547 13.698415z" fill="#ECB021" /><path d="M372.156377 496.910491c-89.358491 0.135245-178.214642 4.636981-279.725886-35.105812-28.343547-11.090113-54.77434 20.190189-39.800755 46.698264l188.551245 333.843321c14.973585 26.508075 55.411925 20.035623 60.531925-9.969509 18.393358-107.442717 68.124981-181.228679 114.378868-257.680906z" fill="#FC6559" /><path d="M79.331019 459.833962c-22.508679 1.004679-39.298415 26.37283-26.701283 48.668981l188.551245 333.843321c12.597132 22.296151 42.988679 21.020981 55.450566 2.260528z" fill="#7979F7" /><path d="M79.331019 459.930566L296.573585 844.54883c-8.906868 13.659774-27.261585 17.968302-41.597585 10.703698 3.284528-0.560302 4.656302-6.066717 5.448453-12.944905 2.260528-19.436679-2.415094-39.066566-12.210717-56.030189L62.792453 465.765434c4.694943-3.59366 10.317283-5.487094 16.538566-5.796226z" fill="#5E5EEF" /><path d="M280.479396 566.948226a13.872302 13.872302 0 0 1-7.921509 1.738868c-46.524377-3.651623-89.455094-12.403925-131.303849-26.720603a13.910943 13.910943 0 0 1 9.042113-26.334189c39.588226 13.582491 80.277736 21.832453 124.42566 25.310189a13.910943 13.910943 0 0 1 5.757585 26.005735z" fill="#FFFFFF" opacity=".3" /><path d="M296.554264 844.54883l-25.194264-44.592302c15.050868-72.414189 44.186566-129.468377 75.988528-183.54717 21.832453-36.632151 21.504-82.480302 0.579623-119.55683 8.114717 0.193208 16.306717 0.038642 24.286189 0l43.935396 77.80468c-46.369811 76.374943-96.101434 150.180226-114.359547 257.661584-1.062642 6.047396-3.535698 11.283321-7.225963 14.954265 0.830792-0.77283 1.294491-1.680906 1.990038-2.704906z" fill="#E24B40" /><path d="M925.560755 182.252679l45.732226 80.973283a33.946566 33.946566 0 1 1-59.121509 33.386264l-45.712906-80.953962a33.946566 33.946566 0 1 1 59.121509-33.386264z" fill="#F9B938" /><path d="M925.522113 182.136755l45.848151 81.185811c9.177358 16.229434 3.245887 36.864-13.002868 46.022038a34.139774 34.139774 0 0 1-28.401509 2.31849c4.327849-0.231849 8.617057-1.680906 12.751698-4.018717a34.101132 34.101132 0 0 0 12.848302-46.253886l-45.712906-80.953963a33.888604 33.888604 0 0 0-17.833056-15.186113 34.139774 34.139774 0 0 1 33.502188 16.88634z" fill="#ECB021" /><path d="M524.056151 354.05283l-30.584755 17.272755a13.910943 13.910943 0 1 0 13.698415 24.228226l3.168604-1.777509 76.259019 135.052075a13.910943 13.910943 0 1 0 24.247547-13.717735l-76.278339-135.032755 3.168603-1.79683a13.910943 13.910943 0 1 0-13.679094-24.228227zM612.332679 304.205283l-30.546113 17.253434a13.910943 13.910943 0 1 0 13.679094 24.228226l3.149283-1.777509 76.27834 135.052075a13.910943 13.910943 0 1 0 24.228226-13.698415l-76.278339-135.052075 3.168604-1.77751a13.910943 13.910943 0 1 0-13.679095-24.228226zM700.609208 254.338415l-30.546114 17.253434a13.910943 13.910943 0 1 0 13.679095 24.247547l3.149283-1.777509 76.278339 135.052075a13.910943 13.910943 0 1 0 24.228227-13.717736l-76.27834-135.032754 3.187925-1.79683a13.910943 13.910943 0 1 0-13.698415-24.228227z" fill="#474646" /><path d="M907.437887 241.41283a6.955472 6.955472 0 0 1-9.486491-2.627622l-14.220075-25.174944a6.955472 6.955472 0 0 1 12.114113-6.858868l14.220075 25.194264a6.955472 6.955472 0 0 1-2.627622 9.46717z" fill="#FFFFFF" opacity=".3" /></svg>