<?xml version="1.0" standalone="no"?><!DOCTYPE svg PUBLIC "-//W3C//DTD SVG 1.1//EN" "http://www.w3.org/Graphics/SVG/1.1/DTD/svg11.dtd"><svg class="icon" width="200px" height="200.00px" viewBox="0 0 1024 1024" version="1.1" xmlns="http://www.w3.org/2000/svg"><path d="M512 576.879094a14.490566 14.490566 0 0 1-14.490566-14.490566v-127.207849a14.490566 14.490566 0 0 1 28.981132 0v127.207849a14.490566 14.490566 0 0 1-14.490566 14.490566z" fill="#474646" /><path d="M422.197132 652.191396a14.490566 14.490566 0 0 1 0-20.48l79.543547-79.562868a14.915623 14.915623 0 0 1 20.48 0l79.60151 79.562868a14.490566 14.490566 0 1 1-20.499321 20.48L512 582.868528l-69.303547 69.322868a14.490566 14.490566 0 0 1-20.48 0z" fill="#474646" /><path d="M468.47034 738.922264c0 116.059774-94.092075 210.016604-210.016604 210.016604-116.040453 0-210.151849-93.95683-210.151849-210.016604 0-116.040453 94.111396-210.016604 210.151849-210.016604 115.924528 0 210.016604 93.976151 210.016604 210.016604z" fill="#5BC658" /><path d="M74.520151 742.689811h-0.270491a7.090717 7.090717 0 0 1-6.800905-7.341886 193.941736 193.941736 0 0 1 99.018868-162.371623 7.071396 7.071396 0 1 1 6.955471 12.326641 179.818264 179.818264 0 0 0-91.812226 150.585963 7.071396 7.071396 0 0 1-7.090717 6.800905zM213.030642 561.306566a7.090717 7.090717 0 0 1 5.313207-8.501132c13.331321-3.052679 27.068377-4.733585 40.863396-4.946113h0.115925a7.090717 7.090717 0 0 1 0.115924 14.142792c-12.80966 0.193208-25.561358 1.758189-37.90732 4.59834a7.071396 7.071396 0 0 1-8.501132-5.293887z" fill="#FFFFFF" opacity=".4" /><path d="M468.47034 738.864302c0 116.040453-94.092075 210.016604-210.016604 210.016604a209.050566 209.050566 0 0 1-156.092378-69.477434 208.992604 208.992604 0 0 0 139.399246 52.938868c115.905208 0 210.016604-93.995472 210.016604-210.016604a209.050566 209.050566 0 0 0-53.634416-140.133434 209.069887 209.069887 0 0 1 70.327548 156.691321z" fill="#49A247" /><path d="M416.594113 738.864302a157.715321 157.715321 0 0 1-54.291321 119.324981 157.17434 157.17434 0 0 1-103.849056 38.950642c-86.982038 0-158.275623-70.520755-158.275623-158.275623 0-87.407094 70.868528-158.140377 158.275623-158.140377a158.121057 158.121057 0 0 1 158.140377 158.140377z" fill="#E4E3FF" /><path d="M400.171472 668.826566a157.425509 157.425509 0 0 0-125.971321-62.71517C186.793057 606.111396 115.924528 676.825358 115.924528 764.251774c0 25.387472 5.989434 49.40317 16.693132 70.578717a157.328906 157.328906 0 0 1-32.439547-95.966189c0-87.407094 70.868528-158.140377 158.275623-158.140377 62.174189 0 115.924528 35.84 141.717736 88.102641z" fill="#C2C2EF" /><path d="M362.302792 858.189283a157.17434 157.17434 0 0 1-103.849056 38.950642 157.966491 157.966491 0 0 1-103.984302-38.950642 74.887245 74.887245 0 0 1 23.474717-23.068981 70.037736 70.037736 0 0 1 26.469434-9.370566c0.560302 0 4.366491-0.135245 10.201358-0.135245 2.56966-0.135245 5.699623-0.135245 8.964831-0.135246h69.632c3.245887 0 6.375849 0 8.945509 0.135246 5.854189 0 9.776302 0.135245 10.317283 0.135245a71.622038 71.622038 0 0 1 46.563019 27.821887c1.081962 1.487698 2.183245 2.994717 3.265207 4.61766z" fill="#7F3939" /><path d="M302.137962 825.614491v1.970717a43.78083 43.78083 0 0 1-43.761509 43.761509 43.78083 43.78083 0 0 1-43.742189-43.761509v-1.970717c2.627623-0.096604 5.699623-0.096604 9.042113-0.096604 19.610566-0.193208 49.808906-0.193208 69.419472 0 3.342491 0 6.414491 0 9.042113 0.096604z" fill="#E4E3FF" /><path d="M284.092377 805.404981v22.141585a25.696604 25.696604 0 0 1-51.373886 0v-22.141585c7.921509 5.564377 15.456604 8.887547 25.696603 8.887547 10.201358 0 17.755774-3.32317 25.696604-8.887547z" fill="#F7C9A9" /><path d="M284.053736 805.443623v22.141585c0 7.960151-3.612981 15.10883-9.312604 19.803773 0.367094-1.622943 0.540981-3.342491 0.540981-5.062038 0-8.984151-8.153358-16.13283-16.944302-14.200754-2.704906 0.598943-5.603019 0.908075-8.732981 0.908075a39.027925 39.027925 0 0 1-16.886339-3.709585v-19.881056c7.94083 5.525736 15.456604 8.868226 25.657962 8.868226 10.220679 0 17.813736-3.342491 25.677283-8.868226z" fill="#E8AA80" /><path d="M316.473962 695.102792v65.78717a58.87034 58.87034 0 1 1-117.721358 0v-65.78717c36.323019-28.16966 75.814642-25.696604 117.702038 0z" fill="#F7C9A9" /><path d="M316.473962 753.992453v6.878189a58.908981 58.908981 0 0 1-100.487245 41.655547 58.851019 58.851019 0 0 1-17.234113-41.655547v-6.878189a58.851019 58.851019 0 1 0 117.721358 0z" fill="#F0B68E" /><path d="M316.473962 717.05117v43.896755a21.967698 21.967698 0 0 0 21.504-21.948378c0-11.978868-9.602415-21.697208-21.52332-21.948377zM198.733283 717.05117v43.896755a21.967698 21.967698 0 0 1-21.523321-21.948378c0-11.978868 9.602415-21.697208 21.523321-21.948377z" fill="#F7C9A9" /><path d="M316.473962 760.928604v-4.057359a21.987019 21.987019 0 0 0 21.388076-19.745811 21.909736 21.909736 0 0 1-21.388076 23.80317zM198.752604 756.871245v4.057359a22.00634 22.00634 0 0 1-21.542642-21.948378c0-0.618264 0.038642-1.236528 0.096604-1.854792a22.02566 22.02566 0 0 0 21.446038 19.745811z" fill="#F0B68E" /><path d="M203.080453 748.679245l1.661585-28.015094a4.463094 4.463094 0 0 1 3.59366-4.134642c6.762264-1.294491 22.141585-5.564377 31.647396-18.470641 1.738868-2.357132 5.139321-2.646943 7.052076-0.444377 6.936151 8.076075 24.653283 22.682566 60.493283 19.900377a4.521057 4.521057 0 0 1 4.946113 4.482415v26.681962c4.714264-9.602415 4.59834-36.36166 17.504604-26.624 39.820075-70.617358-52.74566-139.78566-118.26234-75.52483a3.59366 3.59366 0 0 1-3.129962 1.024c-6.66566-1.139925-30.352906-2.183245-28.556076 40.728151 0.966038 23.242868 5.023396 33.907925 5.023397 33.907925 10.877585-4.250566 13.176755 6.723623 18.026264 26.488754z" fill="#2D2C2C" /><path d="M339.46566 691.876226c-3.786868-52.977509-74.636075-88.489057-127.710188-36.458264a3.690264 3.690264 0 0 1-3.226566 1.043321c-6.240604-1.062642-26.855849-1.932075-28.498114 31.801962-1.816151-42.853434 21.832453-41.829434 28.556076-40.689509 1.159245 0.193208 2.318491-0.212528 3.149283-1.043321 55.991547-54.890264 131.806189-12.345962 127.710189 45.326491z" fill="#1B1B1B" /><path d="M265.930868 766.686189c2.028679 2.241208 1.893434 5.757585 0.193207 8.501132-1.622943 2.917434-5.12 4.59834-8.520452 4.675622-3.439094-0.057962-6.936151-1.738868-8.539774-4.636981-1.719547-2.762868-1.854792-6.298566 0.193208-8.539773 4.153962 4.173283 6.627019 3.381132 8.327245 3.516377 1.738868-0.135245 4.211925 0.676226 8.346566-3.516377z" fill="#E8AA80" /><path d="M290.931925 749.606642a7.979472 7.979472 0 1 1-15.978265 0 7.979472 7.979472 0 0 1 15.978265 0zM291.743396 737.820981h-17.543245a2.898113 2.898113 0 0 1 0-5.796226h17.523924a2.898113 2.898113 0 0 1 0 5.796226zM240.214943 749.606642a7.979472 7.979472 0 1 1-15.978264 0 7.979472 7.979472 0 0 1 15.978264 0zM240.987774 737.820981h-17.523925a2.898113 2.898113 0 0 1 0-5.796226h17.523925a2.898113 2.898113 0 0 1 0 5.796226z" fill="#2D2C2C" /><path d="M241.973132 789.504c-2.009358 0-3.245887 2.337811-1.990038 3.922113a22.354113 22.354113 0 0 0 35.221736 0c1.255849-1.584302 0-3.922113-1.990038-3.922113z" fill="#E8AA80" /><path d="M322.076981 746.669887a2.898113 2.898113 0 0 1-0.154566-4.096c2.56966-2.82083 0.579623-6.762264 0.540981-6.820227a2.898113 2.898113 0 0 1 1.27517-3.902792 2.956075 2.956075 0 0 1 3.902792 1.27517c0.135245 0.289811 3.806189 7.593057-1.468377 13.369962a2.878792 2.878792 0 0 1-4.076679 0.173887zM191.777811 747.442717a2.859472 2.859472 0 0 1-2.125283-0.946717c-5.255245-5.776906-1.603623-13.080151-1.449056-13.369962 0.77283-1.429736 2.55034-1.932075 3.902792-1.27517a2.898113 2.898113 0 0 1 1.255849 3.883472c-0.057962 0.193208-1.951396 4.076679 0.560302 6.839547a2.898113 2.898113 0 0 1-2.125283 4.86883z" fill="#F0B68E" /><path d="M975.698113 738.922264c0 116.059774-94.111396 210.016604-210.016604 210.016604-116.059774 0-210.151849-93.95683-210.151849-210.016604 0-116.040453 94.092075-210.016604 210.151849-210.016604 115.905208 0 210.016604 93.976151 210.016604 210.016604z" fill="#F9B938" /><path d="M581.747925 742.689811h-0.270491a7.090717 7.090717 0 0 1-6.800906-7.341886 193.941736 193.941736 0 0 1 98.999547-162.371623 7.071396 7.071396 0 1 1 6.955472 12.326641 179.818264 179.818264 0 0 0-91.812226 150.585963 7.071396 7.071396 0 0 1-7.071396 6.800905zM720.258415 561.306566a7.090717 7.090717 0 0 1 5.313208-8.501132c13.331321-3.052679 27.049057-4.733585 40.863396-4.946113h0.115924a7.090717 7.090717 0 0 1 0.096604 14.142792c-12.79034 0.193208-25.542038 1.758189-37.907321 4.59834a7.071396 7.071396 0 0 1-8.501132-5.293887z" fill="#FFFFFF" opacity=".4" /><path d="M975.698113 738.864302c0 116.040453-94.111396 210.016604-210.016604 210.016604a209.050566 209.050566 0 0 1-156.111698-69.477434 208.992604 208.992604 0 0 0 139.399246 52.938868c115.924528 0 210.016604-93.995472 210.016603-210.016604a209.050566 209.050566 0 0 0-53.634415-140.133434 209.069887 209.069887 0 0 1 70.327547 156.691321z" fill="#E5A320" /><path d="M923.821887 738.864302a157.715321 157.715321 0 0 1-54.291321 119.324981 157.17434 157.17434 0 0 1-103.849057 38.950642 157.966491 157.966491 0 0 1-103.984301-38.950642 157.927849 157.927849 0 0 1-54.291321-119.324981c0-87.407094 70.849208-158.140377 158.275622-158.140377a158.121057 158.121057 0 0 1 158.140378 158.140377z" fill="#E4E3FF" /><path d="M907.379925 668.826566a157.425509 157.425509 0 0 0-125.971321-62.71517c-87.407094 0-158.256302 70.713962-158.256302 158.140378 0 25.387472 5.970113 49.40317 16.693132 70.578717a157.328906 157.328906 0 0 1-32.458868-95.966189c0-87.407094 70.868528-158.140377 158.294943-158.140377 62.154868 0 115.924528 35.84 141.698416 88.102641z" fill="#C2C2EF" /><path d="M869.511245 858.189283a157.17434 157.17434 0 0 1-103.829736 38.950642 157.966491 157.966491 0 0 1-103.984301-38.950642c1.081962-1.622943 2.163925-3.129962 3.265207-4.636981 11.708377-15.398642 27.821887-25.155623 46.678943-27.821887 0.560302 0 4.34717-0.115925 10.182038-0.115924 2.588981-0.135245 5.699623-0.135245 8.96483-0.135246h69.632c3.265208 0 6.375849 0 8.964831 0.135246 5.834868 0 9.776302 0.135245 10.317283 0.135245a72.375547 72.375547 0 0 1 49.808905 32.439547z" fill="#7979F7" /><path d="M809.346415 825.614491v1.970717a43.78083 43.78083 0 0 1-43.742189 43.761509 43.78083 43.78083 0 0 1-43.761509-43.761509v-1.970717c2.627623-0.096604 5.699623-0.096604 9.042113-0.096604a4438.866113 4438.866113 0 0 1 78.461585 0.096604z" fill="#E4E3FF" /><path d="M791.320151 805.404981v22.141585a25.696604 25.696604 0 0 1-51.373887 0v-22.141585c7.921509 5.564377 15.456604 8.887547 25.696604 8.887547 10.201358 0 17.736453-3.32317 25.677283-8.887547z" fill="#F7C9A9" /><path d="M791.262189 805.443623v22.141585c0 7.960151-3.612981 15.10883-9.293283 19.803773 0.347774-1.622943 0.540981-3.342491 0.540981-5.062038 0-8.984151-8.172679-16.13283-16.944302-14.200754-2.704906 0.598943-5.603019 0.908075-8.732981 0.908075a39.027925 39.027925 0 0 1-16.905661-3.709585v-19.881056c7.960151 5.525736 15.456604 8.868226 25.677283 8.868226 10.201358 0 17.794415-3.342491 25.657963-8.868226z" fill="#E8AA80" /><path d="M823.682415 695.102792v65.78717a58.87034 58.87034 0 0 1-117.721358 0v-65.78717c36.323019-28.16966 75.833962-25.696604 117.721358 0z" fill="#F7C9A9" /><path d="M823.682415 753.992453v6.878189a58.908981 58.908981 0 0 1-100.467924 41.655547 58.851019 58.851019 0 0 1-17.234114-41.655547v-6.878189a58.851019 58.851019 0 1 0 117.702038 0z" fill="#F0B68E" /><path d="M823.682415 717.05117v43.896755a21.967698 21.967698 0 0 0 21.523321-21.948378c0-11.978868-9.602415-21.697208-21.523321-21.948377zM705.941736 717.05117v43.896755a21.967698 21.967698 0 0 1-21.523321-21.948378c0-11.978868 9.602415-21.697208 21.523321-21.948377z" fill="#F7C9A9" /><path d="M823.682415 760.928604v-4.057359a21.987019 21.987019 0 0 0 21.388076-19.745811 21.909736 21.909736 0 0 1-21.388076 23.80317zM705.980377 756.871245v4.057359a22.00634 22.00634 0 0 1-21.446037-23.80317 22.02566 22.02566 0 0 0 21.446037 19.745811z" fill="#F0B68E" /><path d="M710.308226 748.679245l1.642265-28.015094a4.463094 4.463094 0 0 1 3.612981-4.134642c6.762264-1.294491 22.122264-5.564377 31.647396-18.470641 1.738868-2.357132 5.12-2.646943 7.032755-0.444377 6.955472 8.076075 24.653283 22.682566 60.512603 19.900377a4.521057 4.521057 0 0 1 4.926793 4.482415v26.681962c4.733585-9.602415 4.61766-36.36166 17.504604-26.624 39.839396-70.617358-52.74566-139.78566-118.243019-75.52483a3.59366 3.59366 0 0 1-3.129962 1.024c-6.66566-1.139925-30.372226-2.183245-28.556076 40.728151 0.966038 23.242868 5.023396 33.907925 5.023396 33.907925 10.877585-4.250566 13.176755 6.723623 18.026264 26.488754z" fill="#2D2C2C" /><path d="M846.674113 691.876226c-3.767547-52.977509-74.636075-88.489057-127.710188-36.458264a3.690264 3.690264 0 0 1-3.207246 1.043321c-6.259925-1.062642-26.855849-1.932075-28.498113 31.801962-1.816151-42.853434 21.832453-41.829434 28.536755-40.689509 1.159245 0.193208 2.318491-0.212528 3.168604-1.043321 55.972226-54.890264 131.786868-12.345962 127.710188 45.326491z" fill="#1B1B1B" /><path d="M773.158642 766.686189c2.028679 2.241208 1.893434 5.757585 0.173886 8.501132-1.603623 2.917434-5.100679 4.59834-8.501132 4.675622-3.439094-0.057962-6.955472-1.738868-8.559094-4.636981-1.700226-2.762868-1.835472-6.298566 0.193207-8.539773 4.173283 4.173283 6.627019 3.381132 8.327246 3.516377 1.758189-0.135245 4.231245 0.676226 8.365887-3.516377z" fill="#E8AA80" /><path d="M798.140377 749.606642a7.979472 7.979472 0 1 1-15.958943 0 7.979472 7.979472 0 0 1 15.978264 0zM798.932528 737.820981h-17.523924a2.898113 2.898113 0 0 1 0-5.796226h17.523924a2.898113 2.898113 0 0 1 0 5.796226zM747.423396 749.606642a7.979472 7.979472 0 1 1-15.978264 0 7.979472 7.979472 0 0 1 15.978264 0zM748.215547 737.820981h-17.523924a2.898113 2.898113 0 0 1 0-5.796226h17.523924a2.898113 2.898113 0 0 1 0 5.796226z" fill="#2D2C2C" /><path d="M749.200906 789.504c-2.009358 0-3.245887 2.337811-2.009359 3.922113a22.354113 22.354113 0 0 0 35.241057 0c1.236528-1.584302 0-3.922113-2.009359-3.922113z" fill="#E8AA80" /><path d="M829.324075 746.689208a2.898113 2.898113 0 0 1-0.193207-4.096c2.511698-2.782189 0.637585-6.684981 0.560302-6.858868a2.898113 2.898113 0 0 1 1.27517-3.864151 2.917434 2.917434 0 0 1 3.902792 1.255849c0.135245 0.289811 3.786868 7.593057-1.449057 13.350641a2.898113 2.898113 0 0 1-4.096 0.193208zM696.84166 746.476679c-5.216604-5.757585-1.584302-13.06083-1.429735-13.350641 0.734189-1.429736 2.511698-1.932075 3.902792-1.27517a2.898113 2.898113 0 0 1 1.255849 3.883472c-0.077283 0.212528-1.932075 4.096 0.579623 6.858868a2.898113 2.898113 0 1 1-4.308529 3.883471z" fill="#F0B68E" /><path d="M722.093887 285.058415c0 116.059774-94.111396 210.016604-210.016604 210.016604-116.059774 0-210.17117-93.95683-210.17117-210.016604 0-116.040453 94.111396-210.016604 210.17117-210.016604 115.905208 0 210.016604 93.976151 210.016604 210.016604z" fill="#5E5EEF" /><path d="M328.143698 288.825962h-0.289811a7.090717 7.090717 0 0 1-6.800906-7.341887 193.941736 193.941736 0 0 1 99.018868-162.371622 7.071396 7.071396 0 1 1 6.955472 12.326641 179.818264 179.818264 0 0 0-91.812227 150.585963 7.071396 7.071396 0 0 1-7.071396 6.800905zM473.551698 112.910491a7.071396 7.071396 0 0 1-1.603623-13.968906c13.331321-3.072 27.087698-4.733585 40.882717-4.965434h0.096604a7.090717 7.090717 0 0 1 0.115925 14.162113c-12.79034 0.193208-25.561358 1.738868-37.907321 4.59834a7.013434 7.013434 0 0 1-1.584302 0.193207z" fill="#FFFFFF" opacity=".4" /><path d="M722.093887 284.981132c0 116.059774-94.111396 210.035925-210.016604 210.035925a209.050566 209.050566 0 0 1-156.111698-69.496755 208.992604 208.992604 0 0 0 139.399245 52.938868c115.924528 0 210.016604-93.976151 210.016604-210.016604a209.050566 209.050566 0 0 0-53.634415-140.114113 209.069887 209.069887 0 0 1 70.327547 156.672z" fill="#4242E5" /><path d="M670.19834 285.000453a157.715321 157.715321 0 0 1-54.291321 119.324981 157.17434 157.17434 0 0 1-103.849057 38.950641 157.966491 157.966491 0 0 1-103.964981-38.950641 157.927849 157.927849 0 0 1-54.291321-119.324981c0-87.407094 70.849208-158.140377 158.256302-158.140378a158.121057 158.121057 0 0 1 158.140378 158.140378z" fill="#E4E3FF" /><path d="M653.775698 214.962717a157.425509 157.425509 0 0 0-125.971321-62.71517c-87.407094 0-158.275623 70.713962-158.275622 158.140378 0 25.387472 5.989434 49.40317 16.712453 70.578717a157.328906 157.328906 0 0 1-32.458868-95.966189c0-87.407094 70.868528-158.140377 158.275622-158.140378 62.174189 0 115.924528 35.84 141.717736 88.102642z" fill="#C2C2EF" /><path d="M615.907019 404.325434a157.17434 157.17434 0 0 1-103.849057 38.950641 157.966491 157.966491 0 0 1-103.964981-38.950641c1.081962-1.642264 2.163925-3.129962 3.245887-4.636981 11.708377-15.398642 27.821887-25.155623 46.698264-27.821887 0.540981 0 4.34717-0.135245 10.182038-0.135245 2.588981-0.115925 5.699623-0.115925 8.96483-0.115925h69.632c3.265208 0 6.375849 0 8.96483 0.115925 5.834868 0 9.776302 0.154566 10.317283 0.154566a71.544755 71.544755 0 0 1 46.563019 27.821887c1.081962 1.487698 2.163925 2.975396 3.245887 4.61766z" fill="#B75F25" /><path d="M555.742189 371.731321v1.990037a43.78083 43.78083 0 0 1-43.742189 43.76151 43.78083 43.78083 0 0 1-43.761509-43.76151v-1.990037c2.627623-0.077283 5.699623-0.077283 9.042113-0.077283a4437.977358 4437.977358 0 0 1 78.442264 0.077283z" fill="#E4E3FF" /><path d="M537.696604 351.541132v22.141585a25.696604 25.696604 0 1 1-51.373887 0v-22.141585c7.921509 5.564377 15.475925 8.887547 25.696604 8.887547s17.755774-3.32317 25.696604-8.887547z" fill="#F7C9A9" /><path d="M537.657962 351.579774v22.141584c0 7.960151-3.612981 15.10883-9.312604 19.803774 0.367094-1.622943 0.540981-3.342491 0.540982-5.062038 0-8.984151-8.153358-16.13283-16.924982-14.200754-2.704906 0.579623-5.603019 0.908075-8.732981 0.908075a39.027925 39.027925 0 0 1-16.90566-3.709585v-19.881056c7.960151 5.525736 15.456604 8.868226 25.677283 8.868226 10.201358 0 17.794415-3.342491 25.657962-8.868226z" fill="#E8AA80" /><path d="M570.058868 241.238943v65.78717a58.87034 58.87034 0 0 1-117.721359 0v-65.78717c36.34234-28.16966 75.853283-25.715925 117.721359 0z" fill="#F7C9A9" /><path d="M570.078189 300.128604v6.878188a58.908981 58.908981 0 0 1-100.487246 41.655548 58.851019 58.851019 0 0 1-17.234113-41.655548v-6.878188a58.851019 58.851019 0 1 0 117.721359 0z" fill="#F0B68E" /><path d="M570.058868 263.187321v43.877434a21.967698 21.967698 0 0 0 21.542641-21.948378c0-11.978868-9.621736-21.677887-21.542641-21.929056zM452.337509 263.187321v43.877434a21.967698 21.967698 0 0 1-21.52332-21.948378c0-11.978868 9.602415-21.677887 21.52332-21.929056z" fill="#F7C9A9" /><path d="M570.078189 307.064755v-4.057359a21.987019 21.987019 0 0 0 21.388075-19.745811 21.909736 21.909736 0 0 1-21.388075 23.80317zM452.35683 303.007396v4.057359a22.00634 22.00634 0 0 1-21.542641-21.967698c0-0.618264 0.057962-1.217208 0.096603-1.835472a22.02566 22.02566 0 0 0 21.446038 19.745811z" fill="#F0B68E" /><path d="M456.704 294.834717l1.642264-28.015094a4.463094 4.463094 0 0 1 3.593661-4.153963c6.762264-1.313811 22.141585-5.564377 31.647396-18.470641 1.738868-2.357132 5.139321-2.666264 7.052075-0.444377 6.955472 8.076075 24.653283 22.682566 60.493283 19.900377a4.521057 4.521057 0 0 1 4.946113 4.482415v26.681962c4.714264-9.602415 4.59834-36.36166 17.504604-26.624 39.839396-70.636679-52.74566-139.78566-118.262339-75.544151a3.59366 3.59366 0 0 1-3.129963 1.043321c-6.66566-1.139925-30.333585-2.183245-28.556075 40.728151 0.966038 23.242868 5.023396 33.888604 5.023396 33.888604 10.877585-4.231245 13.176755 6.742943 18.045585 26.508075z" fill="#2D2C2C" /><path d="M593.069887 237.993057c-3.786868-52.938868-74.636075-88.489057-127.710189-36.438944a3.690264 3.690264 0 0 1-3.207245 1.043321c-6.259925-1.062642-26.855849-1.932075-28.517434 31.801962-1.79683-42.853434 21.832453-41.829434 28.556075-40.689509 1.159245 0.193208 2.318491-0.212528 3.168604-1.043321 55.972226-54.890264 131.767547-12.345962 127.710189 45.326491z" fill="#1B1B1B" /><path d="M519.535094 312.803019c2.028679 2.260528 1.893434 5.796226 0.193208 8.520453-1.622943 2.917434-5.100679 4.59834-8.501132 4.675622-3.458415-0.057962-6.955472-1.738868-8.559095-4.656302-1.700226-2.762868-1.835472-6.279245 0.193208-8.520452 4.153962 4.173283 6.627019 3.361811 8.327245 3.516377 1.738868-0.135245 4.211925 0.676226 8.346566-3.516377z" fill="#E8AA80" /><path d="M544.536151 295.742792a7.979472 7.979472 0 1 1-15.958943 0 7.979472 7.979472 0 0 1 15.958943 0zM545.328302 283.957132h-17.523925a2.898113 2.898113 0 0 1 0-5.815547h17.523925a2.898113 2.898113 0 0 1 0 5.796226zM493.81917 295.742792a7.979472 7.979472 0 1 1-15.978264 0 7.979472 7.979472 0 0 1 15.978264 0zM494.611321 283.957132h-17.543246a2.898113 2.898113 0 0 1 0-5.815547h17.523925a2.898113 2.898113 0 0 1 0 5.796226z" fill="#2D2C2C" /><path d="M495.577358 335.640151c-1.990038 0-3.245887 2.337811-1.990037 3.922113a22.354113 22.354113 0 0 0 35.221736 0c1.255849-1.584302 0.019321-3.922113-1.990038-3.922113z" fill="#E8AA80" /><path d="M575.73917 292.825358a2.898113 2.898113 0 0 1-0.212528-4.096c2.511698-2.782189 0.637585-6.684981 0.579622-6.858867a2.898113 2.898113 0 0 1 5.158642-2.608302c0.135245 0.289811 3.786868 7.593057-1.449057 13.33132a2.898113 2.898113 0 0 1-4.076679 0.231849zM443.237434 292.61283c-5.216604-5.757585-1.584302-13.06083-1.429736-13.350641a2.994717 2.994717 0 0 1 3.902793-1.27517 2.898113 2.898113 0 0 1 1.255849 3.883472c-0.096604 0.270491-1.932075 4.115321 0.579622 6.858867a2.898113 2.898113 0 1 1-4.308528 3.864151z" fill="#F0B68E" /></svg>