<?xml version="1.0" standalone="no"?><!DOCTYPE svg PUBLIC "-//W3C//DTD SVG 1.1//EN" "http://www.w3.org/Graphics/SVG/1.1/DTD/svg11.dtd"><svg class="icon" width="200px" height="200.00px" viewBox="0 0 1024 1024" version="1.1" xmlns="http://www.w3.org/2000/svg"><path d="M796.015094 764.387019a14.490566 14.490566 0 0 1-14.490566-14.490566v-156.208302a17.968302 17.968302 0 0 0-17.968302-17.92966H512a14.490566 14.490566 0 0 1-14.490566-14.490566v-56.880302a14.490566 14.490566 0 0 1 28.981132 0V546.777358h237.06566c25.889811 0 46.949434 21.059623 46.949434 46.910793v156.208302a14.490566 14.490566 0 0 1-14.490566 14.490566z" fill="#474646" /><path d="M227.984906 764.387019a14.490566 14.490566 0 0 1-14.490566-14.490566v-156.208302a46.988075 46.988075 0 0 1 46.949434-46.910793h237.06566v-42.389735a14.490566 14.490566 0 0 1 28.981132 0v56.880302a14.490566 14.490566 0 0 1-14.490566 14.490566H260.443774a17.968302 17.968302 0 0 0-17.968302 17.92966v156.208302a14.490566 14.490566 0 0 1-14.490566 14.490566z" fill="#474646" /><path d="M751.461434 142.625811v277.23351a93.241962 93.241962 0 0 1-93.222642 93.241962H380.812075a93.241962 93.241962 0 0 1-93.241962-93.241962V142.625811a93.241962 93.241962 0 0 1 93.241962-93.241962h277.407397a93.241962 93.241962 0 0 1 93.222641 93.241962z" fill="#7979F7" /><path d="M352.874264 342.421736a17.968302 17.968302 0 0 1-17.968302-17.968302V215.04a17.968302 17.968302 0 0 1 35.936604 0v109.432755a17.968302 17.968302 0 0 1-17.968302 17.968302zM352.874264 164.806038a17.968302 17.968302 0 0 1-17.968302-17.968302v-7.187321a17.968302 17.968302 0 0 1 35.936604 0V146.837736a17.968302 17.968302 0 0 1-17.968302 17.968302z" fill="#FFFFFF" opacity=".4" /><path d="M751.442113 142.703094v277.059623c0 51.586415-41.73283 93.319245-93.126038 93.319245h-277.446037c-36.129811 0-67.622642-20.48-83.079246-50.620377 12.751698 6.569057 27.242264 10.24 42.698868 10.24h277.446038c51.393208 0 93.126038-41.73283 93.126038-93.126038V102.322717c0-15.456604-3.670943-29.94717-10.433208-42.698868 30.140377 15.263396 50.813585 46.756226 50.813585 83.079245z" fill="#5E5EEF" /><path d="M407.667925 687.587019v214.78883a72.240302 72.240302 0 0 1-72.220982 72.240302H120.561509a72.240302 72.240302 0 0 1-72.240301-72.259623V687.60634a72.240302 72.240302 0 0 1 72.240301-72.240302h214.904755a72.240302 72.240302 0 0 1 72.240302 72.259622z" fill="#5BC658" /><path d="M98.864302 842.384906a13.910943 13.910943 0 0 1-13.910944-13.910944V743.655849a13.910943 13.910943 0 0 1 27.821887 0v84.779472a13.910943 13.910943 0 0 1-13.910943 13.910943zM98.864302 704.76317a13.910943 13.910943 0 0 1-13.910944-13.910944v-5.564377a13.910943 13.910943 0 0 1 27.821887 0v5.564377a13.910943 13.910943 0 0 1-13.910943 13.910944z" fill="#FFFFFF" opacity=".4" /><path d="M407.667925 687.644981v214.653585a72.220981 72.220981 0 0 1-72.163019 72.298264H120.561509a72.259623 72.259623 0 0 1-64.376754-39.221132c9.892226 5.100679 21.117585 7.94083 33.096453 7.94083h214.943396a72.18234 72.18234 0 0 0 72.143698-72.143698V656.364679c0-11.978868-2.840151-23.184906-8.076076-33.077132A72.066415 72.066415 0 0 1 407.667925 687.62566z" fill="#49A247" /><path d="M975.698113 687.587019v214.78883a72.240302 72.240302 0 0 1-72.240302 72.240302H688.553057a72.240302 72.240302 0 0 1-72.240302-72.259623V687.60634a72.240302 72.240302 0 0 1 72.240302-72.240302H903.438491a72.240302 72.240302 0 0 1 72.240301 72.259622z" fill="#F9B938" /><path d="M666.87517 842.384906a13.910943 13.910943 0 0 1-13.910944-13.910944V743.655849a13.910943 13.910943 0 0 1 27.821887 0v84.779472a13.910943 13.910943 0 0 1-13.910943 13.910943zM666.87517 704.76317a13.910943 13.910943 0 0 1-13.910944-13.910944v-5.564377a13.910943 13.910943 0 0 1 27.821887 0v5.564377a13.910943 13.910943 0 0 1-13.910943 13.910944z" fill="#FFFFFF" opacity=".4" /><path d="M975.678792 687.644981v214.653585a72.220981 72.220981 0 0 1-72.163018 72.298264H688.591698a72.259623 72.259623 0 0 1-64.376755-39.221132c9.892226 5.100679 21.117585 7.94083 33.096453 7.94083h214.943396a72.18234 72.18234 0 0 0 72.143699-72.143698V656.364679c0-11.978868-2.840151-23.184906-8.076076-33.077132A72.066415 72.066415 0 0 1 975.698113 687.62566z" fill="#E5A320" /><path d="M630.494189 399.688453c15.746415 0 27.435472-14.683774 23.919094-30.043774a138.336604 138.336604 0 0 0-134.800906-107.423396 138.394566 138.394566 0 0 0-134.955471 107.423396 24.576 24.576 0 0 0 23.919094 30.043774h221.918189zM583.911849 176.340528a64.338113 64.338113 0 0 1-64.473358 64.299472c-35.395623 0-64.280151-28.729962-64.280151-64.299472s28.884528-64.454038 64.280151-64.454037a64.512 64.512 0 0 1 64.473358 64.454037z" fill="#FFFFFF" /><path d="M630.455547 399.61117h-221.802264c-11.01283 0-19.900377-7.148679-22.991698-16.615849 2.511698 0.966038 5.216604 1.54566 8.114717 1.54566h221.995472c15.649811 0 27.435472-14.683774 23.957735-30.140377a138.645736 138.645736 0 0 0-28.401509-57.189434c21.25283 18.741132 36.516226 43.858113 43.085283 72.45283 3.477736 15.263396-8.114717 29.94717-23.957736 29.94717zM583.892528 176.263245c0 35.743396-28.787925 64.338113-64.53132 64.338113-21.832453 0-41.153208-10.819623-52.745661-27.628679 10.626415 7.921509 23.764528 12.558491 38.061887 12.558491 35.550189 0 64.531321-28.787925 64.531321-64.338113 0-13.524528-4.250566-26.083019-11.592453-36.516227 16.036226 11.592453 26.276226 30.333585 26.276226 51.586415z" fill="#E4E3FF" /><path d="M183.836981 844.123774l-41.539623-52.397887a24.150943 24.150943 0 1 1 37.86868-29.985812l25.889811 32.652076 80.780076-69.632a24.150943 24.150943 0 1 1 31.550792 36.554868l-99.84966 86.073962a24.150943 24.150943 0 0 1-34.700076-3.284528z" fill="#FFFFFF" /><path d="M836.009057 869.105509l-114.127699-114.108377a24.150943 24.150943 0 1 1 34.159095-34.159094l114.108377 114.127698a24.150943 24.150943 0 1 1-34.159094 34.139773z" fill="#FFFFFF" /><path d="M721.881358 869.105509a24.150943 24.150943 0 0 1 0-34.139773l114.108378-114.127698a24.150943 24.150943 0 1 1 34.159094 34.159094l-114.108377 114.108377a24.150943 24.150943 0 0 1-34.159095 0z" fill="#FFFFFF" /></svg>