<?xml version="1.0" standalone="no"?><!DOCTYPE svg PUBLIC "-//W3C//DTD SVG 1.1//EN" "http://www.w3.org/Graphics/SVG/1.1/DTD/svg11.dtd"><svg class="icon" width="200px" height="200.00px" viewBox="0 0 1024 1024" version="1.1" xmlns="http://www.w3.org/2000/svg"><path d="M110.031698 400.171472h-39.41434v-24.073661a9.660377 9.660377 0 1 0-19.320754 0v67.448755a9.660377 9.660377 0 1 0 19.320754 0v-24.05434h39.41434a9.660377 9.660377 0 1 0 0-19.320754zM966.771925 366.437434a9.660377 9.660377 0 0 0-9.660378 9.660377v24.073661H917.735849a9.660377 9.660377 0 1 0 0 19.320754h39.41434v24.05434a9.660377 9.660377 0 1 0 19.320754 0v-67.448755a9.660377 9.660377 0 0 0-9.660377-9.660377z" fill="#474646" /><path d="M921.445434 390.182642v39.221132c0 15.456604-12.365283 27.821887-27.821887 27.821886H134.124679c-15.456604 0-27.821887-12.365283-27.821887-27.821886v-39.221132c0-15.263396 12.365283-27.821887 27.821887-27.821887h759.498868c15.456604 0 27.821887 12.558491 27.821887 27.821887z" fill="#474646" /><path d="M181.460528 362.360755h664.82717v94.864905H181.460528z" fill="#2D2C2C" /><path d="M807.704151 547.84v-413.464151c0-46.176604-37.482264-83.658868-83.658868-83.658868H441.247396c-9.293283 0-18.432 1.54566-27.107019 4.656302a80.606189 80.606189 0 0 0-29.135698 17.195472l-138.317283 128.405736c-9.138717 8.520453-16.113509 18.741132-20.441358 30.063094a78.674113 78.674113 0 0 0-6.182642 31.125736v285.676679h587.660076z" fill="#E4E3FF" /><path d="M807.646189 134.375849v413.464151h-587.544151v-137.950189h446.889056a85.590943 85.590943 0 0 0 85.590944-85.590943V55.933585c32.072453 11.399245 55.064151 42.312453 55.064151 78.442264z" fill="#D0D0F7" /><path d="M563.818264 124.309736h-12.500528a11.611774 11.611774 0 0 1 0-23.223547h12.500528a11.611774 11.611774 0 0 1 0 23.223547zM693.421887 124.309736h-84.006642a11.611774 11.611774 0 0 1 0-23.223547h84.025963a11.611774 11.611774 0 0 1 0 23.223547z" fill="#FFFFFF" opacity=".4" /><path d="M414.121057 55.373283v133.89283a41.771472 41.771472 0 0 1-41.771472 41.771472h-146.122868a80.528906 80.528906 0 0 1 20.441358-30.063094l138.336604-128.405736c8.346566-7.728302 18.412679-13.640453 29.116378-17.195472z" fill="#D0D0F7" /><path d="M717.186415 337.572226a12.558491 12.558491 0 0 1-12.55849 12.558491H323.100981a12.558491 12.558491 0 0 1 0-25.07834H704.627925c6.936151-0.019321 12.558491 5.603019 12.55849 12.519849zM717.186415 414.043774a12.558491 12.558491 0 0 1-12.55849 12.55849H323.100981a12.558491 12.558491 0 0 1 0-25.078339H704.627925c6.936151-0.019321 12.558491 5.603019 12.55849 12.519849zM585.515472 490.515321a12.558491 12.558491 0 0 1-12.558491 12.55849H323.100981a12.558491 12.558491 0 0 1 0-25.078339h249.856c6.936151-0.019321 12.558491 5.603019 12.558491 12.519849z" fill="#C2C2EF" /><path d="M974.963925 816.707623v98.748377a57.807698 57.807698 0 0 1-57.827019 57.807698H105.375396a57.807698 57.807698 0 0 1-57.807698-57.807698v-98.748377z" fill="#F9B938" /><path d="M974.963925 816.784906v98.729056c0 31.879245-25.889811 57.769057-57.769057 57.769057H105.336755c-22.02566 0-41.346415-12.365283-51.006793-30.72 8.114717 4.443774 17.388679 6.762264 27.242264 6.762264h811.664906c32.072453 0 57.769057-25.696604 57.769057-57.769057v-74.77132z" fill="#E5A320" /><path d="M974.963925 816.784906h-927.396227l99.366642-330.809963a40.380377 40.380377 0 0 1 38.641509-28.768603h201.129057c16.229434 0 30.526792 10.162717 36.380981 25.310188a94.381887 94.381887 0 0 0 87.986717 60.473963c40.380377 0 74.694038-25.09766 88.353811-60.473963a39.085887 39.085887 0 0 1 36.380981-25.310188h201.129057a40.380377 40.380377 0 0 1 38.641509 28.768603z" fill="#A2A2F9" /><path d="M120.889962 703.73917a9.621736 9.621736 0 0 1-9.254641-12.442566l28.94249-96.313962a9.621736 9.621736 0 1 1 18.489963 5.545056l-28.92317 96.313962a9.660377 9.660377 0 0 1-9.254642 6.89751zM163.975245 560.263245a9.621736 9.621736 0 0 1-9.254641-12.442566l7.41917-24.614641a9.660377 9.660377 0 0 1 18.489962 5.545056l-7.399849 24.633963a9.660377 9.660377 0 0 1-9.254642 6.878188z" fill="#FFFFFF" opacity=".3" /><path d="M974.963925 816.784906h-927.396227l12.944906-43.085283h772.772226a58.387321 58.387321 0 0 0 55.914264-75.177057l-72.472151-241.316226h20.286793c17.775094 0 33.424906 11.592453 38.641509 28.787924z" fill="#7979F7" /><path d="M552.322415 894.995321a41.056604 41.056604 0 0 1-82.113207 0 41.056604 41.056604 0 1 1 82.113207 0z" fill="#FFFFFF" /><path d="M552.419019 895.033962c0 22.798491-18.354717 41.153208-40.96 41.153208-17.195472 0-31.686038-10.24-37.868679-24.923774 7.148679 5.796226 16.229434 9.273962 26.276226 9.273962 22.605283 0 40.96-18.354717 40.96-41.153207 0-5.796226-1.159245-11.206038-3.284528-16.229434 9.080755 7.728302 14.876981 19.127547 14.876981 31.879245z" fill="#D0D0F7" /><path d="M219.406491 598.827472h-23.184906a11.592453 11.592453 0 0 1 0-23.184906h23.184906a11.592453 11.592453 0 0 1 0 23.184906zM301.481057 598.827472h-23.146265a11.592453 11.592453 0 0 1 0-23.184906h23.146265a11.592453 11.592453 0 0 1 0 23.184906zM383.555623 598.827472h-23.146265a11.592453 11.592453 0 0 1 0-23.184906h23.146265a11.592453 11.592453 0 0 1 0 23.184906zM465.649509 598.827472h-23.165584a11.592453 11.592453 0 0 1 0-23.184906h23.184905a11.592453 11.592453 0 0 1 0 23.184906zM547.743396 598.827472h-23.184905a11.592453 11.592453 0 0 1 0-23.184906h23.184905a11.592453 11.592453 0 0 1 0 23.184906zM629.798642 598.827472H606.671698a11.592453 11.592453 0 0 1 0-23.184906h23.146264a11.592453 11.592453 0 0 1 0 23.184906zM711.873208 598.827472h-23.146265a11.592453 11.592453 0 0 1 0-23.184906h23.146265a11.592453 11.592453 0 0 1 0 23.184906zM793.967094 598.827472h-23.165585a11.592453 11.592453 0 0 1 0-23.184906h23.184906a11.592453 11.592453 0 0 1 0 23.184906zM204.993208 652.210717H180.649057a11.592453 11.592453 0 0 1 0-23.184906h24.344151a11.592453 11.592453 0 0 1 0 23.184906zM291.356981 652.210717H267.01283a11.592453 11.592453 0 0 1 0-23.184906h24.382793a11.592453 11.592453 0 0 1 0 23.184906zM377.720755 649.273962h-24.344151a11.592453 11.592453 0 0 1 0-23.184905h24.344151a11.592453 11.592453 0 0 1 0 23.184905zM464.103849 649.273962H439.740377a11.592453 11.592453 0 0 1 0-23.184905h24.382793a11.592453 11.592453 0 0 1 0 23.184905zM550.486943 649.273962H526.104151a11.592453 11.592453 0 0 1 0-23.184905h24.382792a11.592453 11.592453 0 0 1 0 23.184905zM636.850717 649.273962H612.467925a11.592453 11.592453 0 0 1 0-23.184905h24.34415a11.592453 11.592453 0 0 1 0 23.184905zM723.214491 652.210717h-24.363472a11.592453 11.592453 0 0 1 0-23.184906h24.363472a11.592453 11.592453 0 0 1 0 23.184906zM809.578264 652.210717h-24.344151a11.592453 11.592453 0 0 1 0-23.184906h24.344151a11.592453 11.592453 0 0 1 0 23.184906zM189.014943 705.593962H163.299019a11.592453 11.592453 0 0 1 0-23.184905h25.696604a11.592453 11.592453 0 0 1 0 23.184905zM280.150943 705.593962h-25.715924a11.592453 11.592453 0 0 1 0-23.184905h25.696604a11.592453 11.592453 0 0 1 0 23.184905zM371.248302 699.701132h-25.696604a11.592453 11.592453 0 0 1 0-23.184906h25.696604a11.592453 11.592453 0 0 1 0 23.184906zM462.384302 699.701132h-25.696604a11.592453 11.592453 0 0 1 0-23.184906h25.696604a11.592453 11.592453 0 0 1 0 23.184906zM553.539623 699.701132h-25.715925a11.592453 11.592453 0 0 1 0-23.184906h25.696604a11.592453 11.592453 0 0 1 0 23.184906zM644.656302 699.701132h-25.715925a11.592453 11.592453 0 0 1 0-23.184906h25.696604a11.592453 11.592453 0 0 1 0 23.184906zM735.792302 705.593962h-25.715925a11.592453 11.592453 0 0 1 0-23.184905h25.696604a11.592453 11.592453 0 0 1 0 23.184905zM826.928302 705.593962h-25.735245a11.592453 11.592453 0 0 1 0-23.184905H826.928302a11.592453 11.592453 0 0 1 0 23.184905zM171.143245 758.977208H143.939623a11.592453 11.592453 0 0 1 0-23.184906h27.203622a11.592453 11.592453 0 0 1 0 23.184906zM267.592453 758.977208h-27.222944a11.592453 11.592453 0 0 1 0-23.184906h27.242265a11.592453 11.592453 0 0 1 0 23.184906zM749.838491 758.977208h-27.222944a11.592453 11.592453 0 0 1 0-23.184906h27.242264a11.592453 11.592453 0 0 1 0 23.184906zM846.268377 758.977208h-27.203622a11.592453 11.592453 0 0 1 0-23.184906h27.203622a11.592453 11.592453 0 0 1 0 23.184906zM653.389283 758.977208H332.954566a11.592453 11.592453 0 0 1 0-23.184906h320.434717a11.592453 11.592453 0 0 1 0 23.184906z" fill="#474646" /><path d="M315.932981 885.315623h-93.995472a14.490566 14.490566 0 0 1 0-28.981132h93.995472a14.490566 14.490566 0 0 1 0 28.981132z" fill="#FFFFFF" opacity=".4" /><path d="M165.057208 885.315623H153.406792a14.490566 14.490566 0 0 1 0-28.981132h11.669736a14.490566 14.490566 0 0 1 0 28.981132z" fill="#FFFFFF" opacity=".4" /></svg>