<?xml version="1.0" standalone="no"?><!DOCTYPE svg PUBLIC "-//W3C//DTD SVG 1.1//EN" "http://www.w3.org/Graphics/SVG/1.1/DTD/svg11.dtd"><svg class="icon" width="200px" height="200.00px" viewBox="0 0 1024 1024" version="1.1" xmlns="http://www.w3.org/2000/svg"><path d="M961.845132 300.824151l-134.39517 134.39517-238.630641-238.649963 134.39517-134.395169a47.219925 47.219925 0 0 1 66.791849 0l171.838792 171.838792a47.200604 47.200604 0 0 1 0 66.81117z" fill="#E4E3FF" /><path d="M961.845132 300.824151l-134.39517 134.39517-238.630641-238.649963 16.693132-16.693132 161.965887 161.965887a79.292377 79.292377 0 0 0 112.13766 0l78.32634-78.34566c5.603019-5.603019 9.389887-12.249358 11.592452-19.166189a47.142642 47.142642 0 0 1-7.68966 56.493887z" fill="#D0D0F7" /><path d="M828.609208 529.581887L451.777208 906.452528c-92.295245 92.275925-241.895849 92.275925-334.191095 0-92.275925-92.275925-92.275925-241.895849 0-334.171773l376.851321-376.851321a65.980377 65.980377 0 0 1 93.319245 0l240.852529 240.871849a65.980377 65.980377 0 0 1 0 93.319245z" fill="#8666C6" /><path d="M245.199698 562.060075a18.451321 18.451321 0 0 1 0-26.083018l140.906264-140.906265a18.451321 18.451321 0 1 1 26.083019 26.083019l-140.886943 140.906264a18.451321 18.451321 0 0 1-26.083019 0zM452.298868 354.960906a18.451321 18.451321 0 0 1 0-26.083019l14.703094-14.703095a18.451321 18.451321 0 1 1 26.083019 26.083019l-14.683773 14.683774a18.451321 18.451321 0 0 1-26.083019 0z" fill="#FFFFFF" opacity=".3" /><path d="M828.628528 529.543245L451.815849 906.375245c-92.391849 92.372528-241.895849 92.372528-334.152453 0.135246l-0.135245-0.135246a236.428075 236.428075 0 0 1-66.946415-200.298264 234.418717 234.418717 0 0 0 63.159547 114.050415c92.256604 92.237283 241.895849 92.372528 334.287698 0l376.812679-376.832c1.835472-1.816151 3.400453-3.651623 4.830189-5.603019a65.651925 65.651925 0 0 1-1.043321 91.850868z" fill="#7553AA" /><path d="M228.158792 795.879849m-67.158943 0a67.158943 67.158943 0 1 0 134.317887 0 67.158943 67.158943 0 1 0-134.317887 0Z" fill="#E4E3FF" /><path d="M291.453585 818.040755a65.632604 65.632604 0 0 0-18.779774-37.327698 67.178264 67.178264 0 0 0-95.000151 0 65.362113 65.362113 0 0 0-15.920302 25.580679 66.830491 66.830491 0 0 1 18.799095-57.923623 67.178264 67.178264 0 0 1 94.98083 0 66.849811 66.849811 0 0 1 15.920302 69.670642z" fill="#A2A2F9" /><path d="M791.068981 172.476377l-55.218717 55.218717a16.055547 16.055547 0 0 1-22.721207 0l-21.117585-21.117585a16.055547 16.055547 0 0 1 0-22.721207l55.218717-55.218717a16.055547 16.055547 0 0 1 22.721207 0l21.117585 21.117585a16.055547 16.055547 0 0 1 0 22.721207zM895.381736 276.789132l-55.218717 55.218717a16.055547 16.055547 0 0 1-22.721208 0l-21.098264-21.098264a16.055547 16.055547 0 0 1 0-22.721208l55.218717-55.218717a16.055547 16.055547 0 0 1 22.721208 0l21.098264 21.098265a16.055547 16.055547 0 0 1 0 22.721207z" fill="#474646" /><path d="M792.228226 171.123925a13.369962 13.369962 0 0 0-3.400452-5.216604l-21.136906-21.136906a16.074868 16.074868 0 0 0-22.701887 0l-55.180075 55.199396a6.259925 6.259925 0 0 0-1.178566 1.429736 15.727094 15.727094 0 0 1 3.400452-17.485283l55.180076-55.199396a16.074868 16.074868 0 0 1 22.701887 0l21.136905 21.136906a15.843019 15.843019 0 0 1 1.178566 21.272151zM896.618264 275.243472a15.997585 15.997585 0 0 0-3.400453-4.946114l-21.136905-21.136905a16.074868 16.074868 0 0 0-22.701887 0l-55.199396 55.180075a7.554415 7.554415 0 0 0-1.294491 1.564981 16.13283 16.13283 0 0 1 3.381132-17.736452l55.199396-55.199397a16.055547 16.055547 0 0 1 22.701887 0l21.136906 21.136906c5.738264 5.738264 6.259925 14.876981 1.313811 21.136906z" fill="#2D2C2C" /></svg>