<?xml version="1.0" standalone="no"?><!DOCTYPE svg PUBLIC "-//W3C//DTD SVG 1.1//EN" "http://www.w3.org/Graphics/SVG/1.1/DTD/svg11.dtd"><svg class="icon" width="200px" height="200.00px" viewBox="0 0 1024 1024" version="1.1" xmlns="http://www.w3.org/2000/svg"><path d="M55.721057 915.127547a9.660377 9.660377 0 0 1 0-13.659773l159.937207-159.917887a9.660377 9.660377 0 1 1 13.659774 13.659773L69.361509 915.127547a9.660377 9.660377 0 0 1-13.659773 0zM258.318491 513.062642l324.975094-324.975095L782.761057 387.57434l-324.975095 324.975094A141.041509 141.041509 0 0 1 258.318491 513.043321z" fill="#E4E3FF" /><path d="M782.799698 387.555019L457.785962 712.549434a139.959547 139.959547 0 0 1-119.015849 39.742792 139.399245 139.399245 0 0 0 83.349736-40.148528L717.688755 416.555472a41.443019 41.443019 0 0 0 0-58.599849l-152.112302-152.131623 17.755773-17.775094z" fill="#D0D0F7" /><path d="M625.548075 462.828679L419.260377 669.116377c-23.416755 23.416755-54.156075 33.173736-87.986717 22.412076a83.852075 83.852075 0 0 1-48.920151-44.53434c-13.910943-30.294943-8.829585-67.139623 19.262793-95.232l111.770566-111.751245a16.422642 16.422642 0 0 1 11.341283-4.791547H614.071547c14.490566 0 21.581283 17.504604 11.476528 27.609358z" fill="#FC6559" /><path d="M625.548075 462.828679L419.260377 669.116377c-25.484075 25.484075-58.522566 32.690717-87.986717 22.412076a83.852075 83.852075 0 0 1-48.920151-44.53434 84.257811 84.257811 0 0 0 57.942944 23.494038 83.233811 83.233811 0 0 0 58.735094-24.32483l210.944-210.944h4.096c14.490566 0 21.581283 17.504604 11.476528 27.609358z" fill="#F05543" /><path d="M172.341132 728.064l57.189434-57.189434a140.017509 140.017509 0 0 0 28.787925 41.655547 142.683774 142.683774 0 0 0 41.578264 28.865208l-57.112151 57.112151a49.847547 49.847547 0 0 1-70.424151 0 49.712302 49.712302 0 0 1-14.567849-35.221736c0-12.713057 4.849509-25.503396 14.567849-35.221736zM699.971623 218.981434L786.354717 132.59834l51.856906 51.856905-86.363774 86.383095z" fill="#E4E3FF" /><path d="M838.40483 184.397283l-86.479698 86.479698-12.713057-12.713056 56.184755-56.165434a30.101736 30.101736 0 0 0 0-42.582944l-17.92966-17.910339 9.022792-9.022793z" fill="#D0D0F7" /><path d="M571.469283 133.313208a30.391547 30.391547 0 0 1 42.988679 0L837.554717 356.371321a30.391547 30.391547 0 1 1-42.988679 42.988679L571.469283 176.282566a30.391547 30.391547 0 0 1 0-42.988679zM756.059774 58.058868c-12.172075 12.172075-12.172075 31.879245 0 44.051321l112.697962 112.697962a31.125736 31.125736 0 1 0 44.032-44.032l-112.697962-112.717283c-12.172075-12.172075-31.879245-12.172075-44.051321 0z" fill="#C2C2EF" /><path d="M837.574038 399.437283a30.430189 30.430189 0 0 1-43.027321-0.135245L571.449962 176.205283a30.024453 30.024453 0 0 1-2.048-40.303094c-1.642264 9.273962 1.352453 19.127547 8.462491 26.218264l223.096755 223.096755a30.256302 30.256302 0 0 0 42.892075 0c0.830792-0.811472 1.507019-1.487698 2.048-2.588982a28.594717 28.594717 0 0 1-8.307925 16.809057zM912.847698 214.846792c-12.152755 12.172075-31.956528 12.03683-44.109283-0.115924L756.021132 102.013585a30.681358 30.681358 0 0 1-2.183245-41.249811 31.009811 31.009811 0 0 0 8.597736 27.184301l112.717283 112.697963c12.172075 12.172075 31.821283 12.172075 43.993358 0a10.665057 10.665057 0 0 0 2.183245-2.724227c-0.830792 6.279245-3.690264 12.172075-8.481811 16.944302z" fill="#A2A2F9" /><path d="M437.692377 393.563774a9.660377 9.660377 0 0 1 0-13.679095l57.556529-57.556528a9.660377 9.660377 0 1 1 13.659773 13.679094l-57.575849 57.556529a9.660377 9.660377 0 0 1-13.640453 0zM520.732981 310.503849a9.660377 9.660377 0 0 1 0-13.659774l8.69434-8.694339a9.660377 9.660377 0 1 1 13.679094 13.659773l-8.69434 8.69434a9.660377 9.660377 0 0 1-13.679094 0z" fill="#FFFFFF" opacity=".4" /><path d="M971.099774 734.343245v205.205736a35.492226 35.492226 0 0 1-35.492227 35.511547h-61.826415a35.492226 35.492226 0 0 1-35.511547-35.511547V734.343245c0-11.76634 5.815547-22.759849 15.533887-29.367547l18.95366-12.886943a22.02566 22.02566 0 0 0 9.641057-18.219472v-0.154566c0-5.429132-2.183245-10.49117-5.680302-14.683774-8.192-9.776302-13.369962-27.049057-13.369962-56.358641 0-55.682415 18.605887-133.718943 41.423698-133.718944 22.798491 0 41.269132 78.055849 41.269132 133.718944 0 29.425509-5.197283 46.717585-13.389283 56.532528-3.477736 4.173283-5.680302 9.235321-5.680302 14.683774 0 7.283925 3.612981 14.104151 9.660377 18.200151l18.93434 12.886943c9.71834 6.607698 15.533887 17.601208 15.533887 29.367547z" fill="#E4E3FF" /><path d="M971.099774 734.304604v205.186415a35.550189 35.550189 0 0 1-35.550189 35.550189h-16.074868a35.550189 35.550189 0 0 0 35.550189-35.550189v-205.186415a35.356981 35.356981 0 0 0-15.591849-29.251623l-18.915019-12.906264a22.296151 22.296151 0 0 1-9.602415-18.316075c0-5.409811 2.260528-10.510491 5.699622-14.56785 8.114717-9.892226 13.369962-27.164981 13.369963-56.59049 0-48.920151-14.258717-115.267623-33.328302-130.415094 2.704906-2.105962 5.409811-3.303849 8.114717-3.30385 22.798491 0 41.269132 78.055849 41.269132 133.718944 0 29.425509-5.255245 46.698264-13.369963 56.609811-3.439094 4.038038-5.699623 9.138717-5.699622 14.548529 0 7.341887 3.612981 14.104151 9.602415 18.316075l19.069585 12.906264c9.602415 6.588377 15.456604 17.543245 15.456604 29.251623z" fill="#D0D0F7" /><path d="M868.274717 772.192604v167.356377c0 3.014038 2.473057 5.487094 5.487094 5.487094h61.826415a5.487094 5.487094 0 0 0 5.506416-5.487094v-167.356377z" fill="#FC6559" /><path d="M941.075321 772.134642v167.356377a5.448453 5.448453 0 0 1-5.545057 5.545056h-61.826415a5.409811 5.409811 0 0 1-5.409811-5.545056v-11.264h52.533132c2.994717 0 5.409811-2.55034 5.409811-5.545057v-150.54732h14.83834z" fill="#F05543" /><path d="M800.574792 734.343245v205.205736a35.492226 35.492226 0 0 1-35.511547 35.511547h-61.826415a35.492226 35.492226 0 0 1-35.492226-35.511547V734.343245c0-11.76634 5.796226-22.759849 15.533887-29.367547l18.934339-12.886943a22.02566 22.02566 0 0 0 9.660378-18.219472v-0.154566c0-5.429132-2.202566-10.49117-5.680302-14.683774-8.211321-9.776302-13.389283-27.049057-13.389283-56.358641 0-55.682415 18.605887-133.718943 41.423698-133.718944 22.798491 0 41.269132 78.055849 41.269132 133.718944 0 29.425509-5.177962 46.717585-13.389283 56.532528-3.477736 4.173283-5.660981 9.235321-5.660981 14.683774 0 7.283925 3.59366 14.104151 9.641056 18.200151l18.93434 12.886943c9.73766 6.607698 15.553208 17.601208 15.553207 29.367547z" fill="#E4E3FF" /><path d="M800.574792 734.304604v205.186415a35.550189 35.550189 0 0 1-35.58883 35.550189h-16.036226a35.550189 35.550189 0 0 0 35.550189-35.550189v-205.186415a35.356981 35.356981 0 0 0-15.61117-29.251623l-18.895698-12.906264a22.296151 22.296151 0 0 1-9.621736-18.316075c0-5.409811 2.260528-10.510491 5.718943-14.56785 8.114717-9.892226 13.350642-27.164981 13.350642-56.59049 0-48.920151-14.258717-115.267623-33.328302-130.415094 2.704906-2.105962 5.409811-3.303849 8.114717-3.30385 22.798491 0 41.269132 78.055849 41.269132 133.718944 0 29.425509-5.255245 46.698264-13.350642 56.609811-3.458415 4.038038-5.699623 9.138717-5.699622 14.548529 0 7.341887 3.59366 14.104151 9.602415 18.316075l19.050264 12.906264c9.621736 6.588377 15.456604 17.543245 15.456604 29.251623z" fill="#D0D0F7" /><path d="M697.749736 772.192604v167.356377c0 3.014038 2.453736 5.487094 5.487094 5.487094h61.826415a5.487094 5.487094 0 0 0 5.487095-5.487094v-167.356377z" fill="#FC6559" /><path d="M770.55034 772.134642v167.356377a5.448453 5.448453 0 0 1-5.564378 5.545056h-61.826415a5.409811 5.409811 0 0 1-5.409811-5.545056v-11.264h52.552453c2.994717 0 5.390491-2.55034 5.39049-5.545057v-150.54732h14.857661z" fill="#F05543" /></svg>