<?xml version="1.0" standalone="no"?><!DOCTYPE svg PUBLIC "-//W3C//DTD SVG 1.1//EN" "http://www.w3.org/Graphics/SVG/1.1/DTD/svg11.dtd"><svg class="icon" width="200px" height="200.00px" viewBox="0 0 1024 1024" version="1.1" xmlns="http://www.w3.org/2000/svg"><path d="M797.425509 312.030189V871.366038c0 16.422642-3.864151 32.072453-10.819622 45.983396a103.791094 103.791094 0 0 1-93.512453 58.348679H168.728151c-57.575849 0-104.332075-46.756226-104.332076-104.332075V152.633962c0-57.575849 46.756226-104.332075 104.332076-104.332075h352.796981c11.592453 0 22.991698 1.932075 33.811321 5.796226 13.331321 4.443774 25.889811 11.78566 36.323019 21.446038l172.534339 160.169057c11.399245 10.626415 20.093585 23.378113 25.503397 37.482264 5.216604 12.172075 7.728302 25.310189 7.728301 38.834717z" fill="#E4E3FF" /><path d="M797.425509 312.030189V871.366038c0 57.575849-46.756226 104.332075-104.332075 104.332075H168.728151c-42.312453 0-78.635472-25.116981-94.864906-61.44 14.297358 7.535094 30.333585 11.592453 47.529057 11.592453h524.365283c57.575849 0 104.332075-46.756226 104.332075-104.332075V262.182642c0-13.524528-2.511698-26.662642-7.728302-38.834717-1.932075-5.023396-4.250566-9.853585-7.148679-14.490567l28.981132 26.85585c11.399245 10.626415 20.093585 23.378113 25.503397 37.482264 5.216604 12.172075 7.728302 25.310189 7.728301 38.834717z" fill="#D0D0F7" /><path d="M344.508377 140.094792h15.591849a14.490566 14.490566 0 0 0 0-28.981132h-15.591849a14.490566 14.490566 0 0 0 0 28.981132zM182.832302 140.094792h104.795773a14.490566 14.490566 0 0 0 0-28.981132H182.832302a14.490566 14.490566 0 0 0 0 28.981132z" fill="#FFFFFF" opacity=".5" /><path d="M555.336453 54.098113v167.008604a52.108075 52.108075 0 0 0 52.108075 52.108075h182.25268a100.467925 100.467925 0 0 0-25.503397-37.482264l-172.534339-160.169056c-10.433208-9.660377-22.991698-17.002264-36.323019-21.446038z" fill="#D0D0F7" /><path d="M132.579019 752.234264a14.490566 14.490566 0 0 1-14.490566-14.490566V508.135849a14.490566 14.490566 0 0 1 28.981132 0v229.607849a14.490566 14.490566 0 0 1-14.490566 14.490566zM132.579019 462.191094a14.490566 14.490566 0 0 1-14.490566-14.490566v-15.572528a14.490566 14.490566 0 0 1 28.981132 0v15.572528a14.490566 14.490566 0 0 1-14.490566 14.490566z" fill="#FFFFFF" opacity=".5" /><path d="M694.735698 406.102943a15.649811 15.649811 0 0 1-15.649811 15.649812h-475.870189a15.649811 15.649811 0 1 1 0-31.299623h475.870189a15.649811 15.649811 0 0 1 15.649811 15.649811zM694.735698 501.489509a15.649811 15.649811 0 0 1-15.649811 15.649812h-475.870189a15.649811 15.649811 0 1 1 0-31.299623h475.870189a15.649811 15.649811 0 0 1 15.649811 15.649811zM559.490415 596.876075a15.649811 15.649811 0 0 1-15.649811 15.649812h-340.624906a15.649811 15.649811 0 0 1 0-31.299623h340.624906a15.649811 15.649811 0 0 1 15.649811 15.649811zM559.490415 692.262642a15.649811 15.649811 0 0 1-15.649811 15.649811h-340.624906a15.649811 15.649811 0 1 1 0-31.299623h340.624906a15.649811 15.649811 0 0 1 15.649811 15.649812zM549.830038 787.629887a15.649811 15.649811 0 0 1-15.649812 15.649811h-330.964528a15.649811 15.649811 0 0 1 0-31.299623h330.964528a15.649811 15.649811 0 0 1 15.649812 15.649812zM797.425509 562.040755V871.366038c0 16.422642-3.864151 32.072453-10.819622 45.983396-87.716226-11.399245-155.532075-86.556981-155.532076-177.171321 0-94.478491 73.612075-171.761509 166.351698-178.137358z" fill="#D0D0F7" /><path d="M959.603925 740.178113c0 82.69283-67.100981 149.774491-149.75517 149.774491s-149.774491-67.100981-149.774491-149.75517 67.100981-149.600604 149.774491-149.600604 149.75517 66.927094 149.75517 149.600604z" fill="#5E5EEF" /><path d="M686.041358 742.863698h-0.27049a7.245283 7.245283 0 0 1-6.974793-7.515773 130.55034 130.55034 0 0 1 51.277283-99.154114 7.264604 7.264604 0 0 1 8.810265 11.51517 116.117736 116.117736 0 0 0-45.616302 88.160604 7.245283 7.245283 0 0 1-7.225963 6.994113zM780.79034 627.113057a7.245283 7.245283 0 0 1-1.700227-14.278038c8.307925-1.990038 16.867019-3.187925 25.445434-3.516377a7.341887 7.341887 0 0 1 7.535095 6.955471 7.245283 7.245283 0 0 1-6.955472 7.535095c-7.651019 0.270491-15.263396 1.333132-22.624604 3.09132a6.66566 6.66566 0 0 1-1.700226 0.212529z" fill="#FFFFFF" opacity=".4" /><path d="M959.526642 740.178113a149.735849 149.735849 0 0 1-149.73585 149.735849c-49.074717 0-92.739623-23.571321-119.981886-60.087547a150.02566 150.02566 0 0 0 102.206792 40.18717 149.735849 149.735849 0 0 0 149.735849-149.735849c0-33.231698-10.819623-63.951698-28.981132-88.682264a149.175547 149.175547 0 0 1 46.756227 108.582641z" fill="#4242E5" /><path d="M904.926189 740.216755c0 52.494491-42.602264 95.096755-95.077434 95.096754s-95.096755-42.602264-95.096755-95.096754c0-52.47517 42.602264-94.98083 95.096755-94.98083s95.077434 42.50566 95.077434 94.98083z" fill="#FFFFFF" /><path d="M904.848906 740.178113c0 52.552453-42.50566 95.058113-95.058114 95.058113-34.970566 0-65.497358-18.93434-82.113207-47.142641a95.116075 95.116075 0 0 0 144.712453-119.209057c19.900377 17.388679 32.458868 42.892075 32.458868 71.293585z" fill="#E4E3FF" /><path d="M795.532075 772.926792a14.490566 14.490566 0 0 1-11.399245-5.564377l-16.693132-21.310792a14.490566 14.490566 0 0 1 22.837132-17.852378l7.651019 9.756981 33.811321-27.14566a14.490566 14.490566 0 0 1 18.161509 22.605283l-45.287849 36.323019a14.490566 14.490566 0 0 1-9.080755 3.187924z" fill="#474646" /></svg>