<?xml version="1.0" standalone="no"?><!DOCTYPE svg PUBLIC "-//W3C//DTD SVG 1.1//EN" "http://www.w3.org/Graphics/SVG/1.1/DTD/svg11.dtd"><svg class="icon" width="200px" height="200.00px" viewBox="0 0 1024 1024" version="1.1" xmlns="http://www.w3.org/2000/svg"><path d="M974.538868 834.076981v35.472906a67.506717 67.506717 0 0 1-67.506717 67.487396H114.630038a67.506717 67.506717 0 0 1-67.506717-67.487396V834.076981a14.104151 14.104151 0 0 1 14.104151-14.104151H960.434717a14.104151 14.104151 0 0 1 14.104151 14.104151z" fill="#A2A2F9" /><path d="M974.538868 834.076981v35.550189c0 37.289057-30.140377 67.429434-67.429434 67.429434H114.572075c-27.435472 0-50.813585-16.229434-61.44-39.607547 11.206038 8.501132 25.116981 13.524528 40.380378 13.524528h792.344151c37.289057 0 67.622642-30.140377 67.622641-67.429434v-23.571321h6.955472c7.728302 0 14.104151 6.375849 14.104151 14.104151z" fill="#7979F7" /><path d="M940.147925 354.535849v465.436981H81.533585V354.535849c0-52.359245 42.50566-95.058113 95.058113-95.058113h668.498113c52.552453 0 95.058113 42.698868 95.058114 95.058113z" fill="#E4E3FF" /><path d="M125.468981 684.572981a14.490566 14.490566 0 0 1-14.490566-14.490566v-116.465509a14.490566 14.490566 0 0 1 28.981132 0v116.465509a14.490566 14.490566 0 0 1-14.490566 14.490566zM125.468981 507.981283a14.490566 14.490566 0 0 1-14.490566-14.490566v-17.388679a14.490566 14.490566 0 0 1 28.981132 0v17.388679a14.490566 14.490566 0 0 1-14.490566 14.490566zM300.766189 317.884377h-16.905661a14.490566 14.490566 0 0 1 0-28.981132h16.905661a14.490566 14.490566 0 0 1 0 28.981132zM502.416906 317.884377h-139.148076a14.490566 14.490566 0 0 1 0-28.981132h139.148076a14.490566 14.490566 0 0 1 0 28.981132z" fill="#FFFFFF" opacity=".6" /><path d="M940.147925 354.535849v465.436981H81.533585v-44.630943H821.132075a74.346264 74.346264 0 0 0 74.346265-74.365585V309.885585c0-14.683774-3.284528-28.787925-9.46717-41.153208 32.072453 15.263396 54.098113 48.108679 54.098113 85.784151z" fill="#D0D0F7" /><path d="M862.864906 383.516981v312.416604c0 25.889811-20.866415 46.756226-46.563019 46.756226H205.379623c-25.696604 0-46.563019-20.866415-46.563019-46.756226V383.516981a46.756226 46.756226 0 0 1 46.563019-46.756226h610.922264a46.756226 46.756226 0 0 1 46.563019 46.756226z" fill="#FFFFFF" /><path d="M617.298113 544.458868c0 64.531321-52.359245 116.890566-117.083773 116.890566-64.531321 0-116.890566-52.359245-116.890566-116.890566a117.006491 117.006491 0 0 1 233.974339 0z" fill="#FC6559" /><path d="M617.298113 544.458868c0 64.531321-52.359245 116.890566-117.083773 116.890566-39.221132 0-73.998491-19.513962-95.251321-49.267925a116.967849 116.967849 0 0 0 167.704151-159.589434 116.697358 116.697358 0 0 1 44.630943 91.966793z" fill="#F05543" /><path d="M547.878642 560.514415l-51.257963 36.129811a19.784453 19.784453 0 0 1-31.164377-16.190792v-72.220981c0-16.036226 18.064906-25.406792 31.164377-16.171472l51.257963 36.129811a19.784453 19.784453 0 0 1 0 32.323623z" fill="#FFFFFF" /><path d="M940.147925 354.535849v62.019623c-2.898113 0.579623-6.182642 0.77283-9.273963 0.77283h-68.009056v-33.811321a46.756226 46.756226 0 0 0-46.563019-46.756226H536.923774v-77.283019h308.166037c52.552453 0 95.058113 42.698868 95.058114 95.058113z" fill="#D0D0F7" /><path d="M862.864906 383.516981v33.811321h-135.438491l-78.635472 58.348679a27.164981 27.164981 0 0 1-34.584151-2.125283c-5.409811-5.216604-8.307925-11.978868-8.307924-19.513962v-36.709434h-3.477736c-36.129811 0-65.497358-29.367547-65.497358-65.497359v-15.070188h279.378113a46.756226 46.756226 0 0 1 46.563019 46.756226z" fill="#E4E3FF" /><path d="M976.857358 133.023396V351.830943a46.060679 46.060679 0 0 1-46.041358 46.06068H721.089208l-83.852076 62.154868a7.535094 7.535094 0 0 1-11.998189-6.047397v-56.107471h-22.914415a46.060679 46.060679 0 0 1-46.060679-46.06068V133.023396A46.060679 46.060679 0 0 1 602.324528 86.943396h328.491472a46.060679 46.060679 0 0 1 46.060679 46.060679z" fill="#F9B938" /><path d="M712.008453 117.412226h-7.960151a8.307925 8.307925 0 0 1 0-16.615849h7.960151a8.307925 8.307925 0 0 1 0 16.615849zM873.800453 117.412226h-126.686189a8.307925 8.307925 0 0 1 0-16.615849h126.686189a8.307925 8.307925 0 0 1 0 16.615849zM578.985057 323.429434a8.307925 8.307925 0 0 1-8.307925-8.307925v-76.432905a8.307925 8.307925 0 0 1 16.615849 0v76.432905a8.307925 8.307925 0 0 1-8.307924 8.307925zM578.985057 214.305811a8.307925 8.307925 0 0 1-8.307925-8.307924v-8.636378a8.307925 8.307925 0 0 1 16.615849 0v8.636378a8.307925 8.307925 0 0 1-8.307924 8.307924z" fill="#FFFFFF" opacity=".3" /><path d="M976.857358 133.004075v218.846189a46.041358 46.041358 0 0 1-46.041358 46.060679H721.089208l-83.794114 62.212831a7.593057 7.593057 0 0 1-12.056151-6.086038v-15.070189l73.013132-54.175396a14.316679 14.316679 0 0 1 8.539774-2.82083h204.993208a46.041358 46.041358 0 0 0 46.041358-46.060679V117.083774c0-9.621736-2.975396-18.586566-8.076075-26.005736a45.867472 45.867472 0 0 1 27.126339 41.945358z" fill="#ECB021" /><path d="M600.547019 325.709283v-166.544906c0-15.417962 12.500528-27.918491 27.91849-27.91849h276.20951c15.417962 0 27.918491 12.500528 27.91849 27.91849v166.544906c0 15.417962-12.500528 27.918491-27.91849 27.918491H628.465509a27.937811 27.937811 0 0 1-27.91849-27.918491z" fill="#FFFFFF" /><path d="M932.593509 159.203019v166.486943c0 15.495245-12.519849 27.879849-27.899169 27.879849H628.446189a27.918491 27.918491 0 0 1-26.681963-19.47532c1.661585 0.328453 3.419774 0.444377 5.216604 0.444377h276.132227c15.379321 0 27.89917-12.519849 27.899169-28.015094V140.03683a30.333585 30.333585 0 0 0-1.217207-8.404528c12.944906 2.434415 22.798491 13.83366 22.79849 27.551396z" fill="#E4E3FF" /><path d="M719.079849 236.833811c0 13.485887-10.954868 24.440755-24.440755 24.440755a24.479396 24.479396 0 0 1-24.440754-24.440755c0-13.621132 10.954868-24.595321 24.440754-24.59532s24.440755 10.974189 24.440755 24.59532zM791.011019 236.833811c0 13.485887-10.954868 24.440755-24.440755 24.440755a24.479396 24.479396 0 0 1-24.440755-24.440755c0-13.621132 10.954868-24.595321 24.440755-24.59532s24.440755 10.974189 24.440755 24.59532zM862.942189 236.833811c0 13.485887-10.954868 24.440755-24.440755 24.440755a24.479396 24.479396 0 0 1-24.460076-24.440755c0-13.621132 10.974189-24.595321 24.460076-24.59532 13.485887 0 24.440755 10.974189 24.440755 24.59532z" fill="#474646" /><path d="M719.118491 236.872453c0 13.524528-11.01283 24.344151-24.537359 24.344151-8.69434 0-16.229434-4.443774-20.48-11.399246 1.932075 0.579623 4.250566 0.966038 6.375849 0.966038 13.524528 0 24.537358-11.01283 24.537359-24.537358 0-4.636981-1.352453-9.080755-3.670944-12.751698 10.24 2.704906 17.775094 11.978868 17.775095 23.378113zM790.991698 236.872453c0 13.524528-11.01283 24.344151-24.344151 24.344151-8.887547 0-16.615849-4.636981-20.866415-11.592453 2.125283 0.77283 4.443774 1.159245 6.762264 1.159245 13.331321 0 24.344151-11.01283 24.344151-24.537358 0-4.830189-1.352453-9.273962-3.864151-12.944906 10.24 2.704906 17.968302 12.172075 17.968302 23.571321zM862.864906 236.872453c0 13.524528-10.819623 24.344151-24.344151 24.344151-8.887547 0-16.615849-4.636981-20.866415-11.592453 2.125283 0.77283 4.443774 1.159245 6.762264 1.159245a24.402113 24.402113 0 0 0 20.673207-37.289056c10.24 2.511698 17.775094 11.978868 17.775095 23.378113z" fill="#2D2C2C" /><path d="M550.042566 893.005283H471.619623a14.490566 14.490566 0 0 1 0-28.981132h78.422943a14.490566 14.490566 0 0 1 0 28.981132z" fill="#FFFFFF" /></svg>