<?xml version="1.0" standalone="no"?><!DOCTYPE svg PUBLIC "-//W3C//DTD SVG 1.1//EN" "http://www.w3.org/Graphics/SVG/1.1/DTD/svg11.dtd"><svg class="icon" width="200px" height="200.00px" viewBox="0 0 1024 1024" version="1.1" xmlns="http://www.w3.org/2000/svg"><path d="M975.698113 813.925434v35.782038a67.410113 67.410113 0 0 1-67.410113 67.390792H115.731321A67.410113 67.410113 0 0 1 48.301887 849.726792v-35.782037c0-13.080151 10.607094-23.687245 23.687245-23.687246h880.021736c13.080151 0 23.687245 10.607094 23.687245 23.687246z" fill="#7979F7" /><path d="M932.226415 265.699019v524.461887H91.773585V265.505811a86.653585 86.653585 0 0 1 86.653585-86.653585h666.952453a86.846792 86.846792 0 0 1 86.846792 86.846793z" fill="#C2C2EF" /><path d="M932.226415 277.967698v512.193208H91.773585v-31.686038h764.67683a44.28317 44.28317 0 0 0 44.28317-44.28317V246.28166c0-19.127547-5.409811-37.095849-14.876981-52.166037 27.821887 17.581887 46.369811 48.495094 46.369811 83.852075z" fill="#A2A2F9" /><path d="M130.415094 593.011925a14.490566 14.490566 0 0 1-14.490566-14.490567v-151.436075a14.490566 14.490566 0 0 1 28.981132 0v151.436075a14.490566 14.490566 0 0 1-14.490566 14.490567zM130.415094 369.316226a14.490566 14.490566 0 0 1-14.490566-14.490566v-14.007547a14.490566 14.490566 0 0 1 28.981132 0v14.007547a14.490566 14.490566 0 0 1-14.490566 14.490566z" fill="#FFFFFF" opacity=".3" /><path d="M169.056604 306.291925v360.679849a45.906113 45.906113 0 0 0 45.906113 45.906113h594.074566a45.906113 45.906113 0 0 0 45.906113-45.906113V306.291925a45.906113 45.906113 0 0 0-45.906113-45.886793H214.962717a45.906113 45.906113 0 0 0-45.906113 45.886793z" fill="#FFFFFF" /><path d="M542.565434 653.118792v59.759095H244.98717v-59.759095a74.809962 74.809962 0 0 1 74.713358-74.713358h148.151547a74.809962 74.809962 0 0 1 74.713359 74.713358z" fill="#ECB021" /><path d="M542.565434 653.118792v59.759095H244.98717v-18.045585h236.234868a38.931321 38.931321 0 0 0 38.93132-38.931321V635.073208c0-18.219472-6.569057-34.970566-17.504603-47.915472a74.481509 74.481509 0 0 1 39.916679 65.961056z" fill="#E5A320" /><path d="M482.304 452.801208a88.547019 88.547019 0 0 1-88.450415 88.450415c-48.784906 0-88.58566-39.665509-88.58566-88.450415s39.800755-88.58566 88.58566-88.585661a88.662943 88.662943 0 0 1 88.450415 88.585661z" fill="#F9B938" /><path d="M329.805283 445.014943a6.684981 6.684981 0 0 1-6.530415-8.172679 72.433509 72.433509 0 0 1 30.082415-44.089962 6.704302 6.704302 0 0 1 7.515774 11.090113 59.063547 59.063547 0 0 0-24.537359 35.936604 6.684981 6.684981 0 0 1-6.530415 5.216604zM377.991245 395.650415a6.704302 6.704302 0 0 1-1.622943-13.196075c3.670943-0.927396 7.477132-1.54566 11.264-1.874114a6.704302 6.704302 0 1 1 1.159245 13.350642c-3.149283 0.270491-6.201962 0.77283-9.177358 1.52634a6.955472 6.955472 0 0 1-1.622944 0.193207z" fill="#FFFFFF" opacity=".4" /><path d="M482.304 452.801208a88.547019 88.547019 0 0 1-88.450415 88.450415 88.778868 88.778868 0 0 1-84.972679-63.526642 88.006038 88.006038 0 0 0 64.338113 27.879849 88.547019 88.547019 0 0 0 88.450415-88.450415c0-8.71366-1.352453-17.292075-3.748226-25.194264a87.677585 87.677585 0 0 1 24.382792 60.841057z" fill="#ECB021" /><path d="M281.426113 673.251019a9.100075 9.100075 0 0 1-9.100075-9.100076v-11.032151c0-26.12166 21.25283-47.374491 47.37449-47.37449h17.195472a9.100075 9.100075 0 1 1 0 18.219472h-17.195472a29.17434 29.17434 0 0 0-29.174339 29.155018v11.012831c0 5.062038-4.057358 9.119396-9.080755 9.119396z" fill="#FFFFFF" opacity=".4" /><path d="M383.74883 623.963774h-8.153358a9.100075 9.100075 0 1 1 0-18.219472h8.153358a9.100075 9.100075 0 1 1 0 18.219472z" fill="#FFFFFF" opacity=".4" /><path d="M932.226415 277.967698v183.160755c-10.046792 4.830189-21.446038 7.535094-33.424906 7.535094h-43.858113v-190.695849c0-11.978868-9.853585-21.832453-22.02566-21.832453H531.127547v-77.283019h301.790189c54.870943 0 99.308679 44.437736 99.308679 99.115472z" fill="#A2A2F9" /><path d="M854.943396 277.967698v190.695849h-108.969056l-81.92 60.860378c-16.190792 11.437887-35.395623 8.732981-47.722265-2.898114-7.148679-6.955472-11.399245-16.809057-11.399245-26.855849v-31.299622a78.32634 78.32634 0 0 1-73.805283-78.055849v-134.279246h301.790189c12.172075 0 22.02566 9.853585 22.02566 21.832453z" fill="#D0D0F7" /><path d="M948.166038 156.188981v234.167547a49.287245 49.287245 0 0 1-49.306566 49.306566h-162.390944L646.723623 506.203774a8.056755 8.056755 0 0 1-12.848302-6.453132v-60.068227h-24.518038a49.287245 49.287245 0 0 1-49.287245-49.287245V156.208302a49.287245 49.287245 0 0 1 49.287245-49.306566h289.502189a49.287245 49.287245 0 0 1 49.306566 49.287245z" fill="#FC6559" /><path d="M726.750189 139.495849h-8.520453a8.887547 8.887547 0 0 1 0-17.775094h8.520453a8.887547 8.887547 0 0 1 0 17.775094zM837.863849 139.495849h-73.554113a8.887547 8.887547 0 0 1 0-17.775094h73.554113a8.887547 8.887547 0 0 1 0 17.775094zM584.375547 359.94566a8.887547 8.887547 0 0 1-8.887547-8.887547v-81.784755a8.887547 8.887547 0 0 1 17.775094 0v81.804076a8.887547 8.887547 0 0 1-8.887547 8.887547zM584.375547 243.19034a8.887547 8.887547 0 0 1-8.887547-8.887548v-9.254641a8.887547 8.887547 0 0 1 17.775094 0v9.254641a8.887547 8.887547 0 0 1-8.887547 8.887548z" fill="#FFFFFF" opacity=".3" /><path d="M948.166038 156.188981v234.206189a49.267925 49.267925 0 0 1-49.267925 49.267924h-162.429585l-89.686943 66.579321a8.114717 8.114717 0 0 1-12.906264-6.511094v-16.11351l78.152453-57.981585a15.321358 15.321358 0 0 1 9.119396-3.033358h157.348226a49.267925 49.267925 0 0 0 49.287246-49.267925V139.109434c0-10.317283-3.187925-19.900377-8.636378-27.841208a49.074717 49.074717 0 0 1 29.019774 44.901434z" fill="#F05543" /><path d="M607.444528 362.399396V184.184755c0-16.519245 13.389283-29.889208 29.889208-29.889208h233.549283c16.519245 0 29.889208 13.369962 29.889207 29.889208v178.214641c0 16.499925-13.369962 29.889208-29.889207 29.889208H637.333736a29.889208 29.889208 0 0 1-29.889208-29.889208z" fill="#FFFFFF" /><path d="M900.772226 184.204075v178.176c0 16.577208-13.389283 29.850566-29.850566 29.850567H637.314415a29.869887 29.869887 0 0 1-28.556075-20.866416c1.777509 0.367094 3.670943 0.483019 5.564377 0.483019h233.491321c16.480604 0 29.850566-13.389283 29.850566-29.96649V163.704755c0-3.091321-0.463698-6.163321-1.294491-9.003472a30.024453 30.024453 0 0 1 24.402113 29.502792z" fill="#E4E3FF" /><path d="M704.144906 273.369358a26.662642 26.662642 0 0 1-26.624 26.624 26.701283 26.701283 0 1 1 0-53.421886c14.683774 0 26.624 11.959547 26.624 26.797886zM780.751698 273.369358a26.662642 26.662642 0 0 1-26.643321 26.624 26.701283 26.701283 0 1 1 0-53.421886c14.683774 0 26.643321 11.959547 26.643321 26.797886zM857.358491 273.369358a26.662642 26.662642 0 0 1-26.643321 26.624 26.701283 26.701283 0 1 1 0-53.421886c14.683774 0 26.643321 11.959547 26.643321 26.797886z" fill="#474646" /><path d="M704.241509 273.330717c0 14.683774-11.978868 26.662642-26.662641 26.662641-11.399245 0-21.059623-7.148679-24.923774-17.195471 4.057358 2.704906 9.080755 4.250566 14.297359 4.250566 14.683774 0 26.662642-11.978868 26.662641-26.662642 0-3.477736-0.579623-6.569057-1.932075-9.660377 7.535094 4.636981 12.558491 12.944906 12.55849 22.605283zM780.751698 273.330717c0 14.683774-11.978868 26.662642-26.662641 26.662641-11.399245 0-21.059623-7.148679-24.923774-17.195471 4.057358 2.704906 9.080755 4.250566 14.297359 4.250566 14.683774 0 26.662642-11.978868 26.662641-26.662642 0-3.477736-0.579623-6.569057-1.932075-9.660377 7.535094 4.636981 12.558491 12.944906 12.55849 22.605283zM857.261887 273.330717a26.546717 26.546717 0 0 1-51.393208 9.46717c4.057358 2.704906 9.080755 4.250566 14.297359 4.250566 14.683774 0 26.662642-11.978868 26.662641-26.662642 0-3.477736-0.579623-6.569057-1.932075-9.660377 7.535094 4.636981 12.365283 12.944906 12.365283 22.605283z" fill="#2D2C2C" /></svg>