<?xml version="1.0" standalone="no"?><!DOCTYPE svg PUBLIC "-//W3C//DTD SVG 1.1//EN" "http://www.w3.org/Graphics/SVG/1.1/DTD/svg11.dtd"><svg class="icon" width="200px" height="200.00px" viewBox="0 0 1024 1024" version="1.1" xmlns="http://www.w3.org/2000/svg"><path d="M942.910792 828.589887A60.145509 60.145509 0 0 1 882.765283 888.754717H611.347321l-10.568453 26.276226a32.671396 32.671396 0 0 1-30.333585 20.499321H453.264906a32.652075 32.652075 0 0 1-30.333585-20.48L412.401509 888.754717H141.196075a60.145509 60.145509 0 0 1-60.145509-60.16483c0-8.018113 6.491774-14.509887 14.509887-14.509887h832.840453c8.018113 0 14.509887 6.491774 14.509886 14.509887z" fill="#5E5EEF" /><path d="M942.949434 828.66717c0 33.038491-27.049057 60.087547-60.280755 60.087547h-271.263396l-10.626415 26.295547c-5.023396 12.365283-17.002264 20.48-30.333585 20.48h-117.276981c-13.331321 0-25.310189-8.114717-30.140377-20.48l-10.626416-26.276226H141.138113c-33.231698 0-60.087547-27.049057-60.087547-60.087547 0-1.54566 0.193208-2.898113 0.77283-4.250566a59.932981 59.932981 0 0 0 59.314717 50.813584h271.263396l10.626416 26.276227c4.830189 12.365283 16.809057 20.48 30.140377 20.48h117.276981c13.331321 0 25.310189-8.114717 30.333585-20.48l10.626415-26.276227h271.263396c30.140377 0 55.064151-22.02566 59.507925-50.813584 0.579623 1.352453 0.77283 2.704906 0.77283 4.250566z" fill="#4242E5" /><path d="M511.980679 814.08H117.779321a91.232604 91.232604 0 0 1 101.433962-90.652981l237.587321 28.903849a62.135547 62.135547 0 0 1 55.180075 61.749132z" fill="#E4E3FF" /><path d="M511.980679 814.08h394.201359a91.232604 91.232604 0 0 0-101.433963-90.652981l-237.58732 28.903849a62.135547 62.135547 0 0 0-55.180076 61.749132z" fill="#E4E3FF" /><path d="M119.247698 798.410868a91.63834 91.63834 0 0 0-1.468377 15.649811h394.201358c0-5.409811-0.927396-10.607094-2.260528-15.649811zM514.221887 798.410868c-1.313811 5.042717-2.241208 10.24-2.241208 15.649811h394.201359c0-5.351849-0.579623-10.549132-1.468378-15.649811z" fill="#D0D0F7" /><path d="M661.310792 332.606792c-11.592453 113.606038-106.399396 206.442264-220.372528 215.774189-0.483019 0-1.081962 0.115925-1.54566 0.115925a181.325283 181.325283 0 0 1-20.924378-67.854491c-12.172075-117.528151 85.475019-215.793509 203.119095-204.54883 13.83366 1.294491 27.319547 4.250566 40.090566 8.501132a250.590189 250.590189 0 0 1-0.367095 48.012075z" fill="#5E5EEF" /><path d="M584.684679 307.180679a9.216 9.216 0 0 0 0.908076-0.057962 158.816604 158.816604 0 0 1 32.980528-0.289811 8.095396 8.095396 0 0 0 8.752302-7.245283 8.037434 8.037434 0 0 0-7.225962-8.752302 175.046038 175.046038 0 0 0-36.323019 0.328453 8.018113 8.018113 0 0 0 0.908075 16.016905z" fill="#FFFFFF" opacity=".3" /><path d="M771.168604 638.241811a8.153358 8.153358 0 0 1-10.877585 9.583095l-64.801811-25.773887c-31.338264 18.200151-68.588679 27.184302-108.060982 23.996377-63.623245-5.081358-118.957887-43.394415-148.035622-97.55049a181.325283 181.325283 0 0 1-20.924378-67.854491c-12.172075-117.528151 85.475019-215.793509 203.119095-204.54883 13.83366 1.294491 27.319547 4.250566 40.090566 8.501132 69.168302 23.068981 120.600151 86.209208 126.512302 161.038491a184.84166 184.84166 0 0 1-35.241057 125.101886z" fill="#F9B938" /><path d="M771.168604 638.241811a8.153358 8.153358 0 0 1-10.877585 9.583095l-10.297962-4.134642a8.365887 8.365887 0 0 0 0.483018-5.448453L732.256604 570.735094a184.300679 184.300679 0 0 0 35.356981-125.101886c-7.090717-88.682264-78.152453-161.038491-166.718793-169.539623-2.704906-0.25117-5.429132-0.483019-8.153358-0.483019 9.46717-0.579623 19.030943-0.463698 28.845887 0.483019 88.56634 8.501132 159.628075 80.876679 166.602868 169.539623a184.84166 184.84166 0 0 1-35.241057 125.101886z" fill="#ECB021" /><path d="M743.269434 461.128453c0 77.553509-62.792453 140.345962-140.114113 140.345962a140.210717 140.210717 0 0 1-140.230038-140.345962 140.210717 140.210717 0 0 1 140.230038-140.114113c20.673208 0 40.43834 4.501736 58.039547 12.655094a140.03683 140.03683 0 0 1 82.055245 127.459019z" fill="#FFFFFF" /><path d="M743.269434 461.128453c0 77.553509-62.792453 140.345962-140.114113 140.345962a139.862943 139.862943 0 0 1-107.017661-49.65434 140.326642 140.326642 0 0 0 84.315774 28.131019c77.32166 0 140.094792-62.792453 140.094792-140.345962a139.51517 139.51517 0 0 0-32.980528-90.227924 139.747019 139.747019 0 0 1 55.682415 111.751245z" fill="#E4E3FF" /><path d="M661.194868 333.669434c-10.394566 97.415245-81.92 179.354566-174.157283 206.191094a140.210717 140.210717 0 0 1 116.117736-218.846188c20.673208 0 40.43834 4.501736 58.039547 12.655094z" fill="#E4E3FF" /><path d="M637.836075 330.114415c-10.568453 103.366038-95.309283 186.232755-198.810566 194.656604-46.466415 3.786868-90.285887-6.800906-127.169207-28.208302l-76.181736 30.236981a9.46717 9.46717 0 0 1-12.713057-11.206038l21.407397-79.466264a217.474415 217.474415 0 0 1-41.539623-147.185509c8.307925-104.254792 91.889509-189.362717 196.028377-199.448151 138.375245-13.215396 253.333736 102.380679 238.978415 240.620679z" fill="#FC6559" /><path d="M229.665811 299.433057c-0.270491 0-0.540981 0-0.811471-0.038642a9.428528 9.428528 0 0 1-8.597736-10.201358c6.472453-74.848604 56.107472-141.292679 126.454339-169.249812a9.46717 9.46717 0 0 1 6.974793 17.562566c-63.758491 25.329509-108.737208 85.532981-114.610717 153.310189a9.447849 9.447849 0 0 1-9.409208 8.617057zM442.290717 126.087245a10.838943 10.838943 0 0 1-1.081962-0.057962 186.831698 186.831698 0 0 0-38.796076-0.347774 9.525132 9.525132 0 0 1-10.317283-8.501132 9.46717 9.46717 0 0 1 8.501132-10.317283c14.220075-1.352453 28.594717-1.217208 42.73751 0.386415a9.447849 9.447849 0 0 1-1.043321 18.837736z" fill="#FFFFFF" opacity=".3" /><path d="M637.894038 330.114415c-10.568453 103.366038-95.309283 186.232755-198.810566 194.656604-46.466415 3.786868-90.285887-6.800906-127.169208-28.208302L235.713208 526.819019a9.505811 9.505811 0 0 1-12.693736-11.321962l7.283924-26.952453 52.436529-20.847095c7.535094-2.994717 15.920302-2.279849 23.184905 1.352453a217.783547 217.783547 0 0 0 115.885887 22.122264c103.501283-8.423849 188.242113-91.271245 198.810566-194.656603 3.902792-37.520906-1.738868-73.418868-14.722415-105.491321a218.479094 218.479094 0 0 1 31.975849 139.109434z" fill="#F05543" /><path d="M585.47683 307.219321c0 91.193962-73.863245 165.037887-164.902641 165.037887s-164.921962-73.843925-164.921963-165.037887a164.941283 164.941283 0 0 1 329.824604 0z" fill="#FFFFFF" /><path d="M585.515472 307.2c0 91.155321-73.901887 165.076528-164.941283 165.076528a164.265057 164.265057 0 0 1-125.662189-58.174792 164.071849 164.071849 0 0 0 97.337962 31.859924c91.020075 0 164.806038-73.805283 164.806038-165.076528 0-40.786113-14.722415-78.055849-39.16317-106.76649a164.748075 164.748075 0 0 1 67.622642 133.081358z" fill="#E4E3FF" /><path d="M483.84966 326.945811l-79.794717 57.266717c-15.437283 11.090113-36.941283 0.057962-36.941283-18.934339v-114.572076a23.339472 23.339472 0 0 1 36.941283-18.95366l79.794717 57.266717c12.944906 9.312604 12.944906 28.594717 0 37.926641z" fill="#474646" /><path d="M483.791698 326.965132l-79.794717 57.189434c-15.070189 11.01283-35.936604 0.579623-36.709434-17.775094 7.535094 5.409811 18.354717 6.182642 27.049057 0l79.794717-57.382642c6.762264-4.830189 10.046792-12.365283 9.660377-19.900377 12.944906 9.273962 12.944906 28.594717 0 37.868679z" fill="#2D2C2C" /></svg>