<?xml version="1.0" standalone="no"?><!DOCTYPE svg PUBLIC "-//W3C//DTD SVG 1.1//EN" "http://www.w3.org/Graphics/SVG/1.1/DTD/svg11.dtd"><svg class="icon" width="200px" height="200.00px" viewBox="0 0 1024 1024" version="1.1" xmlns="http://www.w3.org/2000/svg"><path d="M788.924377 488.100226v309.132076c0 33.231698-27.049057 60.280755-60.280754 60.280755h-508.522265c-33.231698 0-60.280755-27.049057-60.280754-60.280755v-308.938868c0-15.843019 6.182642-30.140377 16.036226-40.766792 11.01283-11.978868 26.855849-19.513962 44.244528-19.513963h508.522265c12.365283 0 23.764528 3.670943 33.231698 10.046793 16.229434 10.626415 26.855849 29.17434 27.049056 50.040754z" fill="#474646" /><path d="M788.924377 488.100226v309.132076c0 33.231698-27.049057 60.280755-60.280754 60.280755h-508.522265c-21.639245 0-40.573585-11.399245-51.006792-28.40151 9.080755 5.409811 19.900377 8.69434 31.299623 8.69434h508.522264c33.231698 0 60.280755-27.049057 60.280755-60.280755v-309.132075c-0.193208-11.592453-3.477736-22.412075-9.273963-31.492831 0.579623 0.386415 1.352453 0.77283 1.932076 1.159246 16.229434 10.626415 26.855849 29.17434 27.049056 50.040754z" fill="#2D2C2C" /><path d="M788.924377 566.832302h56.82234v151.861132h-56.82234z" fill="#474646" /><path d="M845.727396 700.628528v17.968302h-56.803019v-151.667924h9.853585v116.581434c0 9.46717 7.67034 17.118189 17.118189 17.118188z" fill="#2D2C2C" /><path d="M845.746717 566.832302v151.861132l91.38717 74.326943c15.205434 12.365283 37.907321 1.54566 37.907321-18.026264V510.531623c0-19.571925-22.701887-30.372226-37.888-18.026265z" fill="#474646" /><path d="M885.856604 713.631396a43.336453 43.336453 0 0 1-15.978264-33.618113v-131.245887l0.637585-0.52166h-1.835472l-22.953057 18.68317v151.667924l91.38717 74.384906c13.910943 11.206038 34.004528 3.284528 37.289057-12.944906-4.443774-0.193208-9.080755-1.738868-13.138114-5.023396z" fill="#2D2C2C" /><path d="M108.254189 531.842415h51.586415v108.601962h-51.586415z" fill="#474646" /><path d="M159.840604 531.765132v108.775849h-51.586415v-14.104151H129.449057c10.896906 0 19.745811-8.829585 19.745811-19.745811v-74.925887z" fill="#2D2C2C" /><path d="M48.958792 530.200151v111.886491a29.657358 29.657358 0 0 0 59.314717 0v-111.86717a29.657358 29.657358 0 1 0-59.314717 0z" fill="#474646" /><path d="M108.254189 530.219472v111.86717c0 16.422642-13.331321 29.560755-29.560755 29.560754-12.172075 0-22.798491-7.341887-27.435472-17.775094a29.560755 29.560755 0 0 0 47.722264-23.378113v-111.86717c0-4.250566-0.966038-8.501132-2.511698-12.172076 7.148679 5.409811 11.78566 14.104151 11.785661 23.764529zM220.121358 428.012679h193.207548a174.891472 174.891472 0 0 1-129.255849 56.996227c-40.766792 0-78.249057-13.910943-108.196227-37.482264 11.01283-11.978868 26.855849-19.513962 44.244528-19.513963zM761.875321 438.059472c-34.970566 28.015094-79.215094 44.630943-127.516981 44.630943-53.711698 0-102.593208-20.673208-139.302642-54.677736h233.587925c12.365283 0 23.764528 3.670943 33.231698 10.046793z" fill="#2D2C2C" /><path d="M634.35834 277.75517m-186.310038 0a186.310038 186.310038 0 1 0 372.620075 0 186.310038 186.310038 0 1 0-372.620075 0Z" fill="#5E5EEF" /><path d="M491.210868 284.556075h-0.193208a9.660377 9.660377 0 0 1-9.467169-9.853584 152.208906 152.208906 0 0 1 73.708679-127.710189 9.660377 9.660377 0 0 1 10.008151 16.519245 133.004075 133.004075 0 0 0-64.396076 111.577359 9.660377 9.660377 0 0 1-9.660377 9.467169zM601.60966 148.016302a9.679698 9.679698 0 0 1-2.202566-19.069585 154.778566 154.778566 0 0 1 31.744-3.980075 10.085434 10.085434 0 0 1 9.853585 9.467169 9.660377 9.660377 0 0 1-9.46717 9.853585c-9.351245 0.193208-18.663849 1.352453-27.725283 3.477736a9.892226 9.892226 0 0 1-2.202566 0.25117z" fill="#FFFFFF" opacity=".3" /><path d="M820.610415 277.813132c0 102.786415-83.272453 186.252075-186.252075 186.252076-61.826415 0-116.504151-30.140377-150.50868-76.510189a184.764377 184.764377 0 0 0 128.483019 51.586415c102.979623 0 186.252075-83.46566 186.252076-186.252076 0-41.539623-13.717736-79.987925-36.516227-110.901132a185.86566 185.86566 0 0 1 58.541887 135.824906z" fill="#4242E5" /><path d="M634.35834 277.75517m-113.14234 0a113.14234 113.14234 0 1 0 226.284679 0 113.14234 113.14234 0 1 0-226.284679 0Z" fill="#F9B938" /><path d="M547.743396 281.889811h-0.193207a6.762264 6.762264 0 0 1-6.569057-6.974792 92.874868 92.874868 0 0 1 38.293736-72.646038 6.762264 6.762264 0 0 1 7.998792 10.896906A79.466264 79.466264 0 0 0 554.50566 275.320755a6.762264 6.762264 0 0 1-6.762264 6.569056zM608.468528 194.753208a6.742943 6.742943 0 0 1 5.062038-8.114717 91.580377 91.580377 0 0 1 18.412679-2.29917c4.482415-0.115925 6.839547 2.878792 6.936151 6.588377a6.762264 6.762264 0 0 1-6.588377 6.91683 81.784755 81.784755 0 0 0-15.746415 1.970717 6.762264 6.762264 0 0 1-8.076076-5.081358z" fill="#FFFFFF" opacity=".3" /><path d="M747.577962 277.813132c0 62.406038-50.620377 113.026415-113.219622 113.026415a112.64 112.64 0 0 1-94.864906-51.586415 112.64 112.64 0 0 0 78.828679 32.26566c62.599245 0 113.219623-50.813585 113.219623-113.219622 0-22.605283-6.569057-43.858113-18.16151-61.44a112.330868 112.330868 0 0 1 34.197736 80.953962z" fill="#E5A320" /><path d="M634.35834 277.75517m-51.103397 0a51.103396 51.103396 0 1 0 102.206793 0 51.103396 51.103396 0 1 0-102.206793 0Z" fill="#E4E3FF" /><path d="M673.772679 245.354264c-8.114717-5.216604-17.968302-8.501132-28.401509-8.501132-28.208302 0-51.2 22.798491-51.2 51.006793 0 12.172075 4.443774 23.571321 11.592453 32.26566-13.524528-9.080755-22.412075-24.730566-22.412076-42.312453 0-28.208302 22.798491-51.2 51.006793-51.2 15.843019 0 29.94717 7.341887 39.414339 18.741132z" fill="#A2A2F9" /><path d="M283.358189 309.653736m-156.111698 0a156.111698 156.111698 0 1 0 312.223396 0 156.111698 156.111698 0 1 0-312.223396 0Z" fill="#5E5EEF" /><path d="M163.414943 315.353358h-0.173886a8.114717 8.114717 0 0 1-7.92151-8.249962 127.516981 127.516981 0 0 1 61.749132-107.036981 8.114717 8.114717 0 0 1 8.385208 13.852981 111.442113 111.442113 0 0 0-53.943547 93.512453 8.114717 8.114717 0 0 1-8.114717 7.921509zM255.922717 200.935849a8.114717 8.114717 0 0 1-1.854792-15.958943c8.69434-2.028679 17.639849-3.149283 26.604679-3.342491a8.462491 8.462491 0 0 1 8.249962 7.92151 8.114717 8.114717 0 0 1-7.921509 8.269283c-7.844226 0.154566-15.649811 1.139925-23.242868 2.917434a8.307925 8.307925 0 0 1-1.835472 0.193207z" fill="#FFFFFF" opacity=".3" /><path d="M439.411925 309.711698a156.053736 156.053736 0 0 1-282.179623 91.966793 154.817208 154.817208 0 0 0 107.655245 43.201207 156.053736 156.053736 0 0 0 156.073057-156.053736 156.304906 156.304906 0 0 0-30.604076-92.93283 155.744604 155.744604 0 0 1 49.074717 113.799245z" fill="#4242E5" /><path d="M283.358189 309.653736m-94.806944 0a94.806943 94.806943 0 1 0 189.613887 0 94.806943 94.806943 0 1 0-189.613887 0Z" fill="#F9B938" /><path d="M210.789434 313.112151h-0.193208a5.660981 5.660981 0 0 1-5.487094-5.834868 77.824 77.824 0 0 1 32.072453-60.860377 5.680302 5.680302 0 0 1 6.704302 9.138717 66.579321 66.579321 0 0 0-27.435472 52.069434 5.660981 5.660981 0 0 1-5.680302 5.487094zM267.167396 244.48483a5.660981 5.660981 0 0 1-1.255849-11.167396c4.965434-1.159245 10.182038-1.79683 15.417962-1.932076 3.748226-0.096604 5.738264 2.415094 5.796227 5.525736a5.660981 5.660981 0 0 1-5.506415 5.796227 68.530717 68.530717 0 0 0-13.176755 1.642264 5.023396 5.023396 0 0 1-1.27517 0.135245z" fill="#FFFFFF" opacity=".3" /><path d="M378.223094 309.711698a94.768302 94.768302 0 0 1-94.864905 94.71034 94.401208 94.401208 0 0 1-79.504906-43.239849c17.002264 16.673811 40.476981 27.049057 66.076981 27.049056a94.903547 94.903547 0 0 0 79.640151-146.354717 94.130717 94.130717 0 0 1 28.652679 67.815849z" fill="#E5A320" /><path d="M283.358189 309.653736m-42.814793 0a42.814792 42.814792 0 1 0 85.629585 0 42.814792 42.814792 0 1 0-85.629585 0Z" fill="#E4E3FF" /><path d="M316.377358 282.508075a44.225208 44.225208 0 0 0-23.803169-7.129358c-23.629283 0-42.892075 19.108226-42.892076 42.737509 0 10.201358 3.709585 19.765132 9.699019 27.049057a42.679547 42.679547 0 0 1-18.779774-35.453585c0-23.648604 19.127547-42.892075 42.756831-42.892075 13.273358 0 25.07834 6.124679 33.019169 15.688452z" fill="#A2A2F9" /><path d="M700.435321 574.406038v136.694339c0 14.548528-11.78566 26.334189-26.334189 26.334189H274.644528c-14.529208 0-26.314868-11.78566-26.314868-26.334189v-136.675019c0-14.548528 11.78566-26.334189 26.314868-26.334188H674.101132c14.548528 0 26.334189 11.78566 26.334189 26.334188z" fill="#E4E3FF" /><path d="M699.469283 568.281358a19.030943 19.030943 0 0 0-4.636981-0.579622h-399.553208c-14.490566 0-26.276226 11.78566-26.276226 26.276226v136.790944c0 2.125283 0.193208 4.250566 0.966038 6.182641-12.365283-2.125283-21.639245-12.944906-21.639246-25.889811v-136.597736c0-14.490566 11.78566-26.276226 26.276227-26.276226h399.553207c12.365283 0 22.798491 8.501132 25.310189 20.093584z" fill="#D0D0F7" /><path d="M193.400755 763.478943a9.46717 9.46717 0 0 1-9.505812-9.48649v-108.988378a9.46717 9.46717 0 0 1 18.972982 0v108.969057a9.46717 9.46717 0 0 1-9.46717 9.505811z" fill="#FFFFFF" opacity=".2" /><path d="M193.400755 614.940981a9.46717 9.46717 0 0 1-9.505812-9.48649v-10.182038a9.46717 9.46717 0 0 1 18.972982 0v10.182038a9.46717 9.46717 0 0 1-9.46717 9.467169z" fill="#FFFFFF" opacity=".2" /><path d="M62.483321 579.294189a3.670943 3.670943 0 0 1-3.670944-3.670944v-21.832453a3.670943 3.670943 0 0 1 7.341887 0v21.832453a3.670943 3.670943 0 0 1-3.670943 3.670944zM62.483321 542.140377a3.670943 3.670943 0 0 1-3.670944-3.670943v-3.941434a3.670943 3.670943 0 0 1 7.341887 0v3.941434a3.670943 3.670943 0 0 1-3.670943 3.670943z" fill="#FFFFFF" opacity=".2" /><path d="M950.542491 641.217208a6.221283 6.221283 0 0 1-6.221283-6.221283v-71.370868a6.221283 6.221283 0 0 1 12.423245 0v71.370868a6.221283 6.221283 0 0 1-6.201962 6.221283z" fill="#FFFFFF" opacity=".2" /><path d="M950.542491 543.917887a6.221283 6.221283 0 0 1-6.221283-6.201962v-6.665661a6.221283 6.221283 0 0 1 12.423245 0v6.665661a6.221283 6.221283 0 0 1-6.201962 6.201962z" fill="#FFFFFF" opacity=".2" /><path d="M626.823245 857.513057v38.544905a36.477585 36.477585 0 0 1-36.477585 36.496906H358.4a36.477585 36.477585 0 0 1-36.477585-36.496906v-38.544905z" fill="#F9B938" /><path d="M381.584906 876.833811c-19.70717 0-35.685434 15.978264-35.685434 35.685434v2.956076c0 5.603019 1.352453 11.01283 3.670943 15.843019-15.843019-3.864151-27.628679-18.161509-27.628679-35.163774v-38.641509h304.881509v19.320754z" fill="#E5A320" /><path d="M392.076075 647.303245c0 28.787925-23.378113 52.166038-52.359245 52.166038a52.359245 52.359245 0 0 1-52.359245-52.166038c0-28.981132 23.571321-52.359245 52.359245-52.359245 28.981132 0 52.359245 23.378113 52.359245 52.359245z" fill="#FC6559" /><path d="M392.076075 647.303245c0 28.787925-23.378113 52.166038-52.359245 52.166038-18.741132 0-35.356981-10.046792-44.630943-24.923774 9.273962 8.307925 21.25283 13.138113 34.584151 13.138114 28.981132 0 52.359245-23.184906 52.359245-52.166038 0-10.24-2.898113-19.70717-7.921509-27.628679 11.01283 9.46717 17.968302 23.571321 17.968301 39.414339z" fill="#F05543" /><path d="M486.496604 599.600302v86.325132a19.320755 19.320755 0 0 1-38.66083 0v-86.325132a19.320755 19.320755 0 0 1 38.66083 0zM548.245736 599.600302v86.325132a19.320755 19.320755 0 0 1-38.66083 0v-86.325132a19.320755 19.320755 0 1 1 38.66083 0zM609.994868 599.600302v86.325132a19.320755 19.320755 0 0 1-38.66083 0v-86.325132a19.320755 19.320755 0 0 1 38.66083 0zM671.763321 599.600302v86.325132a19.320755 19.320755 0 0 1-38.66083 0v-86.325132a19.320755 19.320755 0 0 1 38.66083 0z" fill="#FC6559" /><path d="M486.554566 599.580981v86.363774c0 10.626415-8.69434 19.320755-19.320755 19.320754a18.741132 18.741132 0 0 1-16.422641-9.273962c2.511698 1.352453 5.216604 1.932075 8.307924 1.932076 10.626415 0 19.320755-8.501132 19.320755-19.320755v-86.170566c0-3.670943-0.966038-7.341887-2.898113-10.24 6.569057 3.091321 11.01283 9.660377 11.01283 17.388679zM548.187774 599.580981v86.363774c0 10.626415-8.501132 19.320755-19.320755 19.320754-6.955472 0-13.138113-3.670943-16.422642-9.273962a19.262792 19.262792 0 0 0 27.62868-17.388679v-86.170566c0-3.670943-0.966038-7.341887-2.898114-10.24 6.569057 3.091321 11.01283 9.660377 11.012831 17.388679zM610.014189 599.580981v86.363774c0 10.626415-8.69434 19.320755-19.320755 19.320754-6.955472 0-13.138113-3.670943-16.422642-9.273962a19.262792 19.262792 0 0 0 27.62868-17.388679v-86.170566c0-3.670943-0.966038-7.341887-2.898114-10.24 6.569057 3.091321 11.01283 9.660377 11.012831 17.388679zM671.840604 599.580981v86.363774c0 10.626415-8.69434 19.320755-19.320755 19.320754-7.148679 0-13.331321-3.670943-16.615849-9.273962 2.511698 1.352453 5.409811 1.932075 8.307925 1.932076 10.819623 0 19.513962-8.501132 19.513962-19.320755v-86.170566c0-3.670943-0.966038-7.341887-2.898113-10.24 6.569057 3.091321 11.01283 9.660377 11.01283 17.388679z" fill="#F05543" /></svg>