<?xml version="1.0" standalone="no"?><!DOCTYPE svg PUBLIC "-//W3C//DTD SVG 1.1//EN" "http://www.w3.org/Graphics/SVG/1.1/DTD/svg11.dtd"><svg class="icon" width="200px" height="200.00px" viewBox="0 0 1024 1024" version="1.1" xmlns="http://www.w3.org/2000/svg"><path d="M975.698113 207.311698v609.376604a159.009811 159.009811 0 0 1-159.009811 159.009811H207.311698a159.009811 159.009811 0 0 1-159.009811-159.009811V207.311698a159.009811 159.009811 0 0 1 159.009811-159.009811h609.376604a159.009811 159.009811 0 0 1 159.009811 159.009811z" fill="#7979F7" /><path d="M109.142943 649.235321a14.490566 14.490566 0 0 1-14.490566-14.490566v-165.675472a14.490566 14.490566 0 0 1 28.981132 0v165.675472a14.490566 14.490566 0 0 1-14.490566 14.490566zM109.142943 415.029132a14.490566 14.490566 0 0 1-14.490566-14.490566v-14.220075a14.490566 14.490566 0 0 1 28.981132 0v14.220075a14.490566 14.490566 0 0 1-14.490566 14.490566z" fill="#FFFFFF" opacity=".4" /><path d="M505.701434 120.754717h-17.118189a14.490566 14.490566 0 0 1 0-28.981132h17.118189a14.490566 14.490566 0 0 1 0 28.981132zM747.887094 120.754717h-165.791396a14.490566 14.490566 0 0 1 0-28.981132h165.772076a14.490566 14.490566 0 0 1 0 28.981132z" fill="#FFFFFF" opacity=".3" /><path d="M975.698113 207.311698v609.376604a159.009811 159.009811 0 0 1-159.009811 159.009811H207.311698c-58.928302 0-110.128302-31.879245-137.756981-79.408302a159.396226 159.396226 0 0 0 89.841509 27.62868h609.376604c87.909434 0 159.009811-71.100377 159.009812-159.009812V155.532075c0-28.981132-7.728302-56.223396-21.252831-79.601509a159.415547 159.415547 0 0 1 69.168302 131.381132z" fill="#5E5EEF" /><path d="M859.773585 666.12166v-443.990943A57.904302 57.904302 0 0 0 801.869283 164.226415H222.130717A57.904302 57.904302 0 0 0 164.226415 222.150038v443.990943a57.904302 57.904302 0 0 0 57.904302 57.904302h579.738566a57.904302 57.904302 0 0 0 57.904302-57.923623z" fill="#E4E3FF" /><path d="M854.556981 198.230943c-5.023396-1.352453-10.24-2.125283-15.649811-2.125283h-579.622642c-32.072453 0-57.962264 25.889811-57.962264 57.769057v443.990943c0 8.501132 1.932075 16.615849 5.216604 23.957736a57.672453 57.672453 0 0 1-42.312453-55.643773V222.188679c0-32.072453 25.889811-57.962264 57.962264-57.962264h579.622642c23.571321 0 43.664906 13.910943 52.74566 34.004528z" fill="#C2C2EF" /><path d="M791.204226 857.416453H232.815094a14.490566 14.490566 0 0 1 0-28.981132H791.184906a14.490566 14.490566 0 0 1 0 28.981132z" fill="#474646" /><path d="M380.618868 855.387774l-46.060679 33.637434a15.456604 15.456604 0 0 1-24.595321-12.481208v-67.216906a15.456604 15.456604 0 0 1 24.576-12.500528L380.618868 830.406038a15.456604 15.456604 0 0 1 0 24.981736z" fill="#474646" /><path d="M674.506868 618.901736c-7.245283 8.984151-17.968302 14.220075-29.483472 14.220075h-266.046792c-11.534491 0-22.238189-5.235925-29.483472-14.220075a38.506264 38.506264 0 0 1-7.245283-32.845283 174.234566 174.234566 0 0 1 169.829434-133.603019 174.099321 174.099321 0 0 1 169.674868 133.487094 38.680151 38.680151 0 0 1-7.245283 32.961208z" fill="#F9B938" /><path d="M399.321358 555.278491a10.046792 10.046792 0 0 1-2.82083-13.930265 131.439094 131.439094 0 0 1 49.866868-44.534339 10.085434 10.085434 0 0 1 9.119396 17.92966 111.306868 111.306868 0 0 0-42.235169 37.694793 10.046792 10.046792 0 0 1-13.930265 2.840151zM480.449208 494.939774a10.046792 10.046792 0 0 1 8.732981-11.206038 133.12 133.12 0 0 1 13.756377-0.966038h0.193208a10.046792 10.046792 0 0 1 0.193207 20.093585 106.99834 106.99834 0 0 0-11.669736 0.811472 10.046792 10.046792 0 0 1-11.206037-8.732981z" fill="#FFFFFF" opacity=".4" /><path d="M674.506868 618.901736c-7.245283 8.984151-17.968302 14.220075-29.483472 14.220075h-266.046792a37.752755 37.752755 0 0 1-37.675472-39.800754c5.235925 2.666264 11.01283 4.134642 17.040906 4.134641h266.046792c11.51517 0 22.238189-5.216604 29.483472-14.200755a38.680151 38.680151 0 0 0 7.225962-32.961207 190.657208 190.657208 0 0 0-9.235321-28.015094 174.176604 174.176604 0 0 1 29.889208 63.661886 38.680151 38.680151 0 0 1-7.245283 32.961208z" fill="#ECB021" /><path d="M600.527698 334.364981a88.547019 88.547019 0 0 1-88.469736 88.450415c-48.784906 0-88.58566-39.665509-88.58566-88.450415s39.800755-88.58566 88.58566-88.58566a88.662943 88.662943 0 0 1 88.469736 88.58566z" fill="#F9B938" /><path d="M446.541283 326.40483a6.684981 6.684981 0 0 1-5.042717-7.998792 72.433509 72.433509 0 0 1 30.063094-44.089963 6.704302 6.704302 0 0 1 7.515774 11.090114 59.063547 59.063547 0 0 0-24.537359 35.936603 6.684981 6.684981 0 0 1-7.998792 5.062038zM489.703849 272.152151a6.723623 6.723623 0 0 1 4.86883-8.134038c3.690264-0.927396 7.496453-1.54566 11.283321-1.874113a6.704302 6.704302 0 1 1 1.159245 13.350642c-3.149283 0.270491-6.221283 0.77283-9.196679 1.54566a6.704302 6.704302 0 0 1-8.114717-4.888151z" fill="#FFFFFF" opacity=".4" /><path d="M600.527698 334.364981a88.547019 88.547019 0 0 1-88.469736 88.450415 88.778868 88.778868 0 0 1-84.972679-63.526641 88.006038 88.006038 0 0 0 64.338113 27.879849 88.547019 88.547019 0 0 0 88.469736-88.450415c0-8.71366-1.352453-17.292075-3.767547-25.194264a87.677585 87.677585 0 0 1 24.402113 60.860377z" fill="#ECB021" /><path d="M786.547925 649.235321a14.490566 14.490566 0 0 1-14.490567-14.490566v-165.675472a14.490566 14.490566 0 0 1 28.981133 0v165.675472a14.490566 14.490566 0 0 1-14.490566 14.490566zM786.547925 415.029132a14.490566 14.490566 0 0 1-14.490567-14.490566v-14.220075a14.490566 14.490566 0 0 1 28.981133 0v14.220075a14.490566 14.490566 0 0 1-14.490566 14.490566z" fill="#FFFFFF" opacity=".6" /></svg>