<?xml version="1.0" standalone="no"?><!DOCTYPE svg PUBLIC "-//W3C//DTD SVG 1.1//EN" "http://www.w3.org/Graphics/SVG/1.1/DTD/svg11.dtd"><svg class="icon" width="200px" height="200.00px" viewBox="0 0 1024 1024" version="1.1" xmlns="http://www.w3.org/2000/svg"><path d="M497.509434 740.390642h28.981132v117.77932h-28.981132zM975.698113 157.850566a47.722264 47.722264 0 0 1-47.722264 47.722264H96.024151a47.722264 47.722264 0 1 1 0-95.444528h831.951698a47.722264 47.722264 0 0 1 47.722264 47.722264z" fill="#474646" /><path d="M975.698113 157.850566c0 26.276226-21.446038 47.722264-47.722264 47.722264H96.024151c-22.605283 0-41.73283-15.843019-46.563019-37.095849 8.69434 8.114717 20.286792 13.331321 33.231698 13.331321h831.951698a47.702943 47.702943 0 0 0 46.563019-57.962264c8.887547 8.501132 14.490566 20.673208 14.490566 34.004528z" fill="#2D2C2C" /><path d="M904.868226 205.57283v427.181887a119.711396 119.711396 0 0 1-119.711396 119.730717H238.84317a119.711396 119.711396 0 0 1-119.711396-119.711396V205.57283z" fill="#5E5EEF" /><path d="M904.790943 205.57283v427.181887c0 44.437736-24.150943 83.079245-59.894339 103.559245a117.624755 117.624755 0 0 0 27.242264-75.737358V293.791396c0-33.347623-27.049057-60.396679-60.396679-60.396679H119.209057v-27.821887z" fill="#4242E5" /><path d="M196.414792 617.240151V340.798792a57.962264 57.962264 0 0 1 57.962265-57.962264h515.245886a57.962264 57.962264 0 0 1 57.962265 57.962264v276.422038a57.962264 57.962264 0 0 1-57.942944 57.962264l-515.284528 0.019321a57.962264 57.962264 0 0 1-57.942944-57.962264z" fill="#FFFFFF" /><path d="M827.507925 548.709434v68.588679c0 31.879245-25.889811 57.962264-57.962265 57.962264H254.45434c-31.49283 0-56.996226-25.116981-57.769057-56.223396 69.554717 18.161509 147.803774 28.401509 230.496604 28.40151 160.362264 0 303.915472-38.255094 400.326038-98.729057z" fill="#E4E3FF" /><path d="M160.323623 538.778566a14.490566 14.490566 0 0 1-14.490566-14.490566v-112.64a14.490566 14.490566 0 0 1 28.981132 0v112.64a14.490566 14.490566 0 0 1-14.490566 14.490566zM160.323623 372.697358a14.490566 14.490566 0 0 1-14.490566-14.490566v-19.127547a14.490566 14.490566 0 0 1 28.981132 0v19.127547a14.490566 14.490566 0 0 1-14.490566 14.490566z" fill="#FFFFFF" opacity=".4" /><path d="M485.62717 144.809057a14.490566 14.490566 0 0 1-14.490566 14.490566H232.873057a14.490566 14.490566 0 0 1 0-28.981132h238.263547a14.490566 14.490566 0 0 1 14.490566 14.490566zM193.961057 144.809057a14.490566 14.490566 0 0 1-14.490566 14.490566h-19.146868a14.490566 14.490566 0 0 1 0-28.981132h19.127547a14.490566 14.490566 0 0 1 14.490566 14.490566z" fill="#FFFFFF" opacity=".4" /><path d="M564.185358 861.43517c0 28.92317-23.281509 52.436528-52.185358 52.436528s-52.185358-23.513358-52.185358-52.436528c0-28.652679 23.281509-52.166038 52.185358-52.166038s52.185358 23.513358 52.185358 52.166038z" fill="#474646" /><path d="M537.696604 861.512453c0 14.239396-11.457208 25.812528-25.696604 25.812528a25.754566 25.754566 0 0 1 0-51.528453c14.239396 0 25.696604 11.592453 25.696604 25.696604z" fill="#FFFFFF" /><path d="M658.103547 473.60966c0 21.735849-4.830189 42.50566-13.331321 61.034265a145.098868 145.098868 0 0 1-49.42249 58.541886v0.135246a144.654491 144.654491 0 0 1-82.886038 25.812528c-80.432302 0-145.408-65.110943-145.408-145.523925s64.975698-145.65917 145.408-145.659169 145.639849 65.246189 145.639849 145.67849z" fill="#F9B938" /><path d="M404.151547 476.836226h-0.231849a7.052075 7.052075 0 0 1-6.781585-7.283924 114.649358 114.649358 0 0 1 48.823547-90.421132 7.013434 7.013434 0 1 1 8.114717 11.476528 100.680453 100.680453 0 0 0-42.892075 79.446944 7.032755 7.032755 0 0 1-7.032755 6.781584zM468.122566 371.692679a6.530415 6.530415 0 0 1 4.327849-8.134037c5.912151-1.816151 12.056151-3.110642 18.238793-3.864151 3.516377-0.598943 6.820226 2.105962 7.245283 5.680301a6.511094 6.511094 0 0 1-5.660982 7.245283c-5.448453 0.656906-10.819623 1.816151-16.016905 3.400453a6.549736 6.549736 0 0 1-8.134038-4.327849z" fill="#FFFFFF" opacity=".4" /><path d="M658.103547 473.571019a145.485283 145.485283 0 0 1-145.639849 145.523924 145.002264 145.002264 0 0 1-139.901585-106.167547 145.253434 145.253434 0 0 0 128.386415 77.012529 145.601208 145.601208 0 0 0 140.558491-183.701736 144.519245 144.519245 0 0 1 16.615849 67.33283z" fill="#ECB021" /><path d="M562.69766 492.389434l-59.681811 42.041962a23.03034 23.03034 0 0 1-36.284377-18.818415v-84.083924c0-18.663849 21.040302-29.560755 36.284377-18.837736l59.681811 42.061283a23.03034 23.03034 0 0 1 0 37.63683z" fill="#FFFFFF" /><path d="M487.539925 476.797585a5.274566 5.274566 0 0 1-5.255246-5.274566v-29.638038a5.274566 5.274566 0 0 1 10.529812 0v29.638038c0 2.898113-2.357132 5.274566-5.274566 5.274566z" fill="#FFFFFF" opacity=".2" /><path d="M562.562415 492.331472l-59.392 42.119245a23.242868 23.242868 0 0 1-36.245736-14.876981c7.264604 3.825509 16.229434 4.153962 23.822491-1.352453l59.720453-42.119245c7.94083-5.525736 11.051472-14.83834 9.331924-23.126944l2.762868 1.738868c13.099472 9.312604 13.099472 28.633358 0 37.61751z" fill="#D0D0F7" /></svg>