<?xml version="1.0" standalone="no"?><!DOCTYPE svg PUBLIC "-//W3C//DTD SVG 1.1//EN" "http://www.w3.org/Graphics/SVG/1.1/DTD/svg11.dtd"><svg class="icon" width="200px" height="200.00px" viewBox="0 0 1024 1024" version="1.1" xmlns="http://www.w3.org/2000/svg"><path d="M718.036528 115.731321v792.537358c0 37.289057-30.140377 67.429434-67.429434 67.429434h-440.126792c-37.289057 0-67.622642-30.140377-67.622642-67.429434V115.731321c0-37.289057 30.333585-67.429434 67.622642-67.429434h440.126792c37.289057 0 67.429434 30.140377 67.429434 67.429434z" fill="#474646" /><path d="M718.07517 115.731321v792.537358c0 37.289057-30.140377 67.429434-67.429434 67.429434h-440.32c-22.218868 0-41.926038-10.819623-54.098113-27.435471 11.206038 8.114717 24.923774 12.944906 39.607547 12.944905h440.32c37.289057 0 67.429434-30.140377 67.429434-67.429434V101.240755c0-14.876981-4.830189-28.594717-13.138113-39.800755 16.809057 11.978868 27.628679 31.879245 27.628679 54.291321z" fill="#2D2C2C" /><path d="M679.43366 122.88V823.836981a35.917283 35.917283 0 0 1-35.936603 35.936604H217.474415a35.917283 35.917283 0 0 1-35.936604-35.936604V122.88c0-19.842415 16.094189-35.917283 35.936604-35.917283h88.875472c8.114717 0 14.683774 6.569057 14.683773 14.683774v14.683773c0 14.683774 11.78566 26.469434 26.276227 26.469434h166.351698c14.490566 0 26.276226-11.78566 26.276226-26.469434v-14.683773c0-8.114717 6.588377-14.683774 14.703095-14.683774h88.875471c19.842415 0 35.936604 16.074868 35.936604 35.936604z" fill="#FFFFFF" /><path d="M480.410566 106.650566H429.113962a9.660377 9.660377 0 1 1 0-19.320755h51.296604a9.660377 9.660377 0 1 1 0 19.320755zM386.608302 106.650566h-5.989434a9.660377 9.660377 0 1 1 0-19.320755h5.989434a9.660377 9.660377 0 1 1 0 19.320755z" fill="#FFFFFF" opacity=".3" /><path d="M119.750038 181.170717v46.717585c0 8.114717 6.569057 14.683774 14.703094 14.683773h10.220679v-76.123773h-10.220679c-8.114717 0-14.703094 6.588377-14.703094 14.722415z" fill="#474646" /><path d="M134.936151 166.467623h9.73766v76.123773h-9.73766z" fill="#2D2C2C" /><path d="M119.750038 291.975245v46.717585c0 8.114717 6.569057 14.683774 14.703094 14.683774h10.220679v-76.104453h-10.220679c-8.114717 0-14.703094 6.569057-14.703094 14.703094z" fill="#474646" /><path d="M134.936151 277.272151h9.73766v76.123774h-9.73766zM500.156377 915.282113a15.785057 15.785057 0 0 1-15.785056 15.765736h-107.732529a15.785057 15.785057 0 1 1 0-31.550792h107.732529c8.71366 0 15.785057 7.071396 15.785056 15.785056z" fill="#2D2C2C" /><path d="M607.908226 603.850868v47.62566c0 14.548528-11.824302 26.392151-26.37283 26.392151H276.73117a26.392151 26.392151 0 0 1-26.37283-26.392151v-47.62566c0-24.691925 8.056755-47.297208 21.77449-65.613283v-0.115925a110.031698 110.031698 0 0 1 72.124378-43.220528c0.193208 0 0.405736-0.115925 0.618264-0.115924 1.990038-0.193208 28.478792-0.405736 59.875019-0.405736 19.262792-0.115925 40.399698-0.115925 58.831698 0 26.778566 0 48.031396 0.193208 49.808905 0.405736 2.724226 0.425057 5.448453 0.850113 8.056755 1.468377a110.379472 110.379472 0 0 1 64.685887 41.868075 109.857811 109.857811 0 0 1 21.77449 65.729208z" fill="#7979F7" /><path d="M281.928453 609.724377h-0.193208a7.863547 7.863547 0 0 1-7.670339-8.056754c0.463698-18.084226 6.298566-35.144453 16.924981-49.325887a7.844226 7.844226 0 1 1 12.55849 9.409207 69.689962 69.689962 0 0 0-13.775698 40.322415 7.844226 7.844226 0 0 1-7.844226 7.651019zM311.257358 541.985811a7.863547 7.863547 0 0 1 2.318491-10.858264c5.487094-3.535698 11.360604-6.433811 17.446642-8.655698a7.844226 7.844226 0 1 1 5.351849 14.761057 71.15834 71.15834 0 0 0-14.258717 7.090717 7.844226 7.844226 0 0 1-10.858265-2.318491z" fill="#FFFFFF" opacity=".3" /><path d="M521.46717 496.253585l-39.047245 66.791849a4.59834 4.59834 0 0 1-7.341887 0.830792l-40.921359-38.313056-5.216604-4.907472 5.216604-3.980075 29.42551-22.296151c26.778566 0 48.031396 0.193208 49.808905 0.405736 2.724226 0.425057 5.448453 0.850113 8.056755 1.468377z" fill="#5E5EEF" /><path d="M439.392604 520.655698l-5.216604 4.907472-40.844075 38.313056a4.59834 4.59834 0 0 1-7.322567-0.830792l-41.75215-68.144302c0.193208 0 0.405736-0.115925 0.618264-0.115924 1.990038-0.193208 28.478792-0.405736 59.875019-0.405736l29.406188 22.296151z" fill="#5E5EEF" /><path d="M473.358491 468.451019v34.545509a40.071245 40.071245 0 0 1-80.142491 0v-34.545509c12.365283 8.675019 24.131623 13.852981 40.071245 13.852981 15.920302 0 27.686642-5.177962 40.071246-13.852981z" fill="#F7C9A9" /><path d="M607.908226 603.850868v47.62566c0 14.548528-11.824302 26.392151-26.37283 26.392151H276.73117a26.411472 26.411472 0 0 1-24.904453-17.697811c2.704906 0.946717 5.660981 1.468377 8.69434 1.468377h304.784905c14.548528 0 26.37283-11.824302 26.37283-26.37283v-47.62566a109.162264 109.162264 0 0 0-21.755169-65.729208c-0.966038-1.255849-1.777509-2.415094-2.840151-3.574339a109.857811 109.857811 0 0 1 40.824754 85.51366z" fill="#5E5EEF" /><path d="M447.565283 555.394415l11.824302 77.476227a8.69434 8.69434 0 0 1-1.893434 6.897509l-16.63517 19.784453a8.71366 8.71366 0 0 1-13.408604 0l-16.519245-19.784453a8.810264 8.810264 0 0 1-1.893434-6.91683l11.824302-77.456906-9.100075-9.100075-4.830189-4.830189 26.083019-25.947774 1.255849-1.255849 27.203622 27.222944-4.907471 4.907471z" fill="#474646" /><path d="M421.231094 616.525283a2.608302 2.608302 0 0 1-2.588981-2.994717l4.057359-26.662641a2.608302 2.608302 0 1 1 5.177962 0.79215l-4.057359 26.662642a2.608302 2.608302 0 0 1-2.588981 2.221887zM426.950038 579.139623a2.608302 2.608302 0 0 1-2.588981-3.014038l0.579622-3.864151a2.608302 2.608302 0 1 1 5.177963 0.792151l-0.579623 3.864151a2.627623 2.627623 0 0 1-2.588981 2.221887z" fill="#FFFFFF" opacity=".4" /><path d="M435.528453 515.516377l-1.352453 0.946717-1.159245-0.946717 1.255849-1.255849z" fill="#F05543" /><path d="M447.565283 555.394415l11.824302 77.476227a8.69434 8.69434 0 0 1-1.893434 6.897509l-16.63517 19.784453a8.617057 8.617057 0 0 1-10.471849 2.29917 8.655698 8.655698 0 0 0 2.936755-2.318491l16.63517-19.765132a8.69434 8.69434 0 0 0 1.893434-6.91683l-11.476529-75.119095a4.675623 4.675623 0 0 1 1.313812-4.018717l4.926792-4.926792a8.307925 8.307925 0 0 0-0.193208-11.920906l-8.887547-8.346566a4.946113 4.946113 0 0 0-6.762264 0l-19.011622 17.775095-4.830189-4.830189 23.571321-23.436076 2.511698-2.511698 1.159245 0.946717 1.352453-0.946717 25.947773 25.967095-4.907471 4.907471z" fill="#2D2C2C" /><path d="M476.720302 480.700377l41.655547 14.954265-35.936604 60.802415a4.636981 4.636981 0 0 1-7.361207 0.792151l-46.099321-43.23985 42.892075-32.53615a4.636981 4.636981 0 0 1 4.830189-0.772831z" fill="#D0D0F7" /><path d="M391.68966 480.700377l-42.988679 13.968906 37.269736 61.787774a4.636981 4.636981 0 0 0 7.341887 0.792151l46.118641-43.23985-42.892075-32.53615a4.636981 4.636981 0 0 0-4.84951-0.772831z" fill="#D0D0F7" /><path d="M518.414491 495.635321L482.439245 556.437736a4.636981 4.636981 0 0 1-7.341887 0.850113l-40.921358-38.313057-5.216604-4.926792 5.216604-3.980075 2.936755-2.183246 37.984603 35.58883a4.636981 4.636981 0 0 0 7.341887-0.734188l29.309585-49.519095z" fill="#C2C2EF" /><path d="M439.392604 514.048l-5.216604 4.926792-40.844075 38.313057a4.636981 4.636981 0 0 1-7.322567-0.850113l-37.250415-61.749132 6.89751-2.318491 30.352905 50.369208a4.636981 4.636981 0 0 0 7.341887 0.734188l37.86868-35.58883 2.936754 2.183246z" fill="#C2C2EF" /><path d="M542.21766 299.935396v25.387472h-55.759698v-81.14717a55.759698 55.759698 0 0 1 55.759698 55.759698zM322.366792 299.935396v47.567698h55.759699v-103.327396a55.759698 55.759698 0 0 0-55.759699 55.759698z" fill="#E4E3FF" /><path d="M376.039849 372.446189a35.608151 35.608151 0 1 1-71.235623 0 35.627472 35.627472 0 0 1 71.235623 0zM559.799547 372.446189a35.608151 35.608151 0 1 1-71.254943 0 35.627472 35.627472 0 0 1 71.254943 0z" fill="#F7C9A9" /><path d="M376.039849 372.446189a35.608151 35.608151 0 1 1-71.235623 0c0-1.217208 0.096604-2.318491 0.193208-3.555019 1.777509 18.006943 16.963623 31.975849 35.434264 31.975849s33.637434-13.968906 35.434264-31.975849c0.077283 1.217208 0.193208 2.337811 0.193208 3.555019zM559.760906 372.446189a35.608151 35.608151 0 1 1-71.235623 0c0-1.217208 0.096604-2.318491 0.193208-3.555019a35.530868 35.530868 0 0 0 35.434264 31.975849 35.550189 35.550189 0 0 0 35.414943-31.975849c0.096604 1.217208 0.193208 2.337811 0.193208 3.555019z" fill="#F0B68E" /><path d="M432.301887 227.946264a92.778264 92.778264 0 0 0-92.778264 92.778264v71.641359a92.778264 92.778264 0 0 0 94.381886 92.758943c50.852226-0.869434 91.155321-43.413736 91.155321-94.285283v-70.134339a92.778264 92.778264 0 0 0-92.758943-92.758944z" fill="#F7C9A9" /><path d="M391.515774 369.683321a11.01283 11.01283 0 1 1-22.044982 0 11.01283 11.01283 0 0 1 22.025661 0zM495.09434 369.683321a11.01283 11.01283 0 1 1-22.044982 0 11.01283 11.01283 0 0 1 22.025661 0z" fill="#2D2C2C" /><path d="M502.668075 350.575094h-37.153811a4.830189 4.830189 0 0 1 0-9.660377h37.153811a4.830189 4.830189 0 0 1 0 9.660377zM399.070189 350.575094h-37.153812a4.830189 4.830189 0 0 1 0-9.660377h37.153812a4.830189 4.830189 0 0 1 0 9.660377z" fill="#E4E3FF" /><path d="M523.51517 409.329509a92.797585 92.797585 0 0 1-182.445887 0c13.273358 37.578868 49.152 64.531321 91.232604 64.531321s77.939925-26.952453 91.213283-64.531321z" fill="#F0B68E" /><path d="M322.366792 303.471094v51.084076a8.578415 8.578415 0 1 0 17.156831 0v-51.084076zM525.06083 303.471094v51.084076a8.578415 8.578415 0 0 0 17.15683 0v-51.084076z" fill="#E4E3FF" /><path d="M470.653585 422.583547a38.351698 38.351698 0 0 1-38.351698 36.61283 38.313057 38.313057 0 0 1-38.371019-36.61283z" fill="#E8AA80" /><path d="M512.811472 464.528906h-36.806038a43.703547 43.703547 0 0 1-43.703547-43.703548h36.806038a43.703547 43.703547 0 0 1 43.703547 43.703548z" fill="#E4E3FF" /><path d="M351.772981 464.528906h36.806038a43.703547 43.703547 0 0 0 43.722868-43.703548h-36.825359a43.703547 43.703547 0 0 0-43.703547 43.703548z" fill="#E4E3FF" /><path d="M512.811472 464.548226h-36.806038a43.703547 43.703547 0 0 1-43.722868-43.722868h0.347774a43.684226 43.684226 0 0 0 43.375094 38.371019h36.477585c0.231849 1.758189 0.328453 3.535698 0.328453 5.351849z" fill="#C2C2EF" /><path d="M432.282566 420.825358a43.703547 43.703547 0 0 1-43.703547 43.722868h-36.825359c0-1.816151 0.115925-3.59366 0.347774-5.351849h36.477585c22.334792 0 40.766792-16.751094 43.375094-38.371019z" fill="#C2C2EF" /><path d="M449.207547 407.474717a16.88634 16.88634 0 1 1-33.077132-4.946113 16.867019 16.867019 0 0 0 32.323623 0 16.88634 16.88634 0 0 1 0.734188 4.946113zM386.318491 299.355774c17.079547-2.743547 34.661434-2.666264 45.983396-2.975397 13.234717-0.038642 32.130415 0.734189 45.964075 2.975397-13.717736 2.221887-32.613434 2.994717-45.983396 2.975396-11.167396-0.309132-28.749283-0.193208-45.964075-2.975396zM371.924528 283.609358c22.895094-2.801509 47.471094-2.704906 60.377359-2.975396 15.263396 0.309132 37.888 0.193208 60.358038 2.975396-22.701887 2.801509-46.988075 2.704906-60.358038 2.975397-14.258717-0.309132-37.675472-0.193208-60.377359-2.975397z" fill="#E8AA80" /><path d="M534.450717 385.951396a2.898113 2.898113 0 0 1-0.193208-4.096c4.096-4.559698 0.985358-10.800302 0.966038-10.858264a2.917434 2.917434 0 0 1 1.255849-3.902792 2.956075 2.956075 0 0 1 3.902793 1.275169c0.193208 0.386415 4.946113 9.892226-1.835472 17.369359a2.898113 2.898113 0 0 1-4.096 0.193207zM325.11034 385.738868c-6.762264-7.477132-2.028679-16.982943-1.835472-17.388679 0.753509-1.410415 2.531019-1.932075 3.922113-1.255849a2.898113 2.898113 0 0 1 1.255849 3.883471c-0.135245 0.270491-3.110642 6.375849 0.966038 10.877585a2.898113 2.898113 0 1 1-4.308528 3.883472z" fill="#F0B68E" /><path d="M536.691925 748.29283v44.78551a21.25283 21.25283 0 0 1-21.272151 21.25283H320.338113a21.25283 21.25283 0 0 1-21.272151-21.25283v-44.804831a21.25283 21.25283 0 0 1 21.25283-21.25283h195.100982a21.25283 21.25283 0 0 1 21.25283 21.25283z" fill="#FC6559" /><path d="M536.691925 748.29283v44.824151c0 11.78566-9.46717 21.25283-21.252831 21.25283h-195.139622c-9.853585 0-17.968302-6.569057-20.48-15.649811 1.932075 0.77283 4.057358 1.159245 6.375849 1.159245h195.139622c11.78566 0 21.25283-9.46717 21.252831-21.25283v-44.824151c0-1.932075-0.193208-3.864151-0.772831-5.603019 8.69434 2.511698 14.876981 10.626415 14.876982 20.093585z" fill="#F05543" /><path d="M718.036528 162.873962V517.796226c-13.138113-1.932075-26.276226-5.216604-38.641509-10.046792V173.113962c12.172075-4.830189 25.310189-8.307925 38.641509-10.24z" fill="#2D2C2C" /><path d="M679.395019 173.113962v334.635472c-5.603019-2.125283-11.01283-4.443774-16.229434-7.148679l-47.529057 18.741132a26.083019 26.083019 0 1 1-34.970566-31.106415l13.331321-49.65434c-21.832453-33.038491-31.879245-72.839245-28.787925-113.026415 5.409811-68.781887 51.779623-128.096604 114.185661-152.440755z" fill="#E4E3FF" /><path d="M903.322566 357.240755c-7.747623 75.776-69.844528 136.481811-145.678491 142.664453a159.106415 159.106415 0 0 1-93.222641-20.673208L608.603774 501.392906a6.955472 6.955472 0 0 1-9.312604-8.230642l15.688453-58.213434a159.396226 159.396226 0 0 1-30.44951-107.867773c6.086038-76.413585 67.352151-138.780981 143.669132-146.16151 101.395321-9.699019 185.653132 75.022491 175.123321 176.340528z" fill="#F9B938" /><path d="M603.599698 334.732075a6.91683 6.91683 0 0 1-6.298566-7.477132c4.752906-54.851623 41.133887-103.539925 92.68166-124.039245a6.936151 6.936151 0 0 1 5.12 12.867623c-46.736906 18.586566-79.698113 62.695849-84.006641 112.350188a6.91683 6.91683 0 0 1-7.496453 6.298566z" fill="#FFFFFF" opacity=".3" /><path d="M759.228377 207.698113a136.926189 136.926189 0 0 0-28.440151-0.27049 6.974792 6.974792 0 0 1-7.535094-6.221283 6.936151 6.936151 0 0 1 6.221283-7.554415 150.895094 150.895094 0 0 1 31.299623 0.289811 6.91683 6.91683 0 1 1-1.545661 13.737056z" fill="#FFFFFF" opacity=".3" /><path d="M903.361208 357.240755c-7.728302 75.776-69.844528 136.481811-145.678491 142.664453a159.087094 159.087094 0 0 1-93.203321-20.673208l-55.836981 22.160906a6.955472 6.955472 0 0 1-9.293283-8.307925l5.332528-19.745811 38.428982-15.263396c5.525736-2.202566 11.669736-1.680906 16.982943 0.985358a159.589434 159.589434 0 0 0 84.934038 16.210113c75.853283-6.182642 137.950189-66.907774 145.697811-142.664453a161.135094 161.135094 0 0 0-10.800302-77.32166 160.111094 160.111094 0 0 1 23.436076 101.974943z" fill="#E5A320" /><path d="M864.951547 340.47034c0 66.830491-54.117434 120.947925-120.851321 120.947924s-120.851321-54.117434-120.85132-120.947924a120.870642 120.870642 0 0 1 241.702641 0z" fill="#FFFFFF" /><path d="M864.990189 340.451019a120.947925 120.947925 0 0 1-120.889963 120.986566 120.368302 120.368302 0 0 1-92.082717-42.640906 120.233057 120.233057 0 0 0 71.332227 23.339472 120.812679 120.812679 0 0 0 120.774038-120.947925 120.291019 120.291019 0 0 0-28.691321-78.249056 120.735396 120.735396 0 0 1 49.557736 97.511849z" fill="#E4E3FF" /><path d="M813.017358 313.421283h-137.834264a4.830189 4.830189 0 0 1 0-9.660377h137.834264a4.830189 4.830189 0 0 1 0 9.660377zM813.017358 345.33917h-137.834264a4.830189 4.830189 0 0 1 0-9.660378h137.834264a4.830189 4.830189 0 0 1 0 9.660378zM743.424 377.295698h-68.240906a4.830189 4.830189 0 0 1 0-9.660377h68.240906a4.830189 4.830189 0 0 1 0 9.660377z" fill="#474646" /></svg>