<?xml version="1.0" standalone="no"?><!DOCTYPE svg PUBLIC "-//W3C//DTD SVG 1.1//EN" "http://www.w3.org/Graphics/SVG/1.1/DTD/svg11.dtd"><svg class="icon" width="200px" height="200.00px" viewBox="0 0 1024 1024" version="1.1" xmlns="http://www.w3.org/2000/svg"><path d="M975.698113 335.562868v406.180226a85.49434 85.49434 0 0 1-85.494339 85.49434H500.948528l-155.648 115.383547a13.968906 13.968906 0 0 1-22.296151-11.225358v-104.158189h-42.50566a85.49434 85.49434 0 0 1-85.49434-85.49434V335.562868c0-47.219925 38.255094-85.49434 109.104302-85.49434h609.724378c23.571321 0 61.865057 38.274415 61.865056 85.49434z" fill="#5E5EEF" /><path d="M639.111245 306.581736h-14.799698a15.417962 15.417962 0 0 1 0-30.816604h14.799698a15.417962 15.417962 0 0 1 0 30.816604zM844.896604 306.581736h-140.655095a15.417962 15.417962 0 0 1 0-30.816604h140.655095a15.417962 15.417962 0 0 1 0 30.816604z" fill="#FFFFFF" opacity=".3" /><path d="M237.162264 688.978113a15.417962 15.417962 0 0 1-15.398641-15.398641v-94.613736a15.417962 15.417962 0 0 1 30.816603 0v94.613736c0 8.501132-6.897509 15.398642-15.417962 15.398641zM237.162264 533.697208a15.417962 15.417962 0 0 1-15.398641-15.417963v-16.036226a15.417962 15.417962 0 0 1 30.816603 0v16.036226c0 8.501132-6.897509 15.417962-15.417962 15.417963z" fill="#FFFFFF" opacity=".3" /><path d="M975.698113 335.543547v406.218868a85.475019 85.475019 0 0 1-85.475019 85.475019H500.948528l-155.532075 115.480151a14.08483 14.08483 0 0 1-22.412076-11.302642V903.438491l135.535095-100.564529c4.579019-3.400453 10.143396-5.235925 15.843019-5.235924h380.502943a85.475019 85.475019 0 0 0 85.475019-85.475019V305.963472c0-17.871698-5.545057-34.526189-14.992906-48.301887a85.127245 85.127245 0 0 1 50.330566 77.881962z" fill="#4242E5" /><path d="M277.175547 693.209358V384.096604c0-28.614038 23.204226-51.837585 75.466868-51.837585h493.336151c23.320151 0.734189 47.529057 23.223547 47.529057 51.837585V693.228679a51.837585 51.837585 0 0 1-51.818265 51.837585H329.013132a51.837585 51.837585 0 0 1-51.837585-51.837585z" fill="#FFFFFF" /><path d="M893.507623 384.154566v309.016151a51.70234 51.70234 0 0 1-51.779623 51.779623h-512.77283a51.798943 51.798943 0 0 1-49.519095-36.168453c3.091321 0.618264 6.375849 0.830792 9.660378 0.830792h512.579622a51.876226 51.876226 0 0 0 51.779623-51.97283V348.585057c0-5.351849-0.830792-10.684377-2.279849-15.61117a52.069434 52.069434 0 0 1 42.331774 51.161358z" fill="#E4E3FF" /><path d="M718.480906 523.669736c0 73.438189-59.585208 133.023396-133.235925 133.023396a133.062038 133.062038 0 0 1-133.023396-133.023396 133.139321 133.139321 0 0 1 266.24 0z" fill="#5BC658" /><path d="M486.883019 528.287396h-0.309132a8.249962 8.249962 0 0 1-7.960151-8.559094 106.496 106.496 0 0 1 43.664906-82.499623 8.288604 8.288604 0 0 1 9.776301 13.331321 90.112 90.112 0 0 0-36.902641 69.747925 8.269283 8.269283 0 0 1-8.269283 7.979471zM556.360453 428.843472a8.307925 8.307925 0 0 1 6.39517-9.795623 108.640604 108.640604 0 0 1 19.958339-2.318491c4.405132 0.908075 8.346566 3.477736 8.462491 8.037434a8.249962 8.249962 0 0 1-8.037434 8.462491 94.826264 94.826264 0 0 0-16.963623 2.009359 8.307925 8.307925 0 0 1-9.814943-6.37585z" fill="#FFFFFF" opacity=".3" /><path d="M718.480906 523.669736c0 73.438189-59.585208 133.023396-133.235925 133.023396a133.158642 133.158642 0 0 1-108.389434-56.06883 132.733585 132.733585 0 0 0 82.209811 28.594717c73.670038 0 133.255245-59.585208 133.255246-133.023396 0-28.787925-9.235321-55.411925-24.633962-77.167095a132.791547 132.791547 0 0 1 50.794264 104.641208z" fill="#49A247" /><path d="M639.49766 541.966491l-58.329358 41.095245a22.508679 22.508679 0 0 1-35.472906-18.393359v-82.19049a22.508679 22.508679 0 0 1 35.472906-18.393359l58.329358 41.095246c12.713057 8.96483 12.713057 27.821887 0 36.786717z" fill="#FFFFFF" /><path d="M639.362415 541.908528l-58.039547 41.153208a22.721208 22.721208 0 0 1-35.434264-14.509887c7.090717 3.709585 15.86234 4.057358 23.281509-1.352453l58.368-41.153207c7.766943-5.409811 10.819623-14.509887 9.119396-22.605283l2.704906 1.680905c12.80966 9.119396 12.80966 28.015094 0 36.786717z" fill="#E4E3FF" /><path d="M461.167094 103.288755l54.117434 127.845434a39.16317 39.16317 0 0 1-11.824302 46.041358c-31.454189 25.020377-79.311698 71.795925-102.747773 106.070944a48.166642 48.166642 0 0 1-47.644981 20.151547c-40.863396-7.052075-107.635925-5.274566-147.417359-0.135246a39.182491 39.182491 0 0 1-41.307773-23.552l-54.117434-127.845434z" fill="#474646" /><path d="M461.167094 103.366038l54.059472 127.729509a39.027925 39.027925 0 0 1-11.727698 45.983396c-31.396226 25.09766-79.36966 71.950491-102.728453 106.148227a48.688302 48.688302 0 0 1-47.722264 20.209509c-40.805434-7.052075-107.616604-5.293887-147.494642-0.212528a39.646189 39.646189 0 0 1-28.42083-7.361208c4.888151 1.120604 10.24 1.54566 15.649812 0.966038 39.762113-5.274566 106.689208-6.820226 147.494641 0.212528a49.65434 49.65434 0 0 0 47.722264-20.190188c23.339472-34.197736 71.235623-81.263094 102.728453-106.148227a39.027925 39.027925 0 0 0 11.727698-45.983396l-49.847547-117.721358z" fill="#2D2C2C" /><path d="M478.671698 144.577208l5.409811 12.790339-150.354113 114.900528a27.957132 27.957132 0 0 1-13.485887 5.718944l-187.063547 27.937811-5.409811-12.790339 187.063547-27.937812c4.86883-0.77283 9.563774-2.743547 13.485887-5.718943z" fill="#2D2C2C" /><path d="M204.703396 383.149887a8.134038 8.134038 0 0 1-10.665056-4.308529l-7.090717-16.731773a8.134038 8.134038 0 0 1 14.992905-6.337208l7.071397 16.712453a8.134038 8.134038 0 0 1-4.308529 10.665057zM187.160151 341.706868a8.134038 8.134038 0 0 1-10.665057-4.308528l-2.56966-6.047397a8.134038 8.134038 0 0 1 14.992906-6.337207l2.550339 6.028075a8.134038 8.134038 0 0 1-4.308528 10.665057z" fill="#FFFFFF" opacity=".2" /><path d="M528.480604 83.117887l5.718943 13.524528-0.115924 0.038642a6.781585 6.781585 0 0 1-2.473057 7.68966l-203.215698 155.338868c-3.84483 3.014038-8.559094 5.023396-13.524528 5.718943l-252.715472 37.675472a7.206642 7.206642 0 0 1-7.786264-4.115321l-0.096604-0.25117-5.332528-12.597132a7.148679 7.148679 0 0 0 7.824905 4.250566l252.715472-37.675471c4.907472-0.850113 9.641057-2.840151 13.524528-5.718944l203.215698-155.338868c2.898113-2.318491 3.439094-5.796226 2.260529-8.539773z" fill="#1B1B1B" /><path d="M526.220075 91.65766L323.023698 246.919245a29.483472 29.483472 0 0 1-13.524528 5.738264L56.687094 290.429585c-7.457811 1.120604-11.51517-8.44317-5.506415-13.022189l203.061132-155.184302c3.960755-3.014038 8.617057-5.004075 13.543849-5.738264L520.69434 78.635472c7.457811-1.120604 11.51517 8.44317 5.525735 13.022188z" fill="#474646" /><path d="M84.045283 381.488302L50.485132 302.176604c-5.603019-13.254038 0.598943-28.594717 13.852981-34.236378l224.796981-95.174037a4.830189 4.830189 0 0 1 3.767548 8.887547L68.124981 276.866415a16.441962 16.441962 0 0 0-8.71366 21.542642L92.93283 377.720755a4.830189 4.830189 0 0 1-8.887547 3.767547z" fill="#F9B938" /><path d="M101.511245 467.523623l38.66083-16.36468a8.172679 8.172679 0 0 0 3.32317-12.481207l-31.299622-40.824755a19.533283 19.533283 0 0 0-0.888755-12.944906 20.325434 20.325434 0 0 0-26.604679-10.780981 20.306113 20.306113 0 0 0-10.665057 26.566038c1.777509 4.192604 4.86883 7.593057 8.675019 9.641057l7.535094 50.890868c0.811472 5.293887 6.375849 8.385208 11.264 6.298566z" fill="#F9B938" /><path d="M101.511245 467.523623l7.882868-3.342491a8.172679 8.172679 0 0 1-11.264-6.298566l-6.742943-45.539019a12.075472 12.075472 0 0 0-3.980076-7.535094 20.248151 20.248151 0 0 1 1.507019-31.879245 14.432604 14.432604 0 0 0-4.211924 1.197886 20.306113 20.306113 0 0 0-10.665057 26.566038c1.777509 4.192604 4.86883 7.593057 8.675019 9.641057l7.535094 50.890868c0.811472 5.293887 6.375849 8.385208 11.264 6.298566z" fill="#ECB021" /><path d="M318.058264 166.66083c3.168604 7.496453-8.44317 19.552604-25.735245 26.855849-17.504604 7.41917-34.217057 7.380528-37.404981-0.135245-3.168604-7.496453 8.44317-19.533283 25.928453-26.952453 17.311396-7.322566 34.023849-7.264604 37.211773 0.231849z" fill="#F9B938" /></svg>