<?xml version="1.0" standalone="no"?><!DOCTYPE svg PUBLIC "-//W3C//DTD SVG 1.1//EN" "http://www.w3.org/Graphics/SVG/1.1/DTD/svg11.dtd"><svg class="icon" width="200px" height="200.00px" viewBox="0 0 1024 1024" version="1.1" xmlns="http://www.w3.org/2000/svg"><path d="M975.698113 292.013887v520.559094a63.294792 63.294792 0 0 1-63.294792 63.294793h-297.539623l-22.991698 53.190037a37.38566 37.38566 0 0 1-34.429585 22.624604h-90.88483a37.656151 37.656151 0 0 1-34.584151-22.624604l-22.837132-53.190037H111.403472A63.256151 63.256151 0 0 1 48.301887 812.572981V292.013887a63.101585 63.101585 0 0 1 63.120905-63.101585h800.980529a63.140226 63.140226 0 0 1 63.294792 63.101585z" fill="#B75F25" /><path d="M511.961358 253.372377v501.972529a72.317585 72.317585 0 0 1-72.317584 72.317585H183.54717a52.74566 52.74566 0 0 1-52.745661-52.745661V233.800453a52.74566 52.74566 0 0 1 52.745661-52.745661h256.077283a72.317585 72.317585 0 0 1 72.317585 72.317585z" fill="#994F1D" /><path d="M893.082566 233.800453v541.116377a52.74566 52.74566 0 0 1-52.74566 52.745661H584.259623a72.317585 72.317585 0 0 1-72.298265-72.317585v-501.953208a72.317585 72.317585 0 0 1 72.298265-72.317585h256.077283a52.74566 52.74566 0 0 1 52.74566 52.745661z" fill="#994F1D" /><path d="M975.698113 292.187774v520.385207a63.294792 63.294792 0 0 1-63.294792 63.294793h-297.539623l-22.991698 53.170717a37.38566 37.38566 0 0 1-34.429585 22.643924h-90.88483a37.656151 37.656151 0 0 1-34.584151-22.643924l-22.837132-53.170717H111.403472A63.256151 63.256151 0 0 1 48.301887 812.572981v-34.970566a63.256151 63.256151 0 0 0 63.120905 63.294793h274.547925c14.104151 0 26.855849 8.423849 32.381585 21.388075l13.601811 31.801962a37.656151 37.656151 0 0 0 34.584151 22.624604h90.846189c14.973585 0 28.517434-8.887547 34.468226-22.624604l13.81434-31.840603a34.951245 34.951245 0 0 1 32.381585-21.349434h274.354717c0.714868 0 1.449057 0 2.163924-0.038642 15.147472-0.50234 28.131019-12.886943 28.208302-28.053736V292.013887a63.140226 63.140226 0 0 0-63.314113-63.120906h32.941887a63.294792 63.294792 0 0 1 63.294792 63.294793z" fill="#994F1D" /><path d="M511.961358 237.568v501.953208a72.317585 72.317585 0 0 1-72.317584 72.336905H183.54717a52.74566 52.74566 0 0 1-52.745661-52.74566V217.996075a52.74566 52.74566 0 0 1 52.745661-52.74566h256.077283a72.317585 72.317585 0 0 1 72.317585 72.317585z" fill="#E4E3FF" /><path d="M893.082566 217.996075V759.112453a52.74566 52.74566 0 0 1-52.74566 52.74566H584.259623a72.317585 72.317585 0 0 1-72.298265-72.317585V237.568a72.317585 72.317585 0 0 1 72.298265-72.317585h256.077283a52.74566 52.74566 0 0 1 52.74566 52.74566z" fill="#E4E3FF" /><path d="M512 687.239245a14.490566 14.490566 0 0 1-14.490566-14.490566V304.359849a14.490566 14.490566 0 0 1 28.981132 0V672.748679a14.490566 14.490566 0 0 1-14.490566 14.490566z" fill="#D0D0F7" /><path d="M91.754264 574.328755a13.795019 13.795019 0 0 1-13.814339-13.795019v-112.330868a13.795019 13.795019 0 0 1 27.609358 0v112.330868c0 7.612377-6.182642 13.795019-13.795019 13.795019zM91.754264 393.061434a13.795019 13.795019 0 0 1-13.814339-13.81434v-6.569056a13.795019 13.795019 0 0 1 27.609358 0v6.569056c0 7.631698-6.182642 13.81434-13.795019 13.81434zM182.890264 490.167547a13.795019 13.795019 0 0 1-13.795019-13.814339V364.003019a13.795019 13.795019 0 0 1 27.590038 0v112.330868c0 7.612377-6.182642 13.795019-13.795019 13.795019zM182.890264 329.418868a13.795019 13.795019 0 0 1-13.795019-13.81434v-23.184905a13.795019 13.795019 0 0 1 27.590038 0v23.184905c0 7.612377-6.182642 13.795019-13.795019 13.795019zM737.898264 224.77766c0 7.612377-6.182642 13.795019-13.814339 13.795019h-73.670038a13.795019 13.795019 0 0 1 0-27.590037h73.670038c7.631698 0 13.81434 6.182642 13.814339 13.795018zM615.791094 224.77766c0 7.612377-6.182642 13.795019-13.795019 13.795019h-23.184905a13.795019 13.795019 0 0 1 0-27.590037h23.184905c7.612377 0 13.795019 6.182642 13.795019 13.795018z" fill="#FFFFFF" opacity=".3" /><path d="M426.099925 540.729962H216.701585a14.490566 14.490566 0 0 1 0-28.981132h209.39834a14.490566 14.490566 0 0 1 0 28.981132zM426.099925 616.080906H216.701585a14.490566 14.490566 0 0 1 0-28.981132h209.39834a14.490566 14.490566 0 0 1 0 28.981132zM426.099925 691.470491H216.701585a14.490566 14.490566 0 0 1 0-28.981133h209.39834a14.490566 14.490566 0 0 1 0 28.981133z" fill="#D0D0F7" /><path d="M807.221132 540.729962H597.803472a14.490566 14.490566 0 0 1 0-28.981132H807.221132a14.490566 14.490566 0 0 1 0 28.981132zM807.221132 616.080906H597.803472a14.490566 14.490566 0 0 1 0-28.981132H807.221132a14.490566 14.490566 0 0 1 0 28.981132zM807.221132 691.470491H597.803472a14.490566 14.490566 0 0 1 0-28.981133H807.221132a14.490566 14.490566 0 0 1 0 28.981133z" fill="#D0D0F7" /><path d="M740.564528 338.480302L839.370868 136.790943l86.769509 42.524982-98.806339 201.670037z" fill="#F9B938" /><path d="M926.101736 179.335245l-8.926189 18.258113-89.918792 183.392604-86.711547-42.544302 11.109434-22.740528 21.929056 10.703698c23.706566 11.592453 52.301283 1.758189 63.893736-21.948377l57.633811-117.663396 8.984151-18.374038z" fill="#E5A320" /><path d="M830.560604 155.338868l9.003471-18.393359 86.788831 42.505661-9.022793 18.393358z" fill="#A2A2F9" /><path d="M895.285132 186.387321l8.926189-18.258113 22.064302 10.780981-8.926189 18.258113z" fill="#7979F7" /><path d="M926.121057 179.2l18.258113-37.308377a48.321208 48.321208 0 1 0-86.808151-42.467019l-18.258113 37.289056z" fill="#474646" /><path d="M944.398491 141.872302l-18.277434 37.327698-86.808151-42.48634 9.370566-19.127547 53.325283 26.083019a22.643925 22.643925 0 0 0 30.275622-10.375245l8.307925-16.982944c2.434415-4.984755 3.922113-10.162717 4.521056-15.340679a48.128 48.128 0 0 1-0.714867 40.902038z" fill="#2D2C2C" /><path d="M827.314717 380.928l-56.493887 51.315925-20.866415 19.050264a10.529811 10.529811 0 0 1-17.620528-8.636378l2.202566-28.092377 5.970113-76.123774z" fill="#F7C9A9" /><path d="M770.82083 432.243925l-20.866415 19.050264a10.529811 10.529811 0 0 1-17.620528-8.636378l2.202566-28.092377a36.168453 36.168453 0 0 1 36.284377 17.678491z" fill="#474646" /><path d="M811.896755 248.271698a5.931472 5.931472 0 0 1-2.704906-7.960151l12.79034-26.005736a5.931472 5.931472 0 0 1 10.665056 5.216604l-12.80966 26.005736a5.931472 5.931472 0 0 1-7.92151 2.724226z" fill="#FFFFFF" opacity=".4" /><path d="M835.854491 199.467472a5.931472 5.931472 0 0 1-2.724227-7.92151l4.115321-8.423849a5.931472 5.931472 0 0 1 10.665057 5.216604l-4.115321 8.404528a5.931472 5.931472 0 0 1-7.94083 2.724227z" fill="#FFFFFF" opacity=".4" /><path d="M399.166792 382.087245l-82.596226 57.962264c-18.779774 13.138113-44.592302-0.270491-44.592302-23.184905v-115.96317c0-22.933736 25.831849-36.36166 44.592302-23.184906l82.596226 58.000906a28.324226 28.324226 0 0 1 0 46.369811z" fill="#FC6559" /><path d="M399.244075 382.125887l-82.69283 57.962264c-18.741132 13.138113-44.630943-0.386415-44.630943-23.184906v-2.511698c9.273962 7.535094 22.991698 9.273962 34.197736 1.352453l82.499622-57.962264c7.341887-5.216604 11.399245-12.944906 11.978868-20.866415 14.683774 11.399245 14.297358 34.197736-1.352453 45.210566z" fill="#F05543" /><path d="M295.317736 355.656453a5.023396 5.023396 0 0 1-5.023396-5.023396v-21.658566a5.023396 5.023396 0 0 1 10.046792 0v21.639245a5.023396 5.023396 0 0 1-5.023396 5.042717zM295.317736 316.338717a5.023396 5.023396 0 0 1-5.023396-5.023396v-8.462491a5.023396 5.023396 0 0 1 10.046792 0v8.462491a5.023396 5.023396 0 0 1-5.023396 5.023396z" fill="#FFFFFF" opacity=".3" /></svg>