<?xml version="1.0" standalone="no"?><!DOCTYPE svg PUBLIC "-//W3C//DTD SVG 1.1//EN" "http://www.w3.org/Graphics/SVG/1.1/DTD/svg11.dtd"><svg class="icon" width="200px" height="200.00px" viewBox="0 0 1024 1024" version="1.1" xmlns="http://www.w3.org/2000/svg"><path d="M975.698113 135.41917v459.331622a87.097962 87.097962 0 0 1-87.097962 87.097963H135.399849A87.097962 87.097962 0 0 1 48.301887 594.750792V135.41917A87.097962 87.097962 0 0 1 135.399849 48.301887h753.200302A87.097962 87.097962 0 0 1 975.698113 135.41917z" fill="#7979F7" /><path d="M975.698113 135.438491v459.254339c0 48.108679-39.027925 87.136604-87.136604 87.136604H135.438491a87.329811 87.329811 0 0 1-80.760755-54.098113c12.172075 6.182642 25.889811 9.853585 40.573585 9.853585h753.123019c48.108679 0 87.136604-39.027925 87.136603-87.136604V91.193962c0-11.592453-2.318491-22.798491-6.375849-33.03849 27.628679 14.683774 46.563019 43.858113 46.563019 77.283019z" fill="#5E5EEF" /><path d="M144.90566 538.585358V191.565283A46.640302 46.640302 0 0 1 191.545962 144.90566h640.908076A46.640302 46.640302 0 0 1 879.09434 191.565283v347.020075a46.640302 46.640302 0 0 1-46.640302 46.640302H191.545962A46.640302 46.640302 0 0 1 144.90566 538.585358z" fill="#FFFFFF" /><path d="M648.018113 364.969057c0 75.157736-60.860377 136.018113-136.018113 136.018113s-136.018113-60.860377-136.018113-136.018113c0-74.964528 60.860377-135.824906 136.018113-135.824906s136.018113 60.860377 136.018113 135.824906z" fill="#E4E3FF" /><path d="M648.018113 364.969057c0 75.157736-60.860377 136.018113-136.018113 136.018113a136.018113 136.018113 0 0 1-120.175094-72.259623 135.245283 135.245283 0 0 0 94.092075 37.868679 135.960151 135.960151 0 0 0 120.175094-199.583396 135.052075 135.052075 0 0 1 41.926038 97.956227z" fill="#D0D0F7" /><path d="M879.09434 424.670189v113.992453c0 25.696604-20.866415 46.563019-46.563019 46.563018H191.468679c-25.310189 0-45.983396-20.286792-46.563019-45.596981 108.582642 20.866415 247.885283 20.673208 396.075472-5.409811 130.221887-22.798491 247.112453-62.019623 338.113208-109.548679z" fill="#E4E3FF" /><path d="M820.011472 110.128302H629.663396a14.490566 14.490566 0 0 1 0-28.981132h190.367396a14.490566 14.490566 0 0 1 0 28.981132zM564.455849 110.128302h-23.242868a14.490566 14.490566 0 0 1 0-28.981132h23.242868a14.490566 14.490566 0 0 1 0 28.981132z" fill="#FFFFFF" opacity=".3" /><path d="M96.50717 472.604981a14.490566 14.490566 0 0 1-14.490566-14.490566v-161.27034a14.490566 14.490566 0 0 1 28.981132 0v161.27034a14.490566 14.490566 0 0 1-14.490566 14.490566zM96.50717 246.416906a14.490566 14.490566 0 0 1-14.490566-14.490566v-10.046793a14.490566 14.490566 0 0 1 28.981132 0v10.046793a14.490566 14.490566 0 0 1-14.490566 14.490566z" fill="#FFFFFF" opacity=".3" /><path d="M569.228075 382.125887l-62.116226 41.73283a20.537962 20.537962 0 0 1-31.99517-17.060226v-83.44634c0-16.422642 18.354717-26.218264 31.99517-17.040906l62.116226 41.71351a20.537962 20.537962 0 0 1 0 34.101132z" fill="#FC6559" /><path d="M569.189434 382.164528l-62.019623 41.73283c-12.172075 8.114717-28.015094 1.159245-31.49283-11.978867 5.409811 1.352453 11.399245 0.77283 16.615849-2.898114l62.21283-41.539622c8.307925-5.603019 11.01283-15.649811 7.728302-24.150944l6.955472 4.636981c12.172075 8.114717 12.172075 26.083019 0 34.197736z" fill="#F05543" /><path d="M265.158038 840.066415v23.320151a27.049057 27.049057 0 1 1-54.117434 0V840.066415c8.346566 5.854189 16.306717 9.351245 27.049056 9.351245 10.780981 0 18.721811-3.497057 27.068378-9.351245z" fill="#F7C9A9" /><path d="M299.25917 718.983245V788.286792a62.019623 62.019623 0 1 1-124.019925 0v-69.303547c38.293736-29.676679 79.891321-27.087698 124.019925 0z" fill="#F7C9A9" /><path d="M299.25917 742.110189v46.234566a23.146264 23.146264 0 0 0 22.682566-23.126944c0-12.616453-10.124075-22.856453-22.682566-23.126943zM175.239245 742.110189v46.234566a23.146264 23.146264 0 0 1-22.682566-23.126944c0-12.616453 10.124075-22.856453 22.682566-23.126943z" fill="#F7C9A9" /><path d="M160.690717 744.95034c1.139925 7.68966 2.956075 14.799698 5.332528 21.310792 11.78566 32.362264 45.094642 50.871547 79.408302 47.818868a142.58717 142.58717 0 0 0 2.241208-0.231849c28.208302-2.956075 53.190038-21.446038 62.599245-48.185962 2.221887-6.337208 3.960755-13.234717 5.081358-20.711849 19.359396-79.968604-57.537208-144.13283-125.836075-77.089812a3.670943 3.670943 0 0 1-3.187925 1.043321c-6.974792-1.197887-32.033811-2.395774-30.140377 42.892076 0.77283 17.948981 3.226566 28.672 4.501736 33.154415z" fill="#2D2C2C" /><path d="M358.786415 935.124528v17.234114c0 12.886943-10.433208 23.320151-23.30083 23.32015H140.79034c-12.867623 0-23.320151-10.433208-23.320151-23.32015v-17.214793c0-38.467623 28.961811-69.11034 63.75849-73.573434 1.197887-0.193208 19.069585-0.289811 20.306113-0.289811 20.595925-0.270491 52.417208-0.270491 73.109736 0 3.535698 0 6.762264 0 9.563774 0.096604 6.124679 0 10.201358 0.096604 10.858264 0.193207 12.655094 1.680906 24.962415 6.858868 36.458264 16.036227 0.096604 0.096604 0.270491 0.193208 0.386415 0.289811 15.166792 11.669736 26.894491 33.28966 26.894491 57.247396z" fill="#B75F25" /><path d="M358.786415 935.124528v17.234114c0 12.886943-10.433208 23.320151-23.30083 23.32015H140.79034c-12.867623 0-23.320151-10.433208-23.320151-23.32015v-2.55034h195.970415a25.503396 25.503396 0 0 0 25.406792-25.426113v-15.128151c0-11.225358-2.511698-21.890415-6.955471-31.357585 15.186113 11.669736 26.913811 33.28966 26.913811 57.247396z" fill="#AA5821" /><path d="M276.963019 854.363774a10.896906 10.896906 0 0 1-10.896906 10.896905h-55.836981a10.896906 10.896906 0 1 1 0-21.832453h55.836981c6.028075 0 10.896906 4.907472 10.896906 10.916227z" fill="#E4E3FF" /><path d="M539.029736 840.066415v23.320151a27.049057 27.049057 0 1 1-54.117434 0V840.066415c8.346566 5.854189 16.287396 9.351245 27.049056 9.351245 10.76166 0 18.702491-3.497057 27.049057-9.351245z" fill="#F7C9A9" /><path d="M573.111547 718.983245V788.286792a62.019623 62.019623 0 1 1-124.019924 0v-69.303547c38.293736-29.676679 79.891321-27.087698 124.039245 0z" fill="#F7C9A9" /><path d="M573.111547 742.110189v46.234566a23.146264 23.146264 0 0 0 22.682566-23.126944c0-12.616453-10.124075-22.856453-22.682566-23.126943zM449.091623 742.110189v46.234566a23.146264 23.146264 0 0 1-22.663246-23.126944c0-12.616453 10.104755-22.856453 22.663246-23.126943z" fill="#F7C9A9" /><path d="M434.562415 744.95034c1.120604 7.68966 2.936755 14.799698 5.313208 21.310792 11.78566 32.362264 45.113962 50.871547 79.408302 47.818868l2.241207-0.231849c28.208302-2.956075 53.209358-21.446038 62.599245-48.185962 2.241208-6.337208 3.960755-13.234717 5.10068-20.711849 19.359396-79.968604-57.556528-144.13283-125.855397-77.089812a3.670943 3.670943 0 0 1-3.187924 1.043321c-6.955472-1.197887-32.014491-2.395774-30.121057 42.892076 0.753509 17.948981 3.226566 28.672 4.501736 33.154415z" fill="#2D2C2C" /><path d="M632.658113 935.124528v17.234114c0 12.886943-10.433208 23.320151-23.320151 23.32015H414.662038c-12.886943 0-23.320151-10.433208-23.320151-23.32015v-17.214793c0-39.066566 29.522113-69.187623 63.73917-73.573434 0.560302-0.096604 4.540377-0.193208 10.76166-0.193207 2.782189-0.096604 6.028075-0.096604 9.563774-0.096604 20.595925-0.270491 52.417208-0.270491 73.109735 0 3.516377 0 6.762264 0 9.544453 0.096604 6.124679 0 10.220679 0.096604 10.858264 0.193207 13.56317 1.79683 25.696604 7.41917 36.458265 16.036227 0.096604 0.096604 0.289811 0.193208 0.386415 0.289811 15.166792 11.669736 26.894491 33.28966 26.89449 57.247396z" fill="#FC6559" /><path d="M632.658113 935.124528v17.234114c0 12.886943-10.433208 23.320151-23.320151 23.32015H414.662038c-12.886943 0-23.320151-10.433208-23.320151-23.32015v-2.55034h195.951094a25.503396 25.503396 0 0 0 25.426113-25.426113v-15.128151c0-11.225358-2.511698-21.890415-6.955471-31.357585 15.166792 11.669736 26.894491 33.28966 26.89449 57.247396z" fill="#F05543" /><path d="M550.834717 854.363774a10.896906 10.896906 0 0 1-10.916226 10.896905h-55.836982a10.896906 10.896906 0 1 1 0-21.832453h55.836982c6.028075 0 10.916226 4.907472 10.916226 10.916227z" fill="#E4E3FF" /><path d="M812.882113 840.066415v23.320151a27.049057 27.049057 0 1 1-54.117434 0V840.066415c8.346566 5.854189 16.306717 9.351245 27.049057 9.351245 10.76166 0 18.721811-3.497057 27.068377-9.351245z" fill="#F7C9A9" /><path d="M846.983245 718.983245V788.286792a62.019623 62.019623 0 0 1-124.019924 0v-69.303547c38.274415-29.676679 79.891321-27.087698 124.019924 0zM846.983245 742.110189v46.234566a23.146264 23.146264 0 0 0 22.663246-23.126944c0-12.616453-10.124075-22.856453-22.663246-23.126943zM722.963321 742.110189v46.234566a23.146264 23.146264 0 0 1-22.682566-23.126944c0-12.616453 10.124075-22.856453 22.682566-23.126943z" fill="#F7C9A9" /><path d="M708.414792 744.95034c1.139925 7.68966 2.936755 14.799698 5.313208 21.310792 11.804981 32.362264 45.113962 50.871547 79.427623 47.818868l2.241207-0.231849c28.208302-2.956075 53.190038-21.446038 62.599245-48.185962 2.221887-6.337208 3.941434-13.234717 5.081359-20.711849 19.359396-79.968604-57.556528-144.13283-125.855396-77.089812a3.670943 3.670943 0 0 1-3.187925 1.043321c-6.955472-1.197887-32.014491-2.395774-30.121056 42.892076 0.77283 17.948981 3.226566 28.672 4.501735 33.154415z" fill="#2D2C2C" /><path d="M906.529811 935.124528v17.234114c0 12.886943-10.433208 23.320151-23.320151 23.32015H688.514415c-12.867623 0-23.320151-10.433208-23.320151-23.32015v-17.214793c0-38.467623 28.961811-69.11034 63.758491-73.573434 0.540981-0.096604 4.540377-0.193208 10.742339-0.193207 2.782189-0.096604 6.028075-0.096604 9.563774-0.096604 20.595925-0.270491 52.417208-0.270491 73.109736 0 3.535698 0 6.762264 0 9.563773 0.096604 6.124679 0 10.201358 0.096604 10.858265 0.193207 13.56317 1.79683 25.696604 7.41917 36.458264 16.036227l0.367094 0.289811c15.186113 11.669736 26.913811 33.28966 26.913811 57.247396z" fill="#F9B938" /><path d="M906.529811 935.124528v17.234114c0 12.886943-10.433208 23.320151-23.320151 23.32015H688.514415c-12.867623 0-23.320151-10.433208-23.320151-23.32015v-2.55034h195.951094a25.503396 25.503396 0 0 0 25.426114-25.426113v-15.128151c0-11.225358-2.511698-21.890415-6.955472-31.357585 15.186113 11.669736 26.913811 33.28966 26.913811 57.247396z" fill="#E5A320" /><path d="M824.687094 854.363774a10.896906 10.896906 0 0 1-10.896905 10.896905h-55.836981a10.896906 10.896906 0 1 1 0-21.832453h55.836981c6.008755 0 10.896906 4.907472 10.896905 10.916227z" fill="#E4E3FF" /></svg>