<?xml version="1.0" standalone="no"?><!DOCTYPE svg PUBLIC "-//W3C//DTD SVG 1.1//EN" "http://www.w3.org/Graphics/SVG/1.1/DTD/svg11.dtd"><svg class="icon" width="200px" height="200.00px" viewBox="0 0 1024 1024" version="1.1" xmlns="http://www.w3.org/2000/svg"><path d="M681.056604 136.984151v750.031698a85.127245 85.127245 0 0 1-85.107925 85.107925H187.14083a85.127245 85.127245 0 0 1-85.127245-85.127246V137.003472a85.127245 85.127245 0 0 1 85.127245-85.127246h408.807849a85.127245 85.127245 0 0 1 85.107925 85.127246z" fill="#E4E3FF" /><path d="M351.212679 110.263547H340.045283a9.660377 9.660377 0 1 1 0-19.320755h11.167396a9.660377 9.660377 0 1 1 0 19.320755zM492.930415 110.263547h-94.401207a9.660377 9.660377 0 1 1 0-19.320755h94.401207a9.660377 9.660377 0 1 1 0 19.320755z" fill="#FFFFFF" opacity=".5" /><path d="M150.740528 488.003623a9.660377 9.660377 0 0 1-9.660377-9.660378v-123.247094a9.660377 9.660377 0 1 1 19.320755 0v123.247094a9.660377 9.660377 0 0 1-9.660378 9.660378zM150.740528 305.229283a9.660377 9.660377 0 0 1-9.660377-9.660377v-14.876981a9.660377 9.660377 0 1 1 19.320755 0v14.876981a9.660377 9.660377 0 0 1-9.660378 9.660377z" fill="#FFFFFF" opacity=".5" /><path d="M681.037283 137.080755v749.83849c0 47.142642-38.061887 85.204528-85.011321 85.204529H187.198792c-35.550189 0-66.076981-21.832453-78.828679-52.745661 11.78566 6.375849 25.503396 10.046792 39.993962 10.046793h408.82717c46.949434 0 85.011321-38.061887 85.011321-85.204529V94.381887c0-11.592453-2.318491-22.412075-6.375849-32.458868 27.049057 14.297358 45.210566 42.50566 45.210566 75.157736z" fill="#D0D0F7" /><path d="M333.031849 206.017208a76.819321 76.819321 0 0 1-76.877283 76.703396 76.819321 76.819321 0 0 1-76.857962-76.703396 76.857962 76.857962 0 0 1 76.857962-76.857963 76.857962 76.857962 0 0 1 76.877283 76.857963z" fill="#B75F25" /><path d="M332.896604 206.036528a76.510189 76.510189 0 0 1-76.645434 76.626114 76.568151 76.568151 0 0 1-67.274868-39.781434c11.128755 6.144 23.706566 9.660377 36.864 9.660377a76.761358 76.761358 0 0 0 76.935245-76.626113 74.191698 74.191698 0 0 0-9.370566-36.864c23.687245 12.577811 39.491623 37.733434 39.491623 66.985056z" fill="#994F1D" /><path d="M333.031849 410.063698a76.819321 76.819321 0 0 1-76.877283 76.684076 76.819321 76.819321 0 0 1-76.857962-76.684076 76.857962 76.857962 0 0 1 76.857962-76.857962 76.857962 76.857962 0 0 1 76.877283 76.857962z" fill="#F7E839" /><path d="M332.896604 410.083019a76.510189 76.510189 0 0 1-76.645434 76.626113 76.568151 76.568151 0 0 1-67.274868-39.781434c11.128755 6.144 23.706566 9.660377 36.864 9.660377a76.761358 76.761358 0 0 0 76.935245-76.645433 74.191698 74.191698 0 0 0-9.370566-36.84468c23.687245 12.558491 39.491623 37.733434 39.491623 66.985057z" fill="#EDD318" /><path d="M333.031849 614.110189a76.819321 76.819321 0 0 1-76.877283 76.684075 76.819321 76.819321 0 0 1-76.857962-76.703396 76.857962 76.857962 0 0 1 76.857962-76.857962 76.857962 76.857962 0 0 1 76.877283 76.877283z" fill="#8666C6" /><path d="M332.896604 614.129509a76.510189 76.510189 0 0 1-76.645434 76.626114 76.568151 76.568151 0 0 1-67.274868-39.781434c11.128755 6.144 23.706566 9.660377 36.864 9.660377a76.761358 76.761358 0 0 0 76.935245-76.645434 74.191698 74.191698 0 0 0-9.370566-36.844679c23.687245 12.558491 39.491623 37.733434 39.491623 66.985056z" fill="#7553AA" /><path d="M333.031849 818.156679a76.819321 76.819321 0 0 1-76.877283 76.684076 76.819321 76.819321 0 0 1-76.857962-76.703397 76.857962 76.857962 0 0 1 76.857962-76.857962 76.857962 76.857962 0 0 1 76.877283 76.877283z" fill="#474646" /><path d="M332.896604 818.156679a76.510189 76.510189 0 0 1-76.645434 76.645434 76.568151 76.568151 0 0 1-67.274868-39.800755c11.128755 6.163321 23.706566 9.660377 36.864 9.660378a76.761358 76.761358 0 0 0 76.935245-76.626113 74.191698 74.191698 0 0 0-9.370566-36.84468c23.687245 12.558491 39.491623 37.733434 39.491623 66.965736z" fill="#2D2C2C" /><path d="M605.512453 206.017208a76.819321 76.819321 0 0 1-76.857962 76.703396 76.819321 76.819321 0 0 1-76.857963-76.703396 76.857962 76.857962 0 0 1 76.857963-76.857963 76.857962 76.857962 0 0 1 76.877283 76.857963z" fill="#5BC658" /><path d="M605.377208 206.036528a76.510189 76.510189 0 0 1-76.626114 76.626114 76.568151 76.568151 0 0 1-67.274868-39.781434c11.109434 6.144 23.687245 9.660377 36.864 9.660377a76.761358 76.761358 0 0 0 76.915925-76.626113 74.191698 74.191698 0 0 0-9.351245-36.864c23.687245 12.577811 39.472302 37.733434 39.472302 66.985056z" fill="#49A247" /><path d="M605.512453 410.063698a76.819321 76.819321 0 0 1-76.857962 76.684076 76.819321 76.819321 0 0 1-76.857963-76.684076 76.857962 76.857962 0 0 1 76.857963-76.857962 76.857962 76.857962 0 0 1 76.877283 76.857962z" fill="#FC6559" /><path d="M605.377208 410.083019a76.510189 76.510189 0 0 1-76.626114 76.626113 76.568151 76.568151 0 0 1-67.274868-39.781434c11.109434 6.144 23.687245 9.660377 36.864 9.660377a76.761358 76.761358 0 0 0 76.915925-76.645433 74.191698 74.191698 0 0 0-9.351245-36.84468c23.687245 12.558491 39.472302 37.733434 39.472302 66.985057z" fill="#E24B40" /><path d="M605.512453 614.110189a76.819321 76.819321 0 0 1-76.857962 76.684075 76.819321 76.819321 0 0 1-76.857963-76.703396 76.857962 76.857962 0 0 1 76.857963-76.857962 76.857962 76.857962 0 0 1 76.877283 76.877283z" fill="#7979F7" /><path d="M605.377208 614.129509a76.510189 76.510189 0 0 1-76.626114 76.626114 76.568151 76.568151 0 0 1-67.274868-39.781434c11.109434 6.144 23.687245 9.660377 36.864 9.660377a76.761358 76.761358 0 0 0 76.915925-76.645434 74.191698 74.191698 0 0 0-9.351245-36.844679c23.687245 12.558491 39.472302 37.733434 39.472302 66.985056z" fill="#5E5EEF" /><path d="M605.512453 818.156679a76.819321 76.819321 0 0 1-76.857962 76.684076 76.819321 76.819321 0 0 1-76.857963-76.703397 76.857962 76.857962 0 0 1 76.857963-76.857962 76.857962 76.857962 0 0 1 76.877283 76.877283z" fill="#A04747" /><path d="M605.377208 818.156679a76.510189 76.510189 0 0 1-76.626114 76.645434 76.568151 76.568151 0 0 1-67.274868-39.800755c11.109434 6.163321 23.687245 9.660377 36.864 9.660378a76.761358 76.761358 0 0 0 76.915925-76.626113 74.191698 74.191698 0 0 0-9.351245-36.84468c23.687245 12.558491 39.472302 37.733434 39.472302 66.965736z" fill="#7F3939" /><path d="M391.535094 755.769962a14.490566 14.490566 0 0 1-14.490566-14.490566V261.815547a14.490566 14.490566 0 0 1 28.981132 0v479.463849a14.490566 14.490566 0 0 1-14.490566 14.490566z" fill="#C2C2EF" /><path d="M481.627774 195.83517a9.679698 9.679698 0 0 1-4.946114-12.751698 56.860981 56.860981 0 0 1 51.972831-34.062491 9.660377 9.660377 0 1 1 0 19.320755c-14.83834 0-28.285585 8.848906-34.275019 22.528a9.660377 9.660377 0 0 1-12.751698 4.965434zM481.627774 401.060226a9.679698 9.679698 0 0 1-4.946114-12.732377 56.860981 56.860981 0 0 1 51.972831-34.062491 9.660377 9.660377 0 1 1 0 19.320755c-14.83834 0-28.285585 8.848906-34.275019 22.528a9.660377 9.660377 0 0 1-12.751698 4.946113zM481.627774 605.918189a9.679698 9.679698 0 0 1-4.946114-12.751698 56.860981 56.860981 0 0 1 51.972831-34.062491 9.660377 9.660377 0 1 1 0 19.320755c-14.83834 0-28.285585 8.848906-34.275019 22.528a9.660377 9.660377 0 0 1-12.751698 4.965434zM481.627774 808.051925a9.679698 9.679698 0 0 1-4.946114-12.751699 56.860981 56.860981 0 0 1 51.972831-34.06249 9.660377 9.660377 0 1 1 0 19.320755c-14.83834 0-28.285585 8.848906-34.275019 22.528a9.660377 9.660377 0 0 1-12.751698 4.965434z" fill="#FFFFFF" opacity=".3" /><path d="M209.243774 195.83517a9.679698 9.679698 0 0 1-4.965434-12.751698 56.860981 56.860981 0 0 1 51.97283-34.062491 9.660377 9.660377 0 1 1 0 19.320755c-14.819019 0-28.266264 8.848906-34.275019 22.528a9.660377 9.660377 0 0 1-12.732377 4.965434zM209.243774 401.060226a9.679698 9.679698 0 0 1-4.965434-12.732377 56.860981 56.860981 0 0 1 51.97283-34.062491 9.660377 9.660377 0 1 1 0 19.320755c-14.819019 0-28.266264 8.848906-34.275019 22.528a9.660377 9.660377 0 0 1-12.732377 4.946113zM209.243774 605.918189a9.679698 9.679698 0 0 1-4.965434-12.751698 56.860981 56.860981 0 0 1 51.97283-34.062491 9.660377 9.660377 0 1 1 0 19.320755c-14.819019 0-28.266264 8.848906-34.275019 22.528a9.660377 9.660377 0 0 1-12.732377 4.965434zM209.243774 808.051925a9.679698 9.679698 0 0 1-4.965434-12.751699 56.860981 56.860981 0 0 1 51.97283-34.06249 9.660377 9.660377 0 1 1 0 19.320755c-14.819019 0-28.266264 8.848906-34.275019 22.528a9.660377 9.660377 0 0 1-12.732377 4.965434z" fill="#FFFFFF" opacity=".3" /><path d="M759.30566 610.072151a76.162415 76.162415 0 0 1 51.779623-50.42717h52.166038c66.849811 17.002264 76.316981 83.272453 29.94717 137.563774a150.508679 150.508679 0 0 0-20.093585 29.367547c-10.046792 18.93434-12.944906 35.550189-13.331321 48.108679-0.386415 8.887547-11.206038 13.524528-18.16151 7.92151-77.862642-61.826415-96.990189-127.710189-82.306415-172.53434z" fill="#E4E3FF" /><path d="M810.582943 559.799547h49.615699c27.783245-18.238792 47.664302-70.13434 47.664301-163.936604 0-119.981887-32.458868-262.762264-72.491471-262.762264s-72.259623 142.780377-72.259623 262.762264c0 93.821585 19.745811 145.697811 47.471094 163.936604z" fill="#B75F25" /><path d="M794.87517 393.950189h-0.154566a9.660377 9.660377 0 0 1-9.505812-9.795623c0.483019-28.807245 2.704906-59.430642 6.433812-88.547019a9.583094 9.583094 0 0 1 10.819622-8.365887 9.660377 9.660377 0 0 1 8.346566 10.819623 788.499321 788.499321 0 0 0-6.279245 86.402415 9.660377 9.660377 0 0 1-9.660377 9.505811z" fill="#FFFFFF" opacity=".3" /><path d="M805.849358 265.73766a9.660377 9.660377 0 0 1-7.728301-11.264c0.869434-4.714264 1.79683-9.331925 2.762868-13.910943a9.660377 9.660377 0 1 1 18.915018 3.960755c-0.946717 4.424453-1.816151 8.926189-2.704905 13.505207a9.660377 9.660377 0 0 1-11.24468 7.708981z" fill="#FFFFFF" opacity=".3" /><path d="M907.862943 395.78566c0 93.898868-19.900377 145.871698-47.722264 164.033208h-49.654339c-11.399245-7.535094-21.639245-21.059623-29.560755-41.153208h48.881509c27.821887-18.354717 47.722264-70.13434 47.722264-164.033207 0-79.408302-14.297358-168.863396-35.550188-220.256604 36.902642 14.490566 65.883774 148.190189 65.883773 261.409811z" fill="#AA5821" /><path d="M810.853434 559.799547h49.074717c15.746415-10.278642 29.019774-31.183698 37.540226-64.589283h-124.019924c8.481811 33.405585 21.677887 54.291321 37.404981 64.589283z" fill="#ECB021" /><path d="M759.30566 610.072151h0.772831c8.69434 0.966038 17.002264 8.501132 16.036226 17.002264-0.77283 5.796226-5.216604 11.592453-2.318491 16.615849 2.898113 5.023396 10.626415 3.670943 16.036227 5.989434 5.409811 2.318491 8.307925 8.501132 8.887547 14.297359 0.579623 5.989434-0.966038 11.78566-1.54566 17.581886-0.77283 5.796226-0.966038 11.978868 1.932075 17.195472 2.898113 5.023396 11.978868 11.206038 14.876981 5.989434 1.932075-3.670943-1.159245-8.501132 0.193208-12.365283 1.159245-4.057358 4.636981-7.728302 8.694339-7.728302 5.603019 0 9.080755 5.603019 10.819623 10.819623 3.670943 10.819623-1.352453 22.605283 1.352453 33.618113 1.738868 6.762264 12.558491 6.955472 18.934339 4.443774 2.898113-1.159245 5.409811-3.284528 8.307925-4.636982 3.284528-1.738868 7.148679-2.318491 10.819623-2.31849-10.046792 18.93434-12.944906 35.550189-13.331321 48.108679-0.386415 8.887547-11.206038 13.524528-18.16151 7.92151-77.862642-61.826415-96.990189-127.710189-82.306415-172.53434z" fill="#FC6559" /></svg>