<?xml version="1.0" standalone="no"?><!DOCTYPE svg PUBLIC "-//W3C//DTD SVG 1.1//EN" "http://www.w3.org/Graphics/SVG/1.1/DTD/svg11.dtd"><svg class="icon" width="200px" height="200.00px" viewBox="0 0 1024 1024" version="1.1" xmlns="http://www.w3.org/2000/svg"><path d="M764.000604 122.609509v778.780982a74.307623 74.307623 0 0 1-74.307623 74.307622H134.511094a74.307623 74.307623 0 0 1-74.307622-74.307622V122.609509A74.307623 74.307623 0 0 1 134.511094 48.301887h555.181887a74.307623 74.307623 0 0 1 74.307623 74.307622z" fill="#E4E3FF" /><path d="M764.058566 122.686792v778.626416c0 41.153208-33.231698 74.384906-74.384906 74.384905H134.588377c-31.299623 0-57.962264-19.127547-68.975094-46.369811 6.955472 2.318491 14.490566 3.477736 22.412075 3.477736h555.278491a74.191698 74.191698 0 0 0 74.191698-74.191698V79.794717c0-10.046792-1.932075-19.513962-5.603019-28.208302a74.578113 74.578113 0 0 1 52.166038 71.100377z" fill="#D0D0F7" /><path d="M674.873962 320.280151a17.388679 17.388679 0 0 1-17.388679 17.388679H166.718792a17.388679 17.388679 0 0 1 0-34.777358h490.805133a17.388679 17.388679 0 0 1 17.388679 17.388679zM674.873962 416.999849a17.388679 17.388679 0 0 1-17.388679 17.388679H166.718792a17.388679 17.388679 0 0 1 0-34.777358h490.805133a17.388679 17.388679 0 0 1 17.388679 17.388679zM674.873962 513.719547a17.388679 17.388679 0 0 1-17.388679 17.388679H166.718792a17.388679 17.388679 0 0 1 0-34.777358h490.805133a17.388679 17.388679 0 0 1 17.388679 17.388679zM674.873962 610.439245a17.388679 17.388679 0 0 1-17.388679 17.38868H166.718792a17.388679 17.388679 0 1 1 0-34.777359h490.805133a17.388679 17.388679 0 0 1 17.388679 17.388679zM674.873962 707.139623a17.388679 17.388679 0 0 1-17.388679 17.388679H166.718792a17.388679 17.388679 0 0 1 0-34.777359h490.805133a17.388679 17.388679 0 0 1 17.388679 17.38868zM404.847094 803.859321a17.388679 17.388679 0 0 1-17.388679 17.388679H166.718792a17.388679 17.388679 0 0 1 0-34.777358h220.778265a17.388679 17.388679 0 0 1 17.388679 17.388679z" fill="#D0D0F7" /><path d="M674.796679 320.338113c0 9.46717-7.728302 17.388679-17.388679 17.388679h-490.74717c-9.46717 0-17.388679-7.921509-17.388679-17.388679 0-2.125283 0.386415-4.250566 1.159245-5.989434 2.511698 6.569057 8.887547 11.206038 16.229434 11.206038h490.74717c7.535094 0 13.717736-4.636981 16.229434-11.206038 0.77283 1.738868 1.159245 3.864151 1.159245 5.989434zM674.796679 416.941887c0 9.660377-7.728302 17.388679-17.388679 17.388679h-490.74717c-9.46717 0-17.388679-7.728302-17.388679-17.388679 0-2.125283 0.386415-4.057358 1.159245-5.989434 2.318491 6.762264 8.887547 11.399245 16.229434 11.399245h490.74717c7.535094 0 13.910943-4.636981 16.229434-11.399245 0.77283 1.932075 1.159245 3.864151 1.159245 5.989434zM674.796679 513.738868c0 9.660377-7.728302 17.388679-17.388679 17.388679h-490.74717c-9.46717 0-17.388679-7.728302-17.388679-17.388679 0-2.125283 0.386415-4.250566 1.159245-5.989434 2.318491 6.569057 8.887547 11.206038 16.229434 11.206038h490.74717c7.535094 0 13.910943-4.636981 16.229434-11.206038 0.77283 1.738868 1.159245 3.864151 1.159245 5.989434zM674.796679 610.342642c0 9.660377-7.728302 17.388679-17.388679 17.388679h-490.74717c-9.46717 0-17.388679-7.728302-17.388679-17.388679 0-2.125283 0.386415-4.057358 1.159245-5.989434 2.318491 6.762264 8.887547 11.399245 16.229434 11.399245h490.74717c7.535094 0 13.910943-4.636981 16.229434-11.399245 0.77283 1.932075 1.159245 3.864151 1.159245 5.989434zM674.796679 707.139623c0 9.660377-7.728302 17.388679-17.388679 17.388679h-490.74717c-9.46717 0-17.388679-7.728302-17.388679-17.388679 0-2.125283 0.386415-4.250566 1.159245-5.989434 2.318491 6.569057 8.887547 11.399245 16.229434 11.399245h490.74717c7.535094 0 13.910943-4.830189 16.229434-11.399245 0.77283 1.738868 1.159245 3.864151 1.159245 5.989434zM404.885736 803.936604c0 9.46717-7.728302 17.388679-17.388679 17.388679H166.66083c-9.46717 0-17.388679-7.921509-17.388679-17.388679 0-2.125283 0.386415-4.250566 1.159245-5.989434 2.511698 6.569057 8.887547 11.206038 16.229434 11.206038h220.836227c7.535094 0 13.717736-4.636981 16.229434-11.206038 0.77283 1.738868 1.159245 3.864151 1.159245 5.989434z" fill="#C2C2EF" /><path d="M593.475623 156.92317v65.80649c0 12.288-9.969509 22.257509-22.25751 22.25751H247.421585a22.257509 22.257509 0 0 1-22.238189-22.25751V156.92317c0-12.288 9.950189-22.257509 22.238189-22.25751h323.815849c12.268679 0 22.218868 9.969509 22.218868 22.25751z" fill="#5BC658" /><path d="M593.456302 156.884528v65.883774c0 12.172075-9.853585 22.218868-22.218868 22.218868h-323.815849c-11.399245 0-20.673208-8.501132-22.02566-19.320755h323.429433c12.172075 0 22.218868-10.046792 22.218868-22.412075v-65.690566c0-0.966038 0-1.932075-0.193207-2.898114h0.386415c12.365283 0 22.218868 10.046792 22.218868 22.218868z" fill="#49A247" /><path d="M783.688453 481.53117l0.154566 1.120604-1.004679-1.236529c0.386415-0.038642 0.52166 0 0.850113 0.115925z" fill="#49A247" /><path d="M823.199396 635.923321A228.158792 228.158792 0 0 1 803.743396 484.757736c2.415094-11.206038 16.809057-14.703094 24.440755-6.124679l6.221283 6.994113-10.355925-50.388528a14.471245 14.471245 0 0 1 1.352453-9.699019 227.617811 227.617811 0 0 1 82.306415-87.349132 20.827774 20.827774 0 0 1 30.275623 10.317283c7.399849 19.320755 12.056151 39.221132 14.007547 58.986264a14.200755 14.200755 0 0 1-4.926792 12.03683l-37.211774 32.26566 23.861132-4.926792a14.297358 14.297358 0 0 1 16.924981 16.268075 227.656453 227.656453 0 0 1-127.439698 172.766189z" fill="#A2A2F9" /><path d="M922.411472 337.92c-0.425057-0.830792-0.637585-1.777509-1.255849-2.511698 7.41917 0.927396 14.104151 5.660981 16.828377 13.118792 7.361208 19.243472 12.03683 39.143849 14.065509 59.024906a14.336 14.336 0 0 1-4.984754 12.03683l-20.48 17.678491a12.558491 12.558491 0 0 0-8.462491-0.946717l-23.861132 4.907471 37.211774-32.227018a14.316679 14.316679 0 0 0 4.830188-12.094793 224.371925 224.371925 0 0 0-13.910943-58.966943z" fill="#7979F7" /><path d="M823.199396 635.923321a192.685887 192.685887 0 0 1-6.858868-15.031547 227.057509 227.057509 0 0 0 118.648755-168.43834 11.090113 11.090113 0 0 0-0.386415-5.583698c9.447849-1.352453 17.388679 6.800906 16.13283 16.229434a227.772377 227.772377 0 0 1-127.536302 172.824151z" fill="#7979F7" /><path d="M802.255698 675.33766c15.263396-76.606792 45.596981-148.422038 81.282415-216.450415-31.357585 70.095698-56.880302 143.398642-66.985056 218.788227a7.245283 7.245283 0 1 1-14.297359-2.337812z" fill="#7979F7" /><path d="M957.478642 747.809811a76.123774 76.123774 0 0 0-35.183095-43.433056c-19.900377-11.399245-34.390943-30.024453-38.351698-51.895547a14.490566 14.490566 0 0 0-14.239396-12.056151h-110.476076a14.490566 14.490566 0 0 0-14.239396 12.056151c-3.960755 21.871094-18.451321 40.476981-38.351698 51.895547a76.123774 76.123774 0 0 0-35.183094 43.433056c-4.134642 13.196075-6.337208 28.034415-6.337208 44.940076 0 40.554264 12.79034 95.386566 34.101132 144.461283a64.125585 64.125585 0 0 0 58.812378 38.486943h112.717283a64.202868 64.202868 0 0 0 58.928301-38.448302c21.330113-49.074717 34.120453-103.94566 34.120453-144.499924 0-16.90566-2.202566-31.879245-6.317886-44.940076z" fill="#F9B938" /><path d="M717.05117 925.386868c-6.569057-16.789736-12.210717-33.907925-16.712453-50.890868a6.878189 6.878189 0 0 1 13.292679-3.516377c4.366491 16.461283 9.814943 33.077132 16.229434 49.383849a6.897509 6.897509 0 0 1-12.80966 5.023396zM699.720453 847.176453a6.878189 6.878189 0 0 1-6.742944-5.680302c-0.540981-3.110642-1.062642-6.182642-1.507018-9.235321a6.858868 6.858868 0 1 1 13.58249-2.009358c0.444377 2.898113 0.927396 5.873509 1.449057 8.848905a6.878189 6.878189 0 0 1-6.762264 8.076076z" fill="#FFFFFF" opacity=".3" /><path d="M963.796528 792.749887c0 40.554264-12.79034 95.386566-34.081811 144.461283a64.086943 64.086943 0 0 1-58.966943 38.486943h-34.642114a64.086943 64.086943 0 0 0 58.966944-38.486943c21.310792-49.074717 34.081811-103.907019 34.081811-144.461283a147.030943 147.030943 0 0 0-2.743547-29.94717 99.173434 99.173434 0 0 0-3.57434-14.992906 76.123774 76.123774 0 0 0-35.183094-43.433056c-19.939019-11.399245-34.371623-29.94717-38.351698-51.97283a14.490566 14.490566 0 0 0-14.297359-11.940227h34.642114a14.490566 14.490566 0 0 1 14.297358 11.959547c3.980075 21.987019 18.412679 40.554264 38.351698 51.95351a76.123774 76.123774 0 0 1 35.163774 43.433056c0.966038 2.898113 1.79683 5.776906 2.492377 8.926189 0.270491 0.966038 0.405736 1.932075 0.540981 3.033358 0.270491 0.966038 0.560302 1.932075 0.560302 3.014038 1.932075 9.216 2.743547 19.262792 2.743547 29.966491z" fill="#E5A320" /><path d="M961.149585 762.783396a124.290415 124.290415 0 0 0-3.670943-14.973585 76.123774 76.123774 0 0 0-35.183095-43.433056c-19.900377-11.399245-34.390943-30.024453-38.351698-51.895547a14.490566 14.490566 0 0 0-14.239396-12.056151h-110.476076a14.490566 14.490566 0 0 0-14.239396 12.056151c-3.960755 21.871094-18.451321 40.496302-38.351698 51.895547a76.123774 76.123774 0 0 0-35.183094 43.433056c-1.487698 4.752906-2.704906 9.756981-3.670944 14.973585z" fill="#474646" /><path d="M961.188226 762.783396h-34.777358a99.173434 99.173434 0 0 0-3.57434-14.973585 76.123774 76.123774 0 0 0-35.183094-43.433056c-19.939019-11.399245-34.371623-29.94717-38.351698-51.97283a14.490566 14.490566 0 0 0-14.297359-11.940227h34.642114a14.490566 14.490566 0 0 1 14.297358 11.959547c3.980075 21.987019 18.412679 40.554264 38.351698 51.95351a76.123774 76.123774 0 0 1 35.163774 43.433056c0.966038 2.898113 1.79683 5.776906 2.492377 8.926189 0.270491 0.966038 0.405736 1.932075 0.540981 3.033358 0.270491 0.966038 0.560302 2.067321 0.695547 3.014038z" fill="#2D2C2C" /><path d="M890.126491 850.248453c0 26.256906-37.250415 47.548377-83.021283 47.548377-45.906113 0-83.021283-21.291472-83.021283-47.548377 0-26.256906 37.11517-47.548377 83.021283-47.548378 45.790189 0 83.021283 21.291472 83.021283 47.548378z" fill="#E4E3FF" /><path d="M882.765283 830.927698c-15.263396-10.858264-38.486943-17.736453-64.589283-17.736453-45.906113 0-83.021283 21.310792-83.021283 47.548378 0 6.878189 2.608302 13.485887 7.283925 19.398037-11.553811-8.114717-18.412679-18.432-18.41268-29.831245 0-26.256906 37.095849-47.567698 83.156529-47.567698 33.676075 0 62.792453 11.553811 75.582792 28.188981z" fill="#D0D0F7" /><path d="M93.512453 582.40483a8.69434 8.69434 0 0 1-8.713661-8.694339v-154.005736a8.69434 8.69434 0 0 1 17.38868 0v154.005736a8.69434 8.69434 0 0 1-8.69434 8.694339zM93.512453 396.345962a8.69434 8.69434 0 0 1-8.713661-8.694339v-11.51517a8.69434 8.69434 0 0 1 17.38868 0v11.495849a8.69434 8.69434 0 0 1-8.69434 8.69434z" fill="#FFFFFF" opacity=".4" /><path d="M435.760302 171.065962a8.69434 8.69434 0 0 1-8.69434 8.69434h-115.383547a8.69434 8.69434 0 0 1 0-17.388679h115.383547a8.69434 8.69434 0 0 1 8.69434 8.694339zM288.323623 171.065962a8.69434 8.69434 0 0 1-8.69434 8.69434h-11.495849a8.69434 8.69434 0 0 1 0-17.388679h11.495849a8.69434 8.69434 0 0 1 8.69434 8.694339zM645.815547 83.156528a8.69434 8.69434 0 0 1-8.694339 8.69434h-115.364227a8.69434 8.69434 0 0 1 0-17.388679h115.364227a8.69434 8.69434 0 0 1 8.694339 8.694339zM498.378868 83.156528a8.69434 8.69434 0 0 1-8.69434 8.69434h-11.495849a8.69434 8.69434 0 0 1 0-17.388679h11.495849a8.69434 8.69434 0 0 1 8.69434 8.694339z" fill="#FFFFFF" opacity=".4" /></svg>