<?xml version="1.0" standalone="no"?><!DOCTYPE svg PUBLIC "-//W3C//DTD SVG 1.1//EN" "http://www.w3.org/Graphics/SVG/1.1/DTD/svg11.dtd"><svg class="icon" width="200px" height="200.00px" viewBox="0 0 1024 1024" version="1.1" xmlns="http://www.w3.org/2000/svg"><path d="M266.568453 556.630943a9.660377 9.660377 0 0 1-9.660378-9.660377v-7.399849a54.484528 54.484528 0 0 1 54.426567-54.426566h58.194113a53.383245 53.383245 0 0 0 53.325283-53.325283 53.383245 53.383245 0 0 0-53.325283-53.325283h-106.708529a72.742642 72.742642 0 0 1-72.646037-72.665359v-2.511698a72.723321 72.723321 0 0 1 72.646037-72.626717h244.678038a9.660377 9.660377 0 1 1 0 19.320755H262.820226a53.383245 53.383245 0 0 0-53.325283 53.325283v2.492377a53.383245 53.383245 0 0 0 53.325283 53.325283h106.708529c40.051925 0 72.646038 32.594113 72.646037 72.646038s-32.594113 72.665358-72.646037 72.665359h-58.194113a35.163774 35.163774 0 0 0-35.105812 35.105811v7.380528a9.660377 9.660377 0 0 1-9.660377 9.660378z" fill="#A2A2F9" /><path d="M327.119698 566.581132v29.116377h-121.141132v-29.116377c0-18.219472 14.83834-32.883925 32.883925-32.883924h55.392603c18.045585 0 32.864604 14.664453 32.864604 32.883924z" fill="#C2C2EF" /><path d="M327.119698 566.581132v29.116377h-121.141132v-12.500528h78.790038a26.276226 26.276226 0 0 0 26.276226-26.276226v-2.859472c0-6.781585-2.125283-13.215396-5.718943-18.393358 12.693736 4.463094 21.793811 16.615849 21.793811 30.913207z" fill="#A2A2F9" /><path d="M928.169057 658.972981v270.780377a63.314113 63.314113 0 0 1-63.314114 63.294793H126.550943a63.314113 63.314113 0 0 1-63.314113-63.294793V658.972981A63.314113 63.314113 0 0 1 126.550943 595.658868h738.304a63.314113 63.314113 0 0 1 63.294793 63.314113z" fill="#A2A2F9" /><path d="M928.169057 658.95366v270.857661a63.372075 63.372075 0 0 1-63.256151 63.23683H126.47366a63.372075 63.372075 0 0 1-58.232754-38.583547c8.752302 4.463094 18.760453 7.148679 29.309585 7.148679h738.246037a63.294792 63.294792 0 0 0 63.23683-63.430038v-270.683773a65.883774 65.883774 0 0 0-4.830188-24.653283 63.101585 63.101585 0 0 1 33.946566 56.107471z" fill="#7979F7" /><path d="M169.964679 698.252075H142.683774a14.490566 14.490566 0 0 1 0-28.981132h27.280905a14.490566 14.490566 0 0 1 0 28.981132zM266.568453 698.252075h-27.280906a14.490566 14.490566 0 0 1 0-28.981132h27.280906a14.490566 14.490566 0 0 1 0 28.981132zM363.172226 698.252075h-27.280905a14.490566 14.490566 0 0 1 0-28.981132h27.280905a14.490566 14.490566 0 0 1 0 28.981132zM459.776 698.252075h-27.280906a14.490566 14.490566 0 0 1 0-28.981132h27.280906a14.490566 14.490566 0 0 1 0 28.981132zM556.379774 698.252075h-27.242265a14.490566 14.490566 0 0 1 0-28.981132h27.242265a14.490566 14.490566 0 0 1 0 28.981132zM652.983547 698.252075h-27.242264a14.490566 14.490566 0 0 1 0-28.981132h27.242264a14.490566 14.490566 0 0 1 0 28.981132zM749.587321 698.252075h-27.242264a14.490566 14.490566 0 0 1 0-28.981132h27.242264a14.490566 14.490566 0 0 1 0 28.981132zM846.210415 698.252075h-27.280906a14.490566 14.490566 0 0 1 0-28.981132h27.280906a14.490566 14.490566 0 0 1 0 28.981132zM169.964679 774.511094H142.683774a14.490566 14.490566 0 0 1 0-28.981132h27.280905a14.490566 14.490566 0 0 1 0 28.981132zM266.568453 774.511094h-27.280906a14.490566 14.490566 0 0 1 0-28.981132h27.280906a14.490566 14.490566 0 0 1 0 28.981132zM363.172226 774.511094h-27.280905a14.490566 14.490566 0 0 1 0-28.981132h27.280905a14.490566 14.490566 0 0 1 0 28.981132zM459.776 774.511094h-27.280906a14.490566 14.490566 0 0 1 0-28.981132h27.280906a14.490566 14.490566 0 0 1 0 28.981132zM556.379774 774.511094h-27.242265a14.490566 14.490566 0 0 1 0-28.981132h27.242265a14.490566 14.490566 0 0 1 0 28.981132zM652.983547 774.511094h-27.242264a14.490566 14.490566 0 0 1 0-28.981132h27.242264a14.490566 14.490566 0 0 1 0 28.981132zM749.587321 774.511094h-27.242264a14.490566 14.490566 0 0 1 0-28.981132h27.242264a14.490566 14.490566 0 0 1 0 28.981132zM846.210415 774.511094h-27.280906a14.490566 14.490566 0 0 1 0-28.981132h27.280906a14.490566 14.490566 0 0 1 0 28.981132zM169.964679 850.770113H142.683774a14.490566 14.490566 0 0 1 0-28.981132h27.280905a14.490566 14.490566 0 0 1 0 28.981132zM266.568453 850.770113h-27.280906a14.490566 14.490566 0 0 1 0-28.981132h27.280906a14.490566 14.490566 0 0 1 0 28.981132zM363.172226 850.770113h-27.280905a14.490566 14.490566 0 0 1 0-28.981132h27.280905a14.490566 14.490566 0 0 1 0 28.981132zM459.776 850.770113h-27.280906a14.490566 14.490566 0 0 1 0-28.981132h27.280906a14.490566 14.490566 0 0 1 0 28.981132zM556.379774 850.770113h-27.242265a14.490566 14.490566 0 0 1 0-28.981132h27.242265a14.490566 14.490566 0 0 1 0 28.981132zM652.983547 850.770113h-27.242264a14.490566 14.490566 0 0 1 0-28.981132h27.242264a14.490566 14.490566 0 0 1 0 28.981132zM749.587321 850.770113h-27.242264a14.490566 14.490566 0 0 1 0-28.981132h27.242264a14.490566 14.490566 0 0 1 0 28.981132zM846.210415 850.770113h-27.280906a14.490566 14.490566 0 0 1 0-28.981132h27.280906a14.490566 14.490566 0 0 1 0 28.981132zM169.964679 927.009811H142.683774a14.490566 14.490566 0 0 1 0-28.981132h27.280905a14.490566 14.490566 0 0 1 0 28.981132zM266.568453 927.009811h-27.280906a14.490566 14.490566 0 0 1 0-28.981132h27.280906a14.490566 14.490566 0 0 1 0 28.981132zM749.587321 927.009811h-27.242264a14.490566 14.490566 0 0 1 0-28.981132h27.242264a14.490566 14.490566 0 0 1 0 28.981132zM846.210415 927.009811h-27.280906a14.490566 14.490566 0 0 1 0-28.981132h27.280906a14.490566 14.490566 0 0 1 0 28.981132zM652.983547 927.009811H332.02717a14.490566 14.490566 0 0 1 0-28.981132h320.956377a14.490566 14.490566 0 0 1 0 28.981132z" fill="#FFFFFF" /><path d="M386.434415 644.926792h-126.898717a13.408604 13.408604 0 0 1 0-26.797886H386.415094a13.408604 13.408604 0 0 1 0 26.797886zM201.360906 644.926792H190.889057a13.408604 13.408604 0 0 1 0-26.797886h10.433207a13.408604 13.408604 0 0 1 0 26.797886z" fill="#FFFFFF" opacity=".3" /><path d="M960.569962 277.832453c0 135.902189-110.205585 246.784-246.880604 246.784-136.906868 0-246.784-111.384151-246.784-246.880604 0-136.481811 110.592-246.784 246.784-246.784 140.268679 0 246.880604 115.615396 246.880604 246.899925z" fill="#E4E3FF" /><path d="M529.060226 393.950189a10.665057 10.665057 0 0 1-9.293283-5.390491 222.575094 222.575094 0 0 1-28.594717-93.995472 10.665057 10.665057 0 0 1 9.853585-11.418566c5.931472-0.212528 11.01283 3.960755 11.437887 9.853585a201.322264 201.322264 0 0 0 25.85117 85.030642 10.665057 10.665057 0 0 1-9.273962 15.939622zM556.824151 144.809057a10.665057 10.665057 0 0 1-7.863547-17.871699 223.792302 223.792302 0 0 1 58.599849-45.770867 10.645736 10.645736 0 1 1 10.162717 18.741132 202.752 202.752 0 0 0-53.054793 41.443019 10.626415 10.626415 0 0 1-7.863547 3.458415zM653.872302 84.21917a10.665057 10.665057 0 0 1-2.994717-20.905057c8.018113-2.357132 16.268075-4.269887 24.537358-5.699622a10.76166 10.76166 0 0 1 12.326642 8.694339c1.004679 5.796226-2.898113 11.302642-8.69434 12.326642-7.457811 1.294491-14.915623 3.014038-22.180226 5.13932a10.723019 10.723019 0 0 1-2.994717 0.444378z" fill="#FFFFFF" opacity=".6" /><path d="M913.465962 240.755925a14.336 14.336 0 0 1-6.259924 10.665056c-3.670943 2.318491-8.462491-2.666264-12.094793-0.289811-6.375849 4.211925 10.723019 15.920302 6.259925 22.180226-3.303849 4.636981-13.157434-3.555019-17.060227 0.579623-2.936755 3.091321 4.636981 11.553811 0.579623 12.790339-4.656302 1.410415-8.829585-4.115321-13.234717-1.835471-4.269887 2.260528-7.535094 6.240604-11.669736 8.810264-5.255245 3.129962-11.940226 3.84483-17.350038 1.27517-5.545057-2.55034-9.370566-8.520453-8.655698-14.490566 0.695547-6.684981 6.375849-11.804981 12.79034-13.949585 6.259925-2.125283 13.215396-1.700226 19.765132-1.27517a16.828377 16.828377 0 0 1-0.289811-22.759849c0.154566-0.985358 0.154566-2.125283 0.289811-3.110642a69.052377 69.052377 0 0 1-34.835321-34.970566c-14.799698-3.864151-27.590038-13.949585-35.685434-26.89449a65.767849 65.767849 0 0 1-9.100075-24.035019c-1.854792-11.206038-0.714868-22.875774-2.125283-34.255698-1.429736-11.379925-5.989434-23.184906-15.939623-29.019774-5.834868-3.400453-13.234717-4.250566-19.340075-1.54566-6.259925 2.704906-10.819623 9.080755-10.665057 15.765736 0 6.839547 5.854189 11.341283 11.940227 14.220075 3.361811 1.603623 1.970717 7.496453-0.850114 9.814944-2.878792 2.376453-6.955472 2.56966-10.529811 1.275169-3.555019-1.27517-5.854189-7.67034-9.235321-6.105358-2.704906 1.255849 1.893434 18.103547-0.289811 19.629887-1.255849 0.869434-7.535094-1.159245-9.235321-1.294491a29.580075 29.580075 0 0 0-9.389887 0.579623c-6.259925 1.54566-12.075472 6.684981-12.075471 13.080151-0.154566 6.259925 4.965434 11.225358 9.525132 15.785056 4.540377 4.405132 9.235321 10.085434 7.824905 16.345359-1.990038 8.810264-15.514566 13.369962-13.795018 22.334792 1.27517 6.530415 11.090113 11.090113 8.810264 17.330717-2.279849 5.989434-12.365283 3.864151-16.499925 8.829585-3.825509 4.694943 0 11.940226-2.125283 17.620528-1.700226 4.405132-6.549736 6.684981-11.225358 7.689661-4.559698 1.139925-9.544453 1.410415-13.524529 3.980075-6.375849 3.980075-8.675019 12.230038-8.945509 19.610566-0.289811 7.535094 0.618264 15.205434-1.429736 22.334793-2.067321 7.225962-14.393962 5.216604-16.210113 12.500528-0.927396 3.767547 3.014038 7.187321-0.425057 8.69434-3.381132 1.468377-7.399849-0.444377-10.085434-2.994717-2.704906-2.56966-4.694943-5.834868-7.535094-8.249963-9.660377-7.67034-24.05434-1.79683-36.129811-4.694943a25.001057 25.001057 0 0 1-16.924981-14.490566c-2.975396-7.129358 6.279245-16.152151 1.564981-22.199547-5.583698-7.148679-18.567245 13.505208-26.160302 8.249962-7.380528-5.100679-10.336604-14.162113-18.760453-17.195472-8.501132-3.091321-18.625208-6.974792-20.48-15.785056-1.835472-8.69434 7.728302-25.696604-1.139925-25.6-4.733585 0.038642-6.375849 7.283925-10.819622 8.96483-4.521057 1.738868-7.805585-3.84483-12.635774-3.555019-6.259925 0.367094-0.966038 15.166792-6.684981 17.350038-2.086642 0.77283-3.690264-2.434415-5.12-3.980076 2.840151-17.639849 7.535094-34.56483 13.930264-50.774943l1.564981 0.425057c4.134642 1.564981 7.110038 4.830189 10.665057 7.399849 3.555019 2.55034 8.249962 4.540377 12.094792 2.704905 5.12-2.415094 7.245283-10.24 12.944906-10.104754 4.965434 0 8.501132 6.839547 13.505208 5.834868 2.55034-0.579623 4.115321-3.284528 6.105358-5.255246 4.694943-4.694943 12.094792-5.12 18.625208-4.134641 6.549736 0.850113 13.080151 2.994717 19.765132 2.279849 9.660377-0.850113 18.586566-8.076075 21.194868-17.485283 1.159245-4.250566 1.835472-9.660377 5.815547-11.51517 2.125283-1.004679 4.559698-0.714868 6.839547-0.425057 2.260528 0.270491 4.830189 0.270491 6.684981-1.159245 1.835472-1.410415 1.391094-4.443774 1.27517-6.66566-0.386415-7.090717 11.978868-7.612377 18.470641-10.529812 7.148679-3.187925 15.920302-5.081358 22.605283-0.714868 6.375849 4.173283 9.254642 13.234717 16.654491 15.514567 5.409811 1.700226 11.360604-1.429736 14.780377-5.834868 3.555019-4.559698 5.12-10.104755 6.549736-15.649812l17.060227-35.395622c2.279849-4.830189 4.540377-9.525132 6.820226-14.220076 3.84483-7.960151 7.824906-16.229434 14.490566-22.02566 7.68966-6.839547 18.219472-9.544453 26.469434-15.649812 2.55034-1.854792 4.830189-4.134642 6.955472-6.259924 34.275019 8.249962 65.690566 23.745208 92.565736 44.630943 1.990038 1.584302 3.84483 2.994717 5.699622 4.559698 2.415094 1.854792 4.540377 3.84483 6.820227 5.834868A247.55683 247.55683 0 0 1 903.631698 127.130566a235.597283 235.597283 0 0 1 30.005132 45.210566c-6.684981 5.409811-15.649811 8.114717-24.189585 9.660377-0.270491 0-0.425057 0.154566-0.695547 0.154566a172.109283 172.109283 0 0 1-34.139773 2.994717c3.129962 5.680302-6.994113 7.283925-8.520453 13.640453-2.724226 11.264 18.625208 14.490566 21.600603 25.6a17.65917 17.65917 0 0 1 17.775095 0.289812c5.409811 3.400453 8.539774 9.795623 7.979472 16.055547z" fill="#D0D0F7" /><path d="M838.230943 490.940377c-36.168453 21.407396-78.925283 33.560151-124.541585 33.560151-72.95517 0-145.485283-32.149736-194.386113-94.72966-0.115925-0.231849-0.347774-0.463698-0.463698-0.695547a247.054491 247.054491 0 0 0 150.856453 51.586415c52.822943 0 96.526491-15.128151 138.143396-42.23517 92.102038-59.89434 133.950792-183.296 93.203321-290.873962a239.712604 239.712604 0 0 0-36.380981-64.917736c23.764528 18.161509 46.485736 43.278491 62.579924 71.235623 67.023698 110.592 31.628075 267.128755-89.010717 337.069886z" fill="#D0D0F7" /><path d="M813.635623 448.879094a37.63683 37.63683 0 0 1-5.970114 9.389887c-7.535094 9.660377-25.735245 17.060226-22.605283 28.729962 1.139925 4.115321 11.090113 0.579623 11.940227 4.694944 1.27517 6.530415-2.415094 12.075472-1.854793 19.185509-78.577509 27.222943-167.240453 13.640453-234.167547-39.240453 6.530415 0.985358 13.215396 0 19.030944-3.555018 1.429736-0.850113 2.704906-1.854792 4.134641-2.840151 2.840151-1.990038 5.545057-3.980075 8.810264-4.694944 10.665057-2.840151 20.615245 7.67034 31.570113 7.824906 12.79034 0 22.02566-13.369962 34.54551-15.514566 8.249962-1.410415 17.639849 1.990038 24.614641-2.415095 4.250566-2.704906 6.530415-7.805585 7.110038-12.790339 0.425057-5.12-0.579623-10.104755-1.564981-15.070189l-2.56966-12.230038c-1.854792-9.235321-3.84483-18.915019-1.429736-28.150339 2.704906-10.954868 11.534491-19.900377 21.909736-24.32483 8.385208-3.555019 17.485283-4.540377 26.585358-5.545057 4.694943-0.425057 9.389887-0.985358 14.08483-1.410415 5.545057-0.714868 11.78566-1.004679 16.055547 2.415094 8.114717 6.530415 5.274566 23.03034 15.224755 26.025057 6.105358 1.835472 13.080151-3.419774 18.760453-0.714868 4.405132 1.835472 5.834868 7.110038 6.955472 11.650415 2.704906 12.230038 5.409811 24.32483 8.269283 36.554868 0.579623 2.260528 0.985358 4.540377 1.410415 6.820226 0.714868 5.12 1.004679 10.375245-0.850113 15.205434z" fill="#7979F7" /><path d="M933.675472 165.443623h-0.115925v0.115924c-0.811472 0.714868-1.738868 1.294491-2.56966 1.874113a36.303698 36.303698 0 0 1-7.380529 3.748227c-4.443774 1.874113-9.351245 3.149283-14.026867 3.980075h-0.115925c-0.231849 0-0.463698 0.115925-0.695547 0.115925a167.897358 167.897358 0 0 1-34.159094 3.033358c3.149283 5.603019-7.013434 7.245283-8.539774 13.679095a7.264604 7.264604 0 0 0 0.579623 5.274566v0.115924c3.864151 7.361208 18.605887 11.109434 21.059622 20.112906a17.871698 17.871698 0 0 1 17.775095 0.347773 17.408 17.408 0 0 1 7.960151 16.036227c-0.115925 0.579623-0.115925 1.159245-0.347774 1.622943a13.717736 13.717736 0 0 1-5.854189 9.003472c-3.748226 2.337811-8.539774-2.685585-12.172075-0.231849-2.221887 1.52634-1.507019 3.980075 0.115924 6.781585 2.936755 5.023396 9.138717 11.360604 6.201963 15.456604-0.115925 0.115925-0.231849 0.347774-0.463699 0.463698-3.516377 3.497057-12.867623-3.980075-16.615849 0-1.391094 1.507019-0.463698 4.076679 0.579623 6.549736 1.062642 2.898113 2.241208 5.603019 0 6.298566h-0.212528c-4.559698 1.178566-8.771623-4.076679-12.983547-1.854793-4.327849 2.318491-7.612377 6.317887-11.708378 8.771623-5.255245 3.149283-11.920906 3.864151-17.311396 1.27517a14.722415 14.722415 0 0 1-8.307925-9.583095 11.689057 11.689057 0 0 1-0.347773-4.907471c0.714868-6.66566 6.317887-11.824302 12.751698-13.910944 5.023396-1.642264 10.529811-1.758189 15.804377-1.54566 1.391094 0.135245 2.685585 0.25117 3.960755 0.25117a16.615849 16.615849 0 0 1-2.221887-19.996982 10.703698 10.703698 0 0 1 1.990038-2.704905c0.115925-1.043321 0.115925-2.105962 0.231849-3.149283a68.414792 68.414792 0 0 1-34.390943-34.159095c-0.212528-0.231849-0.347774-0.579623-0.463698-0.811471-14.722415-3.864151-27.590038-13.910943-35.666114-26.894491a64.975698 64.975698 0 0 1-9.119396-23.977056c-1.874113-11.225358-0.695547-22.933736-2.105962-34.275019-1.410415-11.457208-5.970113-23.165585-15.900981-29.000453-5.854189-3.400453-13.215396-4.327849-19.417359-1.642264a13.466566 13.466566 0 0 0-2.221887 1.159245c-5.023396 3.168604-8.539774 8.790943-8.423849 14.625811 0 1.159245 0.115925 2.221887 0.463698 3.168604 1.159245 3.980075 4.211925 6.897509 7.960151 9.235321 1.159245 0.695547 2.318491 1.294491 3.497057 1.874113 2.588981 1.159245 2.337811 4.791547 0.946717 7.477132a7.206642 7.206642 0 0 1-4.443774 3.864151 12.03683 12.03683 0 0 1-7.844226-0.231849c-3.497057-1.294491-5.834868-7.728302-9.235321-6.201962-1.159245 0.579623-0.927396 3.748226-0.463698 7.477132 0.347774 4.443774 1.159245 9.71834 0.463698 11.592453v0.115924c0 0.231849-0.115925 0.347774-0.231849 0.463698-1.294491 0.927396-7.612377-1.159245-9.235321-1.29449a32.111094 32.111094 0 0 0-9.467169 0.579622c-6.201962 1.54566-12.056151 6.684981-12.056151 13.118793a9.46717 9.46717 0 0 0 0.579622 3.612981c1.410415 4.559698 5.274566 8.539774 8.887548 12.172075 4.559698 4.443774 9.235321 10.046792 7.844226 16.36468l-0.347774 1.159245c-2.82083 8.095396-14.973585 12.53917-13.466566 21.194868a8.790943 8.790943 0 0 0 0.579623 1.854792c2.588981 5.62234 10.297962 9.71834 8.307924 15.456604a5.525736 5.525736 0 0 1-0.811471 1.391094c-3.284528 4.211925-11.920906 2.917434-15.669132 7.361208-2.337811 2.936755-1.874113 6.800906-1.642264 10.645736a13.795019 13.795019 0 0 1-0.115925 4.926792 6.820226 6.820226 0 0 1-0.463698 2.105963c-1.642264 4.443774-6.433811 6.66566-11.225359 7.728301-4.443774 1.043321-9.46717 1.391094-13.447245 3.960755-6.433811 3.980075-8.655698 12.172075-9.003472 19.649208-0.115925 2.221887 0 4.559698 0 6.762264v2.936755c0 4.211925-0.231849 8.423849-1.410415 12.519849-2.105962 7.245283-14.393962 5.255245-16.13283 12.519849-0.483019 1.854792 0.231849 3.728906 0.695547 5.255245 0.347774 1.410415 0.463698 2.56966-0.811471 3.284528-0.115925 0.115925-0.25117 0.231849-0.367095 0.231849-3.381132 1.391094-7.341887-0.483019-10.046792-3.052679s-4.675623-5.834868-7.612378-8.172679c-9.583094-7.728302-23.957736-1.874113-36.129811-4.810868a24.653283 24.653283 0 0 1-16.847698-14.490566v-0.115925c-1.738868-4.211925 0.830792-9.254642 2.221887-13.910943 0.830792-2.936755 1.159245-5.738264-0.695547-8.076076-5.603019-7.264604-18.605887 13.447245-26.198944 8.17268-7.361208-5.023396-10.297962-14.142792-18.721811-17.195472-8.404528-3.033358-18.354717-6.762264-20.344755-15.437283-0.115925-0.115925-0.115925-0.231849-0.115924-0.347774-0.927396-4.559698 1.159245-11.206038 2.221886-16.712452 0.927396-5.023396 0.811472-8.887547-3.400452-8.887548-4.675623 0.115925-6.414491 7.361208-10.74234 9.003472-4.579019 1.738868-7.844226-3.864151-12.635774-3.516377-6.317887 0.347774-1.062642 15.089509-6.781584 17.311396-1.52634 0.579623-2.82083-1.043321-3.980076-2.56966a7.283925 7.283925 0 0 0-1.062641-1.410415 241.760604 241.760604 0 0 1 13.910943-50.755623l1.54566 0.347773c4.076679 1.642264 7.129358 4.907472 10.626415 7.496453 3.632302 2.56966 8.307925 4.559698 12.172076 2.685585 5.023396-2.453736 7.245283-10.297962 12.867623-10.182038 5.023396 0 8.539774 6.897509 13.563169 5.854189 2.56966-0.579623 4.096-3.284528 6.086038-5.255245 4.675623-4.694943 12.03683-5.023396 18.586566-4.096 6.569057 0.811472 13.099472 3.033358 19.765132 2.221887a24.614642 24.614642 0 0 0 21.175547-17.427321c1.27517-4.211925 1.874113-9.71834 5.854189-11.592453 2.221887-0.927396 4.559698-0.695547 6.897509-0.347774 2.221887 0.231849 4.791547 0.231849 6.665661-1.159245 1.874113-1.410415 1.391094-4.443774 1.27517-6.66566-0.463698-7.148679 11.940226-7.612377 18.489962-10.529812 7.129358-3.168604 15.900981-5.023396 22.566641-0.695547 6.433811 4.076679 9.235321 13.215396 16.61585 15.437283 5.487094 1.738868 11.457208-1.410415 14.838339-5.738264 3.516377-4.559698 5.158642-10.182038 6.569057-15.669132 5.603019-11.824302 11.341283-23.629283 17.060226-35.434264 2.221887-4.810868 4.443774-9.46717 6.781585-14.162113 3.864151-8.076075 7.844226-16.248755 14.490566-22.102944 2.588981-2.337811 5.506415-4.096 8.559094-5.738264 5.970113-3.265208 12.519849-5.834868 17.891019-9.930868 2.56966-1.738868 4.791547-4.096 7.013434-6.182641 3.632302 0.792151 7.264604 1.854792 10.877585 2.898113 64.454038 18.470642 119.885283 64.879094 150.643925 124.560906z" fill="#5BC658" /><path d="M813.635623 448.879094a37.63683 37.63683 0 0 1-5.970114 9.389887c-7.535094 9.660377-25.735245 17.060226-22.605283 28.729962 1.139925 4.115321 11.090113 0.579623 11.940227 4.694944 1.27517 6.530415-2.415094 12.075472-1.854793 19.185509-78.577509 27.222943-167.240453 13.640453-234.167547-39.240453 6.530415 0.985358 13.215396 0 19.030944-3.555018 1.429736-0.850113 2.704906-1.854792 4.134641-2.840151 26.585358 9.950189 55.450566 15.340679 85.590944 15.340679 52.030792 0 102.438642-16.190792 144.751094-46.910793 0.714868 5.12 1.004679 10.375245-0.850113 15.205434z" fill="#5E5EEF" /><path d="M933.675472 165.443623h-0.115925v0.115924c-5.718943 4.907472-15.900981 8.172679-23.977056 9.602415h-0.115925c-9.486491-34.758038-22.02566-64.222189-44.80483-92.527094 29.386868 22.470038 54.214038 54.098113 69.013736 82.808755z" fill="#49A247" /></svg>