<?xml version="1.0" standalone="no"?><!DOCTYPE svg PUBLIC "-//W3C//DTD SVG 1.1//EN" "http://www.w3.org/Graphics/SVG/1.1/DTD/svg11.dtd"><svg class="icon" width="200px" height="200.00px" viewBox="0 0 1024 1024" version="1.1" xmlns="http://www.w3.org/2000/svg"><path d="M917.523321 807.839396v108.02234a59.89434 59.89434 0 0 1-59.836378 59.836377H166.313057a59.89434 59.89434 0 0 1-59.836378-59.836377v-108.02234c0-56.030189 18.296755-107.307472 49.383849-148.866415v-0.231849c38.467623-51.528453 96.642415-88.334491 163.58883-98.05283 0.483019 0 0.966038-0.25117 1.429736-0.25117 4.501736-0.463698 64.569962-0.946717 135.805585-0.946717a12484.492075 12484.492075 0 0 1 133.429132 0c60.783094 0 108.969057 0.483019 113.026415 0.966038 6.163321 0.946717 12.326642 1.893434 18.258114 3.303849 59.836377 13.06083 111.36483 47.722264 146.741132 94.98083a249.179774 249.179774 0 0 1 49.383849 149.098264z" fill="#A04747" /><path d="M178.079396 821.132075h-0.444377a17.833057 17.833057 0 0 1-17.388679-18.238792c1.043321-41.037283 14.297358-79.736755 38.371018-111.905811a17.794415 17.794415 0 1 1 28.517434 21.330113 158.063094 158.063094 0 0 0-31.260981 91.445132 17.813736 17.813736 0 0 1-17.794415 17.388679zM259.59366 675.646792a17.794415 17.794415 0 0 1-9.679698-32.768 197.554717 197.554717 0 0 1 39.549585-19.649207 17.813736 17.813736 0 1 1 12.152755 33.482868 161.424906 161.424906 0 0 0-32.362264 16.074868 17.794415 17.794415 0 0 1-9.660378 2.859471z" fill="#FFFFFF" opacity=".4" /><path d="M721.39834 563.779623l-88.547019 151.474717a10.433208 10.433208 0 0 1-16.615849 1.893434L523.399245 630.243019l-11.882264-11.148076 11.882264-9.022792 66.714566-50.581736c60.783094 0 108.969057 0.483019 113.026415 0.966038 6.163321 0.946717 12.326642 1.893434 18.258114 3.303849z" fill="#7F3939" /><path d="M535.262189 619.094943l-11.862944 11.148076-92.604377 86.904755a10.433208 10.433208 0 0 1-16.615849-1.893434l-94.729661-154.566038c0.483019 0 0.966038-0.25117 1.429736-0.25117 4.501736-0.463698 64.569962-0.946717 135.805585-0.946717l66.714566 50.581736z" fill="#7F3939" /><path d="M430.485736 500.079094v88.991397a90.904151 90.904151 0 0 0 181.808302 0v-88.991397z" fill="#F4B37D" /><path d="M612.197434 500.021132v89.030038a90.710943 90.710943 0 0 1-52.938868 82.615547c10.665057-14.954264 17.079547-33.231698 17.079547-52.938868v-37.424302a58.097509 58.097509 0 0 0-58.097509-58.11683h-87.677585v-23.184906z" fill="#F2A764" /><path d="M917.523321 807.839396v108.02234a59.89434 59.89434 0 0 1-59.836378 59.836377H166.313057a59.932981 59.932981 0 0 1-56.513208-40.129207c6.182642 2.125283 12.828981 3.32317 19.70717 3.323169h691.373887a59.89434 59.89434 0 0 0 59.836377-59.817056v-108.041661c0-56.030189-18.277434-107.539321-49.383849-149.098264-2.125283-2.840151-4.038038-5.448453-6.414491-8.076075a241.895849 241.895849 0 0 1 43.220529 44.882113 249.179774 249.179774 0 0 1 49.383849 149.098264z" fill="#7F3939" /><path d="M553.790792 697.923623l26.817208 175.683622c0.966038 5.467774-0.695547 11.399245-4.250566 15.669132l-37.772076 44.882114a19.765132 19.765132 0 0 1-30.391547 0l-37.501585-44.882114a19.97766 19.97766 0 0 1-4.269886-15.669132l26.817207-175.683622-20.653887-20.673208-10.916226-10.916226 59.121509-58.87034 2.840151-2.859472 61.729812 61.729812-11.148076 11.167396z" fill="#474646" /><path d="M494.07034 836.588679a5.931472 5.931472 0 0 1-5.87351-6.820226l9.216-60.435321a5.931472 5.931472 0 1 1 11.727698 1.816151l-9.216 60.416a5.931472 5.931472 0 0 1-5.854188 5.023396zM507.034566 751.770566a5.931472 5.931472 0 0 1-5.89283-6.839547l1.352453-8.732981a5.931472 5.931472 0 1 1 11.727698 1.816151l-1.352453 8.71366a5.950792 5.950792 0 0 1-5.834868 5.023396z" fill="#FFFFFF" opacity=".4" /><path d="M526.490566 607.444528l-3.091321 2.144604-2.608302-2.125283 2.840151-2.859472z" fill="#F05543" /><path d="M553.790792 697.923623l26.817208 175.683622c0.966038 5.467774-0.695547 11.399245-4.250566 15.669132l-37.772076 44.882114a19.533283 19.533283 0 0 1-23.745207 5.216603c2.376453-1.197887 4.752906-2.859472 6.66566-5.216603l37.733434-44.882114c3.57434-4.269887 5.216604-10.201358 4.289208-15.669132l-26.025057-170.370415a10.626415 10.626415 0 0 1 2.994717-9.119396l11.167396-11.186717a18.837736 18.837736 0 0 0-0.425056-27.049057l-20.170868-18.934339a11.225358 11.225358 0 0 0-15.36 0l-43.123925 40.303094-10.916226-10.916226 53.421887-53.190038 5.699622-5.680302 2.608302 2.125283 3.091321-2.125283 58.87034 58.87034-11.148076 11.167396z" fill="#2D2C2C" /><path d="M619.925736 528.499925l94.497811 33.888603-81.533585 137.930868a10.549132 10.549132 0 0 1-16.693132 1.79683l-104.583245-98.072151 97.318641-73.805283a10.549132 10.549132 0 0 1 10.99351-1.738867z" fill="#D0D0F7" /><path d="M427.065962 528.499925l-97.492528 31.666717 84.508981 140.152754c3.59366 5.970113 11.901585 6.858868 16.693132 1.79683l104.583245-98.072151-97.318641-73.805283a10.549132 10.549132 0 0 0-10.974189-1.738867z" fill="#D0D0F7" /><path d="M714.520151 562.349887l-81.66883 137.950188a10.549132 10.549132 0 0 1-16.615849 1.893434l-92.836227-86.904754-11.882264-11.148076 11.882264-9.022792 6.64634-4.984755 86.170566 80.702793a10.529811 10.529811 0 0 0 16.615849-1.642265l66.502038-112.311547z" fill="#C2C2EF" /><path d="M535.262189 604.140679l-11.862944 11.148076-92.604377 86.904754a10.549132 10.549132 0 0 1-16.615849-1.912754l-84.508981-140.075472 15.649811-5.216604 68.85917 114.185661a10.529811 10.529811 0 0 0 16.615849 1.661585l85.958038-80.702793 6.646339 4.984755z" fill="#C2C2EF" /><path d="M850.982642 114.147019v320.028981a65.845132 65.845132 0 0 1-65.845133 65.845132H257.661585a65.845132 65.845132 0 0 1-65.845132-65.845132V114.147019A65.845132 65.845132 0 0 1 257.661585 48.301887h527.456604a65.845132 65.845132 0 0 1 65.864453 65.845132z" fill="#A2A2F9" /><path d="M850.866717 114.050415v320.164227a65.748528 65.748528 0 0 1-65.806491 65.825811H257.54566a65.845132 65.845132 0 0 1-59.546566-37.868679c9.660377 5.796226 21.214189 8.926189 33.27034 8.926188h527.475924a65.903094 65.903094 0 0 0 65.825812-65.80649V85.146566c0-9.911547-2.163925-19.320755-6.259925-27.744604a65.439396 65.439396 0 0 1 32.536151 56.648453z" fill="#7979F7" /><path d="M264.114717 389.409811V158.913208c0-21.156226 17.15683-38.293736 38.293736-38.293736H740.371321c21.156226 0 38.293736 17.137509 38.293736 38.274415v230.496604a38.274415 38.274415 0 0 1-38.293736 38.293735H302.408453a38.274415 38.274415 0 0 1-38.274415-38.274415z" fill="#FFFFFF" /><path d="M778.549132 320.183547v69.187623a38.216453 38.216453 0 0 1-38.100528 38.332377H302.408453a38.274415 38.274415 0 0 1-38.332378-38.332377v-12.288c71.100377 17.833057 159.106415 23.861132 253.140529 14.703094 101.723774-9.892226 193.091623-36.168453 261.332528-71.602717z" fill="#E4E3FF" /><path d="M572.725132 294.448302l-72.375547 53.788981c-16.751094 12.461887-40.534943 0.50234-40.534943-20.383396v-107.423396c0-20.847094 23.764528-32.806642 40.515622-20.383397l72.356227 53.615095c13.717736 10.143396 13.717736 30.623396 0.038641 40.766792z" fill="#2D2C2C" /><path d="M572.66717 294.39034l-72.336906 53.750339c-14.934943 11.090113-35.434264 2.898113-39.781434-13.968905 7.728302 3.612981 17.369358 3.361811 25.561359-2.646944l72.317585-53.76966c9.177358-6.762264 12.307321-18.084226 8.926188-27.976453l5.313208 3.864151a25.290868 25.290868 0 0 1 0 40.747472z" fill="#1B1B1B" /><path d="M747.26883 84.624906a9.853585 9.853585 0 0 1-9.853585 9.853585h-159.686037a9.853585 9.853585 0 0 1 0-19.70717h159.686037a9.853585 9.853585 0 0 1 9.853585 9.853585zM551.298415 84.624906a9.853585 9.853585 0 0 1-9.853585 9.853585h-13.002868a9.853585 9.853585 0 0 1 0-19.70717h13.002868a9.853585 9.853585 0 0 1 9.853585 9.853585z" fill="#FFFFFF" opacity=".4" /><path d="M230.805736 373.953208a9.853585 9.853585 0 0 1-9.853585-9.853585v-87.368453a9.853585 9.853585 0 0 1 19.70717 0v87.368453a9.853585 9.853585 0 0 1-9.853585 9.853585zM230.805736 250.300377a9.853585 9.853585 0 0 1-9.853585-9.853585v-12.983547a9.853585 9.853585 0 0 1 19.70717 0v13.002868a9.853585 9.853585 0 0 1-9.853585 9.834264z" fill="#FFFFFF" opacity=".4" /></svg>