<?xml version="1.0" standalone="no"?><!DOCTYPE svg PUBLIC "-//W3C//DTD SVG 1.1//EN" "http://www.w3.org/Graphics/SVG/1.1/DTD/svg11.dtd"><svg class="icon" width="200px" height="200.00px" viewBox="0 0 1024 1024" version="1.1" xmlns="http://www.w3.org/2000/svg"><path d="M975.698113 180.262642v613.240754h-927.396226V180.262642c0-72.839245 59.121509-131.960755 131.960755-131.960755h663.474716c72.839245 0 131.960755 59.121509 131.960755 131.960755z" fill="#F9B938" /><path d="M975.698113 180.262642v613.240754h-927.396226v-43.664905h843.679396a45.287849 45.287849 0 0 0 45.268528-45.268529V136.597736c0-22.798491-5.796226-44.244528-16.036226-62.985661a131.439094 131.439094 0 0 1 54.484528 106.650567z" fill="#ECB021" /><path d="M898.415094 196.685283v455.969811a71.100377 71.100377 0 0 1-71.100377 71.100378H196.685283a71.100377 71.100377 0 0 1-71.100377-71.100378v-455.969811a71.100377 71.100377 0 0 1 71.100377-71.100377h630.629434a71.100377 71.100377 0 0 1 71.100377 71.100377z" fill="#FFFFFF" /><path d="M891.846038 166.931321c-7.921509-3.091321-16.422642-4.830189-25.310189-4.830189H235.906415c-39.221132 0-71.100377 31.879245-71.100377 71.100377v455.969812c0 10.626415 2.318491 20.866415 6.569056 29.94717a71.332226 71.332226 0 0 1-45.790188-66.463397v-455.969811c0-39.221132 31.879245-71.100377 71.100377-71.100377h630.629434c28.594717 0 53.325283 17.002264 64.531321 41.346415zM48.301887 793.445434v50.330566A131.922113 131.922113 0 0 0 180.224 975.698113h663.552a131.922113 131.922113 0 0 0 131.922113-131.922113v-50.330566z" fill="#E4E3FF" /><path d="M975.698113 814.563019v29.174339c0 72.839245-59.121509 131.960755-131.960755 131.960755H180.262642c-72.839245 0-131.960755-59.121509-131.960755-131.960755v-29.174339c0 72.839245 59.121509 131.960755 131.960755 131.960755h663.474716c72.839245 0 131.960755-59.121509 131.960755-131.960755z" fill="#D0D0F7" /><path d="M650.645736 667.841208v55.875622h-392.404528v-55.875622c0-62.521962 47.084679-112.176302 103.713811-119.653434 0.927396-0.154566 7.438491-0.309132 17.485283-0.309132 4.443774-0.154566 9.660377-0.154566 15.321358-0.154567h119.209057c5.680302 0 10.877585 0 15.321358 0.154567 10.046792 0 16.712453 0.154566 17.63985 0.309132a117.025811 117.025811 0 0 1 49.383849 18.876377c29.618717 18.122868 54.329962 56.397283 54.329962 100.777057z" fill="#B75F25" /><path d="M297.423698 695.199396a14.08483 14.08483 0 0 1-13.427924-14.722415l0.695547-14.838339c1.120604-24.015698 11.148075-47.644981 28.131019-64.666567a14.104151 14.104151 0 0 1 19.958339 19.900378c-12.249358 12.268679-19.166189 29.464151-19.939019 46.08l-0.695547 14.838339a14.08483 14.08483 0 0 1-14.722415 13.408604z" fill="#FFFFFF" opacity=".3" /><path d="M650.665057 667.725283v56.030189H258.105962v-21.987019h322.057661a45.133283 45.133283 0 0 0 45.133283-45.133283v-10.626415a119.672755 119.672755 0 0 0-23.667925-72.143698c-1.700226-2.241208-3.670943-4.501736-5.351849-6.762265 34.777358 20.866415 54.387925 62.193509 54.387925 100.60317z" fill="#AA5821" /><path d="M529.292075 547.878642v3.400452a74.964528 74.964528 0 0 1-74.925886 74.925887 74.964528 74.964528 0 0 1-74.925887-74.925887v-3.400452c4.501736-0.154566 9.756981-0.154566 15.495245-0.154567a7600.591698 7600.591698 0 0 1 118.880604 0c5.718943 0 10.993509 0 15.456604 0.154567z" fill="#E4E3FF" /><path d="M498.398189 513.27517v37.926641a43.993358 43.993358 0 1 1-87.986717 0v-37.926641c13.582491 9.525132 26.508075 15.205434 43.993358 15.205434 17.504604 0 30.410868-5.680302 43.993359-15.205434z" fill="#F7C9A9" /><path d="M498.320906 513.352453v37.926641a43.858113 43.858113 0 0 1-15.939623 33.907925c0.618264-2.801509 0.927396-5.738264 0.927396-8.69434 0-15.36-13.968906-27.609358-29.000453-24.305509-4.636981 1.024-9.583094 1.564981-14.954264 1.564981a66.849811 66.849811 0 0 1-28.94249-6.337208V513.352453c13.621132 9.447849 26.469434 15.166792 43.954717 15.166792 17.485283 0 30.507472-5.718943 43.954717-15.166792z" fill="#E8AA80" /><path d="M553.829434 324.395472v112.64a100.796377 100.796377 0 1 1-201.612076 0v-112.64c62.251472-48.263245 129.874113-44.051321 201.612076 0z" fill="#F7C9A9" /><path d="M553.848755 425.230491v11.78566c0 55.663094-45.191245 100.85434-100.85434 100.85434a100.757736 100.757736 0 0 1-100.738415-100.85434v-11.78566a100.757736 100.757736 0 0 0 100.757736 100.835018c55.643774 0 100.835019-45.191245 100.835019-100.854339z" fill="#F0B68E" /><path d="M553.829434 361.955019v75.157736a37.63683 37.63683 0 0 0 36.864-37.578868 37.63683 37.63683 0 0 0-36.864-37.578868zM352.217358 361.955019v75.157736a37.63683 37.63683 0 0 1-36.864-37.578868c0-20.518642 16.441962-37.134491 36.864-37.578868z" fill="#F7C9A9" /><path d="M590.654792 399.514566a37.598189 37.598189 0 0 1-36.806037 37.598189v-6.955472c19.108226-0.444377 34.777358-15.070189 36.632151-33.811321 0.096604 1.043321 0.193208 2.105962 0.193207 3.168604zM352.256 430.157283v6.955472a37.675472 37.675472 0 0 1-36.728755-40.766793c1.932075 18.741132 17.523925 33.366943 36.709434 33.811321z" fill="#F0B68E" /><path d="M359.67517 416.149736l2.82083-47.992755a7.651019 7.651019 0 0 1 6.182642-7.090717c11.592453-2.221887 37.907321-9.525132 54.175396-31.628075 2.975396-4.018717 8.810264-4.540377 12.075471-0.75351 11.882264 13.83366 42.215849 38.854038 103.597887 34.101132a7.747623 7.747623 0 0 1 8.481812 7.651019v45.712906c8.076075-16.441962 7.882868-62.270792 29.947169-45.616302 68.221585-120.947925-90.285887-239.384151-202.520151-129.333132a6.163321 6.163321 0 0 1-5.332528 1.738868c-11.418566-1.932075-51.992151-3.728906-48.920151 69.747924 1.680906 39.800755 8.617057 58.058868 8.617057 58.058868 18.625208-7.245283 22.566642 11.534491 30.874566 45.403774z" fill="#2D2C2C" /><path d="M593.205132 318.831094c-6.453132-90.691623-127.806792-151.532679-218.710943-62.406037a6.337208 6.337208 0 0 1-5.487095 1.777509c-10.723019-1.79683-45.983396-3.284528-48.804226 54.484528-3.091321-73.399547 37.38566-71.660679 48.881509-69.709283a6.240604 6.240604 0 0 0 5.409812-1.777509c95.869585-94.014792 225.705057-21.136906 218.710943 77.630792z" fill="#1B1B1B" /><path d="M467.291774 446.96634c2.028679 3.806189 1.255849 8.887547-1.545661 12.713056-2.704906 4.018717-7.747623 6.337208-12.713056 6.414491-5.004075-0.038642-10.046792-2.376453-12.751699-6.39517-2.801509-3.864151-3.57434-8.926189-1.54566-12.751698 4.076679 7.380528 9.389887 9.428528 14.278038 9.48649 4.926792-0.038642 10.24-2.105962 14.278038-9.467169z" fill="#E8AA80" /><path d="M510.106566 417.714717a13.679094 13.679094 0 1 1-27.338868 0 13.679094 13.679094 0 0 1 27.338868 0zM511.47834 395.476528h-30.024453a2.898113 2.898113 0 0 1 0-5.815547h30.024453a2.898113 2.898113 0 0 1 0 5.796227zM423.240453 417.714717a13.679094 13.679094 0 1 1-27.358189 0 13.679094 13.679094 0 0 1 27.358189 0zM424.592906 395.476528h-30.024453a2.898113 2.898113 0 0 1 0-5.815547h30.024453a2.898113 2.898113 0 0 1 0 5.796227z" fill="#2D2C2C" /><path d="M426.273811 486.052226c-3.439094 0-5.564377 3.999396-3.419773 6.704302a38.293736 38.293736 0 0 0 60.338717 0c2.125283-2.704906 0-6.704302-3.439095-6.704302z" fill="#E8AA80" /><path d="M564.900226 411.184302a2.898113 2.898113 0 0 1-0.193207-4.096c5.332528-5.89283 1.313811-13.910943 1.255849-14.007547a2.898113 2.898113 0 0 1 1.255849-3.902793 2.936755 2.936755 0 0 1 3.922113 1.255849c0.231849 0.463698 5.854189 11.708377-2.125283 20.537963a2.898113 2.898113 0 0 1-4.115321 0.212528zM338.151849 410.971774c-7.998792-8.829585-2.376453-20.074264-2.125283-20.537963a2.898113 2.898113 0 0 1 3.902792-1.255849 2.917434 2.917434 0 0 1 1.25585 3.902793c-0.173887 0.309132-4.038038 8.172679 1.275169 14.007547a2.898113 2.898113 0 1 1-4.308528 3.883472z" fill="#F0B68E" /><path d="M87.233208 549.231094a14.490566 14.490566 0 0 1-14.490566-14.490566v-170.602264a14.490566 14.490566 0 0 1 28.981132 0v170.602264a14.490566 14.490566 0 0 1-14.490566 14.490566zM87.233208 325.206943a14.490566 14.490566 0 0 1-14.490566-14.490566v-19.166188a14.490566 14.490566 0 0 1 28.981132 0v19.166188a14.490566 14.490566 0 0 1-14.490566 14.490566z" fill="#FFFFFF" opacity=".4" /><path d="M864.893585 899.052679H314.580528a14.490566 14.490566 0 0 1 0-28.981132h550.313057a14.490566 14.490566 0 0 1 0 28.981132z" fill="#474646" /><path d="M240.253585 895.961358l-41.539623 28.672a13.756377 13.756377 0 0 1-21.561962-11.302641v-57.498566a13.756377 13.756377 0 0 1 21.600604-11.302642l41.539622 28.807246a13.756377 13.756377 0 0 1-0.038641 22.624603z" fill="#474646" /><path d="M560.282566 920.479396a14.490566 14.490566 0 0 1-14.490566-14.490566v-42.834113a14.490566 14.490566 0 0 1 28.981132 0v42.834113a14.490566 14.490566 0 0 1-14.490566 14.490566z" fill="#474646" /><path d="M682.48634 84.702189a14.490566 14.490566 0 0 1-14.490566 14.490566h-170.621585a14.490566 14.490566 0 0 1 0-28.981132h170.602264a14.490566 14.490566 0 0 1 14.490566 14.490566zM458.442868 84.702189a14.490566 14.490566 0 0 1-14.490566 14.490566h-19.146868a14.490566 14.490566 0 0 1 0-28.981132h19.146868a14.490566 14.490566 0 0 1 14.490566 14.490566z" fill="#FFFFFF" opacity=".4" /><path d="M967.17766 422.641509c-6.511094 63.545962-58.580528 114.456151-122.203773 119.634114a133.429132 133.429132 0 0 1-78.152453-17.330717l-46.814189 18.586566a5.815547 5.815547 0 0 1-7.824905-6.89751l13.157434-48.823547a133.660981 133.660981 0 0 1-25.542038-90.479094c5.12-64.067623 56.493887-116.388226 120.503547-122.570868 85.049962-8.114717 155.686642 62.908377 146.876377 147.881056z" fill="#7979F7" /><path d="M796.478792 305.808906c-28.478792 11.321962-50.910189 33.598792-63.372075 60.68649h12.133434a107.326792 107.326792 0 0 1 55.315321-50.42717 5.525736 5.525736 0 0 0-4.057359-10.25932z" fill="#FFFFFF" opacity=".3" /><path d="M852.238491 309.402566c-0.212528 0-0.425057 0-0.637585-0.038641a108.969057 108.969057 0 0 0-22.624604-0.193208 5.564377 5.564377 0 0 1-6.008755-4.965434 5.525736 5.525736 0 0 1 4.965434-6.008755c8.269283-0.792151 16.654491-0.714868 24.923774 0.231849a5.506415 5.506415 0 0 1-0.618264 10.974189z" fill="#FFFFFF" opacity=".3" /><path d="M967.196981 422.641509c-6.491774 63.545962-58.561208 114.456151-122.184453 119.634114a133.429132 133.429132 0 0 1-78.152453-17.330717l-46.814188 18.586566a5.854189 5.854189 0 0 1-7.805585-6.955472l4.463094-16.577208 32.227019-12.80966a17.388679 17.388679 0 0 1 14.258717 0.850113 133.854189 133.854189 0 0 0 71.235623 13.582491c63.603925-5.177962 115.673358-56.107472 122.184453-119.634113a135.148679 135.148679 0 0 0-9.061434-64.859774 134.279245 134.279245 0 0 1 19.668528 85.51366z" fill="#5E5EEF" /><path d="M779.437887 398.393962m-20.325434 0a20.325434 20.325434 0 1 0 40.650868 0 20.325434 20.325434 0 1 0-40.650868 0Z" fill="#FFFFFF" /><path d="M838.559396 398.393962m-20.325434 0a20.325434 20.325434 0 1 0 40.650868 0 20.325434 20.325434 0 1 0-40.650868 0Z" fill="#FFFFFF" /><path d="M897.700226 398.393962m-20.325434 0a20.325434 20.325434 0 1 0 40.650868 0 20.325434 20.325434 0 1 0-40.650868 0Z" fill="#FFFFFF" /><path d="M799.686038 398.393962c0 11.206038-8.887547 20.286792-20.286793 20.286793-8.501132 0-15.649811-5.023396-18.741132-12.365283 3.477736 2.511698 7.921509 4.250566 12.558491 4.250566 11.206038 0 20.286792-9.273962 20.286792-20.286793 0-2.704906-0.579623-5.409811-1.54566-7.728302 4.830189 3.477736 7.728302 9.273962 7.728302 15.843019zM858.807547 398.393962c0 11.206038-8.887547 20.286792-20.286792 20.286793-8.307925 0-15.456604-5.023396-18.741132-12.365283 3.477736 2.511698 7.921509 4.250566 12.55849 4.250566 11.206038 0 20.286792-9.273962 20.286793-20.286793 0-2.704906-0.579623-5.409811-1.545661-7.728302 4.830189 3.477736 7.728302 9.273962 7.728302 15.843019zM918.122264 398.393962c0 11.206038-9.080755 20.286792-20.48 20.286793-8.307925 0-15.456604-5.023396-18.741132-12.365283 3.477736 2.511698 7.921509 4.250566 12.558491 4.250566 11.206038 0 20.286792-9.273962 20.286792-20.286793 0-2.704906-0.579623-5.409811-1.54566-7.728302 4.830189 3.477736 7.921509 9.273962 7.921509 15.843019z" fill="#D0D0F7" /></svg>