<?xml version="1.0" standalone="no"?><!DOCTYPE svg PUBLIC "-//W3C//DTD SVG 1.1//EN" "http://www.w3.org/Graphics/SVG/1.1/DTD/svg11.dtd"><svg class="icon" width="200px" height="200.00px" viewBox="0 0 1024 1024" version="1.1" xmlns="http://www.w3.org/2000/svg"><path d="M975.659472 604.565736v313.015547a58.078189 58.078189 0 0 1-58.09751 58.078189H106.341434a58.078189 58.078189 0 0 1-58.078189-58.078189v-312.996226a58.078189 58.078189 0 0 1 58.078189-58.09751H917.542642a58.078189 58.078189 0 0 1 58.097509 58.078189z" fill="#E4E3FF" /><path d="M975.736755 604.507774v312.996226c0 32.072453-26.083019 58.155472-58.155472 58.155472H106.302792c-23.184906 0-43.085283-13.717736-52.552452-33.424906 6.569057 2.704906 13.717736 4.057358 21.25283 4.057359h811.27849c32.072453 0 57.962264-26.083019 57.962265-58.155472v-312.996227c0-8.887547-1.932075-17.195472-5.603019-24.730566 21.639245 8.501132 37.095849 29.560755 37.095849 54.098114z" fill="#D0D0F7" /><path d="M975.659472 106.418717v312.996226a58.078189 58.078189 0 0 1-58.09751 58.09751H106.341434a58.078189 58.078189 0 0 1-58.078189-58.078189V106.418717a58.078189 58.078189 0 0 1 58.078189-58.078189H917.542642a58.078189 58.078189 0 0 1 58.097509 58.078189z" fill="#E4E3FF" /><path d="M106.341434 438.870943a19.475321 19.475321 0 0 1-19.456-19.436679V106.418717c0-10.723019 8.732981-19.436679 19.456-19.436679H917.542642c10.723019 0 19.436679 8.71366 19.436679 19.436679v313.015547c0 10.723019-8.71366 19.436679-19.436679 19.436679zM219.619019 477.512453h97.376604v69.052377h-97.376604zM706.907774 477.512453h97.376603v69.052377h-97.376603z" fill="#D0D0F7" /><path d="M791.571321 770.743547H232.332075a9.660377 9.660377 0 1 1 0-19.320755H791.571321a9.660377 9.660377 0 1 1 0 19.320755z" fill="#C2C2EF" /><path d="M136.829585 713.322264v-75.621434c0-10.162717 8.230642-18.393358 18.374038-18.393358h36.129811c10.162717 0 18.393358 8.230642 18.393358 18.393358v75.621434a18.374038 18.374038 0 0 1-18.393358 18.374038h-36.129811a18.374038 18.374038 0 0 1-18.374038-18.374038z" fill="#EF6CEF" /><path d="M136.829585 884.465509v-75.640754c0-10.143396 8.230642-18.374038 18.374038-18.374038h36.129811c10.162717 0 18.393358 8.230642 18.393358 18.374038v75.640754a18.374038 18.374038 0 0 1-18.393358 18.374038h-36.129811a18.374038 18.374038 0 0 1-18.374038-18.374038z" fill="#A04747" /><path d="M209.66883 637.739472v75.544151c0 10.24-8.114717 18.354717-18.354717 18.354717h-36.129811c-8.887547 0-16.422642-6.375849-17.968302-14.876982 2.125283 0.966038 4.443774 1.352453 6.762264 1.352453h36.129811c10.24 0 18.354717-8.307925 18.354717-18.547924v-75.544151c0-1.159245-0.193208-2.318491-0.386415-3.477736 6.762264 2.704906 11.592453 9.46717 11.592453 17.195472z" fill="#E161E5" /><path d="M209.66883 808.747472v75.737358c0 10.046792-8.114717 18.354717-18.354717 18.354717h-36.129811c-8.887547 0-16.422642-6.375849-17.968302-14.876981 2.125283 0.77283 4.443774 1.159245 6.762264 1.159245h36.129811c10.24 0 18.354717-8.114717 18.354717-18.354717v-75.544151c0-1.159245-0.193208-2.318491-0.386415-3.477735 6.762264 2.704906 11.592453 9.273962 11.592453 17.002264z" fill="#7F3939" /><path d="M154.643321 688.784906a4.830189 4.830189 0 0 1-4.830189-4.830189v-22.489359a4.830189 4.830189 0 0 1 9.660377 0V683.954717a4.830189 4.830189 0 0 1-4.830188 4.830189zM154.643321 650.336604a4.830189 4.830189 0 0 1-4.830189-4.830189v-2.048a4.830189 4.830189 0 0 1 9.660377 0v2.028679a4.830189 4.830189 0 0 1-4.830188 4.830189z" fill="#FFFFFF" opacity=".3" /><path d="M154.643321 865.589132a4.830189 4.830189 0 0 1-4.830189-4.830189v-22.489358a4.830189 4.830189 0 0 1 9.660377 0v22.489358a4.830189 4.830189 0 0 1-4.830188 4.830189zM154.643321 827.121509a4.830189 4.830189 0 0 1-4.830189-4.830188v-2.028679a4.830189 4.830189 0 0 1 9.660377 0v2.028679a4.830189 4.830189 0 0 1-4.830188 4.830188z" fill="#FFFFFF" opacity=".3" /><path d="M272.287396 713.322264v-75.621434c0-10.162717 8.230642-18.393358 18.393359-18.393358h36.129811c10.143396 0 18.374038 8.230642 18.374038 18.393358v75.621434a18.374038 18.374038 0 0 1-18.374038 18.374038h-36.129811a18.374038 18.374038 0 0 1-18.393359-18.374038z" fill="#F7E839" /><path d="M272.287396 884.465509v-75.640754c0-10.143396 8.230642-18.374038 18.393359-18.374038h36.129811c10.143396 0 18.374038 8.230642 18.374038 18.374038v75.640754a18.374038 18.374038 0 0 1-18.374038 18.374038h-36.129811a18.374038 18.374038 0 0 1-18.393359-18.374038z" fill="#B6A3EF" /><path d="M345.145962 637.739472v75.544151c0 10.24-8.114717 18.354717-18.354717 18.354717h-36.129811c-8.887547 0-16.422642-6.375849-17.968302-14.876982 2.125283 0.966038 4.443774 1.352453 6.762264 1.352453h36.129812c10.24 0 18.354717-8.307925 18.354717-18.547924v-75.544151c0-1.159245-0.193208-2.318491-0.386416-3.477736 6.762264 2.704906 11.592453 9.46717 11.592453 17.195472z" fill="#EDD318" /><path d="M345.145962 808.747472v75.737358c0 10.046792-8.114717 18.354717-18.354717 18.354717h-36.129811c-8.887547 0-16.422642-6.375849-17.968302-14.876981 2.125283 0.77283 4.443774 1.159245 6.762264 1.159245h36.129812c10.24 0 18.354717-8.114717 18.354717-18.354717v-75.544151c0-1.159245-0.193208-2.318491-0.386416-3.477735 6.762264 2.704906 11.592453 9.273962 11.592453 17.002264z" fill="#A186E0" /><path d="M290.120453 688.784906a4.830189 4.830189 0 0 1-4.830189-4.830189v-22.489359a4.830189 4.830189 0 0 1 9.660378 0V683.954717a4.830189 4.830189 0 0 1-4.830189 4.830189zM290.120453 650.336604a4.830189 4.830189 0 0 1-4.830189-4.830189v-2.048a4.830189 4.830189 0 0 1 9.660378 0v2.028679a4.830189 4.830189 0 0 1-4.830189 4.830189z" fill="#FFFFFF" opacity=".3" /><path d="M290.120453 865.589132a4.830189 4.830189 0 0 1-4.830189-4.830189v-22.489358a4.830189 4.830189 0 0 1 9.660378 0v22.489358a4.830189 4.830189 0 0 1-4.830189 4.830189zM290.120453 827.121509a4.830189 4.830189 0 0 1-4.830189-4.830188v-2.028679a4.830189 4.830189 0 0 1 9.660378 0v2.028679a4.830189 4.830189 0 0 1-4.830189 4.830188z" fill="#FFFFFF" opacity=".3" /><path d="M407.764528 713.322264v-75.621434c0-10.162717 8.230642-18.393358 18.393359-18.393358h36.129811c10.143396 0 18.374038 8.230642 18.374038 18.393358v75.621434a18.374038 18.374038 0 0 1-18.374038 18.374038h-36.129811a18.374038 18.374038 0 0 1-18.393359-18.374038z" fill="#7979F7" /><path d="M407.764528 884.465509v-75.640754c0-10.143396 8.230642-18.374038 18.393359-18.374038h36.129811c10.143396 0 18.374038 8.230642 18.374038 18.374038v75.640754a18.374038 18.374038 0 0 1-18.374038 18.374038h-36.129811a18.374038 18.374038 0 0 1-18.393359-18.374038z" fill="#474646" /><path d="M480.623094 637.739472v75.544151c0 10.24-8.114717 18.354717-18.354717 18.354717h-36.129811c-8.887547 0-16.422642-6.375849-17.968302-14.876982 2.125283 0.966038 4.443774 1.352453 6.762264 1.352453h36.129812c10.24 0 18.354717-8.307925 18.354717-18.547924v-75.544151c0-1.159245-0.193208-2.318491-0.386415-3.477736 6.762264 2.704906 11.592453 9.46717 11.592452 17.195472z" fill="#5E5EEF" /><path d="M480.623094 808.747472v75.737358c0 10.046792-8.114717 18.354717-18.354717 18.354717h-36.129811c-8.887547 0-16.422642-6.375849-17.968302-14.876981 2.125283 0.77283 4.443774 1.159245 6.762264 1.159245h36.129812c10.24 0 18.354717-8.114717 18.354717-18.354717v-75.544151c0-1.159245-0.193208-2.318491-0.386415-3.477735 6.762264 2.704906 11.592453 9.273962 11.592452 17.002264z" fill="#2D2C2C" /><path d="M425.578264 688.784906a4.830189 4.830189 0 0 1-4.830189-4.830189v-22.489359a4.830189 4.830189 0 0 1 9.660378 0V683.954717a4.830189 4.830189 0 0 1-4.830189 4.830189zM425.578264 650.336604a4.830189 4.830189 0 0 1-4.830189-4.830189v-2.048a4.830189 4.830189 0 0 1 9.660378 0v2.028679a4.830189 4.830189 0 0 1-4.830189 4.830189z" fill="#FFFFFF" opacity=".3" /><path d="M425.578264 865.589132a4.830189 4.830189 0 0 1-4.830189-4.830189v-22.489358a4.830189 4.830189 0 0 1 9.660378 0v22.489358a4.830189 4.830189 0 0 1-4.830189 4.830189zM425.578264 827.121509a4.830189 4.830189 0 0 1-4.830189-4.830188v-2.028679a4.830189 4.830189 0 0 1 9.660378 0v2.028679a4.830189 4.830189 0 0 1-4.830189 4.830188z" fill="#FFFFFF" opacity=".3" /><path d="M543.24166 713.322264v-75.621434c0-10.162717 8.230642-18.393358 18.374038-18.393358h36.129811c10.162717 0 18.393358 8.230642 18.393359 18.393358v75.621434a18.374038 18.374038 0 0 1-18.393359 18.374038h-36.129811a18.374038 18.374038 0 0 1-18.374038-18.374038z" fill="#FC6559" /><path d="M543.24166 884.465509v-75.640754c0-10.143396 8.230642-18.374038 18.374038-18.374038h36.129811c10.162717 0 18.393358 8.230642 18.393359 18.374038v75.640754a18.374038 18.374038 0 0 1-18.393359 18.374038h-36.129811a18.374038 18.374038 0 0 1-18.374038-18.374038z" fill="#F2A764" /><path d="M616.100226 637.739472v75.544151c0 10.24-8.114717 18.354717-18.354717 18.354717h-36.129811c-8.887547 0-16.422642-6.375849-17.968302-14.876982 2.125283 0.966038 4.443774 1.352453 6.762264 1.352453h36.129812c10.24 0 18.354717-8.307925 18.354717-18.547924v-75.544151c0-1.159245-0.193208-2.318491-0.386415-3.477736 6.762264 2.704906 11.592453 9.46717 11.592452 17.195472z" fill="#F05543" /><path d="M616.100226 808.747472v75.737358c0 10.046792-8.114717 18.354717-18.354717 18.354717h-36.129811c-8.887547 0-16.422642-6.375849-17.968302-14.876981 2.125283 0.77283 4.443774 1.159245 6.762264 1.159245h36.129812c10.24 0 18.354717-8.114717 18.354717-18.354717v-75.544151c0-1.159245-0.193208-2.318491-0.386415-3.477735 6.762264 2.704906 11.592453 9.273962 11.592452 17.002264z" fill="#EA9C5C" /><path d="M561.074717 688.784906a4.830189 4.830189 0 0 1-4.830189-4.830189v-22.489359a4.830189 4.830189 0 0 1 9.660378 0V683.954717a4.830189 4.830189 0 0 1-4.830189 4.830189zM561.074717 650.336604a4.830189 4.830189 0 0 1-4.830189-4.830189v-2.048a4.830189 4.830189 0 0 1 9.660378 0v2.028679a4.830189 4.830189 0 0 1-4.830189 4.830189z" fill="#FFFFFF" opacity=".3" /><path d="M561.074717 865.589132a4.830189 4.830189 0 0 1-4.830189-4.830189v-22.489358a4.830189 4.830189 0 0 1 9.660378 0v22.489358a4.830189 4.830189 0 0 1-4.830189 4.830189zM561.074717 827.121509a4.830189 4.830189 0 0 1-4.830189-4.830188v-2.028679a4.830189 4.830189 0 0 1 9.660378 0v2.028679a4.830189 4.830189 0 0 1-4.830189 4.830188z" fill="#FFFFFF" opacity=".3" /><path d="M678.718792 713.322264v-75.621434c0-10.162717 8.230642-18.393358 18.374038-18.393358h36.129812c10.162717 0 18.393358 8.230642 18.393358 18.393358v75.621434a18.374038 18.374038 0 0 1-18.393358 18.374038h-36.129812a18.374038 18.374038 0 0 1-18.374038-18.374038z" fill="#B75F25" /><path d="M678.718792 884.465509v-75.640754c0-10.143396 8.230642-18.374038 18.374038-18.374038h36.129812c10.162717 0 18.393358 8.230642 18.393358 18.374038v75.640754a18.374038 18.374038 0 0 1-18.393358 18.374038h-36.129812a18.374038 18.374038 0 0 1-18.374038-18.374038z" fill="#5BC658" /><path d="M751.577358 637.739472v75.544151c0 10.24-8.114717 18.354717-18.354716 18.354717h-36.129812c-8.887547 0-16.422642-6.375849-17.968302-14.876982 2.125283 0.966038 4.443774 1.352453 6.762264 1.352453h36.129812c10.24 0 18.354717-8.307925 18.354717-18.547924v-75.544151c0-1.159245-0.193208-2.318491-0.386415-3.477736 6.762264 2.704906 11.592453 9.46717 11.592452 17.195472z" fill="#AA5821" /><path d="M751.577358 808.747472v75.737358c0 10.046792-8.114717 18.354717-18.354716 18.354717h-36.129812c-8.887547 0-16.422642-6.375849-17.968302-14.876981 2.125283 0.77283 4.443774 1.159245 6.762264 1.159245h36.129812c10.24 0 18.354717-8.114717 18.354717-18.354717v-75.544151c0-1.159245-0.193208-2.318491-0.386415-3.477735 6.762264 2.704906 11.592453 9.273962 11.592452 17.002264z" fill="#49A247" /><path d="M696.513208 688.784906a4.830189 4.830189 0 0 1-4.830189-4.830189v-22.489359a4.830189 4.830189 0 0 1 9.660377 0V683.954717a4.830189 4.830189 0 0 1-4.830188 4.830189zM696.513208 650.336604a4.830189 4.830189 0 0 1-4.830189-4.830189v-2.048a4.830189 4.830189 0 0 1 9.660377 0v2.028679a4.830189 4.830189 0 0 1-4.830188 4.830189z" fill="#FFFFFF" opacity=".3" /><path d="M696.513208 865.589132a4.830189 4.830189 0 0 1-4.830189-4.830189v-22.489358a4.830189 4.830189 0 0 1 9.660377 0v22.489358a4.830189 4.830189 0 0 1-4.830188 4.830189zM696.513208 827.121509a4.830189 4.830189 0 0 1-4.830189-4.830188v-2.028679a4.830189 4.830189 0 0 1 9.660377 0v2.028679a4.830189 4.830189 0 0 1-4.830188 4.830188z" fill="#FFFFFF" opacity=".3" /><path d="M814.176604 713.322264v-75.621434c0-10.162717 8.230642-18.393358 18.393358-18.393358h36.129812c10.143396 0 18.374038 8.230642 18.374037 18.393358v75.621434a18.374038 18.374038 0 0 1-18.374037 18.374038h-36.129812a18.374038 18.374038 0 0 1-18.393358-18.374038z" fill="#7979F7" /><path d="M814.176604 884.465509v-75.640754c0-10.143396 8.230642-18.374038 18.393358-18.374038h36.129812c10.143396 0 18.374038 8.230642 18.374037 18.374038v75.640754a18.374038 18.374038 0 0 1-18.374037 18.374038h-36.129812a18.374038 18.374038 0 0 1-18.393358-18.374038z" fill="#F9B938" /><path d="M887.03517 637.739472v75.544151c0 10.24-8.114717 18.354717-18.354717 18.354717h-36.129811c-8.887547 0-16.422642-6.375849-17.968302-14.876982 2.125283 0.966038 4.443774 1.352453 6.762264 1.352453h36.129811c10.24 0 18.354717-8.307925 18.354717-18.547924v-75.544151c0-1.159245-0.193208-2.318491-0.386415-3.477736 6.762264 2.704906 11.592453 9.46717 11.592453 17.195472z" fill="#5E5EEF" /><path d="M887.03517 808.747472v75.737358c0 10.046792-8.114717 18.354717-18.354717 18.354717h-36.129811c-8.887547 0-16.422642-6.375849-17.968302-14.876981 2.125283 0.77283 4.443774 1.159245 6.762264 1.159245h36.129811c10.24 0 18.354717-8.114717 18.354717-18.354717v-75.544151c0-1.159245-0.193208-2.318491-0.386415-3.477735 6.762264 2.704906 11.592453 9.273962 11.592453 17.002264z" fill="#E5A320" /><path d="M832.00966 688.784906a4.830189 4.830189 0 0 1-4.830188-4.830189v-22.489359a4.830189 4.830189 0 0 1 9.660377 0V683.954717a4.830189 4.830189 0 0 1-4.830189 4.830189zM832.00966 650.336604a4.830189 4.830189 0 0 1-4.830188-4.830189v-2.048a4.830189 4.830189 0 0 1 9.660377 0v2.028679a4.830189 4.830189 0 0 1-4.830189 4.830189z" fill="#FFFFFF" opacity=".3" /><path d="M832.00966 865.589132a4.830189 4.830189 0 0 1-4.830188-4.830189v-22.489358a4.830189 4.830189 0 0 1 9.660377 0v22.489358a4.830189 4.830189 0 0 1-4.830189 4.830189zM832.00966 827.121509a4.830189 4.830189 0 0 1-4.830188-4.830188v-2.028679a4.830189 4.830189 0 0 1 9.660377 0v2.028679a4.830189 4.830189 0 0 1-4.830189 4.830188z" fill="#FFFFFF" opacity=".3" /><path d="M78.152453 804.380981a7.612377 7.612377 0 0 1-7.612378-7.593056v-80.915321a7.612377 7.612377 0 0 1 15.205434 0v80.915321a7.612377 7.612377 0 0 1-7.593056 7.593056zM78.152453 695.450566a7.612377 7.612377 0 0 1-7.612378-7.612377v-10.046793a7.612377 7.612377 0 0 1 15.205434 0v10.046793a7.612377 7.612377 0 0 1-7.593056 7.612377z" fill="#FFFFFF" opacity=".4" /><path d="M475.522415 577.690566a7.612377 7.612377 0 0 1-7.612377 7.593057H340.624906a7.612377 7.612377 0 0 1 0-15.205434h127.323773c4.173283 0 7.593057 3.419774 7.593057 7.612377zM320.183547 577.690566a7.612377 7.612377 0 0 1-7.593056 7.593057h-10.046793a7.612377 7.612377 0 0 1 0-15.205434h10.046793c4.192604 0 7.593057 3.419774 7.593056 7.612377z" fill="#FFFFFF" opacity=".4" /></svg>