<?xml version="1.0" standalone="no"?><!DOCTYPE svg PUBLIC "-//W3C//DTD SVG 1.1//EN" "http://www.w3.org/Graphics/SVG/1.1/DTD/svg11.dtd"><svg class="icon" width="200px" height="200.00px" viewBox="0 0 1024 1024" version="1.1" xmlns="http://www.w3.org/2000/svg"><path d="M972.413585 261.757585v468.682868H51.586415V261.757585a73.360906 73.360906 0 0 1 73.283623-73.283623h774.259924a73.360906 73.360906 0 0 1 73.283623 73.283623z" fill="#FC6559" /><path d="M84.354415 612.796377a12.577811 12.577811 0 0 1-12.577811-12.577811v-125.063245a12.577811 12.577811 0 0 1 25.136302 0v125.063245c0 6.936151-5.62234 12.558491-12.558491 12.558491zM84.354415 434.42717a12.577811 12.577811 0 0 1-12.577811-12.577812v-8.443169a12.577811 12.577811 0 0 1 25.136302 0v8.443169c0 6.955472-5.62234 12.558491-12.558491 12.558491zM540.981132 233.800453h-6.955472a12.577811 12.577811 0 0 1 0-25.155623H540.981132a12.577811 12.577811 0 0 1 0 25.155623zM730.36317 233.800453h-136.597736a12.577811 12.577811 0 0 1 0-25.155623h136.597736a12.577811 12.577811 0 0 1 0 25.155623z" fill="#FFFFFF" opacity=".3" /><path d="M972.413585 261.757585v468.682868H51.586415v-31.183698h838.269585a45.171925 45.171925 0 0 0 45.152604-45.171925v-423.510943c0-13.582491-3.670943-26.508075-10.394566-37.404981a73.071094 73.071094 0 0 1 47.799547 68.588679z" fill="#F05543" /><path d="M51.586415 730.459774v61.304754c0 40.496302 32.845283 73.341585 73.322264 73.341585h774.163321c40.496302 0 73.322264-32.845283 73.322264-73.341585v-61.304754z" fill="#E4E3FF" /><path d="M905.312604 631.750038V289.27034c0-18.605887-15.070189-33.695396-33.695396-33.695397H152.363472c-18.605887 0-33.695396 15.070189-33.695397 33.695397v342.479698c0 18.605887 15.070189 33.714717 33.695397 33.714717h719.253736c18.605887 0 33.695396-15.10883 33.695396-33.714717z" fill="#FFFFFF" /><path d="M694.445887 946.253283v30.333585a14.567849 14.567849 0 0 1-14.58717 14.432604H343.986717a14.529208 14.529208 0 0 1-14.432604-14.413283v-30.352906c0-8.056755 6.549736-14.432604 14.432604-14.432604h39.41434v-66.733887h257.217207v66.733887h39.221132c8.056755 0 14.606491 6.375849 14.606491 14.432604z" fill="#E4E3FF" /><path d="M383.381736 865.086792h257.236528v8.926189H383.381736z" fill="#C2C2EF" /><path d="M538.37283 797.850566c0 14.58717-11.78566 26.392151-26.392151 26.392151s-26.37283-11.78566-26.37283-26.392151c0-14.606491 11.78566-26.546717 26.37283-26.546717s26.392151 11.940226 26.392151 26.546717z" fill="#A2A2F9" /><path d="M538.334189 797.850566a26.276226 26.276226 0 0 1-26.334189 26.314868c-10.24 0-18.93434-5.699623-23.30083-14.239396a26.276226 26.276226 0 0 0 38.738113-33.54083c6.704302 4.86883 10.896906 12.751698 10.896906 21.446037z" fill="#7979F7" /><path d="M821.190038 107.848453v431.432453a75.041811 75.041811 0 0 1-74.867925 74.867924H296.554264a75.041811 75.041811 0 0 1-74.887245-74.887245V107.848453a74.964528 74.964528 0 0 1 74.887245-74.867925h449.767849a74.964528 74.964528 0 0 1 74.867925 74.867925z" fill="#A2A2F9" /><path d="M821.228679 512.966038v26.295547a75.041811 75.041811 0 0 1-74.887245 74.887245H296.592906a75.041811 75.041811 0 0 1-74.887246-74.887245V512.966038a75.041811 75.041811 0 0 0 74.887246 74.867924h449.748528a75.041811 75.041811 0 0 0 74.887245-74.867924z" fill="#7979F7" /><path d="M286.546113 266.24v258.086642c0 13.795019 11.206038 24.981736 24.981736 24.981735h419.878642c13.795019 0 24.981736-11.206038 24.981735-24.981735V266.24c0-13.795019-11.206038-24.981736-24.981735-24.981736H311.527849c-13.795019 0-24.981736 11.206038-24.981736 24.981736z" fill="#FFFFFF" /><path d="M756.388226 266.182038V524.365283c0 13.795019-11.186717 24.962415-24.962415 24.962415H311.508528a24.962415 24.962415 0 0 1-24.962415-24.962415v-15.649811h345.358491c50.233962 0 90.942792-40.728151 90.942792-90.962114v-176.514415h8.578415c13.81434 0 24.962415 11.264 24.962415 24.962415z" fill="#E4E3FF" /><path d="M821.228679 107.867774v84.914717h-599.523019V107.867774a74.887245 74.887245 0 0 1 74.887246-74.887246h449.748528a75.099774 75.099774 0 0 1 74.887245 74.887246z" fill="#7979F7" /><path d="M821.228679 179.257962V107.867774a75.099774 75.099774 0 0 0-74.887245-74.887246H296.592906a74.887245 74.887245 0 0 0-74.887246 74.887246v71.390188z" fill="#474646" /><path d="M473.783547 101.704453c0 15.958943-12.925585 28.884528-28.749283 28.884528a28.865208 28.865208 0 1 1 0-57.769056c15.843019 0 28.749283 12.944906 28.749283 28.884528zM394.085434 101.704453c0 15.958943-12.925585 28.884528-28.749283 28.884528a28.865208 28.865208 0 1 1 0-57.769056c15.843019 0 28.749283 12.944906 28.749283 28.884528zM314.387321 101.704453c0 15.958943-12.925585 28.884528-28.768604 28.884528a28.865208 28.865208 0 1 1 0-57.769056c15.843019 0 28.768604 12.944906 28.768604 28.884528z" fill="#FFFFFF" /><path d="M473.744906 101.704453c0 15.939623-12.848302 28.92317-28.65268 28.92317a28.981132 28.981132 0 0 1-25.059018-14.393963 28.826566 28.826566 0 0 0 39.317735-39.588226 28.981132 28.981132 0 0 1 14.393963 25.059019zM394.066113 101.704453c0 15.939623-12.848302 28.92317-28.787924 28.92317-10.665057 0-19.900377-5.796226-24.788529-14.393963 4.250566 2.56966 9.254642 3.980075 14.509887 3.980076 15.823698 0 28.787925-12.848302 28.787925-28.787925 0-5.409811-1.410415-10.413887-3.980076-14.780377 8.617057 5.139321 14.258717 14.393962 14.258717 25.059019zM314.406642 101.704453c0 15.939623-12.983547 28.92317-28.787925 28.92317-10.665057 0-20.054943-5.796226-25.059019-14.529208 4.366491 2.704906 9.389887 4.115321 14.780377 4.115321a28.903849 28.903849 0 0 0 24.80785-43.568302c8.462491 5.139321 14.258717 14.393962 14.258717 25.059019z" fill="#E4E3FF" /><path d="M768.135245 101.704453c0 12.635774-10.24 22.856453-22.856453 22.856453H539.860528a22.856453 22.856453 0 0 1 0-45.712906h205.418264c12.616453 0 22.856453 10.24 22.856453 22.856453z" fill="#FFFFFF" /><path d="M768.135245 101.665811c0 12.616453-10.278642 22.895094-22.895094 22.895095H539.821887a22.721208 22.721208 0 0 1-22.141585-17.620529c4.038038 4.405132 9.911547 7.090717 16.384 7.090717h205.437585c12.597132 0 22.875774-10.278642 22.875773-22.875773a18.857057 18.857057 0 0 0-0.734188-5.274566c4.038038 4.057358 6.491774 9.660377 6.491773 15.785056z" fill="#E4E3FF" /><path d="M256.753509 456.317585a9.177358 9.177358 0 0 1-9.177358-9.177359v-91.580377a9.177358 9.177358 0 0 1 18.354717 0v91.580377a9.177358 9.177358 0 0 1-9.177359 9.177359z" fill="#FFFFFF" opacity=".4" /><path d="M256.753509 328.259623a9.177358 9.177358 0 0 1-9.177358-9.158038v-11.727698a9.177358 9.177358 0 0 1 18.354717 0v11.727698a9.177358 9.177358 0 0 1-9.177359 9.177358z" fill="#FFFFFF" opacity=".4" /><path d="M621.741887 381.739472a100.274717 100.274717 0 0 1-100.352 100.197434 100.216755 100.216755 0 0 1-100.197434-100.197434 100.274717 100.274717 0 1 1 200.549434 0z" fill="#F9B938" /><path d="M621.741887 381.739472a100.274717 100.274717 0 0 1-182.00151 57.962264 100.274717 100.274717 0 0 0 143.746415-136.790944 100.023547 100.023547 0 0 1 38.255095 78.82868z" fill="#ECB021" /><path d="M562.233962 395.51517l-43.916075 30.951849a16.944302 16.944302 0 0 1-26.720604-13.852981v-61.903698a16.944302 16.944302 0 0 1 26.720604-13.852982l43.935396 30.95185a16.944302 16.944302 0 0 1 0 27.705962z" fill="#474646" /><path d="M562.137358 395.476528l-43.703547 30.990491a17.118189 17.118189 0 0 1-26.681962-10.916227 16.306717 16.306717 0 0 0 17.523925-1.024l43.974037-31.009811a16.615849 16.615849 0 0 0 6.858868-17.021585l2.028679 1.27517c9.660377 6.858868 9.660377 21.098264 0 27.705962z" fill="#2D2C2C" /></svg>