<?xml version="1.0" standalone="no"?><!DOCTYPE svg PUBLIC "-//W3C//DTD SVG 1.1//EN" "http://www.w3.org/Graphics/SVG/1.1/DTD/svg11.dtd"><svg class="icon" width="200px" height="200.00px" viewBox="0 0 1024 1024" version="1.1" xmlns="http://www.w3.org/2000/svg"><path d="M812.205887 246.53283v665.522717a90.208604 90.208604 0 0 1-90.189283 90.208604H301.906113a90.208604 90.208604 0 0 1-90.208604-90.208604V246.53283a90.208604 90.208604 0 0 1 90.208604-90.227924H722.016604a90.208604 90.208604 0 0 1 90.189283 90.227924z" fill="#7979F7" /><path d="M456.394868 209.436981h-18.895698a14.490566 14.490566 0 0 1 0-28.981132h18.895698a14.490566 14.490566 0 0 1 0 28.981132zM670.101736 209.436981H513.54566a14.490566 14.490566 0 0 1 0-28.981132h156.575397a14.490566 14.490566 0 0 1 0 28.981132zM257.004679 737.859623a14.490566 14.490566 0 0 1-14.490566-14.490566v-156.826566a14.490566 14.490566 0 0 1 28.981132 0v156.807245a14.490566 14.490566 0 0 1-14.490566 14.490566zM257.004679 514.473057a14.490566 14.490566 0 0 1-14.490566-14.490566v-15.437283a14.490566 14.490566 0 0 1 28.981132 0v15.437283a14.490566 14.490566 0 0 1-14.490566 14.490566z" fill="#FFFFFF" opacity=".2" /><path d="M812.302491 246.436226v665.6c0 49.847547-40.380377 90.227925-90.227925 90.227925h-420.226415a89.455094 89.455094 0 0 1-69.747925-33.231698c9.080755 3.284528 18.741132 4.830189 28.787925 4.830189h420.033207c49.847547 0 90.227925-40.380377 90.227925-90.034717v-665.6c0-21.639245-7.535094-41.73283-20.48-57.189434 35.743396 11.978868 61.633208 45.790189 61.633208 85.397735z" fill="#5E5EEF" /><path d="M734.942189 399.031547v-134.936151c0-16.847698-13.659774-30.488151-30.488151-30.488151H319.449358c-16.809057 0-30.46883 13.640453-30.46883 30.488151v134.936151c0 16.828377 13.640453 30.46883 30.46883 30.46883h385.00468c16.828377 0 30.488151-13.640453 30.488151-30.46883z" fill="#E4E3FF" /><path d="M733.473811 254.937358c-1.932075-0.386415-4.057358-0.579623-6.182641-0.579622h-385.062642c-16.809057 0-30.333585 13.524528-30.333585 30.333585v135.052075c0 3.284528 0.579623 6.375849 1.545661 9.273962-13.910943-2.704906-24.537358-15.263396-24.537359-29.947169v-135.052076c0-16.809057 13.717736-30.333585 30.526793-30.333585h385.062641c13.524528 0 25.116981 8.887547 28.981132 21.25283z" fill="#C2C2EF" /><path d="M366.997736 53.402566v102.998943h-63.352755v-102.979622a31.686038 31.686038 0 1 1 63.352755 0z" fill="#474646" /><path d="M366.959094 53.421887v102.979622h-63.372075v-16.422641a44.437736 44.437736 0 0 0 44.437736-44.437736v-58.541887c0-5.023396-1.159245-9.660377-3.284529-13.717736 12.944906 3.864151 22.218868 15.843019 22.218868 30.140378z" fill="#2D2C2C" /><path d="M359.404679 813.886792a55.489208 55.489208 0 0 1 55.469887 55.605133 55.373283 55.373283 0 0 1-55.469887 55.489207 55.489208 55.489208 0 0 1-55.624453-55.489207 55.605132 55.605132 0 0 1 55.624453-55.605133z" fill="#E4E3FF" /><path d="M359.404679 508.638189a55.489208 55.489208 0 0 1 55.469887 55.605132 55.373283 55.373283 0 0 1-55.469887 55.489207 55.489208 55.489208 0 0 1-55.624453-55.489207 55.605132 55.605132 0 0 1 55.624453-55.605132z" fill="#F9B938" /><path d="M359.404679 661.25283a55.489208 55.489208 0 0 1 55.469887 55.624453 55.373283 55.373283 0 0 1-55.469887 55.489208 55.489208 55.489208 0 0 1-55.624453-55.489208 55.605132 55.605132 0 0 1 55.624453-55.624453zM512.019321 813.886792a55.489208 55.489208 0 0 1 55.489207 55.605133 55.373283 55.373283 0 0 1-55.489207 55.489207 55.489208 55.489208 0 0 1-55.605132-55.489207 55.605132 55.605132 0 0 1 55.605132-55.605133z" fill="#E4E3FF" /><path d="M512.019321 508.638189a55.489208 55.489208 0 0 1 55.489207 55.605132 55.373283 55.373283 0 0 1-55.489207 55.489207 55.489208 55.489208 0 0 1-55.605132-55.489207 55.605132 55.605132 0 0 1 55.605132-55.605132z" fill="#5BC658" /><path d="M512.019321 661.25283a55.489208 55.489208 0 0 1 55.489207 55.624453 55.373283 55.373283 0 0 1-55.489207 55.489208 55.489208 55.489208 0 0 1-55.605132-55.489208 55.605132 55.605132 0 0 1 55.605132-55.624453zM664.633962 813.886792a55.489208 55.489208 0 0 1 55.489208 55.605133 55.373283 55.373283 0 0 1-55.489208 55.489207 55.489208 55.489208 0 0 1-55.605132-55.489207 55.605132 55.605132 0 0 1 55.605132-55.605133z" fill="#E4E3FF" /><path d="M664.633962 508.638189a55.489208 55.489208 0 0 1 55.489208 55.605132 55.373283 55.373283 0 0 1-55.489208 55.489207 55.489208 55.489208 0 0 1-55.605132-55.489207 55.605132 55.605132 0 0 1 55.605132-55.605132z" fill="#FC6559" /><path d="M664.633962 661.25283a55.489208 55.489208 0 0 1 55.489208 55.624453 55.373283 55.373283 0 0 1-55.489208 55.489208 55.489208 55.489208 0 0 1-55.605132-55.489208 55.605132 55.605132 0 0 1 55.605132-55.624453z" fill="#E4E3FF" /><path d="M414.874566 869.530566c0 30.72-24.730566 55.450566-55.450566 55.450566-26.276226 0-48.495094-18.161509-54.098113-42.698868 9.46717 7.341887 21.446038 11.78566 34.197736 11.785661 30.72 0 55.450566-24.730566 55.450566-55.450567 0-4.636981-0.579623-9.080755-1.738868-13.33132a56.030189 56.030189 0 0 1 21.639245 44.244528z" fill="#D0D0F7" /><path d="M414.874566 564.262642c0 30.72-24.730566 55.450566-55.450566 55.450566-26.276226 0-48.108679-17.968302-54.098113-42.312453 9.46717 7.148679 21.446038 11.592453 34.197736 11.592453 30.72 0 55.450566-24.923774 55.450566-55.643774 0-4.636981-0.579623-9.080755-1.738868-13.331321a56.030189 56.030189 0 0 1 21.639245 44.244529z" fill="#E5A320" /><path d="M414.874566 716.896604c0 30.72-24.730566 55.450566-55.450566 55.450566-26.276226 0-48.495094-18.161509-54.098113-42.698868 9.46717 7.341887 21.446038 11.78566 34.197736 11.78566 30.72 0 55.450566-24.730566 55.450566-55.450566 0-4.636981-0.579623-9.080755-1.738868-13.331321 13.138113 10.24 21.639245 26.276226 21.639245 44.244529zM567.508528 869.530566c0 30.72-24.730566 55.450566-55.450566 55.450566-26.276226 0-48.495094-18.161509-54.098113-42.698868 9.46717 7.341887 21.446038 11.78566 34.197736 11.785661 30.72 0 55.450566-24.730566 55.450566-55.450567 0-4.636981-0.579623-9.080755-1.738868-13.33132a56.030189 56.030189 0 0 1 21.639245 44.244528z" fill="#D0D0F7" /><path d="M567.508528 564.262642c0 30.72-24.730566 55.450566-55.450566 55.450566-26.276226 0-48.108679-17.968302-54.098113-42.312453 9.46717 7.148679 21.446038 11.592453 34.197736 11.592453 30.72 0 55.450566-24.923774 55.450566-55.643774 0-4.636981-0.579623-9.080755-1.738868-13.331321a56.030189 56.030189 0 0 1 21.639245 44.244529z" fill="#49A247" /><path d="M567.508528 716.896604c0 30.72-24.730566 55.450566-55.450566 55.450566-26.276226 0-48.495094-18.161509-54.098113-42.698868 9.46717 7.341887 21.446038 11.78566 34.197736 11.78566 30.72 0 55.450566-24.730566 55.450566-55.450566 0-4.636981-0.579623-9.080755-1.738868-13.331321 13.138113 10.24 21.639245 26.276226 21.639245 44.244529zM720.142491 869.530566c0 30.72-24.730566 55.450566-55.450566 55.450566-26.276226 0-48.495094-18.161509-54.098114-42.698868 9.46717 7.341887 21.446038 11.78566 34.197736 11.785661 30.72 0 55.450566-24.730566 55.450566-55.450567 0-4.636981-0.579623-9.080755-1.738868-13.33132a56.030189 56.030189 0 0 1 21.639246 44.244528z" fill="#D0D0F7" /><path d="M720.142491 564.262642c0 30.72-24.730566 55.450566-55.450566 55.450566-26.276226 0-48.108679-17.968302-54.098114-42.312453 9.46717 7.148679 21.446038 11.592453 34.197736 11.592453 30.72 0 55.450566-24.923774 55.450566-55.643774 0-4.636981-0.579623-9.080755-1.738868-13.331321a56.030189 56.030189 0 0 1 21.639246 44.244529z" fill="#F05543" /><path d="M720.142491 716.896604c0 30.72-24.730566 55.450566-55.450566 55.450566-26.276226 0-48.495094-18.161509-54.098114-42.698868 9.46717 7.341887 21.446038 11.78566 34.197736 11.78566 30.72 0 55.450566-24.730566 55.450566-55.450566 0-4.636981-0.579623-9.080755-1.738868-13.331321 13.138113 10.24 21.639245 26.276226 21.639246 44.244529z" fill="#D0D0F7" /></svg>