<?xml version="1.0" standalone="no"?><!DOCTYPE svg PUBLIC "-//W3C//DTD SVG 1.1//EN" "http://www.w3.org/Graphics/SVG/1.1/DTD/svg11.dtd"><svg class="icon" width="200px" height="200.00px" viewBox="0 0 1024 1024" version="1.1" xmlns="http://www.w3.org/2000/svg"><path d="M798.72 115.769962v792.460076a67.468075 67.468075 0 0 1-67.468075 67.468075H291.028528a67.468075 67.468075 0 0 1-67.468075-67.468075V115.769962A67.468075 67.468075 0 0 1 291.028528 48.301887h440.223397a67.468075 67.468075 0 0 1 67.468075 67.468075z" fill="#474646" /><path d="M798.700679 115.731321v792.537358c0 37.289057-30.140377 67.429434-67.429434 67.429434h-440.32c-22.218868 0-41.926038-10.819623-54.098113-27.435471 11.206038 8.114717 24.923774 12.944906 39.607547 12.944905h440.32c37.289057 0 67.429434-30.140377 67.429434-67.429434V101.240755c0-14.876981-4.830189-28.594717-13.138113-39.800755 16.809057 11.978868 27.628679 31.879245 27.628679 54.291321z" fill="#2D2C2C" /><path d="M760.05917 122.860679v700.995623A35.917283 35.917283 0 0 1 724.141887 859.773585H298.080604a35.917283 35.917283 0 0 1-35.936604-35.917283V122.860679c0-19.842415 16.094189-35.917283 35.936604-35.917283h88.875471c8.114717 0 14.683774 6.569057 14.683774 14.683774v14.683773c0 14.683774 11.78566 26.469434 26.276226 26.469434h166.351699c14.490566 0 26.276226-11.78566 26.276226-26.469434v-14.683773c0-8.114717 6.588377-14.683774 14.722415-14.683774h88.875472c19.842415 0 35.917283 16.074868 35.917283 35.917283z" fill="#FFFFFF" /><path d="M561.036075 106.650566h-51.277283a9.660377 9.660377 0 1 1 0-19.320755h51.277283a9.660377 9.660377 0 1 1 0 19.320755zM467.233811 106.650566h-5.989434a9.660377 9.660377 0 1 1 0-19.320755h5.989434a9.660377 9.660377 0 1 1 0 19.320755z" fill="#FFFFFF" opacity=".3" /><path d="M823.624453 146.857057v104.679849c0 8.114717-6.569057 14.703094-14.703095 14.703094h-10.24V132.153962h10.24c8.114717 0 14.683774 6.569057 14.683774 14.703095z" fill="#474646" /><path d="M798.700679 132.153962h9.737661v134.086038h-9.737661z" fill="#1B1B1B" /><path d="M200.375547 181.170717v46.698264c0 8.114717 6.569057 14.722415 14.703095 14.722415h10.24v-76.123773h-10.24c-8.114717 0-14.683774 6.569057-14.683774 14.683773z" fill="#474646" /><path d="M215.56166 166.467623h9.737661v76.123773h-9.737661z" fill="#2D2C2C" /><path d="M200.375547 291.975245v46.717585c0 8.114717 6.569057 14.683774 14.703095 14.683774h10.24v-76.123774h-10.24c-8.114717 0-14.683774 6.607698-14.683774 14.722415z" fill="#474646" /><path d="M215.56166 277.272151h9.737661v76.123774h-9.737661zM580.781887 915.282113a15.785057 15.785057 0 0 1-15.765736 15.765736h-107.751849a15.785057 15.785057 0 0 1 0-31.550792h107.751849c8.69434 0 15.765736 7.071396 15.765736 15.785056z" fill="#2D2C2C" /><path d="M420.709434 356.409962h201.863245v90.962113H420.709434z" fill="#474646" /><path d="M622.572679 356.409962v39.066566a8.249962 8.249962 0 0 1-9.235321 3.690264c-61.865057-15.88166-122.995925-17.639849-183.122113-0.463698a8.307925 8.307925 0 0 1-9.505811-3.670943v-38.622189z" fill="#1B1B1B" /><path d="M675.666113 645.255245v42.022642c0 12.828981-10.433208 23.262189-23.262188 23.262188H383.49766c-12.828981 0-23.262189-10.433208-23.262188-23.262188v-42.022642c0-21.793811 7.110038-41.73283 19.20483-57.884981v-0.096604a97.067472 97.067472 0 0 1 63.623245-38.139169c0.193208 0 0.367094-0.096604 0.540981-0.096604 1.758189-0.193208 25.116981-0.367094 52.822944-0.367095 17.002264-0.096604 35.646792-0.096604 51.895547 0 23.648604 0 42.389736 0.193208 43.954717 0.386416a97.376604 97.376604 0 0 1 64.183547 38.235773c11.998189 16.13283 19.20483 36.168453 19.20483 57.962264z" fill="#F9B938" /><path d="M388.076679 650.433208h-0.193207a6.936151 6.936151 0 0 1-6.742944-7.090717c0.386415-15.958943 5.564377-31.009811 14.915623-43.529661a6.91683 6.91683 0 1 1 11.090113 8.307925 61.478642 61.478642 0 0 0-12.152755 35.550188 6.936151 6.936151 0 0 1-6.91683 6.762265zM419.782038 593.842717a6.91683 6.91683 0 0 1-3.767547-12.751698c4.830189-3.091321 10.008151-5.680302 15.37932-7.631698a6.91683 6.91683 0 1 1 4.733585 13.022188 62.792453 62.792453 0 0 0-12.597132 6.259925 6.91683 6.91683 0 0 1-3.748226 1.101283z" fill="#FFFFFF" opacity=".4" /><path d="M599.387774 550.332377l-34.429585 58.928302a4.057358 4.057358 0 0 1-6.472453 0.734189l-36.110491-33.811321-4.61766-4.327849 4.636981-3.516377 25.928453-19.668529c23.648604 0 42.389736 0.193208 43.954717 0.386416 2.415094 0.347774 4.810868 0.714868 7.110038 1.275169z" fill="#E5A320" /><path d="M526.992906 571.855698l-4.617661 4.327849-36.013887 33.811321a4.057358 4.057358 0 0 1-6.453132-0.75351l-36.844679-60.087547c0.193208 0 0.367094-0.115925 0.540981-0.115924 1.758189-0.193208 25.116981-0.367094 52.822944-0.367095l25.947773 19.668529z" fill="#E5A320" /><path d="M556.959396 525.795019v30.488151a35.356981 35.356981 0 1 1-70.713962 0v-30.488151c10.916226 7.651019 21.291472 12.230038 35.356981 12.230038s24.440755-4.579019 35.356981-12.230038z" fill="#F7C9A9" /><path d="M675.666113 645.255245v42.022642c0 12.828981-10.433208 23.262189-23.262188 23.262188H383.49766c-10.162717 0-18.837736-6.549736-21.987018-15.591849 2.415094 0.830792 5.004075 1.294491 7.670339 1.294491h268.906264c12.828981 0 23.262189-10.433208 23.262189-23.281509v-42.003321a96.294642 96.294642 0 0 0-19.20483-58.000906c-0.830792-1.101283-1.564981-2.125283-2.492378-3.129962a96.912906 96.912906 0 0 1 36.013887 75.447547z" fill="#E5A320" /><path d="M602.710943 369.258264v90.498415a81.069887 81.069887 0 0 1-138.336603 57.344 80.896 80.896 0 0 1-23.725887-57.344v-90.498415c50.040755-38.796075 104.448-35.356981 162.06249 0z" fill="#F7C9A9" /><path d="M602.710943 369.258264v27.435472c-54.677736-12.751698-108.775849-14.046189-162.06249-0.850113v-26.585359c50.040755-38.796075 104.448-35.356981 162.06249 0zM602.710943 450.289509v9.486491a81.089208 81.089208 0 0 1-138.297962 57.324679 81.011925 81.011925 0 0 1-23.706566-57.324679v-9.46717A81.011925 81.011925 0 0 0 521.660377 531.320755a81.069887 81.069887 0 0 0 81.050566-81.050566z" fill="#F0B68E" /><path d="M602.710943 399.437283v60.416a30.256302 30.256302 0 0 0 29.618717-30.19834c0-16.499925-13.215396-29.869887-29.618717-30.21766zM440.667774 399.437283v60.416a30.256302 30.256302 0 0 1-29.638038-30.19834c0-16.499925 13.234717-29.869887 29.638038-30.21766z" fill="#F7C9A9" /><path d="M632.31034 429.616302c0 16.499925-13.176755 29.869887-29.599397 30.236981v-5.603019a30.256302 30.256302 0 0 0 29.444831-27.184302c0.077283 0.850113 0.154566 1.700226 0.154566 2.55034zM440.706415 454.250264v5.603019a30.275623 30.275623 0 0 1-29.522113-32.787321 30.333585 30.333585 0 0 0 29.522113 27.184302z" fill="#F0B68E" /><path d="M533.156226 467.755472c2.028679 3.091321 1.54566 7.41917-0.734188 10.742339-2.183245 3.497057-6.491774 5.506415-10.723019 5.603019-4.250566-0.057962-8.578415-2.086642-10.761661-5.603019-2.29917-3.32317-2.762868-7.651019-0.714867-10.742339 4.096 5.873509 8.056755 6.569057 11.457207 6.684981 3.419774-0.096604 7.399849-0.811472 11.476528-6.684981z" fill="#E8AA80" /><path d="M567.566491 444.261434a10.993509 10.993509 0 1 1-21.967699 0 10.993509 10.993509 0 0 1 21.967699 0zM568.648453 428.862792h-24.112302a4.830189 4.830189 0 0 1 0-9.660377h24.112302a4.830189 4.830189 0 0 1 0 9.660377zM497.760604 444.261434a10.993509 10.993509 0 1 1-21.987019 0 10.993509 10.993509 0 0 1 21.987019 0zM498.842566 428.862792H474.710943a4.830189 4.830189 0 0 1 0-9.660377h24.131623a4.830189 4.830189 0 0 1 0 9.660377z" fill="#2D2C2C" /><path d="M500.195019 499.171019c-2.762868 0-4.463094 3.226566-2.762868 5.409811a30.777962 30.777962 0 0 0 48.495094 0c1.738868-2.183245 0.019321-5.409811-2.743547-5.409811z" fill="#E8AA80" /><path d="M613.163472 442.11683a4.791547 4.791547 0 0 1-3.245887-1.27517 4.791547 4.791547 0 0 1-0.328453-6.800905c3.091321-3.419774 0.695547-8.404528 0.656906-8.44317a4.830189 4.830189 0 0 1 8.597736-4.405132c2.067321 4.038038 3.960755 12.655094-2.125283 19.320755a4.752906 4.752906 0 0 1-3.555019 1.603622zM431.084679 442.11683a4.752906 4.752906 0 0 1-3.555019-1.584302c-6.086038-6.684981-4.173283-15.302038-2.105962-19.340075a4.830189 4.830189 0 0 1 8.617057 4.385811c-0.135245 0.270491-2.415094 5.100679 0.618264 8.462491a4.791547 4.791547 0 0 1-0.328453 6.800905 4.791547 4.791547 0 0 1-3.245887 1.27517z" fill="#F0B68E" /><path d="M671.49283 311.450566l-147.996981-64.028981a4.579019 4.579019 0 0 0-3.632302 0l-147.996981 64.028981a4.579019 4.579019 0 0 0 0 8.423849l97.763019 42.312453h104.100226l97.763019-42.312453a4.579019 4.579019 0 0 0 0-8.423849z" fill="#2D2C2C" /><path d="M623.86717 330.442868v54.426566c0 5.487094-5.177962 9.46717-10.49117 8.114717-61.884377-15.88166-122.995925-17.678491-183.122113-0.463698a8.404528 8.404528 0 0 1-10.761661-8.037434v-54.194717c0-5.834868 3.883472-10.993509 9.525132-12.577811 60.087547-16.944302 121.798038-16.924981 185.170114 0.096603 5.718943 1.54566 9.679698 6.723623 9.679698 12.635774z" fill="#2D2C2C" /><path d="M623.86717 330.442868v8.539774a13.099472 13.099472 0 0 0-9.679698-12.655095c-63.372075-17.002264-125.101887-17.060226-185.189434-0.096604a13.080151 13.080151 0 0 0-9.505812 12.597132v-8.539773c0-5.834868 3.883472-10.993509 9.505812-12.558491 60.087547-16.963623 121.817358-16.944302 185.189434 0.077283 5.699623 1.54566 9.679698 6.723623 9.679698 12.635774z" fill="#1B1B1B" /><path d="M534.199547 602.517736l10.433208 68.318189c0.386415 2.125283-0.270491 4.443774-1.661585 6.105358l-14.683774 17.446642a7.68966 7.68966 0 0 1-11.824302 0l-14.587169-17.446642a7.766943 7.766943 0 0 1-1.661585-6.105358l10.433207-68.318189-8.037434-8.037434-4.250566-4.250566 22.991698-22.895094 1.120604-1.120604 24.015698 24.015698-4.34717 4.327849z" fill="#FC6559" /><path d="M510.976 656.441962a2.318491 2.318491 0 0 1-2.279849-2.646943l3.57434-23.513359a2.318491 2.318491 0 1 1 4.559698 0.695548l-3.57434 23.513358a2.318491 2.318491 0 0 1-2.279849 1.951396zM516.018717 623.461434a2.318491 2.318491 0 0 1-2.29917-2.666264l0.521661-3.400453a2.318491 2.318491 0 1 1 4.559698 0.695547l-0.50234 3.400453a2.318491 2.318491 0 0 1-2.279849 1.970717z" fill="#FFFFFF" opacity=".4" /><path d="M523.592453 567.334642l-1.217208 0.830792-1.004679-0.830792 1.101283-1.120604z" fill="#F05543" /><path d="M534.199547 602.517736l10.433208 68.318189c0.386415 2.125283-0.270491 4.443774-1.661585 6.105358l-14.683774 17.446642a7.593057 7.593057 0 0 1-9.235321 2.028679 7.631698 7.631698 0 0 0 2.588982-2.028679l14.683773-17.446642a7.67034 7.67034 0 0 0 1.661585-6.105358l-10.124075-66.270189a4.134642 4.134642 0 0 1 1.159245-3.535698l4.34717-4.34717a7.341887 7.341887 0 0 0-0.154566-10.529811l-7.844227-7.341887a4.366491 4.366491 0 0 0-5.989434 0l-16.770415 15.649811-4.250566-4.250566 20.789132-20.673207 2.221887-2.202566 1.004679 0.830792 1.197887-0.830792 22.914415 22.895094-4.34717 4.327849z" fill="#F05543" /><path d="M559.915472 536.614642l36.767396 13.176754-31.724679 53.653736a4.096 4.096 0 0 1-6.491774 0.695547L517.796226 566.001509l37.86868-28.710641a4.096 4.096 0 0 1 4.250566-0.676226z" fill="#D0D0F7" /><path d="M484.912302 536.614642l-37.926642 12.30732 32.883925 54.52317c1.391094 2.318491 4.636981 2.666264 6.491773 0.695547l40.670189-38.13917-37.868679-28.710641a4.096 4.096 0 0 0-4.250566-0.676226z" fill="#D0D0F7" /><path d="M596.721509 549.772075l-31.76332 53.653736a4.096 4.096 0 0 1-6.472453 0.75351l-36.110491-33.811321-4.61766-4.327849 4.636981-3.516377 2.56966-1.932076 33.52151 31.396227c1.854792 1.932075 5.081358 1.661585 6.472453-0.656906l25.851169-43.664906z" fill="#C2C2EF" /><path d="M526.992906 566.040151l-4.617661 4.327849-36.013887 33.811321a4.096 4.096 0 0 1-6.453132-0.75351l-32.883924-54.484528 6.105358-2.028679 26.778566 44.437736c1.371774 2.29917 4.61766 2.56966 6.453132 0.637585l33.424906-31.396227 2.588981 1.932076z" fill="#C2C2EF" /><path d="M380.077887 390.800906a4.830189 4.830189 0 0 1-4.830189-4.830189V318.599245a4.830189 4.830189 0 0 1 9.660377 0v67.371472a4.830189 4.830189 0 0 1-4.830188 4.830189z" fill="#2D2C2C" /><path d="M397.543849 420.960604a2.627623 2.627623 0 0 1-2.56966 3.033358h-29.773283a2.55034 2.55034 0 0 1-2.588981-3.033358l5.39049-31.029132a12.172075 12.172075 0 0 1 4.59834-7.554415 9.216 9.216 0 1 1 16.673811-5.37117 8.597736 8.597736 0 0 1-1.79683 5.37117 12.172075 12.172075 0 0 1 4.598339 7.554415z" fill="#F9B938" /><path d="M397.543849 420.960604a2.627623 2.627623 0 0 1-2.56966 3.033358h-29.773283a2.55034 2.55034 0 0 1-2.588981-3.033358l0.251169-1.545661h26.720604c1.564981 0 2.82083-1.410415 2.56966-3.052679l-5.448452-31.029132a12.172075 12.172075 0 0 0-4.59834-7.554415 8.597736 8.597736 0 0 0 1.79683-5.390491c0-1.468377-0.386415-2.878792-1.024-4.11532 3.670943 1.159245 6.39517 4.675623 6.39517 8.71366a8.597736 8.597736 0 0 1-1.79683 5.390491 12.172075 12.172075 0 0 1 4.598339 7.554415z" fill="#E5A320" /></svg>