<?xml version="1.0" standalone="no"?><!DOCTYPE svg PUBLIC "-//W3C//DTD SVG 1.1//EN" "http://www.w3.org/Graphics/SVG/1.1/DTD/svg11.dtd"><svg class="icon" width="200px" height="200.00px" viewBox="0 0 1024 1024" version="1.1" xmlns="http://www.w3.org/2000/svg"><path d="M542.159698 373.276981h-10.723019a19.436679 19.436679 0 0 1 0-38.854038h10.723019a19.436679 19.436679 0 0 1 0 38.873359zM834.849811 373.276981H623.751245a19.436679 19.436679 0 0 1 0-38.854038H834.849811a19.436679 19.436679 0 0 1 0 38.873359z" fill="#FFFFFF" opacity=".3" /><path d="M975.234415 178.639698v666.720604c0 63.719849-51.992151 115.731321-115.731321 115.731321H164.458264c-63.719849 0-115.731321-52.011472-115.731321-115.731321V178.639698a115.847245 115.847245 0 0 1 115.731321-115.731321h695.083472a115.847245 115.847245 0 0 1 115.712 115.731321z" fill="#A2A2F9" /><path d="M975.273057 804.709434v40.650868c0 63.719849-51.97283 115.731321-115.712 115.731321H164.477585c-63.719849 0-115.712-52.011472-115.712-115.731321V804.709434c0 63.719849 51.992151 115.731321 115.731321 115.731321h695.064151c63.719849 0 115.731321-52.011472 115.73132-115.731321z" fill="#7979F7" /><path d="M148.963019 423.41434v398.838339c0 21.330113 17.292075 38.602868 38.622189 38.602868h648.868226a38.602868 38.602868 0 0 0 38.602868-38.602868V423.41434a38.602868 38.602868 0 0 0-38.602868-38.602868H187.604528a38.602868 38.602868 0 0 0-38.602868 38.602868z" fill="#FFFFFF" /><path d="M975.273057 178.659019v131.226566H48.765585V178.659019a115.731321 115.731321 0 0 1 115.731321-115.731321h695.064151c63.642566 0 115.731321 52.088755 115.73132 115.731321z" fill="#7979F7" /><path d="M975.273057 288.999849V178.659019c0-63.642566-52.069434-115.731321-115.731321-115.731321H164.496906a115.731321 115.731321 0 0 0-115.731321 115.731321v110.321509h926.526792z" fill="#474646" /><path d="M438.349283 169.133887a44.572981 44.572981 0 0 1-44.437736 44.630943 44.630943 44.630943 0 1 1 0-89.261887c24.460075 0 44.437736 19.996981 44.437736 44.630944zM315.160151 169.133887a44.572981 44.572981 0 0 1-44.437736 44.630943 44.630943 44.630943 0 1 1 0-89.261887c24.479396 0 44.437736 19.996981 44.437736 44.630944zM191.99034 169.133887a44.572981 44.572981 0 0 1-44.437736 44.630943 44.630943 44.630943 0 1 1 0-89.261887c24.460075 0 44.437736 19.996981 44.437736 44.630944z" fill="#FFFFFF" /><path d="M438.272 169.133887c0 24.633962-19.861736 44.688906-44.28317 44.688905a44.824151 44.824151 0 0 1-38.738113-22.238188 44.53434 44.53434 0 0 0 67.120302-38.332378c0-8.346566-2.163925-16.074868-6.337208-22.837132a44.824151 44.824151 0 0 1 22.218868 38.718793zM315.14083 169.133887a44.572981 44.572981 0 0 1-44.476377 44.688905 43.916075 43.916075 0 0 1-38.332378-22.238188c6.569057 3.960755 14.297358 6.163321 22.450717 6.163321a44.53434 44.53434 0 0 0 44.476378-44.495699c0-8.346566-2.183245-16.074868-6.163321-22.837132a44.882113 44.882113 0 0 1 22.044981 38.718793zM192.00966 169.133887a44.708226 44.708226 0 0 1-44.476377 44.688905 44.572981 44.572981 0 0 1-38.718792-22.431396c6.762264 4.153962 14.490566 6.356528 22.837132 6.356529a44.53434 44.53434 0 0 0 44.476377-44.495699c0-8.346566-2.183245-16.074868-6.144-22.837132a45.30717 45.30717 0 0 1 22.02566 38.718793z" fill="#E4E3FF" /><path d="M893.237132 169.133887c0 19.513962-15.823698 35.33766-35.33766 35.33766h-317.44a35.31834 35.31834 0 1 1 0-70.656h317.44c19.513962 0 35.33766 15.823698 35.33766 35.31834z" fill="#FFFFFF" /><path d="M893.217811 169.095245c0 19.475321-15.88166 35.356981-35.356981 35.356981H540.382189a35.105811 35.105811 0 0 1-34.217057-27.242264c6.240604 6.820226 15.321358 10.974189 25.32951 10.974189h317.478641c19.475321 0 35.356981-15.88166 35.356981-35.356981 0-2.840151-0.386415-5.487094-1.139924-8.114717 6.240604 6.221283 10.046792 14.915623 10.046792 24.382792z" fill="#E4E3FF" /><path d="M102.92166 717.186415a14.181434 14.181434 0 0 1-14.181434-14.200755V561.461132a14.181434 14.181434 0 0 1 28.362868 0v141.524528a14.181434 14.181434 0 0 1-14.181434 14.181434z" fill="#FFFFFF" opacity=".4" /><path d="M102.92166 519.283925a14.181434 14.181434 0 0 1-14.181434-14.181434v-18.122868a14.181434 14.181434 0 0 1 28.362868 0v18.122868a14.181434 14.181434 0 0 1-14.181434 14.181434z" fill="#FFFFFF" opacity=".4" /><path d="M830.290113 792.363472v68.453434H546.120453V792.344151c0-45.171925 34.004528-81.224453 75.099773-86.653585 0.676226-0.115925 5.390491-0.231849 12.674416-0.231849 3.226566-0.096604 6.994113-0.096604 11.090113-0.096604h86.344453c4.096 0 7.863547 0 11.070792 0.096604 7.303245 0 12.114113 0.115925 12.79034 0.231849a84.74083 84.74083 0 0 1 35.743396 13.679094c21.446038 13.138113 39.356377 40.824755 39.356377 72.974491z" fill="#B75F25" /><path d="M574.483321 812.186566a10.201358 10.201358 0 0 1-9.71834-10.665057l0.50234-10.76166c0.830792-17.388679 8.076075-34.487547 20.364075-46.833509a10.201358 10.201358 0 0 1 14.451925 14.393962 51.393208 51.393208 0 0 0-14.413283 33.405585l-0.50234 10.742339a10.201358 10.201358 0 0 1-10.684377 9.71834z" fill="#FFFFFF" opacity=".3" /><path d="M830.309434 792.266868v68.588679H546.004528v-15.939622h233.22083c18.064906 0 32.690717-14.625811 32.690717-32.690717v-35.666114a86.653585 86.653585 0 0 0-17.137509-52.24332c-1.236528-1.622943-2.666264-3.265208-3.864151-4.907472 25.174943 15.128151 39.375698 45.036679 39.375698 72.858566z" fill="#AA5821" /><path d="M742.4 705.478038v2.473056a54.291321 54.291321 0 0 1-54.252679 54.25268 54.291321 54.291321 0 0 1-54.252679-54.25268v-2.473056c3.245887-0.096604 7.071396-0.096604 11.206037-0.096604a5504.618264 5504.618264 0 0 1 97.299321 0.096604z" fill="#E4E3FF" /><path d="M720.045887 680.43834v27.474113a31.859925 31.859925 0 1 1-63.719849 0v-27.474113c9.853585 6.897509 19.185509 11.01283 31.859924 11.01283s22.02566-4.115321 31.859925-11.01283z" fill="#F7C9A9" /><path d="M719.987925 680.476981v27.474113c0 9.853585-4.482415 18.741132-11.553812 24.537359a29.17434 29.17434 0 0 0 0.676227-6.259925c0-11.148075-10.124075-19.996981-21.001661-17.620528-3.361811 0.753509-6.955472 1.139925-10.819622 1.139925-7.979472 0-14.683774-1.680906-20.98234-4.59834v-24.653283c9.872906 6.839547 19.185509 10.974189 31.840604 10.974189 12.674415 0 22.083623-4.134642 31.840604-10.974189z" fill="#E8AA80" /><path d="M760.175094 543.628075v81.591548a72.993811 72.993811 0 1 1-146.006943 0v-81.591548c45.075321-34.931925 94.072755-31.879245 146.006943 0z" fill="#F7C9A9" /><path d="M760.194415 616.660528v8.559095a73.051774 73.051774 0 0 1-124.618868 51.644377 72.993811 72.993811 0 0 1-21.368755-51.644377v-8.559095a72.993811 72.993811 0 0 0 72.95517 73.032453 73.051774 73.051774 0 0 0 73.032453-73.032453z" fill="#F0B68E" /><path d="M760.175094 570.851019v54.445887a27.242264 27.242264 0 0 0 26.701283-27.242264 27.242264 27.242264 0 0 0-26.701283-27.203623zM614.168151 570.851019v54.445887a27.242264 27.242264 0 0 1-26.701283-27.242264c0-14.83834 11.920906-26.894491 26.701283-27.203623z" fill="#F7C9A9" /><path d="M786.857057 598.035321a27.242264 27.242264 0 0 1-26.662642 27.242264v-5.023396a27.242264 27.242264 0 0 0 26.527396-24.498717c0.057962 0.77283 0.135245 1.52634 0.135246 2.279849zM614.206792 620.234868v5.023396a27.280906 27.280906 0 0 1-26.604679-29.502792 27.319547 27.319547 0 0 0 26.604679 24.479396z" fill="#F0B68E" /><path d="M619.577962 610.091472l2.048-34.738717a5.545057 5.545057 0 0 1 4.443774-5.158642c8.404528-1.603623 27.474113-6.897509 39.259773-22.895094 2.163925-2.898113 6.375849-3.284528 8.732982-0.540981 8.617057 10.008151 30.584755 28.131019 75.041811 24.691924a5.603019 5.603019 0 0 1 6.124679 5.545057v33.096453c5.854189-11.901585 5.718943-45.094642 21.716528-33.038491 49.40317-87.580981-65.400755-173.365132-146.683169-93.667019a4.443774 4.443774 0 0 1-3.864151 1.27517c-8.269283-1.410415-37.656151-2.704906-35.414944 50.504453 1.217208 28.845887 6.240604 42.061283 6.240604 42.061283 13.485887-5.255245 16.326038 8.346566 22.354113 32.864604z" fill="#2D2C2C" /><path d="M788.692528 539.628679c-4.675623-65.690566-92.546415-109.741887-158.372226-45.210566a4.579019 4.579019 0 0 1-3.980076 1.294491c-7.766943-1.313811-33.308981-2.376453-35.356981 39.452981-2.241208-53.132075 27.087698-51.895547 35.395623-50.485132a4.521057 4.521057 0 0 0 3.922113-1.294491c69.438792-68.067019 163.453585-15.302038 158.391547 56.223396z" fill="#1B1B1B" /><path d="M697.517887 632.406943c2.028679 2.782189 1.680906 6.820226-0.405736 9.930868-1.990038 3.284528-5.989434 5.177962-9.930868 5.255246-3.960755-0.057962-7.979472-1.951396-9.950189-5.235925-2.086642-3.129962-2.434415-7.168-0.386415-9.950189 4.115321 5.255245 7.535094 5.409811 10.317283 5.525736 2.82083-0.096604 6.240604-0.25117 10.355925-5.525736z" fill="#E8AA80" /><path d="M728.527698 611.231396a9.911547 9.911547 0 1 1-19.803773 0 9.911547 9.911547 0 0 1 19.803773 0zM729.493736 595.910038h-21.735849a2.898113 2.898113 0 1 1 0-5.796227h21.735849a2.898113 2.898113 0 1 1 0 5.796227zM665.6 611.231396a9.911547 9.911547 0 1 1-19.803774 0 9.911547 9.911547 0 0 1 19.823095 0zM666.604679 595.910038h-21.75517a2.898113 2.898113 0 1 1 0-5.796227h21.75517a2.898113 2.898113 0 1 1 0 5.796227z" fill="#2D2C2C" /><path d="M667.802566 660.711849c-2.492377 0-4.018717 2.898113-2.473057 4.86883a27.725283 27.725283 0 0 0 43.684227 0c1.54566-1.951396 0.019321-4.86883-2.473057-4.86883h-38.738113z" fill="#E8AA80" /><path d="M767.652226 607.096755a2.898113 2.898113 0 0 1-0.193207-4.096c3.516377-3.864151 0.830792-9.196679 0.792151-9.273963a2.898113 2.898113 0 0 1 5.177962-2.627622c0.193208 0.367094 4.482415 8.984151-1.680906 15.804377a2.898113 2.898113 0 0 1-4.096 0.193208zM603.38717 606.884226c-6.144-6.800906-1.854792-15.417962-1.661585-15.785056a2.936755 2.936755 0 0 1 3.902792-1.255849 2.898113 2.898113 0 0 1 1.27517 3.883471c-0.135245 0.270491-2.646943 5.487094 0.77283 9.273963a2.898113 2.898113 0 1 1-4.289207 3.883471z" fill="#F0B68E" /><path d="M527.340679 453.033057a15.282717 15.282717 0 0 1-15.282717 15.282717h-300.05132a15.282717 15.282717 0 0 1 0-30.584755h300.05132c8.44317 0 15.282717 6.858868 15.282717 15.302038zM485.337358 521.080755a15.282717 15.282717 0 0 1-15.282716 15.282717H212.006642a15.282717 15.282717 0 0 1 0-30.584755h258.048c8.44317 0 15.282717 6.858868 15.282716 15.302038zM527.340679 589.109132a15.282717 15.282717 0 0 1-15.282717 15.302038h-300.05132a15.282717 15.282717 0 1 1 0-30.584755h300.05132c8.44317 0 15.282717 6.839547 15.282717 15.282717zM400.90566 657.15683a15.282717 15.282717 0 0 1-15.263396 15.282717h-173.635622a15.282717 15.282717 0 0 1 0-30.584755h173.616301c8.44317 0 15.302038 6.858868 15.302038 15.302038zM468.528302 725.185208a15.282717 15.282717 0 0 1-15.263396 15.302037H211.987321a15.282717 15.282717 0 1 1 0-30.584754h241.238943c8.44317 0 15.302038 6.839547 15.302038 15.282717z" fill="#D0D0F7" /><path d="M527.36 452.975094c0 8.501132-6.762264 15.263396-15.263396 15.263397h-300.051321a15.070189 15.070189 0 0 1-14.297358-10.046793c2.704906 2.125283 5.989434 3.284528 9.467169 3.284528h300.051321c8.501132 0 15.456604-6.762264 15.456604-15.263396 0-1.738868-0.386415-3.284528-0.966038-4.830188 3.477736 2.704906 5.603019 6.955472 5.603019 11.592452zM485.433962 520.984151c0 8.501132-6.955472 15.456604-15.456604 15.456604h-257.932075c-6.569057 0-12.172075-4.250566-14.297358-10.24 2.704906 2.125283 5.989434 3.477736 9.467169 3.477736h258.125283c8.501132 0 15.263396-6.955472 15.263397-15.456604 0-1.738868-0.386415-3.477736-0.966038-5.023396 3.477736 2.704906 5.796226 6.955472 5.796226 11.78566zM527.36 589.205736c0 8.307925-6.762264 15.263396-15.263396 15.263396h-300.051321a14.876981 14.876981 0 0 1-14.297358-10.24c2.704906 2.125283 5.989434 3.477736 9.467169 3.477736h300.051321a15.456604 15.456604 0 0 0 15.456604-15.263396c0-1.738868-0.386415-3.477736-0.966038-5.023397 3.477736 2.704906 5.603019 6.955472 5.603019 11.785661zM401.002264 657.214792a15.456604 15.456604 0 0 1-15.456604 15.263397h-173.500377a14.876981 14.876981 0 0 1-14.297358-10.24c2.704906 2.125283 5.989434 3.477736 9.467169 3.477736h173.693585c8.501132 0 15.263396-6.955472 15.263396-15.263397 0-1.738868-0.386415-3.477736-0.966037-5.023396 3.477736 2.704906 5.796226 6.955472 5.796226 11.78566zM468.624906 725.223849c0 8.501132-6.955472 15.263396-15.456604 15.263396h-241.123019c-6.569057 0-12.172075-4.057358-14.297358-10.046792 2.704906 2.125283 5.989434 3.284528 9.467169 3.284528h241.316227c8.501132 0 15.263396-6.762264 15.263396-15.263396a14.490566 14.490566 0 0 0-0.966038-5.023396c3.477736 2.704906 5.796226 6.955472 5.796227 11.78566z" fill="#C2C2EF" /></svg>