<?xml version="1.0" standalone="no"?><!DOCTYPE svg PUBLIC "-//W3C//DTD SVG 1.1//EN" "http://www.w3.org/Graphics/SVG/1.1/DTD/svg11.dtd"><svg class="icon" width="200px" height="200.00px" viewBox="0 0 1024 1024" version="1.1" xmlns="http://www.w3.org/2000/svg"><path d="M671.396226 143.785057v814.563018c0 16.615849-13.331321 30.333585-30.140377 30.333585h-25.116981c-16.615849 0-30.140377-13.717736-30.140377-30.333585V143.785057c0-16.615849 13.524528-30.140377 30.140377-30.140378h25.116981c16.809057 0 30.140377 13.524528 30.140377 30.140378z" fill="#F4B37D" /><path d="M671.531472 143.843019v814.582339a30.140377 30.140377 0 0 1-30.101736 30.121057h-25.252227a29.869887 29.869887 0 0 1-29.908528-27.39683c2.318491 0.579623 4.849509 0.966038 7.573736 0.966038h25.252226c16.712453 0 30.101736-13.408604 30.101736-30.101736V117.431547c0-0.966038 0-1.932075-0.193207-2.704905 13.022189 3.284528 22.528 15.128151 22.528 29.116377z" fill="#EA9C5C" /><path d="M605.164679 735.618415V549.675472a11.882264 11.882264 0 0 1 23.745208 0v185.942943a11.882264 11.882264 0 0 1-23.764529 0zM605.164679 507.092528v-14.490566a11.882264 11.882264 0 0 1 23.745208 0v14.490566a11.882264 11.882264 0 0 1-23.764529 0z" fill="#FFFFFF" opacity=".2" /><path d="M495.635321 143.785057v814.620981a30.140377 30.140377 0 0 1-30.121057 30.140377H440.32a30.140377 30.140377 0 0 1-30.140377-30.140377V143.785057c0-16.615849 13.505208-30.121057 30.140377-30.121057h25.194264c16.63517 0 30.140377 13.485887 30.140378 30.140377z" fill="#F4B37D" /><path d="M495.712604 143.843019v814.582339a30.140377 30.140377 0 0 1-30.121057 30.121057h-25.232905a29.869887 29.869887 0 0 1-29.92785-27.39683c2.337811 0.579623 4.86883 0.966038 7.573736 0.966038h25.252227c16.712453 0 30.121057-13.408604 30.121056-30.101736V117.431547c0-0.966038 0-1.932075-0.193207-2.704905 13.002868 3.284528 22.528 15.128151 22.528 29.116377z" fill="#EA9C5C" /><path d="M429.171925 533.677887V293.173132a11.882264 11.882264 0 0 1 23.745207 0v240.504755a11.882264 11.882264 0 0 1-23.764528 0zM429.171925 250.590189v-14.490566a11.882264 11.882264 0 0 1 23.745207 0v14.490566a11.882264 11.882264 0 0 1-23.764528 0z" fill="#FFFFFF" opacity=".2" /><path d="M299.742189 143.785057v814.620981a30.140377 30.140377 0 0 1-30.140378 30.140377H244.407547a30.140377 30.140377 0 0 1-30.121056-30.140377V143.785057c0-16.615849 13.485887-30.121057 30.140377-30.121057h25.194264c16.63517 0 30.121057 13.485887 30.121057 30.140377z" fill="#F4B37D" /><path d="M299.800151 143.843019v814.582339a30.140377 30.140377 0 0 1-30.101736 30.121057h-25.252226a29.869887 29.869887 0 0 1-29.908529-27.39683c2.318491 0.579623 4.849509 0.966038 7.573736 0.966038h25.252227c16.712453 0 30.101736-13.408604 30.101735-30.101736V117.431547c0-0.966038 0-1.932075-0.193207-2.704905 13.022189 3.284528 22.528 15.128151 22.528 29.116377z" fill="#EA9C5C" /><path d="M230.380679 833.28483v-185.942943a11.882264 11.882264 0 0 1 23.764529 0v185.942943a11.882264 11.882264 0 0 1-23.764529 0zM230.380679 604.739623v-14.490566a11.882264 11.882264 0 0 1 23.764529 0v14.490566a11.882264 11.882264 0 0 1-23.764529 0z" fill="#FFFFFF" opacity=".2" /><path d="M623.287547 68.067019c0 18.084226-14.683774 32.748679-32.768 32.748679h-83.639547a32.748679 32.748679 0 1 1 0-65.497358h83.658868c18.064906 0 32.729358 14.664453 32.729358 32.748679z" fill="#F4B37D" /><path d="M623.287547 68.047698c0 18.142189-14.625811 32.768-32.768 32.768h-83.639547a32.671396 32.671396 0 0 1-30.46883-20.75049c6.105358 7.148679 15.186113 11.78566 25.271547 11.78566h83.620226a32.845283 32.845283 0 0 0 30.372227-44.978717c4.636981 5.776906 7.593057 13.138113 7.593056 21.175547z" fill="#EA9C5C" /><path d="M547.608151 58.406642h-20.866415a5.004075 5.004075 0 0 1 0-10.008151h20.866415a5.004075 5.004075 0 0 1 0 10.008151zM508.792755 58.406642h-6.105359a5.004075 5.004075 0 0 1 0-10.008151h6.105359a5.004075 5.004075 0 0 1 0 10.008151z" fill="#FFFFFF" opacity=".2" /><path d="M671.396226 557.442415v305.267925a150.895094 150.895094 0 0 1-85.397735-29.17434v-246.919245a150.895094 150.895094 0 0 1 85.397735-29.17434z" fill="#EA9C5C" /><path d="M809.636226 710.057057a133.409811 133.409811 0 0 1-133.545056 133.545056 133.409811 133.409811 0 0 1-133.545057-133.545056 133.409811 133.409811 0 0 1 133.545057-133.545057 133.409811 133.409811 0 0 1 133.545056 133.545057z" fill="#5BC658" /><path d="M597.436377 689.944151a15.475925 15.475925 0 0 1-7.457811-20.595925 93.937509 93.937509 0 0 1 80.026566-53.904905c8.288604-0.714868 15.843019 6.105358 16.306717 14.645132a15.495245 15.495245 0 0 1-14.606491 16.306717 62.927698 62.927698 0 0 0-53.673056 36.09117 15.495245 15.495245 0 0 1-20.595925 7.457811z" fill="#FFFFFF" opacity=".3" /><path d="M809.713509 710.057057a133.429132 133.429132 0 0 1-133.622339 133.622339 133.37117 133.37117 0 0 1-102.631849-47.915471 131.110642 131.110642 0 0 0 65.052981 16.924981 133.390491 133.390491 0 0 0 133.603019-133.390491c0-33.038491-11.76634-63.198189-31.376906-86.344453a133.738264 133.738264 0 0 1 68.975094 117.103095z" fill="#49A247" /><path d="M426.988679 68.067019c0 18.084226-14.683774 32.748679-32.748679 32.748679h-83.658868a32.748679 32.748679 0 1 1 0-65.497358h83.658868c18.084226 0 32.748679 14.664453 32.748679 32.748679z" fill="#F4B37D" /><path d="M426.988679 68.047698c0 18.142189-14.625811 32.768-32.748679 32.768h-83.658868a32.671396 32.671396 0 0 1-30.46883-20.75049c6.124679 7.148679 15.186113 11.78566 25.271547 11.78566h83.639547a32.845283 32.845283 0 0 0 30.372227-44.978717c4.636981 5.776906 7.593057 13.138113 7.593056 21.175547z" fill="#EA9C5C" /><path d="M351.309283 58.406642h-20.866415a5.004075 5.004075 0 0 1 0-10.008151h20.866415a5.004075 5.004075 0 0 1 0 10.008151zM312.513208 58.406642h-6.105359a5.004075 5.004075 0 0 1 0-10.008151h6.105359a5.004075 5.004075 0 0 1 0 10.008151z" fill="#FFFFFF" opacity=".2" /></svg>