<?xml version="1.0" standalone="no"?><!DOCTYPE svg PUBLIC "-//W3C//DTD SVG 1.1//EN" "http://www.w3.org/Graphics/SVG/1.1/DTD/svg11.dtd"><svg class="icon" width="200px" height="200.00px" viewBox="0 0 1024 1024" version="1.1" xmlns="http://www.w3.org/2000/svg"><path d="M980.180528 183.276679v657.485283c0 48.688302-39.41434 88.295849-88.295849 88.295849h-600.102641c-48.881509 0-88.295849-39.607547-88.295849-88.295849V183.276679c0-48.688302 39.41434-88.295849 88.295849-88.295849h600.102641c48.881509 0 88.295849 39.607547 88.295849 88.295849z" fill="#D0D0F7" /><path d="M412.343547 299.954717v37.868679h-86.170566c-33.811321 0-61.053585 27.242264-61.053585 61.053585v139.689057h-61.633207v-280.150944h167.897358c22.605283 0 40.96 18.741132 40.96 41.539623zM980.238491 183.160755v657.67849a88.295849 88.295849 0 0 1-88.295849 88.276529H291.782038a88.160604 88.160604 0 0 1-68.569359-32.652076 85.610264 85.610264 0 0 0 34.912604 7.187321h600.141283a88.295849 88.295849 0 0 0 88.295849-88.295849V157.715321a87.484377 87.484377 0 0 0-19.513962-55.238038l-0.386415-0.405736c1.835472 0.811472 3.477736 1.642264 5.313207 2.666264 0.830792 0.618264 1.854792 1.024 2.685585 1.449057 2.048 1.217208 3.883472 2.453736 5.738264 3.477736 0.193208 0.425057 0.405736 0.425057 0.618264 0.425056a87.716226 87.716226 0 0 1 39.221133 73.090415z" fill="#C2C2EF" /><path d="M918.547321 398.896302v407.667924c0 33.618113-27.242264 61.053585-60.860378 61.053585h-531.513962a61.053585 61.053585 0 0 1-61.053585-61.053585v-407.667924c0-33.811321 27.242264-61.053585 61.053585-61.053585h531.513962c33.618113 0 60.860377 27.242264 60.860378 61.053585z" fill="#FFFFFF" /><path d="M918.547321 691.586415v114.958491c0 33.618113-27.242264 61.053585-60.860378 61.053585h-531.513962a60.860377 60.860377 0 0 1-60.473962-53.711699c109.741887 34.970566 256.193208 35.356981 407.088302-7.535094 94.092075-26.855849 177.944151-67.043019 245.76-114.765283z" fill="#E4E3FF" /><path d="M979.620226 183.160755v75.350943H538.12166c-7.303245 0-14.142792-3.555019-18.316075-9.544453l-30.256302-43.433056a29.676679 29.676679 0 0 0-24.344151-12.713057h-127.922717c-16.403321 0-29.676679 13.292679-29.676679 29.676679v13.717736c0 12.326642-9.98883 22.315472-22.315472 22.315472H202.674717v-75.350944a88.295849 88.295849 0 0 1 88.295849-88.295849h600.353811a88.295849 88.295849 0 0 1 88.295849 88.295849z" fill="#5E5EEF" /><path d="M979.620226 183.160755v75.350943h-33.057811V157.734642a87.484377 87.484377 0 0 0-19.513962-55.238038c1.642264 0.618264 3.284528 1.449057 4.926792 2.260528 0.830792 0.618264 1.854792 1.024 2.685585 1.449057 2.048 1.217208 3.883472 2.453736 5.738264 3.477736 0.193208 0.425057 0.405736 0.425057 0.618264 0.425056a88.759547 88.759547 0 0 1 38.602868 73.090415z" fill="#4242E5" /><path d="M913.717132 176.784906a28.208302 28.208302 0 1 1-56.416604-0.135246 28.208302 28.208302 0 0 1 56.416604 0.135246zM820.803623 176.784906a28.208302 28.208302 0 1 1-56.416604-0.135246 28.208302 28.208302 0 0 1 56.416604 0.135246zM727.890113 176.784906a28.208302 28.208302 0 1 1-56.416604-0.135246 28.208302 28.208302 0 0 1 56.416604 0.135246z" fill="#FFFFFF" /><path d="M913.717132 176.804226a28.208302 28.208302 0 0 1-28.343547 28.131019c-9.447849 0-18.064906-4.926792-22.991698-12.30732a27.049057 27.049057 0 0 0 12.114113 2.859471 28.208302 28.208302 0 0 0 28.324226-28.131019c0-5.950792-1.835472-11.283321-4.926792-15.804377 9.46717 4.521057 15.823698 14.162113 15.823698 25.252226zM820.707019 176.804226c0 15.398642-12.53917 28.131019-28.131019 28.131019-9.660377 0-18.064906-4.926792-23.416755-12.30732 3.709585 1.835472 8.018113 2.859472 12.519849 2.859471 15.61117 0 28.131019-12.519849 28.131019-28.131019 0-5.950792-1.835472-11.283321-4.714264-15.804377 9.235321 4.521057 15.61117 14.162113 15.61117 25.252226zM727.890113 176.804226a28.208302 28.208302 0 0 1-28.324226 28.131019c-9.46717 0-18.084226-4.926792-22.991698-12.30732a27.049057 27.049057 0 0 0 12.094792 2.859471 28.208302 28.208302 0 0 0 28.343547-28.131019c0-5.950792-1.854792-11.283321-4.926792-15.804377 9.447849 4.521057 15.804377 14.162113 15.804377 25.252226z" fill="#E4E3FF" /><path d="M235.288151 739.482566a10.24 10.24 0 0 1-10.24-10.24V608.603774a10.24 10.24 0 0 1 20.48 0v120.677434a10.24 10.24 0 0 1-10.24 10.24zM235.288151 581.091019a10.24 10.24 0 0 1-10.24-10.24v-13.524528a10.24 10.24 0 0 1 20.48 0v13.524528a10.24 10.24 0 0 1-10.24 10.24z" fill="#FFFFFF" opacity=".4" /><path d="M412.343547 337.842717v159.396226c0 22.798491-18.354717 41.346415-40.96 41.346415h-20.286792v50.620378c0 5.603019-6.375849 8.69434-10.626415 5.409811l-74.578114-56.030189h-0.77283v-139.689056c0-33.811321 27.242264-61.053585 61.053585-61.053585h86.170566z" fill="#E4E3FF" /><path d="M862.381887 300.53434a10.24 10.24 0 0 1-10.24 10.24h-120.677434a10.24 10.24 0 0 1 0-20.48h120.677434a10.24 10.24 0 0 1 10.24 10.24zM703.971019 300.53434a10.24 10.24 0 0 1-10.24 10.24h-13.524528a10.24 10.24 0 0 1 0-20.48h13.524528a10.24 10.24 0 0 1 10.24 10.24zM489.99366 127.381736a10.24 10.24 0 0 1-10.24 10.24h-120.658113a10.24 10.24 0 0 1 0-20.48h120.677434a10.24 10.24 0 0 1 10.24 10.24zM331.602113 127.381736a10.24 10.24 0 0 1-10.24 10.24h-13.524528a10.24 10.24 0 0 1 0-20.48h13.524528a10.24 10.24 0 0 1 10.24 10.24z" fill="#FFFFFF" opacity=".4" /><path d="M443.64317 602.652981c0 81.958642 66.366792 148.325434 148.132226 148.325434 81.958642 0 148.325434-66.366792 148.325434-148.325434s-66.366792-148.344755-148.325434-148.344755c-81.765434 0-148.132226 66.386113-148.132226 148.344755z" fill="#FC6559" /><path d="M476.024755 609.878943h-0.096604a8.655698 8.655698 0 0 1-8.578415-8.771622 124.290415 124.290415 0 0 1 47.046038-96.062793 8.655698 8.655698 0 1 1 10.800301 13.524529 107.036981 107.036981 0 0 0-40.496301 82.731471 8.655698 8.655698 0 0 1-8.675019 8.578415zM551.066566 493.683925a8.69434 8.69434 0 0 1 5.912151-10.74234c7.361208-2.125283 14.915623-3.59366 22.489358-4.34717 4.443774-0.270491 9.003472 3.033358 9.46717 7.805585a8.69434 8.69434 0 0 1-7.805585 9.46717 105.568604 105.568604 0 0 0-19.320754 3.728905 8.69434 8.69434 0 0 1-10.74234-5.91215z" fill="#FFFFFF" opacity=".3" /><path d="M740.062189 602.61434a148.286792 148.286792 0 0 1-148.325434 148.344754 147.475321 147.475321 0 0 1-120.406944-62.135547 146.915019 146.915019 0 0 0 96.526491 36.033208 148.286792 148.286792 0 0 0 148.325434-148.325434 146.122868 146.122868 0 0 0-27.512755-85.822793 146.374038 146.374038 0 0 1 51.393208 111.925132z" fill="#F05543" /><path d="M650.433208 623.287547l-66.927095 42.795472a24.479396 24.479396 0 0 1-37.675471-20.634566v-85.590944a24.479396 24.479396 0 0 1 37.675471-20.634566l66.927095 42.795472c15.070189 9.621736 15.070189 31.628075 0 41.249811z" fill="#E4E3FF" /><path d="M650.375245 623.210264l-66.849811 42.892076c-16.229434 10.433208-37.675472-1.352453-37.675472-20.673208v-19.513962c9.080755 2.704906 19.127547 4.057358 29.560755 4.057358 36.709434 0 68.009057-17.775094 80.567547-42.892075 9.080755 10.819623 7.148679 28.015094-5.603019 36.129811z" fill="#C2C2EF" /><path d="M43.761509 272.577208v197.12966c0 22.914415 18.316075 41.500981 40.882717 41.500981h166.776755l74.423547 55.991547a6.684981 6.684981 0 0 0 10.665057-5.448453V511.22717h20.325434c22.605283 0 40.902038-18.586566 40.902038-41.500981V272.577208c0-22.914415-18.316075-41.48166-40.902038-41.481661H84.644226c-22.566642 0-40.882717 18.567245-40.882717 41.481661z" fill="#5BC658" /><path d="M373.276981 234.708528c4.482415 6.66566 7.013434 14.683774 7.013434 23.30083v197.071699c0 22.991698-18.335396 41.443019-40.824755 41.443018h-20.422037v50.67834c0 4.385811-3.825509 7.148679-7.573736 6.607698v2.531019l14.432604 10.819623c4.308528 3.342491 10.568453 0.154566 10.568452-5.429132v-50.523774h20.422038c22.508679 0 40.844075-18.605887 40.844076-41.443019V272.519245c0-16.924981-9.98883-31.454189-24.440755-37.810717z" fill="#49A247" /><path d="M206.210415 258.511698h-7.071396a7.41917 7.41917 0 0 1-7.361208-7.477132c0-4.134642 3.284528-7.477132 7.361208-7.477132h7.071396c4.076679 0 7.380528 3.342491 7.380528 7.477132 0 4.134642-3.303849 7.477132-7.380528 7.477132z" fill="#FFFFFF" opacity=".3" /><path d="M330.423547 258.511698h-93.048755a7.41917 7.41917 0 0 1-7.380528-7.477132c0-4.134642 3.303849-7.477132 7.380528-7.477132h93.048755c4.076679 0 7.380528 3.342491 7.380528 7.477132 0 4.134642-3.303849 7.477132-7.380528 7.477132z" fill="#FFFFFF" opacity=".3" /><path d="M64.492679 444.106868c4.076679 0 7.380528-3.342491 7.380529-7.477132v-68.85917a7.41917 7.41917 0 0 0-7.380529-7.477132 7.41917 7.41917 0 0 0-7.361207 7.477132V436.649057c0 4.134642 3.284528 7.477132 7.361207 7.477132z" fill="#FFFFFF" opacity=".3" /><path d="M64.492679 345.802868c4.076679 0 7.380528-3.342491 7.380529-7.477132v-7.786264a7.41917 7.41917 0 0 0-7.380529-7.477132 7.41917 7.41917 0 0 0-7.361207 7.477132v7.786264c0 4.134642 3.284528 7.477132 7.361207 7.477132z" fill="#FFFFFF" opacity=".3" /><path d="M83.079245 446.154868v-150.02566c0-13.891623 11.090113-25.155623 24.788529-25.155623h225.763018c13.698415 0 24.807849 11.264 24.80785 25.155623v150.02566c0 13.910943-11.109434 25.155623-24.80785 25.155623H107.867774a24.981736 24.981736 0 0 1-24.807849-25.155623z" fill="#FFFFFF" /><path d="M358.419321 296.167849v149.967698c0 13.968906-11.109434 25.116981-24.749887 25.116981H107.809811a24.82717 24.82717 0 0 1-23.687245-17.543245c1.487698 0.309132 3.052679 0.405736 4.636981 0.405736h225.724378c13.659774 0 24.749887-11.264 24.749886-25.232906v-149.967698c0-2.608302-0.386415-5.197283-1.081962-7.593057a25.174943 25.174943 0 0 1 20.248151 24.846491z" fill="#E4E3FF" /><path d="M172.611623 360.235472a23.04966 23.04966 0 1 1-22.991698-22.991698c12.751698 0 22.991698 10.24 22.991698 22.991698zM243.808604 360.235472a23.04966 23.04966 0 1 1-22.991698-22.991698c12.751698 0 22.991698 10.24 22.991698 22.991698zM315.005585 360.235472a23.04966 23.04966 0 1 1-22.991698-22.991698c12.751698 0 22.991698 10.24 22.991698 22.991698z" fill="#474646" /><path d="M172.572981 360.254792c0 12.751698-10.24 23.184906-22.991698 23.184906-9.080755 0-16.809057-5.216604-20.48-12.751698 3.864151 2.898113 8.307925 4.443774 13.331321 4.443774 12.751698 0 22.991698-10.433208 22.991698-23.184906 0-3.864151-0.966038-7.535094-2.704906-10.626415 5.989434 4.057358 9.853585 11.01283 9.853585 18.934339zM243.866566 360.254792c0 12.751698-10.24 23.184906-22.991698 23.184906a23.184906 23.184906 0 0 1-20.673208-12.751698c3.864151 2.898113 8.501132 4.443774 13.524529 4.443774 12.751698 0 22.991698-10.433208 22.991698-23.184906 0-3.864151-0.966038-7.535094-2.704906-10.626415 5.989434 4.057358 9.853585 11.01283 9.853585 18.934339zM314.966943 360.254792c0 12.751698-10.24 23.184906-22.991698 23.184906a23.184906 23.184906 0 0 1-20.673207-12.751698c3.864151 2.898113 8.501132 4.443774 13.524528 4.443774 12.751698 0 22.991698-10.433208 22.991698-23.184906 0-3.864151-0.966038-7.535094-2.704906-10.626415 5.989434 4.057358 9.853585 11.01283 9.853585 18.934339z" fill="#2D2C2C" /></svg>