<?xml version="1.0" standalone="no"?><!DOCTYPE svg PUBLIC "-//W3C//DTD SVG 1.1//EN" "http://www.w3.org/Graphics/SVG/1.1/DTD/svg11.dtd"><svg class="icon" width="200px" height="200.00px" viewBox="0 0 1024 1024" version="1.1" xmlns="http://www.w3.org/2000/svg"><path d="M956.956981 317.130868l-68.588679 586.191698a107.577962 107.577962 0 0 1-106.843774 95.058113h-539.049056c-54.484528 0-100.467925-40.766792-106.843774-95.058113l-68.588679-586.191698A107.616604 107.616604 0 0 1 173.886792 196.955774h676.226416a107.616604 107.616604 0 0 1 106.843773 120.175094z" fill="#5E5EEF" /><path d="M956.956981 317.130868l-68.588679 586.191698a107.577962 107.577962 0 0 1-106.843774 95.058113h-539.049056a107.616604 107.616604 0 0 1-94.092076-55.450566c18.354717 14.683774 41.73283 23.378113 66.656604 23.378113h538.855849c54.484528 0 100.467925-40.766792 106.843774-95.058113l68.588679-586.191698c2.704906-23.764528-2.318491-46.176604-13.138113-65.304151a107.384755 107.384755 0 0 1 40.766792 97.376604z" fill="#4242E5" /><path d="M880.253585 308.050113L811.471698 894.241811c-1.738868 15.263396-14.683774 26.855849-29.94717 26.855849H242.668679c-15.456604 0-28.401509-11.592453-30.140377-26.662641l-68.781887-586.384906c-1.352453-11.592453 4.057358-19.900377 7.535094-23.571321 3.284528-3.864151 10.819623-10.24 22.605283-10.24h676.226416c11.78566 0 19.320755 6.375849 22.605283 10.24 3.477736 3.670943 8.887547 11.978868 7.535094 23.571321z" fill="#E4E3FF" /><path d="M186.445283 319.835774c-3.284528 3.670943-8.69434 11.78566-7.341887 23.57132l67.815849 577.690566h-4.250566c-15.456604 0-28.401509-11.592453-30.140377-26.662641l-68.781887-586.384906c-1.352453-11.592453 4.057358-19.900377 7.535094-23.571321 3.284528-3.864151 10.819623-10.24 22.605283-10.24h676.226416c11.78566 0 19.320755 6.375849 22.605283 10.24 3.477736 3.670943 8.887547 11.978868 7.535094 23.571321l-0.193208 1.545661H209.243774c-11.978868 0-19.320755 6.375849-22.798491 10.24z" fill="#D0D0F7" /><path d="M703.661887 217.33917c0 105.742491-85.76483 191.603925-191.603925 191.603924-105.877736 0-191.719849-85.861434-191.719849-191.603924 0-105.877736 85.861434-191.719849 191.719849-191.719849 105.839094 0 191.603925 85.861434 191.603925 191.719849z" fill="#5E5EEF" /><path d="M344.933434 217.744906h-0.154566a4.926792 4.926792 0 0 1-4.752906-5.081359A174.85283 174.85283 0 0 1 440.513208 59.89434a4.926792 4.926792 0 0 1 4.192603 8.887547 165.037887 165.037887 0 0 0-94.864905 144.229434 4.926792 4.926792 0 0 1-4.926793 4.752905zM476.16 57.517887a4.907472 4.907472 0 0 1-1.120604-9.699019 176.398491 176.398491 0 0 1 27.358189-4.192604 5.12 5.12 0 0 1 5.274566 4.559698 4.926792 4.926792 0 0 1-4.559698 5.255246 166.158491 166.158491 0 0 0-25.831849 3.941434 4.540377 4.540377 0 0 1-1.120604 0.135245z" fill="#FFFFFF" opacity=".3" /><path d="M655.437283 217.319849a143.417962 143.417962 0 0 1-143.398641 143.398642 143.475925 143.475925 0 0 1-143.475925-143.398642 143.417962 143.417962 0 1 1 286.874566 0z" fill="#FFFFFF" /><path d="M381.353057 226.284679a142.915623 142.915623 0 0 0 54.619773 112.485434 143.089509 143.089509 0 0 1-67.410113-121.469585 143.495245 143.495245 0 0 1 143.495245-143.495245 141.81434 141.81434 0 0 1 89.455095 31.396226A141.949585 141.949585 0 0 0 524.751698 82.886038a143.456604 143.456604 0 0 0-143.398641 143.398641z" fill="#E4E3FF" /><path d="M532.827774 217.281208a20.808453 20.808453 0 0 1-41.616906 0c0-9.660377 14.722415-56.764377 19.398038-71.40951a1.468377 1.468377 0 0 1 2.782188 0c4.675623 14.645132 19.436679 61.729811 19.43668 71.40951z" fill="#FC6559" /><path d="M532.808453 217.300528c0 11.476528-9.351245 20.750491-20.827774 20.750491-6.39517 0-12.133434-2.878792-15.939622-7.41917a20.73117 20.73117 0 0 0 28.594717-19.166189c0.019321-7.766943-9.699019-40.361057-15.804378-60.16483 0.734189-2.125283 1.294491-3.980075 1.738868-5.467773 0.483019-1.391094 2.415094-1.391094 2.782189 0 4.733585 14.722415 19.456 61.749132 19.456 71.486792z" fill="#F05543" /><path d="M512 114.765283a4.636981 4.636981 0 0 1-4.636981-4.61766V98.342642a4.636981 4.636981 0 1 1 9.273962 0v11.824301a4.636981 4.636981 0 0 1-4.636981 4.636982zM471.001358 118.185057l-4.038037-11.109434a4.636981 4.636981 0 1 1 8.694339-3.168604l4.057359 11.109434a4.636981 4.636981 0 1 1-8.69434 3.168604zM439.585811 138.182038l-7.593056-9.061434a4.636981 4.636981 0 1 1 7.071396-5.950793l7.612377 9.080755a4.636981 4.636981 0 1 1-7.090717 5.931472zM416.903245 167.723472l-10.24-5.912151a4.61766 4.61766 0 1 1 4.636981-8.018113l10.24 5.91215a4.61766 4.61766 0 1 1-4.636981 8.018114zM406.508679 203.312302c-0.289811 0-0.560302-0.019321-0.830792-0.077283l-11.631095-2.048a4.636981 4.636981 0 1 1 1.603623-9.119396l11.650415 2.048a4.636981 4.636981 0 0 1-0.811472 9.196679zM394.838943 242.572075a4.636981 4.636981 0 0 1-0.792151-9.196679l11.631095-2.048a4.636981 4.636981 0 1 1 1.622943 9.119396l-11.650415 2.048a4.134642 4.134642 0 0 1-0.811472 0.077283zM404.963019 279.088302a4.61766 4.61766 0 0 1 1.700226-6.337208l10.24-5.912151a4.636981 4.636981 0 1 1 4.636981 8.018114l-10.24 5.912151a4.636981 4.636981 0 0 1-6.337207-1.680906zM432.553057 311.952906a4.636981 4.636981 0 0 1-0.579623-6.511095l7.612377-9.080754a4.636981 4.636981 0 1 1 7.090717 5.970113l-7.612377 9.042113a4.636981 4.636981 0 0 1-6.511094 0.579623zM469.726189 333.418264a4.636981 4.636981 0 0 1-2.762868-5.931472l4.057358-11.109434a4.636981 4.636981 0 1 1 8.69434 3.168604l-4.057359 11.109434a4.636981 4.636981 0 0 1-5.931471 2.762868zM512 340.876075a4.636981 4.636981 0 0 1-4.636981-4.636981v-11.824302a4.636981 4.636981 0 1 1 9.273962 0v11.824302a4.636981 4.636981 0 0 1-4.636981 4.636981zM548.323019 330.655396l-4.038038-11.109434a4.636981 4.636981 0 1 1 8.69434-3.168604l4.057358 11.109434a4.636981 4.636981 0 1 1-8.694339 3.168604zM584.916528 311.373283l-7.593056-9.042113a4.636981 4.636981 0 1 1 7.071396-5.950793l7.612377 9.061434a4.636981 4.636981 0 1 1-7.090717 5.931472zM612.699774 280.769208l-10.24-5.912151a4.61766 4.61766 0 1 1 4.636981-8.018114l10.24 5.912151a4.61766 4.61766 0 1 1-4.636981 8.018114zM629.161057 242.572075c-0.270491 0-0.540981-0.019321-0.811472-0.077283l-11.650415-2.048a4.636981 4.636981 0 1 1 1.603622-9.119396l11.650416 2.048a4.636981 4.636981 0 0 1-0.792151 9.196679zM617.491321 203.312302a4.636981 4.636981 0 0 1-0.792151-9.196679l11.650415-2.048a4.636981 4.636981 0 1 1 1.603623 9.119396l-11.650416 2.048a4.134642 4.134642 0 0 1-0.811471 0.077283zM604.778264 168.341736a4.61766 4.61766 0 0 1-2.31849-8.636378l10.24-5.91215a4.61766 4.61766 0 1 1 4.636981 8.018113l-10.24 5.912151a4.59834 4.59834 0 0 1-2.318491 0.618264zM577.883774 138.76166a4.636981 4.636981 0 0 1-0.579623-6.530415l7.612377-9.061434a4.636981 4.636981 0 0 1 7.090717 5.950793l-7.612377 9.080754a4.636981 4.636981 0 0 1-6.511094 0.560302zM547.047849 120.947925a4.636981 4.636981 0 0 1-2.762868-5.931472l4.057359-11.109434a4.636981 4.636981 0 1 1 8.694339 3.168604l-4.057358 11.109434a4.636981 4.636981 0 0 1-5.931472 2.762868z" fill="#474646" /><path d="M551.974642 265.73766v16.132831a6.569057 6.569057 0 0 1-6.569057 6.569056h-66.772528a6.569057 6.569057 0 0 1-6.569057-6.569056v-16.132831a6.569057 6.569057 0 0 1 6.569057-6.569056h66.772528a6.569057 6.569057 0 0 1 6.569057 6.569056z" fill="#F9B938" /><path d="M551.878038 264.790943a7.960151 7.960151 0 0 0-2.588981-0.463698h-66.753208a6.511094 6.511094 0 0 0-6.569057 6.491774v16.190792c0 0.289811 0 0.656906 0.077283 0.927397a6.64634 6.64634 0 0 1-3.980075-6.105359v-16.113509c0-3.612981 2.975396-6.569057 6.569057-6.569057h66.753207a6.569057 6.569057 0 0 1 6.491774 5.64166z" fill="#E5A320" /><path d="M507.363019 869.820377a14.490566 14.490566 0 0 1-14.490566-14.490566V460.8a14.490566 14.490566 0 0 1 28.981132 0v394.529811a14.490566 14.490566 0 0 1-14.490566 14.490566z" fill="#D0D0F7" /><path d="M774.91683 507.459623h-190.251472a14.490566 14.490566 0 0 1 0-28.981132h190.251472a14.490566 14.490566 0 0 1 0 28.981132zM760.271698 605.145358H599.329811a14.490566 14.490566 0 0 1 0-28.981132h160.980529a14.490566 14.490566 0 0 1 0 28.981132zM749.548679 702.869736h-139.495849a14.490566 14.490566 0 0 1 0-28.981132h139.495849a14.490566 14.490566 0 0 1 0 28.981132zM741.337358 800.574792H618.264151a14.490566 14.490566 0 0 1 0-28.981132h123.092528a14.490566 14.490566 0 0 1 0 28.981132z" fill="#D0D0F7" /><path d="M439.353962 507.459623h-190.270792a14.490566 14.490566 0 0 1 0-28.981132h190.251472a14.490566 14.490566 0 0 1 0 28.981132zM424.670189 605.145358h-160.941887a14.490566 14.490566 0 0 1 0-28.981132h160.941887a14.490566 14.490566 0 0 1 0 28.981132zM413.94717 702.869736h-139.495849a14.490566 14.490566 0 0 1 0-28.981132h139.495849a14.490566 14.490566 0 0 1 0 28.981132zM405.735849 800.574792h-123.073207a14.490566 14.490566 0 0 1 0-28.981132H405.735849a14.490566 14.490566 0 0 1 0 28.981132z" fill="#D0D0F7" /></svg>