<?xml version="1.0" standalone="no"?><!DOCTYPE svg PUBLIC "-//W3C//DTD SVG 1.1//EN" "http://www.w3.org/Graphics/SVG/1.1/DTD/svg11.dtd"><svg class="icon" width="200px" height="200.00px" viewBox="0 0 1024 1024" version="1.1" xmlns="http://www.w3.org/2000/svg"><path d="M779.206038 904.501132v1.738868c-0.579623 63.951698-78.828679 92.353208-124.812076 47.915472-36.129811-34.970566-86.556981-56.609811-142.393962-56.609812-55.836981 0-106.264151 21.639245-142.393962 56.609812-45.983396 44.437736-124.232453 16.036226-124.812076-47.915472v-1.738868c0-37.482264 11.01283-76.123774 30.72-111.673962 44.630943-81.726792 133.699623-147.610566 236.486038-147.610566s191.855094 65.883774 236.486038 147.610566c19.70717 35.550189 30.72 74.191698 30.72 111.673962z" fill="#A2A2F9" /><path d="M748.486038 792.82717c-67.815849 45.210566-149.156226 71.486792-236.486038 71.486792-87.329811 0-168.670189-26.276226-236.486038-71.486792 44.630943-81.726792 133.699623-147.610566 236.486038-147.610566s191.855094 65.883774 236.486038 147.610566z" fill="#7979F7" /><path d="M237.024898 711.87727a388.714264 388.714264 0 1 0 549.724985-549.724984 388.714264 388.714264 0 1 0-549.724985 549.724984Z" fill="#7979F7" /><path d="M180.99683 499.827925a338.750792 338.750792 0 0 1-6.047396-62.792453c0-148.827774 99.656453-281.889811 242.378868-323.56468a14.471245 14.471245 0 1 1 8.114717 27.821887c-130.415094 38.119849-221.512453 159.724679-221.512453 295.742793 0 18.625208 1.854792 37.945962 5.564377 57.401962a14.490566 14.490566 0 1 1-28.498113 5.409811zM614.206792 146.68317a312.416604 312.416604 0 0 0-64.512-15.36c-7.921509-1.004679-13.524528-8.249962-12.55849-16.210113s8.192-13.466566 16.229434-12.53917a342.170566 342.170566 0 0 1 70.443472 16.770415 14.471245 14.471245 0 1 1-9.621736 27.338868z" fill="#FFFFFF" opacity=".3" /><path d="M900.656302 436.958189c0 214.595623-174.041358 388.656302-388.656302 388.656302-129.352453 0-244.310943-63.507321-314.87034-160.825963 70.849208 72.916528 169.926038 118.474868 279.590642 118.474868 214.614943 0 388.656302-174.041358 388.656302-388.926792 0-84.682868-27.049057-162.873962-73.20634-226.690415a386.608302 386.608302 0 0 1 108.486038 269.312z" fill="#5E5EEF" /><path d="M324.343355 624.597454a265.254642 265.254642 0 1 0 375.126712-375.126711 265.254642 265.254642 0 1 0-375.126712 375.126711Z" fill="#FFFFFF" /><path d="M365.082952 583.857857a207.640151 207.640151 0 1 0 293.647518-293.647517 207.640151 207.640151 0 1 0-293.647518 293.647517Z" fill="#2D2C2C" /><path d="M353.743698 492.988377a9.679698 9.679698 0 0 1-9.273962-6.955471 175.258566 175.258566 0 0 1-7.090717-48.997434 175.046038 175.046038 0 0 1 115.827924-164.477585 9.660377 9.660377 0 1 1 6.491774 18.18083 155.705962 155.705962 0 0 0-102.998943 146.296755c0 14.548528 2.125283 29.212981 6.317886 43.587622a9.660377 9.660377 0 0 1-9.273962 12.365283zM575.584604 294.448302a9.71834 9.71834 0 0 1-3.728906-0.77283 154.566038 154.566038 0 0 0-45.925434-11.341283 9.660377 9.660377 0 0 1-8.771622-10.471849c0.463698-5.37117 5.409811-9.022792 10.471849-8.771623a173.635623 173.635623 0 0 1 51.683018 12.79034 9.660377 9.660377 0 0 1-3.728905 18.547924z" fill="#FFFFFF" opacity=".3" /><path d="M719.698113 437.132075c0 114.572075-93.126038 207.504906-207.698113 207.504906-75.737358 0-142.007547-40.573585-178.137358-101.047547 37.868679 43.085283 93.512453 70.13434 155.338867 70.13434 114.765283 0 207.698113-92.93283 207.698114-207.698114 0-39.027925-10.819623-75.737358-29.753963-107.036981 32.652075 36.709434 52.552453 85.011321 52.552453 138.143396z" fill="#1B1B1B" /><path d="M777.389887 436.958189c0 146.509283-118.880604 265.389887-265.370566 265.389886a265.003472 265.003472 0 0 1-196.646642-87.213886 265.042113 265.042113 0 0 0 178.67834 69.264905c146.509283 0 265.389887-118.899925 265.389887-265.389886 0-50.465811-14.046189-97.550491-38.448302-137.351246-0.154566-0.328453-0.328453-0.676226-0.50234-0.850113a179.837585 179.837585 0 0 0-10.162717-19.649207 262.221283 262.221283 0 0 1 67.06234 175.818867z" fill="#D0D0F7" /><path d="M512.019321 437.035472m-112.89117 0a112.89117 112.89117 0 1 0 225.78234 0 112.89117 112.89117 0 1 0-225.78234 0Z" fill="#FFFFFF" /><path d="M512.019321 437.035472m-71.892529 0a71.892528 71.892528 0 1 0 143.785057 0 71.892528 71.892528 0 1 0-143.785057 0Z" fill="#2D2C2C" /><path d="M488.931019 413.039094m-22.817811 0a22.817811 22.817811 0 1 0 45.635622 0 22.817811 22.817811 0 1 0-45.635622 0Z" fill="#FFFFFF" /></svg>