<?xml version="1.0" standalone="no"?><!DOCTYPE svg PUBLIC "-//W3C//DTD SVG 1.1//EN" "http://www.w3.org/Graphics/SVG/1.1/DTD/svg11.dtd"><svg class="icon" width="200px" height="200.00px" viewBox="0 0 1024 1024" version="1.1" xmlns="http://www.w3.org/2000/svg"><path d="M825.09283 220.063396V869.433962c0 58.735094-47.529057 106.264151-106.264151 106.264151H165.095849c-58.541887 0-106.264151-47.529057-106.264151-106.264151V220.063396z" fill="#E4E3FF" /><path d="M58.831698 220.063396h766.261132v32.864604H58.831698z" fill="#D0D0F7" /><path d="M825.09283 220.063396V869.433962c0 58.735094-47.529057 106.264151-106.264151 106.264151H165.095849c-35.550189 0-66.849811-17.388679-86.170566-44.244528 16.036226 10.046792 34.970566 15.649811 55.064151 15.649811h553.73283c58.735094 0 106.264151-47.529057 106.264151-106.264151V220.063396z" fill="#D0D0F7" /><path d="M689.635019 898.415094H194.328151a58.174792 58.174792 0 0 1-58.155472-58.174792V361.22083a58.174792 58.174792 0 0 1 58.155472-58.155472h495.306868a58.174792 58.174792 0 0 1 58.174792 58.155472V840.259623a58.174792 58.174792 0 0 1-58.174792 58.174792z" fill="#FFFFFF" /><path d="M825.09283 220.140679V154.624A106.322113 106.322113 0 0 0 718.770717 48.301887H165.192453a106.322113 106.322113 0 0 0-106.322113 106.322113v65.516679z" fill="#AA5821" /><path d="M825.09283 154.566038v65.497358H58.831698v-20.48h712.472151c14.664453 0 26.546717-11.882264 26.546717-26.566038V134.086038c0-24.730566-8.501132-47.529057-22.798491-65.497359 0-0.386415-0.193208-0.579623-0.579622-0.77283-0.966038-1.932075-2.318491-3.670943-3.477736-5.603019a105.491321 105.491321 0 0 1 54.098113 92.353208z" fill="#994F1D" /><path d="M170.950038 142.142792c0 17.446642-14.162113 31.454189-31.608755 31.454189S107.887094 159.589434 107.887094 142.142792c0-17.446642 14.007547-31.628075 31.454189-31.628075s31.608755 14.181434 31.608755 31.628075z" fill="#FFFFFF" /><path d="M170.892075 142.162113c0 17.446642-14.065509 31.49283-31.49283 31.49283a31.570113 31.570113 0 0 1-30.951849-25.116981A31.454189 31.454189 0 0 0 160.555472 124.715472c0-2.241208-0.193208-4.308528-0.579623-6.375849 6.762264 5.815547 10.896906 14.258717 10.896906 23.82249z" fill="#E4E3FF" /><path d="M254.492981 142.142792c0 17.446642-14.162113 31.454189-31.608755 31.454189S191.410717 159.589434 191.410717 142.142792c0-17.446642 14.026868-31.628075 31.473509-31.628075s31.608755 14.181434 31.608755 31.628075z" fill="#FFFFFF" /><path d="M254.415698 142.162113c0 17.446642-14.065509 31.49283-31.49283 31.49283a31.570113 31.570113 0 0 1-30.951849-25.116981c5.448453 4.694943 12.751698 7.68966 20.634566 7.689661 17.446642 0 31.49283-14.065509 31.49283-31.492831 0-2.260528-0.193208-4.327849-0.560302-6.375849 6.762264 5.796226 10.877585 14.239396 10.877585 23.80317z" fill="#E4E3FF" /><path d="M339.19517 142.142792a31.49283 31.49283 0 0 1-31.628076 31.454189 31.376906 31.376906 0 0 1-31.454188-31.454189 31.49283 31.49283 0 0 1 31.454188-31.628075c17.446642 0 31.628075 14.181434 31.628076 31.628075z" fill="#FFFFFF" /><path d="M339.117887 142.162113c0 17.446642-14.065509 31.49283-31.49283 31.49283a31.570113 31.570113 0 0 1-30.951849-25.116981c5.429132 4.694943 12.751698 7.68966 20.634566 7.689661 17.427321 0 31.49283-14.065509 31.49283-31.492831 0-2.260528-0.193208-4.327849-0.560302-6.375849 6.762264 5.796226 10.877585 14.239396 10.877585 23.80317z" fill="#E4E3FF" /><path d="M351.715019 415.338264v96.796981c0 17.987623-14.58717 32.574792-32.555472 32.574793h-96.874264c-17.987623 0-32.574792-14.58717-32.574792-32.555472v-96.816302c0-17.987623 14.58717-32.574792 32.574792-32.574792h96.874264c17.968302 0 32.555472 14.58717 32.555472 32.574792z" fill="#F9B938" /><path d="M351.695698 415.357585v96.75834c0 18.006943-14.567849 32.594113-32.51683 32.594113h-96.893585c-12.616453 0-23.609962-7.148679-29.019774-17.678491 4.443774 2.29917 9.525132 3.57434 14.915623 3.57434h96.893585c17.968302 0 32.51683-14.567849 32.51683-32.51683v-96.835623c0-5.409811-1.27517-10.452528-3.632302-14.915623 10.529811 5.332528 17.736453 16.345358 17.736453 29.019774z" fill="#E5A320" /><path d="M700.435321 446.541283H433.886189a11.592453 11.592453 0 0 1 0-23.184906h266.549132a11.592453 11.592453 0 0 1 0 23.184906zM700.435321 504.117132H433.886189a11.592453 11.592453 0 0 1 0-23.184906h266.549132a11.592453 11.592453 0 0 1 0 23.184906z" fill="#D0D0F7" /><path d="M248.851321 488.351396l-14.413283-18.393358a14.490566 14.490566 0 0 1 22.837132-17.852378l5.351849 6.820227 27.628679-22.160906a14.490566 14.490566 0 0 1 18.16151 22.605283l-39.085887 31.357585a14.490566 14.490566 0 0 1-20.48-2.376453z" fill="#FFFFFF" /><path d="M351.715019 656.982943v96.816302c0 17.987623-14.58717 32.574792-32.555472 32.574793h-96.874264c-17.987623 0-32.574792-14.58717-32.574792-32.574793v-96.796981c0-17.987623 14.58717-32.574792 32.574792-32.574792h96.874264c17.968302 0 32.555472 14.58717 32.555472 32.555471z" fill="#FC6559" /><path d="M351.695698 657.021585v96.75834c0 18.006943-14.567849 32.594113-32.51683 32.594113h-96.893585c-12.616453 0-23.609962-7.148679-29.019774-17.678491 4.443774 2.279849 9.525132 3.57434 14.915623 3.57434h96.893585c17.968302 0 32.51683-14.58717 32.51683-32.536151v-96.816302c0-5.409811-1.27517-10.452528-3.632302-14.915623 10.529811 5.332528 17.736453 16.326038 17.736453 29.019774z" fill="#F05543" /><path d="M700.435321 688.205283H433.886189a11.592453 11.592453 0 0 1 0-23.184906h266.549132a11.592453 11.592453 0 0 1 0 23.184906zM582.868528 745.781132h-148.982339a11.592453 11.592453 0 0 1 0-23.184906h148.963019a11.592453 11.592453 0 0 1 0 23.184906z" fill="#D0D0F7" /><path d="M248.851321 730.015396l-14.413283-18.412679a14.490566 14.490566 0 0 1 22.837132-17.833057l5.351849 6.820227 27.628679-22.160906a14.490566 14.490566 0 1 1 18.16151 22.605283l-39.085887 31.357585a14.490566 14.490566 0 0 1-20.48-2.376453z" fill="#FFFFFF" /><path d="M96.970868 644.907472a11.940226 11.940226 0 0 1-11.940226-11.940227v-160.555471a11.940226 11.940226 0 0 1 23.880452 0v160.555471a11.940226 11.940226 0 0 1-11.940226 11.940227zM96.970868 440.32a11.940226 11.940226 0 0 1-11.940226-11.940226v-15.785057a11.940226 11.940226 0 0 1 23.880452 0v15.785057a11.940226 11.940226 0 0 1-11.940226 11.959547z" fill="#FFFFFF" opacity=".4" /><path d="M951.894943 456.414189l-177.364528 207.215094a206.268377 206.268377 0 0 1-75.795321 55.450566l-24.923773 10.529811-23.339472 9.853585a11.78566 11.78566 0 0 1-15.939623-13.698415l6.144-24.576 6.588378-26.218264a205.244377 205.244377 0 0 1 43.201207-83.542943l177.287246-207.118491a55.450566 55.450566 0 0 1 78.133132-5.970113 55.508528 55.508528 0 0 1 6.008754 78.055849z" fill="#5E5EEF" /><path d="M951.894943 456.414189l-177.364528 207.215094a206.268377 206.268377 0 0 1-75.795321 55.450566l-24.923773 10.529811-23.339472 9.853585a11.78566 11.78566 0 0 1-15.939623-13.698415l0.25117-0.850113 22.528-9.447849 24.846491-10.587774a205.147774 205.147774 0 0 0 75.872604-55.411924l177.364528-207.215095c9.911547-11.592453 14.181434-26.083019 13.022189-40.322415a55.199396 55.199396 0 0 0-11.49585-29.831245c3.091321 1.700226 6.124679 3.806189 8.964831 6.240604a55.508528 55.508528 0 0 1 6.008754 78.055849z" fill="#4242E5" /><path d="M951.894943 456.414189l-26.508075 30.932528-84.141887-72.124377 26.508076-30.913208a55.450566 55.450566 0 0 1 78.133132-5.970113 55.508528 55.508528 0 0 1 6.008754 78.055849z" fill="#FC6559" /><path d="M951.894943 456.414189l-26.508075 30.932528-84.141887-72.124377 8.790944-10.259321 37.984603 32.555472c14.606491 12.519849 36.61283 10.819623 49.13268-3.767548l3.902792-4.559698a55.064151 55.064151 0 0 0 13.041509-40.18717 14.046189 14.046189 0 0 0-0.309132-2.31849 55.566491 55.566491 0 0 1-1.893434 69.728604z" fill="#F05543" /><path d="M821.943547 438.156075l19.378717-22.605283 84.122566 72.163019-19.378717 22.605283z" fill="#E4E3FF" /><path d="M889.566189 496.156981l19.378717-22.605283 16.499924 14.162113-19.398038 22.605283z" fill="#D0D0F7" /><path d="M663.262189 632.658113a204.336302 204.336302 0 0 0-15.997585 42.312453l-6.588378 26.218264-6.144 24.576a11.78566 11.78566 0 0 0 15.939623 13.679095l23.358793-9.834265 24.904452-10.529811c13.949585-5.931472 27.049057-13.524528 39.317736-22.315472z" fill="#F7C9A9" /><path d="M738.091472 696.745057c-12.345962 8.790943-25.368151 16.403321-39.356378 22.334792l-24.923773 10.529811-23.339472 9.853585a11.78566 11.78566 0 0 1-15.939623-13.698415l0.25117-0.850113 22.470038-9.505811 24.904453-10.529812a202.616755 202.616755 0 0 0 39.356377-22.334792z" fill="#F0B68E" /><path d="M673.830642 729.60966l-23.358793 9.853585a11.78566 11.78566 0 0 1-15.939623-13.698415l6.144-24.576c7.535094 0.463698 15.070189 3.32317 21.330114 8.675019 6.240604 5.351849 10.220679 12.365283 11.824302 19.745811z" fill="#474646" /><path d="M746.515321 570.522566a6.858868 6.858868 0 0 1-0.75351-9.660377l39.626868-44.476378a6.858868 6.858868 0 0 1 10.413887 8.906868l-39.626868 44.476378a6.858868 6.858868 0 0 1-9.660377 0.753509zM805.675472 502.01117a6.858868 6.858868 0 0 1-0.734189-9.660378l5.062038-5.91215a6.858868 6.858868 0 0 1 10.413887 8.926188l-5.062038 5.89283a6.858868 6.858868 0 0 1-9.660378 0.75351z" fill="#FFFFFF" opacity=".4" /><path d="M626.378868 81.166491c0 5.718943-4.636981 10.355925-10.355925 10.355924h-139.109434a10.355925 10.355925 0 0 1 0-20.692528h139.109434c5.699623 0 10.336604 4.636981 10.336604 10.336604zM449.110943 81.166491c0 5.718943-4.636981 10.355925-10.336603 10.355924h-13.679095a10.355925 10.355925 0 0 1 0-20.692528h13.679095c5.699623 0 10.336604 4.636981 10.336603 10.336604z" fill="#FFFFFF" opacity=".4" /><path d="M734.401208 142.08483c0 13.427925-10.858264 24.286189-24.266868 24.286189h-249.430944a24.286189 24.286189 0 0 1 0-48.553057h249.430944c13.408604 0 24.266868 10.858264 24.266868 24.266868z" fill="#FFFFFF" /><path d="M734.478491 142.007547c0 13.524528-11.01283 24.344151-24.344151 24.344151h-249.430944c-11.399245 0-21.059623-7.921509-23.571321-18.547924 4.250566 3.864151 9.853585 6.182642 16.036227 6.182641h249.430943c13.524528 0 24.344151-10.819623 24.344151-24.150943 0-1.932075-0.193208-3.864151-0.77283-5.796227 5.023396 4.250566 8.307925 10.819623 8.307925 17.968302z" fill="#E4E3FF" /></svg>