<?xml version="1.0" standalone="no"?><!DOCTYPE svg PUBLIC "-//W3C//DTD SVG 1.1//EN" "http://www.w3.org/Graphics/SVG/1.1/DTD/svg11.dtd"><svg class="icon" width="200px" height="200.00px" viewBox="0 0 1024 1024" version="1.1" xmlns="http://www.w3.org/2000/svg"><path d="M102.322717 460.935245c3.284528 0 6.549736 0.869434 9.814943 2.395774l17.639849 8.732981c5.023396-9.814943 10.684377-19.185509 16.770416-28.111698l-20.035623-9.814944c-26.527396-13.466566-59.314717-2.704906-72.336906 23.764529a54.098113 54.098113 0 0 0-3.265207 41.153207c4.579019 13.717736 14.162113 24.846491 27.242264 31.376906l25.484075 12.423245c2.395774-10.896906 5.448453-21.561962 9.158038-31.801962L92.739623 501.23834a20.769811 20.769811 0 0 1-10.665057-12.423246c-1.738868-5.216604-1.313811-11.109434 1.081962-16.113509a21.446038 21.446038 0 0 1 19.166189-11.76634z" fill="#7979F7" /><path d="M107.384755 508.329057c-1.738868 5.989434-3.284528 11.978868-4.636981 17.968301l-25.503397-12.365283c-13.138113-6.569057-22.798491-17.775094-27.242264-31.49283-0.579623-1.932075-1.159245-3.864151-1.352453-5.989434-0.77283 7.535094 0 15.263396 2.318491 22.605283 4.443774 13.717736 14.104151 24.923774 27.242264 31.299623l25.503396 12.558491c2.318491-11.01283 5.409811-21.639245 9.080755-31.879246z m30.333585-68.781887c-3.091321 5.216604-6.182642 10.433208-8.887548 15.843019l-17.581886-8.69434a21.523321 21.523321 0 0 0-28.981132 9.46717c-2.511698 5.023396-2.898113 10.819623-1.159246 16.036226 0.386415 0.966038 0.77283 1.932075 1.352453 2.898113 0-0.77283 0.386415-1.54566 0.77283-2.31849 3.477736-6.994113 10.259321-11.78566 19.127547-11.78566 3.284528 0 6.569057 0.77283 9.853585 2.31849l17.581887 8.69434c5.023396-9.853585 10.626415-19.127547 16.809057-28.015095z" fill="#5E5EEF" /><path d="M975.698113 375.537509v166.003925c0 28.981132-20.692528 54.252679-49.229283 60.126189l-246.841962 49.016754c-22.238189 152.247547-160.362264 263.612377-318.116226 248.774038-144.13283-13.56317-258.994717-135.206642-264.829585-279.861132-6.723623-167.105208 127.343094-305.267925 292.999245-305.267925l61.845736 0.154567c8.945509 0.038642 16.268075 6.433811 18.354717 15.12815a64.937057 64.937057 0 0 0 63.372075 49.635019 64.937057 64.937057 0 0 0 63.352755-49.596377c2.086642-8.69434 9.409208-15.10883 18.374038-15.128151l299.510339-0.193208a61.266113 61.266113 0 0 1 61.208151 61.208151z" fill="#F9B938" /><path d="M975.698113 375.537509v166.003925c0 28.981132-20.692528 54.252679-49.229283 60.126189l-246.841962 49.016754c-20.905057 143.128151-144.210113 250.087849-289.946566 250.087849-90.61434 0-171.896755-41.385057-225.705057-106.302792a290.893283 290.893283 0 0 0 188.010264 68.627321c137.409208 0 254.879396-95.077434 285.367548-225.917585 3.535698-15.070189 15.958943-26.430792 31.145056-29.44483L888.754717 563.97283a61.710491 61.710491 0 0 0 49.229283-60.126188v-166.003925c0-6.994113-1.081962-13.524528-3.265208-19.842415a60.783094 60.783094 0 0 1 40.96 57.517887z" fill="#E5A320" /><path d="M389.680302 607.560453m-135.071396 0a135.071396 135.071396 0 1 0 270.142792 0 135.071396 135.071396 0 1 0-270.142792 0Z" fill="#FC6559" /><path d="M314.213434 622.360151h-0.270491a16.345358 16.345358 0 0 1-16.074868-16.615849 91.251925 91.251925 0 0 1 89.416453-89.880151c9.583094 0.425057 16.499925 6.955472 16.712453 15.978264a16.345358 16.345358 0 0 1-15.978264 16.693132 58.638491 58.638491 0 0 0-57.459925 57.769057 16.345358 16.345358 0 0 1-16.345358 16.055547z" fill="#FFFFFF" opacity=".4" /><path d="M524.751698 607.560453a135.187321 135.187321 0 0 1-135.071396 135.052075 134.800906 134.800906 0 0 1-119.402264-72.105056 133.467774 133.467774 0 0 0 84.972679 30.294943c74.50083 0 135.071396-60.783094 135.071396-135.283924a135.052075 135.052075 0 0 0-15.456604-62.753812 134.723623 134.723623 0 0 1 49.886189 104.795774z" fill="#F05543" /><path d="M825.034868 390.182642h-80.239094a16.345358 16.345358 0 0 1 0-32.652076h80.239094a16.345358 16.345358 0 0 1 0 32.652076zM684.495698 390.182642h-14.915623a16.345358 16.345358 0 0 1 0-32.652076h14.915623a16.345358 16.345358 0 0 1 0 32.652076zM162.062491 626.108377a16.345358 16.345358 0 0 1-16.345359-16.190792 242.726642 242.726642 0 0 1 67.893132-171.375094 246.764679 246.764679 0 0 1 48.089359-38.931321 16.326038 16.326038 0 1 1 17.195471 27.783245 214.209208 214.209208 0 0 0-41.713509 33.772679 210.306415 210.306415 0 0 0-58.773736 148.441359 16.345358 16.345358 0 0 1-16.190792 16.499924h-0.154566zM327.776604 387.651623a16.345358 16.345358 0 0 1 12.790339-19.224151c14.355321-2.898113 29.077736-4.521057 43.742189-4.830189 8.810264-1.043321 16.499925 6.974792 16.693132 15.997585a16.345358 16.345358 0 0 1-15.978264 16.673811c-12.751698 0.289811-25.542038 1.680906-38.003925 4.192604a16.345358 16.345358 0 0 1-19.243471-12.80966z" fill="#FFFFFF" opacity=".4" /><path d="M539.319547 232.737811a19.320755 19.320755 0 0 1-19.320755-19.320754V142.548528a19.320755 19.320755 0 1 1 38.64151 0v70.868529a19.320755 19.320755 0 0 1-19.320755 19.320754zM612.062189 231.520604a19.320755 19.320755 0 0 1-7.786264-26.179623l34.931924-64.376755a19.320755 19.320755 0 1 1 33.965887 18.41268l-34.931925 64.376754a19.320755 19.320755 0 0 1-26.179622 7.766944zM440.377962 223.73434L405.446038 159.396226a19.320755 19.320755 0 1 1 33.965887-18.412679l34.931924 64.376755a19.320755 19.320755 0 1 1-33.965887 18.412679z" fill="#474646" /></svg>