<?xml version="1.0" standalone="no"?><!DOCTYPE svg PUBLIC "-//W3C//DTD SVG 1.1//EN" "http://www.w3.org/Graphics/SVG/1.1/DTD/svg11.dtd"><svg class="icon" width="200px" height="200.00px" viewBox="0 0 1024 1024" version="1.1" xmlns="http://www.w3.org/2000/svg"><path d="M985.33917 171.375094v681.249812c0 65.110943-53.132075 118.243019-118.243019 118.243019H156.865208c-65.110943 0-118.243019-53.132075-118.243019-118.243019V171.375094c0-65.304151 53.132075-118.243019 118.243019-118.243019h710.230943c65.110943 0 118.243019 52.938868 118.243019 118.243019z" fill="#A2A2F9" /><path d="M985.377811 811.085283v41.539623c0 65.110943-53.132075 118.243019-118.243019 118.243019H156.903849c-65.110943 0-118.243019-53.132075-118.243019-118.243019v-41.539623c0 65.110943 53.132075 118.243019 118.243019 118.243019h710.230943c65.110943 0 118.243019-53.132075 118.243019-118.243019zM985.33917 305.886189V171.375094c0-65.304151-53.132075-118.243019-118.243019-118.243019H156.865208c-65.110943 0-118.243019 52.938868-118.243019 118.243019v134.511095h946.716981z" fill="#7979F7" /><path d="M141.06083 421.482264v407.532679c0 21.793811 17.65917 39.452981 39.452981 39.452982h663.011019a39.452981 39.452981 0 0 0 39.452981-39.452982V421.482264a39.452981 39.452981 0 0 0-39.452981-39.452981H180.513811A39.452981 39.452981 0 0 0 141.041509 421.482264z" fill="#FFFFFF" /><path d="M882.977811 651.302642v177.750943c0 21.832453-17.581887 39.41434-39.414339 39.41434H180.47517c-21.832453 0-39.41434-17.581887-39.41434-39.41434v-53.518491c110.901132 31.879245 244.600755 39.221132 384.483019 15.843019 139.495849-23.378113 262.955472-73.998491 357.433962-140.075471z" fill="#E4E3FF" /><path d="M867.134792 53.132075H156.903849c-65.304151 0-118.243019 53.132075-118.243019 118.243019v105.104906h946.716981V171.375094c0-65.03366-53.209358-118.243019-118.243019-118.243019z" fill="#474646" /><path d="M237.452075 106.650566h-17.118188a14.490566 14.490566 0 0 1 0-28.981132h17.098868a14.490566 14.490566 0 0 1 0 28.981132zM445.034264 106.650566h-146.026264a14.490566 14.490566 0 0 1 0-28.981132h146.026264a14.490566 14.490566 0 0 1 0 28.981132z" fill="#FFFFFF" opacity=".3" /><path d="M436.74566 181.479849a45.55834 45.55834 0 0 1-45.423094 45.596981 45.596981 45.596981 0 1 1 0-91.193962 45.55834 45.55834 0 0 1 45.403774 45.596981z" fill="#5BC658" /><path d="M310.870943 181.479849a45.55834 45.55834 0 0 1-45.403773 45.596981 45.596981 45.596981 0 1 1 0-91.193962 45.55834 45.55834 0 0 1 45.403773 45.596981z" fill="#F9B938" /><path d="M185.015547 181.479849a45.55834 45.55834 0 0 1-45.403773 45.596981 45.596981 45.596981 0 1 1 0-91.193962 45.55834 45.55834 0 0 1 45.403773 45.596981z" fill="#FC6559" /><path d="M436.649057 181.479849c0 25.155623-20.286792 45.654943-45.229887 45.654943a45.790189 45.790189 0 0 1-39.568906-22.721207c6.684981 4.057358 14.606491 6.279245 23.126944 6.279245a45.500377 45.500377 0 0 0 45.461735-45.442415c0-8.520453-2.241208-16.441962-6.511094-23.339472a45.790189 45.790189 0 0 1 22.740528 39.568906z" fill="#49A247" /><path d="M310.851623 181.479849a45.55834 45.55834 0 0 1-45.461736 45.654943 44.882113 44.882113 0 0 1-39.16317-22.721207c6.704302 4.057358 14.625811 6.279245 22.933736 6.279245a45.500377 45.500377 0 0 0 45.461736-45.442415c0-8.520453-2.241208-16.441962-6.298566-23.339472a45.848151 45.848151 0 0 1 22.528 39.568906z" fill="#E5A320" /><path d="M185.034868 181.479849a45.674264 45.674264 0 0 1-45.442415 45.654943 45.539019 45.539019 0 0 1-39.568906-22.933735c6.897509 4.250566 14.799698 6.491774 23.339472 6.491773a45.500377 45.500377 0 0 0 45.442415-45.442415c0-8.520453-2.221887-16.441962-6.279245-23.339472a46.292528 46.292528 0 0 1 22.508679 39.568906z" fill="#F05543" /><path d="M901.545057 181.479849a36.09117 36.09117 0 0 1-36.09117 36.09117h-324.395472a36.09117 36.09117 0 1 1 0-72.201661h324.395472c19.939019 0 36.09117 16.171472 36.09117 36.110491z" fill="#FFFFFF" /><path d="M901.525736 181.421887c0 19.900377-16.229434 36.129811-36.129811 36.129811h-324.395472c-17.002264 0-31.49283-11.978868-34.970566-27.821887 6.375849 6.955472 15.649811 11.206038 25.889811 11.206038h324.395472c19.900377 0 36.129811-16.229434 36.129811-36.129811 0-2.898113-0.386415-5.603019-1.159245-8.307925 6.375849 6.375849 10.24 15.263396 10.24 24.923774z" fill="#E4E3FF" /><path d="M934.39034 721.630189a14.490566 14.490566 0 0 1-14.490566-14.490566v-144.596529a14.490566 14.490566 0 0 1 28.981132 0v144.615849a14.490566 14.490566 0 0 1-14.490566 14.490566z" fill="#FFFFFF" opacity=".4" /><path d="M934.39034 519.438491a14.490566 14.490566 0 0 1-14.490566-14.490566v-18.509283a14.490566 14.490566 0 0 1 28.981132 0v18.509283a14.490566 14.490566 0 0 1-14.490566 14.490566z" fill="#FFFFFF" opacity=".4" /><path d="M425.926038 789.059623a28.981132 28.981132 0 0 1-16.074868-37.694793l110.205585-273.833056a28.981132 28.981132 0 1 1 53.788981 21.619924l-110.205585 273.833057a28.981132 28.981132 0 0 1-37.714113 16.074868zM580.85917 752.697962a28.981132 28.981132 0 0 1 4.405132-40.728151l36.284377-29.232302-36.284377-29.232301a28.981132 28.981132 0 1 1 36.34234-45.133283l64.338113 51.779622a29.019774 29.019774 0 0 1 0 45.171925l-64.338113 51.779622a28.981132 28.981132 0 0 1-40.747472-4.405132zM366.804528 624.350189l-64.357434-51.779623a29.019774 29.019774 0 0 1 0-45.171924l64.338114-51.779623a29.000453 29.000453 0 0 1 36.36166 45.152604l-36.323019 29.212981 36.323019 29.19366a29.000453 29.000453 0 0 1-36.34234 45.171925z" fill="#474646" /></svg>