<?xml version="1.0" standalone="no"?><!DOCTYPE svg PUBLIC "-//W3C//DTD SVG 1.1//EN" "http://www.w3.org/Graphics/SVG/1.1/DTD/svg11.dtd"><svg class="icon" width="200px" height="200.00px" viewBox="0 0 1024 1024" version="1.1" xmlns="http://www.w3.org/2000/svg"><path d="M835.584 399.823698v431.838189a52.513811 52.513811 0 0 1-52.513811 52.513811H536.247547l-19.069585 44.109283a31.009811 31.009811 0 0 1-28.556075 18.779774h-75.408906c-12.500528 0-23.648604-7.341887-28.691321-18.779774l-18.934339-44.109283H118.629434a52.47517 52.47517 0 0 1-52.359245-52.513811v-431.818868a52.359245 52.359245 0 0 1 52.359245-52.359245H783.070189a52.359245 52.359245 0 0 1 52.513811 52.359245z" fill="#7979F7" /><path d="M450.888453 334.59683v463.678793c0 23.339472-23.068981 39.897358-45.056 32.053132-79.794717-28.478792-159.589434-26.797887-239.384151 5.023396-15.186113 6.066717-31.724679-4.86883-31.724679-21.233509V337.205132c0-15.302038 9.293283-28.942491 23.30083-35.08649 91.193962-39.955321 182.387925-39.356377 273.601207 1.79683 11.920906 5.390491 19.262792 17.601208 19.262793 30.681358zM450.888453 334.59683v463.678793c0 23.339472 23.068981 39.897358 45.056 32.053132 79.794717-28.478792 159.589434-26.797887 239.36483 5.023396 15.205434 6.066717 31.744-4.86883 31.744-21.233509V337.205132c0-15.302038-9.293283-28.942491-23.320151-35.08649-91.193962-39.955321-182.387925-39.356377-273.581887 1.79683-11.920906 5.390491-19.262792 17.601208-19.262792 30.681358z" fill="#5E5EEF" /><path d="M835.584 399.978264v431.683623a52.513811 52.513811 0 0 1-52.513811 52.513811H536.247547l-19.069585 44.109283a31.009811 31.009811 0 0 1-28.556075 18.779774h-75.408906c-12.500528 0-23.648604-7.341887-28.691321-18.779774l-18.934339-44.109283H118.629434a52.47517 52.47517 0 0 1-52.359245-52.513811v-29.000453a52.47517 52.47517 0 0 0 52.359245 52.513811h227.753057c11.708377 0 22.27683 6.955472 26.875169 17.736453l11.283321 26.37283c5.023396 11.457208 16.190792 18.779774 28.691321 18.779774h75.350943c12.423245 0 23.667925-7.380528 28.594717-18.779774l11.457208-26.411471a28.981132 28.981132 0 0 1 26.855849-17.697812h227.59849c0.598943 0 1.197887 0 1.796831-0.038641 12.577811-0.425057 23.358792-10.703698 23.378113-23.28151l0.019321-0.193207v-431.818868a52.378566 52.378566 0 0 0-52.513812-52.359245h27.319547a52.513811 52.513811 0 0 1 52.513812 52.49449z" fill="#5E5EEF" /><path d="M450.888453 316.048906v463.678792c0 23.339472-23.068981 39.897358-45.056 32.053132-79.794717-28.459472-159.589434-26.797887-239.384151 5.023396-15.186113 6.066717-31.724679-4.849509-31.724679-21.233509V318.657208c0-15.282717 9.293283-28.942491 23.30083-35.086491 91.193962-39.936 182.387925-39.337057 273.601207 1.816151 11.920906 5.37117 19.262792 17.581887 19.262793 30.662038zM450.888453 316.048906v463.678792c0 23.339472 23.068981 39.897358 45.056 32.053132 79.794717-28.459472 159.589434-26.797887 239.36483 5.023396 15.205434 6.066717 31.744-4.849509 31.744-21.233509V318.657208c0-15.282717-9.293283-28.942491-23.320151-35.086491-91.193962-39.936-182.387925-39.337057-273.581887 1.816151-11.920906 5.37117-19.262792 17.581887-19.262792 30.662038z" fill="#E4E3FF" /><path d="M450.946415 725.339774a9.660377 9.660377 0 0 1-9.660377-9.660378V410.063698a9.660377 9.660377 0 1 1 19.320754 0v305.615698a9.660377 9.660377 0 0 1-9.660377 9.660378z" fill="#D0D0F7" /><path d="M102.303396 634.029887a11.457208 11.457208 0 0 1-11.457207-11.457208V529.388679a11.457208 11.457208 0 0 1 22.895094 0v93.184a11.457208 11.457208 0 0 1-11.437887 11.457208zM102.303396 483.656453a11.457208 11.457208 0 0 1-11.457207-11.457208v-5.448453a11.457208 11.457208 0 0 1 22.895094 0v5.448453a11.457208 11.457208 0 0 1-11.437887 11.457208z" fill="#FFFFFF" opacity=".3" /><path d="M381.739472 384.540981c-62.135547-26.392151-123.38234-26.392151-185.517887 0a8.945509 8.945509 0 1 1-6.994113-16.461283c66.56-28.285585 133.004075-28.304906 199.506113 0a8.945509 8.945509 0 1 1-6.994113 16.461283zM382.357736 721.301736c-62.096906-21.175547-124.657509-21.175547-186.735094 0a8.926189 8.926189 0 1 1-5.796227-16.944302c65.78717-22.450717 132.463094-22.508679 198.308227 0a8.926189 8.926189 0 0 1 5.564377 11.360604 8.926189 8.926189 0 0 1-11.360604 5.583698zM385.236528 449.381434a8.365887 8.365887 0 0 1-2.376453-0.328453c-62.831094-17.388679-125.024604-17.388679-187.759094 0a8.926189 8.926189 0 0 1-11.01283-6.259924 8.926189 8.926189 0 0 1 6.259924-11.012831c65.883774-18.161509 131.342491-18.200151 197.264906 0a8.96483 8.96483 0 1 1-2.376453 17.581887zM383.304453 650.954868a433.345208 433.345208 0 0 0-188.647849 0 8.96483 8.96483 0 0 1-3.864151-17.485283 451.390792 451.390792 0 0 1 196.376151 0 8.96483 8.96483 0 0 1-3.864151 17.485283zM385.236528 517.100679a8.365887 8.365887 0 0 1-2.376453-0.328453c-62.831094-17.388679-125.024604-17.350038-187.759094 0a8.868226 8.868226 0 0 1-11.01283-6.240603 8.926189 8.926189 0 0 1 6.259924-11.012831c65.883774-18.161509 131.342491-18.219472 197.264906 0a8.96483 8.96483 0 1 1-2.376453 17.581887zM383.304453 583.235623a433.345208 433.345208 0 0 0-188.647849 0 8.96483 8.96483 0 0 1-3.864151-17.485283 451.390792 451.390792 0 0 1 196.376151 0 8.96483 8.96483 0 0 1-3.864151 17.485283z" fill="#D0D0F7" /><path d="M705.613283 384.540981c-62.135547-26.392151-123.38234-26.392151-185.517887 0a8.945509 8.945509 0 1 1-6.994113-16.461283c66.540679-28.285585 132.965434-28.304906 199.506113 0a8.945509 8.945509 0 1 1-6.994113 16.461283zM508.135849 715.718038a8.926189 8.926189 0 0 1 5.564377-11.360604c65.825811-22.470038 132.540377-22.470038 198.308227 0a8.926189 8.926189 0 1 1-5.796227 16.924981c-62.019623-21.136906-124.618868-21.156226-186.715773 0a8.926189 8.926189 0 0 1-11.360604-5.564377zM709.11034 449.381434a8.365887 8.365887 0 0 1-2.376453-0.328453c-62.831094-17.388679-125.005283-17.388679-187.759095 0a8.926189 8.926189 0 0 1-11.01283-6.259924 8.926189 8.926189 0 0 1 6.259925-11.012831c65.883774-18.161509 131.342491-18.200151 197.264905 0a8.96483 8.96483 0 1 1-2.376452 17.581887zM707.178264 650.954868a433.692981 433.692981 0 0 0-188.647849 0 8.96483 8.96483 0 0 1-3.864151-17.485283 451.390792 451.390792 0 0 1 196.376151 0 8.96483 8.96483 0 0 1-3.864151 17.485283zM709.11034 517.100679a8.365887 8.365887 0 0 1-2.376453-0.328453c-62.831094-17.388679-125.005283-17.350038-187.759095 0a8.868226 8.868226 0 0 1-11.01283-6.240603 8.926189 8.926189 0 0 1 6.259925-11.012831c65.883774-18.161509 131.342491-18.219472 197.264905 0a8.96483 8.96483 0 1 1-2.376452 17.581887zM707.178264 583.235623a433.692981 433.692981 0 0 0-188.647849 0 8.984151 8.984151 0 0 1-3.864151-17.485283 451.390792 451.390792 0 0 1 196.376151 0 8.96483 8.96483 0 0 1-3.864151 17.485283z" fill="#D0D0F7" /><path d="M674.371623 490.051623L809.926038 182.329962l112.65932 49.615698-135.515773 307.721661z" fill="#AA5821" /><path d="M922.488755 231.559245l-135.438491 307.818264-112.717283-49.577056 12.983547-29.560755 28.42083 12.519849a60.91834 60.91834 0 0 0 80.316378-31.24166l97.917585-222.497812z" fill="#994F1D" /><path d="M931.202415 211.755472L952.513208 163.31834a61.575245 61.575245 0 1 0-112.717283-49.596378l-21.310793 48.456453z" fill="#FC6559" /><path d="M952.513208 163.299019l-21.310793 48.456453-112.717283-49.577057 10.916226-24.82717 69.226265 30.44951a28.845887 28.845887 0 0 0 38.042566-14.799698l9.699019-22.044982a59.89434 59.89434 0 0 0 4.946113-19.765132c7.805585 15.785057 8.829585 34.758038 1.197887 52.108076z" fill="#F05543" /><path d="M787.262792 169.597585c-5.564377 12.616453 0.193208 27.358189 12.809661 32.922566l113.837887 50.079396a24.981736 24.981736 0 1 0 20.112905-45.712905l-113.837887-50.098717a24.981736 24.981736 0 0 0-32.922566 12.80966z" fill="#F9B938" /><path d="M946.774943 239.789887c-5.506415 12.558491-20.286792 18.316075-32.845283 12.80966l-113.915169-50.040755a24.730566 24.730566 0 0 1-14.741736-21.658566c2.492377 4.888151 6.491774 8.752302 11.78566 11.090114l113.934491 50.021434a24.981736 24.981736 0 0 0 32.845283-12.79034c1.54566-3.555019 2.318491-7.225962 2.048-10.935547 3.516377 6.414491 4.076679 14.258717 0.888754 21.504z" fill="#ECB021" /><path d="M787.030943 539.377509l-69.245585 68.260227-25.580679 25.310189c-8.636377 8.655698-23.320151 2.202566-22.895094-10.046793l5.023396-133.12z" fill="#F4B37D" /><path d="M717.785358 607.637736l-25.580679 25.310189c-8.636377 8.655698-23.320151 2.202566-22.895094-10.046793l1.352453-35.878641a46.176604 46.176604 0 0 1 47.142641 20.615245z" fill="#474646" /><path d="M760.58083 371.286943a7.573736 7.573736 0 0 1-3.883472-9.969509l34.332982-77.939925a7.573736 7.573736 0 0 1 13.852981 6.105359l-34.332981 77.920604a7.573736 7.573736 0 0 1-9.96951 3.864151zM811.858113 254.860075a7.573736 7.573736 0 0 1-3.883471-9.969509l4.810867-10.916226a7.573736 7.573736 0 0 1 13.833661 6.086037l-4.810868 10.916227a7.573736 7.573736 0 0 1-9.96951 3.883471zM865.917585 194.869132a5.139321 5.139321 0 0 1-6.762264 2.627623l-25.174944-11.051472a5.139321 5.139321 0 0 1 4.115321-9.409208l25.194264 11.070793a5.139321 5.139321 0 0 1 2.627623 6.762264zM823.411925 176.205283a5.139321 5.139321 0 0 1-6.762265 2.627623l-6.201962-2.724227a5.139321 5.139321 0 0 1 4.134642-9.389887l6.182641 2.704906a5.139321 5.139321 0 0 1 2.646944 6.762264z" fill="#FFFFFF" opacity=".4" /></svg>