<?xml version="1.0" standalone="no"?><!DOCTYPE svg PUBLIC "-//W3C//DTD SVG 1.1//EN" "http://www.w3.org/Graphics/SVG/1.1/DTD/svg11.dtd"><svg class="icon" width="200px" height="200.00px" viewBox="0 0 1024 1024" version="1.1" xmlns="http://www.w3.org/2000/svg"><path d="M797.425509 711.969811V152.633962c0-16.422642-3.864151-32.072453-10.819622-45.983396a103.791094 103.791094 0 0 0-93.512453-58.348679H168.728151c-57.575849 0-104.332075 46.756226-104.332076 104.332075v718.732076c0 57.575849 46.756226 104.332075 104.332076 104.332075h352.796981c11.592453 0 22.991698-1.932075 33.811321-5.796226 13.331321-4.443774 25.889811-11.78566 36.323019-21.446038l172.534339-160.169057c11.399245-10.626415 20.093585-23.378113 25.503397-37.482264 5.216604-12.172075 7.728302-25.310189 7.728301-38.834717z" fill="#E4E3FF" /><path d="M797.464151 152.633962v559.335849c0 13.524528-2.511698 26.662642-7.728302 38.834717-5.409811 14.104151-14.104151 26.855849-25.503396 37.482264l-172.53434 160.169057c-10.433208 9.660377-22.991698 17.002264-36.323019 21.446038-10.819623 3.864151-22.218868 5.796226-33.81132 5.796226h-62.212831c11.592453 0 22.991698-1.932075 33.811321-5.796226 13.331321-4.443774 25.889811-11.78566 36.323019-21.446038l172.53434-160.169057c11.399245-10.626415 20.093585-23.378113 25.503396-37.482264 5.216604-12.172075 7.728302-25.310189 7.728302-38.834717V152.633962c0-16.422642-3.864151-32.072453-10.819623-45.983396a103.791094 103.791094 0 0 0-93.512453-58.348679h62.21283c41.153208 0 76.703396 23.764528 93.512453 58.348679 6.955472 13.910943 10.819623 29.560755 10.819623 45.983396z" fill="#D0D0F7" /><path d="M555.336453 969.882566v-166.989283a52.108075 52.108075 0 0 1 52.108075-52.108075h182.25268a100.467925 100.467925 0 0 1-25.503397 37.482264l-172.534339 160.169056c-10.433208 9.660377-22.991698 17.002264-36.323019 21.446038z" fill="#D0D0F7" /><path d="M121.392302 345.223245a14.490566 14.490566 0 0 0-14.490566 14.490566v229.607849a14.490566 14.490566 0 0 0 28.981132 0V359.713811a14.490566 14.490566 0 0 0-14.490566-14.490566zM121.392302 635.266415a14.490566 14.490566 0 0 0-14.490566 14.490566v15.553208a14.490566 14.490566 0 0 0 28.981132 0v-15.553208a14.490566 14.490566 0 0 0-14.490566-14.490566z" fill="#FFFFFF" opacity=".5" /><path d="M694.735698 600.991396a15.649811 15.649811 0 0 0-15.649811-15.649811h-475.870189a15.649811 15.649811 0 0 0 0 31.299623h475.870189a15.649811 15.649811 0 0 0 15.649811-15.649812zM694.735698 692.166038a15.649811 15.649811 0 0 0-15.649811-15.649812h-475.870189a15.649811 15.649811 0 0 0 0 31.299623h475.870189a15.649811 15.649811 0 0 0 15.649811-15.649811zM694.735698 509.836075a15.649811 15.649811 0 0 0-15.649811-15.649811h-475.870189a15.649811 15.649811 0 1 0 0 31.299623h475.870189a15.649811 15.649811 0 0 0 15.649811-15.649812zM559.490415 418.680755a15.649811 15.649811 0 0 0-15.649811-15.649812h-340.624906a15.649811 15.649811 0 0 0 0 31.299623h340.624906a15.649811 15.649811 0 0 0 15.649811-15.649811zM559.490415 327.525434a15.649811 15.649811 0 0 0-15.649811-15.649811h-340.624906a15.649811 15.649811 0 0 0 0 31.299622h340.624906a15.649811 15.649811 0 0 0 15.649811-15.649811zM549.830038 236.350792a15.649811 15.649811 0 0 0-15.649812-15.649811h-330.964528a15.649811 15.649811 0 1 0 0 31.299623h330.964528a15.649811 15.649811 0 0 0 15.649812-15.649812z" fill="#D0D0F7" /><path d="M797.425509 461.959245V152.633962c0-16.422642-3.864151-32.072453-10.819622-45.983396-87.716226 11.399245-155.532075 86.556981-155.532076 177.171321 0 94.478491 73.612075 171.761509 166.351698 178.137358z" fill="#D0D0F7" /><path d="M959.603925 283.628679c0 82.673509-67.100981 149.774491-149.75517 149.774491s-149.774491-67.100981-149.774491-149.774491 67.100981-149.581283 149.774491-149.581283 149.75517 66.927094 149.75517 149.581283z" fill="#FC6559" /><path d="M687.316528 286.082415h-0.231849a6.762264 6.762264 0 0 1-6.530415-6.974792 129.062642 129.062642 0 0 1 61.594566-105.703849 6.762264 6.762264 0 1 1 7.090717 11.515169 115.615396 115.615396 0 0 0-55.180075 94.633057 6.762264 6.762264 0 0 1-6.762264 6.530415zM781.505208 164.168453a6.762264 6.762264 0 0 1 5.467773-7.844227c7.187321-1.255849 14.490566-1.932075 21.774491-1.990037h0.057962a6.742943 6.742943 0 1 1 0.057962 13.524528 116.890566 116.890566 0 0 0-19.513962 1.79683 6.800906 6.800906 0 0 1-7.844226-5.487094z" fill="#FFFFFF" opacity=".2" /><path d="M959.526642 283.628679a149.735849 149.735849 0 0 1-149.73585 149.735849c-49.074717 0-92.739623-23.571321-119.981886-60.087547 95.058113 88.160604 251.942642 22.141585 251.942641-109.548679 0-33.231698-10.819623-63.951698-28.981132-88.682264a149.175547 149.175547 0 0 1 46.756227 108.582641z" fill="#F05543" /><path d="M904.926189 283.667321c0 52.47517-42.602264 95.096755-95.077434 95.096754s-95.096755-42.621585-95.096755-95.096754 42.602264-94.98083 95.096755-94.98083 95.077434 42.50566 95.077434 94.98083z" fill="#FFFFFF" /><path d="M904.848906 283.628679c0 52.552453-42.50566 95.058113-95.058114 95.058113-34.970566 0-65.497358-18.93434-82.113207-47.142641a95.116075 95.116075 0 0 0 144.712453-119.209057c19.900377 17.388679 32.458868 42.892075 32.458868 71.293585z" fill="#E4E3FF" /><path d="M832.280151 326.636679l-65.342793-65.342792a14.490566 14.490566 0 1 1 20.48-20.48l65.342793 65.323471a14.490566 14.490566 0 1 1-20.48 20.48z" fill="#FC6559" /><path d="M766.937358 326.636679a14.490566 14.490566 0 0 1 0-20.48l65.342793-65.362113a14.490566 14.490566 0 1 1 20.48 20.48l-65.342793 65.362113a14.490566 14.490566 0 0 1-20.48 0z" fill="#FC6559" /><path d="M473.841509 99.753057h15.572529a14.490566 14.490566 0 0 1 0 28.981132h-15.572529a14.490566 14.490566 0 0 1 0-28.981132zM273.504604 99.753057h143.456604a14.490566 14.490566 0 0 1 0 28.981132h-143.456604a14.490566 14.490566 0 0 1 0-28.981132z" fill="#FFFFFF" opacity=".5" /></svg>