<?xml version="1.0" standalone="no"?><!DOCTYPE svg PUBLIC "-//W3C//DTD SVG 1.1//EN" "http://www.w3.org/Graphics/SVG/1.1/DTD/svg11.dtd"><svg class="icon" width="200px" height="200.00px" viewBox="0 0 1024 1024" version="1.1" xmlns="http://www.w3.org/2000/svg"><path d="M806.448302 177.364528v756.21434c0 47.335849-38.255094 85.590943-85.590944 85.590943H129.642264c-47.335849 0-85.590943-38.255094-85.590943-85.590943V177.364528c0-47.335849 38.255094-85.590943 85.590943-85.590943h591.215094c47.335849 0 85.590943 38.255094 85.590944 85.590943z" fill="#E4E3FF" /><path d="M99.888302 295.607547v-14.683773a14.490566 14.490566 0 0 1 28.981132 0v14.683773a14.490566 14.490566 0 0 1-28.981132 0zM99.888302 589.283019V359.424a14.490566 14.490566 0 0 1 28.981132 0V589.283019a14.490566 14.490566 0 0 1-28.981132 0z" fill="#FFFFFF" /><path d="M806.448302 177.364528v756.21434c0 47.335849-38.255094 85.590943-85.590944 85.590943H129.642264a85.011321 85.011321 0 0 1-73.805283-42.50566c7.728302 2.511698 16.036226 3.670943 24.537359 3.670943h591.215094c47.335849 0 85.590943-38.255094 85.590943-85.590943V138.529811c0-15.843019-4.250566-30.526792-11.78566-43.085283 35.356981 10.433208 61.053585 43.085283 61.053585 81.92z" fill="#D0D0F7" /><path d="M44.051321 219.097358h762.396981v19.320755H44.051321z" fill="#C2C2EF" /><path d="M187.024906 225.569811h19.320754V1019.169811h-19.320754z" fill="#C2C2EF" /><path d="M44.051321 349.898868h762.396981v19.320755H44.051321zM44.051321 480.50717h762.396981v19.320755H44.051321zM44.051321 611.115472h762.396981v19.320754H44.051321zM44.051321 741.723774h762.396981v19.320754H44.051321zM44.051321 872.525283h762.396981v19.320755H44.051321z" fill="#C2C2EF" /><path d="M539.860528 739.791698l288.072453-382.995321 98.381283 73.998491-288.072453 382.995321z" fill="#F9B938" /><path d="M926.642717 430.988075L638.415698 813.983396l-98.400604-74.037132 19.417359-25.793207 24.807849 18.683169a60.91834 60.91834 0 0 0 85.320453-12.056151l232.177509-308.533132z" fill="#E5A320" /><path d="M935.742792 418.912604l31.821283-42.293132a61.575245 61.575245 0 1 0-98.400603-74.037132l-31.821283 42.273811z" fill="#474646" /><path d="M967.583396 376.600151l-31.840604 42.312453-98.400603-74.056453 16.326037-21.677887 60.416 45.481057a28.845887 28.845887 0 0 0 40.419019-5.699623l14.490566-19.262792a59.89434 59.89434 0 0 0 9.312604-18.084227 61.324075 61.324075 0 0 1-10.723019 51.006793z" fill="#2D2C2C" /><path d="M827.971623 356.85434l16.364679-21.75517 98.381283 73.99849-16.364679 21.75517z" fill="#E4E3FF" /><path d="M901.776906 412.382189l16.364679-21.735849 24.576 18.470641-16.364679 21.75517z" fill="#D0D0F7" /><path d="M638.415698 813.983396l-83.021283 50.620378-30.700679 18.818415c-10.394566 6.433811-23.204226-3.207245-19.977661-15.050868l9.525133-34.622793 25.773886-93.802264z" fill="#F4B37D" /><path d="M555.394415 864.603774l-30.700679 18.818415c-10.394566 6.433811-23.204226-3.207245-19.977661-15.050868l9.525133-34.622793a46.099321 46.099321 0 0 1 41.153207 30.855246z" fill="#474646" /><path d="M662.701887 628.851925a7.573736 7.573736 0 0 1-1.507019-10.587774l97.666415-129.79683a7.573736 7.573736 0 0 1 12.094792 9.080754l-97.666415 129.796831a7.573736 7.573736 0 0 1-10.607094 1.507019zM785.65917 465.456302a7.573736 7.573736 0 0 1-1.507019-10.587774l12.616453-16.751094a7.573736 7.573736 0 0 1 12.075471 9.080755l-12.597132 16.770415a7.573736 7.573736 0 0 1-10.587773 1.487698z" fill="#FFFFFF" opacity=".4" /><path d="M231.153509 157.058415c0 15.244075-12.442566 27.435472-27.435471 27.435472a27.280906 27.280906 0 0 1-27.222944-27.435472 27.242264 27.242264 0 0 1 27.222944-27.222943c14.992906 0 27.435472 12.210717 27.435471 27.222943z" fill="#FC6559" /><path d="M226.361962 141.81434c-4.250566-2.898113-9.660377-4.636981-15.263396-4.636982-15.070189 0-27.242264 12.172075-27.242264 27.242265 0 5.796226 1.738868 11.01283 4.636981 15.456603a27.628679 27.628679 0 0 1-11.978868-22.79849c0-15.070189 12.172075-27.242264 27.242264-27.242264 9.273962 0 17.775094 4.830189 22.605283 11.978868z" fill="#F05543" /><path d="M246.416906 83.46566c0 2.898113-0.193208 5.603019-0.386415 8.307925-3.091321 39.607547-27.821887 70.327547-57.769057 70.327547-5.409811 0-9.660377-4.250566-9.660377-9.660377 0-5.216604 4.250566-9.660377 9.660377-9.660378 19.127547 0 35.743396-22.605283 38.448302-51.006792 0.193208-2.704906 0.386415-5.409811 0.386415-8.307925 0-32.072453-17.775094-59.314717-38.834717-59.314717s-39.027925 27.242264-39.027925 59.314717c0 2.898113 0.193208 5.603019 0.386416 8.307925h-19.320755c-0.193208-2.704906-0.386415-5.603019-0.386415-8.307925 0-43.278491 26.276226-78.635472 58.348679-78.635471s58.155472 35.356981 58.155472 78.635471z" fill="#F05543" /><path d="M389.216604 157.058415c0 15.244075-12.442566 27.435472-27.435472 27.435472a27.280906 27.280906 0 0 1-27.222943-27.435472 27.242264 27.242264 0 0 1 27.222943-27.222943c14.992906 0 27.435472 12.210717 27.435472 27.222943z" fill="#FC6559" /><path d="M384.405736 141.81434c-4.250566-2.898113-9.660377-4.636981-15.263396-4.636982-15.070189 0-27.242264 12.172075-27.242265 27.242265 0 5.796226 1.738868 11.01283 4.636982 15.456603a27.628679 27.628679 0 0 1-11.978868-22.79849c0-15.070189 12.172075-27.242264 27.242264-27.242264 9.273962 0 17.775094 4.830189 22.605283 11.978868z" fill="#F05543" /><path d="M404.48 83.46566c0 2.898113-0.193208 5.603019-0.386415 8.307925-3.091321 39.607547-27.821887 70.327547-57.769057 70.327547-5.409811 0-9.660377-4.250566-9.660377-9.660377 0-5.216604 4.250566-9.660377 9.660377-9.660378 19.127547 0 35.743396-22.605283 38.448302-51.006792 0.193208-2.704906 0.386415-5.409811 0.386415-8.307925 0-32.072453-17.775094-59.314717-38.834717-59.314717s-39.027925 27.242264-39.027924 59.314717c0 2.898113 0.193208 5.603019 0.386415 8.307925h-19.320755c-0.193208-2.704906-0.386415-5.603019-0.386415-8.307925 0-43.278491 26.276226-78.635472 58.348679-78.635471s58.155472 35.356981 58.155472 78.635471z" fill="#F05543" /><path d="M547.279698 157.058415c0 15.244075-12.442566 27.435472-27.435472 27.435472a27.280906 27.280906 0 0 1-27.222943-27.435472 27.242264 27.242264 0 0 1 27.222943-27.222943c14.992906 0 27.435472 12.210717 27.435472 27.222943z" fill="#FC6559" /><path d="M542.46883 141.81434c-4.250566-2.898113-9.660377-4.636981-15.263396-4.636982-15.070189 0-27.242264 12.172075-27.242264 27.242265 0 5.796226 1.738868 11.01283 4.636981 15.456603a27.628679 27.628679 0 0 1-11.978868-22.79849c0-15.070189 12.172075-27.242264 27.242264-27.242264 9.273962 0 17.775094 4.830189 22.605283 11.978868z" fill="#F05543" /><path d="M562.543094 83.46566c0 2.898113-0.193208 5.603019-0.386415 8.307925-3.091321 39.607547-27.821887 70.327547-57.769056 70.327547-5.409811 0-9.660377-4.250566-9.660378-9.660377 0-5.216604 4.250566-9.660377 9.660378-9.660378 19.127547 0 35.743396-22.605283 38.448302-51.006792 0.193208-2.704906 0.386415-5.409811 0.386415-8.307925 0-32.072453-17.775094-59.314717-38.834717-59.314717s-39.027925 27.242264-39.027925 59.314717c0 2.898113 0.193208 5.603019 0.386415 8.307925h-19.320755c-0.193208-2.704906-0.386415-5.603019-0.386415-8.307925 0-43.278491 26.276226-78.635472 58.34868-78.635471s58.155472 35.356981 58.155471 78.635471z" fill="#F05543" /><path d="M705.342792 157.058415c0 15.244075-12.442566 27.435472-27.435471 27.435472a27.280906 27.280906 0 0 1-27.222944-27.435472 27.242264 27.242264 0 0 1 27.203623-27.222943c15.012226 0 27.435472 12.210717 27.435472 27.222943z" fill="#FC6559" /><path d="M700.531925 141.81434c-4.250566-2.898113-9.660377-4.636981-15.263397-4.636982-15.070189 0-27.242264 12.172075-27.242264 27.242265 0 5.796226 1.738868 11.01283 4.636981 15.456603a27.628679 27.628679 0 0 1-11.978868-22.79849c0-15.070189 12.172075-27.242264 27.242265-27.242264 9.273962 0 17.775094 4.830189 22.605283 11.978868z" fill="#F05543" /><path d="M720.606189 83.46566c0 2.898113-0.193208 5.603019-0.386415 8.307925-3.091321 39.607547-27.821887 70.327547-57.769057 70.327547-5.409811 0-9.660377-4.250566-9.660377-9.660377 0-5.216604 4.250566-9.660377 9.660377-9.660378 19.127547 0 35.743396-22.605283 38.448302-51.006792 0.193208-2.704906 0.386415-5.409811 0.386415-8.307925 0-32.072453-17.775094-59.314717-38.834717-59.314717s-39.027925 27.242264-39.027925 59.314717c0 2.898113 0.193208 5.603019 0.386416 8.307925h-19.320755c-0.193208-2.704906-0.386415-5.603019-0.386415-8.307925 0-43.278491 26.276226-78.635472 58.348679-78.635471s58.155472 35.356981 58.155472 78.635471z" fill="#F05543" /></svg>