<?xml version="1.0" standalone="no"?><!DOCTYPE svg PUBLIC "-//W3C//DTD SVG 1.1//EN" "http://www.w3.org/Graphics/SVG/1.1/DTD/svg11.dtd"><svg class="icon" width="200px" height="200.00px" viewBox="0 0 1024 1024" version="1.1" xmlns="http://www.w3.org/2000/svg"><path d="M897.52634 375.576151H215.04a184.126792 184.126792 0 0 1-97.647094-28.015094L54.136755 307.97283a12.423245 12.423245 0 0 1 0-21.059622l63.256151-39.607548a184.126792 184.126792 0 0 1 97.724377-28.073056h682.409057a78.171774 78.171774 0 1 1 0 156.343547z" fill="#7979F7" /><path d="M897.564981 375.576151H215.020679c-8.771623 0-17.543245-0.579623-26.102339-1.932076-17.485283-1.603623-47.084679-10.819623-71.506114-26.12166l-23.088301-14.413283-40.245133-25.136302a12.481208 12.481208 0 0 1 0-21.059622l7.998793-5.042717 55.334641 34.584151a183.721057 183.721057 0 0 0 71.486793 26.083018c8.578415 1.371774 17.350038 1.970717 26.12166 1.970717h682.544302a78.152453 78.152453 0 0 0 76.568151-62.637886c1.062642 5.062038 1.54566 10.220679 1.54566 15.475924v0.096604a78.113811 78.113811 0 0 1-78.113811 78.133132z" fill="#5E5EEF" /><path d="M188.91834 373.721358a183.875623 183.875623 0 0 1-71.506114-26.198943l-23.088301-14.413283-40.245133-25.136302a12.481208 12.481208 0 0 1 0-21.059622l40.245133-25.213585 23.088301-14.413283a185.440604 185.440604 0 0 1 71.486793-26.218265z" fill="#F7C9A9" /><path d="M188.91834 373.721358c-20.98234-3.806189-42.969358-8.307925-71.506114-26.198943l-23.088301-14.413283-40.245133-25.136302a12.481208 12.481208 0 0 1 0-21.059622l7.998793-5.042717 44.630943 27.957132 10.703698 6.607698a183.721057 183.721057 0 0 0 71.486793 26.12166z" fill="#F0B68E" /><path d="M822.832302 219.232604h48.263245v156.343547h-48.263245z" fill="#F9B938" /><path d="M822.832302 344.508377h48.224604v31.067774h-48.224604z" fill="#E5A320" /><path d="M852.103245 375.576151h45.403774a78.171774 78.171774 0 0 0 0-156.343547h-45.403774z" fill="#FC6559" /><path d="M902.684981 252.483623a9.73766 9.73766 0 0 1 12.674415-9.293283 63.777811 63.777811 0 0 1 40.380378 37.482264 9.756981 9.756981 0 0 1-18.122868 7.148679 44.379774 44.379774 0 0 0-28.111698-26.063698 9.756981 9.756981 0 0 1-6.820227-9.273962z" fill="#FFFFFF" opacity=".3" /><path d="M897.564981 375.576151H852.045283v-156.343547h27.667321v100.236075c0 20.22883 16.403321 36.632151 36.632151 36.632151 17.137509 0 33.01917-5.564377 45.867471-14.915622a77.997887 77.997887 0 0 1-64.666566 34.390943z" fill="#F05543" /><path d="M94.323925 333.089811l-40.245133-25.116981a12.481208 12.481208 0 0 1 0-21.059622l40.245133-25.213585a52.552453 52.552453 0 0 1 13.910943 35.743396c0 13.83366-5.235925 26.314868-13.910943 35.666113z" fill="#474646" /><path d="M94.323925 333.089811l-40.245133-25.116981a12.481208 12.481208 0 0 1 0-21.059622l7.998793-5.042717 44.630943 27.957132a50.485132 50.485132 0 0 1-12.384603 23.281509z" fill="#2D2C2C" /><path d="M621.084981 255.74883c0-5.37117 4.366491-9.73766 9.737661-9.73766h73.264301a9.73766 9.73766 0 0 1 0 19.475321H630.822642a9.73766 9.73766 0 0 1-9.737661-9.737661zM735.946868 255.74883c0-5.37117 4.366491-9.73766 9.756981-9.73766h17.195472a9.73766 9.73766 0 0 1 0 19.475321h-17.195472a9.73766 9.73766 0 0 1-9.756981-9.737661z" fill="#FFFFFF" opacity=".3" /><path d="M699.469283 375.518189v-199.003774c0-31.686038-25.657962-56.223396-56.223396-56.223396-31.106415 0-56.223396 25.310189-56.223396 56.223396a56.146113 56.146113 0 0 0-56.223397-56.223396 56.416604 56.416604 0 0 0-56.223396 56.223396c0-31.299623-25.232906-56.223396-56.030189-56.223396-31.106415 0-56.223396 25.310189-56.223396 56.223396 0-36.052528-33.308981-62.618566-68.588679-54.870943-26.218264 5.776906-43.858113 30.72-43.858113 57.575849V442.058868a191.275472 191.275472 0 0 0 34.758037 109.935094l46.369812 66.057661h404.016302l48.089358-64.743849a191.275472 191.275472 0 0 0 37.694793-114.031095v-63.75849h-121.33434z" fill="#F2A764" /><path d="M310.368604 445.169509a10.220679 10.220679 0 0 1-10.24-10.24v-124.329056a10.220679 10.220679 0 1 1 20.460679 0v124.348377c0 5.64166-4.579019 10.24-10.24 10.24z" fill="#FFFFFF" opacity=".4" /><path d="M310.368604 265.969509a10.220679 10.220679 0 0 1-10.24-10.24v-13.968905a10.220679 10.220679 0 1 1 20.460679 0v13.988226c0 5.660981-4.579019 10.24-10.24 10.24z" fill="#FFFFFF" opacity=".4" /><path d="M820.74566 375.518189v63.816453a190.328755 190.328755 0 0 1-37.656151 113.93449l-48.070037 64.840453H331.041811L308.552453 586.191698h313.884981a160.941887 160.941887 0 0 0 128.946717-64.627924 192.76317 192.76317 0 0 0 37.63683-114.147019v-31.898566h31.705359z" fill="#EA9C5C" /><path d="M778.471849 642.994717v83.658868c0 13.795019-11.186717 24.962415-24.962415 24.962415H317.18883a24.962415 24.962415 0 0 1-24.962415-24.962415v-83.658868c0-13.775698 11.186717-24.943094 24.962415-24.943094H753.509434c13.775698 0 24.962415 11.167396 24.962415 24.962415z" fill="#474646" /><path d="M778.394566 643.052679v83.658868a24.923774 24.923774 0 0 1-24.962415 24.962415H317.130868c-13.698415 0-24.943094-11.244679-24.943094-24.962415v-2.048h434.44649c13.717736 0 24.962415-11.244679 24.962415-24.943094v-81.610868h1.835472c13.910943 0 24.962415 11.032151 24.962415 24.943094z" fill="#2D2C2C" /><path d="M742.342038 751.616v119.28634c0 18.122868-14.683774 32.806642-32.806642 32.806641h-348.353207c-18.142189 0-32.825962-14.683774-32.825963-32.806641v-119.28634z" fill="#E4E3FF" /><path d="M742.380679 751.673962v119.170415c0 18.122868-14.683774 32.806642-32.787321 32.806642h-19.97766v-67.912453c0-14.799698-11.978868-26.797887-26.797887-26.797887h-334.442264v-57.266717z" fill="#D0D0F7" /><path d="M493.200906 657.388679c0 5.660981-4.559698 10.24-10.22068 10.24H399.553208a10.220679 10.220679 0 1 1 0-20.48h83.427018c5.660981 0 10.24 4.59834 10.24 10.24zM363.848453 657.388679c0 5.660981-4.559698 10.24-10.220679 10.24h-3.748227a10.220679 10.220679 0 1 1 0-20.48h3.748227c5.660981 0 10.24 4.59834 10.24 10.24z" fill="#FFFFFF" opacity=".3" /></svg>